M48
;Layer_Color=9474304
;FILE_FORMAT=2:5
INCH,LZ
;TYPE=PLATED
T1F00S00C0.01575
T2F00S00C0.01968
T3F00S00C0.02362
T5F00S00C0.02756
T6F00S00C0.03150
T7F00S00C0.03543
T9F00S00C0.03937
T10F00S00C0.04134
T11F00S00C0.04528
T12F00S00C0.04685
T13F00S00C0.04724
T14F00S00C0.05906
T15F00S00C0.06693
T16F00S00C0.07480
T17F00S00C0.09055
T18F00S00C0.12598
;TYPE=NON_PLATED
T19F00S00C0.09409
T20F00S00C0.12598
%
T01
X0605512Y0047835
X0613583Y0047835
X0621654Y0047835
X0629724
X0637795
X0645866
X0653937
X0662008
X0670079
Y0056496
Y0065158
Y0073819
Y0082677
Y0091535
X0653233Y0088341
X0645359
X0637485
X0629611
X0621737
Y0078892
X0629611
X0637485
X0645359
X0653233
Y0069443
X0645359
X0637485
X0629611
X0621737
Y0059995
X0629611
X0637485
X0645359
X0653233
X0605512Y0056496
Y0065158
Y0073819
Y0082677
Y0091142
X0470571Y0094784
X0435827Y0100394
X0356299Y0102559
X0357579Y0107972
X0354134Y0112205
X0308957Y0040748
X0160039Y0064173
X0160925Y0070669
X0151279Y006752
X0142618Y0077461
X0129823Y0079823
X0135039Y0110728
X0151378Y0111319
X0158563Y0102559
X0078248Y0105512
X0060236Y0090748
X0070571Y0071358
X0082677Y007126
X0085532Y0058465
X006063
X0065847Y0116634
X0076378
X0092118Y011881
X0059842Y0129331
X0052067Y0124016
X0048917Y0146752
X0054724Y0175972
X0016437Y0176279
X0017421Y019813
X0018307Y0215748
Y0225197
Y0234646
Y0244094
Y0253543
Y0262992
X0045768
Y0253543
X0045768Y0244094
Y0234646
X0074156Y0210148
X0081517Y0208574
X0087904Y0190945
X0092116Y0181004
X0161417Y0153445
X0146161Y0137992
X0174705Y0231496
Y0240945
Y0250394
Y0259842
X0174705Y0269291
X0197146
Y0259842
Y0250394
Y0240945
Y0231496
Y0222047
X0154429Y0267075
X0145472Y0263287
X0288878Y0242913
Y0235039
Y0227165
Y0219291
Y0211417
X0298327
Y0219291
Y0227165
Y0235039
Y0242913
X0307776
Y0235039
Y0227165
Y0219291
Y0211417
X0317224
Y0219291
Y0227165
Y0235039
Y0242913
X0309055Y0153248
X0369783Y0152362
X0382579Y0148031
X045Y0118898
X0455905Y0118504
X0639764Y0161909
X0648425
X0657087
X0665748Y0161909
X0674409Y0161909
X0683071
Y016998
Y0178642
Y0187303
Y0195965
Y0204626
Y0213287
Y0221949
X0674409
X0665748
X0657087
X0648425
X0639764
X063971Y0207163
Y0199289
Y0191415
Y0183541
Y0175667
X0649159
Y0183541
Y0191415
Y0199289
Y0207163
X0658608
Y0199289
Y0191415
Y0183541
Y0175667
X0668057
Y0183541
Y0191415
Y0199289
Y0207163
X0197146Y027874
Y0288189
Y0297638
X0174705Y0288189
Y027874
X0161122Y0283366
Y0291977
X0161122Y0300886
X0150098
Y0292395
X0139075Y0292649
Y0300886
X0128051
Y0293012
Y0285138
X0123622Y0276673
X0117027Y0293012
Y0300886
X0161122Y0273524
X0045768Y0272441
Y028189
Y0291339
Y0300787
X0045768Y0310236
X0018307
Y0300787
Y0272441
T02
X0676673Y0110236
X0556496Y0087205
X0543504
X0530512
X0494193Y0084547
X0500591Y0069488
X046437Y0086221
X0449114Y0062106
X0444488Y0111811
X0422933Y0113484
X0342618Y0100295
X0357185Y0054528
X0325689Y0050689
X0334547Y0016732
X0355217Y0013287
X0203248Y0018898
Y0007579
X011811
Y0018898
X0130315Y0090256
X0146949Y0089961
X0162992Y0079528
X0190551Y0091437
X0119685Y0102264
X0091831Y0087402
X0030276Y0072973
Y0060382
X0005906Y0057677
Y0069488
Y0081299
Y009311
Y0104921
Y0045866
X0006004Y0034055
Y0007579
X0035335
X009941Y0145177
X01125Y0138779
X0108465Y0202953
X0100984Y0201673
X0090847Y021565
X0085721Y0231942
X0077059Y0223928
X01Y0238287
X0123531Y0233695
X0126091Y0242061
X0128347Y0221756
X0130512Y0202854
X0129429Y0187894
X0133858Y0183366
X0120669Y0192815
X0116043Y0170866
X0117421Y0160827
X0153445Y0138583
X0159646Y0138091
X0170669Y0144882
X0179626Y0149016
X0186516Y0153937
X0191634Y0156693
X0195768Y015315
X019498Y0169488
X019065Y016624
X0185827Y0162598
X0182185Y0158661
X0181299Y0190256
X0156496Y0215354
X0220472Y0217913
X0234252
X0247244
X0226673Y011624
X0186516Y0122343
X0179079Y0124228
X0168701Y0118898
X0312992Y0137894
X0327362Y0144882
X0335433Y0130905
X0327756Y0167815
X0316732
X0374311Y0185827
X0349705Y0245965
X0446063Y0146949
X0483366
X0479134Y0118898
X0524705Y0146949
X0562402
X0527362Y0188878
X0604724Y011624
X0676673Y0120669
X0683957Y0250197
Y027874
Y0311024
X0645571Y034498
X0626083
X0610335
X0594783
X0623917Y0283366
X0574705Y034498
X0556398
X0509842
X0486221
X0462598
X0438976
X0415354
X0277165Y0285728
X0264173
X0251181
X0238189
X0101772Y0299213
X0082874
X0065945
Y0286221
Y0273228
T03
X031939Y0025
X0363091Y0037008
X0377953Y0036909
X0392224Y0037008
X0050394Y0110236
X0113673Y02444
X0162205Y0237894
X0294882Y0176181
X0272244Y0140354
X0319488Y0126969
X0344943Y0189331
X0363779Y0207579
X0426476Y0250886
T05
X0438091Y0085827
X0334006Y0077264
X0284646Y0102953
X0313701Y0004429
X0323701
X0337717
X0347716
X0214272Y008563
X0189272Y0079921
X0115748Y0113878
X0046063Y0152067
X0349803Y0159547
X0349705Y0122933
X0511417Y0262992
X000561Y0283366
T06
X0384252Y0049606
X0392126
X0227559Y009439
Y0104232
X0287303Y0120177
X0295177
X0381398Y0197244
X039124
X0390059Y0225295
X0380217
X0425197Y0181201
Y0173327
X0485335Y0207874
Y0217717
X0622047Y0158465
Y0148622
X0368209Y0290945
Y0298819
X0307874Y0281299
X0298031
T07
X059Y0011417
Y0021417
X06
Y0011417
X061
Y0021417
X058
X057
X056
X055
X054
Y0011417
X055
X056
X057
X058
X0398189Y0066831
X0388189
X0378189
X0368189
X0358189
X0348189
X0357874Y0127972
Y0137972
X063061Y0235433
X0099685Y0290158
X0089685
T09
X0628937Y0010531
X0646654
X0517915
X0500198
X0453346
X043563
X0435039Y0050098
X0444882
X0454724
X0425197
X0415354
X0387992Y0010531
X0370276
X0472736Y0247342
X0492421
X0645669Y014065
X0665354
X054311Y0291634
Y0311319
X0512008Y0301476
X0492323
X0433858Y0277461
X0420079
T10
X0140355Y0016142
X0171851
T11
X0449016Y0291791
X0462402
X0475787
X0469095Y0306791
X0455709
T12
X0590354Y0112303
X0374213
X0407283Y0116634
X0557283
T13
X0577461Y0271555
X0597146
X0587303Y0261712
Y0281398
X0597146Y029124
X0577461
T14
X0624016Y0020374
X0651575
X0522836
X0495277
X0458268
X0430709
X0392913
X0365354
X0032087Y0337402
T15
X0595039Y0317028
X0625827
X0645827
X0575039
T16
X0022087Y0327402
X0042087
Y0347402
X0022087
T17
X0539173Y0336693
X038563
T18
X0673228Y0019685
X0019685
X0236221Y0255906
X0673228Y0334646
T19
X0374213Y0140256
X0407283Y0148524
T20
X0434842Y0116634
X0529724
M30
