G04*
G04 #@! TF.GenerationSoftware,Altium Limited,Altium Designer,19.1.8 (144)*
G04*
G04 Layer_Physical_Order=1*
G04 Layer_Color=255*
%FSLAX25Y25*%
%MOIN*%
G70*
G01*
G75*
%ADD11C,0.00984*%
%ADD17C,0.01181*%
%ADD23C,0.05906*%
G04:AMPARAMS|DCode=28|XSize=14.17mil|YSize=9.84mil|CornerRadius=0mil|HoleSize=0mil|Usage=FLASHONLY|Rotation=315.000|XOffset=0mil|YOffset=0mil|HoleType=Round|Shape=Rectangle|*
%AMROTATEDRECTD28*
4,1,4,-0.00849,0.00153,-0.00153,0.00849,0.00849,-0.00153,0.00153,-0.00849,-0.00849,0.00153,0.0*
%
%ADD28ROTATEDRECTD28*%

G04:AMPARAMS|DCode=42|XSize=14.17mil|YSize=9.84mil|CornerRadius=0mil|HoleSize=0mil|Usage=FLASHONLY|Rotation=225.000|XOffset=0mil|YOffset=0mil|HoleType=Round|Shape=Rectangle|*
%AMROTATEDRECTD42*
4,1,4,0.00153,0.00849,0.00849,0.00153,-0.00153,-0.00849,-0.00849,-0.00153,0.00153,0.00849,0.0*
%
%ADD42ROTATEDRECTD42*%

%ADD43R,0.00984X0.01417*%
%ADD72R,0.05512X0.14646*%
%ADD73R,0.05512X0.22047*%
%ADD74R,0.10236X0.22047*%
G04:AMPARAMS|DCode=82|XSize=26.2mil|YSize=26.48mil|CornerRadius=0mil|HoleSize=0mil|Usage=FLASHONLY|Rotation=315.000|XOffset=0mil|YOffset=0mil|HoleType=Round|Shape=Rectangle|*
%AMROTATEDRECTD82*
4,1,4,-0.01862,-0.00010,0.00010,0.01862,0.01862,0.00010,-0.00010,-0.01862,-0.01862,-0.00010,0.0*
%
%ADD82ROTATEDRECTD82*%

G04:AMPARAMS|DCode=83|XSize=41.34mil|YSize=86.61mil|CornerRadius=0mil|HoleSize=0mil|Usage=FLASHONLY|Rotation=135.000|XOffset=0mil|YOffset=0mil|HoleType=Round|Shape=Rectangle|*
%AMROTATEDRECTD83*
4,1,4,0.04524,0.01601,-0.01601,-0.04524,-0.04524,-0.01601,0.01601,0.04524,0.04524,0.01601,0.0*
%
%ADD83ROTATEDRECTD83*%

G04:AMPARAMS|DCode=84|XSize=39.37mil|YSize=41.34mil|CornerRadius=0mil|HoleSize=0mil|Usage=FLASHONLY|Rotation=135.000|XOffset=0mil|YOffset=0mil|HoleType=Round|Shape=Rectangle|*
%AMROTATEDRECTD84*
4,1,4,0.02854,0.00070,-0.00070,-0.02854,-0.02854,-0.00070,0.00070,0.02854,0.02854,0.00070,0.0*
%
%ADD84ROTATEDRECTD84*%

%ADD85R,0.03961X0.03773*%
%ADD119C,0.07284*%
%ADD120R,0.07284X0.07284*%
%ADD122C,0.01378*%
%ADD123C,0.01968*%
%ADD124C,0.02362*%
%ADD125C,0.06684*%
%ADD126C,0.02756*%
%ADD127R,0.02362X0.04528*%
%ADD128R,0.08661X0.12992*%
%ADD129R,0.07087X0.07087*%
%ADD130R,0.03937X0.04331*%
%ADD131R,0.04331X0.03937*%
%ADD132R,0.05118X0.05906*%
%ADD133R,0.39764X0.40000*%
%ADD134R,0.12598X0.04213*%
%ADD135R,0.40000X0.39764*%
%ADD136R,0.04213X0.12598*%
%ADD137R,0.08661X0.07874*%
%ADD138R,0.16535X0.10236*%
%ADD139R,0.02559X0.04921*%
%ADD140R,0.04921X0.02559*%
%ADD141R,0.05315X0.01378*%
%ADD142R,0.07480X0.05906*%
%ADD143R,0.07480X0.04724*%
%ADD144R,0.03937X0.05512*%
%ADD145R,0.12402X0.08661*%
%ADD146R,0.08661X0.12402*%
%ADD147R,0.04803X0.03583*%
G04:AMPARAMS|DCode=148|XSize=70.87mil|YSize=23.62mil|CornerRadius=0mil|HoleSize=0mil|Usage=FLASHONLY|Rotation=315.000|XOffset=0mil|YOffset=0mil|HoleType=Round|Shape=Round|*
%AMOVALD148*
21,1,0.04724,0.02362,0.00000,0.00000,315.0*
1,1,0.02362,-0.01670,0.01670*
1,1,0.02362,0.01670,-0.01670*
%
%ADD148OVALD148*%

G04:AMPARAMS|DCode=149|XSize=70.87mil|YSize=23.62mil|CornerRadius=0mil|HoleSize=0mil|Usage=FLASHONLY|Rotation=225.000|XOffset=0mil|YOffset=0mil|HoleType=Round|Shape=Round|*
%AMOVALD149*
21,1,0.04724,0.02362,0.00000,0.00000,225.0*
1,1,0.02362,0.01670,0.01670*
1,1,0.02362,-0.01670,-0.01670*
%
%ADD149OVALD149*%

%ADD150R,0.05512X0.03937*%
%ADD151R,0.05807X0.01496*%
%ADD152R,0.03740X0.03543*%
%ADD153R,0.03543X0.03740*%
%ADD154R,0.05906X0.05118*%
%ADD155R,0.06299X0.07087*%
G04:AMPARAMS|DCode=156|XSize=39.37mil|YSize=43.31mil|CornerRadius=0mil|HoleSize=0mil|Usage=FLASHONLY|Rotation=45.000|XOffset=0mil|YOffset=0mil|HoleType=Round|Shape=Rectangle|*
%AMROTATEDRECTD156*
4,1,4,0.00139,-0.02923,-0.02923,0.00139,-0.00139,0.02923,0.02923,-0.00139,0.00139,-0.02923,0.0*
%
%ADD156ROTATEDRECTD156*%

G04:AMPARAMS|DCode=157|XSize=39.37mil|YSize=43.31mil|CornerRadius=0mil|HoleSize=0mil|Usage=FLASHONLY|Rotation=315.000|XOffset=0mil|YOffset=0mil|HoleType=Round|Shape=Rectangle|*
%AMROTATEDRECTD157*
4,1,4,-0.02923,-0.00139,0.00139,0.02923,0.02923,0.00139,-0.00139,-0.02923,-0.02923,-0.00139,0.0*
%
%ADD157ROTATEDRECTD157*%

G04:AMPARAMS|DCode=158|XSize=61.81mil|YSize=12.6mil|CornerRadius=1.58mil|HoleSize=0mil|Usage=FLASHONLY|Rotation=0.000|XOffset=0mil|YOffset=0mil|HoleType=Round|Shape=RoundedRectangle|*
%AMROUNDEDRECTD158*
21,1,0.06181,0.00945,0,0,0.0*
21,1,0.05866,0.01260,0,0,0.0*
1,1,0.00315,0.02933,-0.00472*
1,1,0.00315,-0.02933,-0.00472*
1,1,0.00315,-0.02933,0.00472*
1,1,0.00315,0.02933,0.00472*
%
%ADD158ROUNDEDRECTD158*%
%ADD159R,0.06299X0.08583*%
%ADD160R,0.07900X0.15000*%
%ADD161R,0.07900X0.05900*%
%ADD162R,0.27559X0.15748*%
%ADD163R,0.15748X0.27559*%
G04:AMPARAMS|DCode=164|XSize=52.76mil|YSize=129.53mil|CornerRadius=6.59mil|HoleSize=0mil|Usage=FLASHONLY|Rotation=90.000|XOffset=0mil|YOffset=0mil|HoleType=Round|Shape=RoundedRectangle|*
%AMROUNDEDRECTD164*
21,1,0.05276,0.11634,0,0,90.0*
21,1,0.03957,0.12953,0,0,90.0*
1,1,0.01319,0.05817,0.01978*
1,1,0.01319,0.05817,-0.01978*
1,1,0.01319,-0.05817,-0.01978*
1,1,0.01319,-0.05817,0.01978*
%
%ADD164ROUNDEDRECTD164*%
%ADD165R,0.04724X0.02165*%
%ADD166R,0.04488X0.05787*%
%ADD167R,0.05787X0.04488*%
%ADD168R,0.06299X0.05512*%
%ADD169R,0.04724X0.08661*%
%ADD170R,0.03937X0.05512*%
%ADD171R,0.02756X0.06299*%
%ADD172R,0.03937X0.09449*%
%ADD173R,0.03937X0.13386*%
%ADD174R,0.03150X0.05906*%
%ADD175R,0.02165X0.03937*%
%ADD176C,0.07874*%
%ADD177C,0.05906*%
%ADD178R,0.03150X0.01378*%
%ADD179C,0.05512*%
%ADD180C,0.04724*%
%ADD181R,0.05118X0.03898*%
%ADD182R,0.05118X0.02323*%
%ADD183R,0.15748X0.23228*%
%ADD184R,0.18110X0.09055*%
%ADD185R,0.09894X0.13394*%
%ADD186R,0.06004X0.02756*%
%ADD187C,0.01575*%
%ADD188C,0.03150*%
%ADD189C,0.04331*%
%ADD190C,0.01260*%
%ADD191C,0.06299*%
%ADD192C,0.07874*%
%ADD193C,0.03937*%
%ADD194C,0.07087*%
%ADD195C,0.01500*%
%ADD196C,0.04724*%
%ADD197C,0.05118*%
%ADD198C,0.05512*%
%ADD199C,0.04528*%
%ADD200C,0.01496*%
%ADD201C,0.06681*%
%ADD202C,0.04921*%
%ADD203C,0.03543*%
%ADD204C,0.20472*%
%ADD205C,0.08858*%
%ADD206C,0.03937*%
%ADD207R,0.05118X0.05118*%
%ADD208C,0.05118*%
%ADD209R,0.05906X0.05906*%
%ADD210R,0.05906X0.05906*%
%ADD211R,0.05118X0.05118*%
%ADD212O,0.03937X0.05709*%
%ADD213O,0.07480X0.03740*%
%ADD214C,0.04331*%
%ADD215C,0.13386*%
%ADD216C,0.08500*%
%ADD217C,0.07028*%
%ADD218C,0.06201*%
%ADD219C,0.25197*%
%ADD220C,0.10236*%
%ADD221C,0.09937*%
%ADD222O,0.14173X0.08268*%
%ADD223O,0.08268X0.14173*%
%ADD224O,0.07874X0.11811*%
%ADD225O,0.12992X0.09055*%
%ADD226O,0.11811X0.07874*%
%ADD227C,0.09449*%
%ADD228C,0.03543*%
G36*
X17199Y352658D02*
X17367Y352187D01*
X17331Y352157D01*
X16495Y351138D01*
X15873Y349975D01*
X15491Y348714D01*
X15419Y347992D01*
X28754D01*
X28683Y348714D01*
X28300Y349975D01*
X27678Y351138D01*
X26842Y352157D01*
X26806Y352187D01*
X26974Y352658D01*
X37199Y352658D01*
X37367Y352187D01*
X37331Y352157D01*
X36495Y351138D01*
X35873Y349975D01*
X35491Y348714D01*
X35419Y347992D01*
X48754D01*
X48683Y348714D01*
X48300Y349975D01*
X47679Y351138D01*
X46842Y352157D01*
X46806Y352187D01*
X46975Y352658D01*
X54626D01*
X54626Y230822D01*
X54502Y230771D01*
X53927Y230329D01*
X53485Y229754D01*
X53207Y229083D01*
X53177Y228855D01*
X53109Y228363D01*
X52617Y228295D01*
X52389Y228265D01*
X51718Y227987D01*
X51143Y227545D01*
X50701Y226970D01*
X50423Y226299D01*
X50329Y225580D01*
X50324Y225576D01*
X49605Y225481D01*
X48935Y225203D01*
X48359Y224762D01*
X47917Y224186D01*
X47640Y223515D01*
X47609Y223287D01*
X47541Y222796D01*
X47049Y222727D01*
X46821Y222697D01*
X46151Y222419D01*
X45575Y221978D01*
X45133Y221402D01*
X44856Y220731D01*
X44761Y220012D01*
X44757Y220008D01*
X44037Y219913D01*
X43613Y219738D01*
X42997Y219919D01*
X42422Y221307D01*
X42232Y221766D01*
X42232Y221766D01*
X41644Y221870D01*
X41543Y221972D01*
X40443Y223227D01*
X39238Y225030D01*
X38279Y226975D01*
X37582Y229028D01*
X37159Y231154D01*
X37027Y233176D01*
X37046Y233318D01*
Y235236D01*
X37046Y273130D01*
X36877Y274413D01*
X36614Y275047D01*
Y277460D01*
Y280858D01*
X36877Y281492D01*
X37046Y282776D01*
Y322233D01*
X37546Y322470D01*
X38350Y321810D01*
X39513Y321188D01*
X40775Y320806D01*
X41496Y320735D01*
Y327402D01*
Y334069D01*
X40775Y333998D01*
X39513Y333615D01*
X38350Y332993D01*
X37546Y332333D01*
X37046Y332570D01*
Y333130D01*
X37554Y333749D01*
X38161Y334885D01*
X38535Y336119D01*
X38662Y337402D01*
X38535Y338684D01*
X38161Y339918D01*
X37554Y341054D01*
X36736Y342051D01*
X35739Y342868D01*
X34603Y343476D01*
X33369Y343850D01*
X32087Y343976D01*
X30804Y343850D01*
X29570Y343476D01*
X28434Y342868D01*
X27437Y342051D01*
X26620Y341054D01*
X26012Y339918D01*
X25638Y338684D01*
X25512Y337402D01*
X25638Y336119D01*
X26012Y334885D01*
X26620Y333749D01*
X27128Y333130D01*
Y332570D01*
X26628Y332333D01*
X25823Y332993D01*
X24660Y333615D01*
X23399Y333998D01*
X22677Y334069D01*
Y327402D01*
Y320735D01*
X23399Y320806D01*
X24660Y321188D01*
X25823Y321810D01*
X26628Y322470D01*
X27128Y322234D01*
Y301197D01*
X25853D01*
X24996Y301310D01*
X24139Y301197D01*
X21441D01*
Y297878D01*
X21422Y297736D01*
X21434Y297646D01*
Y293898D01*
X18504D01*
Y290354D01*
X17913D01*
Y289764D01*
X14173D01*
Y286940D01*
X9547D01*
X9547Y352658D01*
X17199D01*
D02*
G37*
G36*
X687963Y352480D02*
X688805Y352132D01*
X689563Y351625D01*
X690207Y350981D01*
X690713Y350223D01*
X691062Y349381D01*
X691186Y348758D01*
X691240Y348032D01*
Y348032D01*
X691240D01*
X691240Y348032D01*
X691240Y231299D01*
X664665Y231299D01*
X664665Y229331D01*
Y229331D01*
X690945Y229331D01*
X691240D01*
X691240Y153642D01*
X667913D01*
X667913Y151673D01*
X691240Y151673D01*
X691240Y6732D01*
X691169Y6211D01*
X690842Y5210D01*
X690342Y4284D01*
X689685Y3461D01*
X688892Y2770D01*
X687988Y2230D01*
X687002Y1861D01*
X686209Y1717D01*
X685440Y1673D01*
X685440Y1673D01*
X574407D01*
X574106Y2401D01*
X578743Y7038D01*
X578818Y7006D01*
X580000Y6851D01*
X581182Y7006D01*
X582283Y7463D01*
X583229Y8188D01*
X583955Y9134D01*
X584411Y10235D01*
X584567Y11417D01*
X584411Y12599D01*
X583955Y13701D01*
X583229Y14646D01*
X582283Y15372D01*
X581182Y15828D01*
X580000Y15984D01*
X578818Y15828D01*
X577717Y15372D01*
X576771Y14646D01*
X576045Y13701D01*
X575589Y12599D01*
X575433Y11417D01*
X575589Y10235D01*
X575620Y10160D01*
X574958Y9497D01*
X574290Y9943D01*
X574411Y10235D01*
X574567Y11417D01*
X574411Y12599D01*
X573955Y13701D01*
X573229Y14646D01*
X572283Y15372D01*
X571182Y15828D01*
X570000Y15984D01*
X568818Y15828D01*
X567717Y15372D01*
X566771Y14646D01*
X566045Y13701D01*
X565589Y12599D01*
X565433Y11417D01*
X565589Y10235D01*
X566045Y9134D01*
X566771Y8188D01*
X567717Y7463D01*
X568818Y7006D01*
X570000Y6851D01*
X571182Y7006D01*
X571474Y7127D01*
X571920Y6460D01*
X570424Y4964D01*
X557697D01*
X557396Y5691D01*
X558743Y7038D01*
X558818Y7006D01*
X560000Y6851D01*
X561182Y7006D01*
X562283Y7463D01*
X563229Y8188D01*
X563955Y9134D01*
X564411Y10235D01*
X564567Y11417D01*
X564411Y12599D01*
X563955Y13701D01*
X563229Y14646D01*
X562283Y15372D01*
X561182Y15828D01*
X560000Y15984D01*
X558818Y15828D01*
X557717Y15372D01*
X556771Y14646D01*
X556045Y13701D01*
X555589Y12599D01*
X555433Y11417D01*
X555589Y10235D01*
X555620Y10160D01*
X554957Y9497D01*
X554290Y9943D01*
X554411Y10235D01*
X554567Y11417D01*
X554411Y12599D01*
X553955Y13701D01*
X553229Y14646D01*
X552283Y15372D01*
X551182Y15828D01*
X550000Y15984D01*
X548818Y15828D01*
X547717Y15372D01*
X546771Y14646D01*
X546045Y13701D01*
X545589Y12599D01*
X545433Y11417D01*
X545589Y10235D01*
X546045Y9134D01*
X546753Y8212D01*
X546737Y8101D01*
X546473Y7424D01*
X543527D01*
X543263Y8101D01*
X543247Y8212D01*
X543955Y9134D01*
X544411Y10235D01*
X544567Y11417D01*
X544411Y12599D01*
X543955Y13701D01*
X543229Y14646D01*
X542283Y15372D01*
X541182Y15828D01*
X540000Y15984D01*
X538818Y15828D01*
X537717Y15372D01*
X536771Y14646D01*
X536045Y13701D01*
X535589Y12599D01*
X535433Y11417D01*
X535589Y10235D01*
X536045Y9134D01*
X536753Y8212D01*
X536737Y8101D01*
X536473Y7424D01*
X522127D01*
X521779Y8130D01*
X521869Y8248D01*
X522326Y9350D01*
X522481Y10531D01*
X522326Y11713D01*
X521869Y12815D01*
X521144Y13761D01*
X521079Y13810D01*
X521445Y14522D01*
X521659Y14457D01*
X522245Y14399D01*
Y19783D01*
X516861D01*
X516919Y19197D01*
X517262Y18065D01*
X517820Y17022D01*
X518570Y16108D01*
X519008Y15748D01*
X518682Y14997D01*
X517915Y15098D01*
X516889Y14963D01*
X499047Y32805D01*
X498265Y33327D01*
X497344Y33511D01*
X402756D01*
Y34350D01*
X401424D01*
Y37992D01*
X401241Y38914D01*
X400719Y39695D01*
X395729Y44685D01*
X396055Y45472D01*
X396260D01*
Y53740D01*
X387992D01*
Y52816D01*
X387205Y52549D01*
X387200Y52555D01*
X386337Y53217D01*
X385331Y53634D01*
X384842Y53698D01*
Y49606D01*
X383661D01*
Y53698D01*
X383173Y53634D01*
X382167Y53217D01*
X381304Y52555D01*
X380641Y51691D01*
X380224Y50685D01*
X380177Y50327D01*
X379346Y50044D01*
X377550Y51841D01*
X376768Y52363D01*
X376476Y52421D01*
Y52874D01*
X374751D01*
Y56928D01*
X374568Y57850D01*
X374046Y58632D01*
X371230Y61447D01*
X370449Y61969D01*
X370376Y61984D01*
X370295Y62803D01*
X370472Y62876D01*
X371418Y63602D01*
X372144Y64547D01*
X372600Y65649D01*
X372756Y66831D01*
X372600Y68013D01*
X372144Y69114D01*
X372136Y69124D01*
X396175Y93162D01*
X398387D01*
X398713Y92375D01*
X377667Y71329D01*
X377007Y71242D01*
X375906Y70785D01*
X374960Y70060D01*
X374234Y69114D01*
X373778Y68013D01*
X373622Y66831D01*
X373778Y65649D01*
X374234Y64547D01*
X374960Y63602D01*
X375906Y62876D01*
X377007Y62420D01*
X378189Y62264D01*
X379215Y62399D01*
X382757Y58857D01*
X383538Y58335D01*
X384460Y58152D01*
X402615D01*
X404088Y56679D01*
Y43799D01*
X404271Y42878D01*
X404793Y42096D01*
X409321Y37569D01*
X410102Y37047D01*
X411024Y36863D01*
X518294D01*
X529399Y25758D01*
X530181Y25236D01*
X531102Y25052D01*
X536090D01*
X536478Y24265D01*
X536045Y23701D01*
X535589Y22599D01*
X535433Y21417D01*
X535589Y20235D01*
X536045Y19134D01*
X536771Y18188D01*
X537717Y17462D01*
X538818Y17006D01*
X540000Y16851D01*
X541182Y17006D01*
X542283Y17462D01*
X543229Y18188D01*
X543955Y19134D01*
X544411Y20235D01*
X544567Y21417D01*
X544411Y22599D01*
X543955Y23701D01*
X543522Y24265D01*
X543910Y25052D01*
X546090D01*
X546478Y24265D01*
X546045Y23701D01*
X545589Y22599D01*
X545433Y21417D01*
X545589Y20235D01*
X546045Y19134D01*
X546771Y18188D01*
X547717Y17462D01*
X548818Y17006D01*
X550000Y16851D01*
X551182Y17006D01*
X552283Y17462D01*
X553229Y18188D01*
X553955Y19134D01*
X554411Y20235D01*
X554567Y21417D01*
X554411Y22599D01*
X553955Y23701D01*
X553522Y24265D01*
X553910Y25052D01*
X556090D01*
X556478Y24265D01*
X556045Y23701D01*
X555589Y22599D01*
X555433Y21417D01*
X555589Y20235D01*
X556045Y19134D01*
X556771Y18188D01*
X557717Y17462D01*
X558818Y17006D01*
X560000Y16851D01*
X561182Y17006D01*
X562283Y17462D01*
X563229Y18188D01*
X563955Y19134D01*
X564411Y20235D01*
X564567Y21417D01*
X564411Y22599D01*
X563955Y23701D01*
X563522Y24265D01*
X563910Y25052D01*
X566090D01*
X566478Y24265D01*
X566045Y23701D01*
X565589Y22599D01*
X565433Y21417D01*
X565589Y20235D01*
X566045Y19134D01*
X566771Y18188D01*
X567717Y17462D01*
X568818Y17006D01*
X570000Y16851D01*
X571182Y17006D01*
X572283Y17462D01*
X573229Y18188D01*
X573955Y19134D01*
X574411Y20235D01*
X574567Y21417D01*
X574411Y22599D01*
X573955Y23701D01*
X573522Y24265D01*
X573910Y25052D01*
X576090D01*
X576478Y24265D01*
X576045Y23701D01*
X575589Y22599D01*
X575433Y21417D01*
X575589Y20235D01*
X576045Y19134D01*
X576771Y18188D01*
X577717Y17462D01*
X578818Y17006D01*
X580000Y16851D01*
X581182Y17006D01*
X582283Y17462D01*
X583229Y18188D01*
X583955Y19134D01*
X584411Y20235D01*
X584567Y21417D01*
X584411Y22599D01*
X583955Y23701D01*
X583522Y24265D01*
X583910Y25052D01*
X586090D01*
X586478Y24265D01*
X586045Y23701D01*
X585589Y22599D01*
X585433Y21417D01*
X585589Y20235D01*
X586045Y19134D01*
X586771Y18188D01*
X587717Y17462D01*
X588818Y17006D01*
X590000Y16851D01*
X591182Y17006D01*
X591784Y17256D01*
X592537Y16753D01*
X592589Y15985D01*
X591954Y15509D01*
X591182Y15828D01*
X590000Y15984D01*
X588818Y15828D01*
X587717Y15372D01*
X586771Y14646D01*
X586045Y13701D01*
X585589Y12599D01*
X585433Y11417D01*
X585589Y10235D01*
X586045Y9134D01*
X586771Y8188D01*
X587717Y7463D01*
X588818Y7006D01*
X590000Y6851D01*
X591182Y7006D01*
X592283Y7463D01*
X593229Y8188D01*
X593955Y9134D01*
X594411Y10235D01*
X594567Y11417D01*
X594470Y12152D01*
X595212Y12548D01*
X595544Y12256D01*
X595433Y11417D01*
X595589Y10235D01*
X596045Y9134D01*
X596771Y8188D01*
X597717Y7463D01*
X598818Y7006D01*
X600000Y6851D01*
X601182Y7006D01*
X602283Y7463D01*
X603229Y8188D01*
X603955Y9134D01*
X604411Y10235D01*
X604567Y11417D01*
X604411Y12599D01*
X603955Y13701D01*
X603229Y14646D01*
X602283Y15372D01*
X601182Y15828D01*
X600000Y15984D01*
X599162Y15874D01*
X598869Y16205D01*
X599265Y16948D01*
X600000Y16851D01*
X601182Y17006D01*
X602283Y17462D01*
X603229Y18188D01*
X603955Y19134D01*
X604411Y20235D01*
X604567Y21417D01*
X604411Y22599D01*
X603955Y23701D01*
X603229Y24646D01*
X602283Y25372D01*
X601182Y25828D01*
X600000Y25984D01*
X598818Y25828D01*
X598015Y25496D01*
X597489Y25517D01*
X597009Y25822D01*
X596683Y26309D01*
X594612Y28381D01*
X594913Y29108D01*
X603294D01*
X605761Y26641D01*
X605472Y25945D01*
X605473D01*
Y16890D01*
X614528D01*
Y25945D01*
X612821D01*
Y26772D01*
X612719Y27542D01*
X612422Y28261D01*
X611948Y28878D01*
X611948Y28878D01*
X606634Y34192D01*
X606017Y34666D01*
X605298Y34963D01*
X604528Y35065D01*
X538635D01*
X527795Y45905D01*
X527178Y46378D01*
X526460Y46676D01*
X525689Y46777D01*
X515112D01*
X508293Y53596D01*
Y100000D01*
X508192Y100771D01*
X507894Y101489D01*
X507421Y102106D01*
X507421Y102106D01*
X502697Y106830D01*
X502080Y107304D01*
X501361Y107601D01*
X500591Y107703D01*
X464297D01*
Y115919D01*
X477195D01*
X477347Y115803D01*
X478209Y115446D01*
X479134Y115324D01*
X480059Y115446D01*
X480921Y115803D01*
X481661Y116370D01*
X482229Y117111D01*
X482586Y117973D01*
X482708Y118898D01*
X482586Y119823D01*
X482229Y120685D01*
X481661Y121425D01*
X480921Y121993D01*
X480059Y122350D01*
X479134Y122471D01*
X478209Y122350D01*
X477347Y121993D01*
X477195Y121876D01*
X464297D01*
Y123819D01*
X464196Y124590D01*
X463898Y125308D01*
X463425Y125925D01*
X460866Y128484D01*
X460249Y128957D01*
X459531Y129255D01*
X458760Y129356D01*
X446457D01*
X445686Y129255D01*
X444968Y128957D01*
X444351Y128484D01*
X444351Y128484D01*
X442382Y126515D01*
X441909Y125899D01*
X441611Y125180D01*
X441510Y124409D01*
Y122163D01*
X440723Y121881D01*
X440437Y122229D01*
X439238Y123213D01*
X437870Y123944D01*
X436386Y124394D01*
X434842Y124546D01*
X433299Y124394D01*
X431815Y123944D01*
X430447Y123213D01*
X429248Y122229D01*
X428264Y121030D01*
X427533Y119662D01*
X427082Y118177D01*
X426930Y116634D01*
X427082Y115090D01*
X427533Y113606D01*
X428264Y112238D01*
X429248Y111039D01*
X430447Y110055D01*
X431815Y109324D01*
X433299Y108874D01*
X434842Y108722D01*
X436386Y108874D01*
X437870Y109324D01*
X439238Y110055D01*
X440243Y110880D01*
X440514Y110882D01*
X440885Y110788D01*
X441135Y110648D01*
X441393Y110024D01*
X441961Y109284D01*
X442701Y108716D01*
X443563Y108359D01*
X444488Y108237D01*
X445413Y108359D01*
X446275Y108716D01*
X446804Y109122D01*
X447492Y108864D01*
X447591Y108777D01*
Y98635D01*
X446936Y97979D01*
X439185D01*
X438863Y98518D01*
X438775Y98767D01*
X439087Y99520D01*
X439202Y100394D01*
X439087Y101267D01*
X438750Y102081D01*
X438213Y102780D01*
X437514Y103317D01*
X436700Y103654D01*
X435827Y103769D01*
X434953Y103654D01*
X434139Y103317D01*
X433468Y102802D01*
X391653D01*
X390732Y102619D01*
X389950Y102097D01*
X359127Y71274D01*
X358189Y71397D01*
X357007Y71242D01*
X355906Y70785D01*
X354960Y70060D01*
X354234Y69114D01*
X353778Y68013D01*
X353622Y66831D01*
X353778Y65649D01*
X354234Y64547D01*
X354960Y63602D01*
X355822Y62940D01*
X355812Y62654D01*
X355600Y62153D01*
X353442D01*
X352716Y62303D01*
Y71358D01*
X343661D01*
Y63923D01*
X342934Y63622D01*
X334676Y71880D01*
X334289Y72139D01*
X334480Y72958D01*
X335137Y73045D01*
X336190Y73481D01*
X337095Y74175D01*
X337789Y75080D01*
X338225Y76133D01*
X338374Y77264D01*
X338225Y78394D01*
X337789Y79448D01*
X337095Y80352D01*
X336190Y81047D01*
X335137Y81483D01*
X334006Y81632D01*
X332875Y81483D01*
X331822Y81047D01*
X331550Y80838D01*
X297972D01*
Y107874D01*
X297816Y109056D01*
X297360Y110157D01*
X296635Y111103D01*
X296635Y111103D01*
X291950Y115788D01*
X292023Y116543D01*
X292705Y116864D01*
X293092Y116566D01*
X294098Y116150D01*
X294587Y116085D01*
Y120177D01*
Y124269D01*
X294098Y124205D01*
X293092Y123788D01*
X292229Y123126D01*
X292224Y123120D01*
X291437Y123387D01*
Y124311D01*
X290680D01*
Y125886D01*
X290680Y125886D01*
X290558Y126811D01*
X290201Y127673D01*
X289633Y128413D01*
X286340Y131706D01*
X285600Y132274D01*
X284738Y132631D01*
X283813Y132753D01*
X280424D01*
Y133704D01*
X269375D01*
Y124654D01*
Y115654D01*
Y111769D01*
X274900D01*
X280424D01*
Y115654D01*
Y124654D01*
Y125605D01*
X282333D01*
X282936Y125002D01*
X283169Y124311D01*
X283169D01*
Y122028D01*
X282892Y121359D01*
X282736Y120177D01*
Y113976D01*
X282892Y112794D01*
X283348Y111693D01*
X284074Y110747D01*
X288839Y105982D01*
Y81830D01*
X226772D01*
X225590Y81675D01*
X224488Y81219D01*
X223543Y80493D01*
X220057Y77008D01*
X198644D01*
X192501Y83150D01*
X191555Y83876D01*
X190454Y84332D01*
X189272Y84488D01*
X188090Y84332D01*
X186988Y83876D01*
X186043Y83150D01*
X185381Y82288D01*
X185095Y82298D01*
X184593Y82510D01*
Y98524D01*
X184410Y99445D01*
X183888Y100227D01*
X169397Y114718D01*
X169737Y115491D01*
X170488Y115803D01*
X171228Y116370D01*
X171796Y117111D01*
X172153Y117973D01*
X172275Y118898D01*
X172153Y119823D01*
X171796Y120685D01*
X171282Y121354D01*
Y140563D01*
X172494Y141776D01*
X172570Y141874D01*
X173196Y142355D01*
X173764Y143095D01*
X174121Y143957D01*
X174243Y144882D01*
X174121Y145807D01*
X173764Y146669D01*
X173196Y147409D01*
X172456Y147977D01*
X171594Y148334D01*
X170669Y148456D01*
X169744Y148334D01*
X168882Y147977D01*
X168649Y147798D01*
X167861Y148186D01*
Y157778D01*
X167678Y158699D01*
X167156Y159481D01*
X166761Y159876D01*
X166945Y160805D01*
X166967Y160814D01*
X167543Y161255D01*
X167984Y161831D01*
X168262Y162501D01*
X168357Y163221D01*
X169081Y163320D01*
X169720Y163585D01*
X171402Y161903D01*
X174047Y164547D01*
X174464Y164130D01*
X174882Y164547D01*
X177387Y162042D01*
X179058Y163712D01*
X182099Y166754D01*
X182370Y166961D01*
X189805Y174396D01*
X200295D01*
Y174331D01*
X219980D01*
Y174396D01*
X226279D01*
Y174331D01*
X245965D01*
Y174337D01*
X254870D01*
X255020Y174317D01*
X255421Y174370D01*
X259488D01*
Y181344D01*
X278576D01*
X279701Y180481D01*
X281041Y179925D01*
X282480Y179736D01*
X283919Y179925D01*
X285260Y180481D01*
X286411Y181364D01*
X286426Y181383D01*
X328650D01*
X330165Y179869D01*
X330987Y179238D01*
X331945Y178841D01*
X332972Y178706D01*
X349803D01*
Y178347D01*
X352756D01*
X353543Y178346D01*
Y174248D01*
X353513Y174016D01*
Y167913D01*
X353635Y166988D01*
X353992Y166127D01*
X354559Y165386D01*
X358300Y161646D01*
X359040Y161078D01*
X359902Y160721D01*
X360827Y160599D01*
X381102D01*
Y159646D01*
X396850D01*
Y160599D01*
X411221D01*
X412146Y160721D01*
X413007Y161078D01*
X413748Y161646D01*
X417881Y165780D01*
X417881Y165780D01*
X418449Y166520D01*
X418807Y167382D01*
X418928Y168307D01*
X418928Y168307D01*
Y176177D01*
X420276Y177525D01*
X421063Y177380D01*
Y177067D01*
X421987D01*
X422254Y176280D01*
X422249Y176275D01*
X421586Y175412D01*
X421169Y174406D01*
X421105Y173917D01*
X425197D01*
X429289D01*
X429224Y174406D01*
X428808Y175412D01*
X428145Y176275D01*
X428139Y176280D01*
X428407Y177067D01*
X429331D01*
Y177529D01*
X436221D01*
Y174902D01*
X443307D01*
Y177627D01*
X446433D01*
X446509Y177513D01*
X447248Y177019D01*
X448120Y176846D01*
X459754D01*
X460626Y177019D01*
X461365Y177513D01*
X461507Y177725D01*
X467909D01*
X474773Y170862D01*
Y169587D01*
X470965D01*
Y157776D01*
X486516D01*
Y159285D01*
X487303Y159611D01*
X505973Y140941D01*
Y111516D01*
X506095Y110591D01*
X506452Y109729D01*
X507020Y108989D01*
X513552Y102457D01*
Y67788D01*
X513195Y67514D01*
X512311Y66362D01*
X511756Y65022D01*
X511567Y63583D01*
X511756Y62144D01*
X512311Y60803D01*
X513195Y59652D01*
X514346Y58768D01*
X515687Y58213D01*
X517126Y58023D01*
X518565Y58213D01*
X519906Y58768D01*
X521057Y59652D01*
X521063Y59659D01*
X521850Y59392D01*
Y53347D01*
X523457D01*
X523562Y52819D01*
X524084Y52037D01*
X525266Y50856D01*
X526047Y50334D01*
X526968Y50151D01*
X565256D01*
X566178Y50334D01*
X566959Y50856D01*
X576735Y60632D01*
X577463Y60331D01*
Y57028D01*
X586419D01*
Y59541D01*
X588282D01*
X588484Y59501D01*
X589406Y59684D01*
X590187Y60206D01*
X590256Y60275D01*
X591043Y59949D01*
Y55512D01*
X593012Y55512D01*
X593012Y68922D01*
X593018Y68972D01*
X593146Y69941D01*
Y97146D01*
X636909D01*
Y97147D01*
Y99114D01*
X594216Y99114D01*
X593828Y99902D01*
X593965Y100081D01*
X594382Y101086D01*
X594524Y102165D01*
X594524Y102165D01*
Y109378D01*
X594799Y109737D01*
X595312Y110975D01*
X595487Y112303D01*
X595312Y113631D01*
X594799Y114869D01*
X593984Y115932D01*
X592921Y116748D01*
X591683Y117261D01*
X591558Y117277D01*
X589112Y119723D01*
X588208Y120417D01*
X587154Y120853D01*
X586024Y121002D01*
X559950D01*
X559850Y121079D01*
X558612Y121591D01*
X557283Y121766D01*
X555955Y121591D01*
X554717Y121079D01*
X553654Y120263D01*
X552839Y119200D01*
X552326Y117962D01*
X552151Y116634D01*
X552326Y115305D01*
X552839Y114068D01*
X553654Y113005D01*
X554717Y112189D01*
X555955Y111676D01*
X557283Y111501D01*
X558612Y111676D01*
X559850Y112189D01*
X559950Y112266D01*
X584214D01*
X585380Y111100D01*
X585397Y110975D01*
X585910Y109737D01*
X586185Y109378D01*
Y103892D01*
X586028Y103736D01*
X585365Y102872D01*
X584949Y101866D01*
X584807Y100787D01*
X584807Y100787D01*
Y78740D01*
X582087D01*
Y74213D01*
X581496D01*
Y73622D01*
X577362D01*
Y69685D01*
X576695Y69396D01*
X574808D01*
X574606Y69436D01*
X573685Y69253D01*
X572903Y68731D01*
X564073Y59900D01*
X563285Y60226D01*
Y61673D01*
X558807D01*
Y62500D01*
X563285D01*
Y63878D01*
X558807D01*
Y64655D01*
X559054Y64705D01*
X563285D01*
Y64705D01*
Y69350D01*
X559046D01*
X558807Y69398D01*
X558787Y69394D01*
X554134D01*
Y69587D01*
X547055D01*
Y70276D01*
X546875Y71183D01*
X546361Y71952D01*
X545180Y73133D01*
X544411Y73647D01*
X543504Y73827D01*
X536024D01*
Y74213D01*
X526181D01*
Y70669D01*
X525591D01*
Y70079D01*
X521850D01*
Y68289D01*
X521063Y67889D01*
X520700Y68155D01*
Y103937D01*
X520578Y104862D01*
X520221Y105724D01*
X519653Y106464D01*
X513121Y112996D01*
Y142421D01*
X512999Y143346D01*
X512642Y144208D01*
X512074Y144948D01*
X512074Y144948D01*
X490814Y166208D01*
X490074Y166776D01*
X489212Y167133D01*
X488287Y167255D01*
X486516D01*
Y169587D01*
X481920D01*
Y172343D01*
X481799Y173267D01*
X481441Y174129D01*
X480874Y174870D01*
X471917Y183826D01*
X471177Y184394D01*
X470315Y184751D01*
X469390Y184873D01*
X461093D01*
X460626Y185185D01*
X459754Y185359D01*
X448120D01*
X447248Y185185D01*
X446634Y184775D01*
X438976D01*
X438744Y184744D01*
X436221D01*
Y184676D01*
X429331D01*
Y185335D01*
X428682D01*
X428676Y186122D01*
X435893Y193339D01*
X436461Y194079D01*
X436818Y194941D01*
X436940Y195866D01*
Y200374D01*
X437793D01*
Y205815D01*
X439075D01*
Y203543D01*
Y196850D01*
X446161D01*
Y197244D01*
X452756D01*
Y203150D01*
X452756Y203937D01*
X452756D01*
Y203937D01*
X452756D01*
Y205096D01*
X453642D01*
X454310Y205184D01*
X454932Y205442D01*
X455467Y205852D01*
X456648Y207033D01*
X457058Y207568D01*
X457316Y208190D01*
X457404Y208858D01*
Y214370D01*
Y225000D01*
X457316Y225668D01*
X457058Y226291D01*
X456648Y226825D01*
X453892Y229581D01*
X453358Y229991D01*
X452735Y230249D01*
X452067Y230337D01*
X432216D01*
Y232441D01*
X460510D01*
X463445Y229506D01*
Y215256D01*
X463601Y214074D01*
X464057Y212973D01*
X464783Y212027D01*
X472165Y204645D01*
X473110Y203919D01*
X474212Y203463D01*
X475394Y203307D01*
X501160D01*
X502520Y201947D01*
Y198917D01*
X497835D01*
Y168209D01*
X514310D01*
X554743Y127775D01*
X555689Y127049D01*
X556790Y126593D01*
X557972Y126437D01*
X620057D01*
X625787Y120708D01*
X625486Y119980D01*
X624979D01*
Y112106D01*
Y104232D01*
X637198D01*
Y112106D01*
Y119980D01*
X635872D01*
X635493Y120548D01*
X635475Y120768D01*
X635623Y121896D01*
X635468Y123078D01*
X635011Y124179D01*
X634286Y125125D01*
X625178Y134233D01*
X624232Y134959D01*
X623131Y135415D01*
X621949Y135571D01*
X559864D01*
X516732Y178702D01*
Y198917D01*
X511653D01*
Y203839D01*
X511498Y205020D01*
X511041Y206122D01*
X510316Y207068D01*
X506280Y211103D01*
X505335Y211829D01*
X504233Y212285D01*
X503051Y212441D01*
X477285D01*
X472578Y217147D01*
Y231398D01*
X472423Y232580D01*
X471967Y233681D01*
X471241Y234627D01*
X465631Y240237D01*
X464685Y240963D01*
X463584Y241419D01*
X462402Y241575D01*
X403279D01*
Y274187D01*
X403833Y274612D01*
X404716Y275764D01*
X405271Y277104D01*
X405461Y278543D01*
X405271Y279982D01*
X404716Y281323D01*
X403833Y282474D01*
X403279Y282899D01*
Y284055D01*
X403157Y284980D01*
X402800Y285842D01*
X402232Y286582D01*
X395342Y293472D01*
X394602Y294040D01*
X393740Y294397D01*
X392815Y294519D01*
X372342D01*
Y295079D01*
X371418D01*
X371151Y295866D01*
X371157Y295871D01*
X371820Y296734D01*
X372236Y297740D01*
X372300Y298228D01*
X368209D01*
X364117D01*
X364181Y297740D01*
X364598Y296734D01*
X365260Y295871D01*
X365266Y295866D01*
X364999Y295079D01*
X364075D01*
Y294541D01*
X356212D01*
Y295515D01*
X345163D01*
Y286465D01*
Y277465D01*
Y268465D01*
X356212D01*
Y271252D01*
X357973D01*
Y270079D01*
X364665D01*
Y270079D01*
X371752D01*
Y276772D01*
Y279921D01*
X368209D01*
Y280512D01*
X367618D01*
Y284252D01*
X365059D01*
Y284252D01*
X357973D01*
Y283832D01*
X356212D01*
Y287393D01*
X364075D01*
Y286811D01*
X372342D01*
Y287371D01*
X391335D01*
X395987Y282719D01*
X395971Y282474D01*
X395087Y281323D01*
X394532Y279982D01*
X394342Y278543D01*
X394532Y277104D01*
X395087Y275764D01*
X395971Y274612D01*
X396131Y274489D01*
Y241575D01*
X385630D01*
X384448Y241419D01*
X383347Y240963D01*
X382401Y240237D01*
X376987Y234824D01*
X376262Y233878D01*
X375805Y232776D01*
X375650Y231594D01*
Y225022D01*
X375471Y224842D01*
X356299D01*
X355710Y224765D01*
X355118Y225284D01*
Y226378D01*
X351575D01*
Y226969D01*
X350984D01*
Y230709D01*
X348864D01*
Y237284D01*
X351876D01*
X352647Y237386D01*
X353365Y237683D01*
X353982Y238156D01*
X359586Y243760D01*
X360059Y244377D01*
X360357Y245095D01*
X360408Y245481D01*
X360458Y245866D01*
X360458Y245866D01*
Y249480D01*
X360630Y250197D01*
X374409D01*
Y256890D01*
Y260039D01*
X370866D01*
Y260630D01*
X370276D01*
Y264370D01*
X361024D01*
Y264370D01*
X354331D01*
Y264764D01*
X345276D01*
Y263119D01*
X344703Y262679D01*
X338749Y256726D01*
X337894Y256839D01*
X336455Y256649D01*
X335114Y256094D01*
X333963Y255211D01*
X333079Y254059D01*
X332524Y252718D01*
X332334Y251279D01*
X332447Y250424D01*
X328856Y246833D01*
X328351Y246175D01*
X328034Y245409D01*
X327926Y244587D01*
Y208563D01*
X328034Y207741D01*
X328351Y206975D01*
X328423Y206881D01*
X328462Y206583D01*
X328839Y205673D01*
X329439Y204892D01*
X330220Y204292D01*
X331130Y203915D01*
X332106Y203787D01*
X339469D01*
Y201476D01*
X343012D01*
Y200295D01*
X339469D01*
Y197146D01*
X339469D01*
X339211Y196465D01*
X332894D01*
Y196614D01*
X324232D01*
Y195298D01*
X322539D01*
Y196043D01*
X315453D01*
Y195298D01*
X308304D01*
X307893Y195614D01*
X306839Y196050D01*
X305709Y196199D01*
X304578Y196050D01*
X303525Y195614D01*
X303113Y195298D01*
X274409D01*
Y198031D01*
X270669D01*
Y198622D01*
X270079D01*
Y202165D01*
X264325D01*
X264023Y202893D01*
X266392Y205261D01*
X266669Y205298D01*
X267435Y205615D01*
X268093Y206120D01*
X268598Y206778D01*
X268915Y207544D01*
X269023Y208366D01*
Y255771D01*
X272969Y259717D01*
X304338D01*
X304602Y259540D01*
X305217Y259418D01*
X331201D01*
X331815Y259540D01*
X332120Y259744D01*
X335039D01*
Y263287D01*
Y266831D01*
X332806D01*
Y301772D01*
X332684Y302386D01*
X332336Y302907D01*
X331815Y303255D01*
X331201Y303377D01*
X305217D01*
X304602Y303255D01*
X304081Y302907D01*
X303733Y302386D01*
X303611Y301772D01*
Y266071D01*
X271654D01*
X270831Y265962D01*
X270065Y265645D01*
X269407Y265140D01*
X263600Y259333D01*
X263095Y258675D01*
X262778Y257909D01*
X262670Y257087D01*
Y208840D01*
X259625Y205795D01*
X258898Y206096D01*
Y209016D01*
X255512D01*
Y205650D01*
X254921D01*
Y205059D01*
X250945D01*
Y203467D01*
X250787D01*
X250119Y203379D01*
X249497Y203121D01*
X248962Y202711D01*
X246692Y200441D01*
X245965Y200742D01*
Y205630D01*
X236713D01*
Y199528D01*
X244750D01*
X245052Y198800D01*
X244730Y198479D01*
X244730Y198479D01*
X244108Y197857D01*
X243709D01*
X243616Y197928D01*
X242850Y198246D01*
X242028Y198354D01*
X175335D01*
X174512Y198246D01*
X173746Y197928D01*
X173088Y197424D01*
X150273Y174609D01*
X149768Y173951D01*
X149451Y173184D01*
X149343Y172362D01*
Y168993D01*
X110943Y130593D01*
X110438Y129935D01*
X110120Y129169D01*
X110012Y128347D01*
Y116437D01*
X110120Y115615D01*
X110438Y114849D01*
X110943Y114191D01*
X111399Y113734D01*
X111529Y112747D01*
X111965Y111694D01*
X112659Y110789D01*
X113564Y110095D01*
X114618Y109659D01*
X115748Y109510D01*
X116879Y109659D01*
X117932Y110095D01*
X118837Y110789D01*
X119531Y111694D01*
X119967Y112747D01*
X120116Y113878D01*
X119967Y115008D01*
X119531Y116062D01*
X118837Y116967D01*
X117932Y117661D01*
X116879Y118097D01*
X116366Y118165D01*
Y127031D01*
X154766Y165431D01*
X155271Y166089D01*
X155588Y166855D01*
X155696Y167677D01*
Y171046D01*
X176651Y192000D01*
X177478D01*
X177915Y191346D01*
X177847Y191181D01*
X177725Y190256D01*
X177847Y189331D01*
X178204Y188469D01*
X178772Y187729D01*
X179512Y187161D01*
X180374Y186804D01*
X181299Y186682D01*
X182224Y186804D01*
X183086Y187161D01*
X183756Y187675D01*
X200295D01*
Y182140D01*
X188622D01*
X187620Y182008D01*
X186687Y181621D01*
X185885Y181006D01*
X185720Y180791D01*
X185620Y180772D01*
X184842Y180941D01*
X184688Y181314D01*
X184246Y181890D01*
X180905Y185230D01*
X180330Y185672D01*
X179659Y185950D01*
X178940Y186045D01*
X178220Y185950D01*
X177550Y185672D01*
X176974Y185230D01*
X176533Y184655D01*
X176255Y183984D01*
X176160Y183265D01*
X175437Y183166D01*
X174766Y182888D01*
X174663Y182809D01*
X178244Y179228D01*
X177409Y178393D01*
X173828Y181974D01*
X173749Y181871D01*
X173471Y181200D01*
X173376Y180481D01*
X172653Y180382D01*
X171982Y180104D01*
X171407Y179663D01*
X170965Y179087D01*
X170687Y178417D01*
X170589Y177697D01*
X169869Y177598D01*
X169198Y177320D01*
X168623Y176879D01*
X168181Y176303D01*
X167903Y175633D01*
X167809Y174913D01*
X167085Y174814D01*
X166414Y174537D01*
X166311Y174457D01*
X169892Y170877D01*
X169057Y170041D01*
X165476Y173622D01*
X165397Y173519D01*
X165119Y172849D01*
X165021Y172129D01*
X164301Y172030D01*
X163631Y171753D01*
X163055Y171311D01*
X162613Y170735D01*
X162336Y170065D01*
X162241Y169345D01*
X161517Y169246D01*
X160847Y168969D01*
X160271Y168527D01*
X159829Y167951D01*
X159552Y167281D01*
X159453Y166561D01*
X158733Y166463D01*
X158063Y166185D01*
X157487Y165743D01*
X157045Y165167D01*
X156768Y164497D01*
X156673Y163778D01*
X155949Y163679D01*
X155279Y163401D01*
X154703Y162959D01*
X154262Y162384D01*
X153984Y161713D01*
X153885Y160993D01*
X153165Y160895D01*
X152495Y160617D01*
X151919Y160175D01*
X151478Y159600D01*
X151200Y158929D01*
X151102Y158209D01*
X150382Y158111D01*
X149711Y157833D01*
X149135Y157392D01*
X148694Y156816D01*
X148416Y156145D01*
X148321Y155426D01*
X147598Y155327D01*
X146927Y155049D01*
X146352Y154608D01*
X145910Y154032D01*
X145632Y153361D01*
X145537Y152642D01*
X144814Y152543D01*
X144143Y152266D01*
X143568Y151824D01*
X143126Y151248D01*
X142848Y150578D01*
X142750Y149858D01*
X142030Y149759D01*
X141360Y149482D01*
X140784Y149040D01*
X140342Y148464D01*
X140065Y147794D01*
X139966Y147074D01*
X139246Y146975D01*
X138576Y146698D01*
X138000Y146256D01*
X137558Y145680D01*
X137281Y145010D01*
X137186Y144290D01*
X136462Y144192D01*
X135792Y143914D01*
X135216Y143472D01*
X134774Y142896D01*
X134497Y142226D01*
X134402Y141507D01*
X134398Y141502D01*
X133678Y141408D01*
X133008Y141130D01*
X132432Y140688D01*
X131991Y140112D01*
X131713Y139442D01*
X131614Y138722D01*
X130894Y138624D01*
X130224Y138346D01*
X129648Y137904D01*
X129207Y137329D01*
X128929Y136658D01*
X128830Y135935D01*
X128111Y135840D01*
X127440Y135562D01*
X126865Y135120D01*
X126423Y134545D01*
X126145Y133874D01*
X126047Y133154D01*
X125327Y133056D01*
X124656Y132778D01*
X124081Y132336D01*
X123639Y131761D01*
X123361Y131090D01*
X123262Y130367D01*
X122543Y130272D01*
X121872Y129994D01*
X121297Y129553D01*
X120855Y128977D01*
X120577Y128306D01*
X120479Y127587D01*
X119759Y127488D01*
X119088Y127210D01*
X118513Y126769D01*
X118071Y126193D01*
X117793Y125523D01*
X117699Y124803D01*
X117793Y124084D01*
X118071Y123413D01*
X118513Y122838D01*
X121853Y119497D01*
X122429Y119055D01*
X123100Y118778D01*
X123819Y118683D01*
X124538Y118778D01*
X125209Y119055D01*
X125785Y119497D01*
X126226Y120073D01*
X126230Y120081D01*
X127159Y120266D01*
X129286Y118138D01*
Y110433D01*
X128839D01*
Y103658D01*
X124057Y98876D01*
X123557Y98127D01*
X123381Y97244D01*
Y83957D01*
X123557Y83073D01*
X124057Y82325D01*
X126460Y79921D01*
X126447Y79823D01*
X126562Y78949D01*
X126900Y78135D01*
X127436Y77436D01*
X128135Y76900D01*
X128949Y76562D01*
X129823Y76447D01*
X130696Y76562D01*
X130796Y76604D01*
X131656Y76108D01*
X131725Y75585D01*
X132234Y74356D01*
X133044Y73300D01*
X134100Y72490D01*
X134427Y72354D01*
X134321Y71546D01*
X133290Y71410D01*
X131922Y70844D01*
X130747Y69942D01*
X130750Y69939D01*
X130712Y69883D01*
X130013Y68972D01*
X129548Y67849D01*
X129398Y66711D01*
X129385Y66644D01*
Y66033D01*
X129398Y65966D01*
X129548Y64828D01*
X130013Y63705D01*
X130691Y62822D01*
X130748Y62736D01*
X130747Y62735D01*
X130751Y62732D01*
X131103Y62205D01*
Y59843D01*
X129725D01*
Y55512D01*
Y51181D01*
X132678D01*
Y52756D01*
X146457D01*
Y57481D01*
X147638D01*
Y52756D01*
X171654D01*
Y62205D01*
X171009D01*
Y89566D01*
X171010Y89566D01*
X170834Y90450D01*
X170333Y91198D01*
X164624Y96908D01*
X163875Y97408D01*
X162992Y97584D01*
X157382D01*
Y98636D01*
X158169Y99236D01*
X158563Y99184D01*
X159437Y99299D01*
X160251Y99636D01*
X160950Y100172D01*
X161486Y100871D01*
X161823Y101686D01*
X161938Y102559D01*
X161823Y103433D01*
X161486Y104247D01*
X162135Y104636D01*
X173281Y93491D01*
Y74213D01*
X173464Y73291D01*
X173986Y72510D01*
X185925Y60570D01*
X185624Y59843D01*
X182087D01*
Y56103D01*
X191536D01*
Y58517D01*
X202152D01*
X212962Y47706D01*
X213744Y47184D01*
X214665Y47001D01*
X246161D01*
X247083Y47184D01*
X247865Y47706D01*
X250995Y50837D01*
X251722Y50536D01*
Y49508D01*
X251919Y48018D01*
X252494Y46629D01*
X253409Y45436D01*
X253975Y45002D01*
X253707Y44215D01*
X129809D01*
X115868Y58156D01*
Y96358D01*
X115781Y97026D01*
X115523Y97649D01*
X115112Y98183D01*
X108290Y105006D01*
Y137713D01*
X109048Y137855D01*
X109405Y136993D01*
X109973Y136252D01*
X110713Y135685D01*
X111575Y135327D01*
X112500Y135206D01*
X113425Y135327D01*
X114287Y135685D01*
X115027Y136252D01*
X115595Y136993D01*
X115952Y137855D01*
X116074Y138779D01*
X116054Y138928D01*
X141073Y163947D01*
X141595Y164728D01*
X141779Y165650D01*
Y184435D01*
X145109Y187766D01*
X145631Y188547D01*
X145814Y189469D01*
Y207978D01*
X152316Y214481D01*
X153142Y214193D01*
X153401Y213567D01*
X153969Y212827D01*
X154709Y212259D01*
X155571Y211902D01*
X156496Y211781D01*
X157421Y211902D01*
X158283Y212259D01*
X159023Y212827D01*
X159591Y213567D01*
X159948Y214429D01*
X160070Y215354D01*
X159948Y216279D01*
X159942Y216294D01*
X161855Y218208D01*
X162706Y217945D01*
X163055Y217490D01*
X163631Y217048D01*
X164301Y216770D01*
X165021Y216672D01*
X165119Y215952D01*
X165397Y215282D01*
X165839Y214706D01*
X166414Y214264D01*
X167085Y213986D01*
X167809Y213888D01*
X167903Y213168D01*
X168181Y212498D01*
X168260Y212395D01*
X171841Y215975D01*
X172676Y215140D01*
X169095Y211559D01*
X169198Y211480D01*
X169869Y211203D01*
X170589Y211104D01*
X170687Y210384D01*
X170965Y209714D01*
X171407Y209138D01*
X171982Y208696D01*
X172653Y208419D01*
X173376Y208320D01*
X173471Y207600D01*
X173749Y206930D01*
X174190Y206354D01*
X174766Y205912D01*
X175437Y205635D01*
X176160Y205536D01*
X176255Y204817D01*
X176533Y204146D01*
X176974Y203570D01*
X177550Y203129D01*
X178220Y202851D01*
X178940Y202756D01*
X179659Y202851D01*
X180330Y203129D01*
X180905Y203570D01*
X183088Y205753D01*
X185691Y203150D01*
X192027Y203150D01*
X199568Y210691D01*
X200295Y210389D01*
Y206811D01*
X209547D01*
Y212914D01*
X202820D01*
X202518Y213641D01*
X212106Y223229D01*
X212106Y305707D01*
X294587Y305709D01*
X375000Y305705D01*
X375000Y352657D01*
X686614Y352658D01*
X687069Y352658D01*
X687963Y352480D01*
D02*
G37*
G36*
X165748Y278008D02*
Y268996D01*
X154377Y257625D01*
X139536D01*
X138615Y257442D01*
X138101Y257099D01*
X137518Y257250D01*
X137492Y257278D01*
X137362Y257593D01*
X136920Y258168D01*
X136344Y258610D01*
X135674Y258888D01*
X134955Y258982D01*
X134950Y258986D01*
X134856Y259706D01*
X134639Y260229D01*
X134583Y260384D01*
X134859Y260831D01*
X135672Y261173D01*
X136695Y261967D01*
X145307Y270678D01*
X145745Y271256D01*
X146244Y271290D01*
X146265Y271269D01*
X150023Y275028D01*
X147865Y277185D01*
X146613Y275932D01*
X146194Y276352D01*
X146061Y276667D01*
X145267Y277689D01*
X144236Y278471D01*
X143963Y278582D01*
X143551Y278995D01*
X144803Y280247D01*
X142646Y282405D01*
X138888Y278647D01*
X138906Y278628D01*
X138874Y278129D01*
X138256Y277649D01*
X136600Y275974D01*
X136110Y275972D01*
X134055Y273917D01*
X132006Y271868D01*
X132274Y271599D01*
X129644Y268938D01*
X128862Y267907D01*
X128557Y267159D01*
X128019Y266971D01*
X127945Y266982D01*
X127322Y267239D01*
X127094Y267269D01*
X126602Y267338D01*
X126534Y267829D01*
X126504Y268058D01*
X126226Y268728D01*
X125785Y269304D01*
X125209Y269745D01*
X124538Y270023D01*
X123819Y270118D01*
X123100Y270023D01*
X122429Y269745D01*
X121853Y269304D01*
X121830Y269281D01*
X112303Y278808D01*
Y305709D01*
X165748D01*
Y278008D01*
D02*
G37*
G36*
X109941Y305708D02*
X109941Y278899D01*
X120695Y268145D01*
X118578Y266028D01*
X105576Y279031D01*
X105855Y279310D01*
X104393Y280771D01*
X102932Y282233D01*
X102932Y282233D01*
X102212Y282626D01*
Y285630D01*
X104213D01*
Y294685D01*
X95157D01*
Y285630D01*
X97395D01*
Y281398D01*
X97578Y280476D01*
X98100Y279695D01*
X100561Y277234D01*
X116407Y261387D01*
X117189Y260865D01*
X118110Y260682D01*
X119571D01*
X119754Y260718D01*
X120577Y260494D01*
X120713Y260167D01*
X120855Y259824D01*
X121297Y259248D01*
X121872Y258806D01*
X122543Y258529D01*
X123262Y258434D01*
X123266Y258430D01*
X123361Y257710D01*
X123639Y257040D01*
X124081Y256464D01*
X124656Y256023D01*
X125327Y255745D01*
X126047Y255646D01*
X126145Y254926D01*
X126423Y254256D01*
X126865Y253680D01*
X127440Y253239D01*
X128111Y252961D01*
X128830Y252866D01*
X128834Y252862D01*
X128929Y252143D01*
X129207Y251472D01*
X129286Y251369D01*
X132867Y254950D01*
X133702Y254115D01*
X130121Y250534D01*
X130224Y250455D01*
X130246Y250446D01*
X130430Y249517D01*
X126495Y245582D01*
X126091Y245635D01*
X125165Y245513D01*
X124304Y245156D01*
X123563Y244588D01*
X122995Y243848D01*
X122638Y242986D01*
X122517Y242061D01*
X122638Y241136D01*
X122995Y240274D01*
X123563Y239534D01*
X124304Y238966D01*
X124458Y238902D01*
X124611Y238130D01*
X123724Y237243D01*
X123531Y237268D01*
X122606Y237147D01*
X121744Y236790D01*
X121004Y236222D01*
X120436Y235481D01*
X120079Y234619D01*
X119957Y233695D01*
X120079Y232769D01*
X120436Y231908D01*
X121004Y231167D01*
X121744Y230599D01*
X122606Y230242D01*
X123531Y230121D01*
X124456Y230242D01*
X125318Y230599D01*
X126058Y231167D01*
X126626Y231908D01*
X126983Y232769D01*
X127105Y233695D01*
X127092Y233798D01*
X136620Y243327D01*
X137549Y243142D01*
X137558Y243120D01*
X138000Y242545D01*
X138576Y242103D01*
X139246Y241825D01*
X139966Y241727D01*
X140065Y241007D01*
X140342Y240337D01*
X140784Y239761D01*
X141360Y239319D01*
X141381Y239310D01*
X141566Y238381D01*
X128495Y225310D01*
X128347Y225330D01*
X127421Y225208D01*
X126559Y224851D01*
X125819Y224283D01*
X125251Y223543D01*
X124894Y222681D01*
X124773Y221756D01*
X124894Y220831D01*
X125251Y219969D01*
X125819Y219229D01*
X126274Y218880D01*
X126446Y217938D01*
X114021Y205513D01*
X113611Y204978D01*
X113353Y204356D01*
X113265Y203688D01*
Y179612D01*
X109888Y176235D01*
X109477Y175700D01*
X109219Y175077D01*
X109132Y174409D01*
Y147821D01*
X103884Y142573D01*
X103473Y142039D01*
X103216Y141416D01*
X103128Y140748D01*
Y133003D01*
X102400Y132702D01*
X98447Y136655D01*
X97666Y137177D01*
X96744Y137360D01*
X91652D01*
X90731Y137177D01*
X90467Y137001D01*
X90394Y136976D01*
X89496Y137286D01*
X89479Y137329D01*
X89037Y137904D01*
X88462Y138346D01*
X87791Y138624D01*
X87071Y138722D01*
X86973Y139442D01*
X86695Y140112D01*
X86253Y140688D01*
X85957Y140915D01*
X85783Y141855D01*
X103048Y159120D01*
X103490Y159695D01*
X103768Y160366D01*
X103862Y161085D01*
Y199603D01*
X104079Y199886D01*
X104436Y200748D01*
X104558Y201673D01*
X104436Y202598D01*
X104079Y203460D01*
X103862Y203743D01*
Y226014D01*
X115639Y237791D01*
X116081Y238366D01*
X116358Y239037D01*
X116453Y239756D01*
Y241571D01*
X116481Y241593D01*
X117113Y242415D01*
X117509Y243373D01*
X117645Y244400D01*
X117509Y245428D01*
X117113Y246386D01*
X116481Y247208D01*
X116453Y247230D01*
Y256012D01*
X116358Y256731D01*
X116081Y257401D01*
X115639Y257977D01*
X98028Y275588D01*
X97453Y276029D01*
X96782Y276307D01*
X96063Y276402D01*
X93110D01*
Y284055D01*
X92266D01*
Y286431D01*
X92914Y286928D01*
X93640Y287874D01*
X94096Y288976D01*
X94252Y290158D01*
X94096Y291339D01*
X93640Y292441D01*
X92914Y293387D01*
X91968Y294112D01*
X90867Y294568D01*
X89685Y294724D01*
X88503Y294568D01*
X87402Y294112D01*
X86456Y293387D01*
X85730Y292441D01*
X85274Y291339D01*
X85118Y290158D01*
X85274Y288976D01*
X85730Y287874D01*
X86456Y286928D01*
X87104Y286431D01*
Y284055D01*
X86024D01*
Y276402D01*
X84947D01*
X84799Y277521D01*
X84244Y278862D01*
X83360Y280014D01*
X82209Y280897D01*
X80868Y281453D01*
X79429Y281642D01*
X77990Y281453D01*
X76649Y280897D01*
X75498Y280014D01*
X74615Y278862D01*
X74059Y277521D01*
X73870Y276083D01*
X74059Y274644D01*
X74615Y273303D01*
X75498Y272152D01*
X76649Y271268D01*
X77990Y270713D01*
X79429Y270523D01*
X80868Y270713D01*
X82036Y271196D01*
X82662Y270937D01*
X83381Y270842D01*
X86024D01*
Y269882D01*
X92395D01*
X92487Y269777D01*
X92741Y269094D01*
X92459Y268728D01*
X92182Y268058D01*
X92083Y267338D01*
X91363Y267239D01*
X90693Y266962D01*
X90590Y266882D01*
X94171Y263301D01*
X93335Y262466D01*
X89752Y266050D01*
X89728Y266026D01*
X89509Y265925D01*
X88780Y265841D01*
X88668Y265927D01*
X88046Y266185D01*
X87378Y266273D01*
X85721D01*
X85053Y266185D01*
X84430Y265927D01*
X83896Y265517D01*
X82809Y264430D01*
X82399Y263895D01*
X82141Y263273D01*
X82053Y262605D01*
Y260974D01*
X82141Y260306D01*
X82399Y259683D01*
X82514Y259534D01*
X82346Y258636D01*
X82281Y258563D01*
X82238Y258531D01*
X85819Y254950D01*
X89400Y251369D01*
X89479Y251472D01*
X89757Y252143D01*
X89851Y252862D01*
X89856Y252866D01*
X90575Y252961D01*
X91245Y253239D01*
X91821Y253680D01*
X92263Y254256D01*
X92541Y254926D01*
X92639Y255646D01*
X93359Y255745D01*
X94029Y256023D01*
X94605Y256464D01*
X95047Y257040D01*
X95324Y257710D01*
X95419Y258430D01*
X95423Y258434D01*
X96143Y258529D01*
X96813Y258806D01*
X97592Y258411D01*
Y240905D01*
X97473Y240814D01*
X96905Y240074D01*
X96548Y239212D01*
X96426Y238287D01*
X96548Y237362D01*
X96905Y236501D01*
X97473Y235760D01*
X98213Y235192D01*
X99075Y234835D01*
X100000Y234714D01*
X100925Y234835D01*
X101787Y235192D01*
X102527Y235760D01*
X103095Y236501D01*
X103452Y237362D01*
X103574Y238287D01*
X103452Y239212D01*
X103095Y240074D01*
X102527Y240814D01*
X102409Y240905D01*
Y262205D01*
X102402Y262239D01*
X103127Y262627D01*
X110894Y254860D01*
Y247230D01*
X110866Y247208D01*
X110234Y246386D01*
X109838Y245428D01*
X109703Y244400D01*
X109838Y243373D01*
X110234Y242415D01*
X110866Y241593D01*
X110823Y240837D01*
X99117Y229131D01*
X98675Y228555D01*
X98398Y227885D01*
X98303Y227165D01*
Y203999D01*
X97889Y203460D01*
X97532Y202598D01*
X97410Y201673D01*
X97532Y200748D01*
X97889Y199886D01*
X98303Y199347D01*
Y162237D01*
X81852Y145786D01*
X81176Y145911D01*
X77467Y142202D01*
X73759Y138494D01*
X73884Y137818D01*
X50255Y114189D01*
X49366Y114072D01*
X48408Y113675D01*
X47586Y113044D01*
X46955Y112222D01*
X46558Y111264D01*
X46423Y110236D01*
X46427Y110201D01*
X41538Y105312D01*
X41097Y104736D01*
X40819Y104066D01*
X40724Y103347D01*
Y73721D01*
X40819Y73001D01*
X41097Y72331D01*
X41538Y71755D01*
X43904Y69390D01*
X43577Y68602D01*
X43209D01*
Y62894D01*
X46752D01*
Y62303D01*
X47343D01*
Y56004D01*
X50295D01*
X50440Y55276D01*
X50465Y55088D01*
X50742Y54417D01*
X51184Y53842D01*
X55176Y49849D01*
X55163Y49676D01*
X54896Y49062D01*
X33183D01*
X26129Y56116D01*
Y117943D01*
X30148Y121962D01*
X30670Y122743D01*
X30853Y123665D01*
X30670Y124587D01*
X30653Y124613D01*
Y126626D01*
X31440Y126958D01*
X32146Y126666D01*
X32480Y126622D01*
Y131004D01*
X33071D01*
Y131595D01*
X36645D01*
Y131890D01*
X36541Y132677D01*
X36796Y133223D01*
X36957Y133465D01*
X37303D01*
Y135138D01*
X33071D01*
Y136023D01*
X37303D01*
Y136024D01*
Y138538D01*
X42520D01*
Y138110D01*
X44587D01*
X46654D01*
Y138538D01*
X68898D01*
X69781Y138714D01*
X70530Y139214D01*
X71859Y140544D01*
X72628Y140348D01*
X72684Y140307D01*
X72694Y140230D01*
X72972Y139560D01*
X73051Y139457D01*
X76632Y143038D01*
X80213Y146619D01*
X80110Y146698D01*
X79440Y146975D01*
X78720Y147074D01*
X78621Y147794D01*
X78343Y148464D01*
X77902Y149040D01*
X77326Y149482D01*
X76656Y149759D01*
X75936Y149858D01*
X75837Y150578D01*
X75560Y151248D01*
X75118Y151824D01*
X74542Y152266D01*
X73872Y152543D01*
X73148Y152642D01*
X73053Y153361D01*
X72776Y154032D01*
X72334Y154608D01*
X71758Y155049D01*
X71088Y155327D01*
X70368Y155422D01*
X70364Y155426D01*
X70270Y156145D01*
X69992Y156816D01*
X69913Y156919D01*
X66332Y153338D01*
X65497Y154173D01*
X69077Y157754D01*
X68974Y157833D01*
X68304Y158111D01*
X67584Y158209D01*
X67486Y158929D01*
X67208Y159600D01*
X66766Y160175D01*
X66190Y160617D01*
X65520Y160895D01*
X64800Y160993D01*
X64702Y161713D01*
X64424Y162384D01*
X63982Y162959D01*
X63407Y163401D01*
X62736Y163679D01*
X62012Y163778D01*
X61918Y164497D01*
X61640Y165167D01*
X61198Y165743D01*
X60623Y166185D01*
X59952Y166463D01*
X59232Y166561D01*
X59134Y167281D01*
X58856Y167951D01*
X58415Y168527D01*
X57839Y168969D01*
X57168Y169246D01*
X56449Y169341D01*
X56445Y169345D01*
X56350Y170065D01*
X56072Y170735D01*
X55993Y170838D01*
X52412Y167257D01*
X48831Y163677D01*
X48935Y163598D01*
X49605Y163320D01*
X50324Y163225D01*
X50329Y163221D01*
X50423Y162501D01*
X50701Y161831D01*
X51143Y161255D01*
X51718Y160814D01*
X52389Y160536D01*
X53109Y160438D01*
X53207Y159718D01*
X53485Y159047D01*
X53927Y158471D01*
X54502Y158030D01*
X55173Y157752D01*
X55896Y157653D01*
X55991Y156934D01*
X56269Y156263D01*
X56711Y155688D01*
X57286Y155246D01*
X57957Y154968D01*
X58677Y154870D01*
X58775Y154150D01*
X59053Y153479D01*
X59494Y152904D01*
X60070Y152462D01*
X60741Y152184D01*
X61461Y152086D01*
X61559Y151366D01*
X61837Y150696D01*
X62278Y150120D01*
X62574Y149893D01*
X62607Y149715D01*
X62028Y148941D01*
X57155D01*
X52064Y154033D01*
X51488Y154474D01*
X50818Y154752D01*
X50098Y154847D01*
X49389D01*
X49152Y155156D01*
X48247Y155850D01*
X47194Y156286D01*
X46063Y156435D01*
X44932Y156286D01*
X43879Y155850D01*
X43012Y155184D01*
X42840Y155212D01*
X42224Y155472D01*
Y157874D01*
X40748D01*
Y155591D01*
X40157D01*
Y155000D01*
X38091D01*
Y154479D01*
X38079Y154474D01*
X37503Y154033D01*
X36901Y153430D01*
X35972Y153615D01*
X35598Y154102D01*
X34858Y154670D01*
X33996Y155027D01*
X33661Y155071D01*
Y150689D01*
X32480D01*
Y155071D01*
X32146Y155027D01*
X31440Y154735D01*
X30730Y155035D01*
X30658Y155795D01*
X33593Y158730D01*
X34115Y159511D01*
X34298Y160433D01*
Y164053D01*
X39818D01*
X40486Y164141D01*
X41109Y164399D01*
X41643Y164809D01*
X44375Y167541D01*
X45226Y167278D01*
X45575Y166823D01*
X46151Y166381D01*
X46821Y166104D01*
X47541Y166005D01*
X47640Y165285D01*
X47917Y164615D01*
X47996Y164512D01*
X51577Y168093D01*
X55158Y171674D01*
X55055Y171753D01*
X55291Y172489D01*
X55385Y172684D01*
X55598Y172712D01*
X56412Y173049D01*
X57111Y173586D01*
X57648Y174285D01*
X57985Y175099D01*
X58100Y175972D01*
X57985Y176846D01*
X57648Y177660D01*
X57111Y178359D01*
X56412Y178896D01*
X55598Y179233D01*
X54724Y179348D01*
X53851Y179233D01*
X53037Y178896D01*
X52338Y178359D01*
X51801Y177660D01*
X51464Y176846D01*
X51436Y176633D01*
X51241Y176539D01*
X50505Y176303D01*
X50063Y176879D01*
X49487Y177320D01*
X48817Y177598D01*
X48396Y177656D01*
X48373Y177716D01*
X48296Y178461D01*
X48387Y178521D01*
X48387Y178521D01*
X55068Y185203D01*
X55242Y185463D01*
X55303Y185770D01*
X55242Y186077D01*
X55068Y186338D01*
X55068Y186338D01*
X48387Y193019D01*
X48126Y193193D01*
X47819Y193254D01*
X47512Y193193D01*
X47251Y193019D01*
X47251Y193019D01*
X40570Y186338D01*
X40396Y186077D01*
X40335Y185770D01*
X40396Y185463D01*
X40570Y185203D01*
X40570Y185203D01*
X41879Y183893D01*
X41586Y183073D01*
X41140Y182888D01*
X40564Y182447D01*
X39311Y181194D01*
X41277Y179228D01*
X40859Y178811D01*
X41277Y178393D01*
X37696Y174812D01*
X37799Y174733D01*
X38469Y174455D01*
X39189Y174361D01*
X39193Y174356D01*
X39288Y173637D01*
X39566Y172967D01*
X39645Y172863D01*
X43225Y176444D01*
X44061Y175609D01*
X40470Y172018D01*
X40725Y171191D01*
X40165Y170632D01*
X39883Y170914D01*
X38422Y169452D01*
X37586Y170288D01*
X39048Y171749D01*
X37851Y172946D01*
X36220Y171316D01*
X35433Y171642D01*
Y173917D01*
X31890D01*
Y174508D01*
X31299D01*
Y178248D01*
X28346D01*
Y178009D01*
X27559Y177852D01*
X27183Y178760D01*
X26457Y179706D01*
X25637Y180335D01*
Y182205D01*
X25453Y183126D01*
X25295Y183363D01*
Y184921D01*
X23228D01*
Y185512D01*
X22638D01*
Y187795D01*
X21161D01*
X20866Y188460D01*
Y188484D01*
X17323D01*
X13780D01*
Y185335D01*
Y178642D01*
X13780D01*
X13513Y177965D01*
X13177Y177153D01*
X13062Y176279D01*
X13177Y175406D01*
X13514Y174592D01*
X14050Y173893D01*
X14749Y173356D01*
X15563Y173019D01*
X16437Y172904D01*
X17311Y173019D01*
X18125Y173356D01*
X18666Y173772D01*
X18836Y173890D01*
X19660Y173689D01*
X19999Y173247D01*
X20945Y172522D01*
X22046Y172065D01*
X23228Y171910D01*
X24410Y172065D01*
X25512Y172522D01*
X26457Y173247D01*
X27183Y174193D01*
X27559Y175101D01*
X28346Y174944D01*
Y170768D01*
Y168068D01*
X27559Y167911D01*
X27183Y168819D01*
X26457Y169764D01*
X25512Y170490D01*
X24410Y170947D01*
X23819Y171024D01*
Y166535D01*
Y162047D01*
X24410Y162124D01*
X25512Y162581D01*
X26457Y163306D01*
X27183Y164252D01*
X27559Y165160D01*
X28346Y165003D01*
Y164075D01*
X29481D01*
Y161431D01*
X26742Y158691D01*
X26220Y157910D01*
X25414Y157898D01*
X25210Y157982D01*
X24311Y158101D01*
X23031D01*
Y154626D01*
X22441D01*
Y154035D01*
X17126D01*
Y152854D01*
X22441D01*
Y151673D01*
X17126D01*
Y148327D01*
Y145374D01*
X22441D01*
Y144193D01*
X17126D01*
Y140256D01*
Y137500D01*
X22441D01*
Y136319D01*
X17126D01*
Y132382D01*
Y130020D01*
X22441D01*
Y128839D01*
X17126D01*
Y127657D01*
X22441D01*
Y127067D01*
X23031D01*
Y123592D01*
X23853D01*
X24179Y122805D01*
X22017Y120644D01*
X21495Y119862D01*
X21312Y118941D01*
Y55118D01*
X21495Y54196D01*
X22017Y53415D01*
X30482Y44951D01*
X31263Y44428D01*
X32185Y44245D01*
X59408D01*
X60122Y43799D01*
Y23720D01*
X60184Y23413D01*
X60357Y23153D01*
X60618Y22979D01*
X60925Y22918D01*
X70138D01*
X70445Y22979D01*
X70531Y23036D01*
X70618Y22979D01*
X70925Y22918D01*
X80138D01*
X80445Y22979D01*
X80532Y23036D01*
X80618Y22979D01*
X80925Y22918D01*
X90138D01*
X90445Y22979D01*
X90706Y23153D01*
X90879Y23413D01*
X90941Y23720D01*
Y43799D01*
X91655Y44245D01*
X102841D01*
X108662Y38424D01*
X108360Y37697D01*
X106791D01*
Y30020D01*
X109744D01*
Y36313D01*
X110472Y36615D01*
X119458Y27628D01*
X120240Y27106D01*
X121161Y26922D01*
X256876D01*
X268179Y15620D01*
X268960Y15098D01*
X269882Y14914D01*
X311069D01*
X311713Y14567D01*
Y7618D01*
X311033Y7097D01*
X310434Y6315D01*
X310057Y5406D01*
X309928Y4429D01*
X310057Y3453D01*
X310434Y2543D01*
X310497Y2461D01*
X310109Y1673D01*
X280550D01*
X280393Y2461D01*
X281126Y2764D01*
X282277Y3648D01*
X283161Y4799D01*
X283716Y6140D01*
X283906Y7579D01*
X283716Y9018D01*
X283161Y10358D01*
X282277Y11510D01*
X281126Y12393D01*
X279785Y12949D01*
X278346Y13138D01*
X274410D01*
X272971Y12949D01*
X271630Y12393D01*
X270478Y11510D01*
X269595Y10358D01*
X269040Y9018D01*
X268850Y7579D01*
X269040Y6140D01*
X269595Y4799D01*
X270478Y3648D01*
X271630Y2764D01*
X272363Y2461D01*
X272206Y1673D01*
X109744D01*
Y7972D01*
X106201D01*
X102657D01*
Y1673D01*
X90941D01*
Y15846D01*
X90879Y16154D01*
X90706Y16414D01*
X90445Y16588D01*
X90138Y16649D01*
X80925D01*
X80618Y16588D01*
X80532Y16530D01*
X80445Y16588D01*
X80138Y16649D01*
X70925D01*
X70618Y16588D01*
X70531Y16530D01*
X70445Y16588D01*
X70138Y16649D01*
X60925D01*
X60618Y16588D01*
X60357Y16414D01*
X60184Y16154D01*
X60122Y15846D01*
Y1673D01*
X50295D01*
Y7972D01*
X46752D01*
X43209D01*
Y1673D01*
X5906D01*
X5488Y1673D01*
X4671Y1836D01*
X3900Y2155D01*
X3207Y2618D01*
X2617Y3208D01*
X2154Y3901D01*
X1835Y4672D01*
X1672Y5490D01*
X1672Y5907D01*
X1673Y111614D01*
X15551Y111614D01*
X15551Y170079D01*
X1673Y170079D01*
Y280090D01*
X2461Y280357D01*
X2521Y280277D01*
X3426Y279583D01*
X4480Y279147D01*
X5119Y279063D01*
X5120Y203642D01*
X34055D01*
X35882Y205469D01*
X37780Y203570D01*
X38356Y203129D01*
X39026Y202851D01*
X39746Y202756D01*
X40465Y202851D01*
X41135Y203129D01*
X41711Y203570D01*
X42153Y204146D01*
X42431Y204817D01*
X42525Y205536D01*
X43249Y205635D01*
X43919Y205912D01*
X44495Y206354D01*
X44937Y206930D01*
X45215Y207600D01*
X45309Y208320D01*
X45313Y208324D01*
X46033Y208419D01*
X46703Y208696D01*
X47279Y209138D01*
X47721Y209714D01*
X47998Y210384D01*
X48097Y211104D01*
X48817Y211203D01*
X49487Y211480D01*
X50063Y211922D01*
X50505Y212498D01*
X50782Y213168D01*
X50877Y213888D01*
X50881Y213892D01*
X51601Y213986D01*
X52271Y214264D01*
X52374Y214343D01*
X48793Y217924D01*
X49628Y218759D01*
X53209Y215178D01*
X53289Y215282D01*
X53298Y215303D01*
X54226Y215488D01*
X88746Y180968D01*
X88856Y180130D01*
X89193Y179316D01*
X89730Y178617D01*
X90429Y178081D01*
X91243Y177744D01*
X92116Y177629D01*
X92990Y177744D01*
X93804Y178081D01*
X94503Y178617D01*
X95040Y179316D01*
X95377Y180130D01*
X95492Y181004D01*
X95377Y181878D01*
X95040Y182692D01*
X94503Y183391D01*
X93804Y183927D01*
X92990Y184264D01*
X92152Y184375D01*
X89394Y187133D01*
X89481Y187925D01*
X89607Y188033D01*
X90291Y188558D01*
X90827Y189257D01*
X91164Y190071D01*
X91279Y190945D01*
X91164Y191818D01*
X90827Y192632D01*
X90291Y193332D01*
X89592Y193868D01*
X88778Y194205D01*
X87904Y194320D01*
X87789Y194305D01*
X75656Y206438D01*
X75770Y207010D01*
X75923Y207285D01*
X76543Y207762D01*
X76977Y208327D01*
X77496Y208463D01*
X78227Y207925D01*
X78257Y207700D01*
X78594Y206886D01*
X79130Y206187D01*
X79829Y205650D01*
X80643Y205313D01*
X81517Y205198D01*
X82390Y205313D01*
X83205Y205650D01*
X83904Y206187D01*
X84440Y206886D01*
X84777Y207700D01*
X84892Y208574D01*
X84777Y209447D01*
X84440Y210261D01*
X83904Y210960D01*
X83205Y211497D01*
X82390Y211834D01*
X81517Y211949D01*
X81308Y211921D01*
X65984Y227246D01*
X66169Y228175D01*
X66190Y228184D01*
X66766Y228625D01*
X67208Y229201D01*
X67225Y229242D01*
X68154Y229427D01*
X73505Y224076D01*
X73485Y223928D01*
X73607Y223003D01*
X73964Y222141D01*
X74532Y221401D01*
X75272Y220833D01*
X76134Y220476D01*
X77059Y220354D01*
X77984Y220476D01*
X78846Y220833D01*
X79586Y221401D01*
X80154Y222141D01*
X80511Y223003D01*
X80633Y223928D01*
X80511Y224853D01*
X80154Y225715D01*
X79586Y226455D01*
X78846Y227023D01*
X77984Y227380D01*
X77059Y227502D01*
X76911Y227482D01*
X71572Y232822D01*
X71756Y233751D01*
X71758Y233751D01*
X72334Y234193D01*
X72776Y234769D01*
X73053Y235439D01*
X73148Y236159D01*
X73872Y236258D01*
X74542Y236535D01*
X75118Y236977D01*
X75560Y237553D01*
X75568Y237574D01*
X76497Y237759D01*
X82166Y232090D01*
X82147Y231942D01*
X82269Y231017D01*
X82626Y230155D01*
X83194Y229415D01*
X83934Y228847D01*
X84796Y228490D01*
X85721Y228368D01*
X86646Y228490D01*
X87508Y228847D01*
X88248Y229415D01*
X88816Y230155D01*
X89173Y231017D01*
X89295Y231942D01*
X89173Y232867D01*
X88816Y233729D01*
X88248Y234469D01*
X87508Y235037D01*
X86646Y235394D01*
X85721Y235516D01*
X85572Y235496D01*
X79903Y241165D01*
X80088Y242094D01*
X80110Y242103D01*
X80686Y242545D01*
X81127Y243120D01*
X81405Y243791D01*
X81500Y244510D01*
X82223Y244609D01*
X82894Y244887D01*
X83469Y245329D01*
X83911Y245904D01*
X84189Y246575D01*
X84284Y247294D01*
X84288Y247298D01*
X85007Y247393D01*
X85678Y247671D01*
X85781Y247750D01*
X82200Y251331D01*
X78619Y254912D01*
X78540Y254809D01*
X78262Y254138D01*
X78167Y253419D01*
X78163Y253415D01*
X77444Y253320D01*
X76773Y253042D01*
X76198Y252600D01*
X75756Y252025D01*
X75478Y251354D01*
X75384Y250635D01*
X74660Y250536D01*
X73990Y250258D01*
X73414Y249816D01*
X72972Y249241D01*
X72694Y248570D01*
X72596Y247850D01*
X71876Y247752D01*
X71206Y247474D01*
X70630Y247033D01*
X70188Y246457D01*
X69911Y245786D01*
X69812Y245067D01*
X69092Y244968D01*
X68422Y244690D01*
X67846Y244249D01*
X67404Y243673D01*
X67127Y243003D01*
X67032Y242283D01*
X66308Y242184D01*
X65638Y241907D01*
X65062Y241465D01*
X64621Y240889D01*
X64343Y240219D01*
X64248Y239499D01*
X64244Y239495D01*
X63524Y239400D01*
X62854Y239123D01*
X62278Y238681D01*
X61837Y238105D01*
X61559Y237435D01*
X61461Y236715D01*
X60741Y236616D01*
X60070Y236339D01*
X59494Y235897D01*
X59053Y235321D01*
X58775Y234651D01*
X58465Y234526D01*
X57677Y235057D01*
X57677Y305152D01*
X58234Y305709D01*
X109941Y305708D01*
D02*
G37*
G36*
X331201Y261024D02*
X305217D01*
Y301772D01*
X331201D01*
Y261024D01*
D02*
G37*
G36*
X345276Y253238D02*
Y249016D01*
X349213D01*
Y253150D01*
X350394D01*
Y249016D01*
X354331D01*
X354502Y248299D01*
Y247100D01*
X350643Y243240D01*
X348864D01*
Y243943D01*
X335981D01*
X335679Y244671D01*
X336864Y245856D01*
X337894Y245720D01*
X339333Y245910D01*
X340673Y246465D01*
X341825Y247348D01*
X342708Y248500D01*
X343264Y249841D01*
X343453Y251279D01*
X343318Y252309D01*
X344548Y253540D01*
X345276Y253238D01*
D02*
G37*
G36*
X425068Y230337D02*
X400886D01*
X400218Y230249D01*
X399595Y229991D01*
X399061Y229581D01*
X395517Y226038D01*
X395107Y225503D01*
X394989Y225487D01*
X394116Y226149D01*
X394087Y226374D01*
X393670Y227380D01*
X393007Y228244D01*
X392144Y228906D01*
X391138Y229323D01*
X390650Y229387D01*
Y225295D01*
Y221203D01*
X391138Y221268D01*
X392144Y221684D01*
X393007Y222347D01*
X393670Y223211D01*
X393974Y223944D01*
X394761Y223788D01*
Y203740D01*
X394849Y203072D01*
X395107Y202450D01*
X395517Y201915D01*
X398273Y199159D01*
X398808Y198749D01*
X399430Y198491D01*
X400099Y198403D01*
Y197244D01*
X407185D01*
Y199709D01*
X407238Y199750D01*
X407863Y200374D01*
X416439D01*
Y202555D01*
X421949D01*
Y210827D01*
Y219098D01*
X416439D01*
Y221280D01*
X412453D01*
Y218327D01*
X411272D01*
Y221280D01*
X407285D01*
X407185Y222025D01*
Y225175D01*
X430635D01*
Y221280D01*
X428640D01*
Y219098D01*
X423130D01*
Y210827D01*
Y202555D01*
X428640D01*
Y200374D01*
X429792D01*
Y197346D01*
X422571Y190126D01*
X422003Y189385D01*
X421646Y188523D01*
X421525Y187599D01*
Y185335D01*
X421063D01*
Y184775D01*
X418898D01*
X417973Y184653D01*
X417111Y184296D01*
X416371Y183728D01*
X412827Y180185D01*
X412259Y179445D01*
X411902Y178583D01*
X411781Y177657D01*
Y169788D01*
X409740Y167747D01*
X396850D01*
Y168701D01*
X381102D01*
Y167747D01*
X362307D01*
X360661Y169394D01*
Y174016D01*
X360630Y174248D01*
Y178346D01*
X361417Y178347D01*
X364370D01*
X364370Y179035D01*
X365543D01*
Y175886D01*
X365723Y174979D01*
X366237Y174210D01*
X368344Y172104D01*
X369113Y171590D01*
X370020Y171409D01*
X379528D01*
Y170236D01*
X388189D01*
Y170236D01*
X388583Y170473D01*
X395669D01*
Y177165D01*
Y184646D01*
X389195D01*
Y192908D01*
X389850Y193345D01*
X390161Y193217D01*
X390650Y193152D01*
Y197244D01*
Y201336D01*
X390161Y201272D01*
X389850Y201143D01*
X389195Y201580D01*
Y211024D01*
X389107Y211692D01*
X388849Y212314D01*
X388439Y212849D01*
X382417Y218872D01*
X383446Y219901D01*
X384171Y220847D01*
X384302Y221161D01*
X384350D01*
Y221279D01*
X384628Y221948D01*
X384783Y223130D01*
Y225295D01*
Y229703D01*
X387522Y232441D01*
X425068D01*
Y230337D01*
D02*
G37*
G36*
X174705Y305709D02*
Y303937D01*
X178445D01*
Y302756D01*
X174705D01*
Y299803D01*
Y297047D01*
X178445D01*
Y296457D01*
X179035D01*
Y292913D01*
X180967D01*
Y289567D01*
X181136Y288284D01*
X181398Y287653D01*
Y284646D01*
Y282426D01*
X181136Y281795D01*
X180967Y280512D01*
Y216663D01*
X181136Y215380D01*
X181632Y214184D01*
X181740Y214043D01*
X181384Y213686D01*
X180886Y214068D01*
X180216Y214345D01*
X179988Y214375D01*
X179492Y214444D01*
X179398Y215164D01*
X179120Y215834D01*
X178678Y216410D01*
X178103Y216852D01*
X177432Y217129D01*
X177204Y217159D01*
X176712Y217228D01*
X176644Y217719D01*
X176614Y217948D01*
X176336Y218618D01*
X175894Y219194D01*
X175319Y219636D01*
X174648Y219913D01*
X174420Y219943D01*
X173925Y220012D01*
X173830Y220731D01*
X173552Y221402D01*
X173111Y221978D01*
X172535Y222419D01*
X171864Y222697D01*
X171636Y222727D01*
X171144Y222796D01*
X171076Y223287D01*
X171046Y223515D01*
X170768Y224186D01*
X170327Y224762D01*
X169751Y225203D01*
X169081Y225481D01*
X168405Y225570D01*
X168405Y305709D01*
X174705Y305709D01*
D02*
G37*
G36*
X208957Y305709D02*
X208957Y222835D01*
X199016Y212894D01*
X190877Y204755D01*
X186356Y204755D01*
X184223Y206888D01*
X184223Y206888D01*
X184246Y206911D01*
X184962Y207627D01*
X184973Y207616D01*
X186277Y209142D01*
X187326Y210854D01*
X187860Y212145D01*
X188404Y212370D01*
X189431Y213158D01*
X190219Y214184D01*
X190714Y215380D01*
X190883Y216663D01*
Y280512D01*
X190714Y281795D01*
X190453Y282426D01*
Y284646D01*
Y287653D01*
X190714Y288284D01*
X190883Y289567D01*
Y296457D01*
Y305709D01*
X208957Y305709D01*
D02*
G37*
G36*
X27559Y275048D02*
X27297Y274413D01*
X27128Y273130D01*
X27128Y235236D01*
Y233318D01*
X27128Y233318D01*
X27128D01*
X27129Y233308D01*
X27295Y230355D01*
X27792Y227429D01*
X28613Y224577D01*
X29749Y221835D01*
X31185Y219238D01*
X32902Y216817D01*
X34521Y215005D01*
X34934Y214468D01*
X34935Y214469D01*
X35962Y213681D01*
X36525Y213447D01*
X36693Y212837D01*
X36504Y212380D01*
X36409Y211661D01*
X35914Y211592D01*
X35686Y211561D01*
X35015Y211284D01*
X34440Y210842D01*
X33998Y210266D01*
X33720Y209596D01*
X33625Y208877D01*
X33720Y208157D01*
X33998Y207487D01*
X34223Y207193D01*
X33977Y206693D01*
X9547Y206693D01*
X9547Y279792D01*
X18110D01*
X18342Y279823D01*
X27559D01*
Y275048D01*
D02*
G37*
G36*
X376971Y202044D02*
X377264Y201378D01*
X377264Y201378D01*
X377264D01*
X377264Y201378D01*
Y193110D01*
X384033D01*
Y184803D01*
X379528D01*
Y181850D01*
X379528Y181063D01*
X375787D01*
Y177520D01*
X374606D01*
Y181063D01*
X371457D01*
Y185728D01*
Y188878D01*
X367913D01*
X364370D01*
Y187795D01*
X364370Y187008D01*
X363217D01*
Y196850D01*
X364409D01*
Y203691D01*
X364807Y203743D01*
X364912Y203787D01*
X375229D01*
X376971Y202044D01*
D02*
G37*
G36*
X96955Y122715D02*
X93374Y119134D01*
X93477Y119055D01*
X93879Y118889D01*
X94153Y118050D01*
X82844Y106741D01*
X82353Y106005D01*
X82180Y105984D01*
X81546Y106096D01*
X81508Y106385D01*
X81171Y107200D01*
X80656Y107870D01*
Y109414D01*
X91522Y120279D01*
X92450Y120094D01*
X92459Y120073D01*
X92538Y119970D01*
X96119Y123550D01*
X96955Y122715D01*
D02*
G37*
G36*
X135925Y92520D02*
X140212D01*
Y83771D01*
X140170Y83001D01*
X140141Y82958D01*
X139633Y82568D01*
X138993Y82303D01*
X138357Y82219D01*
X138306Y82229D01*
X136875D01*
Y82231D01*
X135496Y82049D01*
X134212Y81517D01*
X133744Y81158D01*
X132785Y81415D01*
X132746Y81511D01*
X132210Y82210D01*
X131510Y82746D01*
X130696Y83083D01*
X129823Y83198D01*
X129725Y83185D01*
X127997Y84913D01*
Y95597D01*
X128051Y95633D01*
X128839Y95212D01*
Y92520D01*
X134744D01*
Y96358D01*
X135925D01*
Y92520D01*
D02*
G37*
G36*
X63681Y97441D02*
Y96270D01*
X63498Y96148D01*
X62809Y95459D01*
X62330Y94743D01*
X62162Y93898D01*
Y86910D01*
X58212D01*
Y93500D01*
X62208Y97497D01*
X63681D01*
Y97441D01*
D02*
G37*
G36*
X502337Y98766D02*
Y52362D01*
X502438Y51591D01*
X502736Y50873D01*
X503209Y50256D01*
X510998Y42467D01*
X510672Y41680D01*
X412021D01*
X408905Y44797D01*
Y57677D01*
X408721Y58599D01*
X408199Y59380D01*
X405316Y62263D01*
X404535Y62785D01*
X403613Y62969D01*
X401777D01*
X401537Y63756D01*
X402144Y64547D01*
X402600Y65649D01*
X402678Y66240D01*
X393700D01*
X393778Y65649D01*
X394234Y64547D01*
X394841Y63756D01*
X394601Y62969D01*
X391776D01*
X391536Y63756D01*
X392144Y64547D01*
X392600Y65649D01*
X392756Y66831D01*
X392600Y68013D01*
X392165Y69063D01*
X396879Y73777D01*
X468363D01*
Y64764D01*
X468531Y63919D01*
X469010Y63203D01*
X469193Y63020D01*
Y56496D01*
X471513D01*
Y49804D01*
X471555Y49590D01*
Y44725D01*
X481004D01*
Y56457D01*
X481775Y56496D01*
X483366D01*
Y59449D01*
X479626D01*
Y60039D01*
X479036D01*
Y63583D01*
X474650D01*
X474199Y64258D01*
X472779Y65678D01*
Y75984D01*
Y92259D01*
X472958Y92397D01*
X473494Y93096D01*
X473831Y93910D01*
X473946Y94784D01*
X473831Y95657D01*
X473494Y96471D01*
X472958Y97170D01*
X472259Y97707D01*
X471445Y98044D01*
X470571Y98159D01*
X469697Y98044D01*
X468883Y97707D01*
X468184Y97170D01*
X467648Y96471D01*
X467310Y95657D01*
X467196Y94784D01*
X467310Y93910D01*
X467648Y93096D01*
X468184Y92397D01*
X468363Y92259D01*
Y78192D01*
X395965D01*
X395120Y78024D01*
X394403Y77545D01*
X388248Y71390D01*
X388189Y71397D01*
X387007Y71242D01*
X385906Y70785D01*
X384960Y70060D01*
X384234Y69114D01*
X383778Y68013D01*
X383622Y66831D01*
X383719Y66096D01*
X382977Y65700D01*
X382645Y65992D01*
X382756Y66831D01*
X382600Y68013D01*
X382179Y69029D01*
X401982Y88832D01*
X434047D01*
X434396Y88125D01*
X434308Y88011D01*
X433871Y86957D01*
X433722Y85827D01*
X433871Y84696D01*
X434308Y83643D01*
X435002Y82738D01*
X435907Y82044D01*
X436960Y81608D01*
X438091Y81459D01*
X439221Y81608D01*
X440275Y82044D01*
X441179Y82738D01*
X441264Y82849D01*
X451673D01*
X452444Y82950D01*
X453162Y83248D01*
X453779Y83721D01*
X463425Y93366D01*
X463898Y93983D01*
X464196Y94702D01*
X464297Y95473D01*
Y101746D01*
X491612D01*
Y87004D01*
X491098Y86334D01*
X490741Y85472D01*
X490619Y84547D01*
X490741Y83622D01*
X491098Y82760D01*
X491666Y82020D01*
X492406Y81452D01*
X493268Y81095D01*
X494193Y80973D01*
X495118Y81095D01*
X495980Y81452D01*
X496720Y82020D01*
X497288Y82760D01*
X497645Y83622D01*
X497767Y84547D01*
X497645Y85472D01*
X497288Y86334D01*
X496774Y87004D01*
Y101746D01*
X499357D01*
X502337Y98766D01*
D02*
G37*
G36*
X151476Y92520D02*
X153423D01*
X153607Y91808D01*
X153599Y91732D01*
X152676Y91024D01*
X151951Y90079D01*
X151495Y88977D01*
X151339Y87795D01*
X151495Y86613D01*
X151951Y85512D01*
X152384Y84947D01*
Y83071D01*
X149114D01*
Y79528D01*
X147933D01*
Y83071D01*
X144854D01*
X144828Y83103D01*
Y92520D01*
X150295D01*
Y96358D01*
X151476D01*
Y92520D01*
D02*
G37*
G36*
X71161Y73228D02*
X74114D01*
Y73228D01*
X75190D01*
Y69587D01*
X74941D01*
Y63894D01*
X74716Y63699D01*
X74154Y63393D01*
X74016Y63421D01*
X73228D01*
Y69587D01*
X67913D01*
X67447Y70181D01*
X67284Y71000D01*
X66762Y71782D01*
X66286Y72258D01*
Y73228D01*
X69980D01*
Y76772D01*
X71161D01*
Y73228D01*
D02*
G37*
G36*
X54369Y73193D02*
X54891Y72411D01*
X58445Y68858D01*
Y62500D01*
X66323D01*
Y54551D01*
X58336D01*
X55929Y56959D01*
Y68110D01*
X55835Y68830D01*
X55557Y69500D01*
X55115Y70076D01*
X52750Y72441D01*
X53076Y73228D01*
X54362D01*
X54369Y73193D01*
D02*
G37*
G36*
X369934Y55931D02*
Y52874D01*
X368406D01*
Y52874D01*
X364862D01*
Y49350D01*
X364272D01*
Y48760D01*
X360138D01*
Y47979D01*
X359167D01*
X350538Y56608D01*
X350839Y57336D01*
X368529D01*
X369934Y55931D01*
D02*
G37*
G36*
X354340Y40876D02*
X355122Y40354D01*
X356043Y40170D01*
X359562D01*
X359927Y39431D01*
X359805Y39193D01*
X359652Y38993D01*
X359255Y38036D01*
X359120Y37008D01*
X359255Y35980D01*
X359604Y35138D01*
X359449Y34350D01*
X359449D01*
Y27264D01*
X367139D01*
X367317Y26875D01*
X366750Y26225D01*
X366531Y26291D01*
X365945Y26349D01*
Y20965D01*
X371329D01*
X371271Y21551D01*
X371143Y21976D01*
X371839Y22393D01*
X383457Y10774D01*
X383425Y10531D01*
X383581Y9350D01*
X384037Y8248D01*
X384763Y7302D01*
X385709Y6577D01*
X386810Y6120D01*
X387992Y5965D01*
X389174Y6120D01*
X390275Y6577D01*
X391221Y7302D01*
X391851Y8123D01*
X394587D01*
X395508Y8306D01*
X396290Y8828D01*
X397835Y10373D01*
X398622Y10047D01*
Y2854D01*
X403527D01*
X403740Y2812D01*
X445926Y2812D01*
X446201Y2461D01*
X445816Y1673D01*
X351309D01*
X350920Y2461D01*
X350984Y2543D01*
X351360Y3453D01*
X351489Y4429D01*
X351360Y5406D01*
X350984Y6315D01*
X350384Y7097D01*
X349803Y7542D01*
Y14567D01*
X348327D01*
Y20430D01*
X350475D01*
X352808Y18097D01*
Y15905D01*
X352689Y15814D01*
X352121Y15074D01*
X351764Y14212D01*
X351643Y13287D01*
X351764Y12362D01*
X352121Y11501D01*
X352689Y10760D01*
X353430Y10192D01*
X354292Y9835D01*
X355217Y9713D01*
X356141Y9835D01*
X357003Y10192D01*
X357744Y10760D01*
X358312Y11501D01*
X358669Y12362D01*
X358790Y13287D01*
X358669Y14212D01*
X358312Y15074D01*
X357744Y15814D01*
X357625Y15905D01*
Y19094D01*
X357442Y20016D01*
X356920Y20798D01*
X353376Y24341D01*
X352595Y24863D01*
X352106Y24960D01*
Y30413D01*
X352559D01*
Y37106D01*
X352559D01*
Y41628D01*
X353287Y41929D01*
X354340Y40876D01*
D02*
G37*
G36*
X498904Y26136D02*
X498430Y25496D01*
X497585Y25948D01*
X496454Y26291D01*
X495867Y26349D01*
Y20965D01*
X501252D01*
X501194Y21551D01*
X500851Y22683D01*
X500399Y23527D01*
X501039Y24002D01*
X513483Y11557D01*
X513348Y10531D01*
X513504Y9350D01*
X513960Y8248D01*
X514050Y8130D01*
X513702Y7424D01*
X504411Y7424D01*
X504063Y8130D01*
X504153Y8248D01*
X504609Y9350D01*
X504687Y9941D01*
X495709D01*
X495787Y9350D01*
X496243Y8248D01*
X496334Y8130D01*
X495985Y7424D01*
X470571D01*
Y9744D01*
Y17224D01*
X464285D01*
X463813Y18012D01*
X463841Y18065D01*
X464185Y19197D01*
X464243Y19783D01*
X452293D01*
X452351Y19197D01*
X452694Y18065D01*
X453252Y17022D01*
X454002Y16108D01*
X454440Y15748D01*
X454114Y14997D01*
X453346Y15098D01*
X452321Y14963D01*
X439378Y27907D01*
X439704Y28694D01*
X496346D01*
X498904Y26136D01*
D02*
G37*
G36*
X103128Y119183D02*
Y103937D01*
X103216Y103269D01*
X103473Y102647D01*
X103884Y102112D01*
X110706Y95289D01*
Y57087D01*
X110794Y56419D01*
X111052Y55796D01*
X111462Y55261D01*
X126915Y39809D01*
X127450Y39399D01*
X128072Y39141D01*
X128740Y39053D01*
X261122D01*
X261790Y39141D01*
X262413Y39399D01*
X262947Y39809D01*
X267525Y44387D01*
X268345Y44093D01*
X268395Y43587D01*
X268744Y42437D01*
X269311Y41377D01*
X270074Y40448D01*
X271003Y39685D01*
X272063Y39118D01*
X273213Y38770D01*
X274410Y38652D01*
X278346D01*
X279543Y38770D01*
X280693Y39118D01*
X281753Y39685D01*
X282682Y40448D01*
X283445Y41377D01*
X284012Y42437D01*
X284361Y43587D01*
X284478Y44784D01*
X284361Y45980D01*
X284012Y47130D01*
X283445Y48190D01*
X282682Y49119D01*
X281753Y49882D01*
X280693Y50449D01*
X279543Y50798D01*
X278346Y50915D01*
X274410D01*
X273213Y50798D01*
X272063Y50449D01*
X271003Y49882D01*
X270293Y49299D01*
X269595Y49452D01*
X269425Y49570D01*
X269377Y49782D01*
X274002Y54407D01*
X327769D01*
X338386Y43791D01*
Y37500D01*
X338386D01*
Y34547D01*
X342126D01*
Y33366D01*
X338386D01*
Y30413D01*
X338839D01*
Y27756D01*
X341693D01*
Y26575D01*
X338839D01*
Y24846D01*
X335965D01*
Y30413D01*
X336221D01*
Y37500D01*
X336122D01*
Y44193D01*
X321949D01*
Y43280D01*
X311154D01*
X310644Y43671D01*
X309830Y44008D01*
X308957Y44123D01*
X308083Y44008D01*
X307269Y43671D01*
X306570Y43135D01*
X306034Y42436D01*
X305696Y41622D01*
X305581Y40748D01*
X305696Y39874D01*
X306034Y39060D01*
X306570Y38361D01*
X307269Y37825D01*
X308083Y37488D01*
X308957Y37373D01*
X309830Y37488D01*
X310644Y37825D01*
X311026Y38118D01*
X321949D01*
Y37106D01*
X322047D01*
Y34547D01*
X325787D01*
Y33366D01*
X322047D01*
Y30413D01*
X322697D01*
Y28398D01*
X321909Y28029D01*
X321375Y28439D01*
X320417Y28836D01*
X319390Y28971D01*
X318362Y28836D01*
X317404Y28439D01*
X316582Y27808D01*
X316556Y27774D01*
X272015Y27684D01*
X263973Y35725D01*
X263398Y36167D01*
X262727Y36445D01*
X262008Y36540D01*
X125167Y36540D01*
X107969Y53737D01*
X107394Y54179D01*
X106723Y54457D01*
X106004Y54551D01*
X74819D01*
Y61763D01*
X74941Y62500D01*
X75537Y62500D01*
X88819D01*
Y66043D01*
X89410D01*
Y66634D01*
X92067D01*
Y69587D01*
X92067Y69587D01*
X92323Y70268D01*
X93754Y71698D01*
X94165Y72233D01*
X94422Y72856D01*
X94471Y73228D01*
X97933D01*
Y76772D01*
Y80315D01*
X94412D01*
Y84945D01*
X94926Y85615D01*
X95283Y86477D01*
X95405Y87402D01*
X95283Y88327D01*
X94926Y89188D01*
X94358Y89929D01*
X93618Y90497D01*
X92756Y90854D01*
X91831Y90975D01*
X90906Y90854D01*
X90044Y90497D01*
X89304Y89929D01*
X88736Y89188D01*
X88379Y88327D01*
X88276Y87551D01*
X87579Y87119D01*
X86956Y87364D01*
Y104040D01*
X102400Y119485D01*
X103128Y119183D01*
D02*
G37*
G36*
X339024Y19643D02*
X337545Y18164D01*
X337135Y17629D01*
X336877Y17007D01*
X336789Y16339D01*
Y14567D01*
X335630D01*
Y7542D01*
X335259Y7258D01*
X326581D01*
X325886Y7480D01*
Y8443D01*
X327756D01*
X328424Y8530D01*
X329047Y8788D01*
X329581Y9199D01*
X331156Y10773D01*
X331566Y11308D01*
X331824Y11930D01*
X331912Y12598D01*
Y14075D01*
X332185D01*
Y20430D01*
X338698D01*
X339024Y19643D01*
D02*
G37*
G36*
X382746Y26643D02*
X384321Y25069D01*
X385102Y24546D01*
X386024Y24363D01*
X387527D01*
X387817Y23576D01*
X387340Y22683D01*
X386996Y21551D01*
X386939Y20965D01*
X398888D01*
X398830Y21551D01*
X398487Y22683D01*
X397930Y23726D01*
X397826Y23852D01*
X398163Y24564D01*
X402202D01*
X402228Y24546D01*
X403150Y24363D01*
X425322D01*
X425612Y23576D01*
X425135Y22683D01*
X424792Y21551D01*
X424734Y20965D01*
X436684D01*
X436626Y21551D01*
X436282Y22683D01*
X435831Y23527D01*
X436470Y24002D01*
X448915Y11557D01*
X448780Y10531D01*
X448936Y9350D01*
X449392Y8248D01*
X450117Y7302D01*
X451063Y6577D01*
X452165Y6120D01*
X453346Y5965D01*
X454528Y6120D01*
X455630Y6577D01*
X456576Y7302D01*
X457223Y8147D01*
X459665D01*
X460510Y8315D01*
X461227Y8793D01*
X462757Y10323D01*
X463484Y10022D01*
Y4964D01*
X450225D01*
X448608Y6581D01*
X447892Y7059D01*
X447047Y7227D01*
X439794D01*
X439406Y8015D01*
X439585Y8248D01*
X440041Y9350D01*
X440119Y9941D01*
X431141D01*
X431219Y9350D01*
X431675Y8248D01*
X431854Y8015D01*
X431466Y7227D01*
X405709Y7227D01*
Y9547D01*
Y17028D01*
X398825D01*
X398277Y17672D01*
X398487Y18065D01*
X398830Y19197D01*
X398888Y19783D01*
X386939D01*
X386996Y19197D01*
X387340Y18065D01*
X387897Y17022D01*
X388647Y16108D01*
X389086Y15748D01*
X388760Y14997D01*
X387992Y15098D01*
X386810Y14942D01*
X386309Y14735D01*
X374568Y26476D01*
X374894Y27264D01*
X382331D01*
X382746Y26643D01*
D02*
G37*
%LPC*%
G36*
X48754Y346811D02*
X42677D01*
Y340735D01*
X43399Y340806D01*
X44660Y341188D01*
X45823Y341810D01*
X46842Y342646D01*
X47679Y343665D01*
X48300Y344828D01*
X48683Y346090D01*
X48754Y346811D01*
D02*
G37*
G36*
X41496D02*
X35419D01*
X35491Y346090D01*
X35873Y344828D01*
X36495Y343665D01*
X37331Y342646D01*
X38350Y341810D01*
X39513Y341188D01*
X40775Y340806D01*
X41496Y340735D01*
Y346811D01*
D02*
G37*
G36*
X28754D02*
X22677D01*
Y340735D01*
X23399Y340806D01*
X24660Y341188D01*
X25823Y341810D01*
X26842Y342646D01*
X27678Y343665D01*
X28300Y344828D01*
X28683Y346090D01*
X28754Y346811D01*
D02*
G37*
G36*
X21496D02*
X15419D01*
X15491Y346090D01*
X15873Y344828D01*
X16495Y343665D01*
X17331Y342646D01*
X18350Y341810D01*
X19513Y341188D01*
X20775Y340806D01*
X21496Y340735D01*
Y346811D01*
D02*
G37*
G36*
X42677Y334069D02*
Y327992D01*
X48754D01*
X48683Y328714D01*
X48300Y329975D01*
X47679Y331138D01*
X46842Y332157D01*
X45823Y332993D01*
X44660Y333615D01*
X43399Y333998D01*
X42677Y334069D01*
D02*
G37*
G36*
X21496D02*
X20775Y333998D01*
X19513Y333615D01*
X18350Y332993D01*
X17331Y332157D01*
X16495Y331138D01*
X15873Y329975D01*
X15491Y328714D01*
X15419Y327992D01*
X21496D01*
Y334069D01*
D02*
G37*
G36*
X48754Y326811D02*
X42677D01*
Y320735D01*
X43399Y320806D01*
X44660Y321188D01*
X45823Y321810D01*
X46842Y322646D01*
X47679Y323665D01*
X48300Y324828D01*
X48683Y326090D01*
X48754Y326811D01*
D02*
G37*
G36*
X21496D02*
X15419D01*
X15491Y326090D01*
X15873Y324828D01*
X16495Y323665D01*
X17331Y322646D01*
X18350Y321810D01*
X19513Y321188D01*
X20775Y320806D01*
X21496Y320735D01*
Y326811D01*
D02*
G37*
G36*
X17323Y293898D02*
X14173D01*
Y290945D01*
X17323D01*
Y293898D01*
D02*
G37*
G36*
X539173Y345001D02*
X537552Y344841D01*
X535994Y344368D01*
X534558Y343601D01*
X533299Y342567D01*
X532266Y341308D01*
X531498Y339872D01*
X531025Y338314D01*
X530865Y336693D01*
X531025Y335072D01*
X531498Y333514D01*
X532266Y332077D01*
X533299Y330819D01*
X534558Y329785D01*
X535994Y329018D01*
X537552Y328545D01*
X539173Y328385D01*
X540794Y328545D01*
X542352Y329018D01*
X543789Y329785D01*
X545048Y330819D01*
X546081Y332077D01*
X546849Y333514D01*
X547321Y335072D01*
X547481Y336693D01*
X547321Y338314D01*
X546849Y339872D01*
X546081Y341308D01*
X545048Y342567D01*
X543789Y343601D01*
X542352Y344368D01*
X540794Y344841D01*
X539173Y345001D01*
D02*
G37*
G36*
X385630D02*
X384009Y344841D01*
X382451Y344368D01*
X381014Y343601D01*
X379755Y342567D01*
X378722Y341308D01*
X377955Y339872D01*
X377482Y338314D01*
X377322Y336693D01*
X377482Y335072D01*
X377955Y333514D01*
X378722Y332077D01*
X379755Y330819D01*
X381014Y329785D01*
X382451Y329018D01*
X384009Y328545D01*
X385630Y328385D01*
X387251Y328545D01*
X388809Y329018D01*
X390246Y329785D01*
X391504Y330819D01*
X392538Y332077D01*
X393305Y333514D01*
X393778Y335072D01*
X393938Y336693D01*
X393778Y338314D01*
X393305Y339872D01*
X392538Y341308D01*
X391504Y342567D01*
X390246Y343601D01*
X388809Y344368D01*
X387251Y344841D01*
X385630Y345001D01*
D02*
G37*
G36*
X625827Y323357D02*
X624592Y323236D01*
X623405Y322875D01*
X622865Y322587D01*
X614173D01*
X612734Y322397D01*
X611393Y321842D01*
X610242Y320959D01*
X593215Y303931D01*
X592331Y302780D01*
X591776Y301439D01*
X591586Y300000D01*
Y291240D01*
X591776Y289801D01*
X592331Y288460D01*
X593215Y287309D01*
X594366Y286425D01*
X595707Y285870D01*
X597146Y285681D01*
X598585Y285870D01*
X599925Y286425D01*
X601077Y287309D01*
X601960Y288460D01*
X602516Y289801D01*
X602705Y291240D01*
Y297697D01*
X616476Y311468D01*
X622865D01*
X623405Y311180D01*
X624592Y310820D01*
X625827Y310698D01*
X627062Y310820D01*
X628249Y311180D01*
X629343Y311765D01*
X630302Y312552D01*
X631090Y313511D01*
X631675Y314605D01*
X632035Y315793D01*
X632156Y317028D01*
X632035Y318262D01*
X631675Y319450D01*
X631090Y320544D01*
X630302Y321503D01*
X629343Y322290D01*
X628249Y322875D01*
X627062Y323236D01*
X625827Y323357D01*
D02*
G37*
G36*
X595039D02*
X593805Y323236D01*
X592617Y322875D01*
X591523Y322290D01*
X590564Y321503D01*
X589776Y320544D01*
X589191Y319450D01*
X588831Y318262D01*
X588710Y317028D01*
X588831Y315793D01*
X589191Y314605D01*
X589776Y313511D01*
X590564Y312552D01*
X591523Y311765D01*
X592617Y311180D01*
X593805Y310820D01*
X595039Y310698D01*
X596274Y310820D01*
X597462Y311180D01*
X598556Y311765D01*
X599515Y312552D01*
X600302Y313511D01*
X600887Y314605D01*
X601247Y315793D01*
X601369Y317028D01*
X601247Y318262D01*
X600887Y319450D01*
X600302Y320544D01*
X599515Y321503D01*
X598556Y322290D01*
X597462Y322875D01*
X596274Y323236D01*
X595039Y323357D01*
D02*
G37*
G36*
X575039D02*
X573805Y323236D01*
X572617Y322875D01*
X571523Y322290D01*
X570564Y321503D01*
X569776Y320544D01*
X569192Y319450D01*
X568831Y318262D01*
X568710Y317028D01*
X568831Y315793D01*
X569192Y314605D01*
X569776Y313511D01*
X570564Y312552D01*
X571523Y311765D01*
X572617Y311180D01*
X573805Y310820D01*
X575039Y310698D01*
X576274Y310820D01*
X577462Y311180D01*
X578556Y311765D01*
X579515Y312552D01*
X580302Y313511D01*
X580887Y314605D01*
X581247Y315793D01*
X581369Y317028D01*
X581247Y318262D01*
X580887Y319450D01*
X580302Y320544D01*
X579515Y321503D01*
X578556Y322290D01*
X577462Y322875D01*
X576274Y323236D01*
X575039Y323357D01*
D02*
G37*
G36*
X547638Y315846D02*
X538583D01*
Y306791D01*
X547638D01*
Y315846D01*
D02*
G37*
G36*
X666929Y315551D02*
X662205D01*
X657480D01*
Y311713D01*
X657480Y311024D01*
X657480Y310236D01*
Y306398D01*
X662205D01*
X666929D01*
Y310236D01*
X666929Y310925D01*
X666929Y311713D01*
Y315551D01*
D02*
G37*
G36*
X469095Y312644D02*
X467953Y312532D01*
X466855Y312199D01*
X465843Y311658D01*
X464956Y310930D01*
X464228Y310043D01*
X463687Y309031D01*
X463354Y307933D01*
X463241Y306791D01*
X463354Y305649D01*
X463687Y304552D01*
X464228Y303540D01*
X464956Y302653D01*
X465843Y301925D01*
X466855Y301384D01*
X467953Y301051D01*
X469095Y300938D01*
X470236Y301051D01*
X471334Y301384D01*
X472346Y301925D01*
X473233Y302653D01*
X473961Y303540D01*
X474502Y304552D01*
X474835Y305649D01*
X474948Y306791D01*
X474835Y307933D01*
X474502Y309031D01*
X473961Y310043D01*
X473233Y310930D01*
X472346Y311658D01*
X471334Y312199D01*
X470236Y312532D01*
X469095Y312644D01*
D02*
G37*
G36*
X455709D02*
X454567Y312532D01*
X453469Y312199D01*
X452457Y311658D01*
X451570Y310930D01*
X450842Y310043D01*
X450301Y309031D01*
X449968Y307933D01*
X449856Y306791D01*
X449968Y305649D01*
X450301Y304552D01*
X450842Y303540D01*
X451570Y302653D01*
X452457Y301925D01*
X453469Y301384D01*
X454567Y301051D01*
X455709Y300938D01*
X456851Y301051D01*
X457948Y301384D01*
X458960Y301925D01*
X459847Y302653D01*
X460575Y303540D01*
X461116Y304552D01*
X461449Y305649D01*
X461562Y306791D01*
X461449Y307933D01*
X461116Y309031D01*
X460575Y310043D01*
X459847Y310930D01*
X458960Y311658D01*
X457948Y312199D01*
X456851Y312532D01*
X455709Y312644D01*
D02*
G37*
G36*
X673228Y351217D02*
X671065Y351075D01*
X668939Y350652D01*
X666887Y349955D01*
X664943Y348996D01*
X663141Y347792D01*
X661511Y346363D01*
X660082Y344733D01*
X658878Y342931D01*
X657919Y340987D01*
X657222Y338934D01*
X656799Y336809D01*
X656657Y334646D01*
X656799Y332483D01*
X657222Y330357D01*
X657919Y328304D01*
X658878Y326360D01*
X660082Y324558D01*
X661511Y322928D01*
X662516Y322047D01*
X662219Y321260D01*
X657480D01*
Y316732D01*
X662205D01*
X666929D01*
Y318646D01*
X667569Y319105D01*
X668463Y318801D01*
Y306004D01*
X668477Y305899D01*
X668465Y305807D01*
X668504Y305510D01*
Y300689D01*
X677953D01*
Y305694D01*
X677993Y306004D01*
Y318801D01*
X679570Y319336D01*
X681514Y320295D01*
X683316Y321499D01*
X684946Y322928D01*
X686375Y324558D01*
X687579Y326360D01*
X688538Y328304D01*
X689235Y330357D01*
X689657Y332483D01*
X689799Y334646D01*
X689657Y336809D01*
X689235Y338934D01*
X688538Y340987D01*
X687579Y342931D01*
X686375Y344733D01*
X684946Y346363D01*
X683316Y347792D01*
X681514Y348996D01*
X679570Y349955D01*
X677517Y350652D01*
X675391Y351075D01*
X673228Y351217D01*
D02*
G37*
G36*
X666929Y305217D02*
X662795D01*
Y300689D01*
X666929D01*
Y305217D01*
D02*
G37*
G36*
X661614D02*
X657480D01*
Y300689D01*
X661614D01*
Y305217D01*
D02*
G37*
G36*
X368799Y302911D02*
Y299410D01*
X372300D01*
X372236Y299898D01*
X371820Y300904D01*
X371157Y301767D01*
X370293Y302430D01*
X369288Y302846D01*
X368799Y302911D01*
D02*
G37*
G36*
X367618Y302911D02*
X367129Y302846D01*
X366124Y302430D01*
X365260Y301767D01*
X364598Y300904D01*
X364181Y299898D01*
X364117Y299410D01*
X367618D01*
Y302911D01*
D02*
G37*
G36*
X496850Y306004D02*
X487795D01*
Y296949D01*
X496850D01*
Y306004D01*
D02*
G37*
G36*
X512008Y306043D02*
X510826Y305887D01*
X509725Y305431D01*
X508779Y304706D01*
X508053Y303760D01*
X507597Y302658D01*
X507441Y301476D01*
X507597Y300294D01*
X508053Y299193D01*
X508779Y298247D01*
X509725Y297522D01*
X510826Y297065D01*
X512008Y296910D01*
X513190Y297065D01*
X514291Y297522D01*
X515237Y298247D01*
X515963Y299193D01*
X516419Y300294D01*
X516574Y301476D01*
X516419Y302658D01*
X515963Y303760D01*
X515237Y304706D01*
X514291Y305431D01*
X513190Y305887D01*
X512008Y306043D01*
D02*
G37*
G36*
X645827Y323357D02*
X644592Y323236D01*
X643404Y322875D01*
X642310Y322290D01*
X641351Y321503D01*
X640564Y320544D01*
X639979Y319450D01*
X639801Y318864D01*
X627776Y306839D01*
X624508D01*
X624147Y306791D01*
X615256D01*
Y294587D01*
X636516D01*
Y299854D01*
X647663Y311002D01*
X648249Y311180D01*
X649343Y311765D01*
X650303Y312552D01*
X651090Y313511D01*
X651675Y314605D01*
X652035Y315793D01*
X652156Y317028D01*
X652035Y318262D01*
X651675Y319450D01*
X651090Y320544D01*
X650303Y321503D01*
X649343Y322290D01*
X648249Y322875D01*
X647062Y323236D01*
X645827Y323357D01*
D02*
G37*
G36*
X578051Y296424D02*
Y291831D01*
X582645D01*
X582543Y292602D01*
X582017Y293871D01*
X581181Y294960D01*
X580091Y295797D01*
X578823Y296322D01*
X578051Y296424D01*
D02*
G37*
G36*
X576870Y296424D02*
X576099Y296322D01*
X574830Y295797D01*
X573740Y294960D01*
X572904Y293871D01*
X572378Y292602D01*
X572277Y291831D01*
X576870D01*
Y296424D01*
D02*
G37*
G36*
X651673Y296161D02*
X646358D01*
Y288976D01*
X651673D01*
Y296161D01*
D02*
G37*
G36*
X645177D02*
X639862D01*
Y288976D01*
X645177D01*
Y296161D01*
D02*
G37*
G36*
X475787Y297644D02*
X474646Y297532D01*
X473548Y297199D01*
X472536Y296658D01*
X471649Y295930D01*
X470921Y295043D01*
X470380Y294031D01*
X470047Y292933D01*
X469935Y291791D01*
X470047Y290650D01*
X470347Y289660D01*
X470175Y289245D01*
X470056Y288338D01*
X469839Y288225D01*
X469259Y288136D01*
X468951Y288538D01*
X467839Y289650D01*
X468142Y290650D01*
X468255Y291791D01*
X468142Y292933D01*
X467809Y294031D01*
X467268Y295043D01*
X466540Y295930D01*
X465653Y296658D01*
X464641Y297199D01*
X463544Y297532D01*
X462402Y297644D01*
X461260Y297532D01*
X460162Y297199D01*
X459150Y296658D01*
X458263Y295930D01*
X457535Y295043D01*
X456994Y294031D01*
X456661Y292933D01*
X456549Y291791D01*
X456661Y290650D01*
X456918Y289801D01*
X455557Y288439D01*
X455147Y287905D01*
X454995Y287540D01*
X454263Y287829D01*
Y288883D01*
X454224Y289179D01*
X454423Y289551D01*
X454756Y290650D01*
X454869Y291791D01*
X454756Y292933D01*
X454423Y294031D01*
X453882Y295043D01*
X453154Y295930D01*
X452268Y296658D01*
X451256Y297199D01*
X450158Y297532D01*
X449016Y297644D01*
X447874Y297532D01*
X446776Y297199D01*
X445764Y296658D01*
X444877Y295930D01*
X444149Y295043D01*
X443608Y294031D01*
X443275Y292933D01*
X443163Y291791D01*
X443275Y290650D01*
X443608Y289551D01*
X444149Y288540D01*
X444877Y287653D01*
X445764Y286925D01*
X446776Y286384D01*
X447115Y286281D01*
Y285236D01*
X446949D01*
Y278150D01*
X446713Y277894D01*
X446713D01*
Y268957D01*
X448711D01*
X449311Y268504D01*
Y257480D01*
X461122D01*
Y261066D01*
X461129Y261083D01*
X461251Y262008D01*
X461212Y262303D01*
X461251Y262598D01*
X461129Y263523D01*
X461122Y263541D01*
Y268504D01*
X461358Y268957D01*
X461358D01*
Y277894D01*
X461358D01*
X461122Y278150D01*
Y279210D01*
X463386D01*
Y278150D01*
X462953Y278091D01*
Y269153D01*
X462960D01*
Y267815D01*
X463088Y266839D01*
X463177Y266625D01*
X463306Y265649D01*
X463762Y264547D01*
X464487Y263602D01*
X469212Y258877D01*
X470158Y258152D01*
X471259Y257695D01*
X472441Y257540D01*
X485805D01*
X487855Y255490D01*
Y247342D01*
Y244980D01*
X487894Y244684D01*
Y242815D01*
X488418D01*
X488467Y242697D01*
X489192Y241751D01*
X490472Y240472D01*
X490472Y240472D01*
X491418Y239746D01*
X492519Y239290D01*
X493701Y239134D01*
X553111D01*
Y222146D01*
X553266Y220964D01*
X553722Y219862D01*
X554448Y218917D01*
X564094Y209271D01*
X565039Y208545D01*
X566141Y208089D01*
X567323Y207933D01*
X573032D01*
Y206594D01*
X588583D01*
Y210800D01*
X593012D01*
Y209154D01*
X593504Y208858D01*
Y201378D01*
Y198657D01*
X593473Y198425D01*
Y198422D01*
X593504Y198189D01*
Y194685D01*
X600591D01*
Y194685D01*
X600787D01*
Y194685D01*
X607874D01*
X608071Y193979D01*
Y192308D01*
X615945D01*
X623819D01*
Y194737D01*
Y201437D01*
Y208799D01*
X623425D01*
Y215158D01*
X623327D01*
Y217913D01*
X619587D01*
Y218504D01*
X618996D01*
Y222047D01*
X609154D01*
Y218833D01*
X608760Y218209D01*
X605217D01*
Y213681D01*
X604036D01*
Y218209D01*
X593012D01*
Y217153D01*
X588583D01*
Y218406D01*
X573032D01*
Y217067D01*
X569214D01*
X562244Y224037D01*
Y241142D01*
X562088Y242324D01*
X561632Y243425D01*
X560906Y244371D01*
X558347Y246930D01*
X557401Y247656D01*
X556300Y248112D01*
X555118Y248267D01*
X496988D01*
Y257382D01*
X496832Y258564D01*
X496376Y259665D01*
X495650Y260611D01*
X490926Y265335D01*
X489980Y266061D01*
X488879Y266517D01*
X487697Y266673D01*
X474333D01*
X472579Y268426D01*
X472881Y269153D01*
X477598D01*
Y278091D01*
X477572D01*
Y281740D01*
X477591Y281890D01*
Y286252D01*
X478027Y286384D01*
X479039Y286925D01*
X479926Y287653D01*
X480654Y288540D01*
X481195Y289551D01*
X481528Y290650D01*
X481640Y291791D01*
X481528Y292933D01*
X481195Y294031D01*
X480654Y295043D01*
X479926Y295930D01*
X479039Y296658D01*
X478027Y297199D01*
X476929Y297532D01*
X475787Y297644D01*
D02*
G37*
G36*
X543110Y296200D02*
X541928Y296045D01*
X540827Y295589D01*
X539881Y294863D01*
X539155Y293917D01*
X538699Y292816D01*
X538544Y291634D01*
X538699Y290452D01*
X539155Y289351D01*
X539881Y288405D01*
X540827Y287679D01*
X541928Y287223D01*
X543110Y287067D01*
X544292Y287223D01*
X545394Y287679D01*
X546339Y288405D01*
X547065Y289351D01*
X547521Y290452D01*
X547677Y291634D01*
X547521Y292816D01*
X547065Y293917D01*
X546339Y294863D01*
X545394Y295589D01*
X544292Y296045D01*
X543110Y296200D01*
D02*
G37*
G36*
X582645Y290650D02*
X578051D01*
Y286056D01*
X578823Y286158D01*
X580091Y286683D01*
X581181Y287520D01*
X582017Y288609D01*
X582543Y289878D01*
X582645Y290650D01*
D02*
G37*
G36*
X576870D02*
X572277D01*
X572378Y289878D01*
X572904Y288609D01*
X573740Y287520D01*
X574830Y286683D01*
X576099Y286158D01*
X576870Y286056D01*
Y290650D01*
D02*
G37*
G36*
X587894Y286581D02*
Y281988D01*
X592487D01*
X592385Y282759D01*
X591860Y284028D01*
X591024Y285118D01*
X589934Y285954D01*
X588665Y286480D01*
X587894Y286581D01*
D02*
G37*
G36*
X586713Y286581D02*
X585941Y286480D01*
X584672Y285954D01*
X583583Y285118D01*
X582747Y284028D01*
X582221Y282759D01*
X582119Y281988D01*
X586713D01*
Y286581D01*
D02*
G37*
G36*
X298622Y285391D02*
Y281890D01*
X302123D01*
X302059Y282378D01*
X301642Y283384D01*
X300980Y284247D01*
X300116Y284910D01*
X299111Y285327D01*
X298622Y285391D01*
D02*
G37*
G36*
X297441D02*
X296952Y285327D01*
X295947Y284910D01*
X295083Y284247D01*
X294421Y283384D01*
X294004Y282378D01*
X293940Y281890D01*
X297441D01*
Y285391D01*
D02*
G37*
G36*
X371752Y284252D02*
X368799D01*
Y281102D01*
X371752D01*
Y284252D01*
D02*
G37*
G36*
X651673Y287795D02*
X646358D01*
Y280610D01*
X651673D01*
Y287795D01*
D02*
G37*
G36*
X645177D02*
X639862D01*
Y280610D01*
X645177D01*
Y287795D01*
D02*
G37*
G36*
X302123Y280709D02*
X298622D01*
Y277207D01*
X299111Y277272D01*
X300116Y277688D01*
X300980Y278351D01*
X301642Y279215D01*
X302059Y280220D01*
X302123Y280709D01*
D02*
G37*
G36*
X297441D02*
X293940D01*
X294004Y280220D01*
X294421Y279215D01*
X295083Y278351D01*
X295947Y277688D01*
X296952Y277272D01*
X297441Y277207D01*
Y280709D01*
D02*
G37*
G36*
X592487Y280807D02*
X587894D01*
Y276214D01*
X588665Y276315D01*
X589934Y276841D01*
X591024Y277677D01*
X591860Y278767D01*
X592385Y280036D01*
X592487Y280807D01*
D02*
G37*
G36*
X586713D02*
X582119D01*
X582221Y280036D01*
X582747Y278767D01*
X583583Y277677D01*
X584672Y276841D01*
X585941Y276315D01*
X586713Y276214D01*
Y280807D01*
D02*
G37*
G36*
X438386Y281988D02*
X429330D01*
Y272933D01*
X438386D01*
Y281988D01*
D02*
G37*
G36*
X420079Y282027D02*
X418897Y281872D01*
X417795Y281415D01*
X416850Y280690D01*
X416124Y279744D01*
X415667Y278643D01*
X415512Y277461D01*
X415667Y276279D01*
X416124Y275177D01*
X416850Y274232D01*
X417795Y273506D01*
X418897Y273049D01*
X420079Y272894D01*
X421260Y273049D01*
X422362Y273506D01*
X423308Y274232D01*
X424033Y275177D01*
X424490Y276279D01*
X424645Y277461D01*
X424490Y278643D01*
X424033Y279744D01*
X423308Y280690D01*
X422362Y281415D01*
X421260Y281872D01*
X420079Y282027D01*
D02*
G37*
G36*
X339370Y266831D02*
X336221D01*
Y263878D01*
X339370D01*
Y266831D01*
D02*
G37*
G36*
X587894Y266896D02*
Y262303D01*
X592487D01*
X592385Y263074D01*
X591860Y264343D01*
X591024Y265433D01*
X589934Y266269D01*
X588665Y266795D01*
X587894Y266896D01*
D02*
G37*
G36*
X374409Y264370D02*
X371457D01*
Y261221D01*
X374409D01*
Y264370D01*
D02*
G37*
G36*
X605217Y277114D02*
X597146D01*
X595707Y276925D01*
X595336Y276771D01*
X591929D01*
Y273364D01*
X591776Y272994D01*
X591586Y271555D01*
X591776Y270116D01*
X591929Y269746D01*
Y266338D01*
X595336D01*
X595707Y266185D01*
X597146Y265996D01*
X602914D01*
X605616Y263293D01*
X606768Y262410D01*
X608108Y261855D01*
X609547Y261665D01*
X615256D01*
Y261122D01*
X636516D01*
Y273327D01*
X615256D01*
Y272784D01*
X611850D01*
X609148Y275486D01*
X607996Y276370D01*
X606656Y276925D01*
X605217Y277114D01*
D02*
G37*
G36*
X339370Y262697D02*
X336221D01*
Y259744D01*
X339370D01*
Y262697D01*
D02*
G37*
G36*
X592487Y261122D02*
X587894D01*
Y256529D01*
X588665Y256630D01*
X589934Y257156D01*
X591024Y257992D01*
X591860Y259082D01*
X592385Y260351D01*
X592487Y261122D01*
D02*
G37*
G36*
X577461Y277114D02*
X576022Y276925D01*
X574681Y276370D01*
X573530Y275486D01*
X572644Y274600D01*
X571760Y273449D01*
X571205Y272108D01*
X571015Y270669D01*
Y250492D01*
X567126D01*
Y224114D01*
X586024D01*
Y250492D01*
X582134D01*
Y258587D01*
X582922Y258854D01*
X583583Y257992D01*
X584672Y257156D01*
X585941Y256630D01*
X586713Y256529D01*
Y261712D01*
Y266896D01*
X585941Y266795D01*
X584672Y266269D01*
X583583Y265433D01*
X582922Y264571D01*
X582134Y264838D01*
Y268591D01*
X582275Y268775D01*
X582831Y270116D01*
X583020Y271555D01*
X582831Y272994D01*
X582275Y274335D01*
X581392Y275486D01*
X580240Y276370D01*
X578900Y276925D01*
X577461Y277114D01*
D02*
G37*
G36*
X461122Y256693D02*
X449311D01*
Y254460D01*
X440623D01*
X440348Y254817D01*
X439197Y255700D01*
X437856Y256256D01*
X436417Y256445D01*
X434978Y256256D01*
X433638Y255700D01*
X432486Y254817D01*
X432212Y254460D01*
X428136D01*
X427504Y254721D01*
X426476Y254857D01*
X425449Y254721D01*
X424491Y254325D01*
X423668Y253694D01*
X423037Y252871D01*
X422641Y251914D01*
X422505Y250886D01*
X422641Y249858D01*
X423037Y248900D01*
X423668Y248078D01*
X424491Y247447D01*
X425449Y247050D01*
X426476Y246915D01*
X427504Y247050D01*
X428136Y247312D01*
X432212D01*
X432486Y246955D01*
X433638Y246071D01*
X434978Y245516D01*
X436417Y245326D01*
X437856Y245516D01*
X439197Y246071D01*
X440348Y246955D01*
X440623Y247312D01*
X449311D01*
Y245669D01*
X461122D01*
Y250632D01*
X461129Y250650D01*
X461251Y251575D01*
X461129Y252500D01*
X461122Y252517D01*
Y256693D01*
D02*
G37*
G36*
X549016Y272933D02*
X518307D01*
Y267559D01*
X511417D01*
X510235Y267403D01*
X509134Y266947D01*
X508188Y266221D01*
X507463Y265275D01*
X507006Y264174D01*
X506851Y262992D01*
X507006Y261810D01*
X507463Y260709D01*
X508188Y259763D01*
X509134Y259037D01*
X510235Y258581D01*
X511417Y258425D01*
X518307D01*
Y254035D01*
X549016D01*
Y272933D01*
D02*
G37*
G36*
X473327Y251831D02*
Y247933D01*
X477225D01*
X477147Y248524D01*
X476691Y249626D01*
X475965Y250572D01*
X475020Y251297D01*
X473918Y251753D01*
X473327Y251831D01*
D02*
G37*
G36*
X472146D02*
X471554Y251753D01*
X470453Y251297D01*
X469507Y250572D01*
X468781Y249626D01*
X468325Y248524D01*
X468247Y247933D01*
X472146D01*
Y251831D01*
D02*
G37*
G36*
X477225Y246752D02*
X473327D01*
Y242854D01*
X473918Y242932D01*
X475020Y243388D01*
X475965Y244113D01*
X476691Y245059D01*
X477147Y246161D01*
X477225Y246752D01*
D02*
G37*
G36*
X472146D02*
X468247D01*
X468325Y246161D01*
X468781Y245059D01*
X469507Y244113D01*
X470453Y243388D01*
X471554Y242932D01*
X472146Y242854D01*
Y246752D01*
D02*
G37*
G36*
X236221Y270123D02*
X233996Y269948D01*
X231827Y269427D01*
X229766Y268573D01*
X227864Y267407D01*
X226167Y265958D01*
X224719Y264262D01*
X223553Y262360D01*
X222699Y260299D01*
X222179Y258130D01*
X222003Y255906D01*
X222179Y253681D01*
X222699Y251512D01*
X223553Y249451D01*
X224719Y247549D01*
X226167Y245852D01*
X227864Y244404D01*
X229766Y243238D01*
X231827Y242384D01*
X233996Y241863D01*
X236221Y241688D01*
X238444Y241863D01*
X240614Y242384D01*
X242675Y243238D01*
X244577Y244404D01*
X246273Y245852D01*
X247722Y247549D01*
X248888Y249451D01*
X249742Y251512D01*
X250262Y253681D01*
X250437Y255906D01*
X250262Y258130D01*
X249742Y260299D01*
X248888Y262360D01*
X247722Y264262D01*
X246273Y265958D01*
X244577Y267407D01*
X242675Y268573D01*
X240614Y269427D01*
X238444Y269948D01*
X236221Y270123D01*
D02*
G37*
G36*
X679232Y296161D02*
X667421D01*
Y280610D01*
X667866D01*
Y270472D01*
X667618D01*
Y267519D01*
X662067D01*
Y257283D01*
X667618D01*
Y254811D01*
X653800Y240992D01*
X630610D01*
X629171Y240803D01*
X627831Y240248D01*
X626679Y239364D01*
X625796Y238213D01*
X625240Y236872D01*
X625051Y235433D01*
X625240Y233994D01*
X625796Y232653D01*
X626679Y231502D01*
X627831Y230619D01*
X629171Y230063D01*
X630610Y229874D01*
X632480D01*
X632480Y192717D01*
X634449Y192717D01*
X634449Y229331D01*
X662303Y229331D01*
D01*
X662303Y231299D01*
X660944D01*
X660618Y232087D01*
X677455Y248923D01*
X677455Y248923D01*
X678338Y250075D01*
X678894Y251415D01*
X679083Y252854D01*
Y254331D01*
X679429D01*
Y270472D01*
X678984D01*
Y280610D01*
X679232D01*
Y296161D01*
D02*
G37*
G36*
X326476Y254429D02*
X302658Y254429D01*
Y252559D01*
X324606Y252559D01*
X324606Y228346D01*
X326476Y228346D01*
X326476Y254429D01*
D02*
G37*
G36*
X300295D02*
X276476D01*
X276476Y228346D01*
X278346D01*
X278346Y252559D01*
X300295Y252559D01*
Y252559D01*
Y254429D01*
D02*
G37*
G36*
X355118Y230709D02*
X352165D01*
Y227559D01*
X355118D01*
Y230709D01*
D02*
G37*
G36*
X650295Y270472D02*
X638484D01*
Y256147D01*
X618405D01*
X617069Y255971D01*
X615824Y255455D01*
X614755Y254634D01*
X610613Y250492D01*
X603346D01*
Y224114D01*
X622244D01*
Y245822D01*
X642224D01*
X643561Y245998D01*
X644805Y246514D01*
X645875Y247334D01*
X648237Y249696D01*
X649057Y250765D01*
X649573Y252010D01*
X649749Y253346D01*
Y254331D01*
X650295D01*
Y257283D01*
X655768D01*
Y267519D01*
X650295D01*
Y270472D01*
D02*
G37*
G36*
X623327Y222047D02*
X620177D01*
Y219094D01*
X623327D01*
Y222047D01*
D02*
G37*
G36*
X485925Y221808D02*
Y218307D01*
X489426D01*
X489362Y218796D01*
X488946Y219801D01*
X488283Y220665D01*
X487419Y221327D01*
X486414Y221744D01*
X485925Y221808D01*
D02*
G37*
G36*
X484744Y221808D02*
X484256Y221744D01*
X483250Y221327D01*
X482386Y220665D01*
X481724Y219801D01*
X481307Y218796D01*
X481243Y218307D01*
X484744D01*
Y221808D01*
D02*
G37*
G36*
X489426Y217126D02*
X485925D01*
Y213625D01*
X486414Y213689D01*
X487419Y214106D01*
X488283Y214768D01*
X488946Y215632D01*
X489362Y216637D01*
X489426Y217126D01*
D02*
G37*
G36*
X484744D02*
X481243D01*
X481307Y216637D01*
X481724Y215632D01*
X482386Y214768D01*
X483250Y214106D01*
X484256Y213689D01*
X484744Y213625D01*
Y217126D01*
D02*
G37*
G36*
X245965Y212914D02*
X236713D01*
Y206811D01*
X245965D01*
Y212914D01*
D02*
G37*
G36*
X235531D02*
X226279D01*
Y206811D01*
X235531D01*
Y212914D01*
D02*
G37*
G36*
X219980D02*
X210728D01*
Y206811D01*
X219980D01*
Y212914D01*
D02*
G37*
G36*
X254331Y209016D02*
X250945D01*
Y206240D01*
X254331D01*
Y209016D01*
D02*
G37*
G36*
X278346Y225984D02*
X276476D01*
Y199902D01*
X300295Y199902D01*
X300295Y201772D01*
X278346Y201772D01*
Y225984D01*
D02*
G37*
G36*
X324606Y225984D02*
Y201772D01*
X302658D01*
Y199902D01*
X326476D01*
X326476Y225984D01*
X324606Y225984D01*
D02*
G37*
G36*
X235531Y205630D02*
X226279D01*
Y199528D01*
X235531D01*
Y205630D01*
D02*
G37*
G36*
X219980Y205630D02*
X210728D01*
Y199528D01*
X219980D01*
Y205630D01*
D02*
G37*
G36*
X209547D02*
X200295D01*
Y199528D01*
X209547D01*
Y205630D01*
D02*
G37*
G36*
X274409Y202165D02*
X271260D01*
Y199213D01*
X274409D01*
Y202165D01*
D02*
G37*
G36*
X486516Y197146D02*
X479331D01*
Y191831D01*
X486516D01*
Y197146D01*
D02*
G37*
G36*
X478150D02*
X470965D01*
Y191831D01*
X478150D01*
Y197146D01*
D02*
G37*
G36*
X486516Y190650D02*
X479331D01*
Y185335D01*
X486516D01*
Y190650D01*
D02*
G37*
G36*
X478150D02*
X470965D01*
Y185335D01*
X478150D01*
Y190650D01*
D02*
G37*
G36*
X443307Y173721D02*
X440354D01*
Y170571D01*
X443307D01*
Y173721D01*
D02*
G37*
G36*
X439173D02*
X436221D01*
Y170571D01*
X439173D01*
Y173721D01*
D02*
G37*
G36*
X429289Y172736D02*
X425787D01*
Y169235D01*
X426276Y169299D01*
X427282Y169716D01*
X428145Y170378D01*
X428808Y171242D01*
X429224Y172248D01*
X429289Y172736D01*
D02*
G37*
G36*
X424606D02*
X421105D01*
X421169Y172248D01*
X421586Y171242D01*
X422249Y170378D01*
X423112Y169716D01*
X424118Y169299D01*
X424606Y169235D01*
Y172736D01*
D02*
G37*
G36*
X618406Y169783D02*
X615256D01*
Y166831D01*
X618406D01*
Y169783D01*
D02*
G37*
G36*
X314075Y163091D02*
X310925D01*
Y160138D01*
X314075D01*
Y163091D01*
D02*
G37*
G36*
X334547Y163091D02*
X331398D01*
Y160138D01*
X334547D01*
Y163091D01*
D02*
G37*
G36*
X459754Y168430D02*
X448120D01*
X447248Y168256D01*
X446964Y168066D01*
X439291D01*
X438238Y167928D01*
X437256Y167521D01*
X436413Y166874D01*
X404405Y134866D01*
X403759Y134023D01*
X403352Y133042D01*
X403213Y131988D01*
Y120704D01*
X378543D01*
X377490Y120565D01*
X376508Y120159D01*
X375665Y119512D01*
X373494Y117341D01*
X372884Y117261D01*
X371646Y116748D01*
X370583Y115932D01*
X369768Y114869D01*
X369255Y113631D01*
X369080Y112303D01*
X369255Y110975D01*
X369768Y109737D01*
X370583Y108674D01*
X371646Y107858D01*
X372884Y107345D01*
X374213Y107171D01*
X375541Y107345D01*
X376779Y107858D01*
X377842Y108674D01*
X378658Y109737D01*
X379170Y110975D01*
X379251Y111585D01*
X380229Y112564D01*
X404229D01*
X404717Y112189D01*
X405955Y111676D01*
X407283Y111501D01*
X408612Y111676D01*
X409850Y112189D01*
X410913Y113005D01*
X411728Y114068D01*
X412241Y115305D01*
X412416Y116634D01*
X412241Y117962D01*
X411728Y119200D01*
X411354Y119688D01*
Y130302D01*
X440977Y159926D01*
X448075D01*
X448120Y159917D01*
X459754D01*
X460626Y160090D01*
X461365Y160584D01*
X461859Y161323D01*
X462032Y162195D01*
Y166152D01*
X461859Y167023D01*
X461365Y167762D01*
X460626Y168256D01*
X459754Y168430D01*
D02*
G37*
G36*
X174464Y163295D02*
X172237Y161067D01*
X174325Y158980D01*
X176552Y161207D01*
X174464Y163295D01*
D02*
G37*
G36*
X607382Y165945D02*
X602067D01*
Y158760D01*
X607382D01*
Y165945D01*
D02*
G37*
G36*
X600886D02*
X595571D01*
Y158760D01*
X600886D01*
Y165945D01*
D02*
G37*
G36*
X294882Y180152D02*
X293854Y180017D01*
X292896Y179620D01*
X292074Y178989D01*
X291443Y178167D01*
X291046Y177209D01*
X290911Y176181D01*
X291046Y175153D01*
X291443Y174196D01*
X292074Y173373D01*
X292896Y172742D01*
X293854Y172345D01*
X294882Y172210D01*
X295910Y172345D01*
X296796Y172713D01*
X297992Y171516D01*
X297992Y171516D01*
X298609Y171043D01*
X299328Y170745D01*
X300098Y170644D01*
X333904D01*
X338853Y165696D01*
Y163091D01*
X335728D01*
Y159547D01*
X335138D01*
Y158957D01*
X331398D01*
Y157013D01*
X330610Y156687D01*
X325981Y161316D01*
X325406Y161758D01*
X325098Y161885D01*
Y163091D01*
X315256D01*
Y159547D01*
X314665D01*
Y158957D01*
X310925D01*
Y156948D01*
X310138Y156422D01*
X309929Y156508D01*
X309055Y156623D01*
X308882Y156600D01*
X295290Y170192D01*
X294561Y170679D01*
X293701Y170850D01*
X198251D01*
X198075Y171275D01*
X197507Y172015D01*
X196767Y172583D01*
X195905Y172940D01*
X194980Y173062D01*
X194055Y172940D01*
X193193Y172583D01*
X192453Y172015D01*
X191885Y171275D01*
X191528Y170413D01*
X191436Y169711D01*
X190650Y169814D01*
X189725Y169692D01*
X188863Y169335D01*
X188122Y168767D01*
X187555Y168027D01*
X187197Y167165D01*
X187142Y166741D01*
X186836Y166200D01*
X186299Y166110D01*
X185827Y166172D01*
X184902Y166051D01*
X184040Y165693D01*
X183300Y165126D01*
X182732Y164385D01*
X182375Y163523D01*
X182308Y163013D01*
X182185Y162235D01*
X181260Y162113D01*
X180398Y161757D01*
X179658Y161188D01*
X179090Y160448D01*
X178733Y159586D01*
X178611Y158661D01*
X178733Y157736D01*
X179090Y156875D01*
X179658Y156134D01*
X180398Y155566D01*
X181260Y155209D01*
X182185Y155088D01*
X182336Y155107D01*
X182387Y155090D01*
X183003Y154401D01*
X182942Y153937D01*
X183064Y153012D01*
X183421Y152150D01*
X183989Y151410D01*
X184729Y150842D01*
X185591Y150485D01*
X186516Y150363D01*
X187213Y150455D01*
X190241Y147426D01*
X190971Y146939D01*
X191831Y146768D01*
X283616D01*
X301492Y128892D01*
Y109547D01*
X301476D01*
Y102067D01*
Y95374D01*
X308268D01*
Y93012D01*
X311811D01*
Y92421D01*
X312402D01*
Y88681D01*
X315354D01*
Y88740D01*
X318307D01*
Y91594D01*
Y94449D01*
X315354D01*
Y96299D01*
X322933D01*
Y101135D01*
X331890D01*
X332776Y101311D01*
X332915Y101321D01*
X333563Y100914D01*
Y97782D01*
X331988D01*
Y98228D01*
X323917D01*
Y92520D01*
X331988D01*
Y92966D01*
X333563D01*
Y90256D01*
X340650D01*
Y92966D01*
X352756D01*
X353678Y93149D01*
X354459Y93671D01*
X358002Y97214D01*
X358524Y97996D01*
X358708Y98917D01*
Y100201D01*
X359222Y100871D01*
X359559Y101686D01*
X359675Y102559D01*
X359559Y103433D01*
X359222Y104247D01*
X359198Y104278D01*
X359476Y105210D01*
X359965Y105586D01*
X360502Y106285D01*
X360839Y107099D01*
X360954Y107972D01*
X360839Y108846D01*
X360502Y109660D01*
X359965Y110359D01*
X359266Y110896D01*
X358452Y111233D01*
X357579Y111348D01*
X357498Y112122D01*
X357509Y112205D01*
X357394Y113078D01*
X357057Y113892D01*
X356521Y114592D01*
X355821Y115128D01*
X355008Y115465D01*
X354134Y115580D01*
X353260Y115465D01*
X352446Y115128D01*
X351776Y114613D01*
X344783D01*
Y116732D01*
Y121440D01*
X345571Y121596D01*
X345922Y120749D01*
X346616Y119844D01*
X347521Y119150D01*
X348574Y118714D01*
X349705Y118565D01*
X350835Y118714D01*
X351889Y119150D01*
X352793Y119844D01*
X353488Y120749D01*
X353924Y121802D01*
X354073Y122933D01*
X353924Y124064D01*
X353631Y124772D01*
X354318Y125169D01*
X354645Y124743D01*
X355591Y124018D01*
X356692Y123561D01*
X357874Y123406D01*
X359056Y123561D01*
X360157Y124018D01*
X361103Y124743D01*
X361829Y125689D01*
X362285Y126790D01*
X362441Y127972D01*
X362306Y128998D01*
X365876Y132569D01*
X366398Y133350D01*
X366582Y134272D01*
Y142421D01*
X366398Y143343D01*
X365876Y144124D01*
X365007Y144994D01*
X365308Y145721D01*
X369733D01*
X370015Y144934D01*
X369751Y144718D01*
X368966Y143762D01*
X368383Y142671D01*
X368024Y141487D01*
X367903Y140256D01*
X368024Y139025D01*
X368383Y137841D01*
X368966Y136750D01*
X369751Y135794D01*
X370707Y135009D01*
X371798Y134426D01*
X372982Y134067D01*
X374213Y133946D01*
X375444Y134067D01*
X376627Y134426D01*
X377718Y135009D01*
X378674Y135794D01*
X379459Y136750D01*
X380042Y137841D01*
X380401Y139025D01*
X380522Y140256D01*
X380401Y141487D01*
X380042Y142671D01*
X379459Y143762D01*
X378674Y144718D01*
X378411Y144934D01*
X378693Y145721D01*
X380133D01*
X380192Y145645D01*
X380891Y145108D01*
X381705Y144771D01*
X382579Y144656D01*
X383452Y144771D01*
X384266Y145108D01*
X384965Y145645D01*
X385502Y146344D01*
X385839Y147158D01*
X385954Y148031D01*
X385839Y148905D01*
X385502Y149719D01*
X384965Y150418D01*
X384266Y150955D01*
X383452Y151292D01*
X382579Y151407D01*
X381705Y151292D01*
X380891Y150955D01*
X380349Y150538D01*
X373502D01*
X372976Y151326D01*
X373044Y151489D01*
X373159Y152362D01*
X373044Y153236D01*
X372707Y154050D01*
X372170Y154749D01*
X371471Y155285D01*
X370657Y155622D01*
X369783Y155737D01*
X368910Y155622D01*
X368096Y155285D01*
X367397Y154749D01*
X366860Y154050D01*
X366523Y153236D01*
X366505Y153097D01*
X346708D01*
Y153720D01*
X346573Y154396D01*
X346190Y154969D01*
X345725Y155280D01*
X345618Y155782D01*
X345937Y156343D01*
X346061Y156362D01*
X346733Y156444D01*
X347619Y155764D01*
X348673Y155328D01*
X349803Y155179D01*
X350934Y155328D01*
X351987Y155764D01*
X352892Y156459D01*
X353586Y157363D01*
X354022Y158417D01*
X354171Y159547D01*
X354022Y160678D01*
X353586Y161731D01*
X352892Y162636D01*
X351987Y163330D01*
X350934Y163767D01*
X349803Y163915D01*
X348673Y163767D01*
X347619Y163330D01*
X346714Y162636D01*
X346630Y162525D01*
X345571D01*
Y163091D01*
X344809D01*
Y166929D01*
X344809Y166929D01*
X344758Y167315D01*
X344707Y167700D01*
X344410Y168418D01*
X343937Y169035D01*
X337244Y175728D01*
X336627Y176201D01*
X335909Y176499D01*
X335138Y176600D01*
X301332D01*
X299645Y178287D01*
X299028Y178760D01*
X298310Y179058D01*
X297539Y179159D01*
X297468D01*
X296867Y179620D01*
X295910Y180017D01*
X294882Y180152D01*
D02*
G37*
G36*
X549016Y233563D02*
X518307D01*
Y214665D01*
X545143D01*
X573032Y186776D01*
Y179035D01*
X588583D01*
Y181405D01*
X608071D01*
Y174637D01*
X615092D01*
X615256Y173917D01*
X615256D01*
Y170965D01*
X618996D01*
Y170374D01*
X619587D01*
Y166831D01*
X621917D01*
Y163669D01*
X620846Y162598D01*
X617913D01*
Y154331D01*
X626181D01*
Y157263D01*
X628357Y159439D01*
X628956Y160220D01*
X629333Y161130D01*
X629461Y162106D01*
Y170374D01*
Y174845D01*
X629333Y175821D01*
X628956Y176731D01*
X628357Y177512D01*
X624883Y180985D01*
X624102Y181585D01*
X623819Y181702D01*
Y188037D01*
Y191127D01*
X615945D01*
X608071D01*
Y188553D01*
X588583D01*
Y190847D01*
X579070D01*
X549016Y220901D01*
Y233563D01*
D02*
G37*
G36*
X634449Y190354D02*
X632480D01*
Y151673D01*
X663009Y151673D01*
X663009Y153642D01*
X634449Y153642D01*
Y190354D01*
D02*
G37*
G36*
X607382Y157579D02*
X602067D01*
Y150394D01*
X607382D01*
Y157579D01*
D02*
G37*
G36*
X600886D02*
X595571D01*
Y150394D01*
X600886D01*
Y157579D01*
D02*
G37*
G36*
X622638Y152714D02*
Y149213D01*
X626139D01*
X626075Y149701D01*
X625658Y150707D01*
X624996Y151570D01*
X624132Y152233D01*
X623126Y152649D01*
X622638Y152714D01*
D02*
G37*
G36*
X621457Y152714D02*
X620968Y152649D01*
X619963Y152233D01*
X619099Y151570D01*
X618436Y150707D01*
X618020Y149701D01*
X617955Y149213D01*
X621457D01*
Y152714D01*
D02*
G37*
G36*
X407283Y154833D02*
X406052Y154712D01*
X404869Y154353D01*
X403778Y153770D01*
X402822Y152985D01*
X402037Y152029D01*
X401454Y150938D01*
X401095Y149755D01*
X400974Y148524D01*
X401095Y147293D01*
X401454Y146109D01*
X402037Y145018D01*
X402822Y144062D01*
X403778Y143277D01*
X404869Y142694D01*
X406052Y142335D01*
X407283Y142214D01*
X408514Y142335D01*
X409698Y142694D01*
X410789Y143277D01*
X411745Y144062D01*
X412530Y145018D01*
X413113Y146109D01*
X413472Y147293D01*
X413593Y148524D01*
X413472Y149755D01*
X413113Y150938D01*
X412530Y152029D01*
X411745Y152985D01*
X410789Y153770D01*
X409698Y154353D01*
X408514Y154712D01*
X407283Y154833D01*
D02*
G37*
G36*
X253543Y144882D02*
X250591D01*
Y141732D01*
X253543D01*
Y144882D01*
D02*
G37*
G36*
X249410D02*
X246457D01*
Y141732D01*
X249410D01*
Y144882D01*
D02*
G37*
G36*
X665945Y145139D02*
Y141240D01*
X669843D01*
X669765Y141832D01*
X669309Y142933D01*
X668583Y143879D01*
X667638Y144604D01*
X666536Y145061D01*
X665945Y145139D01*
D02*
G37*
G36*
X664764D02*
X664172Y145061D01*
X663071Y144604D01*
X662125Y143879D01*
X661400Y142933D01*
X660943Y141832D01*
X660865Y141240D01*
X664764D01*
Y145139D01*
D02*
G37*
G36*
X179626Y152590D02*
X178701Y152468D01*
X177839Y152111D01*
X177099Y151543D01*
X176531Y150803D01*
X176174Y149941D01*
X176052Y149016D01*
X176174Y148091D01*
X176531Y147229D01*
X177099Y146489D01*
X177839Y145921D01*
X178504Y145645D01*
X183339Y140810D01*
Y125051D01*
X182552Y125000D01*
X182531Y125153D01*
X182174Y126015D01*
X181606Y126755D01*
X180866Y127323D01*
X180004Y127680D01*
X179079Y127802D01*
X178154Y127680D01*
X177292Y127323D01*
X176552Y126755D01*
X175984Y126015D01*
X175627Y125153D01*
X175505Y124228D01*
X175627Y123303D01*
X175984Y122441D01*
X176552Y121701D01*
X177292Y121133D01*
X177980Y120848D01*
X178147Y120224D01*
X178144Y119983D01*
X177591Y119262D01*
X177134Y118160D01*
X176979Y116978D01*
X177134Y115796D01*
X177591Y114695D01*
X178316Y113749D01*
X179262Y113023D01*
X180363Y112567D01*
X181545Y112412D01*
X182727Y112567D01*
X182845Y112616D01*
X183661Y112454D01*
X186909D01*
Y111122D01*
Y108760D01*
X190453D01*
Y108169D01*
X191043D01*
Y104429D01*
X196555D01*
Y108169D01*
X197736D01*
Y104429D01*
X200689D01*
X200959Y103753D01*
Y96706D01*
X198668Y94415D01*
X192490D01*
X192338Y94532D01*
X191476Y94889D01*
X190551Y95011D01*
X189626Y94889D01*
X188764Y94532D01*
X188024Y93964D01*
X187456Y93224D01*
X187099Y92362D01*
X186977Y91437D01*
X187099Y90512D01*
X187456Y89650D01*
X188024Y88910D01*
X188764Y88342D01*
X189626Y87985D01*
X190551Y87863D01*
X191476Y87985D01*
X192338Y88342D01*
X192490Y88459D01*
X199902D01*
X200672Y88560D01*
X201391Y88858D01*
X202008Y89331D01*
X206043Y93366D01*
X206516Y93983D01*
X206814Y94702D01*
X206915Y95472D01*
Y104429D01*
X207382D01*
Y111122D01*
Y118110D01*
X207402D01*
Y123057D01*
X208129Y123359D01*
X217073Y114415D01*
X217607Y114005D01*
X218230Y113747D01*
X218898Y113659D01*
X224217D01*
X224886Y113145D01*
X225748Y112788D01*
X226673Y112666D01*
X227598Y112788D01*
X228217Y113044D01*
X229004Y112660D01*
Y108600D01*
X220276D01*
X219145Y108451D01*
X218092Y108015D01*
X217187Y107321D01*
X216493Y106416D01*
X216056Y105363D01*
X215908Y104232D01*
X215926Y104094D01*
X212166Y100334D01*
X211692Y99717D01*
X211395Y98999D01*
X211293Y98228D01*
Y88803D01*
X211183Y88719D01*
X210489Y87814D01*
X210052Y86760D01*
X209904Y85630D01*
X210052Y84499D01*
X210489Y83446D01*
X211183Y82541D01*
X212088Y81847D01*
X213141Y81411D01*
X214272Y81262D01*
X215402Y81411D01*
X216456Y81847D01*
X217360Y82541D01*
X218055Y83446D01*
X218491Y84499D01*
X218640Y85630D01*
X218491Y86760D01*
X218055Y87814D01*
X217360Y88719D01*
X217250Y88803D01*
Y96995D01*
X220138Y99882D01*
X220276Y99864D01*
X233366D01*
X234163Y99969D01*
X258563D01*
X259177Y100091D01*
X259698Y100440D01*
X260046Y100960D01*
X260168Y101575D01*
X260168Y134248D01*
X262701Y136781D01*
X270584D01*
X271216Y136519D01*
X272244Y136383D01*
X273272Y136519D01*
X274230Y136915D01*
X275052Y137546D01*
X275683Y138369D01*
X276080Y139327D01*
X276215Y140354D01*
X276080Y141382D01*
X275683Y142340D01*
X275052Y143162D01*
X274230Y143793D01*
X273272Y144190D01*
X272244Y144325D01*
X271216Y144190D01*
X270584Y143928D01*
X261220D01*
X260295Y143806D01*
X259433Y143449D01*
X258693Y142881D01*
X254819Y139007D01*
X253543D01*
Y140551D01*
X250000D01*
X246457D01*
Y139007D01*
X230610D01*
X229995Y138885D01*
X229475Y138537D01*
X229127Y138016D01*
X229004Y137402D01*
Y119820D01*
X228217Y119436D01*
X227598Y119692D01*
X226673Y119814D01*
X225748Y119692D01*
X224886Y119335D01*
X224217Y118821D01*
X219967D01*
X211142Y127646D01*
Y135433D01*
X204449D01*
X203858Y135433D01*
X203268Y135433D01*
X200709D01*
Y131102D01*
X200118D01*
Y130512D01*
X196575D01*
Y126772D01*
X199528D01*
X200315Y126772D01*
X200315Y125984D01*
Y118602D01*
X200295D01*
Y118602D01*
X188706D01*
X188488Y119390D01*
X189043Y119815D01*
X189611Y120556D01*
X189968Y121417D01*
X190090Y122343D01*
X189968Y123267D01*
X189692Y123932D01*
Y142126D01*
X189584Y142948D01*
X189267Y143714D01*
X188762Y144372D01*
X182996Y150138D01*
X182721Y150803D01*
X182153Y151543D01*
X181413Y152111D01*
X180551Y152468D01*
X179626Y152590D01*
D02*
G37*
G36*
X669843Y140059D02*
X665945D01*
Y136161D01*
X666536Y136239D01*
X667638Y136695D01*
X668583Y137420D01*
X669309Y138366D01*
X669765Y139468D01*
X669843Y140059D01*
D02*
G37*
G36*
X664764D02*
X660865D01*
X660943Y139468D01*
X661400Y138366D01*
X662125Y137420D01*
X663071Y136695D01*
X664172Y136239D01*
X664764Y136161D01*
Y140059D01*
D02*
G37*
G36*
X199528Y135433D02*
X196575D01*
Y131693D01*
X199528D01*
Y135433D01*
D02*
G37*
G36*
X295768Y124269D02*
Y120768D01*
X299269D01*
X299205Y121256D01*
X298788Y122262D01*
X298126Y123126D01*
X297262Y123788D01*
X296256Y124205D01*
X295768Y124269D01*
D02*
G37*
G36*
X299269Y119587D02*
X295768D01*
Y116085D01*
X296256Y116150D01*
X297262Y116566D01*
X298126Y117229D01*
X298788Y118092D01*
X299205Y119098D01*
X299269Y119587D01*
D02*
G37*
G36*
X623798Y119980D02*
X620707D01*
Y112697D01*
X623798D01*
Y119980D01*
D02*
G37*
G36*
X529724Y124546D02*
X528181Y124394D01*
X526697Y123944D01*
X525329Y123213D01*
X524130Y122229D01*
X523146Y121030D01*
X522415Y119662D01*
X521964Y118177D01*
X521812Y116634D01*
X521964Y115090D01*
X522415Y113606D01*
X523146Y112238D01*
X524130Y111039D01*
X525329Y110055D01*
X526697Y109324D01*
X528181Y108874D01*
X529724Y108722D01*
X531268Y108874D01*
X532752Y109324D01*
X534120Y110055D01*
X535319Y111039D01*
X536303Y112238D01*
X537034Y113606D01*
X537485Y115090D01*
X537637Y116634D01*
X537485Y118177D01*
X537034Y119662D01*
X536303Y121030D01*
X535319Y122229D01*
X534120Y123213D01*
X532752Y123944D01*
X531268Y124394D01*
X529724Y124546D01*
D02*
G37*
G36*
X280424Y110588D02*
X275490D01*
Y106654D01*
X280424D01*
Y110588D01*
D02*
G37*
G36*
X274309D02*
X269375D01*
Y106654D01*
X274309D01*
Y110588D01*
D02*
G37*
G36*
X189862Y107579D02*
X186909D01*
Y104429D01*
X189862D01*
Y107579D01*
D02*
G37*
G36*
X556102Y198917D02*
X537205D01*
Y168209D01*
X556102D01*
Y176496D01*
X556830Y176797D01*
X568012Y165615D01*
Y150394D01*
X570343D01*
Y149606D01*
X570465Y148681D01*
X570822Y147819D01*
X571390Y147079D01*
X578674Y139796D01*
X579414Y139228D01*
X580276Y138871D01*
X581201Y138749D01*
X625685Y138749D01*
X640914Y123520D01*
Y119980D01*
X638379D01*
Y112106D01*
Y104232D01*
X654869D01*
Y119980D01*
X654762D01*
Y126853D01*
X655143Y127350D01*
X655599Y128451D01*
X655755Y129633D01*
X655599Y130815D01*
X655143Y131916D01*
X654417Y132862D01*
X650236Y137043D01*
Y140650D01*
X650197Y140946D01*
Y145177D01*
X645966D01*
X645669Y145216D01*
X645372Y145177D01*
X641142D01*
Y140946D01*
X641103Y140650D01*
Y135152D01*
X641193Y134462D01*
X640448Y134095D01*
X629693Y144850D01*
X629693Y144850D01*
X628952Y145418D01*
X628090Y145775D01*
X627165Y145897D01*
X626046D01*
X625719Y146684D01*
X626075Y147543D01*
X626139Y148031D01*
X622047D01*
X617955D01*
X618020Y147543D01*
X618375Y146684D01*
X618048Y145897D01*
X582681Y145897D01*
X578912Y149666D01*
X579213Y150394D01*
X579823D01*
Y165945D01*
X577263D01*
X577012Y166551D01*
X576444Y167291D01*
X557252Y186484D01*
X556511Y187052D01*
X556102Y187221D01*
Y198917D01*
D02*
G37*
G36*
X623798Y111516D02*
X620707D01*
Y104232D01*
X623798D01*
Y111516D01*
D02*
G37*
G36*
X228150Y98482D02*
Y94980D01*
X231651D01*
X231587Y95469D01*
X231170Y96474D01*
X230507Y97338D01*
X229644Y98001D01*
X228638Y98417D01*
X228150Y98482D01*
D02*
G37*
G36*
X226969Y98482D02*
X226480Y98417D01*
X225474Y98001D01*
X224611Y97338D01*
X223948Y96474D01*
X223532Y95469D01*
X223467Y94980D01*
X226969D01*
Y98482D01*
D02*
G37*
G36*
X322933Y94449D02*
X319488D01*
Y92185D01*
X322933D01*
Y94449D01*
D02*
G37*
G36*
X226969Y93799D02*
X223467D01*
X223532Y93311D01*
X223948Y92305D01*
X224611Y91442D01*
X225474Y90779D01*
X226480Y90362D01*
X226969Y90298D01*
Y93799D01*
D02*
G37*
G36*
X231651D02*
X228150D01*
Y90298D01*
X228638Y90362D01*
X229644Y90779D01*
X230507Y91442D01*
X231170Y92305D01*
X231587Y93311D01*
X231651Y93799D01*
D02*
G37*
G36*
X322933Y91004D02*
X319488D01*
Y88740D01*
X322933D01*
Y91004D01*
D02*
G37*
G36*
X311221Y91831D02*
X308268D01*
Y88681D01*
X311221D01*
Y91831D01*
D02*
G37*
G36*
X580905Y78740D02*
X577362D01*
Y74803D01*
X580905D01*
Y78740D01*
D02*
G37*
G36*
X525000Y74213D02*
X521850D01*
Y71260D01*
X525000D01*
Y74213D01*
D02*
G37*
G36*
X639272Y99114D02*
X639272Y97147D01*
D01*
X683169Y97147D01*
X683169Y70079D01*
X685138Y70079D01*
X685138Y99114D01*
X639272Y99114D01*
D02*
G37*
G36*
X128544Y59843D02*
X125591D01*
Y56103D01*
X128544D01*
Y59843D01*
D02*
G37*
G36*
X191536Y54922D02*
X187402D01*
Y51181D01*
X191536D01*
Y54922D01*
D02*
G37*
G36*
X186221D02*
X182087D01*
Y51181D01*
X186221D01*
Y54922D01*
D02*
G37*
G36*
X128544D02*
X125591D01*
Y51181D01*
X128544D01*
Y54922D01*
D02*
G37*
G36*
X683169Y67716D02*
D01*
D01*
X683169Y40650D01*
X639272D01*
Y38681D01*
X685138Y38681D01*
X685138Y67716D01*
X683169Y67716D01*
D02*
G37*
G36*
X593012Y53150D02*
X591043D01*
Y38681D01*
X636909Y38681D01*
X636909Y40650D01*
X593012Y40650D01*
Y53150D01*
D02*
G37*
G36*
X652165Y26349D02*
Y20965D01*
X657550D01*
X657492Y21551D01*
X657149Y22683D01*
X656591Y23726D01*
X655841Y24640D01*
X654927Y25390D01*
X653884Y25948D01*
X652752Y26291D01*
X652165Y26349D01*
D02*
G37*
G36*
X650984D02*
X650398Y26291D01*
X649266Y25948D01*
X648223Y25390D01*
X647309Y24640D01*
X646559Y23726D01*
X646001Y22683D01*
X645658Y21551D01*
X645600Y20965D01*
X650984D01*
Y26349D01*
D02*
G37*
G36*
X624606D02*
Y20965D01*
X629991D01*
X629933Y21551D01*
X629590Y22683D01*
X629032Y23726D01*
X628282Y24640D01*
X627367Y25390D01*
X626325Y25948D01*
X625193Y26291D01*
X624606Y26349D01*
D02*
G37*
G36*
X623425D02*
X622839Y26291D01*
X621707Y25948D01*
X620664Y25390D01*
X619750Y24640D01*
X618999Y23726D01*
X618442Y22683D01*
X618099Y21551D01*
X618041Y20965D01*
X623425D01*
Y26349D01*
D02*
G37*
G36*
X523426D02*
Y20965D01*
X528811D01*
X528753Y21551D01*
X528410Y22683D01*
X527852Y23726D01*
X527102Y24640D01*
X526188Y25390D01*
X525145Y25948D01*
X524013Y26291D01*
X523426Y26349D01*
D02*
G37*
G36*
X522245D02*
X521659Y26291D01*
X520527Y25948D01*
X519484Y25390D01*
X518570Y24640D01*
X517820Y23726D01*
X517262Y22683D01*
X516919Y21551D01*
X516861Y20965D01*
X522245D01*
Y26349D01*
D02*
G37*
G36*
X650984Y19783D02*
X645600D01*
X645658Y19197D01*
X646001Y18065D01*
X646559Y17022D01*
X647309Y16108D01*
X647747Y15748D01*
X647422Y14997D01*
X647244Y15020D01*
Y11122D01*
X651142D01*
X651065Y11713D01*
X650608Y12815D01*
X649883Y13761D01*
X649818Y13810D01*
X650184Y14522D01*
X650398Y14457D01*
X650984Y14399D01*
Y19783D01*
D02*
G37*
G36*
X657550D02*
X652165D01*
Y14399D01*
X652752Y14457D01*
X653884Y14800D01*
X654927Y15358D01*
X655841Y16108D01*
X656591Y17022D01*
X657149Y18065D01*
X657492Y19197D01*
X657550Y19783D01*
D02*
G37*
G36*
X623425D02*
X618041D01*
X618099Y19197D01*
X618442Y18065D01*
X618999Y17022D01*
X619750Y16108D01*
X620664Y15358D01*
X621707Y14800D01*
X622839Y14457D01*
X623425Y14399D01*
Y19783D01*
D02*
G37*
G36*
X528811D02*
X523426D01*
Y14399D01*
X524013Y14457D01*
X525145Y14800D01*
X526188Y15358D01*
X527102Y16108D01*
X527852Y17022D01*
X528410Y18065D01*
X528753Y19197D01*
X528811Y19783D01*
D02*
G37*
G36*
X610591Y15906D02*
Y12008D01*
X614489D01*
X614411Y12599D01*
X613955Y13701D01*
X613229Y14646D01*
X612283Y15372D01*
X611182Y15828D01*
X610591Y15906D01*
D02*
G37*
G36*
X609410Y15906D02*
X608818Y15828D01*
X607717Y15372D01*
X606771Y14646D01*
X606045Y13701D01*
X605589Y12599D01*
X605511Y12008D01*
X609410D01*
Y15906D01*
D02*
G37*
G36*
X646063Y15020D02*
X645472Y14942D01*
X644370Y14486D01*
X643425Y13761D01*
X642699Y12815D01*
X642242Y11713D01*
X642165Y11122D01*
X646063D01*
Y15020D01*
D02*
G37*
G36*
X614489Y10827D02*
X610591D01*
Y6928D01*
X611182Y7006D01*
X612283Y7463D01*
X613229Y8188D01*
X613955Y9134D01*
X614411Y10235D01*
X614489Y10827D01*
D02*
G37*
G36*
X609410D02*
X605511D01*
X605589Y10235D01*
X606045Y9134D01*
X606771Y8188D01*
X607717Y7463D01*
X608818Y7006D01*
X609410Y6928D01*
Y10827D01*
D02*
G37*
G36*
X651142Y9941D02*
X647244D01*
Y6043D01*
X647835Y6120D01*
X648937Y6577D01*
X649883Y7302D01*
X650608Y8248D01*
X651065Y9350D01*
X651142Y9941D01*
D02*
G37*
G36*
X646063D02*
X642165D01*
X642242Y9350D01*
X642699Y8248D01*
X643425Y7302D01*
X644370Y6577D01*
X645472Y6120D01*
X646063Y6043D01*
Y9941D01*
D02*
G37*
G36*
X629991Y19783D02*
X624606D01*
Y14399D01*
X625193Y14457D01*
X625407Y14522D01*
X625772Y13810D01*
X625708Y13761D01*
X624982Y12815D01*
X624526Y11713D01*
X624370Y10531D01*
X624526Y9350D01*
X624982Y8248D01*
X625708Y7302D01*
X626654Y6577D01*
X627755Y6120D01*
X628937Y5965D01*
X630119Y6120D01*
X631220Y6577D01*
X632166Y7302D01*
X632892Y8248D01*
X633348Y9350D01*
X633504Y10531D01*
X633348Y11713D01*
X632892Y12815D01*
X632166Y13761D01*
X631220Y14486D01*
X630119Y14942D01*
X628937Y15098D01*
X628169Y14997D01*
X627843Y15748D01*
X628282Y16108D01*
X629032Y17022D01*
X629590Y18065D01*
X629933Y19197D01*
X629991Y19783D01*
D02*
G37*
G36*
X673228Y33902D02*
X671004Y33727D01*
X668835Y33206D01*
X666774Y32353D01*
X664872Y31187D01*
X663175Y29738D01*
X661727Y28042D01*
X660561Y26139D01*
X659707Y24078D01*
X659186Y21909D01*
X659011Y19685D01*
X659186Y17461D01*
X659707Y15292D01*
X660561Y13231D01*
X661727Y11328D01*
X663175Y9632D01*
X664872Y8183D01*
X666774Y7017D01*
X668835Y6164D01*
X671004Y5643D01*
X673228Y5468D01*
X675452Y5643D01*
X677622Y6164D01*
X679683Y7017D01*
X681585Y8183D01*
X683281Y9632D01*
X684730Y11328D01*
X685896Y13231D01*
X686750Y15292D01*
X687270Y17461D01*
X687445Y19685D01*
X687270Y21909D01*
X686750Y24078D01*
X685896Y26139D01*
X684730Y28042D01*
X683281Y29738D01*
X681585Y31187D01*
X679683Y32353D01*
X677622Y33206D01*
X675452Y33727D01*
X673228Y33902D01*
D02*
G37*
%LPD*%
G36*
X331177Y148258D02*
Y139045D01*
X327464Y135332D01*
X327022Y134756D01*
X326744Y134086D01*
X326649Y133366D01*
Y129748D01*
X322318D01*
X322296Y129776D01*
X321474Y130408D01*
X320516Y130804D01*
X319488Y130939D01*
X318460Y130804D01*
X317503Y130408D01*
X316680Y129776D01*
X316049Y128954D01*
X315652Y127996D01*
X315517Y126969D01*
X315652Y125941D01*
X316049Y124983D01*
X316482Y124419D01*
X316136Y123969D01*
X315858Y123298D01*
X315764Y122579D01*
Y121949D01*
X315591D01*
Y115397D01*
X313740D01*
Y121949D01*
X313173D01*
Y132283D01*
X313002Y133144D01*
X312515Y133873D01*
X306351Y140036D01*
X306653Y140764D01*
X314710D01*
Y139980D01*
X314845Y139304D01*
X314933Y139173D01*
X314845Y139042D01*
X314734Y138484D01*
X315597D01*
X315801Y138348D01*
X316477Y138214D01*
X322343D01*
X323019Y138348D01*
X323222Y138484D01*
X324086D01*
X323975Y139042D01*
X323887Y139173D01*
X323975Y139304D01*
X324109Y139980D01*
Y140925D01*
X323975Y141601D01*
X323887Y141732D01*
X323975Y141864D01*
X324109Y142539D01*
Y143484D01*
X323975Y144160D01*
X323887Y144291D01*
X323975Y144422D01*
X324109Y145098D01*
Y146043D01*
X323975Y146719D01*
X323887Y146850D01*
X323975Y146982D01*
X324109Y147658D01*
Y148602D01*
X323975Y149278D01*
X323887Y149409D01*
X323975Y149541D01*
X324109Y150216D01*
Y151161D01*
X323975Y151837D01*
X323887Y151969D01*
X323975Y152100D01*
X324109Y152776D01*
Y153720D01*
X323987Y154335D01*
X324022Y154381D01*
X324865Y154570D01*
X331177Y148258D01*
D02*
G37*
%LPC*%
G36*
X324086Y137303D02*
X320000D01*
Y135655D01*
X322343D01*
X323019Y135790D01*
X323592Y136172D01*
X323975Y136745D01*
X324086Y137303D01*
D02*
G37*
G36*
X318819D02*
X314734D01*
X314845Y136745D01*
X315228Y136172D01*
X315801Y135790D01*
X316477Y135655D01*
X318819D01*
Y137303D01*
D02*
G37*
%LPD*%
G36*
X258563Y101575D02*
X230610D01*
X230610Y137402D01*
X246457D01*
Y137402D01*
X253543D01*
Y137402D01*
X258563D01*
X258563Y101575D01*
D02*
G37*
%LPC*%
G36*
X144246Y289991D02*
X140488Y286233D01*
X142646Y284075D01*
X146404Y287833D01*
X144246Y289991D01*
D02*
G37*
G36*
X147239Y286998D02*
X143481Y283240D01*
X145638Y281083D01*
X149397Y284841D01*
X147239Y286998D01*
D02*
G37*
G36*
X139653Y285398D02*
X135895Y281639D01*
X138052Y279482D01*
X141811Y283240D01*
X139653Y285398D01*
D02*
G37*
G36*
X152459Y281779D02*
X148701Y278020D01*
X150858Y275863D01*
X154616Y279621D01*
X152459Y281779D01*
D02*
G37*
G36*
X133647Y278424D02*
X132015Y276792D01*
X133637Y275170D01*
X135269Y276802D01*
X133647Y278424D01*
D02*
G37*
G36*
X155452Y278786D02*
X151693Y275028D01*
X153851Y272870D01*
X157609Y276628D01*
X155452Y278786D01*
D02*
G37*
G36*
X131180Y275957D02*
X129548Y274325D01*
X131170Y272703D01*
X132802Y274335D01*
X131180Y275957D01*
D02*
G37*
G36*
X150858Y274192D02*
X147100Y270434D01*
X149258Y268277D01*
X153016Y272035D01*
X150858Y274192D01*
D02*
G37*
G36*
X104964Y284265D02*
X103767Y283068D01*
X104811Y282024D01*
X106008Y283221D01*
X104964Y284265D01*
D02*
G37*
G36*
X106843Y282386D02*
X105646Y281189D01*
X106690Y280145D01*
X107887Y281342D01*
X106843Y282386D01*
D02*
G37*
G36*
X81403Y257696D02*
X81324Y257593D01*
X81046Y256922D01*
X80948Y256202D01*
X80228Y256104D01*
X79557Y255826D01*
X79454Y255747D01*
X83035Y252166D01*
X86616Y248585D01*
X86695Y248688D01*
X86973Y249359D01*
X87071Y250079D01*
X87791Y250177D01*
X88462Y250455D01*
X88565Y250534D01*
X84984Y254115D01*
X81403Y257696D01*
D02*
G37*
G36*
X20866Y192815D02*
X17913D01*
Y189665D01*
X20866D01*
Y192815D01*
D02*
G37*
G36*
X16732D02*
X13780D01*
Y189665D01*
X16732D01*
Y192815D01*
D02*
G37*
G36*
X23819Y187795D02*
Y186102D01*
X25295D01*
Y187795D01*
X23819D01*
D02*
G37*
G36*
X38476Y180359D02*
X37223Y179106D01*
X36782Y178530D01*
X36504Y177860D01*
X36409Y177140D01*
X36504Y176421D01*
X36782Y175750D01*
X36861Y175647D01*
X40024Y178811D01*
X38476Y180359D01*
D02*
G37*
G36*
X35433Y178248D02*
X32480D01*
Y175099D01*
X35433D01*
Y178248D01*
D02*
G37*
G36*
X22638Y171024D02*
X22046Y170947D01*
X20945Y170490D01*
X19999Y169764D01*
X19274Y168819D01*
X18817Y167717D01*
X18740Y167126D01*
X22638D01*
Y171024D01*
D02*
G37*
G36*
Y165945D02*
X18740D01*
X18817Y165354D01*
X19274Y164252D01*
X19999Y163306D01*
X20945Y162581D01*
X22046Y162124D01*
X22638Y162047D01*
Y165945D01*
D02*
G37*
G36*
X39567Y157874D02*
X38091D01*
Y156181D01*
X39567D01*
Y157874D01*
D02*
G37*
G36*
X21850Y158101D02*
X20571D01*
X19672Y157982D01*
X18834Y157635D01*
X18114Y157083D01*
X17562Y156363D01*
X17494Y156201D01*
X17126D01*
Y155217D01*
X21850D01*
Y158101D01*
D02*
G37*
G36*
X46654Y136929D02*
X45177D01*
Y135236D01*
X46654D01*
Y136929D01*
D02*
G37*
G36*
X43996D02*
X42520D01*
Y135236D01*
X43996D01*
Y136929D01*
D02*
G37*
G36*
X36645Y130413D02*
X33661D01*
Y126622D01*
X33996Y126666D01*
X34858Y127023D01*
X35598Y127591D01*
X36166Y128331D01*
X36523Y129193D01*
X36645Y130118D01*
Y130413D01*
D02*
G37*
G36*
X21850Y126476D02*
X17126D01*
Y125492D01*
X17494D01*
X17562Y125330D01*
X18114Y124610D01*
X18834Y124058D01*
X19672Y123711D01*
X20571Y123592D01*
X21850D01*
Y126476D01*
D02*
G37*
G36*
X46161Y61713D02*
X43209D01*
Y56004D01*
X46161D01*
Y61713D01*
D02*
G37*
G36*
X50295Y37697D02*
X47343D01*
Y30020D01*
X50295D01*
Y37697D01*
D02*
G37*
G36*
X46161D02*
X43209D01*
Y30020D01*
X46161D01*
Y37697D01*
D02*
G37*
G36*
X105610D02*
X102657D01*
Y30020D01*
X105610D01*
Y37697D01*
D02*
G37*
G36*
X109744Y28839D02*
X106791D01*
Y21161D01*
X109744D01*
Y28839D01*
D02*
G37*
G36*
X105610D02*
X102657D01*
Y21161D01*
X105610D01*
Y28839D01*
D02*
G37*
G36*
X50295D02*
X47343D01*
Y21161D01*
X50295D01*
Y28839D01*
D02*
G37*
G36*
X46161D02*
X43209D01*
Y21161D01*
X46161D01*
Y28839D01*
D02*
G37*
G36*
X194292Y23622D02*
X190945D01*
Y18307D01*
X194292D01*
Y23622D01*
D02*
G37*
G36*
X189764D02*
X186418D01*
Y18307D01*
X189764D01*
Y23622D01*
D02*
G37*
G36*
X133268Y23386D02*
X129922D01*
Y18071D01*
X133268D01*
Y23386D01*
D02*
G37*
G36*
X128741D02*
X125394D01*
Y18071D01*
X128741D01*
Y23386D01*
D02*
G37*
G36*
X194292Y17126D02*
X190945D01*
Y11811D01*
X194292D01*
Y17126D01*
D02*
G37*
G36*
X189764D02*
X186418D01*
Y11811D01*
X189764D01*
Y17126D01*
D02*
G37*
G36*
X133268Y16890D02*
X129922D01*
Y11575D01*
X133268D01*
Y16890D01*
D02*
G37*
G36*
X128741D02*
X125394D01*
Y11575D01*
X128741D01*
Y16890D01*
D02*
G37*
G36*
X171851Y20857D02*
X170631Y20697D01*
X169493Y20226D01*
X168517Y19476D01*
X167767Y18500D01*
X167296Y17362D01*
X167135Y16142D01*
X167296Y14921D01*
X167767Y13784D01*
X168517Y12808D01*
X169493Y12058D01*
X170631Y11587D01*
X171851Y11426D01*
X173071Y11587D01*
X174209Y12058D01*
X175185Y12808D01*
X175935Y13784D01*
X176406Y14921D01*
X176567Y16142D01*
X176406Y17362D01*
X175935Y18500D01*
X175185Y19476D01*
X174209Y20226D01*
X173071Y20697D01*
X171851Y20857D01*
D02*
G37*
G36*
X140355D02*
X139134Y20697D01*
X137997Y20226D01*
X137021Y19476D01*
X136271Y18500D01*
X135800Y17362D01*
X135639Y16142D01*
X135800Y14921D01*
X136271Y13784D01*
X137021Y12808D01*
X137997Y12058D01*
X139134Y11587D01*
X140355Y11426D01*
X141575Y11587D01*
X142713Y12058D01*
X143689Y12808D01*
X144439Y13784D01*
X144910Y14921D01*
X145070Y16142D01*
X144910Y17362D01*
X144439Y18500D01*
X143689Y19476D01*
X142713Y20226D01*
X141575Y20697D01*
X140355Y20857D01*
D02*
G37*
G36*
X50295Y16831D02*
X47343D01*
Y9154D01*
X50295D01*
Y16831D01*
D02*
G37*
G36*
X109744D02*
X106791D01*
Y9154D01*
X109744D01*
Y16831D01*
D02*
G37*
G36*
X46161D02*
X43209D01*
Y9154D01*
X46161D01*
Y16831D01*
D02*
G37*
G36*
X105610D02*
X102657D01*
Y9154D01*
X105610D01*
Y16831D01*
D02*
G37*
G36*
X19685Y33902D02*
X17461Y33727D01*
X15292Y33206D01*
X13231Y32353D01*
X11328Y31187D01*
X9632Y29738D01*
X8183Y28042D01*
X7017Y26139D01*
X6164Y24078D01*
X5643Y21909D01*
X5468Y19685D01*
X5643Y17461D01*
X6164Y15292D01*
X7017Y13231D01*
X8183Y11328D01*
X9632Y9632D01*
X11328Y8183D01*
X13231Y7017D01*
X15292Y6164D01*
X17461Y5643D01*
X19685Y5468D01*
X21909Y5643D01*
X24078Y6164D01*
X26139Y7017D01*
X28042Y8183D01*
X29738Y9632D01*
X31187Y11328D01*
X32353Y13231D01*
X33206Y15292D01*
X33727Y17461D01*
X33902Y19685D01*
X33727Y21909D01*
X33206Y24078D01*
X32353Y26139D01*
X31187Y28042D01*
X29738Y29738D01*
X28042Y31187D01*
X26139Y32353D01*
X24078Y33206D01*
X21909Y33727D01*
X19685Y33902D01*
D02*
G37*
G36*
X239961Y14518D02*
X234055D01*
X232565Y14322D01*
X231176Y13746D01*
X229984Y12831D01*
X229069Y11639D01*
X228493Y10250D01*
X228297Y8760D01*
X228493Y7270D01*
X229069Y5881D01*
X229984Y4688D01*
X231176Y3773D01*
X232565Y3198D01*
X234055Y3002D01*
X239961D01*
X241451Y3198D01*
X242840Y3773D01*
X244032Y4688D01*
X244947Y5881D01*
X245522Y7270D01*
X245719Y8760D01*
X245522Y10250D01*
X244947Y11639D01*
X244032Y12831D01*
X242840Y13746D01*
X241451Y14322D01*
X239961Y14518D01*
D02*
G37*
G36*
X389469Y229387D02*
X388980Y229323D01*
X387974Y228906D01*
X387111Y228244D01*
X386448Y227380D01*
X386032Y226374D01*
X385967Y225886D01*
X389469D01*
Y229387D01*
D02*
G37*
G36*
Y224705D02*
X385967D01*
X386032Y224216D01*
X386448Y223211D01*
X387111Y222347D01*
X387974Y221684D01*
X388980Y221268D01*
X389469Y221203D01*
Y224705D01*
D02*
G37*
G36*
X391831Y201336D02*
Y197835D01*
X395332D01*
X395268Y198323D01*
X394851Y199329D01*
X394188Y200192D01*
X393325Y200855D01*
X392319Y201272D01*
X391831Y201336D01*
D02*
G37*
G36*
X395332Y196653D02*
X391831D01*
Y193152D01*
X392319Y193217D01*
X393325Y193633D01*
X394188Y194296D01*
X394851Y195159D01*
X395268Y196165D01*
X395332Y196653D01*
D02*
G37*
G36*
X177854Y295866D02*
X174705D01*
Y292913D01*
X177854D01*
Y295866D01*
D02*
G37*
G36*
X371457Y193209D02*
X368504D01*
Y190059D01*
X371457D01*
Y193209D01*
D02*
G37*
G36*
X367323D02*
X364370D01*
Y190059D01*
X367323D01*
Y193209D01*
D02*
G37*
G36*
X398780Y71320D02*
Y67421D01*
X402678D01*
X402600Y68013D01*
X402144Y69114D01*
X401418Y70060D01*
X400472Y70785D01*
X399371Y71242D01*
X398780Y71320D01*
D02*
G37*
G36*
X397598D02*
X397007Y71242D01*
X395906Y70785D01*
X394960Y70060D01*
X394234Y69114D01*
X393778Y68013D01*
X393700Y67421D01*
X397598D01*
Y71320D01*
D02*
G37*
G36*
X483366Y63583D02*
X480217D01*
Y60630D01*
X483366D01*
Y63583D01*
D02*
G37*
G36*
X455315Y54587D02*
Y50689D01*
X459213D01*
X459135Y51280D01*
X458679Y52382D01*
X457954Y53328D01*
X457008Y54053D01*
X455906Y54510D01*
X455315Y54587D01*
D02*
G37*
G36*
X444882Y54665D02*
X443700Y54510D01*
X442599Y54053D01*
X441653Y53328D01*
X440927Y52382D01*
X440471Y51280D01*
X440376Y50556D01*
X440358Y50421D01*
X439564D01*
X439546Y50556D01*
X439450Y51280D01*
X438994Y52382D01*
X438269Y53328D01*
X437323Y54053D01*
X436221Y54510D01*
X435039Y54665D01*
X433857Y54510D01*
X432756Y54053D01*
X431810Y53328D01*
X431085Y52382D01*
X430628Y51280D01*
X430533Y50556D01*
X430515Y50421D01*
X429721D01*
X429703Y50556D01*
X429608Y51280D01*
X429152Y52382D01*
X428426Y53328D01*
X427480Y54053D01*
X426379Y54510D01*
X425197Y54665D01*
X424015Y54510D01*
X422914Y54053D01*
X421968Y53328D01*
X421242Y52382D01*
X420786Y51280D01*
X420690Y50556D01*
X420673Y50421D01*
X419878D01*
X419861Y50556D01*
X419765Y51280D01*
X419309Y52382D01*
X418583Y53328D01*
X417638Y54053D01*
X416536Y54510D01*
X415354Y54665D01*
X414172Y54510D01*
X413071Y54053D01*
X412125Y53328D01*
X411400Y52382D01*
X410943Y51280D01*
X410788Y50098D01*
X410943Y48917D01*
X411400Y47815D01*
X412125Y46869D01*
X413071Y46144D01*
X414172Y45687D01*
X415354Y45532D01*
X416536Y45687D01*
X417638Y46144D01*
X418583Y46869D01*
X419309Y47815D01*
X419765Y48917D01*
X419861Y49641D01*
X419878Y49776D01*
X420673D01*
X420690Y49641D01*
X420786Y48917D01*
X421242Y47815D01*
X421968Y46869D01*
X422914Y46144D01*
X424015Y45687D01*
X425197Y45532D01*
X426379Y45687D01*
X427480Y46144D01*
X428426Y46869D01*
X429152Y47815D01*
X429608Y48917D01*
X429703Y49641D01*
X429721Y49776D01*
X430515D01*
X430533Y49641D01*
X430628Y48917D01*
X431085Y47815D01*
X431810Y46869D01*
X432756Y46144D01*
X433857Y45687D01*
X435039Y45532D01*
X436221Y45687D01*
X437323Y46144D01*
X438269Y46869D01*
X438994Y47815D01*
X439450Y48917D01*
X439546Y49641D01*
X439564Y49776D01*
X440358D01*
X440376Y49641D01*
X440471Y48917D01*
X440927Y47815D01*
X441653Y46869D01*
X442599Y46144D01*
X443700Y45687D01*
X444882Y45532D01*
X446064Y45687D01*
X447165Y46144D01*
X448111Y46869D01*
X448837Y47815D01*
X449293Y48917D01*
X449388Y49641D01*
X449406Y49776D01*
X450200D01*
X450218Y49641D01*
X450313Y48917D01*
X450770Y47815D01*
X451495Y46869D01*
X452441Y46144D01*
X453543Y45687D01*
X454134Y45610D01*
Y50098D01*
Y54587D01*
X453543Y54510D01*
X452441Y54053D01*
X451495Y53328D01*
X450770Y52382D01*
X450313Y51280D01*
X450218Y50556D01*
X450200Y50421D01*
X449406D01*
X449388Y50556D01*
X449293Y51280D01*
X448837Y52382D01*
X448111Y53328D01*
X447165Y54053D01*
X446064Y54510D01*
X444882Y54665D01*
D02*
G37*
G36*
X459213Y49508D02*
X455315D01*
Y45610D01*
X455906Y45687D01*
X457008Y46144D01*
X457954Y46869D01*
X458679Y47815D01*
X459135Y48917D01*
X459213Y49508D01*
D02*
G37*
G36*
X363681Y52874D02*
X360138D01*
Y49941D01*
X363681D01*
Y52874D01*
D02*
G37*
G36*
X364764Y26349D02*
X364177Y26291D01*
X363046Y25948D01*
X362003Y25390D01*
X361088Y24640D01*
X360338Y23726D01*
X359781Y22683D01*
X359437Y21551D01*
X359380Y20965D01*
X364764D01*
Y26349D01*
D02*
G37*
G36*
Y19783D02*
X359380D01*
X359437Y19197D01*
X359781Y18065D01*
X360338Y17022D01*
X361088Y16108D01*
X362003Y15358D01*
X363046Y14800D01*
X364177Y14457D01*
X364764Y14399D01*
Y19783D01*
D02*
G37*
G36*
X370866Y15020D02*
Y11122D01*
X374764D01*
X374687Y11713D01*
X374230Y12815D01*
X373505Y13761D01*
X372559Y14486D01*
X371458Y14942D01*
X370866Y15020D01*
D02*
G37*
G36*
X371329Y19783D02*
X365945D01*
Y14399D01*
X366531Y14457D01*
X366745Y14522D01*
X367111Y13810D01*
X367046Y13761D01*
X366321Y12815D01*
X365865Y11713D01*
X365787Y11122D01*
X369685D01*
Y15020D01*
X369508Y14997D01*
X369182Y15748D01*
X369620Y16108D01*
X370371Y17022D01*
X370928Y18065D01*
X371271Y19197D01*
X371329Y19783D01*
D02*
G37*
G36*
X374764Y9941D02*
X370866D01*
Y6043D01*
X371458Y6120D01*
X372559Y6577D01*
X373505Y7302D01*
X374230Y8248D01*
X374687Y9350D01*
X374764Y9941D01*
D02*
G37*
G36*
X369685D02*
X365787D01*
X365865Y9350D01*
X366321Y8248D01*
X367046Y7302D01*
X367992Y6577D01*
X369094Y6120D01*
X369685Y6043D01*
Y9941D01*
D02*
G37*
G36*
X494686Y26349D02*
X494100Y26291D01*
X492968Y25948D01*
X491925Y25390D01*
X491011Y24640D01*
X490261Y23726D01*
X489703Y22683D01*
X489360Y21551D01*
X489302Y20965D01*
X494686D01*
Y26349D01*
D02*
G37*
G36*
X458858D02*
Y20965D01*
X464243D01*
X464185Y21551D01*
X463841Y22683D01*
X463284Y23726D01*
X462534Y24640D01*
X461620Y25390D01*
X460576Y25948D01*
X459445Y26291D01*
X458858Y26349D01*
D02*
G37*
G36*
X457677D02*
X457091Y26291D01*
X455959Y25948D01*
X454916Y25390D01*
X454002Y24640D01*
X453252Y23726D01*
X452694Y22683D01*
X452351Y21551D01*
X452293Y20965D01*
X457677D01*
Y26349D01*
D02*
G37*
G36*
X481004Y20236D02*
X476870D01*
Y14961D01*
X481004D01*
Y20236D01*
D02*
G37*
G36*
X475689D02*
X471555D01*
Y14961D01*
X475689D01*
Y20236D01*
D02*
G37*
G36*
X494686Y19783D02*
X489302D01*
X489360Y19197D01*
X489703Y18065D01*
X490261Y17022D01*
X491011Y16108D01*
X491925Y15358D01*
X492968Y14800D01*
X494100Y14457D01*
X494686Y14399D01*
Y19783D01*
D02*
G37*
G36*
X500789Y15020D02*
Y11122D01*
X504687D01*
X504609Y11713D01*
X504153Y12815D01*
X503427Y13761D01*
X502481Y14486D01*
X501380Y14942D01*
X500789Y15020D01*
D02*
G37*
G36*
X501252Y19783D02*
X495867D01*
Y14399D01*
X496454Y14457D01*
X496668Y14522D01*
X497033Y13810D01*
X496969Y13761D01*
X496243Y12815D01*
X495787Y11713D01*
X495709Y11122D01*
X499608D01*
Y15020D01*
X499430Y14997D01*
X499104Y15748D01*
X499543Y16108D01*
X500293Y17022D01*
X500851Y18065D01*
X501194Y19197D01*
X501252Y19783D01*
D02*
G37*
G36*
X481004Y13780D02*
X476870D01*
Y8504D01*
X481004D01*
Y13780D01*
D02*
G37*
G36*
X475689D02*
X471555D01*
Y8504D01*
X475689D01*
Y13780D01*
D02*
G37*
G36*
X102264Y80315D02*
X99114D01*
Y77362D01*
X102264D01*
Y80315D01*
D02*
G37*
G36*
Y76181D02*
X99114D01*
Y73228D01*
X102264D01*
Y76181D01*
D02*
G37*
G36*
X109744Y68602D02*
X106791D01*
Y62894D01*
X109744D01*
Y68602D01*
D02*
G37*
G36*
X105610D02*
X102657D01*
Y62894D01*
X105610D01*
Y68602D01*
D02*
G37*
G36*
X92067Y65453D02*
X90000D01*
Y62500D01*
X92067D01*
Y65453D01*
D02*
G37*
G36*
X101870Y67343D02*
X95571D01*
Y58287D01*
X101870D01*
Y67343D01*
D02*
G37*
G36*
X109744Y61713D02*
X106791D01*
Y56004D01*
X109744D01*
Y61713D01*
D02*
G37*
G36*
X105610D02*
X102657D01*
Y56004D01*
X105610D01*
Y61713D01*
D02*
G37*
G36*
X292913Y44831D02*
X291475Y44642D01*
X290134Y44086D01*
X288982Y43203D01*
X288099Y42051D01*
X287544Y40711D01*
X287354Y39272D01*
Y35335D01*
X287544Y33896D01*
X288099Y32555D01*
X288982Y31404D01*
X290134Y30520D01*
X291475Y29965D01*
X292913Y29775D01*
X294352Y29965D01*
X295693Y30520D01*
X296845Y31404D01*
X297728Y32555D01*
X298283Y33896D01*
X298473Y35335D01*
Y39272D01*
X298283Y40711D01*
X297728Y42051D01*
X296845Y43203D01*
X295693Y44086D01*
X294352Y44642D01*
X292913Y44831D01*
D02*
G37*
G36*
X430118Y19783D02*
X424734D01*
X424792Y19197D01*
X425135Y18065D01*
X425692Y17022D01*
X426443Y16108D01*
X427357Y15358D01*
X428400Y14800D01*
X429532Y14457D01*
X430118Y14399D01*
Y19783D01*
D02*
G37*
G36*
X436221Y15020D02*
Y11122D01*
X440119D01*
X440041Y11713D01*
X439585Y12815D01*
X438859Y13761D01*
X437913Y14486D01*
X436812Y14942D01*
X436221Y15020D01*
D02*
G37*
G36*
X436684Y19783D02*
X431299D01*
Y14399D01*
X431886Y14457D01*
X432099Y14522D01*
X432465Y13810D01*
X432401Y13761D01*
X431675Y12815D01*
X431219Y11713D01*
X431141Y11122D01*
X435039D01*
Y15020D01*
X434862Y14997D01*
X434536Y15748D01*
X434975Y16108D01*
X435725Y17022D01*
X436282Y18065D01*
X436626Y19197D01*
X436684Y19783D01*
D02*
G37*
%LPD*%
D11*
X449803Y47835D02*
Y51279D01*
X439961Y48130D02*
Y51181D01*
X430118Y48130D02*
Y51181D01*
X420177Y47933D02*
X420276Y48031D01*
Y50886D01*
X155315Y75985D02*
X155709Y76378D01*
X142717Y57875D02*
X142717Y57874D01*
X74108Y210148D02*
X74156D01*
D17*
X467323Y5512D02*
Y6791D01*
X325157Y114035D02*
Y117913D01*
X324311Y113189D02*
X325157Y114035D01*
X308858Y113189D02*
X324311D01*
X62697Y97146D02*
X66831D01*
X60236Y94685D02*
X62697Y97146D01*
X60236Y90748D02*
Y94685D01*
X56004Y94415D02*
X61294Y99705D01*
X56004Y83957D02*
Y94415D01*
Y83957D02*
X56595Y83366D01*
X467618Y5217D02*
X553799Y5217D01*
X467323Y5512D02*
X467618Y5217D01*
X459665Y10354D02*
X462795Y13484D01*
X467028D01*
X453524Y10354D02*
X459665D01*
X453346Y10531D02*
X453524Y10354D01*
X553799Y5217D02*
X560000Y11417D01*
X449311Y2756D02*
X529857D01*
X447047Y5020D02*
X449311Y2756D01*
X571339Y2756D02*
X580000Y11417D01*
X529857Y2756D02*
X571339Y2756D01*
X403740Y5020D02*
X447047Y5020D01*
X402165Y6595D02*
X403740Y5020D01*
X472638Y60039D02*
Y62697D01*
X473721Y49804D02*
X476279Y47244D01*
X473721Y49804D02*
Y58957D01*
X395965Y75984D02*
X470571D01*
X388090Y66831D02*
Y68110D01*
X470571Y75984D02*
Y94784D01*
Y64764D02*
Y75984D01*
Y64764D02*
X472638Y62697D01*
X325984Y22638D02*
X351673D01*
X323376Y20030D02*
X325984Y22638D01*
X28445Y123665D02*
Y156988D01*
X341693Y27165D02*
Y33524D01*
Y26476D02*
Y27165D01*
X325551D02*
Y33720D01*
Y26772D02*
Y27165D01*
X304744Y99134D02*
X318878D01*
X307382Y114665D02*
X308858Y113189D01*
X360335Y45571D02*
X368701D01*
X388484Y26772D02*
X403150D01*
X374311Y185827D02*
Y186909D01*
X371752Y189469D02*
X374311Y186909D01*
X367913Y189469D02*
X371752D01*
X89567Y280315D02*
X89685Y280433D01*
X41634Y146752D02*
X48917D01*
X349705Y253051D02*
X349803Y253150D01*
X404429Y222441D02*
X404626Y222638D01*
X403642Y221654D02*
X404429Y222441D01*
X48908Y146742D02*
X48917Y146752D01*
X49902Y76378D02*
Y76772D01*
X388090Y68110D02*
X395965Y75984D01*
X64370Y93898D02*
X65059Y94587D01*
X64370Y83858D02*
Y93898D01*
X410906Y218327D02*
X411862D01*
X61294Y99705D02*
X66831D01*
X63878Y83366D02*
X64370Y83858D01*
X65059Y94587D02*
X66831D01*
X77410Y99705D02*
X78248Y100543D01*
X74311Y99705D02*
X77410D01*
X74311Y99705D02*
X74311Y99705D01*
X63878Y76772D02*
X63878Y76772D01*
X77953Y83366D02*
Y96260D01*
X77598Y76516D02*
X77854Y76772D01*
X77067Y97146D02*
X77953Y96260D01*
X49508Y77165D02*
X49902Y76772D01*
X325295Y137894D02*
X325394Y137795D01*
X319410Y137894D02*
X325295D01*
X312992D02*
X319410D01*
X341693Y33524D02*
X342126Y33957D01*
X325551Y33720D02*
X325787Y33957D01*
X494193Y104724D02*
Y104921D01*
X403622Y201555D02*
X403642Y201575D01*
X81250Y208574D02*
X81517D01*
X74311Y97146D02*
X77067D01*
X56693Y83366D02*
X56693Y83366D01*
D23*
X467717Y266831D02*
X468504Y266043D01*
X472441Y262106D01*
X673032Y305807D02*
X673228Y306004D01*
X493701Y243701D02*
X555118D01*
X492421Y244980D02*
X493701Y243701D01*
X492421Y244980D02*
Y247342D01*
X555118Y243701D02*
X557677Y241142D01*
X511417Y262992D02*
X533169D01*
X533661Y263484D01*
X507874Y181102D02*
Y186909D01*
X503051Y207874D02*
X507087Y203839D01*
Y187697D02*
Y203839D01*
Y187697D02*
X507874Y186909D01*
X557972Y131004D02*
X621949D01*
X507874Y181102D02*
X557972Y131004D01*
X567323Y212500D02*
X580807D01*
X557677Y222146D02*
Y241142D01*
Y222146D02*
X567323Y212500D01*
X492421Y247342D02*
Y257382D01*
X487697Y262106D02*
X492421Y257382D01*
X472441Y262106D02*
X487697D01*
X293406Y77264D02*
Y107874D01*
X356299Y220276D02*
X377362D01*
X274900Y105612D02*
X277559Y102953D01*
X284646D01*
X399705Y237008D02*
X462402D01*
X385630D02*
X399705D01*
X645669Y135152D02*
X651188Y129633D01*
X645669Y135152D02*
Y140650D01*
X485335Y207874D02*
X503051D01*
X380217Y225295D02*
Y231594D01*
Y223130D02*
Y225295D01*
X377362Y220276D02*
X380217Y223130D01*
Y231594D02*
X385630Y237008D01*
X621949Y131004D02*
X631057Y121896D01*
X226772Y77264D02*
X293406D01*
X221949Y72441D02*
X226772Y77264D01*
X468012Y215256D02*
Y231398D01*
X462402Y237008D02*
X468012Y231398D01*
Y215256D02*
X475394Y207874D01*
X485335D01*
X196752Y72441D02*
X221949D01*
X189272Y79921D02*
X196752Y72441D01*
X274900Y105612D02*
Y111179D01*
X287303Y113976D02*
Y120177D01*
Y113976D02*
X293406Y107874D01*
D28*
X38004Y169870D02*
D03*
X40343Y167532D02*
D03*
D42*
X102472Y278851D02*
D03*
X104811Y281189D02*
D03*
D43*
X23228Y182205D02*
D03*
Y185512D02*
D03*
X44587Y140827D02*
D03*
Y137520D02*
D03*
X40157Y152284D02*
D03*
Y155591D02*
D03*
X41240Y143425D02*
D03*
Y146732D02*
D03*
D72*
X185827Y333897D02*
D03*
D73*
X193701Y337598D02*
D03*
D74*
X160236D02*
D03*
X309842D02*
D03*
D82*
X133637Y274335D02*
D03*
X136441Y271531D02*
D03*
D83*
X150858Y275028D02*
D03*
X142646Y283240D02*
D03*
D84*
X142507Y274888D02*
D03*
D85*
X24996Y297736D02*
D03*
X30713D02*
D03*
D119*
X577461Y291240D02*
D03*
Y271555D02*
D03*
X597146Y291240D02*
D03*
X587303Y261712D02*
D03*
Y281398D02*
D03*
D120*
X597146Y271555D02*
D03*
D122*
X138306Y79921D02*
G03*
X141803Y81370I0J4945D01*
G01*
X137402Y69291D02*
G03*
X139764Y71653I0J2362D01*
G01*
D02*
G03*
X137303Y74114I-2461J0D01*
G01*
X138386Y61942D02*
G03*
X137992Y62894I-1346J0D01*
G01*
X136875Y79921D02*
G03*
X133858Y76905I0J-3017D01*
G01*
D02*
G03*
X136649Y74114I2790J0D01*
G01*
X134758Y69291D02*
G03*
X132382Y68307I0J-3360D01*
G01*
X132382Y64370D02*
G03*
X134758Y63386I2376J2376D01*
G01*
X137992Y62894D02*
G03*
X136804Y63386I-1188J-1188D01*
G01*
X132382Y68307D02*
G03*
X131693Y66644I1663J-1663D01*
G01*
Y66033D02*
G03*
X132382Y64370I2352J0D01*
G01*
X141803Y81370D02*
G03*
X142520Y83103I-1737J1733D01*
G01*
X141802Y81369D02*
G03*
X141803Y81370I-1736J1734D01*
G01*
X141802Y81369D02*
G03*
X141803Y81370I-1733J1733D01*
G01*
X138976Y106693D02*
X139272Y106398D01*
X138386Y57481D02*
Y61942D01*
X136875Y79921D02*
X138306D01*
X136649Y74114D02*
X137303D01*
X134758Y69291D02*
X137402D01*
X134758Y63386D02*
X136804D01*
X131693Y66033D02*
Y66644D01*
X142520Y83103D02*
Y101279D01*
X139075Y104724D02*
X142520Y101279D01*
X139075Y104724D02*
Y106398D01*
X125689Y97244D02*
X131595Y103150D01*
X125689Y83957D02*
Y97244D01*
Y83957D02*
X129823Y79823D01*
X154528Y95866D02*
Y99114D01*
X168701Y57874D02*
Y89566D01*
X162992Y95276D02*
X168701Y89566D01*
X155118Y95276D02*
X162992D01*
X149803Y102559D02*
X158563D01*
X147146Y105217D02*
X149803Y102559D01*
X147146Y105217D02*
Y106398D01*
X139075Y96555D02*
Y100000D01*
X135039Y104035D02*
X139075Y100000D01*
X130500Y131485D02*
X138976Y123009D01*
Y106693D02*
Y123009D01*
X131595Y106398D02*
Y119095D01*
Y103150D02*
Y106398D01*
X124933Y125756D02*
X131595Y119095D01*
X154626Y106398D02*
Y109252D01*
X152973Y110905D02*
X154626Y109252D01*
X151792Y110905D02*
X152973D01*
X151378Y111319D02*
X151792Y110905D01*
X154528Y95866D02*
X155118Y95276D01*
X147343Y100295D02*
X153347D01*
X144095Y103543D02*
X147343Y100295D01*
X153347D02*
X154528Y99114D01*
X144095Y103543D02*
Y123458D01*
X147146Y106398D02*
Y125938D01*
X151181Y111516D02*
Y127507D01*
Y111516D02*
X151378Y111319D01*
X138852Y139836D02*
X151181Y127507D01*
X135039Y110728D02*
Y121378D01*
Y104035D02*
Y110728D01*
X127716Y128701D02*
X135039Y121378D01*
X151279Y59154D02*
Y67520D01*
Y59154D02*
X151378Y59056D01*
X151181Y58859D02*
X151378Y59056D01*
X160039Y57481D02*
X160040Y57481D01*
X160039Y57481D02*
Y64173D01*
X142618Y57973D02*
Y77461D01*
X133284Y134268D02*
X144095Y123458D01*
X142618Y57973D02*
X142717Y57875D01*
X136068Y137016D02*
X147146Y125938D01*
X160925Y70669D02*
X164371Y67224D01*
Y57481D02*
Y67224D01*
X151181Y58859D02*
X151279Y58761D01*
X151181Y58662D02*
X151279Y58761D01*
X151181Y58662D02*
X151476Y58367D01*
X151181Y58072D02*
X151476Y58367D01*
X45079Y140847D02*
X68898D01*
X40157Y143406D02*
X67717D01*
X33071Y145965D02*
X36909D01*
X44390Y140847D02*
X45079D01*
X71884Y143022D02*
X74266Y145404D01*
X71074Y143022D02*
X71884D01*
X68898Y140847D02*
X71074Y143022D01*
X33071Y140847D02*
X44390D01*
X33071Y143406D02*
X40157D01*
X67717D02*
X69185Y144874D01*
Y145891D01*
X71482Y148188D01*
X124933Y125756D02*
Y125917D01*
X136068Y137016D02*
Y137052D01*
D123*
X179105Y211269D02*
G03*
X180512Y214665I-3397J3397D01*
G01*
X193209Y301969D02*
G03*
X193701Y303157I-1188J1188D01*
G01*
X135778Y260236D02*
G03*
X131753Y258569I0J-5692D01*
G01*
X125918Y263869D02*
G03*
X127756Y268307I-4438J4438D01*
G01*
X43504Y222615D02*
G03*
X46427Y215558I9980J0D01*
G01*
X40669Y210180D02*
G03*
X34356Y212795I-6312J-6312D01*
G01*
X597146Y212500D02*
X598130Y213484D01*
X39818Y166634D02*
X46427Y173243D01*
X85433Y68799D02*
X88484Y71850D01*
X85433Y66083D02*
Y68799D01*
X88484Y71850D02*
X90256D01*
X604331Y213779D02*
X604626Y214075D01*
X604331Y205118D02*
Y213779D01*
X350886Y227067D02*
X351575Y226378D01*
X148031Y79528D02*
X148524Y79036D01*
X342126Y40453D02*
Y43701D01*
X261122Y41634D02*
X266437Y46949D01*
X128740Y41634D02*
X261122D01*
X113287Y57087D02*
X128740Y41634D01*
X113287Y57087D02*
Y96358D01*
X115847Y178543D02*
Y203688D01*
X111713Y174409D02*
X115847Y178543D01*
X111713Y146752D02*
Y174409D01*
X466831Y281791D02*
X467126Y282087D01*
X105709Y140748D02*
X111713Y146752D01*
X105709Y103937D02*
Y140748D01*
X156496Y216499D02*
X163907Y223909D01*
X156496Y215354D02*
Y216499D01*
X170669Y143601D02*
Y144882D01*
X168701Y141632D02*
X170669Y143601D01*
X168701Y118898D02*
Y141632D01*
X155709Y57874D02*
Y79528D01*
Y79528D01*
X105709Y103937D02*
X113287Y96358D01*
X115847Y203688D02*
X149987Y237829D01*
X36417Y171457D02*
Y174409D01*
Y171457D02*
X37844Y170029D01*
X31988Y166634D02*
X39818D01*
X403642Y201575D02*
X405413D01*
X386614Y181083D02*
Y211024D01*
X612943Y211663D02*
X612992Y211614D01*
X612943Y211663D02*
Y218455D01*
X612894Y218504D02*
X612943Y218455D01*
X615945Y205118D02*
X618563D01*
X619685Y206240D01*
Y211614D01*
X615938Y191725D02*
X615945Y191718D01*
X613091Y218701D02*
X613091Y218701D01*
X244941Y190256D02*
X252323Y197638D01*
X181299Y190256D02*
X244941D01*
X386614Y180905D02*
Y181083D01*
X377362Y220276D02*
X386614Y211024D01*
X270768Y192717D02*
X328563D01*
X341240Y120472D02*
Y125098D01*
X342618Y100295D02*
X342815Y100098D01*
X348031D01*
X348228Y99902D01*
X342421Y100492D02*
X342618Y100295D01*
X337303Y100492D02*
X342421D01*
X337106Y100689D02*
X337303Y100492D01*
X272933Y56988D02*
X328839D01*
X252323Y197638D02*
X262992D01*
X263976Y198622D01*
X264026Y198573D01*
Y191781D02*
Y198573D01*
Y191781D02*
X264075Y191732D01*
X353238Y201033D02*
X353386Y201181D01*
X343160Y201033D02*
X353238D01*
X343012Y200886D02*
X343160Y201033D01*
X207579Y130965D02*
X207677Y130866D01*
X207579Y127559D02*
Y130965D01*
X383858Y181260D02*
X384646D01*
X148524Y71752D02*
Y72835D01*
X147048Y70276D02*
X148524Y71752D01*
X147048Y57481D02*
Y70276D01*
Y57382D02*
Y57481D01*
X148524Y72835D02*
Y79036D01*
X218898Y116240D02*
X226673D01*
X207579Y127559D02*
X218898Y116240D01*
X226673D02*
X226772D01*
X242028Y195276D02*
X245177D01*
X246555Y196653D01*
X250787Y200886D01*
X258366D01*
X265846Y208366D01*
X89685Y280433D02*
Y290158D01*
X442618Y200590D02*
X449311D01*
X407165Y203327D02*
X411862D01*
X405413Y201575D02*
X407165Y203327D01*
X400099Y200984D02*
X403642D01*
X441378Y213327D02*
X442618Y214567D01*
X433216Y213327D02*
X441378D01*
X433148Y208396D02*
X442156D01*
X462402Y291437D02*
X467126Y286713D01*
Y282087D02*
Y286713D01*
X462402Y291437D02*
Y291634D01*
X457480Y281791D02*
X466831D01*
X457382Y281693D02*
X457480Y281791D01*
X457382Y286614D02*
X462402Y291634D01*
Y291791D01*
X457382Y281693D02*
Y286614D01*
X349705Y245965D02*
Y253051D01*
X341752Y227067D02*
X350886D01*
X341994Y227866D02*
X342014Y227847D01*
X400886Y227756D02*
X433216D01*
X404429Y222441D02*
X407677D01*
X403740D02*
X404429D01*
X49902Y76378D02*
X53642Y72638D01*
X177826Y209990D02*
X179105Y211269D01*
X166929Y210138D02*
Y210183D01*
X172259Y215513D01*
Y215558D01*
X130500Y257316D02*
X131753Y258569D01*
X124933Y262884D02*
X125918Y263869D01*
X130500Y257210D02*
Y257316D01*
X135778Y260236D02*
X138976D01*
X46427Y215558D02*
Y215664D01*
Y215558D02*
Y215558D01*
X43504Y222615D02*
Y224902D01*
X40669Y210180D02*
X40859Y209990D01*
X43898Y223228D02*
Y223425D01*
X43701Y223031D02*
X43898Y223228D01*
X31004Y212402D02*
X31496D01*
X31791Y212697D01*
X40753Y209990D02*
X40859D01*
X174701Y164366D02*
Y165127D01*
X169475Y170352D02*
X174701Y165127D01*
X169475Y170352D02*
Y170459D01*
X38442Y217975D02*
X43643Y212774D01*
X91831Y76772D02*
Y87402D01*
X68688Y150972D02*
X68698D01*
X328839Y56988D02*
X342126Y43701D01*
X164855Y175186D02*
X169475Y170565D01*
X164855Y175186D02*
Y177570D01*
X170662Y183377D01*
X173260D01*
X433169Y218374D02*
X433216Y218327D01*
X411862Y208327D02*
X420039D01*
X421850Y210335D01*
X411862Y218327D02*
X421850D01*
X266437Y50492D02*
X272933Y56988D01*
X266437Y46949D02*
Y50492D01*
X91929Y73524D02*
Y76673D01*
X90256Y71850D02*
X91929Y73524D01*
X91831Y76772D02*
X91929Y76673D01*
X85433Y66083D02*
X85472Y66043D01*
X87378Y263692D02*
X90969Y260100D01*
X85721Y263692D02*
X87378D01*
X84634Y262605D02*
X85721Y263692D01*
X84634Y260974D02*
Y262605D01*
Y260974D02*
X88185Y257423D01*
Y257316D02*
Y257423D01*
X403642Y208268D02*
X403671Y208297D01*
X411833D01*
X411862Y208327D01*
X173260Y183377D02*
X177826Y178811D01*
X346063Y4429D02*
Y11024D01*
X315354Y4429D02*
X315404Y4478D01*
Y10974D01*
X315453Y11024D01*
X339370D02*
Y16339D01*
X341240Y18209D01*
X345472D01*
X322146Y11024D02*
X327756D01*
X329331Y12598D01*
Y18504D01*
X349035Y26693D02*
X349252Y26476D01*
X348819Y33957D02*
X349035Y33740D01*
X349232Y26693D02*
Y33740D01*
X348819Y33957D02*
Y40650D01*
X348819Y40650D01*
X332382Y34055D02*
X332480Y33957D01*
X332382Y34055D02*
Y40650D01*
X333110Y26772D02*
Y33327D01*
X309006Y40699D02*
X325640D01*
X335433Y130905D02*
X341240Y125098D01*
X177826Y209931D02*
Y209990D01*
X494193Y84547D02*
Y104724D01*
X397342Y224213D02*
X400886Y227756D01*
X397342Y203740D02*
Y224213D01*
Y203740D02*
X400099Y200984D01*
X433216Y218327D02*
Y227756D01*
X403406Y201772D02*
X403622Y201555D01*
X433216Y227756D02*
X452067D01*
X454823Y225000D01*
X351426Y281251D02*
X360777D01*
X361516Y280512D01*
X454823Y214370D02*
Y225000D01*
Y208858D02*
Y214370D01*
X454626Y214567D02*
X454823Y214370D01*
X449311Y214567D02*
X454626D01*
X453642Y207677D02*
X454823Y208858D01*
X450689Y207677D02*
X453642D01*
X442618Y221260D02*
X449311D01*
D124*
X182996Y209592D02*
G03*
X185925Y216663I-7071J7071D01*
G01*
X321171Y159350D02*
X324016D01*
X101083Y161085D02*
Y227165D01*
X157484Y242614D02*
X162205Y237894D01*
Y237894D02*
Y237894D01*
X262008Y33760D02*
X270866Y24902D01*
X124016Y33760D02*
X262008Y33760D01*
X106004Y51772D02*
X124016Y33760D01*
X57185Y51772D02*
X106004D01*
X53150Y55807D02*
X57185Y51772D01*
X322096Y4478D02*
X339272D01*
X330020Y126969D02*
X332776Y124213D01*
X329429Y127559D02*
X330020Y126969D01*
X329429Y133366D02*
X333957Y137894D01*
X329429Y127559D02*
Y133366D01*
X332776Y117972D02*
Y124213D01*
X332716Y117913D02*
X332776Y117972D01*
X319488Y126969D02*
X330020D01*
X319488Y123524D02*
Y126969D01*
X318543Y122579D02*
X319488Y123524D01*
X318543Y118012D02*
Y122579D01*
X318445Y117913D02*
X318543Y118012D01*
X304724Y99803D02*
X304744Y99823D01*
X377854Y36811D02*
X377953Y36909D01*
X377854Y30906D02*
Y36811D01*
X377756Y30807D02*
X377854Y30906D01*
X362992Y37008D02*
X363140Y36860D01*
X39469Y152067D02*
X46063D01*
X37992Y150591D02*
X39469Y152067D01*
X37992Y147047D02*
Y150591D01*
X176013Y169488D02*
X179842D01*
X236122Y177855D02*
X236378Y178110D01*
X210079Y177913D02*
X210138Y177855D01*
X209862Y178130D02*
X210079Y177913D01*
X172259Y173243D02*
X176013Y169488D01*
X46063Y152067D02*
X50098D01*
X56004Y146161D01*
X392224Y37008D02*
X392274Y36959D01*
Y30856D02*
Y36959D01*
Y30856D02*
X392323Y30807D01*
X363140Y30856D02*
Y36860D01*
Y30856D02*
X363189Y30807D01*
X101083Y227165D02*
X113673Y239756D01*
X79834Y139836D02*
X101083Y161085D01*
X113673Y239756D02*
Y244400D01*
X50394Y110396D02*
X79834Y139836D01*
X79429Y276083D02*
X80921D01*
X83381Y273622D01*
X89567D01*
X96063D01*
X113673Y256012D01*
Y244400D02*
Y256012D01*
X322047Y4429D02*
X322096Y4478D01*
X180610Y207206D02*
X182996Y209592D01*
X127716Y260100D02*
X132529Y264912D01*
X56004Y146161D02*
X63888D01*
X68698Y150972D01*
X179134Y169587D02*
Y171935D01*
X50394Y110236D02*
Y110396D01*
X46161Y71063D02*
X50197D01*
X43504Y73721D02*
X46161Y71063D01*
X43504Y73721D02*
Y103347D01*
X50394Y110236D01*
X175042Y176027D02*
X179134Y171935D01*
X50197Y71063D02*
X53150Y68110D01*
Y55807D02*
Y68110D01*
X333957Y137894D02*
Y149409D01*
X324016Y159350D02*
X333957Y149409D01*
X270866Y24902D02*
X319390Y25000D01*
X339272Y4528D02*
X339370Y4429D01*
X320384Y153839D02*
Y158563D01*
X321171Y159350D01*
D125*
X38386Y218110D02*
G03*
X38442Y217975I191J0D01*
G01*
X32087Y233318D02*
G03*
X38386Y218110I21507J0D01*
G01*
X32087Y282776D02*
Y337402D01*
X32087Y233318D02*
Y235236D01*
X32087Y273130D02*
X32087Y235236D01*
D126*
X609998Y21419D02*
G03*
X610000Y21417I2283J2279D01*
G01*
X342028Y159350D02*
X342323Y159646D01*
X335138Y173622D02*
X341831Y166929D01*
X300098Y173622D02*
X335138D01*
X297539Y176181D02*
X300098Y173622D01*
X294882Y176181D02*
X297539D01*
X120669Y175492D02*
Y192815D01*
X116043Y170866D02*
X120669Y175492D01*
X116043Y162205D02*
Y170866D01*
Y162205D02*
X117421Y160827D01*
X604528Y32087D02*
X609842Y26772D01*
X537402Y32087D02*
X604528D01*
X525689Y43799D02*
X537402Y32087D01*
X349065Y123573D02*
Y134104D01*
Y123573D02*
X349705Y122933D01*
X461319Y95473D02*
Y123819D01*
X458760Y126378D02*
X461319Y123819D01*
X446457Y126378D02*
X458760D01*
X451673Y85827D02*
X461319Y95473D01*
X438091Y85827D02*
X451673D01*
X505315Y52362D02*
Y100000D01*
Y52362D02*
X513878Y43799D01*
X500591Y104724D02*
X505315Y100000D01*
X513878Y43799D02*
X525689D01*
X357480Y245866D02*
Y253937D01*
X351876Y240262D02*
X357480Y245866D01*
X340990Y240262D02*
X351876D01*
X214272Y98228D02*
X220276Y104232D01*
X190551Y91437D02*
X199902D01*
X203937Y95472D01*
Y108071D01*
X203839Y108169D02*
X203937Y108071D01*
X214272Y85630D02*
Y98228D01*
X349065Y134104D02*
X349114Y134153D01*
X342421Y159547D02*
X349803D01*
X342323Y159646D02*
X342421Y159547D01*
X341831D02*
Y166929D01*
X494193Y104724D02*
X500591D01*
X461417D02*
X494193D01*
X444488Y124409D02*
X446457Y126378D01*
X444488Y111811D02*
Y124409D01*
X609842Y21575D02*
Y26772D01*
X609055Y22362D02*
X609842Y21575D01*
X461417Y118898D02*
X479134D01*
X342028Y159350D02*
X342421Y158957D01*
X341919Y159458D02*
X342028Y159350D01*
X341831Y159547D02*
X341919Y159458D01*
Y154035D02*
Y159458D01*
X364173Y253937D02*
X370866D01*
X357480D02*
X364173D01*
X357480Y253937D02*
Y254724D01*
Y253937D02*
Y253937D01*
D127*
X131595Y106595D02*
D03*
X139075D02*
D03*
Y96358D02*
D03*
X135335D02*
D03*
X131595D02*
D03*
X147146Y106595D02*
D03*
X154626D02*
D03*
Y96358D02*
D03*
X150886D02*
D03*
X147146D02*
D03*
D128*
X644390Y262401D02*
D03*
X673524D02*
D03*
D129*
X667185D02*
D03*
X650649D02*
D03*
D130*
X467028Y6791D02*
D03*
Y13484D02*
D03*
X337106Y93996D02*
D03*
Y100689D02*
D03*
X311811Y99114D02*
D03*
Y92421D02*
D03*
X305020Y105807D02*
D03*
Y99114D02*
D03*
X348228Y106595D02*
D03*
Y99902D02*
D03*
X361516Y280512D02*
D03*
Y273819D02*
D03*
X368209Y273819D02*
D03*
Y280512D02*
D03*
X318996Y192303D02*
D03*
Y185610D02*
D03*
X367913Y189469D02*
D03*
Y182776D02*
D03*
X392126Y180905D02*
D03*
Y174213D02*
D03*
X370866Y253937D02*
D03*
Y260630D02*
D03*
X357480Y260630D02*
D03*
Y253937D02*
D03*
X604331Y198425D02*
D03*
Y205118D02*
D03*
X597047D02*
D03*
Y198425D02*
D03*
X403642Y214961D02*
D03*
Y221654D02*
D03*
X442618Y221260D02*
D03*
Y214567D02*
D03*
Y200590D02*
D03*
Y207283D02*
D03*
X349114Y141437D02*
D03*
Y134744D02*
D03*
X341240Y120472D02*
D03*
Y113779D02*
D03*
X89567Y280315D02*
D03*
Y273622D02*
D03*
X31890Y174508D02*
D03*
Y167815D02*
D03*
X197146Y108169D02*
D03*
Y114862D02*
D03*
X203839Y114862D02*
D03*
Y108169D02*
D03*
X402165Y13287D02*
D03*
Y6595D02*
D03*
X250000Y134449D02*
D03*
Y141142D02*
D03*
X343012Y207579D02*
D03*
Y200886D02*
D03*
X364173Y260630D02*
D03*
Y253937D02*
D03*
X439764Y181004D02*
D03*
Y174311D02*
D03*
X351575Y220276D02*
D03*
Y226969D02*
D03*
X643209Y233858D02*
D03*
Y227165D02*
D03*
X403642Y207677D02*
D03*
Y200984D02*
D03*
X17323Y182382D02*
D03*
Y189075D02*
D03*
X190453Y114862D02*
D03*
Y108169D02*
D03*
D131*
X612992Y211614D02*
D03*
X619685D02*
D03*
X273327Y61614D02*
D03*
X280020D02*
D03*
X306102Y70177D02*
D03*
X312795D02*
D03*
X289961Y65453D02*
D03*
X296654D02*
D03*
X532283Y63583D02*
D03*
X525591D02*
D03*
X525591Y70669D02*
D03*
X532283D02*
D03*
X18110Y283366D02*
D03*
X24803D02*
D03*
X315453Y11024D02*
D03*
X322146D02*
D03*
X332480Y33957D02*
D03*
X325787D02*
D03*
X332382Y40650D02*
D03*
X325689D02*
D03*
X263976Y198622D02*
D03*
X270669D02*
D03*
X270768Y191732D02*
D03*
X264075D02*
D03*
X346063Y11024D02*
D03*
X339370D02*
D03*
X348819Y33957D02*
D03*
X342126D02*
D03*
X348819Y40650D02*
D03*
X342126D02*
D03*
X63878Y83366D02*
D03*
X70571D02*
D03*
X56595D02*
D03*
X49902D02*
D03*
X77854D02*
D03*
X84547D02*
D03*
X377756Y30807D02*
D03*
X384449D02*
D03*
X392323D02*
D03*
X399016D02*
D03*
X363189D02*
D03*
X369882D02*
D03*
X328937Y263287D02*
D03*
X335630D02*
D03*
X625689Y170374D02*
D03*
X618996D02*
D03*
X612894Y218504D02*
D03*
X619587D02*
D03*
X532283Y56890D02*
D03*
X525591D02*
D03*
X472933Y60039D02*
D03*
X479626D02*
D03*
X335138Y159547D02*
D03*
X341831D02*
D03*
X321358Y159547D02*
D03*
X314665D02*
D03*
X17913Y290354D02*
D03*
X24606D02*
D03*
X178445Y296457D02*
D03*
X185138D02*
D03*
X178445Y303346D02*
D03*
X185138D02*
D03*
X473819Y281693D02*
D03*
X467126D02*
D03*
X450689Y281693D02*
D03*
X457382D02*
D03*
X63878Y76772D02*
D03*
X70571D02*
D03*
X56595D02*
D03*
X49902D02*
D03*
X77854Y76772D02*
D03*
X84547D02*
D03*
X91831Y76772D02*
D03*
X98524D02*
D03*
X148524Y79528D02*
D03*
X155217D02*
D03*
X148524Y72835D02*
D03*
X155217D02*
D03*
D132*
X597146Y213681D02*
D03*
X604626D02*
D03*
X581496Y74213D02*
D03*
X588976D02*
D03*
X392717Y164173D02*
D03*
X385236D02*
D03*
D133*
X654113Y191718D02*
D03*
X302821Y226862D02*
D03*
D134*
X615945Y178318D02*
D03*
Y185018D02*
D03*
Y191718D02*
D03*
Y198418D02*
D03*
Y205118D02*
D03*
X340990Y240262D02*
D03*
Y233562D02*
D03*
Y226862D02*
D03*
Y220162D02*
D03*
Y213462D02*
D03*
D135*
X637788Y73938D02*
D03*
D136*
X624388Y112106D02*
D03*
X631088D02*
D03*
X637788D02*
D03*
X644488D02*
D03*
X651188D02*
D03*
D137*
X455217Y262992D02*
D03*
Y251181D02*
D03*
D138*
X236122Y181024D02*
D03*
Y206221D02*
D03*
X210138Y181024D02*
D03*
Y206221D02*
D03*
D139*
X328937Y108858D02*
D03*
X325157Y117913D02*
D03*
X332716D02*
D03*
X314665Y108858D02*
D03*
X310886Y117913D02*
D03*
X318445D02*
D03*
X329331Y18110D02*
D03*
X325551Y27165D02*
D03*
X333110D02*
D03*
X345472Y18110D02*
D03*
X341693Y27165D02*
D03*
X349252D02*
D03*
D140*
X327953Y95374D02*
D03*
X318898Y91594D02*
D03*
Y99154D02*
D03*
D141*
X33071Y145965D02*
D03*
Y143406D02*
D03*
Y140847D02*
D03*
Y138287D02*
D03*
Y135728D02*
D03*
D142*
X22441Y144783D02*
D03*
Y136909D02*
D03*
D143*
Y152264D02*
D03*
Y129429D02*
D03*
D144*
X207598Y131102D02*
D03*
X200118D02*
D03*
X203858Y122441D02*
D03*
X360866Y201181D02*
D03*
X353386D02*
D03*
X357126Y192520D02*
D03*
X360827Y182677D02*
D03*
X353346D02*
D03*
X357087Y174016D02*
D03*
D145*
X580807Y184941D02*
D03*
Y212500D02*
D03*
X478740Y191240D02*
D03*
Y163681D02*
D03*
D146*
X645768Y288386D02*
D03*
X673327D02*
D03*
X601476Y158169D02*
D03*
X573917D02*
D03*
D147*
X254921Y205650D02*
D03*
Y192776D02*
D03*
D148*
X96537Y265668D02*
D03*
X38075Y207206D02*
D03*
X122149Y123133D02*
D03*
X180610Y181595D02*
D03*
X40859Y209990D02*
D03*
X43643Y212774D02*
D03*
X46427Y215558D02*
D03*
X49211Y218342D02*
D03*
X51995Y221126D02*
D03*
X54779Y223909D02*
D03*
X57563Y226693D02*
D03*
X60346Y229477D02*
D03*
X63130Y232261D02*
D03*
X65914Y235045D02*
D03*
X68698Y237829D02*
D03*
X71482Y240613D02*
D03*
X74266Y243397D02*
D03*
X77050Y246181D02*
D03*
X79834Y248965D02*
D03*
X82617Y251748D02*
D03*
X85401Y254532D02*
D03*
X88185Y257316D02*
D03*
X90969Y260100D02*
D03*
X93753Y262884D02*
D03*
X177826Y178811D02*
D03*
X175042Y176027D02*
D03*
X172259Y173243D02*
D03*
X169475Y170459D02*
D03*
X166691Y167675D02*
D03*
X163907Y164891D02*
D03*
X161123Y162107D02*
D03*
X158339Y159323D02*
D03*
X155555Y156539D02*
D03*
X152771Y153756D02*
D03*
X149987Y150972D02*
D03*
X147204Y148188D02*
D03*
X144420Y145404D02*
D03*
X141636Y142620D02*
D03*
X138852Y139836D02*
D03*
X136068Y137052D02*
D03*
X133284Y134268D02*
D03*
X130500Y131485D02*
D03*
X127716Y128701D02*
D03*
X124933Y125917D02*
D03*
D149*
X122149Y265668D02*
D03*
X180610Y207206D02*
D03*
X96537Y123133D02*
D03*
X124933Y262884D02*
D03*
X127716Y260100D02*
D03*
X130500Y257316D02*
D03*
X133284Y254532D02*
D03*
X136068Y251748D02*
D03*
X138852Y248965D02*
D03*
X141636Y246181D02*
D03*
X144420Y243397D02*
D03*
X147204Y240613D02*
D03*
X149987Y237829D02*
D03*
X152771Y235045D02*
D03*
X155555Y232261D02*
D03*
X158339Y229477D02*
D03*
X161123Y226693D02*
D03*
X163907Y223909D02*
D03*
X166691Y221126D02*
D03*
X169475Y218342D02*
D03*
X172259Y215558D02*
D03*
X175042Y212774D02*
D03*
X177826Y209990D02*
D03*
X93753Y125917D02*
D03*
X90969Y128701D02*
D03*
X88185Y131485D02*
D03*
X85401Y134268D02*
D03*
X82617Y137052D02*
D03*
X79834Y139836D02*
D03*
X77050Y142620D02*
D03*
X74266Y145404D02*
D03*
X71482Y148188D02*
D03*
X68698Y150972D02*
D03*
X65914Y153756D02*
D03*
X63130Y156539D02*
D03*
X60346Y159323D02*
D03*
X57563Y162107D02*
D03*
X54779Y164891D02*
D03*
X51995Y167675D02*
D03*
X49211Y170459D02*
D03*
X46427Y173243D02*
D03*
X43643Y176027D02*
D03*
X40859Y178811D02*
D03*
D150*
X383858Y173779D02*
D03*
Y181260D02*
D03*
X375197Y177520D02*
D03*
X328563Y193071D02*
D03*
Y185591D02*
D03*
X337224Y189331D02*
D03*
D151*
X558807Y59350D02*
D03*
Y61910D02*
D03*
Y64468D02*
D03*
Y67028D02*
D03*
X581941D02*
D03*
Y64468D02*
D03*
Y61910D02*
D03*
Y59350D02*
D03*
D152*
X449311Y221260D02*
D03*
Y214567D02*
D03*
Y207283D02*
D03*
Y200590D02*
D03*
D153*
X315354Y4429D02*
D03*
X322047D02*
D03*
X346063D02*
D03*
X339370D02*
D03*
D154*
X349803Y260630D02*
D03*
Y253150D02*
D03*
X185925Y288780D02*
D03*
Y281299D02*
D03*
X32087Y281594D02*
D03*
Y274114D02*
D03*
D155*
X662205Y316142D02*
D03*
X673228D02*
D03*
X673228Y305807D02*
D03*
X662205D02*
D03*
D156*
X157484Y242614D02*
D03*
X152752Y247347D02*
D03*
D157*
X179197Y168862D02*
D03*
X174464Y164130D02*
D03*
D158*
X342008Y153248D02*
D03*
Y150689D02*
D03*
Y148130D02*
D03*
Y145571D02*
D03*
Y143012D02*
D03*
Y140453D02*
D03*
Y137894D02*
D03*
X319410D02*
D03*
Y140453D02*
D03*
Y143012D02*
D03*
Y145571D02*
D03*
Y148130D02*
D03*
Y150689D02*
D03*
Y153248D02*
D03*
D159*
X476279Y14370D02*
D03*
Y50591D02*
D03*
D160*
X250100Y120079D02*
D03*
X325887Y281890D02*
D03*
D161*
X274900Y129179D02*
D03*
Y120179D02*
D03*
Y111179D02*
D03*
X350687Y290990D02*
D03*
Y281990D02*
D03*
Y272990D02*
D03*
D162*
X533661Y263484D02*
D03*
Y224114D02*
D03*
D163*
X546654Y183563D02*
D03*
X507283D02*
D03*
D164*
X453937Y181102D02*
D03*
Y164173D02*
D03*
D165*
X550197Y59449D02*
D03*
Y63189D02*
D03*
Y66929D02*
D03*
X539961D02*
D03*
Y59449D02*
D03*
Y63189D02*
D03*
D166*
X466772Y273622D02*
D03*
X473780D02*
D03*
X457539Y273425D02*
D03*
X450531D02*
D03*
D167*
X255020Y178189D02*
D03*
Y185197D02*
D03*
D168*
X186812Y55512D02*
D03*
D169*
X190355Y17717D02*
D03*
X129331Y17481D02*
D03*
D170*
X129134Y55512D02*
D03*
D171*
X134056Y57481D02*
D03*
X138386D02*
D03*
X142717D02*
D03*
X147048D02*
D03*
X151379D02*
D03*
X155709D02*
D03*
X160040D02*
D03*
X164371D02*
D03*
X168701D02*
D03*
D172*
X106201Y62303D02*
D03*
X46752D02*
D03*
D173*
X106201Y29429D02*
D03*
Y8563D02*
D03*
X46752D02*
D03*
Y29429D02*
D03*
D174*
X98721Y62815D02*
D03*
D175*
X89410Y66043D02*
D03*
X85472D02*
D03*
X81535D02*
D03*
X77598D02*
D03*
X70571D02*
D03*
X65039D02*
D03*
X61102D02*
D03*
D176*
X79429Y276083D02*
D03*
X235236Y119783D02*
D03*
X282480Y185295D02*
D03*
X399902Y278543D02*
D03*
X337894Y251279D02*
D03*
X436417Y250886D02*
D03*
X517126Y63583D02*
D03*
X630610Y235433D02*
D03*
D177*
X181545Y116978D02*
D03*
X155905Y87795D02*
D03*
X23228Y176476D02*
D03*
X23228Y166535D02*
D03*
X163189Y259941D02*
D03*
X162992Y251378D02*
D03*
X628937Y10531D02*
D03*
X646654D02*
D03*
X472736Y247342D02*
D03*
X543110Y291634D02*
D03*
X387992Y10531D02*
D03*
X370276D02*
D03*
X453346D02*
D03*
X435630D02*
D03*
X517915D02*
D03*
X500198D02*
D03*
X420079Y277461D02*
D03*
X89685Y290158D02*
D03*
X357874Y127972D02*
D03*
X378189Y66831D02*
D03*
X368189D02*
D03*
X358189D02*
D03*
X388189D02*
D03*
X398189D02*
D03*
X454724Y50098D02*
D03*
X444882D02*
D03*
X435039D02*
D03*
X425197D02*
D03*
X415354D02*
D03*
X540000Y11417D02*
D03*
Y21417D02*
D03*
X550000Y11417D02*
D03*
Y21417D02*
D03*
X560000Y11417D02*
D03*
Y21417D02*
D03*
X570000Y11417D02*
D03*
Y21417D02*
D03*
X580000Y11417D02*
D03*
Y21417D02*
D03*
X590000Y11417D02*
D03*
Y21417D02*
D03*
X600000Y11417D02*
D03*
Y21417D02*
D03*
X610000Y11417D02*
D03*
X512008Y301476D02*
D03*
X665354Y140650D02*
D03*
D178*
X66831Y99705D02*
D03*
Y97146D02*
D03*
Y94587D02*
D03*
X74311D02*
D03*
Y97146D02*
D03*
Y99705D02*
D03*
D179*
X305709Y191831D02*
D03*
X115748Y113878D02*
D03*
X511417Y262992D02*
D03*
X334006Y77264D02*
D03*
X349705Y122933D02*
D03*
X46063Y152067D02*
D03*
X284646Y102953D02*
D03*
X438091Y85827D02*
D03*
X5610Y283366D02*
D03*
X214272Y85630D02*
D03*
X189272Y79921D02*
D03*
X349803Y159547D02*
D03*
D180*
X468701Y265945D02*
D03*
X162205Y237894D02*
D03*
X363779Y207579D02*
D03*
X344943Y189331D02*
D03*
X377953Y36909D02*
D03*
X294882Y176181D02*
D03*
X50394Y110236D02*
D03*
X272244Y140354D02*
D03*
X319390Y25000D02*
D03*
X363091Y37008D02*
D03*
X392224D02*
D03*
X426476Y250886D02*
D03*
X319488Y126969D02*
D03*
X113673Y244400D02*
D03*
D181*
X364272Y49350D02*
D03*
D182*
Y42579D02*
D03*
X372342D02*
D03*
Y50138D02*
D03*
D183*
X612795Y237303D02*
D03*
X576575D02*
D03*
D184*
X625886Y267224D02*
D03*
Y300689D02*
D03*
D185*
X422539Y210827D02*
D03*
D186*
X433216Y218327D02*
D03*
Y213327D02*
D03*
Y208327D02*
D03*
Y203327D02*
D03*
X411862D02*
D03*
Y208327D02*
D03*
Y213327D02*
D03*
Y218327D02*
D03*
D187*
X193110Y67028D02*
X225984D01*
X182185Y77953D02*
X193110Y67028D01*
X182185Y77953D02*
Y98524D01*
X188976Y60925D02*
X203150D01*
X175689Y74213D02*
X188976Y60925D01*
X175689Y74213D02*
Y94488D01*
X190945Y64075D02*
X205610D01*
X179035Y75984D02*
X190945Y64075D01*
X179035Y75984D02*
Y96260D01*
X93599Y125704D02*
X93753D01*
X92020Y118664D02*
X96489Y123133D01*
X84350Y72933D02*
Y76772D01*
X155217Y114961D02*
X175689Y94488D01*
X164370Y116339D02*
X182185Y98524D01*
X159646Y115650D02*
X179035Y96260D01*
X139272Y191142D02*
Y210410D01*
X133858Y185728D02*
X139272Y191142D01*
X133858Y183366D02*
Y185728D01*
X143405Y208976D02*
X161123Y226693D01*
X143405Y189469D02*
Y208976D01*
X130512Y212786D02*
X152771Y235045D01*
X130512Y202854D02*
Y212786D01*
X161123Y162107D02*
X165453Y157778D01*
Y147531D02*
Y157778D01*
X164370Y146448D02*
X165453Y147531D01*
X190453Y114862D02*
X203839D01*
X203839Y122441D02*
Y122539D01*
X139370Y185433D02*
X143405Y189469D01*
X139370Y165650D02*
Y185433D01*
X112500Y138779D02*
X139370Y165650D01*
X96744Y134951D02*
X102165Y129531D01*
Y122656D02*
Y129531D01*
X84547Y105038D02*
X102165Y122656D01*
X161417Y153248D02*
Y153445D01*
X146161Y137992D02*
X161417Y153248D01*
X164370Y116339D02*
Y146448D01*
X153445Y138583D02*
X155217Y136811D01*
Y114961D02*
Y136811D01*
X159646Y115650D02*
Y138091D01*
X129429Y187894D02*
Y191634D01*
X135138Y197343D01*
Y211844D01*
X180717Y117807D02*
Y122590D01*
X179079Y124228D02*
X180717Y122590D01*
X16437Y176279D02*
Y181496D01*
X49211Y170459D02*
X54724Y175972D01*
X17146Y182205D02*
X23228D01*
X17146D02*
X17323Y182382D01*
X16437Y181496D02*
X17146Y182205D01*
X23228Y176476D02*
Y182205D01*
X377382Y67638D02*
X400984Y91240D01*
X594980Y16437D02*
Y24606D01*
X592126Y27461D02*
X594980Y24606D01*
X531102Y27461D02*
X592126D01*
X23720Y118941D02*
X28445Y123665D01*
X23720Y55118D02*
Y118941D01*
Y55118D02*
X32185Y46654D01*
X103839D01*
X269882Y17323D02*
X320669D01*
X323376Y20030D01*
X355217Y13287D02*
Y19094D01*
X351673Y22638D02*
X355217Y19094D01*
X257874Y29331D02*
X269882Y17323D01*
X121161Y29331D02*
X257874D01*
X103839Y46654D02*
X121161Y29331D01*
X28445Y156988D02*
X31890Y160433D01*
Y167815D01*
X180717Y117807D02*
X181545Y116978D01*
X183661Y114862D01*
X229134Y70177D02*
X306102D01*
X272146Y62795D02*
X273327Y61614D01*
X253150Y62795D02*
X272146D01*
X250197Y59842D02*
X253150Y62795D01*
X327953Y95374D02*
X352756D01*
X356299Y98917D02*
Y102559D01*
X352756Y95374D02*
X356299Y98917D01*
X343701Y107972D02*
X357579D01*
X341535D02*
X343701D01*
X338681D02*
X341535D01*
X336319D02*
X338681D01*
X331890Y103543D02*
X336319Y107972D01*
X323228Y103543D02*
X331890D01*
X316142D02*
X323228D01*
X314665Y105020D02*
Y108858D01*
Y105020D02*
X316142Y103543D01*
X329429Y111614D02*
X330020Y112205D01*
X329429Y109350D02*
Y111614D01*
X330020Y112205D02*
X354134D01*
X328937Y108858D02*
X329429Y109350D01*
X280807Y60827D02*
X331890D01*
X225984Y67028D02*
X229134Y70177D01*
X358169Y45571D02*
X360335D01*
X347539Y56201D02*
X358169Y45571D01*
X519291Y39272D02*
X531102Y27461D01*
X411024Y39272D02*
X519291D01*
X406496Y43799D02*
X411024Y39272D01*
X406496Y43799D02*
Y57677D01*
X403613Y60560D02*
X406496Y57677D01*
X341142Y56201D02*
X347539D01*
X356043Y42579D02*
X364272D01*
X345866Y52756D02*
X356043Y42579D01*
X339961Y52756D02*
X345866D01*
X399016Y31102D02*
X497344D01*
X393602Y43406D02*
X399016Y37992D01*
X382579Y43406D02*
X393602D01*
X375846Y50138D02*
X382579Y43406D01*
X386024Y26772D02*
X388484D01*
X384449Y28346D02*
X386024Y26772D01*
X403150D02*
X437106D01*
X384449Y28346D02*
Y30807D01*
Y36909D01*
X378839Y42520D02*
X384449Y36909D01*
X372402Y42520D02*
X378839D01*
X372342Y50138D02*
X375846D01*
X387106Y10531D02*
X387992D01*
X369882Y27756D02*
X387106Y10531D01*
X369882Y27756D02*
Y30807D01*
Y37598D01*
X364901Y42579D02*
X369882Y37598D01*
X364272Y42579D02*
X364901D01*
X384460Y60560D02*
X403613D01*
X372342Y42579D02*
X372402Y42520D01*
X369527Y59744D02*
X372342Y56928D01*
Y50138D02*
Y56928D01*
X378189Y66831D02*
X384460Y60560D01*
X399016Y31496D02*
Y37992D01*
X203839Y122441D02*
X203839Y122441D01*
Y114862D02*
Y122441D01*
X387992Y10531D02*
X394587D01*
X397343Y13287D01*
X402165D01*
X437106Y26772D02*
X453346Y10531D01*
X497344Y31102D02*
X517915Y10531D01*
X588976Y64468D02*
X589075Y64567D01*
X599606Y11417D02*
X600000D01*
X70571Y71358D02*
Y76772D01*
X82677Y71260D02*
X84350Y72933D01*
X448721Y91240D02*
X455905Y98425D01*
X400984Y91240D02*
X448721D01*
X368091Y66831D02*
Y68484D01*
X447933Y95571D02*
X450000Y97638D01*
X395177Y95571D02*
X447933D01*
X368091Y68484D02*
X395177Y95571D01*
X358090Y66831D02*
X391653Y100394D01*
X435827D01*
X372342Y42579D02*
Y44291D01*
X371063Y45571D02*
X372342Y44291D01*
X368701Y45571D02*
X371063D01*
X402165Y12992D02*
Y13287D01*
X589075Y62500D02*
Y64567D01*
X565256Y52559D02*
X577165Y64468D01*
X588484Y61910D02*
X589075Y62500D01*
X526968Y52559D02*
X565256D01*
X346555Y148130D02*
X382480D01*
X382579Y148031D01*
X368110Y150689D02*
X369783Y152362D01*
X346555Y150689D02*
X368110D01*
X594980Y16437D02*
X600000Y11417D01*
X102264Y278937D02*
X118110Y263090D01*
X101624Y279577D02*
X102264Y278937D01*
X289370Y66043D02*
X289961Y65453D01*
X251378Y66043D02*
X289370D01*
X247146Y61811D02*
X251378Y66043D01*
X312795Y70177D02*
X332972D01*
X296654Y65453D02*
X331890D01*
Y60827D02*
X339961Y52756D01*
X280020Y61614D02*
X280807Y60827D01*
X150591Y249311D02*
X152653Y247248D01*
X141636Y246181D02*
X144766Y249311D01*
X150591D01*
X51995Y221126D02*
X92116Y181004D01*
X87743Y190945D02*
X87904D01*
X54779Y223909D02*
X87743Y190945D01*
X100000Y238287D02*
Y262205D01*
X96537Y265668D02*
X100000Y262205D01*
X99803Y282901D02*
Y290158D01*
Y281398D02*
Y282901D01*
X118110Y263090D02*
X119571D01*
X99803Y281398D02*
X101624Y279577D01*
X119571Y263090D02*
X122149Y265668D01*
X135138Y211844D02*
X155555Y232261D01*
X139272Y210410D02*
X158339Y229477D01*
X158465Y255217D02*
X163189Y259941D01*
X162008Y252362D02*
X162992Y251378D01*
X142250Y252362D02*
X162008D01*
X138852Y248965D02*
X142250Y252362D01*
X139536Y255217D02*
X158465D01*
X136068Y251748D02*
X139536Y255217D01*
X36909Y145965D02*
X37992Y147047D01*
X250197Y53445D02*
Y59842D01*
X246161Y49409D02*
X250197Y53445D01*
X332972Y70177D02*
X343406Y59744D01*
X331890Y65453D02*
X341142Y56201D01*
X525787Y53740D02*
Y56693D01*
X525591Y56890D02*
X525787Y56693D01*
Y53740D02*
X526968Y52559D01*
X555118Y55512D02*
X563091D01*
X551181Y59449D02*
X555118Y55512D01*
X550197Y59449D02*
X551181D01*
X539961Y52756D02*
Y59449D01*
X65847Y111122D02*
Y116634D01*
X78902D02*
X90969Y128701D01*
X76378Y116634D02*
X78902D01*
X70571Y119438D02*
X85401Y134268D01*
X78248Y110412D02*
X93753Y125917D01*
X128347Y221756D02*
X147204Y240613D01*
X563091Y55512D02*
X574606Y67028D01*
X217224Y52461D02*
X244193D01*
X205610Y64075D02*
X217224Y52461D01*
X214665Y49409D02*
X246161D01*
X203150Y60925D02*
X214665Y49409D01*
X247146Y55413D02*
Y61811D01*
X244193Y52461D02*
X247146Y55413D01*
X49902Y95177D02*
X65847Y111122D01*
X70571Y83366D02*
Y119438D01*
X123582Y233695D02*
X138852Y248965D01*
X123531Y233695D02*
X123582D01*
X126091Y242061D02*
X126381D01*
X136068Y251748D01*
X78248Y105512D02*
Y110412D01*
X84547Y83366D02*
Y105038D01*
X93753Y125704D02*
Y125917D01*
X84350Y76772D02*
X84547D01*
X49902Y83366D02*
Y95177D01*
X78248Y100543D02*
Y105512D01*
X56595Y74114D02*
Y76772D01*
Y74114D02*
X61122Y69587D01*
X63878Y76772D02*
Y83366D01*
X77854Y76772D02*
Y83366D01*
X77598Y66043D02*
Y76516D01*
X65059Y66063D02*
Y70079D01*
X65039Y66043D02*
X65059Y66063D01*
X63878Y71260D02*
X65059Y70079D01*
X63878Y71260D02*
Y76772D01*
X56595D02*
Y83366D01*
X61122Y66063D02*
Y69587D01*
X61102Y66043D02*
X61122Y66063D01*
X346555Y143012D02*
X352835D01*
X92020Y118664D02*
Y118711D01*
X96489Y123133D02*
X96537D01*
X183661Y114862D02*
X190453D01*
X190453Y114862D02*
X190453Y114862D01*
X333957Y137894D02*
X337795D01*
X343406Y59744D02*
X369527D01*
X352835Y143012D02*
X357874Y137972D01*
X361024Y145571D02*
X364173Y142421D01*
Y134272D02*
Y142421D01*
X357874Y127972D02*
X364173Y134272D01*
X346555Y145571D02*
X361024D01*
X332480Y33957D02*
X333110Y33327D01*
X332382Y40650D02*
X332431Y40600D01*
X308957Y40748D02*
X309006Y40699D01*
X325640D02*
X325689Y40650D01*
X450000Y97638D02*
Y118898D01*
X455905Y98425D02*
Y118504D01*
X74266Y243397D02*
X85721Y231942D01*
X65942Y235045D02*
X77059Y223928D01*
X60346Y229477D02*
X81250Y208574D01*
X57563Y226693D02*
X74108Y210148D01*
X91652Y134951D02*
X96744D01*
X88185Y131485D02*
X91652Y134951D01*
D188*
X580807Y213976D02*
X597047D01*
X579331D02*
X580807D01*
X596850Y205118D02*
X597047Y205315D01*
X186516Y122343D02*
Y142126D01*
X179626Y149016D02*
X186516Y142126D01*
X154724Y79528D02*
X155709D01*
X154921Y79528D02*
X155315Y79921D01*
X113189Y128347D02*
X152520Y167677D01*
X113189Y116437D02*
Y128347D01*
Y116437D02*
X115748Y113878D01*
X152520Y167677D02*
Y172362D01*
X597047Y213976D02*
X597146Y214075D01*
X579331Y213976D02*
X580807Y212500D01*
X597146Y205217D02*
Y212500D01*
X597047Y205118D02*
X597146Y205217D01*
X597047Y205118D02*
Y205315D01*
X392126Y180905D02*
X392126Y180905D01*
X386614Y180905D02*
X392126D01*
X349409Y260433D02*
X350000Y259842D01*
X331102Y244587D02*
X346949Y260433D01*
X384035Y181083D02*
X386614D01*
X175335Y195177D02*
X242028D01*
X152520Y172362D02*
X175335Y195177D01*
X589075Y64567D02*
Y69842D01*
X331102Y208563D02*
X332106Y207559D01*
X331102Y208563D02*
Y244587D01*
X383858Y181260D02*
X384035Y181083D01*
X155561Y87451D02*
X155905Y87795D01*
X155561Y79872D02*
Y87451D01*
X155217Y79528D02*
X155561Y79872D01*
X155709Y79528D02*
X162992D01*
X154724Y79528D02*
X154921D01*
X271654Y262894D02*
X308957D01*
X265846Y257087D02*
X271654Y262894D01*
X265846Y208366D02*
Y257087D01*
X340989Y233563D02*
X340990Y233562D01*
X346949Y260433D02*
X349409D01*
X350000Y260630D02*
X350787D01*
D189*
X466732Y267815D02*
X467717Y266831D01*
X466732Y267815D02*
Y273583D01*
X625689Y170374D02*
Y174845D01*
Y162106D02*
Y170374D01*
X622047Y158465D02*
X625689Y162106D01*
X622216Y178318D02*
X625689Y174845D01*
X332106Y207559D02*
X376791D01*
X381299Y203051D01*
Y197835D02*
Y203051D01*
X475768Y290217D02*
Y292362D01*
X473819Y288268D02*
X475768Y290217D01*
X473819Y281890D02*
Y288268D01*
X473799Y281870D02*
X473819Y281890D01*
X473799Y273642D02*
Y281870D01*
X473780Y273622D02*
X473799Y273642D01*
X475768Y292362D02*
X475787Y292382D01*
D190*
X303740Y105807D02*
Y129823D01*
X186516Y154331D02*
X191831Y149016D01*
X310925Y117913D02*
Y132283D01*
X182185Y158661D02*
X188091D01*
X189665Y160236D01*
X185827Y162598D02*
X185866Y162559D01*
X289508D01*
X323228Y103543D02*
X323327Y103445D01*
X307382Y114665D02*
Y131299D01*
X285531Y153150D02*
X307382Y131299D01*
X194980Y169488D02*
X195866Y168602D01*
X191240Y165650D02*
X291043D01*
X308543Y148150D01*
X190650Y166240D02*
X191240Y165650D01*
X195866Y168602D02*
X293701D01*
X309055Y153248D01*
X191831Y149016D02*
X284547D01*
X287894Y160236D02*
X305118Y143012D01*
X189665Y160236D02*
X287894D01*
X191634Y156693D02*
X286516D01*
X310925Y132283D01*
X195768Y153150D02*
X285531D01*
X284547Y149016D02*
X303740Y129823D01*
X289508Y162559D02*
X306496Y145571D01*
X342008Y150689D02*
X346555D01*
X342008Y148130D02*
X346555D01*
X342008Y145571D02*
X346555D01*
X342008Y143012D02*
X346555D01*
X337795Y137894D02*
X342008D01*
X305118Y143012D02*
X319410D01*
X306496Y145571D02*
X319410D01*
X308543Y148150D02*
X319390D01*
X319410Y148130D01*
X311614Y150689D02*
X319410D01*
X309055Y153248D02*
X311614Y150689D01*
D191*
X673228Y306004D02*
Y334646D01*
D192*
X673524Y262401D02*
Y266338D01*
Y252854D02*
Y262401D01*
X630610Y235433D02*
X656102D01*
X673327Y288386D02*
X673425Y288287D01*
Y266437D02*
Y288287D01*
X656102Y235433D02*
X673524Y252854D01*
X576575Y270669D02*
X577461Y271555D01*
X576575Y236811D02*
Y270669D01*
X597146Y291240D02*
Y300000D01*
X624508Y301279D02*
X630079D01*
X645827Y317028D01*
X597146Y300000D02*
X614173Y317028D01*
X625827D01*
X609547Y267224D02*
X625886D01*
X605217Y271555D02*
X609547Y267224D01*
X597146Y271555D02*
X605217D01*
X623917Y300689D02*
X624508Y301279D01*
D193*
X673327Y288386D02*
Y292323D01*
X580846Y184979D02*
X615906D01*
X580807Y184941D02*
X580846Y184979D01*
X615906D02*
X615945Y185018D01*
X615807Y185156D02*
X615945Y185018D01*
X576575Y187303D02*
Y188287D01*
X540748Y224114D02*
X576575Y188287D01*
X547244Y181004D02*
Y186909D01*
Y181004D02*
X550197Y183957D01*
X554724D01*
X573917Y164764D01*
X476870Y163681D02*
X478346Y165157D01*
X438976Y181201D02*
X453937D01*
X425099Y181496D02*
X425492Y181102D01*
X438976Y181004D02*
Y181102D01*
X509547Y111516D02*
Y142421D01*
X488287Y163681D02*
X509547Y142421D01*
X478740Y163681D02*
X488287D01*
X399705Y237008D02*
Y284055D01*
X341021Y220194D02*
X351575D01*
X573917Y158169D02*
Y164764D01*
X533661Y224114D02*
X540748D01*
X576575Y187303D02*
X578937Y184941D01*
X580807D01*
X597047Y198422D02*
X615941D01*
X597047D02*
Y198425D01*
X615941Y198422D02*
X615945Y198418D01*
X455217Y251575D02*
X457677D01*
X457559Y262126D02*
X457677Y262008D01*
X615945Y178318D02*
X622216D01*
X350787Y260630D02*
X363779D01*
X337224Y189331D02*
X344943D01*
X255020Y185138D02*
Y185315D01*
X436417Y250886D02*
X455217D01*
X293406Y77264D02*
X334006D01*
X590354Y112303D02*
X590354Y112303D01*
X332579Y233563D02*
X340989D01*
X254921Y192224D02*
X254961Y192185D01*
X255020Y184941D02*
Y185138D01*
X255099Y185020D02*
Y185138D01*
X210079Y177913D02*
X210138D01*
X179842Y169488D02*
X188622Y178268D01*
X644488Y112106D02*
Y125000D01*
X627165Y142323D02*
X644488Y125000D01*
X581201Y142323D02*
X627165Y142323D01*
X573917Y149606D02*
X581201Y142323D01*
X573917Y149606D02*
Y158169D01*
X450610Y281693D02*
X450689D01*
X450610Y273504D02*
Y281693D01*
X450531Y273425D02*
X450610Y273504D01*
X457539Y262736D02*
X457677Y262598D01*
X457539Y262736D02*
Y273425D01*
X449508Y290065D02*
X450689Y288883D01*
Y281693D02*
Y288883D01*
Y281693D02*
X450689D01*
X351575Y220194D02*
Y220276D01*
Y216184D02*
Y220194D01*
X348884Y213494D02*
X351575Y216184D01*
X341021Y213494D02*
X348884D01*
X340990Y213462D02*
X341021Y213494D01*
X340990Y220162D02*
X341021Y220194D01*
X392815Y290945D02*
X399705Y284055D01*
X5610Y283366D02*
X5610Y283366D01*
X18110D01*
X351575Y220276D02*
X356299D01*
X631057Y112138D02*
Y121896D01*
X651188Y112106D02*
Y129633D01*
X517126Y63583D02*
Y103937D01*
X509547Y111516D02*
X517126Y103937D01*
X426476Y250886D02*
X436417D01*
X255020Y185138D02*
X255099D01*
X517126Y63583D02*
X525591D01*
X469390Y181299D02*
X478346Y172343D01*
Y165157D02*
Y172343D01*
X433366Y195866D02*
Y202461D01*
X425099Y187599D02*
X433366Y195866D01*
X425099Y181496D02*
Y187599D01*
X454134Y181299D02*
X469390D01*
X453937Y181102D02*
X454134Y181299D01*
X476870Y163681D02*
X478740D01*
X418898Y181201D02*
X425197D01*
X415354Y168307D02*
Y177657D01*
X411221Y164173D02*
X415354Y168307D01*
X392717Y164173D02*
X411221D01*
X255020Y184941D02*
X255099Y185020D01*
X428642Y228839D02*
Y236811D01*
X368209Y290945D02*
X392815D01*
X673425Y266437D02*
X673524Y266338D01*
X631057Y112138D02*
X631088Y112106D01*
X25008Y283661D02*
Y290551D01*
Y292717D02*
Y297724D01*
Y290551D02*
Y292717D01*
X24996Y297736D02*
X25008Y297724D01*
X261220Y140354D02*
X272244D01*
X255905Y135039D02*
X261220Y140354D01*
X357087Y167913D02*
Y174016D01*
Y167913D02*
X360827Y164173D01*
X287106Y120374D02*
X287303Y120177D01*
X287106Y120374D02*
Y125886D01*
X283813Y129179D02*
X287106Y125886D01*
X274900Y129179D02*
X283813D01*
X415354Y177657D02*
X418898Y181201D01*
X360827Y164173D02*
X385236D01*
X425492Y181102D02*
X438976D01*
Y181201D01*
X350687Y290990D02*
X350710Y290967D01*
X368186D01*
X368209Y290945D01*
X644488Y112106D02*
X644572Y112190D01*
D194*
X644390Y262401D02*
X644587Y262205D01*
Y253346D02*
Y262205D01*
X642224Y250984D02*
X644587Y253346D01*
X618405Y250984D02*
X642224D01*
X612795Y237303D02*
Y245374D01*
Y236811D02*
Y237303D01*
Y245374D02*
X618405Y250984D01*
D195*
X328563Y194095D02*
X356557D01*
X357087Y191929D02*
Y193565D01*
X360846Y182697D02*
X360925Y182776D01*
X360827Y182677D02*
X360846Y182697D01*
X360925Y182776D02*
X367913D01*
X360846Y182697D02*
Y200965D01*
X360866Y200984D01*
X558805Y67026D02*
X558807Y67028D01*
X442421Y214764D02*
X443337Y215679D01*
X442224Y208465D02*
X443799D01*
X433148Y208396D02*
X433216Y208327D01*
X442156Y208396D02*
X442224Y208465D01*
X402658Y213583D02*
X411606D01*
X411862Y213327D01*
X532283Y56890D02*
Y63583D01*
X544685Y64855D02*
Y70276D01*
X531890Y71457D02*
X543504D01*
X546351Y63189D02*
X550197D01*
X544685Y64855D02*
X546351Y63189D01*
X543504Y71457D02*
X544685Y70276D01*
X151181Y58072D02*
X151379Y57874D01*
X367913Y175886D02*
Y182776D01*
Y175886D02*
X370020Y173779D01*
X383661D01*
X356557Y194095D02*
X357087Y193565D01*
X391910Y173779D02*
X392126Y173996D01*
X383661Y173779D02*
X391910D01*
X532283Y63583D02*
X532283Y63583D01*
X532480Y63386D01*
X539764D01*
X539961Y63189D01*
X352811Y273622D02*
X361516D01*
X366437D02*
X367520Y274705D01*
X351869Y274565D02*
X352811Y273622D01*
X361516D02*
X366437D01*
X367520Y274705D02*
X368209Y275394D01*
Y273819D02*
X368996D01*
D196*
X282658Y185354D02*
X330295D01*
X282480Y185532D02*
X282658Y185354D01*
X332972Y182677D02*
X352795D01*
X330295Y185354D02*
X332972Y182677D01*
X254921Y185374D02*
Y192185D01*
X254961Y185374D02*
X255020Y185315D01*
X282461D02*
X282480Y185295D01*
X255197Y185315D02*
X282461D01*
D197*
X588976Y69941D02*
Y100787D01*
X590354Y102165D02*
Y112303D01*
X588976Y100787D02*
X590354Y102165D01*
D198*
X586024Y116634D02*
X590354Y112303D01*
X557283Y116634D02*
X586024D01*
X220276Y104232D02*
X227559D01*
X233366D01*
X193701Y303157D02*
Y337598D01*
D199*
X188622Y178268D02*
X236201D01*
X238937Y178209D01*
X255000D01*
X255020Y178189D01*
D200*
X550293Y67026D02*
X558805D01*
X581941Y64468D02*
X588976D01*
X577165D02*
X581941D01*
Y61910D02*
X588484D01*
X574606Y67028D02*
X581941D01*
D201*
X185925Y296457D02*
Y337795D01*
Y289567D02*
Y296457D01*
Y216663D02*
Y280512D01*
X133169Y265453D02*
X141781Y274163D01*
D202*
X378543Y116634D02*
X407283D01*
X374213Y112303D02*
X378543Y116634D01*
X407283D02*
Y131988D01*
X439291Y163996D02*
X453760D01*
X407283Y131988D02*
X439291Y163996D01*
D203*
X466732Y273583D02*
X466772Y273622D01*
D204*
X673228Y19685D02*
D03*
X19685D02*
D03*
X236221Y255906D02*
D03*
D205*
X624016Y20374D02*
D03*
X651575D02*
D03*
X392913D02*
D03*
X365354D02*
D03*
X458268D02*
D03*
X430709D02*
D03*
X522836D02*
D03*
X495277D02*
D03*
D206*
X668057Y207163D02*
D03*
Y199289D02*
D03*
Y191415D02*
D03*
Y183541D02*
D03*
Y175667D02*
D03*
X658608Y207163D02*
D03*
Y199289D02*
D03*
Y191415D02*
D03*
Y183541D02*
D03*
Y175667D02*
D03*
X649159Y207163D02*
D03*
Y199289D02*
D03*
Y191415D02*
D03*
Y183541D02*
D03*
Y175667D02*
D03*
X639710D02*
D03*
Y183541D02*
D03*
Y191415D02*
D03*
Y199289D02*
D03*
Y207163D02*
D03*
X653233Y59995D02*
D03*
X645359D02*
D03*
X637485D02*
D03*
X629611D02*
D03*
X621737D02*
D03*
X653233Y69443D02*
D03*
X645359D02*
D03*
X637485D02*
D03*
X629611D02*
D03*
X621737D02*
D03*
X653233Y78892D02*
D03*
X645359D02*
D03*
X637485D02*
D03*
X629611D02*
D03*
X621737D02*
D03*
Y88341D02*
D03*
X629611D02*
D03*
X637485D02*
D03*
X645359D02*
D03*
X653233D02*
D03*
X288878Y211417D02*
D03*
Y219291D02*
D03*
Y227165D02*
D03*
Y235039D02*
D03*
Y242913D02*
D03*
X298327Y211417D02*
D03*
Y219291D02*
D03*
Y227165D02*
D03*
Y235039D02*
D03*
Y242913D02*
D03*
X307776Y211417D02*
D03*
Y219291D02*
D03*
Y227165D02*
D03*
Y235039D02*
D03*
Y242913D02*
D03*
X317224D02*
D03*
Y235039D02*
D03*
Y227165D02*
D03*
Y219291D02*
D03*
Y211417D02*
D03*
X130315Y90256D02*
D03*
X186516Y153937D02*
D03*
X170669Y144882D02*
D03*
X116043Y170866D02*
D03*
X117421Y160827D02*
D03*
X156496Y215354D02*
D03*
X100984Y201673D02*
D03*
X130512Y202854D02*
D03*
X153445Y138583D02*
D03*
X159646Y138091D02*
D03*
X120669Y192815D02*
D03*
X129429Y187894D02*
D03*
X133858Y183366D02*
D03*
X168701Y118898D02*
D03*
X182185Y158661D02*
D03*
X185827Y162598D02*
D03*
X126091Y242061D02*
D03*
X123531Y233695D02*
D03*
X355217Y13287D02*
D03*
X181299Y190256D02*
D03*
X179626Y149016D02*
D03*
X179079Y124228D02*
D03*
X112500Y138779D02*
D03*
X342618Y100295D02*
D03*
X194980Y169488D02*
D03*
X119685Y102264D02*
D03*
X374311Y185827D02*
D03*
X162992Y79528D02*
D03*
X449114Y62106D02*
D03*
X146949Y89961D02*
D03*
X90847Y215650D02*
D03*
X99410Y145177D02*
D03*
X108465Y202953D02*
D03*
X100000Y238287D02*
D03*
X626083Y344980D02*
D03*
X509842D02*
D03*
X65945Y273228D02*
D03*
Y286221D02*
D03*
Y299213D02*
D03*
X82874D02*
D03*
X101772D02*
D03*
X556496Y87205D02*
D03*
X530512D02*
D03*
X543504D02*
D03*
X483366Y146949D02*
D03*
X446063D02*
D03*
X623917Y283366D02*
D03*
X683957Y250197D02*
D03*
Y278740D02*
D03*
Y311024D02*
D03*
X645571Y344980D02*
D03*
X610335D02*
D03*
X594783D02*
D03*
X574705D02*
D03*
X556398D02*
D03*
X486221D02*
D03*
X462598D02*
D03*
X438976D02*
D03*
X415354D02*
D03*
X277165Y285728D02*
D03*
X247244Y217913D02*
D03*
X234252D02*
D03*
X220472D02*
D03*
X264173Y285728D02*
D03*
X251181D02*
D03*
X238189D02*
D03*
X6004Y7579D02*
D03*
Y34055D02*
D03*
X527362Y188878D02*
D03*
X524705Y146949D02*
D03*
X562402D02*
D03*
X604724Y116240D02*
D03*
X676673Y110236D02*
D03*
Y120669D02*
D03*
X203248Y7579D02*
D03*
X118110D02*
D03*
Y18898D02*
D03*
X35335Y7579D02*
D03*
X5906Y57677D02*
D03*
Y69488D02*
D03*
Y81299D02*
D03*
Y93110D02*
D03*
Y104921D02*
D03*
X349705Y245965D02*
D03*
X5906Y45866D02*
D03*
X191634Y156693D02*
D03*
X195768Y153150D02*
D03*
X190650Y166240D02*
D03*
X91831Y87402D02*
D03*
X128347Y221756D02*
D03*
X203248Y18898D02*
D03*
X190551Y91437D02*
D03*
X186516Y122343D02*
D03*
X327362Y144882D02*
D03*
X312992Y137894D02*
D03*
X316732Y167815D02*
D03*
X327756D02*
D03*
X357185Y54528D02*
D03*
X422933Y113484D02*
D03*
X464370Y86221D02*
D03*
X500591Y69488D02*
D03*
X30276Y60382D02*
D03*
Y72973D02*
D03*
X325689Y50689D02*
D03*
X334547Y16732D02*
D03*
X226673Y116240D02*
D03*
X335433Y130905D02*
D03*
X479134Y118898D02*
D03*
X444488Y111811D02*
D03*
X494193Y84547D02*
D03*
X77059Y223928D02*
D03*
X85721Y231942D02*
D03*
D207*
X622047Y158465D02*
D03*
X485335Y207874D02*
D03*
X227559Y104232D02*
D03*
X425197Y181201D02*
D03*
X368209Y290945D02*
D03*
D208*
X622047Y148622D02*
D03*
X384252Y49606D02*
D03*
X485335Y217717D02*
D03*
X295177Y120177D02*
D03*
X227559Y94390D02*
D03*
X425197Y173327D02*
D03*
X390059Y225295D02*
D03*
X368209Y298819D02*
D03*
X391240Y197244D02*
D03*
X298031Y281299D02*
D03*
D209*
X492421Y247342D02*
D03*
X433858Y277461D02*
D03*
X99685Y290158D02*
D03*
X348189Y66831D02*
D03*
X610000Y21417D02*
D03*
X492323Y301476D02*
D03*
X645669Y140650D02*
D03*
D210*
X543110Y311319D02*
D03*
X357874Y137972D02*
D03*
D211*
X392126Y49606D02*
D03*
X287303Y120177D02*
D03*
X380217Y225295D02*
D03*
X381398Y197244D02*
D03*
X307874Y281299D02*
D03*
D212*
X33071Y150689D02*
D03*
Y131004D02*
D03*
D213*
X22441Y154626D02*
D03*
Y127067D02*
D03*
D214*
X323701Y4429D02*
D03*
X313701D02*
D03*
X337717D02*
D03*
X347716D02*
D03*
D215*
X539173Y336693D02*
D03*
X385630D02*
D03*
D216*
X475787Y291791D02*
D03*
X469095Y306791D02*
D03*
X462402Y291791D02*
D03*
X455709Y306791D02*
D03*
X449016Y291791D02*
D03*
D217*
X557283Y116634D02*
D03*
X407283D02*
D03*
X374213Y112303D02*
D03*
X590354D02*
D03*
D218*
X171851Y16142D02*
D03*
X140355D02*
D03*
D219*
X673228Y334646D02*
D03*
D220*
X22087Y327402D02*
D03*
X42087D02*
D03*
Y347402D02*
D03*
X22087D02*
D03*
D221*
X32087Y337402D02*
D03*
D222*
X237008Y8760D02*
D03*
Y61713D02*
D03*
D223*
X257480Y52461D02*
D03*
D224*
X292913Y37303D02*
D03*
D225*
X276378Y44784D02*
D03*
D226*
Y7579D02*
D03*
D227*
X645827Y317028D02*
D03*
X625827D02*
D03*
X595039D02*
D03*
X575039D02*
D03*
D228*
X158563Y102559D02*
D03*
X60236Y90748D02*
D03*
X146161Y137992D02*
D03*
X161417Y153445D02*
D03*
X16437Y176279D02*
D03*
X54724Y175972D02*
D03*
X85532Y58465D02*
D03*
X60630D02*
D03*
X665748Y221949D02*
D03*
Y161909D02*
D03*
X135039Y110728D02*
D03*
X470571Y94784D02*
D03*
X70571Y71358D02*
D03*
X82677Y71260D02*
D03*
X639764Y221949D02*
D03*
X151279Y67520D02*
D03*
X129823Y79823D02*
D03*
X160039Y64173D02*
D03*
X356299Y102559D02*
D03*
X142618Y77461D02*
D03*
X151378Y111319D02*
D03*
X160925Y70669D02*
D03*
X382579Y148031D02*
D03*
X369783Y152362D02*
D03*
X92116Y181004D02*
D03*
X87904Y190945D02*
D03*
X670079Y91535D02*
D03*
Y82677D02*
D03*
Y73819D02*
D03*
Y65158D02*
D03*
Y56496D02*
D03*
Y47835D02*
D03*
X662008D02*
D03*
X653937D02*
D03*
X645866D02*
D03*
X637795D02*
D03*
X629724D02*
D03*
X621654D02*
D03*
X613583Y47835D02*
D03*
X605512Y47835D02*
D03*
Y56496D02*
D03*
Y65158D02*
D03*
Y73819D02*
D03*
Y82677D02*
D03*
Y91142D02*
D03*
X674409Y221949D02*
D03*
X657087D02*
D03*
X648425D02*
D03*
X639764Y161909D02*
D03*
X648425D02*
D03*
X657087D02*
D03*
X674409D02*
D03*
X683071D02*
D03*
Y169980D02*
D03*
Y178642D02*
D03*
Y187303D02*
D03*
Y195965D02*
D03*
Y204626D02*
D03*
Y213287D02*
D03*
Y221949D02*
D03*
X150098Y292395D02*
D03*
X161122Y291977D02*
D03*
X123622Y276673D02*
D03*
X154429Y267075D02*
D03*
X161122Y283366D02*
D03*
X161122Y300886D02*
D03*
X150098D02*
D03*
X139075D02*
D03*
X117027D02*
D03*
X128051Y285138D02*
D03*
Y300886D02*
D03*
X117027Y293012D02*
D03*
X197146Y297638D02*
D03*
Y288189D02*
D03*
Y222047D02*
D03*
X174705Y288189D02*
D03*
Y278740D02*
D03*
Y269291D02*
D03*
X174705Y231496D02*
D03*
X45768Y310236D02*
D03*
X18307Y215748D02*
D03*
X45768Y234646D02*
D03*
Y244094D02*
D03*
X18307Y225197D02*
D03*
Y234646D02*
D03*
X17421Y198130D02*
D03*
X197146Y269291D02*
D03*
Y278740D02*
D03*
Y231496D02*
D03*
Y240945D02*
D03*
Y259842D02*
D03*
Y250394D02*
D03*
X139075Y292649D02*
D03*
X128051Y293012D02*
D03*
X161122Y273524D02*
D03*
X145472Y263287D02*
D03*
X48917Y146752D02*
D03*
X76378Y116634D02*
D03*
X52067Y124016D02*
D03*
X65847Y116634D02*
D03*
X78248Y105512D02*
D03*
X18307Y300787D02*
D03*
Y310236D02*
D03*
X45768Y300787D02*
D03*
Y291339D02*
D03*
Y253543D02*
D03*
X18307Y244094D02*
D03*
Y272441D02*
D03*
X45768Y281890D02*
D03*
Y272441D02*
D03*
Y262992D02*
D03*
X92118Y118810D02*
D03*
X174705Y259842D02*
D03*
Y250394D02*
D03*
Y240945D02*
D03*
X308957Y40748D02*
D03*
X309055Y153248D02*
D03*
X18307Y262992D02*
D03*
Y253543D02*
D03*
X59842Y129331D02*
D03*
X455905Y118504D02*
D03*
X450000Y118898D02*
D03*
X435827Y100394D02*
D03*
X357579Y107972D02*
D03*
X354134Y112205D02*
D03*
X81517Y208574D02*
D03*
X74156Y210148D02*
D03*
M02*
