G04*
G04 #@! TF.GenerationSoftware,Altium Limited,Altium Designer,19.1.8 (144)*
G04*
G04 Layer_Color=16711935*
%FSLAX25Y25*%
%MOIN*%
G70*
G01*
G75*
%ADD22C,0.11811*%
%ADD23C,0.05906*%
%ADD27R,0.04737X0.05131*%
%ADD29R,0.05131X0.04737*%
%ADD30R,0.05918X0.06706*%
%ADD55R,0.07099X0.07887*%
G04:AMPARAMS|DCode=57|XSize=47.37mil|YSize=51.31mil|CornerRadius=0mil|HoleSize=0mil|Usage=FLASHONLY|Rotation=315.000|XOffset=0mil|YOffset=0mil|HoleType=Round|Shape=Rectangle|*
%AMROTATEDRECTD57*
4,1,4,-0.03489,-0.00139,0.00139,0.03489,0.03489,0.00139,-0.00139,-0.03489,-0.03489,-0.00139,0.0*
%
%ADD57ROTATEDRECTD57*%

%ADD66R,0.05288X0.06587*%
%ADD67R,0.06587X0.05288*%
%ADD80C,0.06706*%
%ADD94C,0.21272*%
%ADD95C,0.09658*%
%ADD96C,0.04737*%
%ADD97R,0.05918X0.05918*%
%ADD98C,0.05918*%
%ADD99R,0.06706X0.06706*%
%ADD100R,0.06706X0.06706*%
%ADD101R,0.05918X0.05918*%
%ADD102O,0.04488X0.06260*%
%ADD103O,0.08280X0.04540*%
%ADD104C,0.05131*%
%ADD105C,0.14186*%
%ADD106C,0.09300*%
%ADD107C,0.13398*%
%ADD108C,0.10209*%
%ADD109C,0.07828*%
%ADD110C,0.07001*%
%ADD111C,0.25997*%
%ADD112C,0.11036*%
%ADD113C,0.10737*%
%ADD114O,0.14973X0.09068*%
%ADD115O,0.09068X0.14973*%
%ADD116O,0.08674X0.12611*%
%ADD117O,0.13792X0.09855*%
%ADD118O,0.12611X0.08674*%
%ADD119C,0.07284*%
%ADD120R,0.07284X0.07284*%
%ADD121C,0.10249*%
%ADD239R,0.08268X0.08268*%
%ADD240O,0.03188X0.00942*%
%ADD241O,0.00942X0.03188*%
%ADD242R,0.00942X0.03188*%
%ADD246R,0.03162X0.03162*%
%ADD247R,0.06804X0.03359*%
%ADD248R,0.05209X0.01981*%
%ADD249R,0.07887X0.07099*%
%ADD250R,0.03162X0.03162*%
%ADD251R,0.05170X0.02847*%
%ADD252O,0.01981X0.07887*%
%ADD253O,0.07887X0.01981*%
%ADD254R,0.08674X0.22453*%
D22*
X7579Y0D02*
Y113287D01*
D23*
X688287Y3248D02*
Y64370D01*
D27*
X418799Y257579D02*
D03*
Y250886D02*
D03*
X401181Y56496D02*
D03*
Y49803D02*
D03*
X365846Y123425D02*
D03*
Y116732D02*
D03*
X557185Y322047D02*
D03*
Y315354D02*
D03*
X245374Y122835D02*
D03*
Y116142D02*
D03*
X179626Y142520D02*
D03*
Y135827D02*
D03*
X221161Y116240D02*
D03*
Y122933D02*
D03*
X530315Y14961D02*
D03*
Y8268D02*
D03*
X292913Y22244D02*
D03*
Y15551D02*
D03*
X446063Y76968D02*
D03*
Y70276D02*
D03*
X473327Y118799D02*
D03*
Y125492D02*
D03*
X557185Y301476D02*
D03*
Y308169D02*
D03*
X214567Y116240D02*
D03*
Y122933D02*
D03*
X238779Y116142D02*
D03*
Y122835D02*
D03*
X232185Y116240D02*
D03*
Y122933D02*
D03*
X186614Y148031D02*
D03*
Y141339D02*
D03*
X236221Y136811D02*
D03*
Y143504D02*
D03*
X229527Y136811D02*
D03*
Y143504D02*
D03*
X216142Y136811D02*
D03*
Y143504D02*
D03*
X222835Y136811D02*
D03*
Y143504D02*
D03*
X239173Y85728D02*
D03*
Y79035D02*
D03*
X245866Y79035D02*
D03*
Y85728D02*
D03*
X223819Y78642D02*
D03*
Y85335D02*
D03*
D29*
X166732Y138386D02*
D03*
X173425D02*
D03*
X410630Y250886D02*
D03*
X403937D02*
D03*
X457283Y124016D02*
D03*
X463976D02*
D03*
X457283Y130709D02*
D03*
X463976D02*
D03*
X413779Y293307D02*
D03*
X420472D02*
D03*
X420472Y300000D02*
D03*
X413779D02*
D03*
X434252Y306693D02*
D03*
X427559D02*
D03*
X400394Y37008D02*
D03*
X407087D02*
D03*
X230709Y71358D02*
D03*
X224016D02*
D03*
X349606Y37008D02*
D03*
X356299D02*
D03*
X490059Y90059D02*
D03*
X496752D02*
D03*
X504134Y62500D02*
D03*
X510827D02*
D03*
X504134Y129626D02*
D03*
X510827D02*
D03*
X479134Y110039D02*
D03*
X485827D02*
D03*
X438583Y105807D02*
D03*
X431890D02*
D03*
X413779Y306693D02*
D03*
X420472D02*
D03*
X208366Y149606D02*
D03*
X201673D02*
D03*
X245177Y129823D02*
D03*
X238484D02*
D03*
X200590Y105905D02*
D03*
X207283D02*
D03*
X200590Y99311D02*
D03*
X207283D02*
D03*
X193504Y105905D02*
D03*
X186811D02*
D03*
X200590Y112598D02*
D03*
X207283D02*
D03*
X193504D02*
D03*
X186811D02*
D03*
X200590Y92913D02*
D03*
X207283D02*
D03*
D30*
X52461Y249016D02*
D03*
X59941D02*
D03*
X114862Y285630D02*
D03*
X107382D02*
D03*
X206496Y227953D02*
D03*
X213976D02*
D03*
D55*
X214468Y158760D02*
D03*
X203445D02*
D03*
D57*
X138488Y240260D02*
D03*
X133756Y235527D02*
D03*
X123815Y225685D02*
D03*
X128547Y230417D02*
D03*
D66*
X366870Y43898D02*
D03*
X373878D02*
D03*
X299567Y102953D02*
D03*
X292559D02*
D03*
X186654Y98425D02*
D03*
X193661D02*
D03*
X206850Y85236D02*
D03*
X199842D02*
D03*
D67*
X243701Y143661D02*
D03*
Y136653D02*
D03*
X231693Y85492D02*
D03*
Y78484D02*
D03*
D80*
X628937Y10531D02*
D03*
X646654D02*
D03*
X472736Y247342D02*
D03*
X543110Y291634D02*
D03*
X387992Y10531D02*
D03*
X370276D02*
D03*
X453346D02*
D03*
X435630D02*
D03*
X517915D02*
D03*
X500198D02*
D03*
X420079Y277461D02*
D03*
X89685Y290158D02*
D03*
X357874Y127972D02*
D03*
X378189Y66831D02*
D03*
X368189D02*
D03*
X358189D02*
D03*
X388189D02*
D03*
X398189D02*
D03*
X454724Y50098D02*
D03*
X444882D02*
D03*
X435039D02*
D03*
X425197D02*
D03*
X415354D02*
D03*
X540000Y11417D02*
D03*
Y21417D02*
D03*
X550000Y11417D02*
D03*
Y21417D02*
D03*
X560000Y11417D02*
D03*
Y21417D02*
D03*
X570000Y11417D02*
D03*
Y21417D02*
D03*
X580000Y11417D02*
D03*
Y21417D02*
D03*
X590000Y11417D02*
D03*
Y21417D02*
D03*
X600000Y11417D02*
D03*
Y21417D02*
D03*
X610000Y11417D02*
D03*
X512008Y301476D02*
D03*
X665354Y140650D02*
D03*
D94*
X673228Y19685D02*
D03*
X19685D02*
D03*
X236221Y255906D02*
D03*
D95*
X624016Y20374D02*
D03*
X651575D02*
D03*
X392913D02*
D03*
X365354D02*
D03*
X458268D02*
D03*
X430709D02*
D03*
X522836D02*
D03*
X495277D02*
D03*
D96*
X668057Y207163D02*
D03*
Y199289D02*
D03*
Y191415D02*
D03*
Y183541D02*
D03*
Y175667D02*
D03*
X658608Y207163D02*
D03*
Y199289D02*
D03*
Y191415D02*
D03*
Y183541D02*
D03*
Y175667D02*
D03*
X649159Y207163D02*
D03*
Y199289D02*
D03*
Y191415D02*
D03*
Y183541D02*
D03*
Y175667D02*
D03*
X639710D02*
D03*
Y183541D02*
D03*
Y191415D02*
D03*
Y199289D02*
D03*
Y207163D02*
D03*
X653233Y59995D02*
D03*
X645359D02*
D03*
X637485D02*
D03*
X629611D02*
D03*
X621737D02*
D03*
X653233Y69443D02*
D03*
X645359D02*
D03*
X637485D02*
D03*
X629611D02*
D03*
X621737D02*
D03*
X653233Y78892D02*
D03*
X645359D02*
D03*
X637485D02*
D03*
X629611D02*
D03*
X621737D02*
D03*
Y88341D02*
D03*
X629611D02*
D03*
X637485D02*
D03*
X645359D02*
D03*
X653233D02*
D03*
X288878Y211417D02*
D03*
Y219291D02*
D03*
Y227165D02*
D03*
Y235039D02*
D03*
Y242913D02*
D03*
X298327Y211417D02*
D03*
Y219291D02*
D03*
Y227165D02*
D03*
Y235039D02*
D03*
Y242913D02*
D03*
X307776Y211417D02*
D03*
Y219291D02*
D03*
Y227165D02*
D03*
Y235039D02*
D03*
Y242913D02*
D03*
X317224D02*
D03*
Y235039D02*
D03*
Y227165D02*
D03*
Y219291D02*
D03*
Y211417D02*
D03*
D97*
X622047Y158465D02*
D03*
X485335Y207874D02*
D03*
X227559Y104232D02*
D03*
X425197Y181201D02*
D03*
X368209Y290945D02*
D03*
D98*
X622047Y148622D02*
D03*
X384252Y49606D02*
D03*
X485335Y217717D02*
D03*
X295177Y120177D02*
D03*
X227559Y94390D02*
D03*
X425197Y173327D02*
D03*
X390059Y225295D02*
D03*
X368209Y298819D02*
D03*
X391240Y197244D02*
D03*
X298031Y281299D02*
D03*
D99*
X492421Y247342D02*
D03*
X433858Y277461D02*
D03*
X99685Y290158D02*
D03*
X348189Y66831D02*
D03*
X610000Y21417D02*
D03*
X492323Y301476D02*
D03*
X645669Y140650D02*
D03*
D100*
X543110Y311319D02*
D03*
X357874Y137972D02*
D03*
D101*
X392126Y49606D02*
D03*
X287303Y120177D02*
D03*
X380217Y225295D02*
D03*
X381398Y197244D02*
D03*
X307874Y281299D02*
D03*
D102*
X33071Y150689D02*
D03*
Y131004D02*
D03*
D103*
X22441Y154626D02*
D03*
Y127067D02*
D03*
D104*
X323701Y4429D02*
D03*
X313701D02*
D03*
X337717D02*
D03*
X347716D02*
D03*
D105*
X539173Y336693D02*
D03*
X385630D02*
D03*
D106*
X475787Y291791D02*
D03*
X469095Y306791D02*
D03*
X462402Y291791D02*
D03*
X455709Y306791D02*
D03*
X449016Y291791D02*
D03*
D107*
X529724Y116634D02*
D03*
X434842D02*
D03*
D108*
X407283Y148524D02*
D03*
X374213Y140256D02*
D03*
D109*
X557283Y116634D02*
D03*
X407283D02*
D03*
X374213Y112303D02*
D03*
X590354D02*
D03*
D110*
X171851Y16142D02*
D03*
X140355D02*
D03*
D111*
X673228Y334646D02*
D03*
D112*
X22087Y327402D02*
D03*
X42087D02*
D03*
Y347402D02*
D03*
X22087D02*
D03*
D113*
X32087Y337402D02*
D03*
D114*
X237008Y8760D02*
D03*
Y61713D02*
D03*
D115*
X257480Y52461D02*
D03*
D116*
X292913Y37303D02*
D03*
D117*
X276378Y44784D02*
D03*
D118*
Y7579D02*
D03*
D119*
X577461Y291240D02*
D03*
Y271555D02*
D03*
X597146Y291240D02*
D03*
X587303Y261712D02*
D03*
Y281398D02*
D03*
D120*
X597146Y271555D02*
D03*
D121*
X645827Y317028D02*
D03*
X625827D02*
D03*
X595039D02*
D03*
X575039D02*
D03*
D239*
X200079Y132165D02*
D03*
D240*
X207367Y128228D02*
D03*
Y130197D02*
D03*
Y132165D02*
D03*
Y134134D02*
D03*
Y136102D02*
D03*
X192790D02*
D03*
Y134134D02*
D03*
Y132165D02*
D03*
Y130197D02*
D03*
Y128228D02*
D03*
D241*
X204016Y139454D02*
D03*
X202047D02*
D03*
X200079D02*
D03*
X198110D02*
D03*
X196142D02*
D03*
Y124877D02*
D03*
X198110D02*
D03*
X200079D02*
D03*
X202047D02*
D03*
D242*
X204016D02*
D03*
D246*
X121752Y169587D02*
D03*
Y165650D02*
D03*
X143012Y144980D02*
D03*
Y141043D02*
D03*
X166437Y143504D02*
D03*
Y147441D02*
D03*
D247*
X150098Y175374D02*
D03*
X150098Y170374D02*
D03*
X150098Y160374D02*
D03*
X150098Y165374D02*
D03*
X128051Y170374D02*
D03*
Y165374D02*
D03*
X128051Y175374D02*
D03*
Y160374D02*
D03*
D248*
X148327Y141634D02*
D03*
Y143602D02*
D03*
Y147539D02*
D03*
X160531Y141634D02*
D03*
Y143602D02*
D03*
Y147539D02*
D03*
X148327Y145571D02*
D03*
X160531D02*
D03*
D249*
X109941Y189075D02*
D03*
Y178051D02*
D03*
D250*
X121752Y179724D02*
D03*
X117815D02*
D03*
D251*
X42283Y161221D02*
D03*
X33110D02*
D03*
D252*
X473622Y109547D02*
D03*
X471653D02*
D03*
X469685D02*
D03*
X467716D02*
D03*
X465748D02*
D03*
X463779D02*
D03*
X461811D02*
D03*
X459842D02*
D03*
X457874D02*
D03*
X455905D02*
D03*
X453937D02*
D03*
X451968D02*
D03*
Y77657D02*
D03*
X453937D02*
D03*
X455905D02*
D03*
X457874D02*
D03*
X459842D02*
D03*
X461811D02*
D03*
X463779D02*
D03*
X465748D02*
D03*
X467716D02*
D03*
X469685D02*
D03*
X471653D02*
D03*
X473622D02*
D03*
D253*
X446850Y104428D02*
D03*
Y102460D02*
D03*
Y100491D02*
D03*
Y98523D02*
D03*
Y96554D02*
D03*
Y94586D02*
D03*
Y92617D02*
D03*
Y90649D02*
D03*
Y88680D02*
D03*
Y86712D02*
D03*
Y84743D02*
D03*
Y82775D02*
D03*
X478740D02*
D03*
Y84743D02*
D03*
Y86712D02*
D03*
Y88680D02*
D03*
Y90649D02*
D03*
Y92617D02*
D03*
Y94586D02*
D03*
Y96554D02*
D03*
Y98523D02*
D03*
Y100491D02*
D03*
Y102460D02*
D03*
Y104428D02*
D03*
D254*
X510827Y114763D02*
D03*
Y77362D02*
D03*
M02*
