G04*
G04 #@! TF.GenerationSoftware,Altium Limited,Altium Designer,19.1.8 (144)*
G04*
G04 Layer_Color=8388736*
%FSLAX25Y25*%
%MOIN*%
G70*
G01*
G75*
%ADD20C,0.11811*%
%ADD21R,0.05131X0.04737*%
%ADD22R,0.05918X0.20485*%
%ADD23R,0.03359X0.05721*%
%ADD24R,0.05721X0.03359*%
%ADD25R,0.04737X0.05131*%
%ADD26R,0.05918X0.03123*%
%ADD27R,0.05918X0.04698*%
%ADD28R,0.02992X0.05158*%
%ADD29R,0.09461X0.13792*%
%ADD30R,0.07887X0.07887*%
G04:AMPARAMS|DCode=31|XSize=14.17mil|YSize=9.84mil|CornerRadius=0mil|HoleSize=0mil|Usage=FLASHONLY|Rotation=315.000|XOffset=0mil|YOffset=0mil|HoleType=Round|Shape=Rectangle|*
%AMROTATEDRECTD31*
4,1,4,-0.00849,0.00153,-0.00153,0.00849,0.00849,-0.00153,0.00153,-0.00849,-0.00849,0.00153,0.0*
%
%ADD31ROTATEDRECTD31*%

%ADD32R,0.05918X0.06706*%
%ADD33R,0.40564X0.40800*%
%ADD34R,0.13398X0.05013*%
%ADD35R,0.40800X0.40564*%
%ADD36R,0.05013X0.13398*%
%ADD37R,0.09461X0.08674*%
%ADD38R,0.17335X0.11036*%
%ADD39R,0.05748X0.01811*%
%ADD40R,0.08280X0.06706*%
%ADD41R,0.08280X0.05524*%
G04:AMPARAMS|DCode=42|XSize=14.17mil|YSize=9.84mil|CornerRadius=0mil|HoleSize=0mil|Usage=FLASHONLY|Rotation=225.000|XOffset=0mil|YOffset=0mil|HoleType=Round|Shape=Rectangle|*
%AMROTATEDRECTD42*
4,1,4,0.00153,0.00849,0.00849,0.00153,-0.00153,-0.00849,-0.00849,-0.00153,0.00153,0.00849,0.0*
%
%ADD42ROTATEDRECTD42*%

%ADD43R,0.00984X0.01417*%
%ADD44R,0.04737X0.06312*%
%ADD45R,0.13202X0.09461*%
%ADD46R,0.09461X0.13202*%
%ADD47R,0.05603X0.04383*%
G04:AMPARAMS|DCode=48|XSize=78.87mil|YSize=31.62mil|CornerRadius=0mil|HoleSize=0mil|Usage=FLASHONLY|Rotation=315.000|XOffset=0mil|YOffset=0mil|HoleType=Round|Shape=Round|*
%AMOVALD48*
21,1,0.04724,0.03162,0.00000,0.00000,315.0*
1,1,0.03162,-0.01670,0.01670*
1,1,0.03162,0.01670,-0.01670*
%
%ADD48OVALD48*%

G04:AMPARAMS|DCode=49|XSize=78.87mil|YSize=31.62mil|CornerRadius=0mil|HoleSize=0mil|Usage=FLASHONLY|Rotation=225.000|XOffset=0mil|YOffset=0mil|HoleType=Round|Shape=Round|*
%AMOVALD49*
21,1,0.04724,0.03162,0.00000,0.00000,225.0*
1,1,0.03162,0.01670,0.01670*
1,1,0.03162,-0.01670,-0.01670*
%
%ADD49OVALD49*%

%ADD50R,0.06312X0.04737*%
%ADD51R,0.06240X0.01929*%
%ADD52R,0.04540X0.04343*%
%ADD53R,0.04343X0.04540*%
%ADD54R,0.06706X0.05918*%
%ADD55R,0.07099X0.07887*%
G04:AMPARAMS|DCode=56|XSize=47.37mil|YSize=51.31mil|CornerRadius=0mil|HoleSize=0mil|Usage=FLASHONLY|Rotation=45.000|XOffset=0mil|YOffset=0mil|HoleType=Round|Shape=Rectangle|*
%AMROTATEDRECTD56*
4,1,4,0.00139,-0.03489,-0.03489,0.00139,-0.00139,0.03489,0.03489,-0.00139,0.00139,-0.03489,0.0*
%
%ADD56ROTATEDRECTD56*%

G04:AMPARAMS|DCode=57|XSize=47.37mil|YSize=51.31mil|CornerRadius=0mil|HoleSize=0mil|Usage=FLASHONLY|Rotation=315.000|XOffset=0mil|YOffset=0mil|HoleType=Round|Shape=Rectangle|*
%AMROTATEDRECTD57*
4,1,4,-0.03489,-0.00139,0.00139,0.03489,0.03489,0.00139,-0.00139,-0.03489,-0.03489,-0.00139,0.0*
%
%ADD57ROTATEDRECTD57*%

G04:AMPARAMS|DCode=58|XSize=67.32mil|YSize=18.11mil|CornerRadius=4.33mil|HoleSize=0mil|Usage=FLASHONLY|Rotation=0.000|XOffset=0mil|YOffset=0mil|HoleType=Round|Shape=RoundedRectangle|*
%AMROUNDEDRECTD58*
21,1,0.06732,0.00945,0,0,0.0*
21,1,0.05866,0.01811,0,0,0.0*
1,1,0.00866,0.02933,-0.00472*
1,1,0.00866,-0.02933,-0.00472*
1,1,0.00866,-0.02933,0.00472*
1,1,0.00866,0.02933,0.00472*
%
%ADD58ROUNDEDRECTD58*%
%ADD59R,0.09383X0.07099*%
%ADD60R,0.08700X0.15800*%
%ADD61R,0.08700X0.06700*%
%ADD62R,0.28359X0.16548*%
%ADD63R,0.16548X0.28359*%
G04:AMPARAMS|DCode=64|XSize=60.76mil|YSize=137.53mil|CornerRadius=10.59mil|HoleSize=0mil|Usage=FLASHONLY|Rotation=90.000|XOffset=0mil|YOffset=0mil|HoleType=Round|Shape=RoundedRectangle|*
%AMROUNDEDRECTD64*
21,1,0.06076,0.11634,0,0,90.0*
21,1,0.03957,0.13753,0,0,90.0*
1,1,0.02119,0.05817,0.01978*
1,1,0.02119,0.05817,-0.01978*
1,1,0.02119,-0.05817,-0.01978*
1,1,0.02119,-0.05817,0.01978*
%
%ADD64ROUNDEDRECTD64*%
%ADD65R,0.05524X0.02965*%
%ADD66R,0.05288X0.06587*%
%ADD67R,0.06587X0.05288*%
%ADD68R,0.07099X0.06312*%
%ADD69R,0.05524X0.09461*%
%ADD70R,0.04737X0.06312*%
%ADD71R,0.03556X0.07099*%
%ADD72R,0.05512X0.14646*%
%ADD73R,0.05512X0.22047*%
%ADD74R,0.10236X0.22047*%
%ADD75R,0.04737X0.10249*%
%ADD76R,0.04737X0.14186*%
%ADD77R,0.03950X0.06706*%
%ADD78R,0.02965X0.04737*%
%ADD79C,0.08674*%
%ADD80C,0.06706*%
%ADD81R,0.03559X0.01787*%
G04:AMPARAMS|DCode=82|XSize=26.2mil|YSize=26.48mil|CornerRadius=0mil|HoleSize=0mil|Usage=FLASHONLY|Rotation=315.000|XOffset=0mil|YOffset=0mil|HoleType=Round|Shape=Rectangle|*
%AMROTATEDRECTD82*
4,1,4,-0.01862,-0.00010,0.00010,0.01862,0.01862,0.00010,-0.00010,-0.01862,-0.01862,-0.00010,0.0*
%
%ADD82ROTATEDRECTD82*%

G04:AMPARAMS|DCode=83|XSize=41.34mil|YSize=86.61mil|CornerRadius=0mil|HoleSize=0mil|Usage=FLASHONLY|Rotation=135.000|XOffset=0mil|YOffset=0mil|HoleType=Round|Shape=Rectangle|*
%AMROTATEDRECTD83*
4,1,4,0.04524,0.01601,-0.01601,-0.04524,-0.04524,-0.01601,0.01601,0.04524,0.04524,0.01601,0.0*
%
%ADD83ROTATEDRECTD83*%

G04:AMPARAMS|DCode=84|XSize=39.37mil|YSize=41.34mil|CornerRadius=0mil|HoleSize=0mil|Usage=FLASHONLY|Rotation=135.000|XOffset=0mil|YOffset=0mil|HoleType=Round|Shape=Rectangle|*
%AMROTATEDRECTD84*
4,1,4,0.02854,0.00070,-0.00070,-0.02854,-0.02854,-0.00070,0.00070,0.02854,0.02854,0.00070,0.0*
%
%ADD84ROTATEDRECTD84*%

%ADD85R,0.03961X0.03773*%
%ADD86C,0.06312*%
%ADD87C,0.05524*%
%ADD88R,0.16548X0.24028*%
%ADD89R,0.18910X0.09855*%
%ADD90R,0.10694X0.14194*%
%ADD91R,0.06804X0.03556*%
%ADD92O,0.08674X0.12611*%
%ADD93O,0.13792X0.09855*%
%ADD94O,0.12611X0.08674*%
%ADD95R,0.06706X0.06706*%
%ADD96R,0.05918X0.05918*%
%ADD97C,0.05918*%
%ADD98R,0.05918X0.05918*%
%ADD99C,0.21272*%
%ADD100C,0.09658*%
%ADD101C,0.04737*%
%ADD102R,0.06706X0.06706*%
%ADD103O,0.04488X0.06260*%
%ADD104O,0.08280X0.04540*%
%ADD105C,0.05131*%
%ADD106C,0.12217*%
%ADD107C,0.09300*%
%ADD108C,0.13398*%
%ADD109C,0.10209*%
%ADD110C,0.07828*%
%ADD111C,0.07001*%
%ADD112C,0.25997*%
%ADD113C,0.11036*%
%ADD114C,0.10737*%
%ADD115O,0.14973X0.09068*%
%ADD116O,0.09068X0.14973*%
%ADD117C,0.07284*%
%ADD118R,0.07284X0.07284*%
%ADD119C,0.10249*%
G36*
X65052Y93701D02*
Y95470D01*
X68602D01*
Y93701D01*
X65052D01*
D02*
G37*
G36*
X65056Y96260D02*
Y98032D01*
X68602D01*
Y96260D01*
X65056D01*
D02*
G37*
G36*
X65056Y98819D02*
Y100592D01*
X68602D01*
Y98819D01*
X65056D01*
D02*
G37*
G36*
X72541Y93701D02*
Y95471D01*
X76083D01*
Y93701D01*
X72541D01*
D02*
G37*
G36*
X72542Y96260D02*
Y98032D01*
X76083D01*
Y96260D01*
X72542D01*
D02*
G37*
G36*
X72540Y98819D02*
Y100591D01*
X76083D01*
Y98819D01*
X72540D01*
D02*
G37*
D20*
X7480Y35827D02*
X7480Y112106D01*
D21*
X493110Y75590D02*
D03*
X499803D02*
D03*
X332382Y40650D02*
D03*
X325689D02*
D03*
X348819D02*
D03*
X342126D02*
D03*
X368898Y30807D02*
D03*
X362205D02*
D03*
X348819Y33957D02*
D03*
X342126D02*
D03*
X332480D02*
D03*
X325787D02*
D03*
X407677Y6299D02*
D03*
X400984D02*
D03*
X383268Y30807D02*
D03*
X376575D02*
D03*
X397736D02*
D03*
X391043D02*
D03*
X471063Y6693D02*
D03*
X464370D02*
D03*
X612992Y211614D02*
D03*
X619685D02*
D03*
X280512Y57579D02*
D03*
X287205D02*
D03*
X280512Y70964D02*
D03*
X287205D02*
D03*
X280512Y64272D02*
D03*
X287205D02*
D03*
X532283Y63583D02*
D03*
X525591D02*
D03*
X525591Y70669D02*
D03*
X532283D02*
D03*
X18110Y283366D02*
D03*
X24803D02*
D03*
X315453Y11024D02*
D03*
X322146D02*
D03*
X263976Y198622D02*
D03*
X270669D02*
D03*
X270768Y191732D02*
D03*
X264075D02*
D03*
X346063Y11024D02*
D03*
X339370D02*
D03*
X63878Y83366D02*
D03*
X70571D02*
D03*
X56595D02*
D03*
X49902D02*
D03*
X77854D02*
D03*
X84547D02*
D03*
X328937Y263287D02*
D03*
X335630D02*
D03*
X625689Y170374D02*
D03*
X618996D02*
D03*
X612894Y218504D02*
D03*
X619587D02*
D03*
X532283Y56890D02*
D03*
X525591D02*
D03*
X335138Y159547D02*
D03*
X341831D02*
D03*
X321358Y159547D02*
D03*
X314665D02*
D03*
X17913Y290354D02*
D03*
X24606D02*
D03*
X178445Y296457D02*
D03*
X185138D02*
D03*
X178445Y303346D02*
D03*
X185138D02*
D03*
X473819Y281693D02*
D03*
X467126D02*
D03*
X450689Y281693D02*
D03*
X457382D02*
D03*
X63878Y76772D02*
D03*
X70571D02*
D03*
X56595D02*
D03*
X49902D02*
D03*
X77854Y76772D02*
D03*
X84547D02*
D03*
X91831Y76772D02*
D03*
X98524D02*
D03*
X148524Y79528D02*
D03*
X155217D02*
D03*
X148524Y72835D02*
D03*
X155217D02*
D03*
D22*
X467008Y42126D02*
D03*
Y66535D02*
D03*
X457008D02*
D03*
Y42126D02*
D03*
X447008D02*
D03*
Y66535D02*
D03*
X437008D02*
D03*
Y42126D02*
D03*
X427008D02*
D03*
Y66535D02*
D03*
X417008D02*
D03*
Y42126D02*
D03*
X407008D02*
D03*
Y66535D02*
D03*
D23*
X310886Y117913D02*
D03*
X318445D02*
D03*
X314665Y108858D02*
D03*
X341693Y27165D02*
D03*
X349252D02*
D03*
X345472Y18110D02*
D03*
X325551Y27165D02*
D03*
X333110D02*
D03*
X329331Y18110D02*
D03*
X325157Y117913D02*
D03*
X332716D02*
D03*
X328937Y108858D02*
D03*
D24*
X327953Y95374D02*
D03*
X318898Y99154D02*
D03*
Y91594D02*
D03*
D25*
X311811Y99114D02*
D03*
Y92421D02*
D03*
X341240Y120472D02*
D03*
Y113779D02*
D03*
X337106Y100689D02*
D03*
Y93996D02*
D03*
X348228Y107283D02*
D03*
Y100591D02*
D03*
X305020Y105807D02*
D03*
Y99114D02*
D03*
X361516Y280512D02*
D03*
Y273819D02*
D03*
X368209Y273819D02*
D03*
Y280512D02*
D03*
X318996Y192303D02*
D03*
Y185610D02*
D03*
X367913Y189469D02*
D03*
Y182776D02*
D03*
X392126Y180905D02*
D03*
Y174213D02*
D03*
X370866Y253937D02*
D03*
Y260630D02*
D03*
X357480Y260630D02*
D03*
Y253937D02*
D03*
X604331Y198425D02*
D03*
Y205118D02*
D03*
X597047D02*
D03*
Y198425D02*
D03*
X403642Y214961D02*
D03*
Y221654D02*
D03*
X442618Y221260D02*
D03*
Y214567D02*
D03*
Y200590D02*
D03*
Y207283D02*
D03*
X349114Y141437D02*
D03*
Y134744D02*
D03*
X89567Y280315D02*
D03*
Y273622D02*
D03*
X31890Y174508D02*
D03*
Y167815D02*
D03*
X197146Y108169D02*
D03*
Y114862D02*
D03*
X203839Y114862D02*
D03*
Y108169D02*
D03*
X250000Y134449D02*
D03*
Y141142D02*
D03*
X343012Y207579D02*
D03*
Y200886D02*
D03*
X364173Y260630D02*
D03*
Y253937D02*
D03*
X439764Y181004D02*
D03*
Y174311D02*
D03*
X351575Y220276D02*
D03*
Y226969D02*
D03*
X643209Y233858D02*
D03*
Y227165D02*
D03*
X403642Y207677D02*
D03*
Y200984D02*
D03*
X17323Y182382D02*
D03*
Y189075D02*
D03*
X190453Y114862D02*
D03*
Y108169D02*
D03*
D26*
X372342Y50138D02*
D03*
Y42579D02*
D03*
X364272D02*
D03*
D27*
Y49350D02*
D03*
D28*
X131595Y106595D02*
D03*
X139075D02*
D03*
Y96358D02*
D03*
X135335D02*
D03*
X131595D02*
D03*
X147146Y106595D02*
D03*
X154626D02*
D03*
Y96358D02*
D03*
X150886D02*
D03*
X147146D02*
D03*
D29*
X644390Y262401D02*
D03*
X673524D02*
D03*
D30*
X667185D02*
D03*
X650649D02*
D03*
D31*
X38004Y169870D02*
D03*
X40343Y167532D02*
D03*
D32*
X597146Y213681D02*
D03*
X604626D02*
D03*
X581496Y74213D02*
D03*
X588976D02*
D03*
X392717Y164173D02*
D03*
X385236D02*
D03*
D33*
X654113Y191718D02*
D03*
X302821Y226862D02*
D03*
D34*
X615945Y178318D02*
D03*
Y185018D02*
D03*
Y191718D02*
D03*
Y198418D02*
D03*
Y205118D02*
D03*
X340990Y240262D02*
D03*
Y233562D02*
D03*
Y226862D02*
D03*
Y220162D02*
D03*
Y213462D02*
D03*
D35*
X637788Y73938D02*
D03*
D36*
X624388Y112106D02*
D03*
X631088D02*
D03*
X637788D02*
D03*
X644488D02*
D03*
X651188D02*
D03*
D37*
X455217Y262992D02*
D03*
Y251181D02*
D03*
D38*
X236122Y181024D02*
D03*
Y206221D02*
D03*
X210138Y181024D02*
D03*
Y206221D02*
D03*
D39*
X33071Y145965D02*
D03*
Y143406D02*
D03*
Y140847D02*
D03*
Y138287D02*
D03*
Y135728D02*
D03*
D40*
X22441Y144783D02*
D03*
Y136909D02*
D03*
D41*
Y152264D02*
D03*
Y129429D02*
D03*
D42*
X102472Y278851D02*
D03*
X104811Y281189D02*
D03*
D43*
X23228Y182205D02*
D03*
Y185512D02*
D03*
X44587Y140827D02*
D03*
Y137520D02*
D03*
X40157Y152284D02*
D03*
Y155591D02*
D03*
X41240Y143425D02*
D03*
Y146732D02*
D03*
D44*
X207598Y131102D02*
D03*
X200118D02*
D03*
X203858Y122441D02*
D03*
X360866Y201181D02*
D03*
X353386D02*
D03*
X357126Y192520D02*
D03*
X360827Y182677D02*
D03*
X353346D02*
D03*
X357087Y174016D02*
D03*
D45*
X580807Y184941D02*
D03*
Y212500D02*
D03*
X478740Y191240D02*
D03*
Y163681D02*
D03*
D46*
X645768Y288386D02*
D03*
X673327D02*
D03*
X601476Y158169D02*
D03*
X573917D02*
D03*
D47*
X254921Y205650D02*
D03*
Y192776D02*
D03*
D48*
X96537Y265668D02*
D03*
X38075Y207206D02*
D03*
X122149Y123133D02*
D03*
X180610Y181595D02*
D03*
X40859Y209990D02*
D03*
X43643Y212774D02*
D03*
X46427Y215558D02*
D03*
X49211Y218342D02*
D03*
X51995Y221126D02*
D03*
X54779Y223909D02*
D03*
X57563Y226693D02*
D03*
X60346Y229477D02*
D03*
X63130Y232261D02*
D03*
X65914Y235045D02*
D03*
X68698Y237829D02*
D03*
X71482Y240613D02*
D03*
X74266Y243397D02*
D03*
X77050Y246181D02*
D03*
X79834Y248965D02*
D03*
X82617Y251748D02*
D03*
X85401Y254532D02*
D03*
X88185Y257316D02*
D03*
X90969Y260100D02*
D03*
X93753Y262884D02*
D03*
X177826Y178811D02*
D03*
X175042Y176027D02*
D03*
X172259Y173243D02*
D03*
X169475Y170459D02*
D03*
X166691Y167675D02*
D03*
X163907Y164891D02*
D03*
X161123Y162107D02*
D03*
X158339Y159323D02*
D03*
X155555Y156539D02*
D03*
X152771Y153756D02*
D03*
X149987Y150972D02*
D03*
X147204Y148188D02*
D03*
X144420Y145404D02*
D03*
X141636Y142620D02*
D03*
X138852Y139836D02*
D03*
X136068Y137052D02*
D03*
X133284Y134268D02*
D03*
X130500Y131485D02*
D03*
X127716Y128701D02*
D03*
X124933Y125917D02*
D03*
D49*
X122149Y265668D02*
D03*
X180610Y207206D02*
D03*
X96537Y123133D02*
D03*
X124933Y262884D02*
D03*
X127716Y260100D02*
D03*
X130500Y257316D02*
D03*
X133284Y254532D02*
D03*
X136068Y251748D02*
D03*
X138852Y248965D02*
D03*
X141636Y246181D02*
D03*
X144420Y243397D02*
D03*
X147204Y240613D02*
D03*
X149987Y237829D02*
D03*
X152771Y235045D02*
D03*
X155555Y232261D02*
D03*
X158339Y229477D02*
D03*
X161123Y226693D02*
D03*
X163907Y223909D02*
D03*
X166691Y221126D02*
D03*
X169475Y218342D02*
D03*
X172259Y215558D02*
D03*
X175042Y212774D02*
D03*
X177826Y209990D02*
D03*
X93753Y125917D02*
D03*
X90969Y128701D02*
D03*
X88185Y131485D02*
D03*
X85401Y134268D02*
D03*
X82617Y137052D02*
D03*
X79834Y139836D02*
D03*
X77050Y142620D02*
D03*
X74266Y145404D02*
D03*
X71482Y148188D02*
D03*
X68698Y150972D02*
D03*
X65914Y153756D02*
D03*
X63130Y156539D02*
D03*
X60346Y159323D02*
D03*
X57563Y162107D02*
D03*
X54779Y164891D02*
D03*
X51995Y167675D02*
D03*
X49211Y170459D02*
D03*
X46427Y173243D02*
D03*
X43643Y176027D02*
D03*
X40859Y178811D02*
D03*
D50*
X383858Y173779D02*
D03*
Y181260D02*
D03*
X375197Y177520D02*
D03*
X328563Y193071D02*
D03*
Y185591D02*
D03*
X337224Y189331D02*
D03*
D51*
X558807Y59350D02*
D03*
Y61910D02*
D03*
Y64468D02*
D03*
Y67028D02*
D03*
X581941D02*
D03*
Y64468D02*
D03*
Y61910D02*
D03*
Y59350D02*
D03*
D52*
X449311Y221260D02*
D03*
Y214567D02*
D03*
Y207283D02*
D03*
Y200590D02*
D03*
D53*
X315354Y4429D02*
D03*
X322047D02*
D03*
X346063D02*
D03*
X339370D02*
D03*
D54*
X349803Y260630D02*
D03*
Y253150D02*
D03*
X185925Y288780D02*
D03*
Y281299D02*
D03*
X32087Y281594D02*
D03*
Y274114D02*
D03*
D55*
X662205Y316142D02*
D03*
X673228D02*
D03*
X673228Y305807D02*
D03*
X662205D02*
D03*
D56*
X157484Y242614D02*
D03*
X152752Y247347D02*
D03*
D57*
X179197Y168862D02*
D03*
X174464Y164130D02*
D03*
D58*
X342008Y153248D02*
D03*
Y150689D02*
D03*
Y148130D02*
D03*
Y145571D02*
D03*
Y143012D02*
D03*
Y140453D02*
D03*
Y137894D02*
D03*
X319410D02*
D03*
Y140453D02*
D03*
Y143012D02*
D03*
Y145571D02*
D03*
Y148130D02*
D03*
Y150689D02*
D03*
Y153248D02*
D03*
D59*
X529232Y42520D02*
D03*
X493011D02*
D03*
D60*
X250100Y120079D02*
D03*
X325887Y281890D02*
D03*
D61*
X274900Y129179D02*
D03*
Y120179D02*
D03*
Y111179D02*
D03*
X350687Y290990D02*
D03*
Y281990D02*
D03*
Y272990D02*
D03*
D62*
X533661Y263484D02*
D03*
Y224114D02*
D03*
D63*
X546654Y183563D02*
D03*
X507283D02*
D03*
D64*
X453937Y181102D02*
D03*
Y164173D02*
D03*
D65*
X550197Y59449D02*
D03*
Y63189D02*
D03*
Y66929D02*
D03*
X539961D02*
D03*
Y59449D02*
D03*
Y63189D02*
D03*
D66*
X466772Y273622D02*
D03*
X473780D02*
D03*
X457539Y273425D02*
D03*
X450531D02*
D03*
D67*
X255020Y178189D02*
D03*
Y185197D02*
D03*
D68*
X186812Y55512D02*
D03*
D69*
X190355Y17717D02*
D03*
X129331Y17481D02*
D03*
D70*
X129134Y55512D02*
D03*
D71*
X134056Y57481D02*
D03*
X138386D02*
D03*
X142717D02*
D03*
X147048D02*
D03*
X151379D02*
D03*
X155709D02*
D03*
X160040D02*
D03*
X164371D02*
D03*
X168701D02*
D03*
D72*
X185827Y333897D02*
D03*
D73*
X193701Y337598D02*
D03*
D74*
X160236D02*
D03*
X309842D02*
D03*
D75*
X106201Y62303D02*
D03*
X46752D02*
D03*
D76*
X106201Y29429D02*
D03*
Y8563D02*
D03*
X46752D02*
D03*
Y29429D02*
D03*
D77*
X98721Y62815D02*
D03*
D78*
X89410Y66043D02*
D03*
X85472D02*
D03*
X81535D02*
D03*
X77598D02*
D03*
X70571D02*
D03*
X65039D02*
D03*
X61102D02*
D03*
D79*
X79429Y276083D02*
D03*
X235236Y119783D02*
D03*
X282480Y185295D02*
D03*
X399902Y278543D02*
D03*
X337894Y251279D02*
D03*
X436417Y250886D02*
D03*
X517126Y63583D02*
D03*
X392913Y20374D02*
D03*
X365354D02*
D03*
X430709D02*
D03*
X458268D02*
D03*
X495277D02*
D03*
X522836D02*
D03*
D80*
X181545Y116978D02*
D03*
X155905Y87795D02*
D03*
X23228Y176476D02*
D03*
X23228Y166535D02*
D03*
X163189Y259941D02*
D03*
X162992Y251378D02*
D03*
X387992Y10531D02*
D03*
X370276D02*
D03*
X348031Y76221D02*
D03*
Y86221D02*
D03*
X358032Y76221D02*
D03*
Y86221D02*
D03*
X348031Y66220D02*
D03*
X435630Y10531D02*
D03*
X453346D02*
D03*
X500198D02*
D03*
X517915D02*
D03*
X628937D02*
D03*
X646654D02*
D03*
X472736Y247342D02*
D03*
X543110Y291634D02*
D03*
X420079Y277461D02*
D03*
X89685Y290158D02*
D03*
X357874Y127972D02*
D03*
X540000Y11417D02*
D03*
Y21417D02*
D03*
X550000Y11417D02*
D03*
Y21417D02*
D03*
X560000Y11417D02*
D03*
Y21417D02*
D03*
X570000Y11417D02*
D03*
Y21417D02*
D03*
X580000Y11417D02*
D03*
Y21417D02*
D03*
X590000Y11417D02*
D03*
Y21417D02*
D03*
X600000Y11417D02*
D03*
Y21417D02*
D03*
X610000Y11417D02*
D03*
X512008Y301476D02*
D03*
X665354Y140650D02*
D03*
D81*
X66831Y99705D02*
D03*
Y97146D02*
D03*
Y94587D02*
D03*
X74311D02*
D03*
Y97146D02*
D03*
Y99705D02*
D03*
D82*
X133637Y274335D02*
D03*
X136441Y271531D02*
D03*
D83*
X150858Y275028D02*
D03*
X142646Y283240D02*
D03*
D84*
X142507Y274888D02*
D03*
D85*
X24996Y297736D02*
D03*
X30713D02*
D03*
D86*
X305709Y191831D02*
D03*
D87*
X468701Y265945D02*
D03*
D88*
X612795Y237303D02*
D03*
X576575D02*
D03*
D89*
X625886Y267224D02*
D03*
Y300689D02*
D03*
D90*
X422539Y210827D02*
D03*
D91*
X433216Y218327D02*
D03*
Y213327D02*
D03*
Y208327D02*
D03*
Y203327D02*
D03*
X411862D02*
D03*
Y208327D02*
D03*
Y213327D02*
D03*
Y218327D02*
D03*
D92*
X292913Y37303D02*
D03*
D93*
X276378Y44784D02*
D03*
D94*
Y7579D02*
D03*
D95*
X358032Y66220D02*
D03*
X543110Y311319D02*
D03*
X357874Y137972D02*
D03*
D96*
X375591Y59646D02*
D03*
X622047Y158465D02*
D03*
X485335Y207874D02*
D03*
X227559Y104232D02*
D03*
X425197Y181201D02*
D03*
X368209Y290945D02*
D03*
D97*
X375591Y67520D02*
D03*
X298031Y281299D02*
D03*
X622047Y148622D02*
D03*
X485335Y217717D02*
D03*
X295177Y120177D02*
D03*
X227559Y94390D02*
D03*
X425197Y173327D02*
D03*
X390059Y225295D02*
D03*
X368209Y298819D02*
D03*
X391240Y197244D02*
D03*
D98*
X307874Y281299D02*
D03*
X287303Y120177D02*
D03*
X380217Y225295D02*
D03*
X381398Y197244D02*
D03*
D99*
X673228Y19685D02*
D03*
X19685D02*
D03*
X236221Y236221D02*
D03*
D100*
X624016Y20374D02*
D03*
X651575D02*
D03*
D101*
X668057Y207163D02*
D03*
Y199289D02*
D03*
Y191415D02*
D03*
Y183541D02*
D03*
Y175667D02*
D03*
X658608Y207163D02*
D03*
Y199289D02*
D03*
Y191415D02*
D03*
Y183541D02*
D03*
Y175667D02*
D03*
X649159Y207163D02*
D03*
Y199289D02*
D03*
Y191415D02*
D03*
Y183541D02*
D03*
Y175667D02*
D03*
X639710D02*
D03*
Y183541D02*
D03*
Y191415D02*
D03*
Y199289D02*
D03*
Y207163D02*
D03*
X653233Y59995D02*
D03*
X645359D02*
D03*
X637485D02*
D03*
X629611D02*
D03*
X621737D02*
D03*
X653233Y69443D02*
D03*
X645359D02*
D03*
X637485D02*
D03*
X629611D02*
D03*
X621737D02*
D03*
X653233Y78892D02*
D03*
X645359D02*
D03*
X637485D02*
D03*
X629611D02*
D03*
X621737D02*
D03*
Y88341D02*
D03*
X629611D02*
D03*
X637485D02*
D03*
X645359D02*
D03*
X653233D02*
D03*
X288878Y211417D02*
D03*
Y219291D02*
D03*
Y227165D02*
D03*
Y235039D02*
D03*
Y242913D02*
D03*
X298327Y211417D02*
D03*
Y219291D02*
D03*
Y227165D02*
D03*
Y235039D02*
D03*
Y242913D02*
D03*
X307776Y211417D02*
D03*
Y219291D02*
D03*
Y227165D02*
D03*
Y235039D02*
D03*
Y242913D02*
D03*
X317224D02*
D03*
Y235039D02*
D03*
Y227165D02*
D03*
Y219291D02*
D03*
Y211417D02*
D03*
D102*
X492421Y247342D02*
D03*
X433858Y277461D02*
D03*
X99685Y290158D02*
D03*
X610000Y21417D02*
D03*
X492323Y301476D02*
D03*
X645669Y140650D02*
D03*
D103*
X33071Y150689D02*
D03*
Y131004D02*
D03*
D104*
X22441Y154626D02*
D03*
Y127067D02*
D03*
D105*
X323701Y4429D02*
D03*
X313701D02*
D03*
X337717D02*
D03*
X347716D02*
D03*
D106*
X539173Y336693D02*
D03*
X385630D02*
D03*
D107*
X475787Y291791D02*
D03*
X469095Y306791D02*
D03*
X462402Y291791D02*
D03*
X455709Y306791D02*
D03*
X449016Y291791D02*
D03*
D108*
X529724Y116634D02*
D03*
X434842D02*
D03*
D109*
X407283Y148524D02*
D03*
X374213Y140256D02*
D03*
D110*
X557283Y116634D02*
D03*
X407283D02*
D03*
X374213Y112303D02*
D03*
X590354D02*
D03*
D111*
X171851Y16142D02*
D03*
X140355D02*
D03*
D112*
X673228Y334646D02*
D03*
D113*
X22087Y327402D02*
D03*
X42087D02*
D03*
Y347402D02*
D03*
X22087D02*
D03*
D114*
X32087Y337402D02*
D03*
D115*
X237008Y8760D02*
D03*
Y61713D02*
D03*
D116*
X257480Y52461D02*
D03*
D117*
X577461Y291240D02*
D03*
Y271555D02*
D03*
X597146Y291240D02*
D03*
X587303Y261712D02*
D03*
Y281398D02*
D03*
D118*
X597146Y271555D02*
D03*
D119*
X645827Y317028D02*
D03*
X625827D02*
D03*
X595039D02*
D03*
X575039D02*
D03*
M02*
