G04*
G04 #@! TF.GenerationSoftware,Altium Limited,Altium Designer,19.1.8 (144)*
G04*
G04 Layer_Color=32896*
%FSLAX25Y25*%
%MOIN*%
G70*
G01*
G75*
%ADD10C,0.00787*%
%ADD11C,0.00984*%
%ADD12C,0.00630*%
%ADD14C,0.01000*%
%ADD124C,0.02362*%
%ADD255C,0.00600*%
%ADD256C,0.00906*%
G36*
X341430Y43328D02*
X341510Y43212D01*
X341605Y43095D01*
X341692Y42993D01*
X341780Y42906D01*
X341845Y42833D01*
X341875Y42811D01*
X341896Y42789D01*
X341904Y42782D01*
X341911Y42774D01*
X342064Y42650D01*
X342217Y42534D01*
X342363Y42432D01*
X342509Y42352D01*
X342633Y42279D01*
X342684Y42250D01*
X342727Y42228D01*
X342764Y42206D01*
X342793Y42199D01*
X342808Y42184D01*
X342815D01*
Y41586D01*
X342706Y41630D01*
X342596Y41681D01*
X342487Y41732D01*
X342385Y41783D01*
X342297Y41827D01*
X342225Y41863D01*
X342181Y41892D01*
X342173Y41900D01*
X342166D01*
X342035Y41980D01*
X341918Y42060D01*
X341816Y42133D01*
X341736Y42199D01*
X341663Y42250D01*
X341619Y42293D01*
X341583Y42322D01*
X341576Y42330D01*
Y38386D01*
X340956D01*
Y43452D01*
X341357D01*
X341430Y43328D01*
D02*
G37*
G36*
X337683Y38386D02*
X336983D01*
X335015Y43431D01*
X335693D01*
X337063Y39764D01*
X337122Y39611D01*
X337173Y39465D01*
X337216Y39326D01*
X337253Y39202D01*
X337289Y39093D01*
X337311Y39013D01*
X337318Y38984D01*
X337326Y38962D01*
X337333Y38947D01*
Y38940D01*
X337420Y39232D01*
X337464Y39370D01*
X337508Y39494D01*
X337544Y39603D01*
X337559Y39647D01*
X337566Y39691D01*
X337581Y39720D01*
X337588Y39742D01*
X337595Y39756D01*
Y39764D01*
X338908Y43431D01*
X339636D01*
X337683Y38386D01*
D02*
G37*
G36*
X333141Y43445D02*
X333258Y43438D01*
X333462Y43394D01*
X333557Y43365D01*
X333644Y43336D01*
X333724Y43299D01*
X333797Y43263D01*
X333856Y43226D01*
X333914Y43190D01*
X333965Y43161D01*
X334001Y43132D01*
X334031Y43110D01*
X334052Y43088D01*
X334067Y43081D01*
X334074Y43073D01*
X334140Y43000D01*
X334206Y42928D01*
X334257Y42847D01*
X334300Y42767D01*
X334373Y42614D01*
X334417Y42468D01*
X334446Y42344D01*
X334453Y42286D01*
X334461Y42242D01*
X334468Y42199D01*
Y42169D01*
Y42155D01*
Y42147D01*
X334461Y42016D01*
X334439Y41892D01*
X334410Y41783D01*
X334373Y41688D01*
X334344Y41615D01*
X334315Y41557D01*
X334293Y41528D01*
X334286Y41513D01*
X334206Y41426D01*
X334118Y41346D01*
X334023Y41273D01*
X333928Y41214D01*
X333841Y41171D01*
X333775Y41141D01*
X333746Y41127D01*
X333724Y41120D01*
X333717Y41112D01*
X333710D01*
X333877Y41061D01*
X334016Y40996D01*
X334140Y40916D01*
X334242Y40843D01*
X334322Y40770D01*
X334380Y40711D01*
X334410Y40675D01*
X334424Y40668D01*
Y40660D01*
X334504Y40529D01*
X334570Y40391D01*
X334614Y40259D01*
X334643Y40128D01*
X334658Y40012D01*
X334665Y39961D01*
Y39917D01*
X334672Y39888D01*
Y39858D01*
Y39844D01*
Y39836D01*
X334665Y39720D01*
X334650Y39603D01*
X334628Y39494D01*
X334599Y39385D01*
X334526Y39202D01*
X334490Y39115D01*
X334446Y39042D01*
X334402Y38969D01*
X334366Y38911D01*
X334322Y38860D01*
X334293Y38816D01*
X334264Y38780D01*
X334242Y38758D01*
X334227Y38743D01*
X334220Y38736D01*
X334133Y38656D01*
X334038Y38590D01*
X333936Y38532D01*
X333834Y38481D01*
X333739Y38444D01*
X333637Y38408D01*
X333440Y38357D01*
X333352Y38335D01*
X333272Y38320D01*
X333199Y38313D01*
X333134Y38306D01*
X333083Y38298D01*
X333010D01*
X332871Y38306D01*
X332748Y38320D01*
X332624Y38342D01*
X332507Y38364D01*
X332405Y38400D01*
X332303Y38437D01*
X332208Y38473D01*
X332128Y38517D01*
X332055Y38561D01*
X331989Y38597D01*
X331938Y38634D01*
X331887Y38670D01*
X331851Y38692D01*
X331829Y38714D01*
X331814Y38728D01*
X331807Y38736D01*
X331727Y38823D01*
X331654Y38911D01*
X331596Y38998D01*
X331545Y39093D01*
X331494Y39180D01*
X331457Y39275D01*
X331406Y39443D01*
X331384Y39523D01*
X331370Y39596D01*
X331362Y39662D01*
X331355Y39713D01*
X331348Y39756D01*
Y39793D01*
Y39815D01*
Y39822D01*
X331355Y39990D01*
X331384Y40143D01*
X331428Y40281D01*
X331472Y40398D01*
X331516Y40493D01*
X331559Y40565D01*
X331588Y40609D01*
X331596Y40617D01*
Y40624D01*
X331698Y40740D01*
X331807Y40843D01*
X331924Y40923D01*
X332033Y40996D01*
X332135Y41047D01*
X332223Y41083D01*
X332252Y41098D01*
X332274Y41105D01*
X332288Y41112D01*
X332295D01*
X332164Y41171D01*
X332055Y41236D01*
X331960Y41302D01*
X331880Y41367D01*
X331822Y41426D01*
X331778Y41469D01*
X331749Y41499D01*
X331741Y41513D01*
X331676Y41615D01*
X331632Y41717D01*
X331596Y41819D01*
X331574Y41921D01*
X331559Y42002D01*
X331552Y42067D01*
Y42111D01*
Y42118D01*
Y42126D01*
X331559Y42228D01*
X331567Y42322D01*
X331617Y42505D01*
X331683Y42665D01*
X331756Y42804D01*
X331829Y42913D01*
X331865Y42957D01*
X331894Y43000D01*
X331924Y43030D01*
X331946Y43051D01*
X331953Y43059D01*
X331960Y43066D01*
X332040Y43132D01*
X332120Y43197D01*
X332208Y43248D01*
X332295Y43292D01*
X332470Y43358D01*
X332645Y43401D01*
X332718Y43423D01*
X332791Y43431D01*
X332857Y43438D01*
X332915Y43445D01*
X332959Y43452D01*
X333025D01*
X333141Y43445D01*
D02*
G37*
G36*
X332478Y33012D02*
X330560D01*
Y33632D01*
X332478D01*
Y33012D01*
D02*
G37*
G36*
X339301Y32888D02*
Y32750D01*
X339294Y32626D01*
X339287Y32531D01*
X339279Y32444D01*
Y32385D01*
X339272Y32342D01*
X339265Y32313D01*
Y32305D01*
X339243Y32210D01*
X339214Y32123D01*
X339185Y32043D01*
X339148Y31977D01*
X339119Y31919D01*
X339097Y31882D01*
X339083Y31853D01*
X339075Y31846D01*
X339017Y31780D01*
X338951Y31722D01*
X338886Y31671D01*
X338813Y31627D01*
X338755Y31591D01*
X338703Y31562D01*
X338674Y31547D01*
X338660Y31540D01*
X338550Y31496D01*
X338448Y31467D01*
X338346Y31445D01*
X338251Y31431D01*
X338171Y31423D01*
X338106Y31416D01*
X338055D01*
X337923Y31423D01*
X337792Y31445D01*
X337676Y31474D01*
X337559Y31511D01*
X337457Y31562D01*
X337362Y31613D01*
X337275Y31664D01*
X337194Y31722D01*
X337122Y31780D01*
X337063Y31831D01*
X337012Y31890D01*
X336968Y31934D01*
X336932Y31970D01*
X336910Y31999D01*
X336895Y32021D01*
X336888Y32028D01*
Y31496D01*
X336334D01*
Y35156D01*
X336954D01*
Y33195D01*
X336961Y33027D01*
X336968Y32881D01*
X336983Y32757D01*
X337005Y32655D01*
X337027Y32575D01*
X337041Y32517D01*
X337049Y32487D01*
X337056Y32473D01*
X337100Y32385D01*
X337151Y32313D01*
X337209Y32247D01*
X337267Y32189D01*
X337318Y32145D01*
X337362Y32116D01*
X337391Y32094D01*
X337406Y32087D01*
X337501Y32043D01*
X337595Y32006D01*
X337683Y31984D01*
X337763Y31963D01*
X337829Y31955D01*
X337880Y31948D01*
X337931D01*
X338033Y31955D01*
X338120Y31970D01*
X338200Y31992D01*
X338266Y32021D01*
X338324Y32043D01*
X338361Y32065D01*
X338390Y32079D01*
X338397Y32087D01*
X338463Y32145D01*
X338514Y32203D01*
X338558Y32269D01*
X338594Y32327D01*
X338616Y32385D01*
X338631Y32429D01*
X338645Y32458D01*
Y32466D01*
X338660Y32546D01*
X338667Y32641D01*
X338674Y32750D01*
Y32859D01*
X338682Y32961D01*
Y33042D01*
Y33078D01*
Y33100D01*
Y33114D01*
Y33122D01*
Y35156D01*
X339301D01*
Y32888D01*
D02*
G37*
G36*
X329897D02*
Y32750D01*
X329890Y32626D01*
X329883Y32531D01*
X329875Y32444D01*
Y32385D01*
X329868Y32342D01*
X329861Y32313D01*
Y32305D01*
X329839Y32210D01*
X329810Y32123D01*
X329781Y32043D01*
X329744Y31977D01*
X329715Y31919D01*
X329693Y31882D01*
X329678Y31853D01*
X329671Y31846D01*
X329613Y31780D01*
X329547Y31722D01*
X329482Y31671D01*
X329409Y31627D01*
X329350Y31591D01*
X329299Y31562D01*
X329270Y31547D01*
X329256Y31540D01*
X329146Y31496D01*
X329044Y31467D01*
X328942Y31445D01*
X328847Y31431D01*
X328767Y31423D01*
X328702Y31416D01*
X328650D01*
X328519Y31423D01*
X328388Y31445D01*
X328272Y31474D01*
X328155Y31511D01*
X328053Y31562D01*
X327958Y31613D01*
X327870Y31664D01*
X327790Y31722D01*
X327717Y31780D01*
X327659Y31831D01*
X327608Y31890D01*
X327564Y31934D01*
X327528Y31970D01*
X327506Y31999D01*
X327491Y32021D01*
X327484Y32028D01*
Y31496D01*
X326930D01*
Y35156D01*
X327550D01*
Y33195D01*
X327557Y33027D01*
X327564Y32881D01*
X327579Y32757D01*
X327601Y32655D01*
X327623Y32575D01*
X327637Y32517D01*
X327644Y32487D01*
X327652Y32473D01*
X327695Y32385D01*
X327747Y32313D01*
X327805Y32247D01*
X327863Y32189D01*
X327914Y32145D01*
X327958Y32116D01*
X327987Y32094D01*
X328002Y32087D01*
X328097Y32043D01*
X328191Y32006D01*
X328279Y31984D01*
X328359Y31963D01*
X328425Y31955D01*
X328476Y31948D01*
X328527D01*
X328629Y31955D01*
X328716Y31970D01*
X328796Y31992D01*
X328862Y32021D01*
X328920Y32043D01*
X328957Y32065D01*
X328986Y32079D01*
X328993Y32087D01*
X329059Y32145D01*
X329110Y32203D01*
X329153Y32269D01*
X329190Y32327D01*
X329212Y32385D01*
X329226Y32429D01*
X329241Y32458D01*
Y32466D01*
X329256Y32546D01*
X329263Y32641D01*
X329270Y32750D01*
Y32859D01*
X329277Y32961D01*
Y33042D01*
Y33078D01*
Y33100D01*
Y33114D01*
Y33122D01*
Y35156D01*
X329897D01*
Y32888D01*
D02*
G37*
G36*
X335379Y31496D02*
X334759D01*
Y36541D01*
X335379D01*
Y31496D01*
D02*
G37*
G36*
X333812D02*
X333192D01*
Y36541D01*
X333812D01*
Y31496D01*
D02*
G37*
G36*
X341722Y35228D02*
X341838Y35214D01*
X341940Y35192D01*
X342028Y35163D01*
X342101Y35134D01*
X342159Y35112D01*
X342188Y35097D01*
X342203Y35090D01*
X342290Y35032D01*
X342378Y34966D01*
X342450Y34901D01*
X342516Y34828D01*
X342574Y34769D01*
X342611Y34718D01*
X342640Y34689D01*
X342647Y34675D01*
Y35156D01*
X343209D01*
Y30096D01*
X342589D01*
Y31875D01*
X342531Y31802D01*
X342465Y31737D01*
X342392Y31678D01*
X342334Y31635D01*
X342276Y31591D01*
X342232Y31562D01*
X342195Y31547D01*
X342188Y31540D01*
X342093Y31496D01*
X341999Y31467D01*
X341904Y31445D01*
X341816Y31431D01*
X341743Y31423D01*
X341685Y31416D01*
X341634D01*
X341481Y31423D01*
X341328Y31452D01*
X341197Y31489D01*
X341073Y31532D01*
X340971Y31576D01*
X340898Y31613D01*
X340869Y31627D01*
X340847Y31642D01*
X340839Y31649D01*
X340832D01*
X340694Y31751D01*
X340577Y31861D01*
X340475Y31970D01*
X340395Y32079D01*
X340329Y32181D01*
X340278Y32261D01*
X340264Y32291D01*
X340249Y32313D01*
X340242Y32327D01*
Y32334D01*
X340176Y32509D01*
X340125Y32684D01*
X340089Y32852D01*
X340059Y33012D01*
X340045Y33144D01*
Y33202D01*
X340037Y33253D01*
Y33297D01*
Y33326D01*
Y33340D01*
Y33348D01*
X340045Y33537D01*
X340067Y33720D01*
X340096Y33880D01*
X340132Y34026D01*
X340169Y34142D01*
X340183Y34193D01*
X340198Y34237D01*
X340212Y34266D01*
X340220Y34288D01*
X340227Y34303D01*
Y34310D01*
X340300Y34463D01*
X340387Y34602D01*
X340475Y34718D01*
X340562Y34813D01*
X340643Y34886D01*
X340708Y34944D01*
X340752Y34973D01*
X340759Y34988D01*
X340767D01*
X340905Y35068D01*
X341043Y35134D01*
X341182Y35177D01*
X341313Y35207D01*
X341423Y35221D01*
X341474Y35228D01*
X341510Y35236D01*
X341590D01*
X341722Y35228D01*
D02*
G37*
G36*
X324473D02*
X324590Y35214D01*
X324692Y35192D01*
X324780Y35163D01*
X324852Y35134D01*
X324911Y35112D01*
X324940Y35097D01*
X324955Y35090D01*
X325042Y35032D01*
X325130Y34966D01*
X325202Y34901D01*
X325268Y34828D01*
X325326Y34769D01*
X325363Y34718D01*
X325392Y34689D01*
X325399Y34675D01*
Y35156D01*
X325960D01*
Y30096D01*
X325341D01*
Y31875D01*
X325283Y31802D01*
X325217Y31737D01*
X325144Y31678D01*
X325086Y31635D01*
X325027Y31591D01*
X324984Y31562D01*
X324947Y31547D01*
X324940Y31540D01*
X324845Y31496D01*
X324750Y31467D01*
X324656Y31445D01*
X324568Y31431D01*
X324495Y31423D01*
X324437Y31416D01*
X324386D01*
X324233Y31423D01*
X324080Y31452D01*
X323949Y31489D01*
X323825Y31532D01*
X323723Y31576D01*
X323650Y31613D01*
X323620Y31627D01*
X323599Y31642D01*
X323591Y31649D01*
X323584D01*
X323446Y31751D01*
X323329Y31861D01*
X323227Y31970D01*
X323147Y32079D01*
X323081Y32181D01*
X323030Y32261D01*
X323015Y32291D01*
X323001Y32313D01*
X322993Y32327D01*
Y32334D01*
X322928Y32509D01*
X322877Y32684D01*
X322840Y32852D01*
X322811Y33012D01*
X322797Y33144D01*
Y33202D01*
X322789Y33253D01*
Y33297D01*
Y33326D01*
Y33340D01*
Y33348D01*
X322797Y33537D01*
X322818Y33720D01*
X322848Y33880D01*
X322884Y34026D01*
X322921Y34142D01*
X322935Y34193D01*
X322950Y34237D01*
X322964Y34266D01*
X322972Y34288D01*
X322979Y34303D01*
Y34310D01*
X323052Y34463D01*
X323139Y34602D01*
X323227Y34718D01*
X323314Y34813D01*
X323394Y34886D01*
X323460Y34944D01*
X323504Y34973D01*
X323511Y34988D01*
X323518D01*
X323657Y35068D01*
X323795Y35134D01*
X323934Y35177D01*
X324065Y35207D01*
X324174Y35221D01*
X324225Y35228D01*
X324262Y35236D01*
X324342D01*
X324473Y35228D01*
D02*
G37*
G36*
X423915Y33012D02*
X421997D01*
Y33632D01*
X423915D01*
Y33012D01*
D02*
G37*
G36*
X430738Y32888D02*
Y32750D01*
X430731Y32626D01*
X430724Y32531D01*
X430716Y32444D01*
Y32385D01*
X430709Y32342D01*
X430702Y32313D01*
Y32305D01*
X430680Y32210D01*
X430651Y32123D01*
X430622Y32043D01*
X430585Y31977D01*
X430556Y31919D01*
X430534Y31882D01*
X430519Y31853D01*
X430512Y31846D01*
X430454Y31780D01*
X430388Y31722D01*
X430323Y31671D01*
X430250Y31627D01*
X430192Y31591D01*
X430140Y31562D01*
X430111Y31547D01*
X430097Y31540D01*
X429987Y31496D01*
X429885Y31467D01*
X429783Y31445D01*
X429689Y31431D01*
X429608Y31423D01*
X429543Y31416D01*
X429492D01*
X429360Y31423D01*
X429229Y31445D01*
X429113Y31474D01*
X428996Y31511D01*
X428894Y31562D01*
X428799Y31613D01*
X428712Y31664D01*
X428631Y31722D01*
X428558Y31780D01*
X428500Y31831D01*
X428449Y31890D01*
X428405Y31934D01*
X428369Y31970D01*
X428347Y31999D01*
X428333Y32021D01*
X428325Y32028D01*
Y31496D01*
X427771D01*
Y35156D01*
X428391D01*
Y33195D01*
X428398Y33027D01*
X428405Y32881D01*
X428420Y32757D01*
X428442Y32655D01*
X428464Y32575D01*
X428478Y32517D01*
X428486Y32487D01*
X428493Y32473D01*
X428537Y32385D01*
X428588Y32313D01*
X428646Y32247D01*
X428704Y32189D01*
X428755Y32145D01*
X428799Y32116D01*
X428828Y32094D01*
X428843Y32087D01*
X428938Y32043D01*
X429032Y32006D01*
X429120Y31984D01*
X429200Y31963D01*
X429266Y31955D01*
X429317Y31948D01*
X429368D01*
X429470Y31955D01*
X429557Y31970D01*
X429637Y31992D01*
X429703Y32021D01*
X429761Y32043D01*
X429798Y32065D01*
X429827Y32079D01*
X429834Y32087D01*
X429900Y32145D01*
X429951Y32203D01*
X429995Y32269D01*
X430031Y32327D01*
X430053Y32385D01*
X430068Y32429D01*
X430082Y32458D01*
Y32466D01*
X430097Y32546D01*
X430104Y32641D01*
X430111Y32750D01*
Y32859D01*
X430119Y32961D01*
Y33042D01*
Y33078D01*
Y33100D01*
Y33114D01*
Y33122D01*
Y35156D01*
X430738D01*
Y32888D01*
D02*
G37*
G36*
X421334D02*
Y32750D01*
X421327Y32626D01*
X421319Y32531D01*
X421312Y32444D01*
Y32385D01*
X421305Y32342D01*
X421298Y32313D01*
Y32305D01*
X421276Y32210D01*
X421247Y32123D01*
X421217Y32043D01*
X421181Y31977D01*
X421152Y31919D01*
X421130Y31882D01*
X421115Y31853D01*
X421108Y31846D01*
X421050Y31780D01*
X420984Y31722D01*
X420919Y31671D01*
X420846Y31627D01*
X420787Y31591D01*
X420736Y31562D01*
X420707Y31547D01*
X420693Y31540D01*
X420583Y31496D01*
X420481Y31467D01*
X420379Y31445D01*
X420284Y31431D01*
X420204Y31423D01*
X420139Y31416D01*
X420087D01*
X419956Y31423D01*
X419825Y31445D01*
X419708Y31474D01*
X419592Y31511D01*
X419490Y31562D01*
X419395Y31613D01*
X419308Y31664D01*
X419227Y31722D01*
X419154Y31780D01*
X419096Y31831D01*
X419045Y31890D01*
X419001Y31934D01*
X418965Y31970D01*
X418943Y31999D01*
X418928Y32021D01*
X418921Y32028D01*
Y31496D01*
X418367D01*
Y35156D01*
X418987D01*
Y33195D01*
X418994Y33027D01*
X419001Y32881D01*
X419016Y32757D01*
X419038Y32655D01*
X419060Y32575D01*
X419074Y32517D01*
X419081Y32487D01*
X419089Y32473D01*
X419133Y32385D01*
X419184Y32313D01*
X419242Y32247D01*
X419300Y32189D01*
X419351Y32145D01*
X419395Y32116D01*
X419424Y32094D01*
X419439Y32087D01*
X419533Y32043D01*
X419628Y32006D01*
X419716Y31984D01*
X419796Y31963D01*
X419862Y31955D01*
X419913Y31948D01*
X419964D01*
X420066Y31955D01*
X420153Y31970D01*
X420233Y31992D01*
X420299Y32021D01*
X420357Y32043D01*
X420394Y32065D01*
X420423Y32079D01*
X420430Y32087D01*
X420496Y32145D01*
X420547Y32203D01*
X420590Y32269D01*
X420627Y32327D01*
X420649Y32385D01*
X420663Y32429D01*
X420678Y32458D01*
Y32466D01*
X420693Y32546D01*
X420700Y32641D01*
X420707Y32750D01*
Y32859D01*
X420715Y32961D01*
Y33042D01*
Y33078D01*
Y33100D01*
Y33114D01*
Y33122D01*
Y35156D01*
X421334D01*
Y32888D01*
D02*
G37*
G36*
X426816Y31496D02*
X426197D01*
Y36541D01*
X426816D01*
Y31496D01*
D02*
G37*
G36*
X425249D02*
X424629D01*
Y36541D01*
X425249D01*
Y31496D01*
D02*
G37*
G36*
X433158Y35228D02*
X433275Y35214D01*
X433377Y35192D01*
X433465Y35163D01*
X433538Y35134D01*
X433596Y35112D01*
X433625Y35097D01*
X433640Y35090D01*
X433727Y35032D01*
X433815Y34966D01*
X433887Y34901D01*
X433953Y34828D01*
X434011Y34769D01*
X434048Y34718D01*
X434077Y34689D01*
X434084Y34675D01*
Y35156D01*
X434646D01*
Y30096D01*
X434026D01*
Y31875D01*
X433968Y31802D01*
X433902Y31737D01*
X433829Y31678D01*
X433771Y31635D01*
X433713Y31591D01*
X433669Y31562D01*
X433632Y31547D01*
X433625Y31540D01*
X433530Y31496D01*
X433435Y31467D01*
X433341Y31445D01*
X433253Y31431D01*
X433180Y31423D01*
X433122Y31416D01*
X433071D01*
X432918Y31423D01*
X432765Y31452D01*
X432634Y31489D01*
X432510Y31532D01*
X432408Y31576D01*
X432335Y31613D01*
X432306Y31627D01*
X432284Y31642D01*
X432276Y31649D01*
X432269D01*
X432131Y31751D01*
X432014Y31861D01*
X431912Y31970D01*
X431832Y32079D01*
X431766Y32181D01*
X431715Y32261D01*
X431701Y32291D01*
X431686Y32313D01*
X431679Y32327D01*
Y32334D01*
X431613Y32509D01*
X431562Y32684D01*
X431526Y32852D01*
X431496Y33012D01*
X431482Y33144D01*
Y33202D01*
X431474Y33253D01*
Y33297D01*
Y33326D01*
Y33340D01*
Y33348D01*
X431482Y33537D01*
X431504Y33720D01*
X431533Y33880D01*
X431569Y34026D01*
X431606Y34142D01*
X431620Y34193D01*
X431635Y34237D01*
X431649Y34266D01*
X431657Y34288D01*
X431664Y34303D01*
Y34310D01*
X431737Y34463D01*
X431824Y34602D01*
X431912Y34718D01*
X431999Y34813D01*
X432080Y34886D01*
X432145Y34944D01*
X432189Y34973D01*
X432196Y34988D01*
X432203D01*
X432342Y35068D01*
X432480Y35134D01*
X432619Y35177D01*
X432750Y35207D01*
X432860Y35221D01*
X432911Y35228D01*
X432947Y35236D01*
X433027D01*
X433158Y35228D01*
D02*
G37*
G36*
X415910D02*
X416027Y35214D01*
X416129Y35192D01*
X416217Y35163D01*
X416290Y35134D01*
X416348Y35112D01*
X416377Y35097D01*
X416392Y35090D01*
X416479Y35032D01*
X416567Y34966D01*
X416639Y34901D01*
X416705Y34828D01*
X416763Y34769D01*
X416800Y34718D01*
X416829Y34689D01*
X416836Y34675D01*
Y35156D01*
X417397D01*
Y30096D01*
X416778D01*
Y31875D01*
X416720Y31802D01*
X416654Y31737D01*
X416581Y31678D01*
X416523Y31635D01*
X416464Y31591D01*
X416421Y31562D01*
X416384Y31547D01*
X416377Y31540D01*
X416282Y31496D01*
X416187Y31467D01*
X416093Y31445D01*
X416005Y31431D01*
X415932Y31423D01*
X415874Y31416D01*
X415823D01*
X415670Y31423D01*
X415517Y31452D01*
X415385Y31489D01*
X415262Y31532D01*
X415160Y31576D01*
X415087Y31613D01*
X415057Y31627D01*
X415036Y31642D01*
X415028Y31649D01*
X415021D01*
X414883Y31751D01*
X414766Y31861D01*
X414664Y31970D01*
X414584Y32079D01*
X414518Y32181D01*
X414467Y32261D01*
X414452Y32291D01*
X414438Y32313D01*
X414431Y32327D01*
Y32334D01*
X414365Y32509D01*
X414314Y32684D01*
X414277Y32852D01*
X414248Y33012D01*
X414234Y33144D01*
Y33202D01*
X414226Y33253D01*
Y33297D01*
Y33326D01*
Y33340D01*
Y33348D01*
X414234Y33537D01*
X414256Y33720D01*
X414285Y33880D01*
X414321Y34026D01*
X414358Y34142D01*
X414372Y34193D01*
X414387Y34237D01*
X414401Y34266D01*
X414409Y34288D01*
X414416Y34303D01*
Y34310D01*
X414489Y34463D01*
X414576Y34602D01*
X414664Y34718D01*
X414751Y34813D01*
X414831Y34886D01*
X414897Y34944D01*
X414941Y34973D01*
X414948Y34988D01*
X414955D01*
X415094Y35068D01*
X415232Y35134D01*
X415371Y35177D01*
X415502Y35207D01*
X415612Y35221D01*
X415662Y35228D01*
X415699Y35236D01*
X415779D01*
X415910Y35228D01*
D02*
G37*
G36*
X424719Y43438D02*
X424916Y43401D01*
X425084Y43343D01*
X425230Y43285D01*
X425295Y43248D01*
X425346Y43219D01*
X425397Y43190D01*
X425434Y43161D01*
X425463Y43139D01*
X425485Y43124D01*
X425499Y43117D01*
X425507Y43110D01*
X425645Y42971D01*
X425755Y42818D01*
X425842Y42658D01*
X425915Y42497D01*
X425959Y42359D01*
X425981Y42301D01*
X425995Y42250D01*
X426003Y42206D01*
X426010Y42177D01*
X426017Y42155D01*
Y42147D01*
X425397Y42038D01*
X425368Y42199D01*
X425324Y42337D01*
X425274Y42454D01*
X425222Y42548D01*
X425171Y42621D01*
X425128Y42672D01*
X425099Y42709D01*
X425091Y42716D01*
X424997Y42789D01*
X424894Y42847D01*
X424800Y42884D01*
X424705Y42913D01*
X424617Y42928D01*
X424552Y42942D01*
X424494D01*
X424362Y42935D01*
X424246Y42906D01*
X424144Y42869D01*
X424056Y42833D01*
X423990Y42789D01*
X423939Y42753D01*
X423903Y42723D01*
X423896Y42716D01*
X423815Y42629D01*
X423757Y42534D01*
X423721Y42439D01*
X423692Y42352D01*
X423677Y42271D01*
X423662Y42213D01*
Y42169D01*
Y42162D01*
Y42155D01*
Y42075D01*
X423677Y42002D01*
X423713Y41878D01*
X423765Y41768D01*
X423823Y41674D01*
X423881Y41608D01*
X423932Y41557D01*
X423969Y41528D01*
X423976Y41521D01*
X423983D01*
X424107Y41455D01*
X424224Y41404D01*
X424348Y41367D01*
X424457Y41346D01*
X424552Y41331D01*
X424632Y41316D01*
X424727D01*
X424756Y41324D01*
X424792D01*
X424865Y40777D01*
X424770Y40799D01*
X424683Y40813D01*
X424610Y40828D01*
X424544Y40835D01*
X424494Y40843D01*
X424428D01*
X424275Y40828D01*
X424136Y40799D01*
X424012Y40755D01*
X423910Y40704D01*
X423830Y40653D01*
X423772Y40609D01*
X423735Y40580D01*
X423721Y40565D01*
X423626Y40456D01*
X423553Y40340D01*
X423502Y40223D01*
X423473Y40106D01*
X423451Y40012D01*
X423444Y39931D01*
X423436Y39902D01*
Y39880D01*
Y39866D01*
Y39858D01*
X423451Y39698D01*
X423487Y39552D01*
X423531Y39428D01*
X423590Y39319D01*
X423648Y39232D01*
X423692Y39166D01*
X423728Y39122D01*
X423743Y39107D01*
X423859Y39006D01*
X423983Y38933D01*
X424107Y38881D01*
X424224Y38845D01*
X424326Y38823D01*
X424406Y38816D01*
X424435Y38809D01*
X424479D01*
X424610Y38816D01*
X424734Y38845D01*
X424843Y38881D01*
X424931Y38925D01*
X425004Y38962D01*
X425062Y38998D01*
X425091Y39027D01*
X425106Y39035D01*
X425193Y39137D01*
X425266Y39253D01*
X425332Y39377D01*
X425383Y39509D01*
X425419Y39618D01*
X425434Y39669D01*
X425441Y39713D01*
X425448Y39749D01*
X425456Y39778D01*
X425463Y39793D01*
Y39800D01*
X426083Y39720D01*
X426068Y39603D01*
X426046Y39494D01*
X425981Y39290D01*
X425900Y39115D01*
X425857Y39042D01*
X425813Y38969D01*
X425769Y38903D01*
X425726Y38852D01*
X425689Y38801D01*
X425653Y38765D01*
X425631Y38736D01*
X425609Y38714D01*
X425594Y38699D01*
X425587Y38692D01*
X425499Y38626D01*
X425412Y38561D01*
X425324Y38510D01*
X425230Y38466D01*
X425047Y38393D01*
X424872Y38349D01*
X424792Y38335D01*
X424719Y38320D01*
X424654Y38313D01*
X424595Y38306D01*
X424552Y38298D01*
X424486D01*
X424348Y38306D01*
X424224Y38320D01*
X424100Y38342D01*
X423983Y38371D01*
X423874Y38408D01*
X423779Y38444D01*
X423684Y38488D01*
X423604Y38532D01*
X423524Y38568D01*
X423458Y38612D01*
X423400Y38648D01*
X423356Y38685D01*
X423320Y38714D01*
X423291Y38736D01*
X423276Y38750D01*
X423269Y38758D01*
X423181Y38845D01*
X423108Y38940D01*
X423043Y39035D01*
X422984Y39129D01*
X422941Y39217D01*
X422897Y39312D01*
X422839Y39487D01*
X422824Y39567D01*
X422810Y39640D01*
X422795Y39705D01*
X422788Y39764D01*
X422780Y39807D01*
Y39844D01*
Y39866D01*
Y39873D01*
X422788Y40048D01*
X422817Y40208D01*
X422860Y40347D01*
X422904Y40464D01*
X422948Y40558D01*
X422992Y40631D01*
X423021Y40675D01*
X423028Y40690D01*
X423130Y40799D01*
X423240Y40894D01*
X423356Y40966D01*
X423473Y41025D01*
X423575Y41069D01*
X423655Y41098D01*
X423684Y41105D01*
X423706Y41112D01*
X423721Y41120D01*
X423728D01*
X423604Y41185D01*
X423502Y41251D01*
X423415Y41324D01*
X423342Y41389D01*
X423283Y41448D01*
X423240Y41499D01*
X423218Y41528D01*
X423210Y41542D01*
X423152Y41644D01*
X423108Y41747D01*
X423072Y41849D01*
X423050Y41943D01*
X423035Y42024D01*
X423028Y42082D01*
Y42126D01*
Y42140D01*
X423035Y42264D01*
X423057Y42388D01*
X423087Y42497D01*
X423123Y42592D01*
X423159Y42672D01*
X423189Y42738D01*
X423210Y42774D01*
X423218Y42789D01*
X423291Y42898D01*
X423378Y42993D01*
X423466Y43073D01*
X423553Y43146D01*
X423626Y43197D01*
X423692Y43241D01*
X423735Y43263D01*
X423743Y43270D01*
X423750D01*
X423881Y43328D01*
X424012Y43372D01*
X424144Y43409D01*
X424260Y43431D01*
X424355Y43445D01*
X424435Y43452D01*
X424617D01*
X424719Y43438D01*
D02*
G37*
G36*
X416095D02*
X416292Y43401D01*
X416460Y43343D01*
X416606Y43285D01*
X416671Y43248D01*
X416722Y43219D01*
X416773Y43190D01*
X416810Y43161D01*
X416839Y43139D01*
X416861Y43124D01*
X416875Y43117D01*
X416883Y43110D01*
X417021Y42971D01*
X417131Y42818D01*
X417218Y42658D01*
X417291Y42497D01*
X417335Y42359D01*
X417356Y42301D01*
X417371Y42250D01*
X417378Y42206D01*
X417386Y42177D01*
X417393Y42155D01*
Y42147D01*
X416773Y42038D01*
X416744Y42199D01*
X416701Y42337D01*
X416649Y42454D01*
X416598Y42548D01*
X416547Y42621D01*
X416504Y42672D01*
X416474Y42709D01*
X416467Y42716D01*
X416372Y42789D01*
X416270Y42847D01*
X416176Y42884D01*
X416081Y42913D01*
X415993Y42928D01*
X415928Y42942D01*
X415869D01*
X415738Y42935D01*
X415622Y42906D01*
X415520Y42869D01*
X415432Y42833D01*
X415366Y42789D01*
X415315Y42753D01*
X415279Y42723D01*
X415272Y42716D01*
X415191Y42629D01*
X415133Y42534D01*
X415097Y42439D01*
X415067Y42352D01*
X415053Y42271D01*
X415038Y42213D01*
Y42169D01*
Y42162D01*
Y42155D01*
Y42075D01*
X415053Y42002D01*
X415089Y41878D01*
X415140Y41768D01*
X415199Y41674D01*
X415257Y41608D01*
X415308Y41557D01*
X415344Y41528D01*
X415352Y41521D01*
X415359D01*
X415483Y41455D01*
X415600Y41404D01*
X415724Y41367D01*
X415833Y41346D01*
X415928Y41331D01*
X416008Y41316D01*
X416103D01*
X416132Y41324D01*
X416168D01*
X416241Y40777D01*
X416146Y40799D01*
X416059Y40813D01*
X415986Y40828D01*
X415920Y40835D01*
X415869Y40843D01*
X415804D01*
X415651Y40828D01*
X415512Y40799D01*
X415388Y40755D01*
X415286Y40704D01*
X415206Y40653D01*
X415148Y40609D01*
X415111Y40580D01*
X415097Y40565D01*
X415002Y40456D01*
X414929Y40340D01*
X414878Y40223D01*
X414849Y40106D01*
X414827Y40012D01*
X414820Y39931D01*
X414812Y39902D01*
Y39880D01*
Y39866D01*
Y39858D01*
X414827Y39698D01*
X414863Y39552D01*
X414907Y39428D01*
X414965Y39319D01*
X415024Y39232D01*
X415067Y39166D01*
X415104Y39122D01*
X415119Y39107D01*
X415235Y39006D01*
X415359Y38933D01*
X415483Y38881D01*
X415600Y38845D01*
X415702Y38823D01*
X415782Y38816D01*
X415811Y38809D01*
X415855D01*
X415986Y38816D01*
X416110Y38845D01*
X416219Y38881D01*
X416307Y38925D01*
X416380Y38962D01*
X416438Y38998D01*
X416467Y39027D01*
X416482Y39035D01*
X416569Y39137D01*
X416642Y39253D01*
X416708Y39377D01*
X416759Y39509D01*
X416795Y39618D01*
X416810Y39669D01*
X416817Y39713D01*
X416824Y39749D01*
X416832Y39778D01*
X416839Y39793D01*
Y39800D01*
X417459Y39720D01*
X417444Y39603D01*
X417422Y39494D01*
X417356Y39290D01*
X417276Y39115D01*
X417233Y39042D01*
X417189Y38969D01*
X417145Y38903D01*
X417101Y38852D01*
X417065Y38801D01*
X417029Y38765D01*
X417007Y38736D01*
X416985Y38714D01*
X416970Y38699D01*
X416963Y38692D01*
X416875Y38626D01*
X416788Y38561D01*
X416701Y38510D01*
X416606Y38466D01*
X416423Y38393D01*
X416249Y38349D01*
X416168Y38335D01*
X416095Y38320D01*
X416030Y38313D01*
X415972Y38306D01*
X415928Y38298D01*
X415862D01*
X415724Y38306D01*
X415600Y38320D01*
X415476Y38342D01*
X415359Y38371D01*
X415250Y38408D01*
X415155Y38444D01*
X415060Y38488D01*
X414980Y38532D01*
X414900Y38568D01*
X414834Y38612D01*
X414776Y38648D01*
X414732Y38685D01*
X414696Y38714D01*
X414667Y38736D01*
X414652Y38750D01*
X414645Y38758D01*
X414557Y38845D01*
X414484Y38940D01*
X414419Y39035D01*
X414360Y39129D01*
X414317Y39217D01*
X414273Y39312D01*
X414215Y39487D01*
X414200Y39567D01*
X414185Y39640D01*
X414171Y39705D01*
X414163Y39764D01*
X414156Y39807D01*
Y39844D01*
Y39866D01*
Y39873D01*
X414163Y40048D01*
X414193Y40208D01*
X414236Y40347D01*
X414280Y40464D01*
X414324Y40558D01*
X414368Y40631D01*
X414397Y40675D01*
X414404Y40690D01*
X414506Y40799D01*
X414615Y40894D01*
X414732Y40966D01*
X414849Y41025D01*
X414951Y41069D01*
X415031Y41098D01*
X415060Y41105D01*
X415082Y41112D01*
X415097Y41120D01*
X415104D01*
X414980Y41185D01*
X414878Y41251D01*
X414790Y41324D01*
X414718Y41389D01*
X414659Y41448D01*
X414615Y41499D01*
X414594Y41528D01*
X414586Y41542D01*
X414528Y41644D01*
X414484Y41747D01*
X414448Y41849D01*
X414426Y41943D01*
X414411Y42024D01*
X414404Y42082D01*
Y42126D01*
Y42140D01*
X414411Y42264D01*
X414433Y42388D01*
X414462Y42497D01*
X414499Y42592D01*
X414535Y42672D01*
X414565Y42738D01*
X414586Y42774D01*
X414594Y42789D01*
X414667Y42898D01*
X414754Y42993D01*
X414842Y43073D01*
X414929Y43146D01*
X415002Y43197D01*
X415067Y43241D01*
X415111Y43263D01*
X415119Y43270D01*
X415126D01*
X415257Y43328D01*
X415388Y43372D01*
X415520Y43409D01*
X415636Y43431D01*
X415731Y43445D01*
X415811Y43452D01*
X415993D01*
X416095Y43438D01*
D02*
G37*
G36*
X420484Y38386D02*
X419784D01*
X417816Y43431D01*
X418494D01*
X419864Y39764D01*
X419923Y39611D01*
X419974Y39465D01*
X420017Y39326D01*
X420054Y39202D01*
X420090Y39093D01*
X420112Y39013D01*
X420119Y38984D01*
X420127Y38962D01*
X420134Y38947D01*
Y38940D01*
X420222Y39232D01*
X420265Y39370D01*
X420309Y39494D01*
X420345Y39603D01*
X420360Y39647D01*
X420367Y39691D01*
X420382Y39720D01*
X420389Y39742D01*
X420397Y39756D01*
Y39764D01*
X421709Y43431D01*
X422438D01*
X420484Y38386D01*
D02*
G37*
G36*
X369889Y3612D02*
Y1476D01*
X369219D01*
Y3612D01*
X367207Y6521D01*
X367987D01*
X368956Y5034D01*
X369073Y4852D01*
X369182Y4684D01*
X369277Y4531D01*
X369357Y4400D01*
X369423Y4290D01*
X369452Y4247D01*
X369474Y4210D01*
X369496Y4181D01*
X369510Y4159D01*
X369518Y4144D01*
Y4137D01*
X369605Y4298D01*
X369700Y4451D01*
X369788Y4597D01*
X369868Y4728D01*
X369933Y4837D01*
X369962Y4881D01*
X369992Y4917D01*
X370006Y4946D01*
X370021Y4968D01*
X370035Y4983D01*
Y4990D01*
X371027Y6521D01*
X371836D01*
X369889Y3612D01*
D02*
G37*
G36*
X380322Y1476D02*
X379680D01*
Y5435D01*
X377041Y1476D01*
X376348D01*
Y6521D01*
X376990D01*
Y2555D01*
X379636Y6521D01*
X380322D01*
Y1476D01*
D02*
G37*
G36*
X392751Y5209D02*
X392882Y5194D01*
X393006Y5172D01*
X393123Y5136D01*
X393232Y5099D01*
X393334Y5056D01*
X393429Y5012D01*
X393509Y4961D01*
X393589Y4917D01*
X393655Y4866D01*
X393713Y4823D01*
X393757Y4786D01*
X393793Y4750D01*
X393823Y4728D01*
X393837Y4713D01*
X393845Y4706D01*
X393925Y4604D01*
X393998Y4494D01*
X394063Y4385D01*
X394122Y4268D01*
X394165Y4144D01*
X394202Y4028D01*
X394260Y3795D01*
X394282Y3692D01*
X394296Y3590D01*
X394304Y3503D01*
X394311Y3423D01*
X394318Y3357D01*
Y3314D01*
Y3277D01*
Y3270D01*
X394311Y3109D01*
X394296Y2956D01*
X394275Y2811D01*
X394245Y2679D01*
X394209Y2555D01*
X394173Y2439D01*
X394129Y2337D01*
X394085Y2242D01*
X394041Y2162D01*
X393998Y2089D01*
X393961Y2030D01*
X393925Y1979D01*
X393896Y1936D01*
X393874Y1907D01*
X393859Y1892D01*
X393852Y1885D01*
X393757Y1797D01*
X393662Y1724D01*
X393560Y1659D01*
X393451Y1600D01*
X393349Y1557D01*
X393239Y1513D01*
X393035Y1455D01*
X392940Y1440D01*
X392853Y1425D01*
X392773Y1411D01*
X392707Y1403D01*
X392656Y1396D01*
X392576D01*
X392350Y1411D01*
X392146Y1447D01*
X391964Y1491D01*
X391891Y1520D01*
X391818Y1549D01*
X391752Y1578D01*
X391694Y1608D01*
X391650Y1630D01*
X391606Y1651D01*
X391577Y1673D01*
X391555Y1688D01*
X391541Y1702D01*
X391533D01*
X391388Y1834D01*
X391271Y1972D01*
X391169Y2118D01*
X391096Y2256D01*
X391038Y2380D01*
X391016Y2439D01*
X390994Y2482D01*
X390980Y2526D01*
X390972Y2555D01*
X390965Y2570D01*
Y2577D01*
X391606Y2657D01*
X391665Y2519D01*
X391730Y2402D01*
X391796Y2300D01*
X391854Y2220D01*
X391905Y2162D01*
X391949Y2118D01*
X391986Y2089D01*
X391993Y2081D01*
X392088Y2023D01*
X392182Y1979D01*
X392284Y1950D01*
X392372Y1928D01*
X392452Y1914D01*
X392518Y1907D01*
X392576D01*
X392664Y1914D01*
X392744Y1921D01*
X392889Y1957D01*
X393021Y2008D01*
X393137Y2067D01*
X393225Y2118D01*
X393290Y2169D01*
X393334Y2205D01*
X393341Y2220D01*
X393349D01*
X393451Y2351D01*
X393531Y2497D01*
X393589Y2657D01*
X393633Y2803D01*
X393655Y2934D01*
X393670Y2993D01*
X393677Y3044D01*
Y3087D01*
X393684Y3117D01*
Y3139D01*
Y3146D01*
X390950D01*
X390943Y3219D01*
Y3270D01*
Y3299D01*
Y3306D01*
X390950Y3474D01*
X390965Y3627D01*
X390987Y3773D01*
X391016Y3911D01*
X391052Y4035D01*
X391089Y4152D01*
X391133Y4254D01*
X391176Y4349D01*
X391220Y4436D01*
X391264Y4509D01*
X391300Y4567D01*
X391337Y4618D01*
X391366Y4662D01*
X391388Y4691D01*
X391402Y4706D01*
X391410Y4713D01*
X391497Y4801D01*
X391592Y4881D01*
X391694Y4946D01*
X391796Y5005D01*
X391898Y5056D01*
X391993Y5092D01*
X392095Y5129D01*
X392182Y5150D01*
X392277Y5172D01*
X392357Y5187D01*
X392430Y5202D01*
X392489Y5209D01*
X392540Y5216D01*
X392612D01*
X392751Y5209D01*
D02*
G37*
G36*
X353961D02*
X354092Y5194D01*
X354216Y5172D01*
X354333Y5136D01*
X354442Y5099D01*
X354544Y5056D01*
X354639Y5012D01*
X354719Y4961D01*
X354799Y4917D01*
X354865Y4866D01*
X354923Y4823D01*
X354967Y4786D01*
X355003Y4750D01*
X355032Y4728D01*
X355047Y4713D01*
X355054Y4706D01*
X355135Y4604D01*
X355207Y4494D01*
X355273Y4385D01*
X355331Y4268D01*
X355375Y4144D01*
X355412Y4028D01*
X355470Y3795D01*
X355492Y3692D01*
X355506Y3590D01*
X355514Y3503D01*
X355521Y3423D01*
X355528Y3357D01*
Y3314D01*
Y3277D01*
Y3270D01*
X355521Y3109D01*
X355506Y2956D01*
X355485Y2811D01*
X355455Y2679D01*
X355419Y2555D01*
X355382Y2439D01*
X355339Y2337D01*
X355295Y2242D01*
X355251Y2162D01*
X355207Y2089D01*
X355171Y2030D01*
X355135Y1979D01*
X355105Y1936D01*
X355083Y1907D01*
X355069Y1892D01*
X355062Y1885D01*
X354967Y1797D01*
X354872Y1724D01*
X354770Y1659D01*
X354661Y1600D01*
X354559Y1557D01*
X354449Y1513D01*
X354245Y1455D01*
X354150Y1440D01*
X354063Y1425D01*
X353983Y1411D01*
X353917Y1403D01*
X353866Y1396D01*
X353786D01*
X353560Y1411D01*
X353356Y1447D01*
X353173Y1491D01*
X353101Y1520D01*
X353028Y1549D01*
X352962Y1578D01*
X352904Y1608D01*
X352860Y1630D01*
X352816Y1651D01*
X352787Y1673D01*
X352765Y1688D01*
X352751Y1702D01*
X352743D01*
X352598Y1834D01*
X352481Y1972D01*
X352379Y2118D01*
X352306Y2256D01*
X352248Y2380D01*
X352226Y2439D01*
X352204Y2482D01*
X352189Y2526D01*
X352182Y2555D01*
X352175Y2570D01*
Y2577D01*
X352816Y2657D01*
X352875Y2519D01*
X352940Y2402D01*
X353006Y2300D01*
X353064Y2220D01*
X353115Y2162D01*
X353159Y2118D01*
X353195Y2089D01*
X353203Y2081D01*
X353297Y2023D01*
X353392Y1979D01*
X353494Y1950D01*
X353582Y1928D01*
X353662Y1914D01*
X353728Y1907D01*
X353786D01*
X353873Y1914D01*
X353954Y1921D01*
X354099Y1957D01*
X354231Y2008D01*
X354347Y2067D01*
X354435Y2118D01*
X354500Y2169D01*
X354544Y2205D01*
X354551Y2220D01*
X354559D01*
X354661Y2351D01*
X354741Y2497D01*
X354799Y2657D01*
X354843Y2803D01*
X354865Y2934D01*
X354879Y2993D01*
X354887Y3044D01*
Y3087D01*
X354894Y3117D01*
Y3139D01*
Y3146D01*
X352160D01*
X352153Y3219D01*
Y3270D01*
Y3299D01*
Y3306D01*
X352160Y3474D01*
X352175Y3627D01*
X352197Y3773D01*
X352226Y3911D01*
X352262Y4035D01*
X352299Y4152D01*
X352343Y4254D01*
X352386Y4349D01*
X352430Y4436D01*
X352474Y4509D01*
X352510Y4567D01*
X352547Y4618D01*
X352576Y4662D01*
X352598Y4691D01*
X352612Y4706D01*
X352620Y4713D01*
X352707Y4801D01*
X352802Y4881D01*
X352904Y4946D01*
X353006Y5005D01*
X353108Y5056D01*
X353203Y5092D01*
X353305Y5129D01*
X353392Y5150D01*
X353487Y5172D01*
X353567Y5187D01*
X353640Y5202D01*
X353698Y5209D01*
X353749Y5216D01*
X353822D01*
X353961Y5209D01*
D02*
G37*
G36*
X399611Y1476D02*
X398991D01*
Y6521D01*
X399611D01*
Y1476D01*
D02*
G37*
G36*
X388924Y5209D02*
X388997Y5194D01*
X389070Y5172D01*
X389128Y5150D01*
X389172Y5129D01*
X389215Y5107D01*
X389237Y5092D01*
X389245Y5085D01*
X389310Y5027D01*
X389376Y4954D01*
X389441Y4866D01*
X389500Y4786D01*
X389558Y4706D01*
X389594Y4640D01*
X389623Y4589D01*
X389631Y4582D01*
Y5136D01*
X390192D01*
Y1476D01*
X389573D01*
Y3386D01*
X389565Y3532D01*
X389558Y3663D01*
X389543Y3787D01*
X389522Y3897D01*
X389500Y3984D01*
X389485Y4050D01*
X389478Y4093D01*
X389471Y4108D01*
X389441Y4188D01*
X389405Y4254D01*
X389368Y4312D01*
X389332Y4363D01*
X389296Y4400D01*
X389274Y4429D01*
X389252Y4443D01*
X389245Y4451D01*
X389186Y4494D01*
X389121Y4524D01*
X389055Y4546D01*
X389004Y4560D01*
X388953Y4567D01*
X388916Y4575D01*
X388880D01*
X388800Y4567D01*
X388720Y4553D01*
X388639Y4531D01*
X388574Y4509D01*
X388515Y4487D01*
X388472Y4465D01*
X388443Y4451D01*
X388435Y4443D01*
X388209Y5012D01*
X388333Y5078D01*
X388450Y5129D01*
X388552Y5165D01*
X388647Y5194D01*
X388727Y5209D01*
X388792Y5216D01*
X388843D01*
X388924Y5209D01*
D02*
G37*
G36*
X375255Y1476D02*
X372098D01*
Y2074D01*
X374584D01*
Y6521D01*
X375255D01*
Y1476D01*
D02*
G37*
G36*
X357664Y5209D02*
X357795Y5187D01*
X357912Y5158D01*
X358029Y5121D01*
X358131Y5078D01*
X358225Y5027D01*
X358313Y4968D01*
X358386Y4917D01*
X358459Y4859D01*
X358517Y4801D01*
X358568Y4750D01*
X358612Y4706D01*
X358641Y4669D01*
X358663Y4640D01*
X358678Y4618D01*
X358685Y4611D01*
Y5136D01*
X359239D01*
Y1476D01*
X358619D01*
Y3467D01*
Y3590D01*
X358605Y3714D01*
X358590Y3816D01*
X358575Y3911D01*
X358554Y3999D01*
X358532Y4079D01*
X358503Y4152D01*
X358473Y4210D01*
X358452Y4261D01*
X358422Y4305D01*
X358401Y4341D01*
X358379Y4371D01*
X358349Y4407D01*
X358335Y4422D01*
X358225Y4509D01*
X358109Y4567D01*
X357992Y4611D01*
X357890Y4648D01*
X357795Y4662D01*
X357722Y4669D01*
X357693Y4677D01*
X357657D01*
X357569Y4669D01*
X357482Y4662D01*
X357409Y4640D01*
X357351Y4618D01*
X357300Y4597D01*
X357256Y4582D01*
X357234Y4567D01*
X357227Y4560D01*
X357161Y4516D01*
X357103Y4465D01*
X357059Y4414D01*
X357023Y4371D01*
X357001Y4327D01*
X356979Y4290D01*
X356964Y4268D01*
Y4261D01*
X356943Y4181D01*
X356921Y4093D01*
X356906Y3999D01*
X356899Y3904D01*
X356891Y3824D01*
Y3758D01*
Y3707D01*
Y3700D01*
Y3692D01*
Y1476D01*
X356272D01*
Y3722D01*
Y3875D01*
X356279Y3999D01*
X356286Y4101D01*
Y4188D01*
X356294Y4247D01*
X356301Y4290D01*
X356308Y4320D01*
Y4327D01*
X356330Y4422D01*
X356367Y4509D01*
X356396Y4582D01*
X356425Y4655D01*
X356461Y4706D01*
X356483Y4742D01*
X356498Y4772D01*
X356505Y4779D01*
X356563Y4852D01*
X356629Y4910D01*
X356695Y4968D01*
X356768Y5012D01*
X356826Y5049D01*
X356877Y5070D01*
X356906Y5085D01*
X356921Y5092D01*
X357023Y5136D01*
X357132Y5165D01*
X357234Y5187D01*
X357329Y5202D01*
X357409Y5209D01*
X357467Y5216D01*
X357526D01*
X357664Y5209D01*
D02*
G37*
G36*
X402162D02*
X402279Y5202D01*
X402505Y5150D01*
X402702Y5085D01*
X402789Y5049D01*
X402870Y5012D01*
X402942Y4976D01*
X403001Y4939D01*
X403059Y4903D01*
X403103Y4874D01*
X403139Y4844D01*
X403168Y4823D01*
X403183Y4815D01*
X403190Y4808D01*
X403292Y4713D01*
X403372Y4604D01*
X403453Y4487D01*
X403511Y4371D01*
X403569Y4247D01*
X403613Y4115D01*
X403650Y3991D01*
X403679Y3875D01*
X403708Y3758D01*
X403722Y3656D01*
X403737Y3554D01*
X403744Y3474D01*
Y3401D01*
X403752Y3350D01*
Y3321D01*
Y3306D01*
X403744Y3139D01*
X403730Y2978D01*
X403708Y2832D01*
X403679Y2694D01*
X403642Y2570D01*
X403606Y2453D01*
X403562Y2344D01*
X403518Y2249D01*
X403475Y2162D01*
X403431Y2089D01*
X403394Y2030D01*
X403358Y1979D01*
X403329Y1936D01*
X403307Y1907D01*
X403292Y1892D01*
X403285Y1885D01*
X403190Y1797D01*
X403095Y1724D01*
X402993Y1659D01*
X402891Y1600D01*
X402789Y1557D01*
X402680Y1513D01*
X402483Y1455D01*
X402396Y1440D01*
X402308Y1425D01*
X402235Y1411D01*
X402170Y1403D01*
X402111Y1396D01*
X402038D01*
X401863Y1403D01*
X401703Y1433D01*
X401550Y1469D01*
X401426Y1505D01*
X401317Y1549D01*
X401273Y1564D01*
X401236Y1578D01*
X401200Y1593D01*
X401178Y1608D01*
X401171Y1615D01*
X401164D01*
X401018Y1710D01*
X400894Y1812D01*
X400784Y1914D01*
X400697Y2016D01*
X400631Y2103D01*
X400580Y2176D01*
X400566Y2205D01*
X400551Y2227D01*
X400544Y2235D01*
Y2242D01*
X400471Y2410D01*
X400420Y2592D01*
X400376Y2774D01*
X400354Y2956D01*
X400340Y3036D01*
Y3109D01*
X400333Y3182D01*
X400325Y3241D01*
Y3292D01*
Y3328D01*
Y3350D01*
Y3357D01*
X400333Y3518D01*
X400347Y3663D01*
X400369Y3802D01*
X400398Y3933D01*
X400435Y4057D01*
X400478Y4166D01*
X400522Y4276D01*
X400566Y4363D01*
X400610Y4443D01*
X400653Y4516D01*
X400697Y4582D01*
X400734Y4633D01*
X400763Y4669D01*
X400784Y4699D01*
X400799Y4713D01*
X400806Y4720D01*
X400901Y4808D01*
X400996Y4881D01*
X401098Y4954D01*
X401200Y5005D01*
X401302Y5056D01*
X401404Y5092D01*
X401601Y5158D01*
X401696Y5172D01*
X401776Y5187D01*
X401849Y5202D01*
X401915Y5209D01*
X401966Y5216D01*
X402038D01*
X402162Y5209D01*
D02*
G37*
G36*
X395711Y4713D02*
X395776Y4793D01*
X395849Y4859D01*
X395915Y4924D01*
X395988Y4976D01*
X396046Y5012D01*
X396090Y5049D01*
X396119Y5063D01*
X396133Y5070D01*
X396228Y5121D01*
X396330Y5158D01*
X396432Y5180D01*
X396527Y5202D01*
X396607Y5209D01*
X396666Y5216D01*
X396724D01*
X396884Y5209D01*
X397038Y5180D01*
X397176Y5143D01*
X397293Y5099D01*
X397395Y5049D01*
X397468Y5012D01*
X397497Y4997D01*
X397519Y4983D01*
X397526Y4976D01*
X397533D01*
X397664Y4881D01*
X397774Y4764D01*
X397868Y4655D01*
X397941Y4546D01*
X398000Y4443D01*
X398043Y4363D01*
X398058Y4334D01*
X398073Y4312D01*
X398080Y4298D01*
Y4290D01*
X398138Y4123D01*
X398182Y3948D01*
X398218Y3780D01*
X398240Y3627D01*
X398255Y3496D01*
Y3437D01*
X398262Y3394D01*
Y3350D01*
Y3321D01*
Y3306D01*
Y3299D01*
X398255Y3095D01*
X398233Y2905D01*
X398197Y2737D01*
X398160Y2592D01*
X398146Y2526D01*
X398131Y2475D01*
X398109Y2424D01*
X398095Y2380D01*
X398080Y2351D01*
X398073Y2329D01*
X398065Y2315D01*
Y2307D01*
X397985Y2154D01*
X397890Y2023D01*
X397796Y1907D01*
X397701Y1812D01*
X397621Y1739D01*
X397555Y1681D01*
X397511Y1651D01*
X397504Y1637D01*
X397497D01*
X397358Y1557D01*
X397220Y1498D01*
X397081Y1455D01*
X396957Y1425D01*
X396855Y1411D01*
X396768Y1403D01*
X396739Y1396D01*
X396695D01*
X396571Y1403D01*
X396454Y1418D01*
X396345Y1447D01*
X396250Y1484D01*
X396155Y1520D01*
X396068Y1564D01*
X395995Y1615D01*
X395929Y1666D01*
X395864Y1717D01*
X395813Y1768D01*
X395769Y1812D01*
X395733Y1848D01*
X395703Y1885D01*
X395682Y1914D01*
X395674Y1928D01*
X395667Y1936D01*
Y1476D01*
X395091D01*
Y6521D01*
X395711D01*
Y4713D01*
D02*
G37*
G36*
X406595Y6601D02*
X406762Y6579D01*
X406923Y6550D01*
X407061Y6521D01*
X407171Y6492D01*
X407222Y6477D01*
X407258Y6463D01*
X407287Y6448D01*
X407309Y6441D01*
X407324Y6434D01*
X407331D01*
X407477Y6361D01*
X407608Y6280D01*
X407717Y6193D01*
X407805Y6113D01*
X407870Y6040D01*
X407922Y5982D01*
X407958Y5938D01*
X407965Y5931D01*
Y5923D01*
X408038Y5799D01*
X408089Y5675D01*
X408126Y5551D01*
X408147Y5442D01*
X408162Y5347D01*
X408177Y5274D01*
Y5245D01*
Y5223D01*
Y5216D01*
Y5209D01*
X408169Y5085D01*
X408147Y4968D01*
X408118Y4859D01*
X408089Y4764D01*
X408060Y4691D01*
X408031Y4633D01*
X408009Y4597D01*
X408002Y4582D01*
X407929Y4480D01*
X407841Y4385D01*
X407754Y4305D01*
X407666Y4239D01*
X407593Y4181D01*
X407528Y4144D01*
X407484Y4115D01*
X407477Y4108D01*
X407470D01*
X407411Y4079D01*
X407345Y4050D01*
X407200Y3999D01*
X407032Y3948D01*
X406872Y3897D01*
X406726Y3853D01*
X406660Y3838D01*
X406602Y3824D01*
X406558Y3809D01*
X406522Y3802D01*
X406500Y3795D01*
X406493D01*
X406369Y3765D01*
X406252Y3736D01*
X406150Y3707D01*
X406063Y3685D01*
X405975Y3663D01*
X405902Y3641D01*
X405836Y3627D01*
X405786Y3605D01*
X405734Y3590D01*
X405698Y3583D01*
X405640Y3561D01*
X405603Y3554D01*
X405596Y3547D01*
X405487Y3503D01*
X405392Y3452D01*
X405312Y3401D01*
X405253Y3357D01*
X405202Y3314D01*
X405173Y3284D01*
X405151Y3262D01*
X405144Y3255D01*
X405093Y3190D01*
X405056Y3117D01*
X405035Y3044D01*
X405013Y2985D01*
X405006Y2927D01*
X404998Y2883D01*
Y2847D01*
Y2840D01*
X405006Y2752D01*
X405020Y2672D01*
X405042Y2599D01*
X405071Y2541D01*
X405100Y2482D01*
X405122Y2446D01*
X405137Y2417D01*
X405144Y2410D01*
X405202Y2337D01*
X405275Y2278D01*
X405348Y2227D01*
X405414Y2176D01*
X405479Y2147D01*
X405530Y2118D01*
X405567Y2103D01*
X405581Y2096D01*
X405691Y2060D01*
X405807Y2030D01*
X405924Y2016D01*
X406026Y2001D01*
X406113Y1994D01*
X406186Y1987D01*
X406252D01*
X406412Y1994D01*
X406558Y2008D01*
X406689Y2030D01*
X406806Y2060D01*
X406901Y2089D01*
X406974Y2111D01*
X406996Y2118D01*
X407018Y2125D01*
X407025Y2132D01*
X407032D01*
X407149Y2191D01*
X407258Y2256D01*
X407338Y2322D01*
X407411Y2388D01*
X407470Y2439D01*
X407506Y2490D01*
X407528Y2519D01*
X407535Y2526D01*
X407586Y2621D01*
X407637Y2723D01*
X407666Y2832D01*
X407695Y2927D01*
X407717Y3022D01*
X407732Y3087D01*
Y3117D01*
X407739Y3139D01*
Y3146D01*
Y3153D01*
X408366Y3095D01*
X408352Y2912D01*
X408322Y2737D01*
X408279Y2585D01*
X408228Y2446D01*
X408177Y2337D01*
X408155Y2293D01*
X408140Y2256D01*
X408118Y2227D01*
X408111Y2205D01*
X408096Y2191D01*
Y2183D01*
X407987Y2045D01*
X407870Y1921D01*
X407747Y1819D01*
X407630Y1732D01*
X407528Y1666D01*
X407440Y1622D01*
X407411Y1608D01*
X407389Y1593D01*
X407375Y1586D01*
X407367D01*
X407185Y1520D01*
X406996Y1469D01*
X406806Y1440D01*
X406624Y1411D01*
X406536Y1403D01*
X406463Y1396D01*
X406398D01*
X406340Y1389D01*
X406223D01*
X406026Y1396D01*
X405844Y1418D01*
X405676Y1455D01*
X405538Y1491D01*
X405421Y1520D01*
X405370Y1542D01*
X405326Y1557D01*
X405297Y1571D01*
X405275Y1578D01*
X405261Y1586D01*
X405253D01*
X405100Y1666D01*
X404969Y1753D01*
X404852Y1848D01*
X404758Y1936D01*
X404685Y2008D01*
X404634Y2074D01*
X404597Y2118D01*
X404590Y2125D01*
Y2132D01*
X404510Y2271D01*
X404451Y2402D01*
X404415Y2526D01*
X404386Y2643D01*
X404371Y2745D01*
X404357Y2825D01*
Y2854D01*
Y2876D01*
Y2883D01*
Y2891D01*
X404364Y3036D01*
X404386Y3175D01*
X404422Y3299D01*
X404459Y3401D01*
X404502Y3488D01*
X404532Y3554D01*
X404561Y3590D01*
X404568Y3605D01*
X404656Y3714D01*
X404758Y3816D01*
X404867Y3904D01*
X404976Y3984D01*
X405071Y4042D01*
X405151Y4086D01*
X405180Y4101D01*
X405202Y4115D01*
X405217Y4123D01*
X405224D01*
X405282Y4152D01*
X405355Y4174D01*
X405436Y4203D01*
X405523Y4232D01*
X405705Y4283D01*
X405895Y4334D01*
X405982Y4356D01*
X406063Y4378D01*
X406143Y4400D01*
X406208Y4414D01*
X406259Y4429D01*
X406303Y4436D01*
X406332Y4443D01*
X406340D01*
X406485Y4480D01*
X406616Y4509D01*
X406733Y4546D01*
X406835Y4575D01*
X406930Y4611D01*
X407010Y4640D01*
X407083Y4669D01*
X407149Y4691D01*
X407200Y4720D01*
X407243Y4742D01*
X407273Y4757D01*
X407302Y4779D01*
X407338Y4801D01*
X407345Y4808D01*
X407411Y4881D01*
X407455Y4954D01*
X407491Y5027D01*
X407513Y5099D01*
X407528Y5158D01*
X407535Y5209D01*
Y5238D01*
Y5253D01*
X407520Y5369D01*
X407491Y5471D01*
X407448Y5559D01*
X407397Y5639D01*
X407353Y5697D01*
X407309Y5748D01*
X407280Y5777D01*
X407265Y5785D01*
X407207Y5821D01*
X407149Y5858D01*
X407010Y5916D01*
X406864Y5952D01*
X406719Y5982D01*
X406587Y5996D01*
X406529Y6004D01*
X406485Y6011D01*
X406383D01*
X406179Y6004D01*
X405997Y5974D01*
X405851Y5931D01*
X405727Y5887D01*
X405632Y5843D01*
X405559Y5799D01*
X405523Y5770D01*
X405509Y5763D01*
X405406Y5661D01*
X405326Y5551D01*
X405261Y5435D01*
X405217Y5318D01*
X405188Y5209D01*
X405166Y5129D01*
X405159Y5092D01*
X405151Y5070D01*
Y5056D01*
Y5049D01*
X404510Y5099D01*
X404524Y5260D01*
X404561Y5406D01*
X404597Y5544D01*
X404648Y5661D01*
X404692Y5756D01*
X404728Y5829D01*
X404743Y5850D01*
X404758Y5872D01*
X404765Y5880D01*
Y5887D01*
X404860Y6011D01*
X404962Y6120D01*
X405071Y6215D01*
X405180Y6288D01*
X405275Y6353D01*
X405348Y6390D01*
X405377Y6404D01*
X405399Y6419D01*
X405414Y6426D01*
X405421D01*
X405581Y6485D01*
X405756Y6528D01*
X405917Y6565D01*
X406070Y6587D01*
X406208Y6601D01*
X406259D01*
X406310Y6609D01*
X406405D01*
X406595Y6601D01*
D02*
G37*
G36*
X383784D02*
X383966Y6579D01*
X384141Y6543D01*
X384309Y6499D01*
X384462Y6441D01*
X384608Y6382D01*
X384739Y6317D01*
X384856Y6251D01*
X384965Y6186D01*
X385060Y6120D01*
X385140Y6062D01*
X385206Y6004D01*
X385257Y5960D01*
X385301Y5923D01*
X385322Y5901D01*
X385330Y5894D01*
X385446Y5756D01*
X385548Y5610D01*
X385643Y5449D01*
X385716Y5289D01*
X385782Y5121D01*
X385840Y4961D01*
X385884Y4801D01*
X385913Y4648D01*
X385942Y4502D01*
X385964Y4363D01*
X385979Y4239D01*
X385993Y4137D01*
Y4050D01*
X386000Y3984D01*
Y3940D01*
Y3933D01*
Y3926D01*
X385986Y3678D01*
X385957Y3452D01*
X385913Y3233D01*
X385884Y3139D01*
X385855Y3044D01*
X385833Y2963D01*
X385804Y2891D01*
X385782Y2825D01*
X385760Y2767D01*
X385745Y2723D01*
X385731Y2694D01*
X385716Y2672D01*
Y2665D01*
X385592Y2453D01*
X385461Y2271D01*
X385315Y2111D01*
X385177Y1979D01*
X385053Y1870D01*
X385002Y1826D01*
X384958Y1797D01*
X384914Y1768D01*
X384885Y1746D01*
X384871Y1739D01*
X384863Y1732D01*
X384754Y1673D01*
X384645Y1622D01*
X384426Y1535D01*
X384214Y1476D01*
X384017Y1433D01*
X383923Y1418D01*
X383843Y1411D01*
X383770Y1396D01*
X383704D01*
X383660Y1389D01*
X383587D01*
X383347Y1403D01*
X383121Y1440D01*
X382909Y1484D01*
X382815Y1513D01*
X382727Y1542D01*
X382647Y1571D01*
X382574Y1600D01*
X382516Y1622D01*
X382465Y1644D01*
X382421Y1666D01*
X382385Y1681D01*
X382370Y1695D01*
X382363D01*
X382159Y1826D01*
X381984Y1972D01*
X381838Y2125D01*
X381714Y2271D01*
X381612Y2410D01*
X381575Y2461D01*
X381546Y2512D01*
X381517Y2555D01*
X381503Y2585D01*
X381488Y2606D01*
Y2614D01*
X381430Y2730D01*
X381386Y2847D01*
X381306Y3080D01*
X381247Y3314D01*
X381211Y3525D01*
X381204Y3620D01*
X381189Y3707D01*
X381182Y3787D01*
Y3853D01*
X381174Y3911D01*
Y3948D01*
Y3977D01*
Y3984D01*
X381189Y4261D01*
X381218Y4516D01*
X381240Y4633D01*
X381269Y4750D01*
X381298Y4852D01*
X381320Y4946D01*
X381349Y5034D01*
X381379Y5114D01*
X381400Y5180D01*
X381430Y5238D01*
X381444Y5282D01*
X381459Y5311D01*
X381473Y5333D01*
Y5340D01*
X381590Y5551D01*
X381729Y5741D01*
X381874Y5901D01*
X382006Y6033D01*
X382129Y6135D01*
X382188Y6178D01*
X382231Y6215D01*
X382275Y6237D01*
X382304Y6259D01*
X382319Y6266D01*
X382326Y6273D01*
X382436Y6331D01*
X382545Y6382D01*
X382756Y6470D01*
X382975Y6528D01*
X383165Y6565D01*
X383252Y6579D01*
X383340Y6594D01*
X383405Y6601D01*
X383471D01*
X383522Y6609D01*
X383587D01*
X383784Y6601D01*
D02*
G37*
G36*
X362629D02*
X362811Y6579D01*
X362986Y6543D01*
X363154Y6499D01*
X363307Y6441D01*
X363452Y6382D01*
X363584Y6317D01*
X363700Y6251D01*
X363810Y6186D01*
X363904Y6120D01*
X363985Y6062D01*
X364050Y6004D01*
X364101Y5960D01*
X364145Y5923D01*
X364167Y5901D01*
X364174Y5894D01*
X364291Y5756D01*
X364393Y5610D01*
X364488Y5449D01*
X364561Y5289D01*
X364626Y5121D01*
X364685Y4961D01*
X364728Y4801D01*
X364757Y4648D01*
X364787Y4502D01*
X364808Y4363D01*
X364823Y4239D01*
X364838Y4137D01*
Y4050D01*
X364845Y3984D01*
Y3940D01*
Y3933D01*
Y3926D01*
X364830Y3678D01*
X364801Y3452D01*
X364757Y3233D01*
X364728Y3139D01*
X364699Y3044D01*
X364677Y2963D01*
X364648Y2891D01*
X364626Y2825D01*
X364604Y2767D01*
X364590Y2723D01*
X364575Y2694D01*
X364561Y2672D01*
Y2665D01*
X364437Y2453D01*
X364305Y2271D01*
X364160Y2111D01*
X364021Y1979D01*
X363897Y1870D01*
X363846Y1826D01*
X363802Y1797D01*
X363759Y1768D01*
X363730Y1746D01*
X363715Y1739D01*
X363708Y1732D01*
X363598Y1673D01*
X363489Y1622D01*
X363270Y1535D01*
X363059Y1476D01*
X362862Y1433D01*
X362767Y1418D01*
X362687Y1411D01*
X362614Y1396D01*
X362548D01*
X362505Y1389D01*
X362432D01*
X362191Y1403D01*
X361965Y1440D01*
X361754Y1484D01*
X361659Y1513D01*
X361572Y1542D01*
X361491Y1571D01*
X361419Y1600D01*
X361360Y1622D01*
X361309Y1644D01*
X361265Y1666D01*
X361229Y1681D01*
X361214Y1695D01*
X361207D01*
X361003Y1826D01*
X360828Y1972D01*
X360682Y2125D01*
X360558Y2271D01*
X360456Y2410D01*
X360420Y2461D01*
X360391Y2512D01*
X360362Y2555D01*
X360347Y2585D01*
X360332Y2606D01*
Y2614D01*
X360274Y2730D01*
X360230Y2847D01*
X360150Y3080D01*
X360092Y3314D01*
X360055Y3525D01*
X360048Y3620D01*
X360033Y3707D01*
X360026Y3787D01*
Y3853D01*
X360019Y3911D01*
Y3948D01*
Y3977D01*
Y3984D01*
X360033Y4261D01*
X360063Y4516D01*
X360085Y4633D01*
X360114Y4750D01*
X360143Y4852D01*
X360165Y4946D01*
X360194Y5034D01*
X360223Y5114D01*
X360245Y5180D01*
X360274Y5238D01*
X360289Y5282D01*
X360303Y5311D01*
X360318Y5333D01*
Y5340D01*
X360434Y5551D01*
X360573Y5741D01*
X360719Y5901D01*
X360850Y6033D01*
X360974Y6135D01*
X361032Y6178D01*
X361076Y6215D01*
X361120Y6237D01*
X361149Y6259D01*
X361163Y6266D01*
X361171Y6273D01*
X361280Y6331D01*
X361389Y6382D01*
X361601Y6470D01*
X361820Y6528D01*
X362009Y6565D01*
X362097Y6579D01*
X362184Y6594D01*
X362250Y6601D01*
X362315D01*
X362366Y6609D01*
X362432D01*
X362629Y6601D01*
D02*
G37*
%LPC*%
G36*
X333068Y42942D02*
X333010D01*
X332886Y42935D01*
X332769Y42906D01*
X332675Y42869D01*
X332587Y42825D01*
X332522Y42782D01*
X332470Y42745D01*
X332434Y42716D01*
X332427Y42709D01*
X332347Y42614D01*
X332288Y42519D01*
X332244Y42424D01*
X332215Y42337D01*
X332201Y42257D01*
X332186Y42191D01*
Y42147D01*
Y42140D01*
Y42133D01*
X332193Y42016D01*
X332223Y41907D01*
X332259Y41812D01*
X332303Y41732D01*
X332347Y41666D01*
X332383Y41623D01*
X332412Y41586D01*
X332419Y41579D01*
X332507Y41506D01*
X332609Y41448D01*
X332704Y41411D01*
X332799Y41382D01*
X332886Y41367D01*
X332952Y41360D01*
X332995Y41353D01*
X333010D01*
X333141Y41360D01*
X333258Y41389D01*
X333360Y41426D01*
X333447Y41469D01*
X333513Y41506D01*
X333564Y41542D01*
X333600Y41572D01*
X333608Y41579D01*
X333681Y41666D01*
X333739Y41768D01*
X333775Y41863D01*
X333804Y41958D01*
X333819Y42038D01*
X333826Y42104D01*
X333834Y42147D01*
Y42155D01*
Y42162D01*
X333826Y42279D01*
X333797Y42381D01*
X333761Y42476D01*
X333717Y42556D01*
X333681Y42621D01*
X333644Y42672D01*
X333615Y42702D01*
X333608Y42709D01*
X333513Y42789D01*
X333418Y42847D01*
X333316Y42884D01*
X333221Y42913D01*
X333134Y42928D01*
X333068Y42942D01*
D02*
G37*
G36*
X333075Y40850D02*
X333032D01*
X332871Y40835D01*
X332726Y40806D01*
X332594Y40755D01*
X332485Y40704D01*
X332398Y40646D01*
X332332Y40595D01*
X332295Y40565D01*
X332281Y40551D01*
X332179Y40434D01*
X332106Y40310D01*
X332055Y40187D01*
X332018Y40077D01*
X331997Y39968D01*
X331989Y39888D01*
X331982Y39858D01*
Y39836D01*
Y39822D01*
Y39815D01*
X331997Y39662D01*
X332026Y39516D01*
X332077Y39392D01*
X332128Y39290D01*
X332179Y39210D01*
X332230Y39144D01*
X332259Y39107D01*
X332274Y39093D01*
X332390Y38998D01*
X332507Y38925D01*
X332631Y38881D01*
X332748Y38845D01*
X332850Y38823D01*
X332937Y38816D01*
X332966Y38809D01*
X333010D01*
X333112Y38816D01*
X333214Y38831D01*
X333309Y38852D01*
X333389Y38874D01*
X333455Y38896D01*
X333506Y38918D01*
X333535Y38933D01*
X333549Y38940D01*
X333637Y38998D01*
X333710Y39057D01*
X333775Y39122D01*
X333826Y39188D01*
X333870Y39239D01*
X333899Y39283D01*
X333914Y39319D01*
X333921Y39326D01*
X333958Y39421D01*
X333987Y39509D01*
X334009Y39596D01*
X334023Y39676D01*
X334031Y39742D01*
X334038Y39793D01*
Y39822D01*
Y39836D01*
X334023Y39990D01*
X333994Y40128D01*
X333950Y40252D01*
X333892Y40361D01*
X333841Y40442D01*
X333797Y40507D01*
X333768Y40544D01*
X333753Y40558D01*
X333644Y40653D01*
X333520Y40726D01*
X333404Y40777D01*
X333287Y40813D01*
X333185Y40835D01*
X333105Y40843D01*
X333075Y40850D01*
D02*
G37*
G36*
X341685Y34747D02*
X341649D01*
X341576Y34740D01*
X341503Y34733D01*
X341372Y34696D01*
X341255Y34638D01*
X341153Y34572D01*
X341073Y34507D01*
X341014Y34456D01*
X340978Y34412D01*
X340963Y34405D01*
Y34398D01*
X340912Y34332D01*
X340869Y34252D01*
X340796Y34084D01*
X340745Y33916D01*
X340708Y33749D01*
X340686Y33596D01*
X340679Y33530D01*
Y33472D01*
X340672Y33421D01*
Y33384D01*
Y33362D01*
Y33355D01*
Y33224D01*
X340686Y33100D01*
X340701Y32983D01*
X340716Y32874D01*
X340737Y32779D01*
X340767Y32692D01*
X340796Y32604D01*
X340817Y32539D01*
X340847Y32473D01*
X340876Y32422D01*
X340898Y32371D01*
X340927Y32334D01*
X340942Y32305D01*
X340956Y32283D01*
X340971Y32276D01*
Y32269D01*
X341029Y32210D01*
X341087Y32159D01*
X341204Y32072D01*
X341321Y32014D01*
X341430Y31970D01*
X341532Y31948D01*
X341605Y31934D01*
X341634Y31926D01*
X341678D01*
X341751Y31934D01*
X341824Y31941D01*
X341955Y31977D01*
X342071Y32035D01*
X342174Y32094D01*
X342254Y32152D01*
X342312Y32210D01*
X342348Y32247D01*
X342363Y32261D01*
X342414Y32327D01*
X342458Y32400D01*
X342531Y32568D01*
X342574Y32735D01*
X342611Y32910D01*
X342633Y33063D01*
X342640Y33129D01*
Y33187D01*
X342647Y33238D01*
Y33275D01*
Y33297D01*
Y33304D01*
Y33435D01*
X342633Y33552D01*
X342618Y33661D01*
X342604Y33770D01*
X342574Y33865D01*
X342553Y33953D01*
X342523Y34033D01*
X342494Y34106D01*
X342472Y34164D01*
X342443Y34222D01*
X342414Y34266D01*
X342392Y34310D01*
X342378Y34339D01*
X342363Y34361D01*
X342348Y34368D01*
Y34376D01*
X342290Y34441D01*
X342232Y34499D01*
X342174Y34551D01*
X342108Y34594D01*
X341991Y34660D01*
X341882Y34704D01*
X341787Y34725D01*
X341714Y34740D01*
X341685Y34747D01*
D02*
G37*
G36*
X324437D02*
X324400D01*
X324328Y34740D01*
X324255Y34733D01*
X324123Y34696D01*
X324007Y34638D01*
X323905Y34572D01*
X323825Y34507D01*
X323766Y34456D01*
X323730Y34412D01*
X323715Y34405D01*
Y34398D01*
X323664Y34332D01*
X323620Y34252D01*
X323548Y34084D01*
X323497Y33916D01*
X323460Y33749D01*
X323438Y33596D01*
X323431Y33530D01*
Y33472D01*
X323424Y33421D01*
Y33384D01*
Y33362D01*
Y33355D01*
Y33224D01*
X323438Y33100D01*
X323453Y32983D01*
X323467Y32874D01*
X323489Y32779D01*
X323518Y32692D01*
X323548Y32604D01*
X323569Y32539D01*
X323599Y32473D01*
X323628Y32422D01*
X323650Y32371D01*
X323679Y32334D01*
X323693Y32305D01*
X323708Y32283D01*
X323723Y32276D01*
Y32269D01*
X323781Y32210D01*
X323839Y32159D01*
X323956Y32072D01*
X324072Y32014D01*
X324182Y31970D01*
X324284Y31948D01*
X324357Y31934D01*
X324386Y31926D01*
X324430D01*
X324502Y31934D01*
X324575Y31941D01*
X324707Y31977D01*
X324823Y32035D01*
X324925Y32094D01*
X325006Y32152D01*
X325064Y32210D01*
X325100Y32247D01*
X325115Y32261D01*
X325166Y32327D01*
X325210Y32400D01*
X325283Y32568D01*
X325326Y32735D01*
X325363Y32910D01*
X325385Y33063D01*
X325392Y33129D01*
Y33187D01*
X325399Y33238D01*
Y33275D01*
Y33297D01*
Y33304D01*
Y33435D01*
X325385Y33552D01*
X325370Y33661D01*
X325356Y33770D01*
X325326Y33865D01*
X325304Y33953D01*
X325275Y34033D01*
X325246Y34106D01*
X325224Y34164D01*
X325195Y34222D01*
X325166Y34266D01*
X325144Y34310D01*
X325130Y34339D01*
X325115Y34361D01*
X325100Y34368D01*
Y34376D01*
X325042Y34441D01*
X324984Y34499D01*
X324925Y34551D01*
X324860Y34594D01*
X324743Y34660D01*
X324634Y34704D01*
X324539Y34725D01*
X324466Y34740D01*
X324437Y34747D01*
D02*
G37*
G36*
X433122D02*
X433086D01*
X433013Y34740D01*
X432940Y34733D01*
X432809Y34696D01*
X432692Y34638D01*
X432590Y34572D01*
X432510Y34507D01*
X432451Y34456D01*
X432415Y34412D01*
X432400Y34405D01*
Y34398D01*
X432349Y34332D01*
X432306Y34252D01*
X432233Y34084D01*
X432182Y33916D01*
X432145Y33749D01*
X432123Y33596D01*
X432116Y33530D01*
Y33472D01*
X432109Y33421D01*
Y33384D01*
Y33362D01*
Y33355D01*
Y33224D01*
X432123Y33100D01*
X432138Y32983D01*
X432153Y32874D01*
X432174Y32779D01*
X432203Y32692D01*
X432233Y32604D01*
X432255Y32539D01*
X432284Y32473D01*
X432313Y32422D01*
X432335Y32371D01*
X432364Y32334D01*
X432378Y32305D01*
X432393Y32283D01*
X432408Y32276D01*
Y32269D01*
X432466Y32210D01*
X432524Y32159D01*
X432641Y32072D01*
X432758Y32014D01*
X432867Y31970D01*
X432969Y31948D01*
X433042Y31934D01*
X433071Y31926D01*
X433115D01*
X433188Y31934D01*
X433261Y31941D01*
X433392Y31977D01*
X433508Y32035D01*
X433610Y32094D01*
X433691Y32152D01*
X433749Y32210D01*
X433785Y32247D01*
X433800Y32261D01*
X433851Y32327D01*
X433895Y32400D01*
X433968Y32568D01*
X434011Y32735D01*
X434048Y32910D01*
X434070Y33063D01*
X434077Y33129D01*
Y33187D01*
X434084Y33238D01*
Y33275D01*
Y33297D01*
Y33304D01*
Y33435D01*
X434070Y33552D01*
X434055Y33661D01*
X434041Y33770D01*
X434011Y33865D01*
X433990Y33953D01*
X433960Y34033D01*
X433931Y34106D01*
X433909Y34164D01*
X433880Y34222D01*
X433851Y34266D01*
X433829Y34310D01*
X433815Y34339D01*
X433800Y34361D01*
X433785Y34368D01*
Y34376D01*
X433727Y34441D01*
X433669Y34499D01*
X433610Y34551D01*
X433545Y34594D01*
X433428Y34660D01*
X433319Y34704D01*
X433224Y34725D01*
X433151Y34740D01*
X433122Y34747D01*
D02*
G37*
G36*
X415874D02*
X415837D01*
X415765Y34740D01*
X415692Y34733D01*
X415560Y34696D01*
X415444Y34638D01*
X415342Y34572D01*
X415262Y34507D01*
X415203Y34456D01*
X415167Y34412D01*
X415152Y34405D01*
Y34398D01*
X415101Y34332D01*
X415057Y34252D01*
X414985Y34084D01*
X414933Y33916D01*
X414897Y33749D01*
X414875Y33596D01*
X414868Y33530D01*
Y33472D01*
X414861Y33421D01*
Y33384D01*
Y33362D01*
Y33355D01*
Y33224D01*
X414875Y33100D01*
X414890Y32983D01*
X414904Y32874D01*
X414926Y32779D01*
X414955Y32692D01*
X414985Y32604D01*
X415006Y32539D01*
X415036Y32473D01*
X415065Y32422D01*
X415087Y32371D01*
X415116Y32334D01*
X415130Y32305D01*
X415145Y32283D01*
X415160Y32276D01*
Y32269D01*
X415218Y32210D01*
X415276Y32159D01*
X415393Y32072D01*
X415509Y32014D01*
X415619Y31970D01*
X415721Y31948D01*
X415794Y31934D01*
X415823Y31926D01*
X415867D01*
X415940Y31934D01*
X416012Y31941D01*
X416144Y31977D01*
X416260Y32035D01*
X416362Y32094D01*
X416442Y32152D01*
X416501Y32210D01*
X416537Y32247D01*
X416552Y32261D01*
X416603Y32327D01*
X416647Y32400D01*
X416720Y32568D01*
X416763Y32735D01*
X416800Y32910D01*
X416822Y33063D01*
X416829Y33129D01*
Y33187D01*
X416836Y33238D01*
Y33275D01*
Y33297D01*
Y33304D01*
Y33435D01*
X416822Y33552D01*
X416807Y33661D01*
X416792Y33770D01*
X416763Y33865D01*
X416741Y33953D01*
X416712Y34033D01*
X416683Y34106D01*
X416661Y34164D01*
X416632Y34222D01*
X416603Y34266D01*
X416581Y34310D01*
X416567Y34339D01*
X416552Y34361D01*
X416537Y34368D01*
Y34376D01*
X416479Y34441D01*
X416421Y34499D01*
X416362Y34551D01*
X416297Y34594D01*
X416180Y34660D01*
X416071Y34704D01*
X415976Y34725D01*
X415903Y34740D01*
X415874Y34747D01*
D02*
G37*
G36*
X392649Y4706D02*
X392605D01*
X392518Y4699D01*
X392438Y4691D01*
X392284Y4648D01*
X392153Y4589D01*
X392044Y4524D01*
X391956Y4458D01*
X391891Y4400D01*
X391854Y4356D01*
X391840Y4349D01*
Y4341D01*
X391774Y4247D01*
X391716Y4137D01*
X391679Y4028D01*
X391643Y3911D01*
X391621Y3816D01*
X391606Y3729D01*
Y3700D01*
X391599Y3678D01*
Y3663D01*
Y3656D01*
X393648D01*
X393626Y3824D01*
X393582Y3977D01*
X393531Y4108D01*
X393473Y4210D01*
X393422Y4298D01*
X393371Y4363D01*
X393341Y4400D01*
X393327Y4414D01*
X393210Y4509D01*
X393094Y4582D01*
X392970Y4633D01*
X392853Y4669D01*
X392758Y4691D01*
X392678Y4699D01*
X392649Y4706D01*
D02*
G37*
G36*
X353859D02*
X353815D01*
X353728Y4699D01*
X353647Y4691D01*
X353494Y4648D01*
X353363Y4589D01*
X353254Y4524D01*
X353166Y4458D01*
X353101Y4400D01*
X353064Y4356D01*
X353050Y4349D01*
Y4341D01*
X352984Y4247D01*
X352926Y4137D01*
X352889Y4028D01*
X352853Y3911D01*
X352831Y3816D01*
X352816Y3729D01*
Y3700D01*
X352809Y3678D01*
Y3663D01*
Y3656D01*
X354857D01*
X354836Y3824D01*
X354792Y3977D01*
X354741Y4108D01*
X354683Y4210D01*
X354632Y4298D01*
X354580Y4363D01*
X354551Y4400D01*
X354537Y4414D01*
X354420Y4509D01*
X354304Y4582D01*
X354180Y4633D01*
X354063Y4669D01*
X353968Y4691D01*
X353888Y4699D01*
X353859Y4706D01*
D02*
G37*
G36*
X402082D02*
X402038D01*
X401951Y4699D01*
X401871Y4691D01*
X401725Y4655D01*
X401594Y4597D01*
X401484Y4531D01*
X401397Y4465D01*
X401331Y4414D01*
X401288Y4371D01*
X401273Y4363D01*
Y4356D01*
X401215Y4290D01*
X401171Y4210D01*
X401091Y4050D01*
X401032Y3875D01*
X400996Y3714D01*
X400974Y3561D01*
X400967Y3496D01*
Y3437D01*
X400959Y3394D01*
Y3357D01*
Y3335D01*
Y3328D01*
Y3197D01*
X400974Y3073D01*
X400989Y2963D01*
X401011Y2854D01*
X401032Y2759D01*
X401062Y2672D01*
X401083Y2592D01*
X401113Y2519D01*
X401142Y2461D01*
X401171Y2402D01*
X401200Y2358D01*
X401222Y2322D01*
X401244Y2293D01*
X401258Y2271D01*
X401266Y2264D01*
X401273Y2256D01*
X401331Y2198D01*
X401397Y2140D01*
X401521Y2052D01*
X401652Y1994D01*
X401769Y1950D01*
X401878Y1928D01*
X401958Y1914D01*
X401995Y1907D01*
X402038D01*
X402126Y1914D01*
X402206Y1921D01*
X402359Y1957D01*
X402490Y2016D01*
X402600Y2081D01*
X402687Y2140D01*
X402753Y2198D01*
X402797Y2235D01*
X402804Y2249D01*
X402811D01*
X402862Y2322D01*
X402913Y2395D01*
X402986Y2563D01*
X403044Y2737D01*
X403081Y2912D01*
X403103Y3066D01*
X403110Y3131D01*
Y3190D01*
X403117Y3241D01*
Y3277D01*
Y3299D01*
Y3306D01*
X403110Y3430D01*
X403103Y3554D01*
X403088Y3663D01*
X403066Y3765D01*
X403044Y3860D01*
X403023Y3948D01*
X402993Y4021D01*
X402964Y4093D01*
X402935Y4152D01*
X402906Y4210D01*
X402884Y4254D01*
X402862Y4290D01*
X402840Y4320D01*
X402826Y4341D01*
X402811Y4349D01*
Y4356D01*
X402753Y4414D01*
X402687Y4473D01*
X402563Y4560D01*
X402432Y4618D01*
X402308Y4662D01*
X402199Y4691D01*
X402119Y4699D01*
X402082Y4706D01*
D02*
G37*
G36*
X396695D02*
X396658D01*
X396578Y4699D01*
X396505Y4691D01*
X396367Y4648D01*
X396243Y4597D01*
X396141Y4531D01*
X396061Y4465D01*
X395995Y4407D01*
X395959Y4363D01*
X395944Y4356D01*
Y4349D01*
X395893Y4276D01*
X395849Y4203D01*
X395776Y4028D01*
X395725Y3846D01*
X395689Y3671D01*
X395674Y3583D01*
X395667Y3503D01*
X395660Y3430D01*
Y3372D01*
X395652Y3321D01*
Y3284D01*
Y3255D01*
Y3248D01*
Y3124D01*
X395667Y3007D01*
X395682Y2905D01*
X395696Y2803D01*
X395718Y2716D01*
X395747Y2628D01*
X395769Y2555D01*
X395798Y2490D01*
X395827Y2431D01*
X395849Y2373D01*
X395878Y2337D01*
X395900Y2300D01*
X395915Y2271D01*
X395929Y2249D01*
X395944Y2242D01*
Y2235D01*
X395995Y2176D01*
X396053Y2125D01*
X396170Y2045D01*
X396287Y1987D01*
X396396Y1950D01*
X396491Y1921D01*
X396571Y1914D01*
X396600Y1907D01*
X396637D01*
X396709Y1914D01*
X396782Y1921D01*
X396914Y1957D01*
X397038Y2016D01*
X397140Y2081D01*
X397220Y2140D01*
X397285Y2198D01*
X397322Y2235D01*
X397329Y2249D01*
X397336D01*
X397387Y2322D01*
X397431Y2395D01*
X397504Y2563D01*
X397555Y2737D01*
X397591Y2905D01*
X397613Y3058D01*
X397621Y3124D01*
Y3182D01*
X397628Y3233D01*
Y3270D01*
Y3292D01*
Y3299D01*
Y3430D01*
X397613Y3554D01*
X397599Y3671D01*
X397584Y3773D01*
X397562Y3867D01*
X397540Y3955D01*
X397519Y4035D01*
X397490Y4108D01*
X397460Y4166D01*
X397438Y4217D01*
X397417Y4261D01*
X397395Y4298D01*
X397373Y4327D01*
X397365Y4349D01*
X397351Y4356D01*
Y4363D01*
X397300Y4422D01*
X397242Y4480D01*
X397125Y4560D01*
X397008Y4626D01*
X396899Y4662D01*
X396804Y4691D01*
X396724Y4699D01*
X396695Y4706D01*
D02*
G37*
G36*
X383653Y6033D02*
X383587D01*
X383405Y6025D01*
X383230Y5996D01*
X383077Y5952D01*
X382946Y5909D01*
X382837Y5858D01*
X382793Y5836D01*
X382756Y5821D01*
X382720Y5799D01*
X382698Y5792D01*
X382691Y5777D01*
X382683D01*
X382545Y5675D01*
X382421Y5559D01*
X382312Y5442D01*
X382224Y5325D01*
X382159Y5223D01*
X382108Y5136D01*
X382093Y5107D01*
X382078Y5085D01*
X382071Y5070D01*
Y5063D01*
X381998Y4888D01*
X381947Y4699D01*
X381911Y4524D01*
X381889Y4356D01*
X381874Y4276D01*
X381867Y4210D01*
Y4144D01*
X381860Y4093D01*
Y4050D01*
Y4021D01*
Y3999D01*
Y3991D01*
X381867Y3816D01*
X381882Y3649D01*
X381903Y3488D01*
X381933Y3343D01*
X381976Y3211D01*
X382013Y3087D01*
X382056Y2971D01*
X382100Y2869D01*
X382151Y2781D01*
X382195Y2701D01*
X382231Y2636D01*
X382268Y2585D01*
X382304Y2541D01*
X382326Y2504D01*
X382341Y2490D01*
X382348Y2482D01*
X382443Y2388D01*
X382545Y2307D01*
X382647Y2242D01*
X382749Y2176D01*
X382851Y2125D01*
X382961Y2089D01*
X383055Y2052D01*
X383157Y2023D01*
X383245Y2001D01*
X383332Y1987D01*
X383405Y1972D01*
X383471Y1965D01*
X383522D01*
X383558Y1957D01*
X383595D01*
X383733Y1965D01*
X383864Y1979D01*
X383981Y2008D01*
X384098Y2038D01*
X384207Y2081D01*
X384309Y2125D01*
X384404Y2169D01*
X384491Y2220D01*
X384564Y2271D01*
X384630Y2315D01*
X384688Y2358D01*
X384739Y2402D01*
X384776Y2431D01*
X384805Y2461D01*
X384819Y2475D01*
X384827Y2482D01*
X384914Y2585D01*
X384987Y2694D01*
X385053Y2811D01*
X385111Y2927D01*
X385155Y3051D01*
X385198Y3168D01*
X385257Y3401D01*
X385271Y3503D01*
X385286Y3605D01*
X385301Y3692D01*
X385308Y3765D01*
X385315Y3831D01*
Y3882D01*
Y3911D01*
Y3918D01*
X385308Y4123D01*
X385293Y4312D01*
X385271Y4494D01*
X385235Y4655D01*
X385198Y4801D01*
X385155Y4932D01*
X385104Y5056D01*
X385060Y5158D01*
X385009Y5253D01*
X384965Y5333D01*
X384922Y5398D01*
X384885Y5449D01*
X384849Y5493D01*
X384827Y5522D01*
X384812Y5537D01*
X384805Y5544D01*
X384710Y5632D01*
X384608Y5705D01*
X384506Y5770D01*
X384397Y5829D01*
X384295Y5872D01*
X384192Y5916D01*
X384003Y5974D01*
X383915Y5989D01*
X383835Y6004D01*
X383770Y6018D01*
X383704Y6025D01*
X383653Y6033D01*
D02*
G37*
G36*
X362497D02*
X362432D01*
X362250Y6025D01*
X362075Y5996D01*
X361922Y5952D01*
X361790Y5909D01*
X361681Y5858D01*
X361637Y5836D01*
X361601Y5821D01*
X361564Y5799D01*
X361543Y5792D01*
X361535Y5777D01*
X361528D01*
X361389Y5675D01*
X361265Y5559D01*
X361156Y5442D01*
X361069Y5325D01*
X361003Y5223D01*
X360952Y5136D01*
X360937Y5107D01*
X360923Y5085D01*
X360915Y5070D01*
Y5063D01*
X360843Y4888D01*
X360792Y4699D01*
X360755Y4524D01*
X360733Y4356D01*
X360719Y4276D01*
X360711Y4210D01*
Y4144D01*
X360704Y4093D01*
Y4050D01*
Y4021D01*
Y3999D01*
Y3991D01*
X360711Y3816D01*
X360726Y3649D01*
X360748Y3488D01*
X360777Y3343D01*
X360821Y3211D01*
X360857Y3087D01*
X360901Y2971D01*
X360945Y2869D01*
X360996Y2781D01*
X361039Y2701D01*
X361076Y2636D01*
X361112Y2585D01*
X361149Y2541D01*
X361171Y2504D01*
X361185Y2490D01*
X361192Y2482D01*
X361287Y2388D01*
X361389Y2307D01*
X361491Y2242D01*
X361594Y2176D01*
X361696Y2125D01*
X361805Y2089D01*
X361900Y2052D01*
X362002Y2023D01*
X362089Y2001D01*
X362177Y1987D01*
X362250Y1972D01*
X362315Y1965D01*
X362366D01*
X362403Y1957D01*
X362439D01*
X362578Y1965D01*
X362709Y1979D01*
X362825Y2008D01*
X362942Y2038D01*
X363052Y2081D01*
X363154Y2125D01*
X363248Y2169D01*
X363336Y2220D01*
X363409Y2271D01*
X363474Y2315D01*
X363533Y2358D01*
X363584Y2402D01*
X363620Y2431D01*
X363649Y2461D01*
X363664Y2475D01*
X363671Y2482D01*
X363759Y2585D01*
X363831Y2694D01*
X363897Y2811D01*
X363955Y2927D01*
X363999Y3051D01*
X364043Y3168D01*
X364101Y3401D01*
X364116Y3503D01*
X364130Y3605D01*
X364145Y3692D01*
X364152Y3765D01*
X364160Y3831D01*
Y3882D01*
Y3911D01*
Y3918D01*
X364152Y4123D01*
X364138Y4312D01*
X364116Y4494D01*
X364079Y4655D01*
X364043Y4801D01*
X363999Y4932D01*
X363948Y5056D01*
X363904Y5158D01*
X363853Y5253D01*
X363810Y5333D01*
X363766Y5398D01*
X363730Y5449D01*
X363693Y5493D01*
X363671Y5522D01*
X363657Y5537D01*
X363649Y5544D01*
X363555Y5632D01*
X363452Y5705D01*
X363350Y5770D01*
X363241Y5829D01*
X363139Y5872D01*
X363037Y5916D01*
X362847Y5974D01*
X362760Y5989D01*
X362680Y6004D01*
X362614Y6018D01*
X362548Y6025D01*
X362497Y6033D01*
D02*
G37*
%LPD*%
D10*
X187648Y128100D02*
X188681Y127067D01*
X132776Y177520D02*
X145374D01*
Y158228D02*
Y177520D01*
X132776Y158228D02*
X145374D01*
X132776D02*
Y177520D01*
X125394Y157717D02*
X131398D01*
X106791Y183130D02*
X113091D01*
X106791Y182382D02*
X113091D01*
X106791D02*
Y184744D01*
X113091Y182382D02*
Y184744D01*
X177362Y127067D02*
X187401D01*
X187402Y127067D02*
X188681D01*
X187648Y126033D02*
X188681Y127067D01*
X179035Y152756D02*
Y162795D01*
X179035Y151476D02*
Y152756D01*
X179035Y151476D02*
X180069Y152510D01*
X178002Y152510D02*
X179035Y151476D01*
X187254Y156447D02*
X188287Y155413D01*
X188287D02*
X189321Y156447D01*
X188287Y155413D02*
X188287D01*
X188287D02*
Y156693D01*
X188287Y156693D01*
Y166732D01*
X354429Y8563D02*
Y22539D01*
X352953Y21063D02*
X354429Y22539D01*
Y22441D02*
Y22539D01*
X355807Y21161D01*
X404232Y22539D02*
X405610Y21161D01*
X404232Y21850D02*
Y21949D01*
X402756Y21063D02*
X404232Y22539D01*
Y8563D02*
Y22539D01*
X363366Y39764D02*
X369323D01*
X363366D02*
Y48071D01*
X369323D01*
X371425Y39803D02*
X377382D01*
X371425Y48071D02*
X377382D01*
Y39803D02*
Y48071D01*
X34459Y163661D02*
X40935D01*
X34459Y158780D02*
X40935D01*
X207775Y161909D02*
X210138D01*
X207775Y155610D02*
X210138D01*
Y161909D01*
X209390Y155610D02*
Y161909D01*
X216043Y148130D02*
Y149409D01*
Y148130D02*
X217520D01*
X216043D02*
X219980Y152067D01*
X297114Y107087D02*
X303071D01*
Y98779D02*
Y107087D01*
X297114Y98779D02*
X303071D01*
X289055Y107047D02*
X295012D01*
X289055Y98779D02*
X295012D01*
X289055D02*
Y107047D01*
X239567Y141209D02*
Y147165D01*
X247874D01*
Y141209D02*
Y147165D01*
X239606Y133150D02*
Y139106D01*
X247874Y133150D02*
Y139106D01*
X239606Y133150D02*
X247874D01*
X183150Y94291D02*
X189106D01*
X183150D02*
Y102599D01*
X189106D01*
X191209Y94331D02*
X197165D01*
X191209Y102599D02*
X197165D01*
Y94331D02*
Y102599D01*
X204398Y89370D02*
X210354D01*
Y81063D02*
Y89370D01*
X204398Y81063D02*
X210354D01*
X196338Y89331D02*
X202295D01*
X196338Y81063D02*
X202295D01*
X196338D02*
Y89331D01*
X227559Y83039D02*
Y88996D01*
X235866D01*
Y83039D02*
Y88996D01*
X227598Y74980D02*
Y80937D01*
X235866Y74980D02*
Y80937D01*
X227598Y74980D02*
X235866D01*
X451968Y82775D02*
X473622D01*
X451968Y104428D02*
X473622D01*
X451968Y82775D02*
Y104428D01*
X473622Y82775D02*
Y104428D01*
X205984Y124291D02*
X207953D01*
Y126260D01*
X192205Y124291D02*
X194173D01*
X192205D02*
Y126260D01*
X205984Y140039D02*
X207953D01*
Y138071D02*
Y140039D01*
X192205D02*
X194173D01*
X192205Y138071D02*
Y140039D01*
X162205Y149705D02*
Y150492D01*
X161418D01*
Y149705D01*
X162205D01*
X49803Y161259D02*
X46655D01*
X48229Y162833D02*
Y159685D01*
X175787Y129823D02*
Y134546D01*
X173426D01*
X172639Y133759D01*
Y132184D01*
X173426Y131397D01*
X175787D01*
X174213D02*
X172639Y129823D01*
X171064Y134546D02*
X167916D01*
Y133759D01*
X171064Y130610D01*
Y129823D01*
X166342Y133759D02*
X165554Y134546D01*
X163980D01*
X163193Y133759D01*
Y132971D01*
X163980Y132184D01*
X163193Y131397D01*
Y130610D01*
X163980Y129823D01*
X165554D01*
X166342Y130610D01*
Y131397D01*
X165554Y132184D01*
X166342Y132971D01*
Y133759D01*
X165554Y132184D02*
X163980D01*
X136319Y151576D02*
Y156299D01*
X138680D01*
X139468Y155512D01*
Y152364D01*
X138680Y151576D01*
X136319D01*
X141042D02*
X144190D01*
Y152364D01*
X141042Y155512D01*
Y156299D01*
X158366Y155707D02*
Y150984D01*
X156005D01*
X155218Y151771D01*
Y154920D01*
X156005Y155707D01*
X158366D01*
X153643Y154920D02*
X152856Y155707D01*
X151282D01*
X150495Y154920D01*
Y154133D01*
X151282Y153346D01*
X152069D01*
X151282D01*
X150495Y152559D01*
Y151771D01*
X151282Y150984D01*
X152856D01*
X153643Y151771D01*
X113879Y168899D02*
X113092Y169686D01*
Y171260D01*
X113879Y172047D01*
X117028D01*
X117815Y171260D01*
Y169686D01*
X117028Y168899D01*
X113879Y167324D02*
X113092Y166537D01*
Y164963D01*
X113879Y164176D01*
X114666D01*
X115454Y164963D01*
X116241Y164176D01*
X117028D01*
X117815Y164963D01*
Y166537D01*
X117028Y167324D01*
X116241D01*
X115454Y166537D01*
X114666Y167324D01*
X113879D01*
X115454Y166537D02*
Y164963D01*
X117815Y162601D02*
Y161027D01*
Y161814D01*
X113092D01*
X113879Y162601D01*
X141438Y133466D02*
X140651Y134253D01*
Y135827D01*
X141438Y136614D01*
X144587D01*
X145374Y135827D01*
Y134253D01*
X144587Y133466D01*
X141438Y131891D02*
X140651Y131104D01*
Y129530D01*
X141438Y128743D01*
X142225D01*
X143013Y129530D01*
X143800Y128743D01*
X144587D01*
X145374Y129530D01*
Y131104D01*
X144587Y131891D01*
X143800D01*
X143013Y131104D01*
X142225Y131891D01*
X141438D01*
X143013Y131104D02*
Y129530D01*
X141438Y127168D02*
X140651Y126381D01*
Y124807D01*
X141438Y124020D01*
X144587D01*
X145374Y124807D01*
Y126381D01*
X144587Y127168D01*
X141438D01*
X126378Y183071D02*
Y187794D01*
X124016D01*
X123229Y187007D01*
Y185432D01*
X124016Y184645D01*
X126378D01*
X124804D02*
X123229Y183071D01*
X121655Y187794D02*
X118507D01*
Y187007D01*
X121655Y183858D01*
Y183071D01*
X116932D02*
X115358D01*
X116145D01*
Y187794D01*
X116932Y187007D01*
X103839Y189567D02*
X99116D01*
Y187206D01*
X99903Y186418D01*
X101477D01*
X102264Y187206D01*
Y189567D01*
Y187993D02*
X103839Y186418D01*
X99116Y184844D02*
Y181695D01*
X99903D01*
X103051Y184844D01*
X103839D01*
Y176973D02*
Y180121D01*
X100690Y176973D01*
X99903D01*
X99116Y177760D01*
Y179334D01*
X99903Y180121D01*
X167912Y154330D02*
X168699Y153542D01*
Y151968D01*
X167912Y151181D01*
X164763D01*
X163976Y151968D01*
Y153542D01*
X164763Y154330D01*
X167912Y155904D02*
X168699Y156691D01*
Y158265D01*
X167912Y159053D01*
X167125D01*
X166338Y158265D01*
Y157478D01*
Y158265D01*
X165551Y159053D01*
X164763D01*
X163976Y158265D01*
Y156691D01*
X164763Y155904D01*
X167912Y160627D02*
X168699Y161414D01*
Y162988D01*
X167912Y163776D01*
X167125D01*
X166338Y162988D01*
Y162201D01*
Y162988D01*
X165551Y163776D01*
X164763D01*
X163976Y162988D01*
Y161414D01*
X164763Y160627D01*
X379941Y54664D02*
X378367D01*
X379154D01*
Y49941D01*
X379941D01*
X378367D01*
X376005D02*
Y54664D01*
X372857Y49941D01*
Y54664D01*
X371282D02*
Y49941D01*
X368921D01*
X368134Y50728D01*
Y53877D01*
X368921Y54664D01*
X371282D01*
X366560Y50728D02*
X365772Y49941D01*
X364198D01*
X363411Y50728D01*
Y53877D01*
X364198Y54664D01*
X365772D01*
X366560Y53877D01*
Y53089D01*
X365772Y52302D01*
X363411D01*
X409251Y49901D02*
X410038Y49113D01*
Y47539D01*
X409251Y46752D01*
X406102D01*
X405315Y47539D01*
Y49113D01*
X406102Y49901D01*
X410038Y51475D02*
Y54623D01*
X409251D01*
X406102Y51475D01*
X405315D01*
X406102Y56198D02*
X405315Y56985D01*
Y58559D01*
X406102Y59346D01*
X409251D01*
X410038Y58559D01*
Y56985D01*
X409251Y56198D01*
X408463D01*
X407676Y56985D01*
Y59346D01*
D11*
X483327Y106712D02*
G03*
X483327Y106712I-492J0D01*
G01*
X204606Y120921D02*
G03*
X204606Y120921I-492J0D01*
G01*
D12*
X173031Y135433D02*
X176673D01*
Y141339D01*
X173031D02*
X176673D01*
X163484Y135433D02*
X167126D01*
X163484D02*
Y141339D01*
X167126D01*
X421752Y257185D02*
Y260827D01*
Y247638D02*
Y251279D01*
X415846Y260827D02*
X421752D01*
X415846Y257185D02*
Y260827D01*
Y247638D02*
X421752D01*
X415846D02*
Y251279D01*
X123406Y171673D02*
X123799Y171280D01*
Y169587D02*
Y171280D01*
Y163996D02*
Y165650D01*
X123366Y163563D02*
X123799Y163996D01*
X119665Y171201D02*
X120138Y171673D01*
X123406D01*
X119665Y169587D02*
Y171201D01*
Y164035D02*
X120138Y163563D01*
X123366D01*
X119665Y164035D02*
Y165650D01*
X144665Y147067D02*
X145059Y146673D01*
Y144980D02*
Y146673D01*
Y139390D02*
Y141043D01*
X144626Y138957D02*
X145059Y139390D01*
X140925Y146595D02*
X141398Y147067D01*
X144665D01*
X140925Y144980D02*
Y146595D01*
Y139429D02*
X141398Y138957D01*
X144626D01*
X140925Y139429D02*
Y141043D01*
X114567Y173917D02*
Y179134D01*
X105315Y173917D02*
X114567D01*
X105315D02*
Y179134D01*
X114567Y187992D02*
Y193209D01*
X105315D02*
X114567D01*
X105315Y187992D02*
Y193209D01*
X121752Y181693D02*
X123839D01*
Y177756D02*
Y181693D01*
X121752Y177756D02*
X123839D01*
X115728Y181693D02*
X117815D01*
X115728Y177756D02*
Y181693D01*
Y177756D02*
X117815D01*
X164350Y141890D02*
X164823Y141417D01*
X164350Y141890D02*
Y143504D01*
X164823Y141417D02*
X168051D01*
X168484Y141850D01*
Y143504D01*
X164350Y149055D02*
X164823Y149528D01*
X164350Y147441D02*
Y149055D01*
X164823Y149528D02*
X168091D01*
X168484Y149134D01*
Y147441D02*
Y149134D01*
X410236Y253839D02*
X413878D01*
X400689D02*
X404331D01*
X413878Y247933D02*
Y253839D01*
X410236Y247933D02*
X413878D01*
X400689D02*
Y253839D01*
Y247933D02*
X404331D01*
X398228Y56102D02*
Y59055D01*
X398917Y59744D01*
X403445D01*
X404134Y59055D01*
Y56102D02*
Y59055D01*
X398228Y47244D02*
Y50197D01*
Y47244D02*
X398917Y46555D01*
X403445D01*
X404134Y47244D02*
Y50197D01*
X403445Y46555D02*
X404134Y47244D01*
X463583Y121063D02*
X467224D01*
Y126969D01*
X463583D02*
X467224D01*
X454035Y121063D02*
X457677D01*
X454035D02*
Y126969D01*
X457677D01*
X463583Y127756D02*
X467224D01*
Y133661D01*
X463583D02*
X467224D01*
X454035Y127756D02*
X457677D01*
X454035D02*
Y133661D01*
X457677D01*
X362894Y113484D02*
Y117126D01*
Y113484D02*
X368799D01*
Y117126D01*
X362894Y123031D02*
Y126673D01*
X368799D01*
Y123031D02*
Y126673D01*
X554232Y312106D02*
Y315748D01*
Y312106D02*
X560138D01*
Y315748D01*
X554232Y321654D02*
Y325295D01*
X560138D01*
Y321654D02*
Y325295D01*
X420079Y290354D02*
X423720D01*
Y296260D01*
X420079D02*
X423720D01*
X410531Y290354D02*
X414173D01*
X410531D02*
Y296260D01*
X414173D01*
X410531Y302953D02*
X414173D01*
X410531Y297047D02*
Y302953D01*
Y297047D02*
X414173D01*
X420079Y302953D02*
X423720D01*
Y297047D02*
Y302953D01*
X420079Y297047D02*
X423720D01*
X424311Y309646D02*
X427952D01*
X424311Y303740D02*
Y309646D01*
Y303740D02*
X427952D01*
X433858Y309646D02*
X437500D01*
Y303740D02*
Y309646D01*
X433858Y303740D02*
X437500D01*
X242421Y112894D02*
Y116535D01*
Y112894D02*
X248327D01*
Y116535D01*
X242421Y122441D02*
Y126083D01*
X248327D01*
Y122441D02*
Y126083D01*
X176673Y132579D02*
Y136221D01*
Y132579D02*
X182579D01*
Y136221D01*
X176673Y142126D02*
Y145768D01*
X182579D01*
Y142126D02*
Y145768D01*
X48819Y245079D02*
X52756D01*
X48819Y252953D02*
X52756D01*
X48819Y245079D02*
Y252953D01*
X63583Y245079D02*
Y252953D01*
X59646Y245079D02*
X63583D01*
X59646Y252953D02*
X63583D01*
X114567Y289567D02*
X118504D01*
X114567Y281693D02*
X118504D01*
Y289567D01*
X103740Y281693D02*
Y289567D01*
X107677D01*
X103740Y281693D02*
X107677D01*
X202854Y224016D02*
X206791D01*
X202854Y231890D02*
X206791D01*
X202854Y224016D02*
Y231890D01*
X217618Y224016D02*
Y231890D01*
X213681Y224016D02*
X217618D01*
X213681Y231890D02*
X217618D01*
X129371Y235319D02*
X131946Y237894D01*
X129371Y235319D02*
X133547Y231143D01*
X136122Y233718D01*
Y242070D02*
X138697Y244645D01*
X142873Y240469D01*
X140298Y237894D02*
X142873Y240469D01*
X130357Y228051D02*
X132932Y230626D01*
X128756Y234802D02*
X132932Y230626D01*
X126181Y232227D02*
X128756Y234802D01*
X123606Y221300D02*
X126181Y223875D01*
X119430Y225476D02*
X123606Y221300D01*
X119430Y225476D02*
X122005Y228051D01*
X224114Y122539D02*
Y126181D01*
X218209D02*
X224114D01*
X218209Y122539D02*
Y126181D01*
X224114Y112992D02*
Y116634D01*
X218209Y112992D02*
X224114D01*
X218209D02*
Y116634D01*
X527362Y5020D02*
Y8662D01*
Y5020D02*
X533268D01*
Y8662D01*
X527362Y14567D02*
Y18209D01*
X533268D01*
Y14567D02*
Y18209D01*
X406693Y34055D02*
X410335D01*
Y39961D01*
X406693D02*
X410335D01*
X397146Y34055D02*
X400787D01*
X397146D02*
Y39961D01*
X400787D01*
X220768Y74311D02*
X224410D01*
X220768Y68405D02*
Y74311D01*
Y68405D02*
X224410D01*
X230315Y74311D02*
X233957D01*
Y68405D02*
Y74311D01*
X230315Y68405D02*
X233957D01*
X289961Y12303D02*
Y15945D01*
Y12303D02*
X295866D01*
Y15945D01*
X289961Y21850D02*
Y25492D01*
X295866D01*
Y21850D02*
Y25492D01*
X355906Y34055D02*
X359547D01*
Y39961D01*
X355906D02*
X359547D01*
X346358Y34055D02*
X350000D01*
X346358D02*
Y39961D01*
X350000D01*
X486811Y87795D02*
X487500Y87106D01*
X490453D01*
X486811Y87795D02*
Y92322D01*
X487500Y93011D01*
X490453D01*
X496358Y87106D02*
X499311D01*
X500000Y87795D01*
Y92322D01*
X499311Y93011D02*
X500000Y92322D01*
X496358Y93011D02*
X499311D01*
X443110Y79528D02*
X443799Y80216D01*
X443110Y76575D02*
Y79528D01*
X443799Y80216D02*
X448327D01*
X449016Y79528D01*
Y76575D02*
Y79528D01*
X443110Y67716D02*
Y70669D01*
Y67716D02*
X443799Y67028D01*
X448327D01*
X449016Y67716D01*
Y70669D01*
X500886Y60236D02*
X501575Y59547D01*
X504528D01*
X500886Y60236D02*
Y64763D01*
X501575Y65452D01*
X504528D01*
X510433Y59547D02*
X513386D01*
X514075Y60236D01*
Y64763D01*
X513386Y65452D02*
X514075Y64763D01*
X510433Y65452D02*
X513386D01*
X500886Y127362D02*
X501575Y126673D01*
X504528D01*
X500886Y127362D02*
Y131889D01*
X501575Y132578D01*
X504528D01*
X510433Y126673D02*
X513386D01*
X514075Y127362D01*
Y131889D01*
X513386Y132578D02*
X514075Y131889D01*
X510433Y132578D02*
X513386D01*
X475886Y107775D02*
X476575Y107086D01*
X479527D01*
X475886Y107775D02*
Y112303D01*
X476575Y112992D01*
X479527D01*
X485433Y107086D02*
X488386D01*
X489075Y107775D01*
Y112303D01*
X488386Y112992D02*
X489075Y112303D01*
X485433Y112992D02*
X488386D01*
X441142Y108759D02*
X441831Y108071D01*
X438189Y108759D02*
X441142D01*
X441831Y103543D02*
Y108071D01*
X441142Y102854D02*
X441831Y103543D01*
X438189Y102854D02*
X441142D01*
X429331Y108759D02*
X432283D01*
X428642Y108071D02*
X429331Y108759D01*
X428642Y103543D02*
Y108071D01*
Y103543D02*
X429331Y102854D01*
X432283D01*
X475590Y115551D02*
X476279Y116240D01*
Y119193D01*
X471063Y115551D02*
X475590D01*
X470374Y116240D02*
X471063Y115551D01*
X470374Y116240D02*
Y119193D01*
X476279Y125098D02*
Y128051D01*
X475590Y128740D02*
X476279Y128051D01*
X471063Y128740D02*
X475590D01*
X470374Y128051D02*
X471063Y128740D01*
X470374Y125098D02*
Y128051D01*
X559449Y298228D02*
X560138Y298917D01*
Y301870D01*
X554921Y298228D02*
X559449D01*
X554232Y298917D02*
X554921Y298228D01*
X554232Y298917D02*
Y301870D01*
X560138Y307776D02*
Y310728D01*
X559449Y311417D02*
X560138Y310728D01*
X554921Y311417D02*
X559449D01*
X554232Y310728D02*
X554921Y311417D01*
X554232Y307776D02*
Y310728D01*
X410531Y304429D02*
X411220Y303740D01*
X414173D01*
X410531Y304429D02*
Y308957D01*
X411220Y309646D01*
X414173D01*
X420079Y303740D02*
X423031D01*
X423720Y304429D01*
Y308957D01*
X423031Y309646D02*
X423720Y308957D01*
X420079Y309646D02*
X423031D01*
X199311Y154823D02*
Y162795D01*
Y154823D02*
X200000Y154134D01*
X204527D01*
X199311Y162795D02*
X199901Y163386D01*
X204527D01*
X218602Y154823D02*
Y162697D01*
X217913Y154134D02*
X218602Y154823D01*
X213386Y154134D02*
X217913D01*
X217913Y163386D02*
X218602Y162697D01*
X213386Y163386D02*
X217913D01*
X210925Y152559D02*
X211614Y151870D01*
X207972Y152559D02*
X210925D01*
X211614Y147343D02*
Y151870D01*
X210925Y146653D02*
X211614Y147343D01*
X207972Y146653D02*
X210925D01*
X199114Y152559D02*
X202067D01*
X198425Y151870D02*
X199114Y152559D01*
X198425Y147343D02*
Y151870D01*
Y147343D02*
X199114Y146653D01*
X202067D01*
X247736Y132776D02*
X248425Y132087D01*
X244783Y132776D02*
X247736D01*
X248425Y127559D02*
Y132087D01*
X247736Y126870D02*
X248425Y127559D01*
X244783Y126870D02*
X247736D01*
X235925Y132776D02*
X238878D01*
X235236Y132087D02*
X235925Y132776D01*
X235236Y127559D02*
Y132087D01*
Y127559D02*
X235925Y126870D01*
X238878D01*
X216831Y112992D02*
X217520Y113681D01*
Y116634D01*
X212303Y112992D02*
X216831D01*
X211614Y113681D02*
X212303Y112992D01*
X211614Y113681D02*
Y116634D01*
X217520Y122539D02*
Y125492D01*
X216831Y126181D02*
X217520Y125492D01*
X212303Y126181D02*
X216831D01*
X211614Y125492D02*
X212303Y126181D01*
X211614Y122539D02*
Y125492D01*
X241043Y112894D02*
X241732Y113583D01*
Y116535D01*
X236516Y112894D02*
X241043D01*
X235827Y113583D02*
X236516Y112894D01*
X235827Y113583D02*
Y116535D01*
X241732Y122441D02*
Y125394D01*
X241043Y126083D02*
X241732Y125394D01*
X236516Y126083D02*
X241043D01*
X235827Y125394D02*
X236516Y126083D01*
X235827Y122441D02*
Y125394D01*
X234449Y112992D02*
X235138Y113681D01*
Y116634D01*
X229921Y112992D02*
X234449D01*
X229232Y113681D02*
X229921Y112992D01*
X229232Y113681D02*
Y116634D01*
X235138Y122539D02*
Y125492D01*
X234449Y126181D02*
X235138Y125492D01*
X229921Y126181D02*
X234449D01*
X229232Y125492D02*
X229921Y126181D01*
X229232Y122539D02*
Y125492D01*
X183661Y150591D02*
X184350Y151279D01*
X183661Y147638D02*
Y150591D01*
X184350Y151279D02*
X188878D01*
X189567Y150591D01*
Y147638D02*
Y150591D01*
X183661Y138779D02*
Y141732D01*
Y138779D02*
X184350Y138091D01*
X188878D01*
X189567Y138779D01*
Y141732D01*
X238484Y133563D02*
X239173Y134252D01*
Y137205D01*
X233957Y133563D02*
X238484D01*
X233268Y134252D02*
X233957Y133563D01*
X233268Y134252D02*
Y137205D01*
X239173Y143110D02*
Y146063D01*
X238484Y146752D02*
X239173Y146063D01*
X233957Y146752D02*
X238484D01*
X233268Y146063D02*
X233957Y146752D01*
X233268Y143110D02*
Y146063D01*
X197343Y103642D02*
X198031Y102953D01*
X200984D01*
X197343Y103642D02*
Y108169D01*
X198031Y108858D01*
X200984D01*
X206890Y102953D02*
X209842D01*
X210531Y103642D01*
Y108169D01*
X209842Y108858D02*
X210531Y108169D01*
X206890Y108858D02*
X209842D01*
X231791Y133563D02*
X232480Y134252D01*
Y137205D01*
X227264Y133563D02*
X231791D01*
X226575Y134252D02*
X227264Y133563D01*
X226575Y134252D02*
Y137205D01*
X232480Y143110D02*
Y146063D01*
X231791Y146752D02*
X232480Y146063D01*
X227264Y146752D02*
X231791D01*
X226575Y146063D02*
X227264Y146752D01*
X226575Y143110D02*
Y146063D01*
X197343Y97047D02*
X198031Y96358D01*
X200984D01*
X197343Y97047D02*
Y101575D01*
X198031Y102264D01*
X200984D01*
X206890Y96358D02*
X209842D01*
X210531Y97047D01*
Y101575D01*
X209842Y102264D02*
X210531Y101575D01*
X206890Y102264D02*
X209842D01*
X218406Y133563D02*
X219094Y134252D01*
Y137205D01*
X213878Y133563D02*
X218406D01*
X213189Y134252D02*
X213878Y133563D01*
X213189Y134252D02*
Y137205D01*
X219094Y143110D02*
Y146063D01*
X218406Y146752D02*
X219094Y146063D01*
X213878Y146752D02*
X218406D01*
X213189Y146063D02*
X213878Y146752D01*
X213189Y143110D02*
Y146063D01*
X196063Y108858D02*
X196752Y108169D01*
X193110Y108858D02*
X196063D01*
X196752Y103642D02*
Y108169D01*
X196063Y102953D02*
X196752Y103642D01*
X193110Y102953D02*
X196063D01*
X184252Y108858D02*
X187205D01*
X183563Y108169D02*
X184252Y108858D01*
X183563Y103642D02*
Y108169D01*
Y103642D02*
X184252Y102953D01*
X187205D01*
X197343Y110335D02*
X198031Y109646D01*
X200984D01*
X197343Y110335D02*
Y114862D01*
X198031Y115551D01*
X200984D01*
X206890Y109646D02*
X209842D01*
X210531Y110335D01*
Y114862D01*
X209842Y115551D02*
X210531Y114862D01*
X206890Y115551D02*
X209842D01*
X225098Y133563D02*
X225787Y134252D01*
Y137205D01*
X220571Y133563D02*
X225098D01*
X219882Y134252D02*
X220571Y133563D01*
X219882Y134252D02*
Y137205D01*
X225787Y143110D02*
Y146063D01*
X225098Y146752D02*
X225787Y146063D01*
X220571Y146752D02*
X225098D01*
X219882Y146063D02*
X220571Y146752D01*
X219882Y143110D02*
Y146063D01*
X196063Y115551D02*
X196752Y114862D01*
X193110Y115551D02*
X196063D01*
X196752Y110335D02*
Y114862D01*
X196063Y109646D02*
X196752Y110335D01*
X193110Y109646D02*
X196063D01*
X184252Y115551D02*
X187205D01*
X183563Y114862D02*
X184252Y115551D01*
X183563Y110335D02*
Y114862D01*
Y110335D02*
X184252Y109646D01*
X187205D01*
X197343Y90650D02*
X198031Y89961D01*
X200984D01*
X197343Y90650D02*
Y95177D01*
X198031Y95866D01*
X200984D01*
X206890Y89961D02*
X209842D01*
X210531Y90650D01*
Y95177D01*
X209842Y95866D02*
X210531Y95177D01*
X206890Y95866D02*
X209842D01*
X236220Y88287D02*
X236909Y88976D01*
X236220Y85335D02*
Y88287D01*
X236909Y88976D02*
X241437D01*
X242126Y88287D01*
Y85335D02*
Y88287D01*
X236220Y76476D02*
Y79429D01*
Y76476D02*
X236909Y75787D01*
X241437D01*
X242126Y76476D01*
Y79429D01*
X248130Y75787D02*
X248819Y76476D01*
Y79429D01*
X243602Y75787D02*
X248130D01*
X242913Y76476D02*
X243602Y75787D01*
X242913Y76476D02*
Y79429D01*
X248819Y85335D02*
Y88287D01*
X248130Y88976D02*
X248819Y88287D01*
X243602Y88976D02*
X248130D01*
X242913Y88287D02*
X243602Y88976D01*
X242913Y85335D02*
Y88287D01*
X226083Y75394D02*
X226772Y76083D01*
Y79035D01*
X221555Y75394D02*
X226083D01*
X220866Y76083D02*
X221555Y75394D01*
X220866Y76083D02*
Y79035D01*
X226772Y84941D02*
Y87894D01*
X226083Y88583D02*
X226772Y87894D01*
X221555Y88583D02*
X226083D01*
X220866Y87894D02*
X221555Y88583D01*
X220866Y84941D02*
Y87894D01*
D14*
X516181Y119094D02*
X520669D01*
Y73031D02*
Y119094D01*
X500984D02*
X505394D01*
X516063Y73031D02*
X520669D01*
X500984D02*
X505354D01*
X500984D02*
Y119094D01*
X431102Y246850D02*
X437100D01*
Y249849D01*
X436101Y250849D01*
X434101D01*
X433102Y249849D01*
Y246850D01*
Y248850D02*
X431102Y250849D01*
X437100Y252849D02*
Y256847D01*
X436101D01*
X432102Y252849D01*
X431102D01*
X436101Y258846D02*
X437100Y259846D01*
Y261845D01*
X436101Y262845D01*
X432102D01*
X431102Y261845D01*
Y259846D01*
X432102Y258846D01*
X436101D01*
X413681Y239370D02*
Y245368D01*
X410682D01*
X409682Y244369D01*
Y242369D01*
X410682Y241369D01*
X413681D01*
X411682D02*
X409682Y239370D01*
X403684Y245368D02*
X405684Y244369D01*
X407683Y242369D01*
Y240370D01*
X406683Y239370D01*
X404684D01*
X403684Y240370D01*
Y241369D01*
X404684Y242369D01*
X407683D01*
X401685Y240370D02*
X400685Y239370D01*
X398686D01*
X397686Y240370D01*
Y244369D01*
X398686Y245368D01*
X400685D01*
X401685Y244369D01*
Y243369D01*
X400685Y242369D01*
X397686D01*
X408465Y25492D02*
Y31490D01*
X405466D01*
X404466Y30490D01*
Y28491D01*
X405466Y27492D01*
X408465D01*
X406465D02*
X404466Y25492D01*
X402466Y31490D02*
X398468D01*
Y30490D01*
X402466Y26492D01*
Y25492D01*
X357382D02*
Y31490D01*
X354383D01*
X353383Y30490D01*
Y28491D01*
X354383Y27492D01*
X357382D01*
X355382D02*
X353383Y25492D01*
X351384D02*
X349384D01*
X350384D01*
Y31490D01*
X351384Y30490D01*
X534154Y32480D02*
X528156D01*
Y29481D01*
X529155Y28482D01*
X531154D01*
X532154Y29481D01*
Y32480D01*
Y30481D02*
X534154Y28482D01*
X529155Y26482D02*
X528156Y25483D01*
Y23483D01*
X529155Y22484D01*
X530155D01*
X531154Y23483D01*
X532154Y22484D01*
X533154D01*
X534154Y23483D01*
Y25483D01*
X533154Y26482D01*
X532154D01*
X531154Y25483D01*
X530155Y26482D01*
X529155D01*
X531154Y25483D02*
Y23483D01*
X81299Y246654D02*
Y252652D01*
X78300D01*
X77301Y251652D01*
Y249653D01*
X78300Y248653D01*
X81299D01*
X79300D02*
X77301Y246654D01*
X71302D02*
X75301D01*
X71302Y250652D01*
Y251652D01*
X72302Y252652D01*
X74301D01*
X75301Y251652D01*
X66304Y246654D02*
Y252652D01*
X69303Y249653D01*
X65304D01*
X117913Y273622D02*
Y279620D01*
X114914D01*
X113915Y278620D01*
Y276621D01*
X114914Y275621D01*
X117913D01*
X115914D02*
X113915Y273622D01*
X107917D02*
X111915D01*
X107917Y277621D01*
Y278620D01*
X108916Y279620D01*
X110916D01*
X111915Y278620D01*
X105917D02*
X104918Y279620D01*
X102918D01*
X101919Y278620D01*
Y277621D01*
X102918Y276621D01*
X103918D01*
X102918D01*
X101919Y275621D01*
Y274622D01*
X102918Y273622D01*
X104918D01*
X105917Y274622D01*
X217421Y233661D02*
Y239660D01*
X214422D01*
X213423Y238660D01*
Y236660D01*
X214422Y235661D01*
X217421D01*
X215422D02*
X213423Y233661D01*
X207424D02*
X211423D01*
X207424Y237660D01*
Y238660D01*
X208424Y239660D01*
X210423D01*
X211423Y238660D01*
X201426Y233661D02*
X205425D01*
X201426Y237660D01*
Y238660D01*
X202426Y239660D01*
X204426D01*
X205425Y238660D01*
X287697Y23031D02*
X281699D01*
Y20032D01*
X282698Y19033D01*
X284698D01*
X285698Y20032D01*
Y23031D01*
Y21032D02*
X287697Y19033D01*
Y13035D02*
Y17033D01*
X283698Y13035D01*
X282698D01*
X281699Y14034D01*
Y16034D01*
X282698Y17033D01*
X468209Y135531D02*
Y141530D01*
X465210D01*
X464210Y140530D01*
Y138531D01*
X465210Y137531D01*
X468209D01*
X466209D02*
X464210Y135531D01*
X459212D02*
Y141530D01*
X462211Y138531D01*
X458212D01*
X456213Y136531D02*
X455213Y135531D01*
X453214D01*
X452214Y136531D01*
Y140530D01*
X453214Y141530D01*
X455213D01*
X456213Y140530D01*
Y139530D01*
X455213Y138531D01*
X452214D01*
X523431Y99016D02*
X524431D01*
X526430Y97016D01*
X524431Y95017D01*
X523431D01*
X526430Y97016D02*
X529429D01*
Y93018D02*
Y91018D01*
Y92018D01*
X523431D01*
X524431Y93018D01*
X48917Y172238D02*
Y168239D01*
X46918Y166240D01*
X44919Y168239D01*
Y172238D01*
X42919D02*
Y166240D01*
X39920D01*
X38921Y167240D01*
Y171239D01*
X39920Y172238D01*
X42919D01*
X36921Y166240D02*
X34922D01*
X35921D01*
Y172238D01*
X36921Y171239D01*
X28924Y166240D02*
Y172238D01*
X31923Y169239D01*
X27924D01*
X468405Y143898D02*
Y149896D01*
X465407D01*
X464407Y148896D01*
Y146897D01*
X465407Y145897D01*
X468405D01*
X466406D02*
X464407Y143898D01*
X459408D02*
Y149896D01*
X462407Y146897D01*
X458409D01*
X456409Y148896D02*
X455410Y149896D01*
X453410D01*
X452411Y148896D01*
Y147896D01*
X453410Y146897D01*
X452411Y145897D01*
Y144897D01*
X453410Y143898D01*
X455410D01*
X456409Y144897D01*
Y145897D01*
X455410Y146897D01*
X456409Y147896D01*
Y148896D01*
X455410Y146897D02*
X453410D01*
X362106Y94980D02*
X368104D01*
Y97979D01*
X367105Y98979D01*
X365105D01*
X364106Y97979D01*
Y94980D01*
Y96980D02*
X362106Y98979D01*
Y103977D02*
X368104D01*
X365105Y100978D01*
Y104977D01*
X368104Y110975D02*
X367105Y108976D01*
X365105Y106976D01*
X363106D01*
X362106Y107976D01*
Y109976D01*
X363106Y110975D01*
X364106D01*
X365105Y109976D01*
Y106976D01*
X554232Y326575D02*
X560230D01*
Y329574D01*
X559231Y330574D01*
X557231D01*
X556232Y329574D01*
Y326575D01*
Y328574D02*
X554232Y330574D01*
Y335572D02*
X560230D01*
X557231Y332573D01*
Y336572D01*
X559231Y338571D02*
X560230Y339571D01*
Y341570D01*
X559231Y342570D01*
X558231D01*
X557231Y341570D01*
Y340570D01*
Y341570D01*
X556232Y342570D01*
X555232D01*
X554232Y341570D01*
Y339571D01*
X555232Y338571D01*
X408071Y288878D02*
Y294876D01*
X405072D01*
X404072Y293876D01*
Y291877D01*
X405072Y290877D01*
X408071D01*
X406072D02*
X404072Y288878D01*
X399074D02*
Y294876D01*
X402073Y291877D01*
X398074D01*
X392076Y288878D02*
X396075D01*
X392076Y292877D01*
Y293876D01*
X393076Y294876D01*
X395075D01*
X396075Y293876D01*
X408268Y296752D02*
Y302750D01*
X405269D01*
X404269Y301750D01*
Y299751D01*
X405269Y298751D01*
X408268D01*
X406268D02*
X404269Y296752D01*
X399271D02*
Y302750D01*
X402270Y299751D01*
X398271D01*
X396272Y296752D02*
X394272D01*
X395272D01*
Y302750D01*
X396272Y301750D01*
X438681Y311811D02*
Y317809D01*
X435682D01*
X434682Y316809D01*
Y314810D01*
X435682Y313810D01*
X438681D01*
X436682D02*
X434682Y311811D01*
X432683Y316809D02*
X431683Y317809D01*
X429684D01*
X428684Y316809D01*
Y315810D01*
X429684Y314810D01*
X430684D01*
X429684D01*
X428684Y313810D01*
Y312811D01*
X429684Y311811D01*
X431683D01*
X432683Y312811D01*
X426685Y317809D02*
X422686D01*
Y316809D01*
X426685Y312811D01*
Y311811D01*
X154626Y251969D02*
X150385Y256210D01*
X148264Y254089D01*
Y252675D01*
X149678Y251262D01*
X151092D01*
X153212Y253382D01*
X151798Y251969D02*
Y249141D01*
X147557Y244900D02*
X150385Y247727D01*
X144730D01*
X144023Y248434D01*
Y249848D01*
X145437Y251262D01*
X146850D01*
X146143Y243486D02*
X144730Y242072D01*
X145437Y242779D01*
X141195Y247020D01*
X142609D01*
X121260Y219291D02*
X117019Y223533D01*
X114898Y221412D01*
Y219998D01*
X116312Y218584D01*
X117726D01*
X119846Y220705D01*
X118432Y219291D02*
Y216464D01*
X114191Y212223D02*
X117019Y215050D01*
X111364D01*
X110657Y215757D01*
Y217171D01*
X112071Y218584D01*
X113484D01*
X109243Y214343D02*
X107829D01*
X106415Y212929D01*
Y211516D01*
X109243Y208688D01*
X110657D01*
X112071Y210102D01*
Y211516D01*
X109243Y214343D01*
X181496Y182185D02*
X175498D01*
Y179186D01*
X176498Y178186D01*
X178497D01*
X179497Y179186D01*
Y182185D01*
Y180186D02*
X181496Y178186D01*
Y172188D02*
Y176187D01*
X177497Y172188D01*
X176498D01*
X175498Y173188D01*
Y175187D01*
X176498Y176187D01*
X175498Y166190D02*
Y170189D01*
X178497D01*
X177497Y168190D01*
Y167190D01*
X178497Y166190D01*
X180496D01*
X181496Y167190D01*
Y169189D01*
X180496Y170189D01*
X217421Y66634D02*
Y60636D01*
X220420D01*
X221420Y61636D01*
Y63635D01*
X220420Y64635D01*
X217421D01*
X219421D02*
X221420Y66634D01*
X223419Y61636D02*
X224419Y60636D01*
X226418D01*
X227418Y61636D01*
Y62635D01*
X226418Y63635D01*
X225419D01*
X226418D01*
X227418Y64635D01*
Y65634D01*
X226418Y66634D01*
X224419D01*
X223419Y65634D01*
X305512Y114856D02*
X303513D01*
X304512D01*
Y108858D01*
X305512D01*
X303513D01*
X300514D02*
Y114856D01*
X296515Y108858D01*
Y114856D01*
X294515D02*
Y108858D01*
X291516D01*
X290517Y109858D01*
Y113857D01*
X291516Y114856D01*
X294515D01*
X284519D02*
X288517D01*
Y111857D01*
X286518Y112857D01*
X285518D01*
X284519Y111857D01*
Y109858D01*
X285518Y108858D01*
X287518D01*
X288517Y109858D01*
X254533Y166437D02*
Y164438D01*
Y165437D01*
X260531D01*
Y166437D01*
Y164438D01*
Y161439D02*
X254533D01*
X260531Y157440D01*
X254533D01*
Y155441D02*
X260531D01*
Y152442D01*
X259532Y151442D01*
X255533D01*
X254533Y152442D01*
Y155441D01*
X260531Y146443D02*
X254533D01*
X257533Y149443D01*
Y145444D01*
X181201Y100880D02*
X179201D01*
X180201D01*
Y94882D01*
X181201D01*
X179201D01*
X176202D02*
Y100880D01*
X172204Y94882D01*
Y100880D01*
X170204D02*
Y94882D01*
X167205D01*
X166206Y95882D01*
Y99880D01*
X167205Y100880D01*
X170204D01*
X164206Y99880D02*
X163207Y100880D01*
X161207D01*
X160208Y99880D01*
Y98881D01*
X161207Y97881D01*
X162207D01*
X161207D01*
X160208Y96881D01*
Y95882D01*
X161207Y94882D01*
X163207D01*
X164206Y95882D01*
X212992Y44187D02*
X210993D01*
X211992D01*
Y38189D01*
X212992D01*
X210993D01*
X207994D02*
Y44187D01*
X203995Y38189D01*
Y44187D01*
X201996D02*
Y38189D01*
X198997D01*
X197997Y39189D01*
Y43187D01*
X198997Y44187D01*
X201996D01*
X191999Y38189D02*
X195998D01*
X191999Y42188D01*
Y43187D01*
X192999Y44187D01*
X194998D01*
X195998Y43187D01*
X266333Y73917D02*
Y75917D01*
Y74917D01*
X260335D01*
Y73917D01*
Y75917D01*
Y78916D02*
X266333D01*
X260335Y82914D01*
X266333D01*
Y84914D02*
X260335D01*
Y87913D01*
X261334Y88912D01*
X265333D01*
X266333Y87913D01*
Y84914D01*
X260335Y90912D02*
Y92911D01*
Y91912D01*
X266333D01*
X265333Y90912D01*
X491437Y78439D02*
Y72441D01*
X488438D01*
X487438Y73441D01*
Y77439D01*
X488438Y78439D01*
X491437D01*
X485439D02*
Y72441D01*
X482440D01*
X481440Y73441D01*
Y77439D01*
X482440Y78439D01*
X485439D01*
X479441Y72441D02*
X477442D01*
X478441D01*
Y78439D01*
X479441Y77439D01*
X174508Y127947D02*
Y121949D01*
X171509D01*
X170509Y122949D01*
Y126947D01*
X171509Y127947D01*
X174508D01*
X164511Y121949D02*
X168510D01*
X164511Y125947D01*
Y126947D01*
X165511Y127947D01*
X167510D01*
X168510Y126947D01*
X495804Y99487D02*
X496804Y100486D01*
X498804D01*
X499803Y99487D01*
Y95488D01*
X498804Y94488D01*
X496804D01*
X495804Y95488D01*
X489806Y100486D02*
X493805D01*
Y97487D01*
X491806Y98487D01*
X490806D01*
X489806Y97487D01*
Y95488D01*
X490806Y94488D01*
X492805D01*
X493805Y95488D01*
X487807Y99487D02*
X486807Y100486D01*
X484808D01*
X483808Y99487D01*
Y98487D01*
X484808Y97487D01*
X485808D01*
X484808D01*
X483808Y96487D01*
Y95488D01*
X484808Y94488D01*
X486807D01*
X487807Y95488D01*
X436143Y74938D02*
X435144Y75938D01*
Y77937D01*
X436143Y78937D01*
X440142D01*
X441142Y77937D01*
Y75938D01*
X440142Y74938D01*
X435144Y68940D02*
Y72939D01*
X438143D01*
X437143Y70940D01*
Y69940D01*
X438143Y68940D01*
X440142D01*
X441142Y69940D01*
Y71939D01*
X440142Y72939D01*
X441142Y62942D02*
Y66941D01*
X437143Y62942D01*
X436143D01*
X435144Y63942D01*
Y65941D01*
X436143Y66941D01*
X510076Y56475D02*
X511076Y57474D01*
X513075D01*
X514075Y56475D01*
Y52476D01*
X513075Y51476D01*
X511076D01*
X510076Y52476D01*
X504078Y57474D02*
X508077D01*
Y54475D01*
X506077Y55475D01*
X505078D01*
X504078Y54475D01*
Y52476D01*
X505078Y51476D01*
X507077D01*
X508077Y52476D01*
X502079Y51476D02*
X500079D01*
X501079D01*
Y57474D01*
X502079Y56475D01*
X512143Y139644D02*
X513143Y140644D01*
X515142D01*
X516142Y139644D01*
Y135645D01*
X515142Y134646D01*
X513143D01*
X512143Y135645D01*
X506145Y140644D02*
X510144D01*
Y137645D01*
X508144Y138644D01*
X507145D01*
X506145Y137645D01*
Y135645D01*
X507145Y134646D01*
X509144D01*
X510144Y135645D01*
X504146Y139644D02*
X503146Y140644D01*
X501147D01*
X500147Y139644D01*
Y135645D01*
X501147Y134646D01*
X503146D01*
X504146Y135645D01*
Y139644D01*
X495903Y119565D02*
X496903Y120565D01*
X498902D01*
X499902Y119565D01*
Y115567D01*
X498902Y114567D01*
X496903D01*
X495903Y115567D01*
X490905Y114567D02*
Y120565D01*
X493903Y117566D01*
X489905D01*
X487906Y115567D02*
X486906Y114567D01*
X484906D01*
X483907Y115567D01*
Y119565D01*
X484906Y120565D01*
X486906D01*
X487906Y119565D01*
Y118566D01*
X486906Y117566D01*
X483907D01*
X422478Y107754D02*
X423477Y108754D01*
X425477D01*
X426476Y107754D01*
Y103756D01*
X425477Y102756D01*
X423477D01*
X422478Y103756D01*
X417479Y102756D02*
Y108754D01*
X420478Y105755D01*
X416480D01*
X414480Y107754D02*
X413481Y108754D01*
X411481D01*
X410482Y107754D01*
Y106755D01*
X411481Y105755D01*
X410482Y104755D01*
Y103756D01*
X411481Y102756D01*
X413481D01*
X414480Y103756D01*
Y104755D01*
X413481Y105755D01*
X414480Y106755D01*
Y107754D01*
X413481Y105755D02*
X411481D01*
X471576Y142655D02*
X470577Y143655D01*
Y145654D01*
X471576Y146653D01*
X475575D01*
X476575Y145654D01*
Y143655D01*
X475575Y142655D01*
X476575Y137656D02*
X470577D01*
X473576Y140656D01*
Y136657D01*
X470577Y134657D02*
Y130659D01*
X471576D01*
X475575Y134657D01*
X476575D01*
X559329Y284510D02*
X560329Y283511D01*
Y281511D01*
X559329Y280512D01*
X555330D01*
X554331Y281511D01*
Y283511D01*
X555330Y284510D01*
X554331Y289509D02*
X560329D01*
X557330Y286510D01*
Y290509D01*
X559329Y292508D02*
X560329Y293508D01*
Y295507D01*
X559329Y296507D01*
X555330D01*
X554331Y295507D01*
Y293508D01*
X555330Y292508D01*
X559329D01*
X404367Y309723D02*
X405367Y310722D01*
X407367D01*
X408366Y309723D01*
Y305724D01*
X407367Y304724D01*
X405367D01*
X404367Y305724D01*
X402368Y309723D02*
X401368Y310722D01*
X399369D01*
X398369Y309723D01*
Y308723D01*
X399369Y307723D01*
X400369D01*
X399369D01*
X398369Y306724D01*
Y305724D01*
X399369Y304724D01*
X401368D01*
X402368Y305724D01*
X392371Y310722D02*
X394371Y309723D01*
X396370Y307723D01*
Y305724D01*
X395370Y304724D01*
X393371D01*
X392371Y305724D01*
Y306724D01*
X393371Y307723D01*
X396370D01*
X205574Y175120D02*
X204574Y174120D01*
X202574D01*
X201575Y175120D01*
Y179118D01*
X202574Y180118D01*
X204574D01*
X205574Y179118D01*
X207573Y175120D02*
X208573Y174120D01*
X210572D01*
X211572Y175120D01*
Y176119D01*
X210572Y177119D01*
X209572D01*
X210572D01*
X211572Y178119D01*
Y179118D01*
X210572Y180118D01*
X208573D01*
X207573Y179118D01*
X213571Y175120D02*
X214571Y174120D01*
X216570D01*
X217570Y175120D01*
Y179118D01*
X216570Y180118D01*
X214571D01*
X213571Y179118D01*
Y175120D01*
X205377Y166655D02*
X204377Y165656D01*
X202378D01*
X201378Y166655D01*
Y170654D01*
X202378Y171653D01*
X204377D01*
X205377Y170654D01*
X211375Y171653D02*
X207376D01*
X211375Y167655D01*
Y166655D01*
X210375Y165656D01*
X208376D01*
X207376Y166655D01*
X213374Y170654D02*
X214374Y171653D01*
X216373D01*
X217373Y170654D01*
Y166655D01*
X216373Y165656D01*
X214374D01*
X213374Y166655D01*
Y167655D01*
X214374Y168655D01*
X217373D01*
X262734Y132164D02*
X263733Y133163D01*
X265733D01*
X266732Y132164D01*
Y128165D01*
X265733Y127165D01*
X263733D01*
X262734Y128165D01*
X256735Y127165D02*
X260734D01*
X256735Y131164D01*
Y132164D01*
X257735Y133163D01*
X259735D01*
X260734Y132164D01*
X254736D02*
X253736Y133163D01*
X251737D01*
X250737Y132164D01*
Y131164D01*
X251737Y130164D01*
X250737Y129165D01*
Y128165D01*
X251737Y127165D01*
X253736D01*
X254736Y128165D01*
Y129165D01*
X253736Y130164D01*
X254736Y131164D01*
Y132164D01*
X253736Y130164D02*
X251737D01*
X185454Y178186D02*
X184455Y179186D01*
Y181185D01*
X185454Y182185D01*
X189453D01*
X190453Y181185D01*
Y179186D01*
X189453Y178186D01*
X190453Y172188D02*
Y176187D01*
X186454Y172188D01*
X185454D01*
X184455Y173188D01*
Y175187D01*
X185454Y176187D01*
X190453Y170189D02*
Y168190D01*
Y169189D01*
X184455D01*
X185454Y170189D01*
X246281Y160765D02*
X245282Y161765D01*
Y163764D01*
X246281Y164764D01*
X250280D01*
X251279Y163764D01*
Y161765D01*
X250280Y160765D01*
X251279Y154767D02*
Y158766D01*
X247281Y154767D01*
X246281D01*
X245282Y155767D01*
Y157766D01*
X246281Y158766D01*
Y152768D02*
X245282Y151768D01*
Y149769D01*
X246281Y148769D01*
X250280D01*
X251279Y149769D01*
Y151768D01*
X250280Y152768D01*
X246281D01*
X207123Y69762D02*
X208123Y70762D01*
X210122D01*
X211122Y69762D01*
Y65763D01*
X210122Y64764D01*
X208123D01*
X207123Y65763D01*
X205124Y64764D02*
X203125D01*
X204124D01*
Y70762D01*
X205124Y69762D01*
X200126Y65763D02*
X199126Y64764D01*
X197127D01*
X196127Y65763D01*
Y69762D01*
X197127Y70762D01*
X199126D01*
X200126Y69762D01*
Y68762D01*
X199126Y67763D01*
X196127D01*
X237915Y159978D02*
X236915Y160977D01*
Y162977D01*
X237915Y163976D01*
X241914D01*
X242913Y162977D01*
Y160977D01*
X241914Y159978D01*
X242913Y157978D02*
Y155979D01*
Y156979D01*
X236915D01*
X237915Y157978D01*
Y152980D02*
X236915Y151980D01*
Y149981D01*
X237915Y148981D01*
X238915D01*
X239914Y149981D01*
X240914Y148981D01*
X241914D01*
X242913Y149981D01*
Y151980D01*
X241914Y152980D01*
X240914D01*
X239914Y151980D01*
X238915Y152980D01*
X237915D01*
X239914Y151980D02*
Y149981D01*
X207123Y60805D02*
X208123Y61805D01*
X210122D01*
X211122Y60805D01*
Y56807D01*
X210122Y55807D01*
X208123D01*
X207123Y56807D01*
X205124Y55807D02*
X203125D01*
X204124D01*
Y61805D01*
X205124Y60805D01*
X200126Y61805D02*
X196127D01*
Y60805D01*
X200126Y56807D01*
Y55807D01*
X221380Y159978D02*
X220380Y160977D01*
Y162977D01*
X221380Y163976D01*
X225378D01*
X226378Y162977D01*
Y160977D01*
X225378Y159978D01*
X226378Y157978D02*
Y155979D01*
Y156979D01*
X220380D01*
X221380Y157978D01*
X220380Y148981D02*
X221380Y150981D01*
X223379Y152980D01*
X225378D01*
X226378Y151980D01*
Y149981D01*
X225378Y148981D01*
X224379D01*
X223379Y149981D01*
Y152980D01*
X177694Y107951D02*
X178694Y108951D01*
X180693D01*
X181693Y107951D01*
Y103952D01*
X180693Y102953D01*
X178694D01*
X177694Y103952D01*
X175695Y102953D02*
X173696D01*
X174695D01*
Y108951D01*
X175695Y107951D01*
X166698Y108951D02*
X170696D01*
Y105952D01*
X168697Y106951D01*
X167698D01*
X166698Y105952D01*
Y103952D01*
X167698Y102953D01*
X169697D01*
X170696Y103952D01*
X207123Y78227D02*
X208123Y79226D01*
X210122D01*
X211122Y78227D01*
Y74228D01*
X210122Y73228D01*
X208123D01*
X207123Y74228D01*
X205124Y73228D02*
X203125D01*
X204124D01*
Y79226D01*
X205124Y78227D01*
X197127Y73228D02*
Y79226D01*
X200126Y76227D01*
X196127D01*
X229450Y160076D02*
X228451Y161076D01*
Y163075D01*
X229450Y164075D01*
X233449D01*
X234449Y163075D01*
Y161076D01*
X233449Y160076D01*
X234449Y158077D02*
Y156077D01*
Y157077D01*
X228451D01*
X229450Y158077D01*
Y153078D02*
X228451Y152079D01*
Y150079D01*
X229450Y149080D01*
X230450D01*
X231450Y150079D01*
Y151079D01*
Y150079D01*
X232450Y149080D01*
X233449D01*
X234449Y150079D01*
Y152079D01*
X233449Y153078D01*
X177596Y116120D02*
X178595Y117120D01*
X180595D01*
X181595Y116120D01*
Y112122D01*
X180595Y111122D01*
X178595D01*
X177596Y112122D01*
X175596Y111122D02*
X173597D01*
X174597D01*
Y117120D01*
X175596Y116120D01*
X166599Y111122D02*
X170598D01*
X166599Y115121D01*
Y116120D01*
X167599Y117120D01*
X169598D01*
X170598Y116120D01*
X207123Y52144D02*
X208123Y53144D01*
X210122D01*
X211122Y52144D01*
Y48145D01*
X210122Y47146D01*
X208123D01*
X207123Y48145D01*
X205124Y47146D02*
X203125D01*
X204124D01*
Y53144D01*
X205124Y52144D01*
X200126Y47146D02*
X198126D01*
X199126D01*
Y53144D01*
X200126Y52144D01*
X256376Y81361D02*
X257376Y80361D01*
Y78362D01*
X256376Y77362D01*
X252378D01*
X251378Y78362D01*
Y80361D01*
X252378Y81361D01*
X251378Y86359D02*
X257376D01*
X254377Y83360D01*
Y87359D01*
X273994Y81656D02*
X274994Y80656D01*
Y78657D01*
X273994Y77658D01*
X269996D01*
X268996Y78657D01*
Y80656D01*
X269996Y81656D01*
X273994Y83656D02*
X274994Y84655D01*
Y86655D01*
X273994Y87654D01*
X272995D01*
X271995Y86655D01*
X270995Y87654D01*
X269996D01*
X268996Y86655D01*
Y84655D01*
X269996Y83656D01*
X270995D01*
X271995Y84655D01*
X272995Y83656D01*
X273994D01*
X271995Y84655D02*
Y86655D01*
X284329Y81361D02*
X285329Y80361D01*
Y78362D01*
X284329Y77362D01*
X280330D01*
X279331Y78362D01*
Y80361D01*
X280330Y81361D01*
X285329Y87359D02*
X284329Y85360D01*
X282330Y83360D01*
X280330D01*
X279331Y84360D01*
Y86359D01*
X280330Y87359D01*
X281330D01*
X282330Y86359D01*
Y83360D01*
D124*
X470866Y100491D02*
G03*
X470866Y100491I-1181J0D01*
G01*
D255*
X153229Y148542D02*
G03*
X155629Y148542I1200J0D01*
G01*
X149705Y140453D02*
X159154D01*
X149705Y148720D02*
X159154D01*
D256*
X223425Y110925D02*
X218702D01*
Y108564D01*
X219489Y107777D01*
X221064D01*
X221851Y108564D01*
Y110925D01*
Y109351D02*
X223425Y107777D01*
Y106202D02*
Y104628D01*
Y105415D01*
X218702D01*
X219489Y106202D01*
X218702Y102267D02*
Y99118D01*
X219489D01*
X222638Y102267D01*
X223425D01*
X251083Y110728D02*
X246360D01*
Y108367D01*
X247147Y107580D01*
X248721D01*
X249508Y108367D01*
Y110728D01*
Y109154D02*
X251083Y107580D01*
Y102857D02*
Y106006D01*
X247934Y102857D01*
X247147D01*
X246360Y103644D01*
Y105218D01*
X247147Y106006D01*
X246360Y98134D02*
X247147Y99708D01*
X248721Y101283D01*
X250295D01*
X251083Y100495D01*
Y98921D01*
X250295Y98134D01*
X249508D01*
X248721Y98921D01*
Y101283D01*
X240159Y107777D02*
X239372Y108564D01*
Y110138D01*
X240159Y110925D01*
X243307D01*
X244094Y110138D01*
Y108564D01*
X243307Y107777D01*
X244094Y103054D02*
Y106202D01*
X240946Y103054D01*
X240159D01*
X239372Y103841D01*
Y105415D01*
X240159Y106202D01*
Y101479D02*
X239372Y100692D01*
Y99118D01*
X240159Y98331D01*
X240946D01*
X241733Y99118D01*
Y99905D01*
Y99118D01*
X242520Y98331D01*
X243307D01*
X244094Y99118D01*
Y100692D01*
X243307Y101479D01*
X233367Y107678D02*
X232580Y108465D01*
Y110040D01*
X233367Y110827D01*
X236516D01*
X237303Y110040D01*
Y108465D01*
X236516Y107678D01*
X237303Y102955D02*
Y106104D01*
X234155Y102955D01*
X233367D01*
X232580Y103743D01*
Y105317D01*
X233367Y106104D01*
X237303Y98232D02*
Y101381D01*
X234155Y98232D01*
X233367D01*
X232580Y99020D01*
Y100594D01*
X233367Y101381D01*
X212501Y107974D02*
X211714Y108761D01*
Y110335D01*
X212501Y111122D01*
X215650D01*
X216437Y110335D01*
Y108761D01*
X215650Y107974D01*
X216437Y103251D02*
Y106399D01*
X213288Y103251D01*
X212501D01*
X211714Y104038D01*
Y105612D01*
X212501Y106399D01*
X216437Y99315D02*
X211714D01*
X214076Y101676D01*
Y98528D01*
M02*
