G04*
G04 #@! TF.GenerationSoftware,Altium Limited,Altium Designer,19.1.8 (144)*
G04*
G04 Layer_Physical_Order=2*
G04 Layer_Color=16711680*
%FSLAX25Y25*%
%MOIN*%
G70*
G01*
G75*
%ADD11C,0.00945*%
%ADD12C,0.00984*%
%ADD17C,0.01181*%
%ADD23C,0.05906*%
%ADD116C,0.07284*%
%ADD117R,0.07284X0.07284*%
%ADD119C,0.01378*%
%ADD120C,0.01968*%
%ADD121C,0.02362*%
%ADD123C,0.02756*%
%ADD127R,0.03937X0.04331*%
%ADD128R,0.05118X0.05906*%
%ADD130R,0.04331X0.03937*%
G04:AMPARAMS|DCode=133|XSize=39.37mil|YSize=43.31mil|CornerRadius=0mil|HoleSize=0mil|Usage=FLASHONLY|Rotation=315.000|XOffset=0mil|YOffset=0mil|HoleType=Round|Shape=Rectangle|*
%AMROTATEDRECTD133*
4,1,4,-0.02923,-0.00139,0.00139,0.02923,0.02923,0.00139,-0.00139,-0.02923,-0.02923,-0.00139,0.0*
%
%ADD133ROTATEDRECTD133*%

%ADD148R,0.04488X0.05787*%
%ADD149R,0.05787X0.04488*%
%ADD161C,0.05906*%
%ADD182C,0.01500*%
%ADD183C,0.01575*%
%ADD184C,0.03150*%
%ADD185C,0.01260*%
%ADD186C,0.03937*%
%ADD191C,0.05512*%
%ADD193C,0.04331*%
%ADD194R,0.05118X0.05118*%
%ADD195C,0.05118*%
%ADD196R,0.05906X0.05906*%
%ADD197O,0.03937X0.05709*%
%ADD198O,0.07480X0.03740*%
%ADD199C,0.12598*%
%ADD200C,0.08500*%
%ADD201C,0.08858*%
%ADD202C,0.07028*%
%ADD203C,0.06201*%
%ADD204C,0.20472*%
%ADD205C,0.24410*%
%ADD206R,0.05118X0.05118*%
%ADD207C,0.10236*%
%ADD208C,0.09937*%
%ADD209R,0.05906X0.05906*%
%ADD210C,0.03937*%
%ADD211O,0.14173X0.08268*%
%ADD212O,0.08268X0.14173*%
%ADD213O,0.07874X0.11811*%
%ADD214O,0.12992X0.09055*%
%ADD215O,0.11811X0.07874*%
%ADD216C,0.25591*%
%ADD217C,0.09449*%
%ADD218C,0.05512*%
%ADD219C,0.03543*%
%ADD220C,0.04724*%
%ADD221C,0.01378*%
%ADD222R,0.06299X0.07087*%
%ADD223R,0.04370X0.02047*%
%ADD224O,0.01181X0.07087*%
%ADD225O,0.07087X0.01181*%
%ADD226R,0.07874X0.21654*%
%ADD227R,0.08268X0.08268*%
%ADD228O,0.03188X0.00942*%
%ADD229O,0.00942X0.03188*%
%ADD230R,0.00942X0.03188*%
%ADD231C,0.02559*%
G36*
X55020Y253543D02*
X53051D01*
Y249016D01*
Y244488D01*
X55020D01*
Y229921D01*
X44783Y219685D01*
X50689Y213779D01*
X42667Y205758D01*
X36614Y211811D01*
X31496Y206693D01*
X9547D01*
Y211811D01*
Y281554D01*
X9830Y282236D01*
X9978Y283366D01*
X9830Y284497D01*
X9547Y285178D01*
Y352658D01*
X16448D01*
X16921Y351658D01*
X16495Y351138D01*
X15873Y349975D01*
X15491Y348714D01*
X15419Y347992D01*
X22087D01*
Y347402D01*
X22677D01*
Y340735D01*
X23399Y340806D01*
X24660Y341188D01*
X25823Y341810D01*
X26199Y342119D01*
X26910Y341408D01*
X26620Y341054D01*
X26012Y339918D01*
X25638Y338684D01*
X25512Y337402D01*
X25638Y336119D01*
X26012Y334885D01*
X26620Y333749D01*
X26910Y333395D01*
X26199Y332684D01*
X25823Y332993D01*
X24660Y333615D01*
X23399Y333998D01*
X22677Y334069D01*
Y327992D01*
X28754D01*
X28683Y328714D01*
X28300Y329975D01*
X27678Y331138D01*
X27369Y331515D01*
X28080Y332225D01*
X28434Y331935D01*
X29570Y331327D01*
X30804Y330953D01*
X32087Y330827D01*
X33369Y330953D01*
X34603Y331327D01*
X35739Y331935D01*
X36093Y332225D01*
X36804Y331515D01*
X36495Y331138D01*
X35873Y329975D01*
X35491Y328714D01*
X35419Y327992D01*
X41496D01*
Y334069D01*
X40775Y333998D01*
X39513Y333615D01*
X38350Y332993D01*
X37974Y332684D01*
X37263Y333395D01*
X37554Y333749D01*
X38161Y334885D01*
X38535Y336119D01*
X38662Y337402D01*
X38535Y338684D01*
X38161Y339918D01*
X37554Y341054D01*
X37263Y341408D01*
X37974Y342119D01*
X38350Y341810D01*
X39513Y341188D01*
X40775Y340806D01*
X41496Y340735D01*
Y347402D01*
X42087D01*
Y347992D01*
X48754D01*
X48683Y348714D01*
X48300Y349975D01*
X47679Y351138D01*
X47252Y351658D01*
X47725Y352658D01*
X55020D01*
X55020Y253543D01*
D02*
G37*
G36*
X604528Y327067D02*
X604528Y295177D01*
X597221D01*
X596981Y295387D01*
X596413Y295767D01*
X595800Y296070D01*
X595152Y296290D01*
X594482Y296423D01*
X593799Y296468D01*
X593117Y296423D01*
X592446Y296290D01*
X591799Y296070D01*
X591185Y295767D01*
X590617Y295387D01*
X590377Y295177D01*
X577536D01*
X577296Y295387D01*
X576728Y295767D01*
X576115Y296070D01*
X575467Y296290D01*
X574796Y296423D01*
X574114Y296468D01*
X573432Y296423D01*
X572761Y296290D01*
X572114Y296070D01*
X571500Y295767D01*
X570932Y295387D01*
X570692Y295177D01*
X566339D01*
Y282087D01*
X440846D01*
Y241885D01*
X390581Y241885D01*
X378549Y229429D01*
X376083D01*
Y227299D01*
X367699Y218915D01*
X367325Y218489D01*
X367009Y218017D01*
X366758Y217507D01*
X366609Y217067D01*
X329979Y179143D01*
X312500D01*
X312500Y179143D01*
X311933Y179106D01*
X311377Y178995D01*
X310839Y178813D01*
X310330Y178562D01*
X309858Y178246D01*
X309431Y177872D01*
X309431Y177872D01*
X284234Y152675D01*
X283860Y152248D01*
X283545Y151776D01*
X283294Y151267D01*
X283111Y150730D01*
X283000Y150173D01*
X282963Y149606D01*
X282963Y149606D01*
Y120177D01*
X283000Y119611D01*
X283111Y119054D01*
X283169Y118882D01*
Y116043D01*
X286008D01*
X286180Y115985D01*
X286737Y115874D01*
X287303Y115837D01*
X287870Y115874D01*
X288426Y115985D01*
X288598Y116043D01*
X291437D01*
Y117434D01*
X291744Y117584D01*
X291937Y117602D01*
X292248Y117248D01*
X292655Y116891D01*
X293106Y116589D01*
X293592Y116350D01*
X294105Y116176D01*
X294636Y116070D01*
X295177Y116034D01*
X295718Y116070D01*
X296249Y116176D01*
X296762Y116350D01*
X297249Y116589D01*
X297699Y116891D01*
X298107Y117248D01*
X298464Y117655D01*
X298765Y118106D01*
X299005Y118592D01*
X299179Y119105D01*
X299285Y119636D01*
X299320Y120177D01*
X299285Y120718D01*
X299179Y121249D01*
X299005Y121763D01*
X298765Y122248D01*
X298464Y122699D01*
X298107Y123107D01*
X297699Y123464D01*
X297249Y123765D01*
X296762Y124004D01*
X296249Y124179D01*
X295718Y124285D01*
X295177Y124320D01*
X294636Y124285D01*
X294105Y124179D01*
X293592Y124004D01*
X293106Y123765D01*
X292655Y123464D01*
X292248Y123107D01*
X292143Y122987D01*
X291643Y123175D01*
Y147809D01*
X305444Y161609D01*
X305906Y161418D01*
Y154389D01*
X305863Y154285D01*
X305740Y153773D01*
X305698Y153248D01*
X305740Y152723D01*
X305863Y152211D01*
X305906Y152107D01*
X305906Y42127D01*
X305764Y41785D01*
X305641Y41273D01*
X305600Y40748D01*
X305641Y40223D01*
X305764Y39711D01*
X305906Y39370D01*
Y1673D01*
X279479Y1673D01*
X279436Y2173D01*
X279575Y2197D01*
X280170Y2368D01*
X280742Y2605D01*
X281284Y2905D01*
X281788Y3263D01*
X282250Y3675D01*
X282663Y4137D01*
X283021Y4642D01*
X283320Y5184D01*
X283557Y5756D01*
X283729Y6350D01*
X283832Y6961D01*
X283834Y6988D01*
X276378D01*
X268922D01*
X268924Y6961D01*
X269027Y6350D01*
X269199Y5756D01*
X269436Y5184D01*
X269735Y4642D01*
X270093Y4137D01*
X270506Y3675D01*
X270968Y3263D01*
X271472Y2905D01*
X272014Y2605D01*
X272586Y2368D01*
X273181Y2197D01*
X273320Y2173D01*
X273277Y1673D01*
X216535Y1673D01*
Y47040D01*
X216785Y47290D01*
X217147Y47714D01*
X217439Y48190D01*
X217652Y48705D01*
X217782Y49247D01*
X217826Y49803D01*
Y83154D01*
X218030Y83460D01*
X218281Y83969D01*
X218464Y84507D01*
X218575Y85063D01*
X218612Y85630D01*
X218575Y86196D01*
X218464Y86753D01*
X218281Y87291D01*
X218030Y87800D01*
X217715Y88272D01*
X217340Y88699D01*
X216914Y89073D01*
X216442Y89389D01*
X215932Y89640D01*
X215395Y89822D01*
X214838Y89933D01*
X214272Y89970D01*
X213705Y89933D01*
X213148Y89822D01*
X212611Y89640D01*
X212102Y89389D01*
X211630Y89073D01*
X211203Y88699D01*
X211169Y88660D01*
X210669Y88849D01*
Y89370D01*
X211024D01*
Y92323D01*
X207283D01*
Y93504D01*
X211024D01*
Y95768D01*
Y98721D01*
X207283D01*
Y99901D01*
X211024D01*
Y102362D01*
Y105315D01*
X207283D01*
Y106496D01*
X211024D01*
Y109055D01*
Y112000D01*
X211024Y112500D01*
X213976D01*
Y116240D01*
X215158D01*
Y112500D01*
X217618D01*
Y112500D01*
X224705D01*
Y112775D01*
X225205Y113013D01*
X225575Y112860D01*
X226117Y112730D01*
X226673Y112686D01*
X227229Y112730D01*
X227772Y112860D01*
X228142Y113013D01*
X228642Y112775D01*
Y112500D01*
X232080D01*
X232181Y112168D01*
X232216Y111814D01*
X232211Y111767D01*
Y89311D01*
X227224D01*
Y89075D01*
X224410D01*
Y85335D01*
X223819D01*
Y84744D01*
X220276D01*
Y81595D01*
Y74902D01*
X220276D01*
X220276Y74901D01*
Y67815D01*
X230570D01*
X230709Y67804D01*
X232841D01*
X232883Y67304D01*
X232783Y67287D01*
X232167Y67109D01*
X231574Y66864D01*
X231013Y66554D01*
X230490Y66183D01*
X230012Y65756D01*
X229585Y65277D01*
X229214Y64755D01*
X228904Y64193D01*
X228658Y63601D01*
X228481Y62985D01*
X228374Y62353D01*
X228338Y61713D01*
X228374Y61072D01*
X228481Y60440D01*
X228658Y59824D01*
X228904Y59232D01*
X229214Y58671D01*
X229585Y58148D01*
X230012Y57670D01*
X230490Y57242D01*
X231013Y56871D01*
X231574Y56561D01*
X232167Y56316D01*
X232783Y56138D01*
X233415Y56031D01*
X234055Y55995D01*
X239961D01*
X240601Y56031D01*
X241233Y56138D01*
X241849Y56316D01*
X242442Y56561D01*
X243003Y56871D01*
X243526Y57242D01*
X244004Y57670D01*
X244431Y58148D01*
X244802Y58671D01*
X245112Y59232D01*
X245357Y59824D01*
X245535Y60440D01*
X245642Y61072D01*
X245678Y61713D01*
X245642Y62353D01*
X245535Y62985D01*
X245357Y63601D01*
X245112Y64193D01*
X244802Y64755D01*
X244431Y65277D01*
X244004Y65756D01*
X243526Y66183D01*
X243003Y66554D01*
X242442Y66864D01*
X241849Y67109D01*
X241233Y67287D01*
X241132Y67304D01*
X241175Y67804D01*
X259444D01*
X259672Y67749D01*
X260228Y67706D01*
Y67706D01*
X260237Y67714D01*
X260951Y67674D01*
X261664Y67553D01*
X262360Y67353D01*
X263029Y67076D01*
X263662Y66725D01*
X264253Y66307D01*
X264741Y65870D01*
X264786Y65818D01*
X270942Y59662D01*
X270994Y59617D01*
X271429Y59130D01*
X271847Y58542D01*
X272196Y57910D01*
X272472Y57244D01*
X272672Y56550D01*
X272793Y55839D01*
X272805Y55611D01*
X272824Y55118D01*
X272824Y54628D01*
X272824Y54622D01*
Y50677D01*
X272391Y50553D01*
X271758Y50290D01*
X271158Y49959D01*
X270599Y49562D01*
X270088Y49105D01*
X269631Y48594D01*
X269234Y48035D01*
X268903Y47435D01*
X268640Y46802D01*
X268451Y46144D01*
X268336Y45468D01*
X268298Y44784D01*
X268336Y44099D01*
X268451Y43424D01*
X268640Y42765D01*
X268903Y42132D01*
X269234Y41532D01*
X269631Y40973D01*
X270088Y40462D01*
X270599Y40005D01*
X271158Y39608D01*
X271758Y39277D01*
X272391Y39015D01*
X273049Y38825D01*
X273725Y38710D01*
X274410Y38672D01*
X278346D01*
X279031Y38710D01*
X279707Y38825D01*
X280365Y39015D01*
X280998Y39277D01*
X281598Y39608D01*
X282157Y40005D01*
X282668Y40462D01*
X283125Y40973D01*
X283522Y41532D01*
X283853Y42132D01*
X284116Y42765D01*
X284305Y43424D01*
X284420Y44099D01*
X284458Y44784D01*
X284420Y45468D01*
X284305Y46144D01*
X284116Y46802D01*
X283853Y47435D01*
X283522Y48035D01*
X283125Y48594D01*
X282668Y49105D01*
X282157Y49562D01*
X281598Y49959D01*
X280998Y50290D01*
X280365Y50553D01*
X279932Y50677D01*
Y55118D01*
X279931Y55132D01*
X279890Y56180D01*
X279765Y57235D01*
X279558Y58277D01*
X279269Y59300D01*
X278902Y60297D01*
X278457Y61262D01*
X277937Y62190D01*
X277347Y63073D01*
X276689Y63908D01*
X275977Y64678D01*
X275968Y64688D01*
X269812Y70844D01*
X269802Y70853D01*
X269030Y71566D01*
X268195Y72225D01*
X267310Y72816D01*
X266381Y73336D01*
X265415Y73782D01*
X264416Y74150D01*
X263392Y74439D01*
X262348Y74647D01*
X261291Y74772D01*
X261168Y74777D01*
X260784Y74869D01*
X260228Y74913D01*
X249692D01*
X249409Y75295D01*
Y78445D01*
X245866D01*
Y79626D01*
X249409D01*
Y81988D01*
Y89468D01*
X242323D01*
Y89468D01*
X239246D01*
Y111864D01*
X239239Y111926D01*
X239277Y112402D01*
X248917D01*
Y119095D01*
Y122244D01*
X245374D01*
Y123425D01*
X248917D01*
Y126575D01*
X248917D01*
Y129232D01*
X245177D01*
Y130413D01*
X248917D01*
Y133366D01*
X248169D01*
Y140340D01*
X248669Y140548D01*
X250957Y138260D01*
X250957Y138260D01*
X251310Y137958D01*
X251707Y137715D01*
X252136Y137537D01*
X252588Y137429D01*
X253051Y137392D01*
X253051Y137392D01*
X269650D01*
X269842Y137224D01*
X270271Y136937D01*
X270734Y136709D01*
X271223Y136543D01*
X271729Y136443D01*
X272244Y136409D01*
X272759Y136443D01*
X273265Y136543D01*
X273754Y136709D01*
X274217Y136937D01*
X274646Y137224D01*
X275034Y137565D01*
X275374Y137952D01*
X275661Y138382D01*
X275889Y138845D01*
X276055Y139333D01*
X276156Y139839D01*
X276190Y140354D01*
X276156Y140869D01*
X276055Y141376D01*
X275889Y141864D01*
X275661Y142327D01*
X275646Y142350D01*
Y158367D01*
X291286Y174007D01*
X293371D01*
X293563Y173838D01*
X293992Y173552D01*
X294455Y173323D01*
X294943Y173158D01*
X295450Y173057D01*
X295965Y173023D01*
X296480Y173057D01*
X296986Y173158D01*
X297474Y173323D01*
X297937Y173552D01*
X298366Y173838D01*
X298754Y174179D01*
X299095Y174567D01*
X299381Y174996D01*
X299610Y175459D01*
X299776Y175947D01*
X299876Y176453D01*
X299910Y176969D01*
X299876Y177483D01*
X299776Y177990D01*
X299610Y178478D01*
X299381Y178941D01*
X299095Y179370D01*
X298754Y179758D01*
X298366Y180099D01*
X297937Y180385D01*
X297474Y180614D01*
X296986Y180780D01*
X296480Y180880D01*
X295965Y180914D01*
X295450Y180880D01*
X294943Y180780D01*
X294455Y180614D01*
X293992Y180385D01*
X293563Y180099D01*
X293371Y179930D01*
X290059D01*
X289596Y179894D01*
X289144Y179785D01*
X288714Y179608D01*
X288318Y179365D01*
X287965Y179063D01*
X287965Y179063D01*
X270590Y161688D01*
X270288Y161334D01*
X270045Y160938D01*
X269867Y160509D01*
X269759Y160057D01*
X269722Y159593D01*
X269722Y159593D01*
Y143379D01*
X269650Y143316D01*
X254278D01*
X251838Y145756D01*
X251485Y146058D01*
X251089Y146300D01*
X250659Y146478D01*
X250207Y146587D01*
X249744Y146623D01*
X249744Y146623D01*
X248169D01*
Y147480D01*
X239232D01*
Y147244D01*
X236811D01*
Y143504D01*
X235630D01*
Y147244D01*
X230118D01*
Y143504D01*
X228937D01*
Y147244D01*
X223425D01*
Y143504D01*
X222244D01*
Y147244D01*
X216732D01*
Y143504D01*
X216142D01*
Y142913D01*
X212598D01*
Y139764D01*
Y136191D01*
X210537D01*
X210506Y136503D01*
X210389Y136889D01*
X210199Y137244D01*
X209943Y137556D01*
X209632Y137812D01*
X209276Y138002D01*
X208891Y138119D01*
X208490Y138158D01*
X206557D01*
X206199Y138286D01*
X206071Y138644D01*
Y140577D01*
X206032Y140978D01*
X205915Y141363D01*
X205725Y141719D01*
X205469Y142030D01*
X205158Y142286D01*
X204802Y142476D01*
X204417Y142593D01*
X204016Y142632D01*
X203615Y142593D01*
X203229Y142476D01*
X203031Y142370D01*
X202834Y142476D01*
X202448Y142593D01*
X202136Y142623D01*
Y146063D01*
X207775D01*
Y149606D01*
X208366D01*
Y150197D01*
X212106D01*
Y153142D01*
X212106Y153150D01*
X212125Y153642D01*
X219193D01*
Y155206D01*
X250000D01*
X250556Y155249D01*
X251098Y155379D01*
X251614Y155593D01*
X252089Y155884D01*
X252513Y156247D01*
X284051Y187784D01*
X324705D01*
X325261Y187828D01*
X325803Y187958D01*
X326318Y188172D01*
X326794Y188463D01*
X327218Y188825D01*
X385724Y247332D01*
X424782D01*
X424966Y247241D01*
X425455Y247075D01*
X425961Y246974D01*
X426476Y246940D01*
X426991Y246974D01*
X427497Y247075D01*
X427986Y247241D01*
X428449Y247469D01*
X428878Y247756D01*
X429266Y248096D01*
X429606Y248484D01*
X429893Y248913D01*
X430122Y249376D01*
X430287Y249865D01*
X430388Y250371D01*
X430422Y250886D01*
X430388Y251401D01*
X430287Y251907D01*
X430122Y252396D01*
X429893Y252859D01*
X429606Y253288D01*
X429266Y253676D01*
X428878Y254016D01*
X428449Y254303D01*
X427986Y254531D01*
X427497Y254697D01*
X426991Y254798D01*
X426476Y254831D01*
X425961Y254798D01*
X425455Y254697D01*
X424966Y254531D01*
X424782Y254440D01*
X384252D01*
X383696Y254396D01*
X383154Y254266D01*
X382638Y254053D01*
X382163Y253761D01*
X381739Y253399D01*
X323233Y194893D01*
X282579D01*
X282023Y194849D01*
X281481Y194719D01*
X280965Y194506D01*
X280490Y194214D01*
X280065Y193852D01*
X248528Y162314D01*
X219193D01*
Y163878D01*
X209744D01*
Y153650D01*
X209744Y153642D01*
X209725Y153150D01*
X208188D01*
X208169Y153642D01*
X208169D01*
Y163878D01*
X202381D01*
X202190Y164340D01*
X204373Y166523D01*
X204648Y166606D01*
X205059Y166826D01*
X205419Y167121D01*
X205714Y167481D01*
X205933Y167891D01*
X206068Y168336D01*
X206114Y168799D01*
Y175886D01*
X206076Y176272D01*
X206167Y176512D01*
X206360Y176772D01*
X249311Y176772D01*
X274677Y202137D01*
X318180Y202137D01*
X377854Y261811D01*
X377854Y327067D01*
X604528Y327067D01*
D02*
G37*
G36*
X687513Y352658D02*
X688312Y352499D01*
X689064Y352187D01*
X689742Y351735D01*
X690317Y351159D01*
X690770Y350482D01*
X691081Y349729D01*
X691229Y348986D01*
X691240Y348524D01*
Y348523D01*
X691240D01*
X691240Y348523D01*
X691240Y5709D01*
X691240Y5311D01*
X691085Y4532D01*
X690781Y3797D01*
X690339Y3136D01*
X689777Y2574D01*
X689116Y2132D01*
X688382Y1828D01*
X687697Y1692D01*
X687205Y1673D01*
X687205Y1673D01*
X556306D01*
X556257Y2173D01*
X556849Y2291D01*
X557565Y2770D01*
X561561Y6766D01*
X561929Y7316D01*
X562283Y7463D01*
X563229Y8188D01*
X563955Y9134D01*
X564411Y10235D01*
X564567Y11417D01*
X564411Y12599D01*
X564003Y13585D01*
X564426Y13869D01*
X565620Y12675D01*
X565589Y12599D01*
X565433Y11417D01*
X565589Y10235D01*
X566045Y9134D01*
X566771Y8188D01*
X567717Y7463D01*
X568818Y7006D01*
X570000Y6851D01*
X571182Y7006D01*
X572283Y7463D01*
X573229Y8188D01*
X573955Y9134D01*
X574411Y10235D01*
X574567Y11417D01*
X574411Y12599D01*
X574003Y13585D01*
X574426Y13869D01*
X575620Y12675D01*
X575589Y12599D01*
X575433Y11417D01*
X575589Y10235D01*
X576045Y9134D01*
X576771Y8188D01*
X577717Y7463D01*
X578818Y7006D01*
X580000Y6851D01*
X581182Y7006D01*
X582283Y7463D01*
X583229Y8188D01*
X583955Y9134D01*
X584411Y10235D01*
X584567Y11417D01*
X584411Y12599D01*
X584002Y13585D01*
X584426Y13869D01*
X585620Y12675D01*
X585589Y12599D01*
X585433Y11417D01*
X585589Y10235D01*
X586045Y9134D01*
X586771Y8188D01*
X587717Y7463D01*
X588818Y7006D01*
X590000Y6851D01*
X591182Y7006D01*
X592283Y7463D01*
X593229Y8188D01*
X593955Y9134D01*
X594411Y10235D01*
X594567Y11417D01*
X594411Y12599D01*
X593955Y13701D01*
X593229Y14646D01*
X592283Y15372D01*
X591182Y15828D01*
X590000Y15984D01*
X588818Y15828D01*
X588742Y15797D01*
X587549Y16991D01*
X587832Y17415D01*
X588818Y17006D01*
X590000Y16851D01*
X591182Y17006D01*
X592283Y17462D01*
X593229Y18188D01*
X593955Y19134D01*
X594411Y20235D01*
X594567Y21417D01*
X594411Y22599D01*
X594002Y23585D01*
X594426Y23869D01*
X595620Y22675D01*
X595589Y22599D01*
X595433Y21417D01*
X595589Y20235D01*
X596045Y19134D01*
X596771Y18188D01*
X597717Y17462D01*
X598818Y17006D01*
X600000Y16851D01*
X601182Y17006D01*
X602283Y17462D01*
X603229Y18188D01*
X603955Y19134D01*
X604411Y20235D01*
X604567Y21417D01*
X604411Y22599D01*
X603955Y23701D01*
X603229Y24646D01*
X602283Y25372D01*
X601182Y25828D01*
X600000Y25984D01*
X598818Y25828D01*
X598742Y25797D01*
X595912Y28628D01*
X595195Y29107D01*
X594350Y29275D01*
X590580D01*
X564947Y54908D01*
X564231Y55386D01*
X563386Y55554D01*
X498651D01*
X496794Y57411D01*
Y77362D01*
X496626Y78207D01*
X496148Y78923D01*
X494554Y80516D01*
X494734Y81044D01*
X495118Y81095D01*
X495980Y81452D01*
X496720Y82020D01*
X497288Y82760D01*
X497645Y83622D01*
X497767Y84547D01*
X497645Y85472D01*
X497420Y86015D01*
X497754Y86515D01*
X500492D01*
Y89468D01*
X496752D01*
Y90649D01*
X500492D01*
Y92378D01*
X508619D01*
Y89763D01*
X505315D01*
Y66043D01*
X504724D01*
Y62500D01*
Y58956D01*
X514567D01*
Y64960D01*
X516338D01*
Y89763D01*
X513035D01*
Y93307D01*
X512866Y94152D01*
X512388Y94868D01*
X511587Y95669D01*
X512388Y96470D01*
X512866Y97186D01*
X513035Y98031D01*
Y102362D01*
X516338D01*
Y127165D01*
X514567D01*
Y133169D01*
X504724D01*
Y129626D01*
Y126082D01*
X505315D01*
Y102362D01*
X508619D01*
Y98946D01*
X508436Y98763D01*
X496161D01*
X496160Y98762D01*
X483853D01*
X483733Y99368D01*
X483639Y99507D01*
X483733Y99647D01*
X483900Y100491D01*
X483733Y101336D01*
X483639Y101476D01*
X483733Y101615D01*
X483900Y102460D01*
X483733Y103305D01*
X483639Y103444D01*
X483733Y103584D01*
X483900Y104428D01*
X483733Y105273D01*
X483254Y105990D01*
X483245Y105996D01*
X483396Y106496D01*
X485236D01*
Y110039D01*
Y113582D01*
X482112D01*
Y116958D01*
X482229Y117111D01*
X482586Y117973D01*
X482708Y118898D01*
X482586Y119823D01*
X482229Y120685D01*
X481661Y121425D01*
X480921Y121993D01*
X480059Y122350D01*
X479134Y122471D01*
X478209Y122350D01*
X477347Y121993D01*
X476870Y122237D01*
Y124901D01*
X469783D01*
Y121752D01*
Y115197D01*
X469744Y115004D01*
X469509Y114672D01*
X468840Y114539D01*
X468701Y114446D01*
X468561Y114539D01*
X467956Y114660D01*
Y122244D01*
X467788Y123089D01*
X467716Y123196D01*
Y127165D01*
Y134252D01*
X457874D01*
Y130709D01*
X457283D01*
Y130118D01*
X453543D01*
Y126424D01*
X447947D01*
X445109Y129262D01*
X444327Y129784D01*
X443405Y129967D01*
X418714D01*
X406904Y141778D01*
X407117Y142230D01*
X407283Y142214D01*
X408514Y142335D01*
X409698Y142694D01*
X410789Y143277D01*
X411745Y144062D01*
X412530Y145018D01*
X413113Y146109D01*
X413472Y147293D01*
X413593Y148524D01*
X413472Y149755D01*
X413113Y150938D01*
X412530Y152029D01*
X411745Y152985D01*
X410789Y153770D01*
X409698Y154353D01*
X408514Y154712D01*
X407283Y154833D01*
X406052Y154712D01*
X404869Y154353D01*
X403778Y153770D01*
X402822Y152985D01*
X402037Y152029D01*
X401454Y150938D01*
X401095Y149755D01*
X400974Y148524D01*
X400990Y148357D01*
X400538Y148144D01*
X394616Y154065D01*
X393835Y154587D01*
X392913Y154771D01*
X372142D01*
X371471Y155285D01*
X370657Y155622D01*
X369783Y155737D01*
X368910Y155622D01*
X368096Y155285D01*
X367397Y154749D01*
X366860Y154050D01*
X366523Y153236D01*
X366408Y152362D01*
X366523Y151489D01*
X366860Y150674D01*
X367397Y149976D01*
X368096Y149439D01*
X368910Y149102D01*
X369783Y148987D01*
X370657Y149102D01*
X371471Y149439D01*
X372142Y149954D01*
X379237D01*
X379546Y149454D01*
X379318Y148905D01*
X379203Y148031D01*
X379318Y147158D01*
X379656Y146344D01*
X380192Y145645D01*
X380891Y145108D01*
X381705Y144771D01*
X382579Y144656D01*
X383452Y144771D01*
X384266Y145108D01*
X384937Y145623D01*
X391128D01*
X413733Y123018D01*
Y104724D01*
X413917Y103803D01*
X414439Y103021D01*
X420204Y97256D01*
X420013Y96794D01*
X394517D01*
X387641Y103670D01*
Y116929D01*
X387473Y117774D01*
X386994Y118490D01*
X375380Y130104D01*
X374664Y130583D01*
X373819Y130751D01*
X368218D01*
X362402Y136567D01*
Y142500D01*
X353346D01*
Y133445D01*
X359279D01*
X360325Y132399D01*
X360042Y131975D01*
X359056Y132384D01*
X357874Y132539D01*
X356692Y132384D01*
X355591Y131927D01*
X354645Y131202D01*
X353919Y130256D01*
X353463Y129154D01*
X353307Y127972D01*
X353463Y126790D01*
X353919Y125689D01*
X354645Y124743D01*
X355591Y124018D01*
X356692Y123561D01*
X357874Y123406D01*
X359056Y123561D01*
X359132Y123593D01*
X360860Y121864D01*
X361576Y121386D01*
X362303Y121241D01*
Y119809D01*
X356844D01*
X353366Y123287D01*
X353384Y123425D01*
X353235Y124556D01*
X352799Y125609D01*
X352104Y126514D01*
X351994Y126599D01*
Y156072D01*
X352498Y156459D01*
X353192Y157363D01*
X353629Y158417D01*
X353778Y159547D01*
X353629Y160678D01*
X353192Y161731D01*
X352498Y162636D01*
X351593Y163330D01*
X350540Y163767D01*
X349410Y163915D01*
X348279Y163767D01*
X347225Y163330D01*
X346321Y162636D01*
X345627Y161731D01*
X345406Y161198D01*
X344906Y161297D01*
Y163416D01*
X347510Y166019D01*
X365354D01*
X366074Y166114D01*
X366744Y166392D01*
X367320Y166834D01*
X382674Y182188D01*
X383116Y182764D01*
X383394Y183434D01*
X383488Y184153D01*
Y193110D01*
X384842D01*
Y201378D01*
X376575D01*
Y193110D01*
X377929D01*
Y185305D01*
X364203Y171579D01*
X350215D01*
X350008Y172079D01*
X362045Y184116D01*
X362740Y185021D01*
X363176Y186074D01*
X363325Y187205D01*
Y191498D01*
X373856Y202029D01*
X374551Y202934D01*
X374987Y203988D01*
X375136Y205118D01*
Y214037D01*
X382260Y221161D01*
X384350D01*
Y223959D01*
X384436Y224165D01*
X384585Y225295D01*
X384436Y226426D01*
X384350Y226632D01*
Y229429D01*
X381553D01*
X381499Y229452D01*
X381310Y229977D01*
X391262Y240280D01*
X440846Y240280D01*
X441461Y240402D01*
X441982Y240750D01*
X442330Y241271D01*
X442452Y241885D01*
Y280481D01*
X566339D01*
X566953Y280603D01*
X567474Y280951D01*
X567822Y281472D01*
X567944Y282087D01*
Y293571D01*
X568984D01*
X569261Y293156D01*
X569032Y292602D01*
X568930Y291831D01*
X574114D01*
X579298D01*
X579196Y292602D01*
X578967Y293156D01*
X579245Y293571D01*
X588668D01*
X588946Y293156D01*
X588717Y292602D01*
X588538Y291240D01*
X588717Y289878D01*
X589243Y288609D01*
X590079Y287520D01*
X591168Y286683D01*
X592437Y286158D01*
X593799Y285979D01*
X595161Y286158D01*
X596430Y286683D01*
X597520Y287520D01*
X598356Y288609D01*
X598881Y289878D01*
X599061Y291240D01*
X598881Y292602D01*
X598652Y293156D01*
X598930Y293571D01*
X604528D01*
X605142Y293694D01*
X605663Y294042D01*
X606011Y294563D01*
X606133Y295177D01*
X606133Y327067D01*
X606011Y327681D01*
X605663Y328202D01*
X605142Y328550D01*
X604528Y328673D01*
X541581Y328673D01*
X541507Y329173D01*
X542201Y329383D01*
X543569Y330114D01*
X544768Y331098D01*
X545752Y332297D01*
X546483Y333665D01*
X546933Y335149D01*
X547085Y336693D01*
X546933Y338236D01*
X546483Y339721D01*
X545752Y341089D01*
X544768Y342288D01*
X543569Y343272D01*
X542201Y344003D01*
X540717Y344453D01*
X539173Y344605D01*
X537630Y344453D01*
X536145Y344003D01*
X534777Y343272D01*
X533578Y342288D01*
X532595Y341089D01*
X531863Y339721D01*
X531413Y338236D01*
X531261Y336693D01*
X531413Y335149D01*
X531863Y333665D01*
X532595Y332297D01*
X533578Y331098D01*
X534777Y330114D01*
X536145Y329383D01*
X536839Y329173D01*
X536765Y328673D01*
X388038Y328673D01*
X387964Y329173D01*
X388658Y329383D01*
X390026Y330114D01*
X391225Y331098D01*
X392209Y332297D01*
X392940Y333665D01*
X393390Y335149D01*
X393542Y336693D01*
X393390Y338236D01*
X392940Y339721D01*
X392209Y341089D01*
X391225Y342288D01*
X390026Y343272D01*
X388658Y344003D01*
X387174Y344453D01*
X385630Y344605D01*
X384086Y344453D01*
X382602Y344003D01*
X381234Y343272D01*
X380035Y342288D01*
X379051Y341089D01*
X378320Y339721D01*
X377870Y338236D01*
X377718Y336693D01*
X377870Y335149D01*
X378320Y333665D01*
X379051Y332297D01*
X380035Y331098D01*
X381234Y330114D01*
X382602Y329383D01*
X383296Y329173D01*
X383222Y328673D01*
X377854D01*
X377240Y328550D01*
X376719Y328202D01*
X376371Y327681D01*
X376249Y327067D01*
X376249Y262476D01*
X317515Y203743D01*
X274677Y203743D01*
X274062Y203621D01*
X273541Y203273D01*
X273541Y203273D01*
X248646Y178377D01*
X206360Y178377D01*
X206243Y178354D01*
X206124Y178360D01*
X205939Y178294D01*
X205745Y178255D01*
X205646Y178189D01*
X205534Y178149D01*
X205388Y178016D01*
X205224Y177907D01*
X205134Y177898D01*
X189274Y193758D01*
X188492Y194281D01*
X187571Y194464D01*
X177094D01*
X137300Y234258D01*
X138733Y235691D01*
X147550Y226873D01*
X148126Y226431D01*
X148797Y226154D01*
X149516Y226059D01*
X154035D01*
X154755Y226154D01*
X155425Y226431D01*
X156001Y226873D01*
X162563Y233435D01*
X162598Y233431D01*
X163626Y233566D01*
X164584Y233963D01*
X165406Y234594D01*
X166037Y235416D01*
X166434Y236374D01*
X166569Y237402D01*
X166434Y238429D01*
X166037Y239387D01*
X165406Y240210D01*
X164584Y240841D01*
X163626Y241237D01*
X162598Y241372D01*
X161571Y241237D01*
X160613Y240841D01*
X159791Y240210D01*
X159160Y239387D01*
X158763Y238429D01*
X158627Y237402D01*
X158632Y237366D01*
X152884Y231618D01*
X150668D01*
X142664Y239622D01*
X143343Y240301D01*
X138332Y245312D01*
X137653Y244633D01*
X129041Y253245D01*
X128465Y253687D01*
X127795Y253964D01*
X127075Y254059D01*
X120553D01*
X119833Y253964D01*
X119163Y253687D01*
X118587Y253245D01*
X113709Y248367D01*
X113673Y248371D01*
X112646Y248236D01*
X111688Y247839D01*
X110866Y247208D01*
X110234Y246386D01*
X109838Y245428D01*
X109703Y244400D01*
X109838Y243373D01*
X110234Y242415D01*
X110866Y241593D01*
X110894Y241571D01*
Y234448D01*
X110988Y233729D01*
X111266Y233058D01*
X111708Y232483D01*
X118556Y225634D01*
X117877Y224955D01*
X122888Y219944D01*
X124319Y221375D01*
X124846Y221195D01*
X124894Y220831D01*
X125251Y219969D01*
X125819Y219229D01*
X126559Y218661D01*
X127421Y218304D01*
X128347Y218182D01*
X128695Y218228D01*
X162876Y184047D01*
X162727Y183547D01*
X158018D01*
X103539Y238025D01*
X103574Y238287D01*
X103452Y239212D01*
X103095Y240074D01*
X102527Y240814D01*
X101787Y241383D01*
X100925Y241740D01*
X100000Y241861D01*
X99075Y241740D01*
X98213Y241383D01*
X97473Y240814D01*
X96905Y240074D01*
X96548Y239212D01*
X96426Y238287D01*
X96548Y237362D01*
X96905Y236501D01*
X97473Y235760D01*
X98213Y235192D01*
X99075Y234835D01*
X100000Y234714D01*
X100436Y234771D01*
X155497Y179710D01*
X156226Y179222D01*
X156712Y179126D01*
X156662Y178626D01*
X152112D01*
X97207Y233531D01*
X96478Y234019D01*
X95617Y234190D01*
X88462D01*
X88248Y234469D01*
X87508Y235037D01*
X86646Y235394D01*
X85721Y235516D01*
X84796Y235394D01*
X83934Y235037D01*
X83194Y234469D01*
X82626Y233729D01*
X82269Y232867D01*
X82147Y231942D01*
X82269Y231017D01*
X82626Y230155D01*
X83194Y229415D01*
X83934Y228847D01*
X84796Y228490D01*
X85721Y228368D01*
X86646Y228490D01*
X87508Y228847D01*
X88248Y229415D01*
X88462Y229694D01*
X94686D01*
X97704Y226676D01*
X97497Y226176D01*
X79801D01*
X79586Y226455D01*
X78846Y227023D01*
X77984Y227380D01*
X77059Y227502D01*
X76134Y227380D01*
X75272Y227023D01*
X74532Y226455D01*
X73964Y225715D01*
X73607Y224853D01*
X73485Y223928D01*
X73607Y223003D01*
X73964Y222141D01*
X74532Y221401D01*
X75272Y220833D01*
X76134Y220476D01*
X77059Y220354D01*
X77984Y220476D01*
X78846Y220833D01*
X79586Y221401D01*
X79801Y221680D01*
X96991D01*
X122480Y196191D01*
X122320Y195718D01*
X122008Y195677D01*
X121146Y195319D01*
X120406Y194752D01*
X119838Y194011D01*
X119481Y193149D01*
X119359Y192224D01*
X119481Y191299D01*
X119838Y190437D01*
X120406Y189697D01*
X121146Y189129D01*
X122008Y188772D01*
X122933Y188651D01*
X123369Y188708D01*
X158616Y153461D01*
X158425Y152999D01*
X154246D01*
X140864Y166381D01*
X140952Y166595D01*
X141074Y167520D01*
X140952Y168445D01*
X140595Y169307D01*
X140027Y170047D01*
X139287Y170615D01*
X138425Y170972D01*
X137500Y171094D01*
X136575Y170972D01*
X135713Y170615D01*
X134973Y170047D01*
X134405Y169307D01*
X134177Y168755D01*
X133587Y168638D01*
X126487Y175738D01*
X126507Y175886D01*
X126385Y176811D01*
X126028Y177673D01*
X125460Y178413D01*
X124720Y178981D01*
X123858Y179338D01*
X122933Y179460D01*
X122008Y179338D01*
X121146Y178981D01*
X120406Y178413D01*
X119838Y177673D01*
X119481Y176811D01*
X119359Y175886D01*
X119481Y174961D01*
X119838Y174099D01*
X120406Y173359D01*
X121146Y172791D01*
X122008Y172434D01*
X122933Y172312D01*
X123081Y172332D01*
X130927Y164485D01*
X130810Y163896D01*
X130398Y163725D01*
X129658Y163157D01*
X129090Y162417D01*
X128733Y161555D01*
X128611Y160630D01*
X128733Y159705D01*
X129090Y158843D01*
X129658Y158103D01*
X130398Y157535D01*
X131260Y157178D01*
X132185Y157056D01*
X132333Y157076D01*
X148592Y140817D01*
X149374Y140295D01*
X150295Y140111D01*
X150290Y139613D01*
X136913D01*
X95487Y181039D01*
X95377Y181878D01*
X95040Y182692D01*
X94503Y183391D01*
X93804Y183927D01*
X92990Y184264D01*
X92116Y184379D01*
X91243Y184264D01*
X90491Y183953D01*
X89991Y184143D01*
X89991Y184143D01*
Y188329D01*
X90291Y188558D01*
X90827Y189257D01*
X91164Y190071D01*
X91279Y190945D01*
X91164Y191818D01*
X90827Y192632D01*
X90291Y193332D01*
X89592Y193868D01*
X88778Y194205D01*
X87904Y194320D01*
X87030Y194205D01*
X86216Y193868D01*
X85517Y193332D01*
X84981Y192632D01*
X84644Y191818D01*
X84529Y190945D01*
X84644Y190071D01*
X84981Y189257D01*
X85517Y188558D01*
X85817Y188329D01*
Y180879D01*
X85355Y180688D01*
X83604Y182438D01*
Y205957D01*
X83904Y206187D01*
X84440Y206886D01*
X84777Y207700D01*
X84892Y208574D01*
X84777Y209447D01*
X84440Y210261D01*
X83904Y210960D01*
X83205Y211497D01*
X82390Y211834D01*
X81517Y211949D01*
X80643Y211834D01*
X79829Y211497D01*
X79130Y210960D01*
X78594Y210261D01*
X78257Y209447D01*
X78142Y208574D01*
X78257Y207700D01*
X78594Y206886D01*
X79130Y206187D01*
X79430Y205957D01*
Y181710D01*
X78980Y181453D01*
X76244Y184188D01*
Y207532D01*
X76543Y207762D01*
X77080Y208461D01*
X77417Y209275D01*
X77532Y210148D01*
X77417Y211022D01*
X77080Y211836D01*
X76543Y212535D01*
X75844Y213071D01*
X75030Y213409D01*
X74156Y213524D01*
X73283Y213409D01*
X72469Y213071D01*
X71770Y212535D01*
X71233Y211836D01*
X70896Y211022D01*
X70781Y210148D01*
X70896Y209275D01*
X71233Y208461D01*
X71770Y207762D01*
X72069Y207532D01*
Y183324D01*
X72228Y182525D01*
X72681Y181848D01*
X113632Y140896D01*
X127776Y126752D01*
X128453Y126300D01*
X129252Y126141D01*
X172705D01*
X172705Y79035D01*
X172828Y78421D01*
X173176Y77900D01*
X173697Y77552D01*
X174311Y77430D01*
X175318D01*
Y54839D01*
X167943Y47465D01*
X151644D01*
X86906Y112202D01*
X86331Y112644D01*
X85660Y112921D01*
X84941Y113016D01*
X77695D01*
X77595Y113516D01*
X78066Y113711D01*
X78765Y114247D01*
X79301Y114946D01*
X79638Y115760D01*
X79753Y116634D01*
X79638Y117508D01*
X79301Y118322D01*
X78765Y119021D01*
X78066Y119557D01*
X77252Y119894D01*
X76378Y120009D01*
X75504Y119894D01*
X74690Y119557D01*
X74020Y119042D01*
X68205D01*
X67534Y119557D01*
X66720Y119894D01*
X65847Y120009D01*
X64973Y119894D01*
X64159Y119557D01*
X63460Y119021D01*
X62923Y118322D01*
X62586Y117508D01*
X62471Y116634D01*
X62586Y115760D01*
X62923Y114946D01*
X63460Y114247D01*
X64159Y113711D01*
X64629Y113516D01*
X64530Y113016D01*
X53223D01*
X53202Y113044D01*
X52379Y113675D01*
X51421Y114072D01*
X50394Y114207D01*
X49366Y114072D01*
X48408Y113675D01*
X47586Y113044D01*
X46955Y112222D01*
X46558Y111264D01*
X46423Y110236D01*
X46558Y109209D01*
X46955Y108251D01*
X47586Y107428D01*
X48408Y106797D01*
X49366Y106401D01*
X50394Y106265D01*
X51421Y106401D01*
X52379Y106797D01*
X53202Y107428D01*
X53223Y107457D01*
X74929D01*
X75224Y106957D01*
X74988Y106385D01*
X74873Y105512D01*
X74988Y104638D01*
X75325Y103824D01*
X75861Y103125D01*
X76560Y102589D01*
X77374Y102252D01*
X78213Y102141D01*
X81072Y99281D01*
X81854Y98759D01*
X82776Y98576D01*
X86994D01*
X89422Y96148D01*
Y90020D01*
X89304Y89929D01*
X88736Y89188D01*
X88379Y88327D01*
X88257Y87402D01*
X88379Y86477D01*
X88736Y85615D01*
X88990Y85283D01*
X88743Y84783D01*
X41951Y84783D01*
X33208Y93525D01*
Y117618D01*
X33053Y118800D01*
X32596Y119901D01*
X31871Y120847D01*
X31521Y121116D01*
Y126475D01*
X31936Y126753D01*
X32146Y126666D01*
X32480Y126622D01*
Y131004D01*
Y135386D01*
X32146Y135342D01*
X31936Y135255D01*
X31521Y135533D01*
Y146160D01*
X31936Y146438D01*
X32146Y146351D01*
X32480Y146307D01*
Y150689D01*
Y155071D01*
X32146Y155027D01*
X31936Y154940D01*
X31521Y155218D01*
Y158342D01*
X33110D01*
X33855Y158440D01*
X34296Y158622D01*
X36870D01*
Y163819D01*
X34296D01*
X33855Y164001D01*
X33110Y164099D01*
X30315D01*
X29570Y164001D01*
X28875Y163714D01*
X28279Y163256D01*
X26606Y161583D01*
X26149Y160987D01*
X25861Y160292D01*
X25763Y159547D01*
Y158203D01*
X25347Y157926D01*
X25210Y157982D01*
X24311Y158101D01*
X23031D01*
Y154626D01*
Y151151D01*
X24311D01*
X25210Y151270D01*
X25347Y151327D01*
X25763Y151049D01*
Y130644D01*
X25347Y130367D01*
X25210Y130423D01*
X24311Y130542D01*
X23031D01*
Y127067D01*
Y123592D01*
X24311D01*
X25210Y123711D01*
X25347Y123767D01*
X25763Y123490D01*
Y121116D01*
X25413Y120847D01*
X24687Y119901D01*
X24231Y118800D01*
X24075Y117618D01*
Y91634D01*
X24231Y90452D01*
X24687Y89351D01*
X25413Y88405D01*
X36830Y76987D01*
X37776Y76262D01*
X38877Y75805D01*
X40059Y75650D01*
X93975Y75650D01*
X135157Y34468D01*
X136102Y33742D01*
X137204Y33286D01*
X138386Y33130D01*
X181496D01*
X182678Y33286D01*
X183779Y33742D01*
X184725Y34468D01*
X192501Y42243D01*
X193227Y43189D01*
X193683Y44291D01*
X193838Y45472D01*
Y79921D01*
X193683Y81103D01*
X193227Y82205D01*
X192501Y83150D01*
X191555Y83876D01*
X190454Y84332D01*
X189272Y84488D01*
X188090Y84332D01*
X186988Y83876D01*
X186043Y83150D01*
X185317Y82205D01*
X184861Y81103D01*
X184705Y79921D01*
Y47364D01*
X179604Y42263D01*
X171287D01*
X171126Y42587D01*
X171104Y42764D01*
X180063Y51722D01*
X180505Y52298D01*
X180782Y52969D01*
X180877Y53688D01*
Y83147D01*
X186388Y88657D01*
X188353D01*
X188764Y88342D01*
X189626Y87985D01*
X190551Y87863D01*
X191476Y87985D01*
X192338Y88342D01*
X193078Y88910D01*
X193646Y89650D01*
X194003Y90512D01*
X194125Y91437D01*
X194003Y92362D01*
X193646Y93224D01*
X193428Y93508D01*
X193649Y93957D01*
X196850D01*
Y89705D01*
X196024D01*
Y80768D01*
X210669D01*
X210698Y80279D01*
Y51284D01*
X189760Y30345D01*
X129039D01*
X107448Y51937D01*
X106708Y52504D01*
X105846Y52861D01*
X104921Y52983D01*
X44870D01*
X44123Y52885D01*
X41507D01*
X40760Y52983D01*
X24217D01*
X20011Y57189D01*
Y111319D01*
X19889Y112244D01*
X19532Y113106D01*
X19415Y113258D01*
Y123325D01*
X19915Y123679D01*
X20571Y123592D01*
X21850D01*
Y127067D01*
Y130542D01*
X20571D01*
X19915Y130455D01*
X19415Y130809D01*
Y150884D01*
X19915Y151238D01*
X20571Y151151D01*
X21850D01*
Y154626D01*
Y158101D01*
X20571D01*
X19915Y158014D01*
X19415Y158368D01*
Y168898D01*
X19415Y168898D01*
X19314Y169668D01*
X19016Y170387D01*
X18543Y171004D01*
X18543Y171004D01*
X13320Y176227D01*
X13295Y176417D01*
X12938Y177279D01*
X12370Y178019D01*
X9184Y181205D01*
Y204789D01*
X9547Y205087D01*
X31496D01*
X31496Y205087D01*
X32111Y205209D01*
X32631Y205557D01*
X36614Y209540D01*
X41532Y204623D01*
X42053Y204275D01*
X42667Y204152D01*
X42857Y204190D01*
X42864Y204183D01*
X42875Y204193D01*
X43282Y204275D01*
X43803Y204623D01*
X51824Y212644D01*
X52172Y213165D01*
X52253Y213572D01*
X52264Y213583D01*
X52257Y213590D01*
X52295Y213779D01*
X52172Y214394D01*
X51824Y214915D01*
X47149Y219590D01*
X57382Y229823D01*
X57382Y244488D01*
X59350D01*
Y249016D01*
Y253543D01*
X57382D01*
X57382Y305709D01*
X109941Y305709D01*
X109941Y290158D01*
X107973D01*
Y285630D01*
Y281102D01*
X110630D01*
X125591Y266142D01*
X122785Y263337D01*
X131102Y255020D01*
X134566Y258484D01*
X137358Y256102D01*
X154934Y256102D01*
X166993Y268799D01*
X168079D01*
X168079Y223917D01*
X168202Y223303D01*
X168550Y222782D01*
X168550Y222782D01*
X176962Y214370D01*
X172388Y209797D01*
X172040Y209276D01*
X171918Y208661D01*
X172040Y208047D01*
X172388Y207526D01*
X172388Y207526D01*
X178146Y201768D01*
X178667Y201420D01*
X179281Y201298D01*
X179896Y201420D01*
X180417Y201768D01*
X185604Y206955D01*
X189390Y203169D01*
X189911Y202821D01*
X190013Y202801D01*
X190698Y202115D01*
X211417Y222835D01*
Y223425D01*
X213386D01*
Y227953D01*
Y232480D01*
X211417D01*
X211417Y305355D01*
X211771Y305708D01*
X375000Y305610D01*
X375000Y352657D01*
X687106Y352658D01*
X687513Y352658D01*
D02*
G37*
G36*
X165748Y305709D02*
Y278346D01*
X165748Y269820D01*
X154244Y257708D01*
X137950Y257708D01*
X135609Y259705D01*
X135390Y259828D01*
X135181Y259967D01*
X135118Y259980D01*
X135062Y260011D01*
X134813Y260040D01*
X134566Y260089D01*
X134503Y260077D01*
X134440Y260084D01*
X134198Y260016D01*
X133952Y259967D01*
X133899Y259931D01*
X133837Y259914D01*
X133640Y259759D01*
X133431Y259619D01*
X131102Y257290D01*
X125056Y263337D01*
X126726Y265006D01*
X126726Y265006D01*
X127074Y265527D01*
X127196Y266142D01*
X127074Y266756D01*
X126726Y267277D01*
X113363Y280641D01*
X113554Y281102D01*
X114272D01*
Y285630D01*
X114862D01*
D01*
X114272D01*
Y290158D01*
X112303D01*
Y305709D01*
X139370Y305709D01*
X165748Y305709D01*
D02*
G37*
G36*
X209055Y232480D02*
X207087D01*
Y227953D01*
Y223425D01*
X208231D01*
X208646Y222425D01*
X198721Y212500D01*
X190525Y204305D01*
X185604Y209226D01*
X179281Y202904D01*
X173524Y208661D01*
X179232Y214370D01*
X169685Y223917D01*
X169685Y305709D01*
X209055Y305709D01*
X209055Y232480D01*
D02*
G37*
G36*
X184002Y151818D02*
X184427Y151455D01*
X184902Y151164D01*
X185417Y150950D01*
X185960Y150820D01*
X186516Y150776D01*
X187072Y150820D01*
X187614Y150950D01*
X188129Y151164D01*
X188605Y151455D01*
X189029Y151818D01*
X189057Y151850D01*
X189557Y151666D01*
Y147343D01*
X189597Y146937D01*
X189690Y146632D01*
X189663Y146604D01*
X189264Y146351D01*
X188949Y146609D01*
X188590Y146801D01*
X188200Y146919D01*
X187795Y146959D01*
Y148327D01*
X177953D01*
Y144783D01*
X176772D01*
Y148327D01*
X174311D01*
Y152115D01*
X183748D01*
X184002Y151818D01*
D02*
G37*
G36*
X331859Y133362D02*
X331650Y133090D01*
X331214Y132036D01*
X331065Y130905D01*
X331214Y129775D01*
X331650Y128721D01*
X332282Y127898D01*
X332232Y127571D01*
X332132Y127350D01*
X332020Y127324D01*
X324899Y134446D01*
X324323Y134888D01*
X323653Y135165D01*
X322933Y135260D01*
X316929D01*
X316210Y135165D01*
X315539Y134888D01*
X314964Y134446D01*
X311914Y131397D01*
X311414Y131604D01*
Y150840D01*
X311442Y150861D01*
X311978Y151560D01*
X312315Y152374D01*
X312431Y153248D01*
X312315Y154122D01*
X311978Y154936D01*
X311442Y155635D01*
X310743Y156171D01*
X309929Y156508D01*
X309055Y156623D01*
X308182Y156508D01*
X307927Y156403D01*
X307511Y156681D01*
Y161418D01*
X307511Y161418D01*
X307389Y162032D01*
X307041Y162553D01*
X307041Y162553D01*
X306962Y163088D01*
X314309Y170435D01*
X331859D01*
Y133362D01*
D02*
G37*
G36*
X211024Y116642D02*
X211024Y116142D01*
X207874D01*
Y112598D01*
X206693D01*
Y116142D01*
X204104D01*
Y120651D01*
X204331Y120856D01*
X211024D01*
Y116642D01*
D02*
G37*
G36*
X445246Y122313D02*
X446027Y121791D01*
X446949Y121607D01*
X447249D01*
X447477Y121107D01*
X447077Y120585D01*
X446740Y119771D01*
X446625Y118898D01*
X446740Y118024D01*
X447077Y117210D01*
X447613Y116511D01*
X448312Y115974D01*
X449126Y115637D01*
X449678Y115565D01*
X449761Y115482D01*
Y112499D01*
Y109547D01*
Y106636D01*
X446852D01*
X446850Y106637D01*
X443373D01*
X443182Y107098D01*
X444340Y108257D01*
X444488Y108237D01*
X445413Y108359D01*
X446275Y108716D01*
X447015Y109284D01*
X447583Y110024D01*
X447940Y110886D01*
X448062Y111811D01*
X447940Y112736D01*
X447583Y113598D01*
X447015Y114338D01*
X446275Y114906D01*
X445413Y115263D01*
X444488Y115385D01*
X443563Y115263D01*
X443103Y115073D01*
X442635Y115420D01*
X442755Y116634D01*
X442603Y118177D01*
X442152Y119662D01*
X441421Y121030D01*
X440437Y122229D01*
X439238Y123213D01*
X437870Y123944D01*
X436386Y124394D01*
X434842Y124546D01*
X433299Y124394D01*
X431815Y123944D01*
X430447Y123213D01*
X429248Y122229D01*
X428264Y121030D01*
X427533Y119662D01*
X427082Y118177D01*
X426930Y116634D01*
X427082Y115090D01*
X427533Y113606D01*
X428264Y112238D01*
X429248Y111039D01*
X430447Y110055D01*
X430859Y109835D01*
X430737Y109350D01*
X428150D01*
Y106397D01*
X431890D01*
Y105807D01*
X432480D01*
Y102200D01*
X432772Y101763D01*
X432566Y101267D01*
X432451Y100394D01*
X432566Y99520D01*
X432708Y99178D01*
X432430Y98762D01*
X425510D01*
X418550Y105722D01*
Y124016D01*
X418424Y124651D01*
X418780Y125151D01*
X442408D01*
X445246Y122313D01*
D02*
G37*
G36*
X470809Y104554D02*
X471653Y104386D01*
X472498Y104554D01*
X472638Y104647D01*
X472777Y104554D01*
X473587Y104393D01*
X473747Y103584D01*
X473841Y103444D01*
X473747Y103305D01*
X473580Y102460D01*
X473747Y101615D01*
X473841Y101476D01*
X473747Y101336D01*
X473580Y100491D01*
X473747Y99647D01*
X473841Y99507D01*
X473747Y99368D01*
X473580Y98523D01*
X473747Y97678D01*
X473841Y97539D01*
X473747Y97399D01*
X473678Y97052D01*
X473144Y96927D01*
X472958Y97170D01*
X472259Y97707D01*
X471445Y98044D01*
X470571Y98159D01*
X469697Y98044D01*
X468883Y97707D01*
X468184Y97170D01*
X467648Y96471D01*
X467310Y95657D01*
X467196Y94784D01*
X467310Y93910D01*
X467648Y93096D01*
X468184Y92397D01*
X468883Y91860D01*
X469697Y91523D01*
X470571Y91408D01*
X470794Y91438D01*
X471176Y91056D01*
X471892Y90578D01*
X472737Y90410D01*
X473627D01*
X473747Y89804D01*
X473841Y89665D01*
X473747Y89525D01*
X473580Y88680D01*
X473747Y87836D01*
X473841Y87696D01*
X473747Y87557D01*
X473580Y86712D01*
X473747Y85867D01*
X473841Y85728D01*
X473747Y85588D01*
X473580Y84743D01*
X473747Y83899D01*
X473841Y83759D01*
X473747Y83620D01*
X473587Y82810D01*
X472777Y82649D01*
X472638Y82556D01*
X472498Y82649D01*
X471653Y82817D01*
X470809Y82649D01*
X470669Y82556D01*
X470530Y82649D01*
X469685Y82817D01*
X468840Y82649D01*
X468701Y82556D01*
X468561Y82649D01*
X467716Y82817D01*
X466872Y82649D01*
X466732Y82556D01*
X466593Y82649D01*
X465748Y82817D01*
X464903Y82649D01*
X464764Y82556D01*
X464624Y82649D01*
X463779Y82817D01*
X462934Y82649D01*
X462795Y82556D01*
X462656Y82649D01*
X461811Y82817D01*
X460966Y82649D01*
X460827Y82556D01*
X460687Y82649D01*
X459842Y82817D01*
X458997Y82649D01*
X458858Y82556D01*
X458719Y82649D01*
X457874Y82817D01*
X457029Y82649D01*
X456890Y82556D01*
X456750Y82649D01*
X455905Y82817D01*
X455060Y82649D01*
X454921Y82556D01*
X454782Y82649D01*
X453937Y82817D01*
X453092Y82649D01*
X452953Y82556D01*
X452813Y82649D01*
X452004Y82810D01*
X451843Y83620D01*
X451750Y83759D01*
X451843Y83899D01*
X452011Y84743D01*
X451843Y85588D01*
X451750Y85728D01*
X451843Y85867D01*
X452011Y86712D01*
X451843Y87557D01*
X451750Y87696D01*
X451843Y87836D01*
X452011Y88680D01*
X451843Y89525D01*
X451750Y89665D01*
X451843Y89804D01*
X452011Y90649D01*
X451843Y91494D01*
X451750Y91633D01*
X451843Y91773D01*
X452011Y92617D01*
X451843Y93462D01*
X451750Y93602D01*
X451843Y93741D01*
X452011Y94586D01*
X451843Y95431D01*
X451750Y95570D01*
X451843Y95710D01*
X452011Y96554D01*
X451843Y97399D01*
X451750Y97539D01*
X451843Y97678D01*
X452011Y98523D01*
X451843Y99368D01*
X451750Y99507D01*
X451843Y99647D01*
X452011Y100491D01*
X451843Y101336D01*
X451750Y101476D01*
X451843Y101615D01*
X452011Y102460D01*
X451843Y103305D01*
X451750Y103444D01*
X451843Y103584D01*
X452004Y104393D01*
X452813Y104554D01*
X452953Y104647D01*
X453092Y104554D01*
X453937Y104386D01*
X454782Y104554D01*
X454921Y104647D01*
X455060Y104554D01*
X455905Y104386D01*
X456750Y104554D01*
X456890Y104647D01*
X457029Y104554D01*
X457874Y104386D01*
X458719Y104554D01*
X458858Y104647D01*
X458997Y104554D01*
X459842Y104386D01*
X460687Y104554D01*
X460827Y104647D01*
X460966Y104554D01*
X461811Y104386D01*
X462656Y104554D01*
X462795Y104647D01*
X462934Y104554D01*
X463779Y104386D01*
X464624Y104554D01*
X464764Y104647D01*
X464903Y104554D01*
X465748Y104386D01*
X466593Y104554D01*
X466732Y104647D01*
X466872Y104554D01*
X467716Y104386D01*
X468561Y104554D01*
X468701Y104647D01*
X468840Y104554D01*
X469685Y104386D01*
X470530Y104554D01*
X470669Y104647D01*
X470809Y104554D01*
D02*
G37*
G36*
X193958Y126045D02*
X194086Y125687D01*
Y123754D01*
X194125Y123353D01*
X194242Y122968D01*
X194432Y122612D01*
X194688Y122301D01*
X195000Y122045D01*
X195355Y121855D01*
X195740Y121738D01*
X196000Y121712D01*
X196039Y121220D01*
X192311Y117492D01*
X192053Y117177D01*
X191861Y116818D01*
X191743Y116429D01*
X191714Y116142D01*
X187402D01*
Y112598D01*
X186811D01*
Y112008D01*
X183071D01*
Y109055D01*
Y106496D01*
X186811D01*
Y105315D01*
X183071D01*
Y102894D01*
X182835D01*
Y93957D01*
X183173D01*
X183358Y93457D01*
X183282Y93392D01*
X176143Y86253D01*
X175861Y85923D01*
X175634Y85553D01*
X175468Y85152D01*
X175367Y84731D01*
X175333Y84298D01*
Y79035D01*
X174311D01*
X174311Y126171D01*
X192790D01*
X192805Y126173D01*
X193600D01*
X193958Y126045D01*
D02*
G37*
G36*
X352446Y109282D02*
X353260Y108944D01*
X353856Y108866D01*
X354134Y108829D01*
X354252Y108341D01*
X354203Y107972D01*
X354318Y107099D01*
X354656Y106285D01*
X354862Y106015D01*
X354733Y105532D01*
X354611Y105482D01*
X353912Y104946D01*
X353376Y104247D01*
X353039Y103433D01*
X352924Y102559D01*
X353039Y101686D01*
X353376Y100871D01*
X353891Y100201D01*
Y86319D01*
X354074Y85397D01*
X354596Y84616D01*
X367413Y71799D01*
X367233Y71272D01*
X367007Y71242D01*
X365906Y70785D01*
X364960Y70060D01*
X364234Y69114D01*
X363778Y68013D01*
X363622Y66831D01*
X363778Y65649D01*
X364234Y64547D01*
X364960Y63602D01*
X365906Y62876D01*
X367007Y62420D01*
X368189Y62264D01*
X369371Y62420D01*
X370472Y62876D01*
X371418Y63602D01*
X372144Y64547D01*
X372600Y65649D01*
X372756Y66831D01*
X372600Y68013D01*
X372144Y69114D01*
X371418Y70060D01*
X370951Y70418D01*
X371121Y70918D01*
X375257D01*
X375427Y70418D01*
X374960Y70060D01*
X374234Y69114D01*
X373778Y68013D01*
X373622Y66831D01*
X373778Y65649D01*
X374234Y64547D01*
X374960Y63602D01*
X375906Y62876D01*
X377007Y62420D01*
X378189Y62264D01*
X379371Y62420D01*
X380472Y62876D01*
X381418Y63602D01*
X382144Y64547D01*
X382600Y65649D01*
X382756Y66831D01*
X382600Y68013D01*
X382144Y69114D01*
X381418Y70060D01*
X380951Y70418D01*
X381121Y70918D01*
X385257D01*
X385427Y70418D01*
X384960Y70060D01*
X384234Y69114D01*
X383778Y68013D01*
X383622Y66831D01*
X383778Y65649D01*
X384234Y64547D01*
X384960Y63602D01*
X385906Y62876D01*
X387007Y62420D01*
X388189Y62264D01*
X389371Y62420D01*
X390472Y62876D01*
X391418Y63602D01*
X392144Y64547D01*
X392600Y65649D01*
X392756Y66831D01*
X392600Y68013D01*
X392144Y69114D01*
X391418Y70060D01*
X390951Y70418D01*
X391121Y70918D01*
X395257D01*
X395427Y70418D01*
X394960Y70060D01*
X394234Y69114D01*
X393778Y68013D01*
X393700Y67421D01*
X402678D01*
X402600Y68013D01*
X402197Y68985D01*
X402621Y69268D01*
X417052Y54837D01*
X416769Y54413D01*
X416536Y54510D01*
X415354Y54665D01*
X414172Y54510D01*
X413071Y54053D01*
X412318Y53475D01*
X396088D01*
X395163Y53354D01*
X394301Y52997D01*
X393561Y52429D01*
X389588Y48456D01*
X346461D01*
X337580Y57337D01*
Y74807D01*
X337789Y75080D01*
X338225Y76133D01*
X338374Y77264D01*
X338225Y78394D01*
X337789Y79448D01*
X337095Y80352D01*
X336190Y81047D01*
X335137Y81483D01*
X334006Y81632D01*
X332875Y81483D01*
X331822Y81047D01*
X330917Y80352D01*
X330223Y79448D01*
X329787Y78394D01*
X329638Y77264D01*
X329787Y76133D01*
X330223Y75080D01*
X330432Y74807D01*
Y55856D01*
X330554Y54931D01*
X330911Y54069D01*
X331479Y53329D01*
X342453Y42355D01*
X343193Y41787D01*
X344055Y41430D01*
X344980Y41308D01*
X361943D01*
X362063Y40843D01*
X361105Y40447D01*
X360539Y40013D01*
X360039Y40259D01*
Y40551D01*
X345866D01*
Y40153D01*
X345512Y39800D01*
X343667Y39806D01*
X342948Y39714D01*
X342276Y39438D01*
X341699Y38998D01*
X330376Y27745D01*
X322268Y27771D01*
Y90529D01*
X339571D01*
X340241Y90015D01*
X341103Y89658D01*
X342028Y89536D01*
X342953Y89658D01*
X343814Y90015D01*
X344555Y90583D01*
X344937Y91081D01*
X345436Y90911D01*
X345384Y71358D01*
X343661D01*
Y62303D01*
X352716D01*
Y71358D01*
X351694D01*
X351341Y71712D01*
X351443Y109422D01*
X351943Y109668D01*
X352446Y109282D01*
D02*
G37*
G36*
X442520Y70866D02*
X446063D01*
X449606D01*
Y73442D01*
X450106Y73593D01*
X450407Y73143D01*
X451124Y72664D01*
X451968Y72496D01*
X452813Y72664D01*
X452953Y72758D01*
X453092Y72664D01*
X453698Y72544D01*
Y60236D01*
X453863Y59404D01*
X453878Y59315D01*
X453591Y58904D01*
X445289D01*
X440204Y63990D01*
Y74089D01*
X442520D01*
Y70866D01*
D02*
G37*
G36*
X451834Y53588D02*
X451495Y53328D01*
X450770Y52382D01*
X450313Y51280D01*
X450236Y50689D01*
X454724D01*
Y50098D01*
X455315D01*
Y45610D01*
X455906Y45687D01*
X457008Y46144D01*
X457820Y46767D01*
X458320Y46580D01*
Y39876D01*
X457861Y39416D01*
X410827D01*
Y40551D01*
X396654D01*
Y39788D01*
X395054D01*
X395032Y39816D01*
X394210Y40447D01*
X393252Y40843D01*
X392224Y40979D01*
X392204Y40976D01*
X392074Y41463D01*
X392855Y41787D01*
X393595Y42355D01*
X397568Y46328D01*
X412831D01*
X413071Y46144D01*
X414172Y45687D01*
X415354Y45532D01*
X416536Y45687D01*
X417638Y46144D01*
X418583Y46869D01*
X419309Y47815D01*
X419765Y48917D01*
X419921Y50098D01*
X419765Y51280D01*
X419669Y51513D01*
X420093Y51796D01*
X420765Y51124D01*
X420630Y50098D01*
X420786Y48917D01*
X421242Y47815D01*
X421968Y46869D01*
X422914Y46144D01*
X424015Y45687D01*
X425197Y45532D01*
X426379Y45687D01*
X427480Y46144D01*
X428426Y46869D01*
X429152Y47815D01*
X429608Y48917D01*
X429764Y50098D01*
X429608Y51280D01*
X429511Y51513D01*
X429935Y51796D01*
X430608Y51124D01*
X430473Y50098D01*
X430628Y48917D01*
X431085Y47815D01*
X431810Y46869D01*
X432756Y46144D01*
X433857Y45687D01*
X435039Y45532D01*
X436221Y45687D01*
X437323Y46144D01*
X438269Y46869D01*
X438994Y47815D01*
X439450Y48917D01*
X439606Y50098D01*
X439450Y51280D01*
X439354Y51513D01*
X439778Y51796D01*
X440450Y51124D01*
X440315Y50098D01*
X440471Y48917D01*
X440927Y47815D01*
X441653Y46869D01*
X442599Y46144D01*
X443700Y45687D01*
X444882Y45532D01*
X446064Y45687D01*
X447165Y46144D01*
X448111Y46869D01*
X448837Y47815D01*
X449293Y48917D01*
X449448Y50098D01*
X449293Y51280D01*
X448837Y52382D01*
X448111Y53328D01*
X447772Y53588D01*
X447942Y54088D01*
X451664D01*
X451834Y53588D01*
D02*
G37*
G36*
X487022Y25998D02*
X487738Y25519D01*
X488583Y25351D01*
X491136D01*
X491304Y24881D01*
X491011Y24640D01*
X490261Y23726D01*
X489703Y22683D01*
X489360Y21551D01*
X489244Y20374D01*
X489360Y19197D01*
X489703Y18065D01*
X490261Y17022D01*
X491011Y16108D01*
X491925Y15358D01*
X492968Y14800D01*
X494100Y14457D01*
X495277Y14341D01*
X496454Y14457D01*
X497448Y14759D01*
X497681Y14307D01*
X496969Y13761D01*
X496243Y12815D01*
X495787Y11713D01*
X495709Y11122D01*
X499608D01*
Y15020D01*
X499016Y14942D01*
X498555Y14751D01*
X498341Y15204D01*
X498629Y15358D01*
X499543Y16108D01*
X500293Y17022D01*
X500851Y18065D01*
X501194Y19197D01*
X501310Y20374D01*
X501194Y21551D01*
X500851Y22683D01*
X500293Y23726D01*
X499543Y24640D01*
X499250Y24881D01*
X499418Y25351D01*
X518695D01*
X518863Y24881D01*
X518570Y24640D01*
X517820Y23726D01*
X517262Y22683D01*
X516919Y21551D01*
X516803Y20374D01*
X516919Y19197D01*
X517262Y18065D01*
X517820Y17022D01*
X518570Y16108D01*
X519484Y15358D01*
X519772Y15204D01*
X519558Y14751D01*
X519097Y14942D01*
X518505Y15020D01*
Y11122D01*
X522403D01*
X522326Y11713D01*
X521869Y12815D01*
X521144Y13761D01*
X520432Y14307D01*
X520664Y14759D01*
X521659Y14457D01*
X522836Y14341D01*
X524013Y14457D01*
X525145Y14800D01*
X526188Y15358D01*
X526320Y15466D01*
X526772Y15252D01*
Y11220D01*
Y6538D01*
X520969D01*
X520800Y7039D01*
X521144Y7302D01*
X521869Y8248D01*
X522326Y9350D01*
X522403Y9941D01*
X513426D01*
X513504Y9350D01*
X513960Y8248D01*
X514685Y7302D01*
X515029Y7039D01*
X514860Y6538D01*
X503253D01*
X503083Y7039D01*
X503427Y7302D01*
X504153Y8248D01*
X504609Y9350D01*
X504687Y9941D01*
X495709D01*
X495787Y9350D01*
X496243Y8248D01*
X496969Y7302D01*
X497313Y7039D01*
X497143Y6538D01*
X470866D01*
Y8858D01*
Y16339D01*
X469531D01*
Y19488D01*
X469363Y20333D01*
X468884Y21049D01*
X467998Y21935D01*
X467282Y22414D01*
X466437Y22582D01*
X463872D01*
X463841Y22683D01*
X463284Y23726D01*
X462534Y24640D01*
X461620Y25390D01*
X460576Y25948D01*
X459445Y26291D01*
X458268Y26407D01*
X457091Y26291D01*
X455959Y25948D01*
X454916Y25390D01*
X454002Y24640D01*
X453252Y23726D01*
X452694Y22683D01*
X452351Y21551D01*
X452235Y20374D01*
X452351Y19197D01*
X452694Y18065D01*
X453252Y17022D01*
X454002Y16108D01*
X454916Y15358D01*
X455204Y15204D01*
X454990Y14751D01*
X454528Y14942D01*
X453937Y15020D01*
Y11122D01*
X457835D01*
X457758Y11713D01*
X457301Y12815D01*
X456576Y13761D01*
X455864Y14307D01*
X456096Y14759D01*
X457091Y14457D01*
X458268Y14341D01*
X459445Y14457D01*
X460576Y14800D01*
X461620Y15358D01*
X462534Y16108D01*
X463284Y17022D01*
X463841Y18065D01*
X463872Y18166D01*
X465115D01*
Y16339D01*
X463779D01*
Y8858D01*
Y2173D01*
X463761Y1673D01*
X350946D01*
X350700Y2173D01*
X350984Y2543D01*
X351360Y3453D01*
X351489Y4429D01*
X351360Y5406D01*
X350984Y6315D01*
X350384Y7097D01*
X349603Y7696D01*
X348693Y8073D01*
X347716Y8202D01*
X346740Y8073D01*
X345830Y7696D01*
X345049Y7097D01*
X344449Y6315D01*
X344073Y5406D01*
X343944Y4429D01*
X344073Y3453D01*
X344449Y2543D01*
X344733Y2173D01*
X344487Y1673D01*
X340946D01*
X340700Y2173D01*
X340984Y2543D01*
X341360Y3453D01*
X341489Y4429D01*
X341360Y5406D01*
X340984Y6315D01*
X340384Y7097D01*
X339603Y7696D01*
X338693Y8073D01*
X337717Y8202D01*
X336740Y8073D01*
X335830Y7696D01*
X335195Y7209D01*
X326222D01*
X325587Y7696D01*
X324677Y8073D01*
X323701Y8202D01*
X322724Y8073D01*
X321815Y7696D01*
X321208Y7231D01*
X316362Y12077D01*
Y21730D01*
X316862Y21977D01*
X317404Y21561D01*
X318362Y21164D01*
X319390Y21029D01*
X320417Y21164D01*
X321375Y21561D01*
X322198Y22192D01*
X322213Y22211D01*
X331510Y22182D01*
X332230Y22275D01*
X332901Y22550D01*
X333478Y22990D01*
X344801Y34243D01*
X345866Y34240D01*
Y33465D01*
X360039D01*
Y33756D01*
X360539Y34003D01*
X361105Y33569D01*
X362063Y33172D01*
X363091Y33037D01*
X364118Y33172D01*
X365076Y33569D01*
X365898Y34200D01*
X365920Y34228D01*
X374828D01*
X374850Y34200D01*
X375672Y33569D01*
X376630Y33172D01*
X377658Y33037D01*
X378685Y33172D01*
X379643Y33569D01*
X380465Y34200D01*
X380487Y34228D01*
X389395D01*
X389417Y34200D01*
X390239Y33569D01*
X391197Y33172D01*
X392224Y33037D01*
X393252Y33172D01*
X394210Y33569D01*
X395032Y34200D01*
X395054Y34228D01*
X396654D01*
Y33465D01*
X410827D01*
Y34599D01*
X458858D01*
X459780Y34783D01*
X460561Y35305D01*
X462431Y37175D01*
X462954Y37956D01*
X463137Y38878D01*
Y49229D01*
X463599Y49421D01*
X487022Y25998D01*
D02*
G37*
G36*
X13041Y112380D02*
X12985Y112244D01*
X12863Y111319D01*
Y55709D01*
X12985Y54784D01*
X13342Y53922D01*
X13910Y53182D01*
X20209Y46882D01*
X20949Y46314D01*
X21811Y45957D01*
X22736Y45836D01*
X40110D01*
X40858Y45737D01*
X44772D01*
X45520Y45836D01*
X103441D01*
X125032Y24245D01*
X125772Y23677D01*
X126634Y23320D01*
X127559Y23198D01*
X191240D01*
X192165Y23320D01*
X193027Y23677D01*
X193767Y24245D01*
X214468Y44945D01*
X214930Y44754D01*
Y1673D01*
X214430Y1673D01*
X90941D01*
Y15846D01*
X90879Y16154D01*
X90706Y16414D01*
X90445Y16588D01*
X90138Y16649D01*
X80925D01*
X80618Y16588D01*
X80532Y16530D01*
X80445Y16588D01*
X80138Y16649D01*
X70925D01*
X70618Y16588D01*
X70531Y16530D01*
X70445Y16588D01*
X70138Y16649D01*
X60925D01*
X60618Y16588D01*
X60357Y16414D01*
X60184Y16154D01*
X60122Y15846D01*
Y1673D01*
X5116D01*
X4728Y1674D01*
X3968Y1826D01*
X3252Y2123D01*
X2607Y2554D01*
X2059Y3103D01*
X1629Y3748D01*
X1332Y4465D01*
X1181Y5225D01*
X1181Y5613D01*
X1174Y112442D01*
X1528Y112795D01*
X12763D01*
X13041Y112380D01*
D02*
G37*
%LPC*%
G36*
X48754Y346811D02*
X42677D01*
Y340735D01*
X43399Y340806D01*
X44660Y341188D01*
X45823Y341810D01*
X46842Y342646D01*
X47679Y343665D01*
X48300Y344828D01*
X48683Y346090D01*
X48754Y346811D01*
D02*
G37*
G36*
X21496D02*
X15419D01*
X15491Y346090D01*
X15873Y344828D01*
X16495Y343665D01*
X17331Y342646D01*
X18350Y341810D01*
X19513Y341188D01*
X20775Y340806D01*
X21496Y340735D01*
Y346811D01*
D02*
G37*
G36*
X42677Y334069D02*
Y327992D01*
X48754D01*
X48683Y328714D01*
X48300Y329975D01*
X47679Y331138D01*
X46842Y332157D01*
X45823Y332993D01*
X44660Y333615D01*
X43399Y333998D01*
X42677Y334069D01*
D02*
G37*
G36*
X21496D02*
X20775Y333998D01*
X19513Y333615D01*
X18350Y332993D01*
X17331Y332157D01*
X16495Y331138D01*
X15873Y329975D01*
X15491Y328714D01*
X15419Y327992D01*
X21496D01*
Y334069D01*
D02*
G37*
G36*
X48754Y326811D02*
X42677D01*
Y320735D01*
X43399Y320806D01*
X44660Y321188D01*
X45823Y321810D01*
X46842Y322646D01*
X47679Y323665D01*
X48300Y324828D01*
X48683Y326090D01*
X48754Y326811D01*
D02*
G37*
G36*
X41496D02*
X35419D01*
X35491Y326090D01*
X35873Y324828D01*
X36495Y323665D01*
X37331Y322646D01*
X38350Y321810D01*
X39513Y321188D01*
X40775Y320806D01*
X41496Y320735D01*
Y326811D01*
D02*
G37*
G36*
X28754D02*
X22677D01*
Y320735D01*
X23399Y320806D01*
X24660Y321188D01*
X25823Y321810D01*
X26842Y322646D01*
X27678Y323665D01*
X28300Y324828D01*
X28683Y326090D01*
X28754Y326811D01*
D02*
G37*
G36*
X21496D02*
X15419D01*
X15491Y326090D01*
X15873Y324828D01*
X16495Y323665D01*
X17331Y322646D01*
X18350Y321810D01*
X19513Y321188D01*
X20775Y320806D01*
X21496Y320735D01*
Y326811D01*
D02*
G37*
G36*
X51870Y253543D02*
X48327D01*
Y249606D01*
X51870D01*
Y253543D01*
D02*
G37*
G36*
Y248425D02*
X48327D01*
Y244488D01*
X51870D01*
Y248425D01*
D02*
G37*
G36*
X560728Y325787D02*
X557776D01*
Y322638D01*
X560728D01*
Y325787D01*
D02*
G37*
G36*
X556595D02*
X553642D01*
Y322638D01*
X556595D01*
Y325787D01*
D02*
G37*
G36*
X575630Y323304D02*
Y317618D01*
X581315D01*
X581309Y317734D01*
X581190Y318431D01*
X580995Y319111D01*
X580724Y319765D01*
X580381Y320384D01*
X579972Y320961D01*
X579501Y321489D01*
X578973Y321960D01*
X578396Y322370D01*
X577777Y322712D01*
X577123Y322983D01*
X576443Y323179D01*
X575746Y323297D01*
X575630Y323304D01*
D02*
G37*
G36*
X574449D02*
X574333Y323297D01*
X573635Y323179D01*
X572956Y322983D01*
X572302Y322712D01*
X571683Y322370D01*
X571106Y321960D01*
X570578Y321489D01*
X570107Y320961D01*
X569697Y320384D01*
X569355Y319765D01*
X569084Y319111D01*
X568888Y318431D01*
X568770Y317734D01*
X568763Y317618D01*
X574449D01*
Y323304D01*
D02*
G37*
G36*
X581315Y316437D02*
X575630D01*
Y310752D01*
X575746Y310758D01*
X576443Y310877D01*
X577123Y311072D01*
X577777Y311343D01*
X578396Y311685D01*
X578973Y312095D01*
X579501Y312566D01*
X579972Y313094D01*
X580381Y313671D01*
X580724Y314290D01*
X580995Y314944D01*
X581190Y315624D01*
X581309Y316321D01*
X581315Y316437D01*
D02*
G37*
G36*
X574449D02*
X568763D01*
X568770Y316321D01*
X568888Y315624D01*
X569084Y314944D01*
X569355Y314290D01*
X569697Y313671D01*
X570107Y313094D01*
X570578Y312566D01*
X571106Y312095D01*
X571683Y311685D01*
X572302Y311343D01*
X572956Y311072D01*
X573635Y310877D01*
X574333Y310758D01*
X574449Y310752D01*
Y316437D01*
D02*
G37*
G36*
X595039Y323337D02*
X594333Y323297D01*
X593636Y323179D01*
X592956Y322983D01*
X592302Y322712D01*
X591683Y322370D01*
X591106Y321960D01*
X590578Y321489D01*
X590107Y320961D01*
X589697Y320384D01*
X589355Y319765D01*
X589084Y319111D01*
X588888Y318431D01*
X588770Y317734D01*
X588730Y317028D01*
X588770Y316321D01*
X588848Y315862D01*
X579904Y306919D01*
X579859Y306866D01*
X579371Y306430D01*
X578780Y306011D01*
X578147Y305661D01*
X577478Y305384D01*
X576782Y305183D01*
X576069Y305062D01*
X575415Y305025D01*
X575346Y305031D01*
X560728D01*
Y311614D01*
Y318307D01*
Y321457D01*
X553642D01*
Y318307D01*
Y311614D01*
Y305031D01*
X519265D01*
X519101Y305174D01*
X518607Y305504D01*
X518075Y305767D01*
X517513Y305958D01*
X516931Y306073D01*
X516339Y306112D01*
X515746Y306073D01*
X515164Y305958D01*
X514602Y305767D01*
X514070Y305504D01*
X513577Y305174D01*
X513130Y304783D01*
X512739Y304337D01*
X512409Y303843D01*
X512147Y303311D01*
X511956Y302749D01*
X511840Y302167D01*
X511801Y301575D01*
X511840Y300983D01*
X511956Y300400D01*
X512147Y299838D01*
X512409Y299306D01*
X512739Y298813D01*
X513130Y298366D01*
X513577Y297975D01*
X514070Y297645D01*
X514602Y297383D01*
X515164Y297192D01*
X515746Y297076D01*
X516339Y297038D01*
X516931Y297076D01*
X517513Y297192D01*
X518075Y297383D01*
X518607Y297645D01*
X519021Y297922D01*
X553642D01*
Y297736D01*
X560728D01*
Y297922D01*
X575346D01*
X575359Y297923D01*
X576409Y297964D01*
X577466Y298090D01*
X578510Y298297D01*
X579534Y298586D01*
X580533Y298954D01*
X581499Y299400D01*
X582428Y299920D01*
X583313Y300511D01*
X584149Y301170D01*
X584921Y301884D01*
X584930Y301892D01*
X593874Y310836D01*
X594333Y310758D01*
X595039Y310718D01*
X595746Y310758D01*
X596443Y310877D01*
X597123Y311072D01*
X597777Y311343D01*
X598396Y311685D01*
X598973Y312095D01*
X599501Y312566D01*
X599972Y313094D01*
X600382Y313671D01*
X600724Y314290D01*
X600994Y314944D01*
X601190Y315624D01*
X601309Y316321D01*
X601348Y317028D01*
X601309Y317734D01*
X601190Y318431D01*
X600994Y319111D01*
X600724Y319765D01*
X600382Y320384D01*
X599972Y320961D01*
X599501Y321489D01*
X598973Y321960D01*
X598396Y322370D01*
X597777Y322712D01*
X597123Y322983D01*
X596443Y323179D01*
X595746Y323297D01*
X595039Y323337D01*
D02*
G37*
G36*
X456193Y319105D02*
X421408D01*
X421398Y319105D01*
X420433Y319063D01*
X419466Y318935D01*
X418513Y318724D01*
X417583Y318431D01*
X416682Y318057D01*
X415816Y317607D01*
X414994Y317083D01*
X414220Y316489D01*
X413501Y315830D01*
X412842Y315111D01*
X412248Y314337D01*
X411724Y313514D01*
X411273Y312649D01*
X410900Y311748D01*
X410606Y310817D01*
X410478Y310236D01*
X410039D01*
Y303150D01*
Y296850D01*
X410039D01*
Y293898D01*
X413779D01*
Y293307D01*
X414370D01*
Y289764D01*
X417939D01*
Y281454D01*
X417810Y281390D01*
X417316Y281060D01*
X416870Y280669D01*
X416479Y280223D01*
X416149Y279729D01*
X415887Y279197D01*
X415696Y278635D01*
X415580Y278053D01*
X415541Y277461D01*
X415580Y276868D01*
X415696Y276286D01*
X415887Y275724D01*
X416149Y275192D01*
X416479Y274698D01*
X416870Y274252D01*
X417316Y273861D01*
X417810Y273531D01*
X418342Y273269D01*
X418904Y273078D01*
X419486Y272962D01*
X420079Y272923D01*
X420671Y272962D01*
X421253Y273078D01*
X421815Y273269D01*
X422347Y273531D01*
X422841Y273861D01*
X423287Y274252D01*
X423678Y274698D01*
X424008Y275192D01*
X424270Y275724D01*
X424461Y276286D01*
X424577Y276868D01*
X424616Y277461D01*
X424577Y278053D01*
X424461Y278635D01*
X424270Y279197D01*
X424008Y279729D01*
X423678Y280223D01*
X423287Y280669D01*
X422841Y281060D01*
X422611Y281213D01*
Y289764D01*
X424212D01*
Y296457D01*
X424212D01*
Y303150D01*
X431685D01*
Y281988D01*
X429330D01*
Y272933D01*
X438386D01*
Y281988D01*
X436819D01*
Y303150D01*
X437992D01*
Y304175D01*
X450499D01*
X450769Y303688D01*
X451148Y303154D01*
X451583Y302666D01*
X452071Y302230D01*
X452605Y301852D01*
X453177Y301535D01*
X453782Y301285D01*
X454411Y301104D01*
X455056Y300994D01*
X455709Y300957D01*
X456362Y300994D01*
X457007Y301104D01*
X457635Y301285D01*
X458240Y301535D01*
X458813Y301852D01*
X459346Y302230D01*
X459834Y302666D01*
X460270Y303154D01*
X460648Y303688D01*
X460965Y304260D01*
X461215Y304865D01*
X461396Y305493D01*
X461506Y306138D01*
X461543Y306791D01*
X461506Y307445D01*
X461396Y308089D01*
X461215Y308718D01*
X461061Y309092D01*
X461484Y309375D01*
X463314Y307545D01*
X463297Y307445D01*
X463261Y306791D01*
X463297Y306138D01*
X463407Y305493D01*
X463588Y304865D01*
X463838Y304260D01*
X464155Y303688D01*
X464533Y303154D01*
X464969Y302666D01*
X465457Y302230D01*
X465991Y301852D01*
X466563Y301535D01*
X467168Y301285D01*
X467796Y301104D01*
X468441Y300994D01*
X469095Y300957D01*
X469748Y300994D01*
X470393Y301104D01*
X471021Y301285D01*
X471626Y301535D01*
X472198Y301852D01*
X472732Y302230D01*
X473220Y302666D01*
X473656Y303154D01*
X473715Y303237D01*
X487295D01*
X487364Y303242D01*
X488018Y303206D01*
X488731Y303085D01*
X489427Y302884D01*
X490096Y302607D01*
X490729Y302257D01*
X491320Y301838D01*
X491808Y301402D01*
X491853Y301349D01*
X492126Y301076D01*
Y297047D01*
X501181D01*
Y306102D01*
X497153D01*
X496879Y306376D01*
X496869Y306384D01*
X496097Y307098D01*
X495261Y307757D01*
X494377Y308348D01*
X493448Y308868D01*
X492482Y309313D01*
X491483Y309682D01*
X490459Y309971D01*
X489415Y310178D01*
X488358Y310303D01*
X487308Y310345D01*
X487295Y310346D01*
X473715D01*
X473656Y310429D01*
X473220Y310917D01*
X472732Y311353D01*
X472198Y311731D01*
X471626Y312048D01*
X471021Y312298D01*
X470393Y312479D01*
X469748Y312589D01*
X469095Y312625D01*
X468441Y312589D01*
X468341Y312572D01*
X465777Y315136D01*
X465767Y315144D01*
X464995Y315858D01*
X464159Y316516D01*
X463274Y317108D01*
X462346Y317628D01*
X461379Y318073D01*
X460381Y318442D01*
X459357Y318730D01*
X458313Y318938D01*
X457256Y319063D01*
X456206Y319104D01*
X456193Y319105D01*
D02*
G37*
G36*
X462992Y297592D02*
Y292382D01*
X468202D01*
X468199Y292445D01*
X468089Y293090D01*
X467908Y293718D01*
X467658Y294323D01*
X467341Y294895D01*
X466963Y295429D01*
X466527Y295917D01*
X466039Y296353D01*
X465506Y296731D01*
X464933Y297048D01*
X464328Y297298D01*
X463700Y297479D01*
X463055Y297589D01*
X462992Y297592D01*
D02*
G37*
G36*
X461811D02*
X461748Y297589D01*
X461103Y297479D01*
X460475Y297298D01*
X459870Y297048D01*
X459298Y296731D01*
X458764Y296353D01*
X458276Y295917D01*
X457840Y295429D01*
X457462Y294895D01*
X457145Y294323D01*
X456895Y293718D01*
X456714Y293090D01*
X456604Y292445D01*
X456601Y292382D01*
X461811D01*
Y297592D01*
D02*
G37*
G36*
X413189Y292717D02*
X410039D01*
Y289764D01*
X413189D01*
Y292717D01*
D02*
G37*
G36*
X468202Y291201D02*
X462992D01*
Y285991D01*
X463055Y285994D01*
X463700Y286104D01*
X464328Y286285D01*
X464933Y286535D01*
X465506Y286852D01*
X466039Y287230D01*
X466527Y287666D01*
X466963Y288154D01*
X467341Y288687D01*
X467658Y289260D01*
X467908Y289864D01*
X468089Y290493D01*
X468199Y291138D01*
X468202Y291201D01*
D02*
G37*
G36*
X461811D02*
X456601D01*
X456604Y291138D01*
X456714Y290493D01*
X456895Y289864D01*
X457145Y289260D01*
X457462Y288687D01*
X457840Y288154D01*
X458276Y287666D01*
X458764Y287230D01*
X459298Y286852D01*
X459870Y286535D01*
X460475Y286285D01*
X461103Y286104D01*
X461748Y285994D01*
X461811Y285991D01*
Y291201D01*
D02*
G37*
G36*
X475787Y297625D02*
X475134Y297589D01*
X474489Y297479D01*
X473861Y297298D01*
X473256Y297048D01*
X472684Y296731D01*
X472150Y296353D01*
X471662Y295917D01*
X471226Y295429D01*
X470848Y294895D01*
X470531Y294323D01*
X470281Y293718D01*
X470100Y293090D01*
X469990Y292445D01*
X469953Y291791D01*
X469990Y291138D01*
X470100Y290493D01*
X470281Y289864D01*
X470531Y289260D01*
X470848Y288687D01*
X471226Y288154D01*
X471662Y287666D01*
X472150Y287230D01*
X472684Y286852D01*
X473256Y286535D01*
X473861Y286285D01*
X474489Y286104D01*
X475134Y285994D01*
X475787Y285957D01*
X476441Y285994D01*
X477086Y286104D01*
X477714Y286285D01*
X478319Y286535D01*
X478891Y286852D01*
X479425Y287230D01*
X479913Y287666D01*
X480349Y288154D01*
X480727Y288687D01*
X481044Y289260D01*
X481294Y289864D01*
X481475Y290493D01*
X481585Y291138D01*
X481621Y291791D01*
X481585Y292445D01*
X481475Y293090D01*
X481294Y293718D01*
X481044Y294323D01*
X480727Y294895D01*
X480349Y295429D01*
X479913Y295917D01*
X479425Y296353D01*
X478891Y296731D01*
X478319Y297048D01*
X477714Y297298D01*
X477086Y297479D01*
X476441Y297589D01*
X475787Y297625D01*
D02*
G37*
G36*
X449016D02*
X448363Y297589D01*
X447718Y297479D01*
X447089Y297298D01*
X446485Y297048D01*
X445912Y296731D01*
X445378Y296353D01*
X444890Y295917D01*
X444455Y295429D01*
X444076Y294895D01*
X443759Y294323D01*
X443509Y293718D01*
X443328Y293090D01*
X443219Y292445D01*
X443182Y291791D01*
X443219Y291138D01*
X443328Y290493D01*
X443509Y289864D01*
X443759Y289260D01*
X444076Y288687D01*
X444455Y288154D01*
X444890Y287666D01*
X445378Y287230D01*
X445912Y286852D01*
X446485Y286535D01*
X447089Y286285D01*
X447718Y286104D01*
X448363Y285994D01*
X449016Y285957D01*
X449669Y285994D01*
X450314Y286104D01*
X450943Y286285D01*
X451547Y286535D01*
X452120Y286852D01*
X452653Y287230D01*
X453141Y287666D01*
X453577Y288154D01*
X453956Y288687D01*
X454272Y289260D01*
X454522Y289864D01*
X454704Y290493D01*
X454813Y291138D01*
X454850Y291791D01*
X454813Y292445D01*
X454704Y293090D01*
X454522Y293718D01*
X454272Y294323D01*
X453956Y294895D01*
X453577Y295429D01*
X453141Y295917D01*
X452653Y296353D01*
X452120Y296731D01*
X451547Y297048D01*
X450943Y297298D01*
X450314Y297479D01*
X449669Y297589D01*
X449016Y297625D01*
D02*
G37*
G36*
X212106Y149016D02*
X208957D01*
Y146063D01*
X212106D01*
Y146063D01*
X212598Y146044D01*
Y144095D01*
X215551D01*
Y147244D01*
X212598D01*
Y147244D01*
X212106Y147263D01*
Y149016D01*
D02*
G37*
G36*
X303386Y107421D02*
X300157D01*
Y103543D01*
X303386D01*
Y107421D01*
D02*
G37*
G36*
X231693Y108366D02*
X223425D01*
Y100098D01*
X231693D01*
Y108366D01*
D02*
G37*
G36*
X303386Y102362D02*
X300157D01*
Y98484D01*
X303386D01*
Y102362D01*
D02*
G37*
G36*
X291634Y107490D02*
X284646D01*
X284053Y107451D01*
X283471Y107335D01*
X282909Y107145D01*
X282377Y106882D01*
X281884Y106552D01*
X281437Y106161D01*
X281046Y105715D01*
X280716Y105221D01*
X280454Y104689D01*
X280263Y104127D01*
X280147Y103545D01*
X280108Y102953D01*
X280147Y102360D01*
X280263Y101778D01*
X280454Y101216D01*
X280716Y100684D01*
X281046Y100191D01*
X281437Y99744D01*
X281884Y99353D01*
X282377Y99023D01*
X282909Y98761D01*
X283471Y98570D01*
X284053Y98454D01*
X284646Y98415D01*
X291634D01*
X292226Y98454D01*
X292377Y98484D01*
X298976D01*
Y102953D01*
Y107421D01*
X292377D01*
X292226Y107451D01*
X291634Y107490D01*
D02*
G37*
G36*
X227559Y98532D02*
X227018Y98497D01*
X226487Y98391D01*
X225974Y98217D01*
X225488Y97978D01*
X225037Y97676D01*
X224630Y97319D01*
X224272Y96912D01*
X223971Y96461D01*
X223732Y95975D01*
X223557Y95462D01*
X223452Y94930D01*
X223416Y94390D01*
X223452Y93849D01*
X223557Y93318D01*
X223732Y92804D01*
X223971Y92318D01*
X224272Y91868D01*
X224630Y91460D01*
X225037Y91103D01*
X225488Y90802D01*
X225974Y90562D01*
X226487Y90388D01*
X227018Y90282D01*
X227559Y90247D01*
X228100Y90282D01*
X228631Y90388D01*
X229144Y90562D01*
X229630Y90802D01*
X230081Y91103D01*
X230488Y91460D01*
X230846Y91868D01*
X231147Y92318D01*
X231386Y92804D01*
X231561Y93318D01*
X231666Y93849D01*
X231702Y94390D01*
X231666Y94930D01*
X231561Y95462D01*
X231386Y95975D01*
X231147Y96461D01*
X230846Y96912D01*
X230488Y97319D01*
X230081Y97676D01*
X229630Y97978D01*
X229144Y98217D01*
X228631Y98391D01*
X228100Y98497D01*
X227559Y98532D01*
D02*
G37*
G36*
X223228Y89075D02*
X220276D01*
Y85925D01*
X223228D01*
Y89075D01*
D02*
G37*
G36*
X257480Y61131D02*
X256840Y61095D01*
X256208Y60988D01*
X255592Y60810D01*
X255000Y60565D01*
X254438Y60255D01*
X253916Y59884D01*
X253437Y59456D01*
X253010Y58978D01*
X252639Y58455D01*
X252329Y57894D01*
X252084Y57302D01*
X251906Y56686D01*
X251799Y56054D01*
X251763Y55413D01*
Y49508D01*
X251799Y48868D01*
X251906Y48236D01*
X252084Y47620D01*
X252329Y47027D01*
X252639Y46466D01*
X253010Y45943D01*
X253437Y45465D01*
X253916Y45038D01*
X254438Y44667D01*
X255000Y44357D01*
X255592Y44111D01*
X256208Y43934D01*
X256840Y43826D01*
X257480Y43790D01*
X258120Y43826D01*
X258753Y43934D01*
X259369Y44111D01*
X259961Y44357D01*
X260522Y44667D01*
X261045Y45038D01*
X261523Y45465D01*
X261951Y45943D01*
X262322Y46466D01*
X262632Y47027D01*
X262877Y47620D01*
X263055Y48236D01*
X263162Y48868D01*
X263198Y49508D01*
Y55413D01*
X263162Y56054D01*
X263055Y56686D01*
X262877Y57302D01*
X262632Y57894D01*
X262322Y58455D01*
X261951Y58978D01*
X261523Y59456D01*
X261045Y59884D01*
X260522Y60255D01*
X259961Y60565D01*
X259369Y60810D01*
X258753Y60988D01*
X258120Y61095D01*
X257480Y61131D01*
D02*
G37*
G36*
X292913Y44792D02*
X292295Y44758D01*
X291685Y44654D01*
X291090Y44482D01*
X290518Y44245D01*
X289976Y43946D01*
X289471Y43588D01*
X289010Y43175D01*
X288597Y42714D01*
X288239Y42209D01*
X287940Y41667D01*
X287703Y41095D01*
X287531Y40500D01*
X287428Y39890D01*
X287393Y39272D01*
Y35335D01*
X287428Y34717D01*
X287531Y34106D01*
X287703Y33511D01*
X287940Y32939D01*
X288239Y32398D01*
X288597Y31893D01*
X289010Y31431D01*
X289359Y31119D01*
Y22244D01*
X289370Y22106D01*
Y18504D01*
Y16142D01*
X296457D01*
Y18504D01*
Y22104D01*
X296468Y22244D01*
Y31119D01*
X296817Y31431D01*
X297230Y31893D01*
X297588Y32398D01*
X297887Y32939D01*
X298124Y33511D01*
X298295Y34106D01*
X298399Y34717D01*
X298434Y35335D01*
Y39272D01*
X298399Y39890D01*
X298295Y40500D01*
X298124Y41095D01*
X297887Y41667D01*
X297588Y42209D01*
X297230Y42714D01*
X296817Y43175D01*
X296355Y43588D01*
X295850Y43946D01*
X295309Y44245D01*
X294737Y44482D01*
X294142Y44654D01*
X293531Y44758D01*
X292913Y44792D01*
D02*
G37*
G36*
X296457Y14961D02*
X293504D01*
Y11811D01*
X296457D01*
Y14961D01*
D02*
G37*
G36*
X292323D02*
X289370D01*
Y11811D01*
X292323D01*
Y14961D01*
D02*
G37*
G36*
X278346Y13099D02*
X276969D01*
Y8169D01*
X283834D01*
X283832Y8197D01*
X283729Y8807D01*
X283557Y9402D01*
X283320Y9974D01*
X283021Y10516D01*
X282663Y11021D01*
X282250Y11482D01*
X281788Y11895D01*
X281284Y12253D01*
X280742Y12553D01*
X280170Y12789D01*
X279575Y12961D01*
X278965Y13065D01*
X278346Y13099D01*
D02*
G37*
G36*
X275787D02*
X274410D01*
X273791Y13065D01*
X273181Y12961D01*
X272586Y12789D01*
X272014Y12553D01*
X271472Y12253D01*
X270968Y11895D01*
X270506Y11482D01*
X270093Y11021D01*
X269735Y10516D01*
X269436Y9974D01*
X269199Y9402D01*
X269027Y8807D01*
X268924Y8197D01*
X268922Y8169D01*
X275787D01*
Y13099D01*
D02*
G37*
G36*
X239961Y14478D02*
X234055D01*
X233415Y14442D01*
X232783Y14334D01*
X232167Y14157D01*
X231574Y13911D01*
X231013Y13601D01*
X230490Y13230D01*
X230012Y12803D01*
X229585Y12325D01*
X229214Y11802D01*
X228904Y11241D01*
X228658Y10648D01*
X228481Y10032D01*
X228374Y9400D01*
X228338Y8760D01*
X228374Y8120D01*
X228481Y7488D01*
X228658Y6871D01*
X228904Y6279D01*
X229214Y5718D01*
X229585Y5195D01*
X230012Y4717D01*
X230490Y4290D01*
X231013Y3919D01*
X231574Y3608D01*
X232167Y3363D01*
X232783Y3186D01*
X233415Y3078D01*
X234055Y3042D01*
X239961D01*
X240601Y3078D01*
X241233Y3186D01*
X241849Y3363D01*
X242442Y3608D01*
X243003Y3919D01*
X243526Y4290D01*
X244004Y4717D01*
X244431Y5195D01*
X244802Y5718D01*
X245112Y6279D01*
X245357Y6871D01*
X245535Y7488D01*
X245642Y8120D01*
X245678Y8760D01*
X245642Y9400D01*
X245535Y10032D01*
X245357Y10648D01*
X245112Y11241D01*
X244802Y11802D01*
X244431Y12325D01*
X244004Y12803D01*
X243526Y13230D01*
X243003Y13601D01*
X242442Y13911D01*
X241849Y14157D01*
X241233Y14334D01*
X240601Y14442D01*
X239961Y14478D01*
D02*
G37*
%LPD*%
G36*
X288740Y103543D02*
X292559D01*
Y102362D01*
X288740D01*
Y100021D01*
X284698D01*
X284263Y100050D01*
X283888Y100124D01*
X283525Y100248D01*
X283182Y100417D01*
X282863Y100630D01*
X282575Y100882D01*
X282323Y101170D01*
X282110Y101489D01*
X281940Y101832D01*
X281817Y102195D01*
X281743Y102571D01*
X281717Y102953D01*
X281743Y103335D01*
X281817Y103711D01*
X281940Y104073D01*
X282110Y104417D01*
X282323Y104735D01*
X282575Y105023D01*
X282863Y105276D01*
X283182Y105489D01*
X283525Y105658D01*
X283888Y105781D01*
X284263Y105856D01*
X284698Y105884D01*
X288740D01*
Y103543D01*
D02*
G37*
%LPC*%
G36*
X673228Y350837D02*
X670695Y350638D01*
X668225Y350045D01*
X665877Y349073D01*
X663711Y347745D01*
X661779Y346095D01*
X660129Y344163D01*
X658802Y341997D01*
X657829Y339649D01*
X657236Y337179D01*
X657037Y334646D01*
X657236Y332113D01*
X657829Y329642D01*
X658802Y327295D01*
X660129Y325129D01*
X661779Y323197D01*
X663711Y321546D01*
X665877Y320219D01*
X668225Y319247D01*
X670695Y318653D01*
X673228Y318454D01*
X675761Y318653D01*
X678232Y319247D01*
X680579Y320219D01*
X682746Y321546D01*
X684678Y323197D01*
X686328Y325129D01*
X687655Y327295D01*
X688627Y329642D01*
X689221Y332113D01*
X689420Y334646D01*
X689221Y337179D01*
X688627Y339649D01*
X687655Y341997D01*
X686328Y344163D01*
X684678Y346095D01*
X682746Y347745D01*
X680579Y349073D01*
X678232Y350045D01*
X675761Y350638D01*
X673228Y350837D01*
D02*
G37*
G36*
X645827Y323357D02*
X644592Y323236D01*
X643404Y322875D01*
X642310Y322290D01*
X641351Y321503D01*
X640564Y320544D01*
X639979Y319450D01*
X639619Y318262D01*
X639497Y317028D01*
X639619Y315793D01*
X639979Y314605D01*
X640564Y313511D01*
X641351Y312552D01*
X642310Y311765D01*
X643404Y311180D01*
X644592Y310820D01*
X645827Y310698D01*
X647062Y310820D01*
X648249Y311180D01*
X649343Y311765D01*
X650303Y312552D01*
X651090Y313511D01*
X651675Y314605D01*
X652035Y315793D01*
X652156Y317028D01*
X652035Y318262D01*
X651675Y319450D01*
X651090Y320544D01*
X650303Y321503D01*
X649343Y322290D01*
X648249Y322875D01*
X647062Y323236D01*
X645827Y323357D01*
D02*
G37*
G36*
X625827D02*
X624592Y323236D01*
X623405Y322875D01*
X622310Y322290D01*
X621351Y321503D01*
X620564Y320544D01*
X619979Y319450D01*
X619619Y318262D01*
X619497Y317028D01*
X619619Y315793D01*
X619979Y314605D01*
X620564Y313511D01*
X621351Y312552D01*
X622310Y311765D01*
X623405Y311180D01*
X624592Y310820D01*
X625827Y310698D01*
X627062Y310820D01*
X628249Y311180D01*
X629343Y311765D01*
X630302Y312552D01*
X631090Y313511D01*
X631675Y314605D01*
X632035Y315793D01*
X632156Y317028D01*
X632035Y318262D01*
X631675Y319450D01*
X631090Y320544D01*
X630302Y321503D01*
X629343Y322290D01*
X628249Y322875D01*
X627062Y323236D01*
X625827Y323357D01*
D02*
G37*
G36*
X368799Y302911D02*
Y299410D01*
X372300D01*
X372236Y299898D01*
X371820Y300904D01*
X371157Y301767D01*
X370293Y302430D01*
X369288Y302846D01*
X368799Y302911D01*
D02*
G37*
G36*
X367618Y302911D02*
X367129Y302846D01*
X366124Y302430D01*
X365260Y301767D01*
X364598Y300904D01*
X364181Y299898D01*
X364117Y299410D01*
X367618D01*
Y302911D01*
D02*
G37*
G36*
X372300Y298228D02*
X368209D01*
X364117D01*
X364181Y297740D01*
X364598Y296734D01*
X365260Y295871D01*
X365641Y295579D01*
X365471Y295079D01*
X364075D01*
Y286811D01*
X372342D01*
Y295079D01*
X370946D01*
X370777Y295579D01*
X371157Y295871D01*
X371820Y296734D01*
X372236Y297740D01*
X372300Y298228D01*
D02*
G37*
G36*
X573524Y290650D02*
X568930D01*
X569032Y289878D01*
X569557Y288609D01*
X570394Y287520D01*
X571483Y286683D01*
X572752Y286158D01*
X573524Y286056D01*
Y290650D01*
D02*
G37*
G36*
X579298D02*
X574705D01*
Y286056D01*
X575476Y286158D01*
X576745Y286683D01*
X577835Y287520D01*
X578671Y288609D01*
X579196Y289878D01*
X579298Y290650D01*
D02*
G37*
G36*
X89685Y294724D02*
X88503Y294568D01*
X87402Y294112D01*
X86456Y293387D01*
X85730Y292441D01*
X85274Y291339D01*
X85118Y290158D01*
X85274Y288976D01*
X85730Y287874D01*
X86456Y286928D01*
X87402Y286203D01*
X88503Y285747D01*
X89685Y285591D01*
X90867Y285747D01*
X91968Y286203D01*
X92914Y286928D01*
X93640Y287874D01*
X94096Y288976D01*
X94252Y290158D01*
X94096Y291339D01*
X93640Y292441D01*
X92914Y293387D01*
X91968Y294112D01*
X90867Y294568D01*
X89685Y294724D01*
D02*
G37*
G36*
X584547Y286581D02*
Y281988D01*
X589140D01*
X589039Y282759D01*
X588513Y284028D01*
X587677Y285118D01*
X586587Y285954D01*
X585318Y286480D01*
X584547Y286581D01*
D02*
G37*
G36*
X583366Y286581D02*
X582595Y286480D01*
X581326Y285954D01*
X580236Y285118D01*
X579400Y284028D01*
X578874Y282759D01*
X578773Y281988D01*
X583366D01*
Y286581D01*
D02*
G37*
G36*
X298622Y285391D02*
Y281890D01*
X302123D01*
X302059Y282378D01*
X301642Y283384D01*
X300980Y284247D01*
X300116Y284910D01*
X299111Y285327D01*
X298622Y285391D01*
D02*
G37*
G36*
X297441D02*
X296952Y285327D01*
X295947Y284910D01*
X295083Y284247D01*
X294421Y283384D01*
X294004Y282378D01*
X293940Y281890D01*
X297441D01*
Y285391D01*
D02*
G37*
G36*
X104213Y294685D02*
X95157D01*
Y285630D01*
X103248D01*
Y281102D01*
X106791D01*
Y285630D01*
Y290158D01*
X104213D01*
Y294685D01*
D02*
G37*
G36*
X302123Y280709D02*
X298622D01*
Y277207D01*
X299111Y277272D01*
X300116Y277688D01*
X300980Y278351D01*
X301642Y279215D01*
X302059Y280220D01*
X302123Y280709D01*
D02*
G37*
G36*
X297441D02*
X293940D01*
X294004Y280220D01*
X294421Y279215D01*
X295083Y278351D01*
X295947Y277688D01*
X296952Y277272D01*
X297441Y277207D01*
Y280709D01*
D02*
G37*
G36*
X312008Y285433D02*
X303740D01*
Y277165D01*
X312008D01*
Y285433D01*
D02*
G37*
G36*
X583366Y280807D02*
X578773D01*
X578874Y280036D01*
X579400Y278767D01*
X580236Y277677D01*
X581326Y276841D01*
X582595Y276315D01*
X583366Y276214D01*
Y280807D01*
D02*
G37*
G36*
X589140D02*
X584547D01*
Y276214D01*
X585318Y276315D01*
X586587Y276841D01*
X587677Y277677D01*
X588513Y278767D01*
X589039Y280036D01*
X589140Y280807D01*
D02*
G37*
G36*
X599016Y276771D02*
X588583D01*
Y266338D01*
X599016D01*
Y276771D01*
D02*
G37*
G36*
X574114Y276817D02*
X572752Y276637D01*
X571483Y276112D01*
X570394Y275275D01*
X569557Y274186D01*
X569032Y272917D01*
X568853Y271555D01*
X569032Y270193D01*
X569557Y268924D01*
X570394Y267834D01*
X571483Y266998D01*
X572752Y266473D01*
X574114Y266293D01*
X575476Y266473D01*
X576745Y266998D01*
X577835Y267834D01*
X578671Y268924D01*
X579196Y270193D01*
X579376Y271555D01*
X579196Y272917D01*
X578671Y274186D01*
X577835Y275275D01*
X576745Y276112D01*
X575476Y276637D01*
X574114Y276817D01*
D02*
G37*
G36*
X584547Y266896D02*
Y262303D01*
X589140D01*
X589039Y263074D01*
X588513Y264343D01*
X587677Y265433D01*
X586587Y266269D01*
X585318Y266795D01*
X584547Y266896D01*
D02*
G37*
G36*
X583366Y266896D02*
X582595Y266795D01*
X581326Y266269D01*
X580236Y265433D01*
X579400Y264343D01*
X578874Y263074D01*
X578773Y262303D01*
X583366D01*
Y266896D01*
D02*
G37*
G36*
Y261122D02*
X578773D01*
X578874Y260351D01*
X579400Y259082D01*
X580236Y257992D01*
X581326Y257156D01*
X582595Y256630D01*
X583366Y256529D01*
Y261122D01*
D02*
G37*
G36*
X589140D02*
X584547D01*
Y256529D01*
X585318Y256630D01*
X586587Y257156D01*
X587677Y257992D01*
X588513Y259082D01*
X589039Y260351D01*
X589140Y261122D01*
D02*
G37*
G36*
X64075Y253543D02*
X60532D01*
Y249606D01*
X64075D01*
Y253543D01*
D02*
G37*
G36*
X481102Y252812D02*
Y249311D01*
X484604D01*
X484539Y249800D01*
X484123Y250805D01*
X483460Y251669D01*
X482597Y252331D01*
X481591Y252748D01*
X481102Y252812D01*
D02*
G37*
G36*
X479921D02*
X479433Y252748D01*
X478427Y252331D01*
X477563Y251669D01*
X476901Y250805D01*
X476484Y249800D01*
X476420Y249311D01*
X479921D01*
Y252812D01*
D02*
G37*
G36*
X484604Y248130D02*
X481102D01*
Y244629D01*
X481591Y244693D01*
X482597Y245110D01*
X483460Y245772D01*
X484123Y246636D01*
X484539Y247641D01*
X484604Y248130D01*
D02*
G37*
G36*
X479921D02*
X476420D01*
X476484Y247641D01*
X476901Y246636D01*
X477563Y245772D01*
X478427Y245110D01*
X479433Y244693D01*
X479921Y244629D01*
Y248130D01*
D02*
G37*
G36*
X494488Y252854D02*
X486221D01*
Y244587D01*
X494488D01*
Y252854D01*
D02*
G37*
G36*
X64075Y248425D02*
X60532D01*
Y244488D01*
X64075D01*
Y248425D01*
D02*
G37*
G36*
X236221Y270123D02*
X233996Y269948D01*
X231827Y269427D01*
X229766Y268573D01*
X227864Y267407D01*
X226167Y265958D01*
X224719Y264262D01*
X223553Y262360D01*
X222699Y260299D01*
X222179Y258130D01*
X222003Y255906D01*
X222179Y253681D01*
X222699Y251512D01*
X223553Y249451D01*
X224719Y247549D01*
X226167Y245852D01*
X227864Y244404D01*
X229766Y243238D01*
X231827Y242384D01*
X233996Y241863D01*
X236221Y241688D01*
X238444Y241863D01*
X240614Y242384D01*
X242675Y243238D01*
X244577Y244404D01*
X246273Y245852D01*
X247722Y247549D01*
X248888Y249451D01*
X249742Y251512D01*
X250262Y253681D01*
X250437Y255906D01*
X250262Y258130D01*
X249742Y260299D01*
X248888Y262360D01*
X247722Y264262D01*
X246273Y265958D01*
X244577Y267407D01*
X242675Y268573D01*
X240614Y269427D01*
X238444Y269948D01*
X236221Y270123D01*
D02*
G37*
G36*
X665945Y235099D02*
Y231201D01*
X669843D01*
X669765Y231792D01*
X669309Y232894D01*
X668583Y233839D01*
X667638Y234565D01*
X666536Y235021D01*
X665945Y235099D01*
D02*
G37*
G36*
X664764Y235099D02*
X664172Y235021D01*
X663071Y234565D01*
X662125Y233839D01*
X661400Y232894D01*
X660943Y231792D01*
X660865Y231201D01*
X664764D01*
Y235099D01*
D02*
G37*
G36*
X218110Y232480D02*
X214567D01*
Y228543D01*
X218110D01*
Y232480D01*
D02*
G37*
G36*
X664764Y230020D02*
X660865D01*
X660943Y229428D01*
X661400Y228327D01*
X662125Y227381D01*
X663071Y226655D01*
X664172Y226199D01*
X664764Y226121D01*
Y230020D01*
D02*
G37*
G36*
X669843D02*
X665945D01*
Y226121D01*
X666536Y226199D01*
X667638Y226655D01*
X668583Y227381D01*
X669309Y228327D01*
X669765Y229428D01*
X669843Y230020D01*
D02*
G37*
G36*
X390650Y229387D02*
Y225886D01*
X394151D01*
X394087Y226374D01*
X393670Y227380D01*
X393007Y228244D01*
X392144Y228906D01*
X391138Y229323D01*
X390650Y229387D01*
D02*
G37*
G36*
X389469Y229387D02*
X388980Y229323D01*
X387974Y228906D01*
X387111Y228244D01*
X386448Y227380D01*
X386032Y226374D01*
X385967Y225886D01*
X389469D01*
Y229387D01*
D02*
G37*
G36*
X218110Y227362D02*
X214567D01*
Y223425D01*
X218110D01*
Y227362D01*
D02*
G37*
G36*
X389469Y224705D02*
X385967D01*
X386032Y224216D01*
X386448Y223211D01*
X387111Y222347D01*
X387974Y221684D01*
X388980Y221268D01*
X389469Y221203D01*
Y224705D01*
D02*
G37*
G36*
X394151D02*
X390650D01*
Y221203D01*
X391138Y221268D01*
X392144Y221684D01*
X393007Y222347D01*
X393670Y223211D01*
X394087Y224216D01*
X394151Y224705D01*
D02*
G37*
G36*
X485925Y221808D02*
Y218307D01*
X489426D01*
X489362Y218796D01*
X488946Y219801D01*
X488283Y220665D01*
X487419Y221327D01*
X486414Y221744D01*
X485925Y221808D01*
D02*
G37*
G36*
X484744Y221808D02*
X484256Y221744D01*
X483250Y221327D01*
X482386Y220665D01*
X481724Y219801D01*
X481307Y218796D01*
X481243Y218307D01*
X484744D01*
Y221808D01*
D02*
G37*
G36*
X489426Y217126D02*
X485925D01*
Y213625D01*
X486414Y213689D01*
X487419Y214106D01*
X488283Y214768D01*
X488946Y215632D01*
X489362Y216637D01*
X489426Y217126D01*
D02*
G37*
G36*
X484744D02*
X481243D01*
X481307Y216637D01*
X481724Y215632D01*
X482386Y214768D01*
X483250Y214106D01*
X484256Y213689D01*
X484744Y213625D01*
Y217126D01*
D02*
G37*
G36*
X489468Y212008D02*
X481201D01*
Y203740D01*
X489468D01*
Y212008D01*
D02*
G37*
G36*
X391142Y201336D02*
Y197835D01*
X394643D01*
X394579Y198323D01*
X394162Y199329D01*
X393499Y200192D01*
X392636Y200855D01*
X391630Y201272D01*
X391142Y201336D01*
D02*
G37*
G36*
X389961Y201336D02*
X389472Y201272D01*
X388466Y200855D01*
X387603Y200192D01*
X386940Y199329D01*
X386524Y198323D01*
X386459Y197835D01*
X389961D01*
Y201336D01*
D02*
G37*
G36*
X394643Y196653D02*
X391142D01*
Y193152D01*
X391630Y193217D01*
X392636Y193633D01*
X393499Y194296D01*
X394162Y195159D01*
X394579Y196165D01*
X394643Y196653D01*
D02*
G37*
G36*
X389961D02*
X386459D01*
X386524Y196165D01*
X386940Y195159D01*
X387603Y194296D01*
X388466Y193633D01*
X389472Y193217D01*
X389961Y193152D01*
Y196653D01*
D02*
G37*
G36*
X47819Y193254D02*
X47512Y193193D01*
X47251Y193019D01*
X47251Y193019D01*
X40570Y186338D01*
X40396Y186077D01*
X40335Y185770D01*
X40396Y185463D01*
X40570Y185203D01*
X40570Y185203D01*
X47251Y178521D01*
X47512Y178347D01*
X47819Y178286D01*
X48126Y178347D01*
X48387Y178521D01*
X48387Y178521D01*
X55068Y185203D01*
X55242Y185463D01*
X55303Y185770D01*
X55242Y186077D01*
X55068Y186338D01*
X55068Y186338D01*
X48387Y193019D01*
X48126Y193193D01*
X47819Y193254D01*
D02*
G37*
G36*
X429331Y185335D02*
X421063D01*
Y177067D01*
X422459D01*
X422629Y176567D01*
X422249Y176275D01*
X421586Y175412D01*
X421169Y174406D01*
X421105Y173917D01*
X425197D01*
X429289D01*
X429224Y174406D01*
X428808Y175412D01*
X428145Y176275D01*
X427765Y176567D01*
X427935Y177067D01*
X429331D01*
Y185335D01*
D02*
G37*
G36*
X429289Y172736D02*
X425787D01*
Y169235D01*
X426276Y169299D01*
X427282Y169716D01*
X428145Y170378D01*
X428808Y171242D01*
X429224Y172248D01*
X429289Y172736D01*
D02*
G37*
G36*
X424606D02*
X421105D01*
X421169Y172248D01*
X421586Y171242D01*
X422249Y170378D01*
X423112Y169716D01*
X424118Y169299D01*
X424606Y169235D01*
Y172736D01*
D02*
G37*
G36*
X33661Y155071D02*
Y151280D01*
X36645D01*
Y151575D01*
X36523Y152500D01*
X36166Y153362D01*
X35598Y154102D01*
X34858Y154670D01*
X33996Y155027D01*
X33661Y155071D01*
D02*
G37*
G36*
X44172Y164199D02*
X42283D01*
X41513Y164097D01*
X40841Y163819D01*
X38524D01*
Y158622D01*
X40841D01*
X41513Y158344D01*
X42283Y158242D01*
X42938D01*
X43085Y158096D01*
Y155240D01*
X42974Y155156D01*
X42280Y154251D01*
X41844Y153198D01*
X41695Y152067D01*
X41844Y150936D01*
X42280Y149883D01*
X42974Y148978D01*
X43879Y148284D01*
X44932Y147848D01*
X46063Y147699D01*
X47194Y147848D01*
X48247Y148284D01*
X49152Y148978D01*
X49846Y149883D01*
X50282Y150936D01*
X50431Y152067D01*
X50282Y153198D01*
X49846Y154251D01*
X49152Y155156D01*
X49041Y155240D01*
Y159329D01*
X49041Y159329D01*
X48940Y160100D01*
X48642Y160818D01*
X48169Y161435D01*
X48169Y161435D01*
X46278Y163326D01*
X46043Y163506D01*
Y163819D01*
X45614D01*
X44943Y164097D01*
X44172Y164199D01*
D02*
G37*
G36*
X36645Y150099D02*
X33661D01*
Y146307D01*
X33996Y146351D01*
X34858Y146708D01*
X35598Y147276D01*
X36166Y148016D01*
X36523Y148878D01*
X36645Y149803D01*
Y150099D01*
D02*
G37*
G36*
X665945Y145139D02*
Y141240D01*
X669843D01*
X669765Y141832D01*
X669309Y142933D01*
X668583Y143879D01*
X667638Y144604D01*
X666536Y145061D01*
X665945Y145139D01*
D02*
G37*
G36*
X664764D02*
X664172Y145061D01*
X663071Y144604D01*
X662125Y143879D01*
X661400Y142933D01*
X660943Y141832D01*
X660865Y141240D01*
X664764D01*
Y145139D01*
D02*
G37*
G36*
X669843Y140059D02*
X665945D01*
Y136161D01*
X666536Y136239D01*
X667638Y136695D01*
X668583Y137420D01*
X669309Y138366D01*
X669765Y139468D01*
X669843Y140059D01*
D02*
G37*
G36*
X664764D02*
X660865D01*
X660943Y139468D01*
X661400Y138366D01*
X662125Y137420D01*
X663071Y136695D01*
X664172Y136239D01*
X664764Y136161D01*
Y140059D01*
D02*
G37*
G36*
X645669Y236161D02*
X644487Y236005D01*
X643386Y235549D01*
X642850Y235138D01*
X641142D01*
Y231891D01*
X641103Y231594D01*
Y140650D01*
X641142Y140353D01*
Y136122D01*
X645372D01*
X645669Y136083D01*
X645966Y136122D01*
X650197D01*
Y140353D01*
X650236Y140650D01*
Y231594D01*
X650236Y231594D01*
X650197Y231891D01*
Y235138D01*
X648489D01*
X647953Y235549D01*
X646851Y236005D01*
X645669Y236161D01*
D02*
G37*
G36*
X374213Y146566D02*
X372982Y146445D01*
X371798Y146086D01*
X370707Y145502D01*
X369751Y144718D01*
X368966Y143762D01*
X368383Y142671D01*
X368024Y141487D01*
X367903Y140256D01*
X368024Y139025D01*
X368383Y137841D01*
X368966Y136750D01*
X369751Y135794D01*
X370707Y135009D01*
X371798Y134426D01*
X372982Y134067D01*
X374213Y133946D01*
X375444Y134067D01*
X376627Y134426D01*
X377718Y135009D01*
X378674Y135794D01*
X379459Y136750D01*
X380042Y137841D01*
X380401Y139025D01*
X380522Y140256D01*
X380401Y141487D01*
X380042Y142671D01*
X379459Y143762D01*
X378674Y144718D01*
X377718Y145502D01*
X376627Y146086D01*
X375444Y146445D01*
X374213Y146566D01*
D02*
G37*
G36*
X33661Y135386D02*
Y131595D01*
X36645D01*
Y131890D01*
X36523Y132815D01*
X36166Y133677D01*
X35598Y134417D01*
X34858Y134985D01*
X33996Y135342D01*
X33661Y135386D01*
D02*
G37*
G36*
X456693Y134252D02*
X453543D01*
Y131299D01*
X456693D01*
Y134252D01*
D02*
G37*
G36*
X503543Y133169D02*
X500394D01*
Y130216D01*
X503543D01*
Y133169D01*
D02*
G37*
G36*
X36645Y130413D02*
X33661D01*
Y126622D01*
X33996Y126666D01*
X34858Y127023D01*
X35598Y127591D01*
X36166Y128331D01*
X36523Y129193D01*
X36645Y130118D01*
Y130413D01*
D02*
G37*
G36*
X503543Y129035D02*
X500394D01*
Y126082D01*
X503543D01*
Y129035D01*
D02*
G37*
G36*
X476870Y129232D02*
X473917D01*
Y126082D01*
X476870D01*
Y129232D01*
D02*
G37*
G36*
X472736D02*
X469783D01*
Y126082D01*
X472736D01*
Y129232D01*
D02*
G37*
G36*
X557283Y121766D02*
X555955Y121591D01*
X554717Y121079D01*
X553654Y120263D01*
X552839Y119200D01*
X552326Y117962D01*
X552151Y116634D01*
X552326Y115305D01*
X552839Y114068D01*
X553654Y113005D01*
X554717Y112189D01*
X555955Y111676D01*
X557283Y111501D01*
X558612Y111676D01*
X559850Y112189D01*
X560913Y113005D01*
X561728Y114068D01*
X562241Y115305D01*
X562416Y116634D01*
X562241Y117962D01*
X561728Y119200D01*
X560913Y120263D01*
X559850Y121079D01*
X558612Y121591D01*
X557283Y121766D01*
D02*
G37*
G36*
X407283D02*
X405955Y121591D01*
X404717Y121079D01*
X403654Y120263D01*
X402839Y119200D01*
X402326Y117962D01*
X402151Y116634D01*
X402326Y115305D01*
X402839Y114068D01*
X403654Y113005D01*
X404717Y112189D01*
X405955Y111676D01*
X407283Y111501D01*
X408612Y111676D01*
X409850Y112189D01*
X410913Y113005D01*
X411728Y114068D01*
X412241Y115305D01*
X412416Y116634D01*
X412241Y117962D01*
X411728Y119200D01*
X410913Y120263D01*
X409850Y121079D01*
X408612Y121591D01*
X407283Y121766D01*
D02*
G37*
G36*
X489567Y113582D02*
X486417D01*
Y110629D01*
X489567D01*
Y113582D01*
D02*
G37*
G36*
X529724Y124546D02*
X528181Y124394D01*
X526697Y123944D01*
X525329Y123213D01*
X524130Y122229D01*
X523146Y121030D01*
X522415Y119662D01*
X521964Y118177D01*
X521812Y116634D01*
X521964Y115090D01*
X522415Y113606D01*
X523146Y112238D01*
X524130Y111039D01*
X525329Y110055D01*
X526697Y109324D01*
X528181Y108874D01*
X529724Y108722D01*
X531268Y108874D01*
X532752Y109324D01*
X534120Y110055D01*
X535319Y111039D01*
X536303Y112238D01*
X537034Y113606D01*
X537485Y115090D01*
X537637Y116634D01*
X537485Y118177D01*
X537034Y119662D01*
X536303Y121030D01*
X535319Y122229D01*
X534120Y123213D01*
X532752Y123944D01*
X531268Y124394D01*
X529724Y124546D01*
D02*
G37*
G36*
X590354Y117436D02*
X589026Y117261D01*
X587788Y116748D01*
X586725Y115932D01*
X585910Y114869D01*
X585397Y113631D01*
X585222Y112303D01*
X585397Y110975D01*
X585910Y109737D01*
X586725Y108674D01*
X587788Y107858D01*
X589026Y107345D01*
X590354Y107171D01*
X591683Y107345D01*
X592921Y107858D01*
X593984Y108674D01*
X594799Y109737D01*
X595312Y110975D01*
X595487Y112303D01*
X595312Y113631D01*
X594799Y114869D01*
X593984Y115932D01*
X592921Y116748D01*
X591683Y117261D01*
X590354Y117436D01*
D02*
G37*
G36*
X489567Y109448D02*
X486417D01*
Y106496D01*
X489567D01*
Y109448D01*
D02*
G37*
G36*
X114075Y127498D02*
X112944Y127349D01*
X111891Y126913D01*
X110986Y126219D01*
X110292Y125314D01*
X109856Y124260D01*
X109707Y123130D01*
X109856Y121999D01*
X110292Y120946D01*
X110986Y120041D01*
X111891Y119347D01*
X112944Y118911D01*
X114053Y118765D01*
X114258Y118607D01*
X115024Y118290D01*
X115847Y118182D01*
X151243D01*
X159815Y109609D01*
Y106079D01*
X159315Y105781D01*
X158748Y106016D01*
X157874Y106131D01*
X157000Y106016D01*
X156186Y105679D01*
X155487Y105143D01*
X154951Y104444D01*
X154614Y103630D01*
X154499Y102756D01*
X154614Y101882D01*
X154951Y101068D01*
X155487Y100369D01*
X155566Y100309D01*
Y73721D01*
X155742Y72837D01*
X156242Y72088D01*
X157563Y70767D01*
X157550Y70669D01*
X157665Y69796D01*
X158002Y68982D01*
X158538Y68283D01*
X159043Y67896D01*
X159043Y67895D01*
X158951Y67345D01*
X158352Y67096D01*
X157653Y66560D01*
X157592Y66481D01*
X154978D01*
X154584Y66981D01*
X154655Y67520D01*
X154540Y68393D01*
X154203Y69207D01*
X153686Y69881D01*
Y108872D01*
X153765Y108932D01*
X154301Y109631D01*
X154638Y110445D01*
X154753Y111319D01*
X154638Y112192D01*
X154301Y113007D01*
X153765Y113706D01*
X153066Y114242D01*
X152252Y114579D01*
X151378Y114694D01*
X150504Y114579D01*
X149690Y114242D01*
X148991Y113706D01*
X148455Y113007D01*
X148118Y112192D01*
X148003Y111319D01*
X148118Y110445D01*
X148455Y109631D01*
X148991Y108932D01*
X149070Y108872D01*
Y70042D01*
X148893Y69906D01*
X148356Y69207D01*
X148019Y68393D01*
X147904Y67520D01*
X147975Y66981D01*
X147581Y66481D01*
X146429D01*
X138219Y74691D01*
X138411Y75152D01*
X140171D01*
X140231Y75074D01*
X140930Y74537D01*
X141744Y74200D01*
X142618Y74085D01*
X143492Y74200D01*
X144306Y74537D01*
X145005Y75074D01*
X145541Y75773D01*
X145878Y76587D01*
X145993Y77461D01*
X145878Y78334D01*
X145541Y79148D01*
X145005Y79847D01*
X144306Y80384D01*
X143492Y80721D01*
X142618Y80836D01*
X141744Y80721D01*
X140930Y80384D01*
X140231Y79847D01*
X140171Y79769D01*
X137500D01*
X137483Y79765D01*
X137251Y79812D01*
X137039Y79953D01*
X136898Y80164D01*
X136852Y80396D01*
X136855Y80413D01*
Y85580D01*
X137106Y85979D01*
X137261Y86010D01*
X138134Y86125D01*
X139092Y86522D01*
X139914Y87153D01*
X140545Y87975D01*
X140942Y88933D01*
X141057Y89806D01*
X141088Y89961D01*
Y98819D01*
X141088D01*
X140909Y100181D01*
X140383Y101450D01*
X139547Y102539D01*
X138458Y103375D01*
X137189Y103901D01*
X135827Y104080D01*
X135827Y104080D01*
X135388Y104229D01*
X135295Y104291D01*
X135132Y104535D01*
X135079Y104801D01*
X135084Y104823D01*
Y108782D01*
X135138Y108829D01*
X136011Y108944D01*
X136826Y109282D01*
X137524Y109818D01*
X138061Y110517D01*
X138398Y111331D01*
X138513Y112205D01*
X138398Y113078D01*
X138061Y113892D01*
X137524Y114592D01*
X136826Y115128D01*
X136011Y115465D01*
X135138Y115580D01*
X134264Y115465D01*
X133450Y115128D01*
X132751Y114592D01*
X132215Y113892D01*
X131934Y113215D01*
X131839Y113142D01*
X131097Y112176D01*
X130631Y111050D01*
X130481Y109908D01*
X130467Y109843D01*
Y104823D01*
X130466D01*
X130649Y103435D01*
X131184Y102142D01*
X132036Y101032D01*
X133146Y100180D01*
X134439Y99645D01*
X135827Y99462D01*
Y99462D01*
X136259Y99299D01*
X136287Y99280D01*
X136429Y99068D01*
X136475Y98836D01*
X136471Y98819D01*
Y90509D01*
X135847Y90427D01*
X134674Y89941D01*
X133667Y89168D01*
X132894Y88161D01*
X132408Y86987D01*
X132247Y85769D01*
X132239Y85728D01*
Y82817D01*
X131739Y82570D01*
X131510Y82746D01*
X130696Y83083D01*
X129823Y83198D01*
X128949Y83083D01*
X128135Y82746D01*
X127436Y82210D01*
X126900Y81511D01*
X126562Y80696D01*
X126447Y79823D01*
X126562Y78949D01*
X126900Y78135D01*
X127436Y77436D01*
X128135Y76900D01*
X128949Y76562D01*
X129823Y76447D01*
X129921Y76460D01*
X143840Y62541D01*
X143840Y62541D01*
X144589Y62041D01*
X145472Y61865D01*
X145473Y61865D01*
X157592D01*
X157653Y61787D01*
X158352Y61250D01*
X159166Y60913D01*
X160039Y60798D01*
X160913Y60913D01*
X161727Y61250D01*
X162426Y61787D01*
X162962Y62486D01*
X163300Y63300D01*
X163415Y64173D01*
X163300Y65047D01*
X162962Y65861D01*
X162426Y66560D01*
X161922Y66947D01*
X161922Y66948D01*
X162013Y67498D01*
X162613Y67746D01*
X163312Y68283D01*
X163848Y68982D01*
X164186Y69796D01*
X164301Y70669D01*
X164186Y71543D01*
X163848Y72357D01*
X163312Y73056D01*
X162613Y73592D01*
X161799Y73930D01*
X160925Y74045D01*
X160827Y74032D01*
X160182Y74677D01*
Y76587D01*
X160682Y76834D01*
X161205Y76433D01*
X162067Y76076D01*
X162992Y75954D01*
X163917Y76076D01*
X164779Y76433D01*
X165519Y77000D01*
X166087Y77741D01*
X166444Y78603D01*
X166566Y79528D01*
X166444Y80453D01*
X166169Y81117D01*
Y110925D01*
X166061Y111747D01*
X165743Y112514D01*
X165238Y113172D01*
X154805Y123605D01*
X154148Y124109D01*
X153381Y124427D01*
X152559Y124535D01*
X118180D01*
X117858Y125314D01*
X117164Y126219D01*
X116259Y126913D01*
X115205Y127349D01*
X114075Y127498D01*
D02*
G37*
G36*
X503543Y66043D02*
X500394D01*
Y63090D01*
X503543D01*
Y66043D01*
D02*
G37*
G36*
Y61909D02*
X500394D01*
Y58956D01*
X503543D01*
Y61909D01*
D02*
G37*
G36*
X74016Y63421D02*
X67126D01*
X66819Y63360D01*
X66558Y63186D01*
X66384Y62925D01*
X66323Y62618D01*
Y54547D01*
X66384Y54240D01*
X66558Y53979D01*
X66819Y53806D01*
X67126Y53744D01*
X74016D01*
X74323Y53806D01*
X74583Y53979D01*
X74757Y54240D01*
X74819Y54547D01*
Y62618D01*
X74757Y62925D01*
X74583Y63186D01*
X74323Y63360D01*
X74016Y63421D01*
D02*
G37*
G36*
X614528Y25945D02*
X605473D01*
Y16890D01*
X614528D01*
Y25945D01*
D02*
G37*
G36*
X610591Y15906D02*
Y12008D01*
X614489D01*
X614411Y12599D01*
X613955Y13701D01*
X613229Y14646D01*
X612283Y15372D01*
X611182Y15828D01*
X610591Y15906D01*
D02*
G37*
G36*
X609410Y15906D02*
X608818Y15828D01*
X607717Y15372D01*
X606771Y14646D01*
X606045Y13701D01*
X605589Y12599D01*
X605511Y12008D01*
X609410D01*
Y15906D01*
D02*
G37*
G36*
X614489Y10827D02*
X610591D01*
Y6928D01*
X611182Y7006D01*
X612283Y7463D01*
X613229Y8188D01*
X613955Y9134D01*
X614411Y10235D01*
X614489Y10827D01*
D02*
G37*
G36*
X609410D02*
X605511D01*
X605589Y10235D01*
X606045Y9134D01*
X606771Y8188D01*
X607717Y7463D01*
X608818Y7006D01*
X609410Y6928D01*
Y10827D01*
D02*
G37*
G36*
X600000Y15984D02*
X598818Y15828D01*
X597717Y15372D01*
X596771Y14646D01*
X596045Y13701D01*
X595589Y12599D01*
X595433Y11417D01*
X595589Y10235D01*
X596045Y9134D01*
X596771Y8188D01*
X597717Y7463D01*
X598818Y7006D01*
X600000Y6851D01*
X601182Y7006D01*
X602283Y7463D01*
X603229Y8188D01*
X603955Y9134D01*
X604411Y10235D01*
X604567Y11417D01*
X604411Y12599D01*
X603955Y13701D01*
X603229Y14646D01*
X602283Y15372D01*
X601182Y15828D01*
X600000Y15984D01*
D02*
G37*
G36*
X653543Y36453D02*
X651355Y36310D01*
X649203Y35882D01*
X647126Y35177D01*
X645159Y34207D01*
X643335Y32988D01*
X641686Y31542D01*
X640240Y29893D01*
X639022Y28069D01*
X638052Y26102D01*
X637347Y24025D01*
X636919Y21874D01*
X636775Y19685D01*
X636919Y17496D01*
X637347Y15345D01*
X638052Y13268D01*
X639022Y11301D01*
X640240Y9477D01*
X641686Y7828D01*
X643335Y6382D01*
X645159Y5163D01*
X647126Y4193D01*
X649203Y3488D01*
X651355Y3060D01*
X653543Y2917D01*
X655732Y3060D01*
X657883Y3488D01*
X659960Y4193D01*
X661927Y5163D01*
X663751Y6382D01*
X665400Y7828D01*
X666846Y9477D01*
X668065Y11301D01*
X669035Y13268D01*
X669740Y15345D01*
X670168Y17496D01*
X670311Y19685D01*
X670168Y21874D01*
X669740Y24025D01*
X669035Y26102D01*
X668065Y28069D01*
X666846Y29893D01*
X665400Y31542D01*
X663751Y32988D01*
X661927Y34207D01*
X659960Y35177D01*
X657883Y35882D01*
X655732Y36310D01*
X653543Y36453D01*
D02*
G37*
G36*
X118996Y290158D02*
X115453D01*
Y286221D01*
X118996D01*
Y290158D01*
D02*
G37*
G36*
Y285039D02*
X115453D01*
Y281102D01*
X118996D01*
Y285039D01*
D02*
G37*
G36*
X205906Y232480D02*
X202362D01*
Y228543D01*
X205906D01*
Y232480D01*
D02*
G37*
G36*
Y227362D02*
X202362D01*
Y223425D01*
X205906D01*
Y227362D01*
D02*
G37*
G36*
X431299Y105216D02*
X428150D01*
Y102263D01*
X431299D01*
Y105216D01*
D02*
G37*
G36*
X186221Y116142D02*
X183071D01*
Y113189D01*
X186221D01*
Y116142D01*
D02*
G37*
G36*
X402678Y66240D02*
X398780D01*
Y62342D01*
X399371Y62420D01*
X400472Y62876D01*
X401418Y63602D01*
X402144Y64547D01*
X402600Y65649D01*
X402678Y66240D01*
D02*
G37*
G36*
X397598D02*
X393700D01*
X393778Y65649D01*
X394234Y64547D01*
X394960Y63602D01*
X395906Y62876D01*
X397007Y62420D01*
X397598Y62342D01*
Y66240D01*
D02*
G37*
G36*
X358189Y71397D02*
X357007Y71242D01*
X355906Y70785D01*
X354960Y70060D01*
X354234Y69114D01*
X353778Y68013D01*
X353622Y66831D01*
X353778Y65649D01*
X354234Y64547D01*
X354960Y63602D01*
X355906Y62876D01*
X357007Y62420D01*
X358189Y62264D01*
X359371Y62420D01*
X360472Y62876D01*
X361418Y63602D01*
X362144Y64547D01*
X362600Y65649D01*
X362756Y66831D01*
X362600Y68013D01*
X362144Y69114D01*
X361418Y70060D01*
X360472Y70785D01*
X359371Y71242D01*
X358189Y71397D01*
D02*
G37*
G36*
X449606Y69685D02*
X446654D01*
Y66535D01*
X449606D01*
Y69685D01*
D02*
G37*
G36*
X445472D02*
X442520D01*
Y66535D01*
X445472D01*
Y69685D01*
D02*
G37*
G36*
X454134Y49508D02*
X450236D01*
X450313Y48917D01*
X450770Y47815D01*
X451495Y46869D01*
X452441Y46144D01*
X453543Y45687D01*
X454134Y45610D01*
Y49508D01*
D02*
G37*
G36*
X392913Y26407D02*
X391736Y26291D01*
X390605Y25948D01*
X389562Y25390D01*
X388647Y24640D01*
X387897Y23726D01*
X387340Y22683D01*
X386996Y21551D01*
X386880Y20374D01*
X386996Y19197D01*
X387340Y18065D01*
X387897Y17022D01*
X388647Y16108D01*
X389562Y15358D01*
X389849Y15204D01*
X389635Y14751D01*
X389174Y14942D01*
X388583Y15020D01*
Y11122D01*
X392481D01*
X392403Y11713D01*
X391947Y12815D01*
X391221Y13761D01*
X390510Y14307D01*
X390742Y14759D01*
X391736Y14457D01*
X392913Y14341D01*
X394090Y14457D01*
X395222Y14800D01*
X396265Y15358D01*
X397179Y16108D01*
X397930Y17022D01*
X398487Y18065D01*
X398830Y19197D01*
X398946Y20374D01*
X398830Y21551D01*
X398487Y22683D01*
X397930Y23726D01*
X397179Y24640D01*
X396265Y25390D01*
X395222Y25948D01*
X394090Y26291D01*
X392913Y26407D01*
D02*
G37*
G36*
X517324Y15020D02*
X516733Y14942D01*
X515631Y14486D01*
X514685Y13761D01*
X513960Y12815D01*
X513504Y11713D01*
X513426Y11122D01*
X517324D01*
Y15020D01*
D02*
G37*
G36*
X500789D02*
Y11122D01*
X504687D01*
X504609Y11713D01*
X504153Y12815D01*
X503427Y13761D01*
X502481Y14486D01*
X501380Y14942D01*
X500789Y15020D01*
D02*
G37*
G36*
X452756D02*
X452165Y14942D01*
X451063Y14486D01*
X450117Y13761D01*
X449392Y12815D01*
X448936Y11713D01*
X448858Y11122D01*
X452756D01*
Y15020D01*
D02*
G37*
G36*
X436221D02*
Y11122D01*
X440119D01*
X440041Y11713D01*
X439585Y12815D01*
X438859Y13761D01*
X437913Y14486D01*
X436812Y14942D01*
X436221Y15020D01*
D02*
G37*
G36*
X430709Y26407D02*
X429532Y26291D01*
X428400Y25948D01*
X427357Y25390D01*
X426443Y24640D01*
X425692Y23726D01*
X425135Y22683D01*
X424792Y21551D01*
X424676Y20374D01*
X424792Y19197D01*
X425135Y18065D01*
X425692Y17022D01*
X426443Y16108D01*
X427357Y15358D01*
X428400Y14800D01*
X429532Y14457D01*
X430709Y14341D01*
X431886Y14457D01*
X432880Y14759D01*
X433112Y14307D01*
X432401Y13761D01*
X431675Y12815D01*
X431219Y11713D01*
X431141Y11122D01*
X435039D01*
Y15020D01*
X434448Y14942D01*
X433987Y14751D01*
X433773Y15204D01*
X434060Y15358D01*
X434975Y16108D01*
X435725Y17022D01*
X436282Y18065D01*
X436626Y19197D01*
X436742Y20374D01*
X436626Y21551D01*
X436282Y22683D01*
X435725Y23726D01*
X434975Y24640D01*
X434060Y25390D01*
X433017Y25948D01*
X431886Y26291D01*
X430709Y26407D01*
D02*
G37*
G36*
X387402Y15020D02*
X386810Y14942D01*
X385709Y14486D01*
X384763Y13761D01*
X384037Y12815D01*
X383581Y11713D01*
X383503Y11122D01*
X387402D01*
Y15020D01*
D02*
G37*
G36*
X370866D02*
Y11122D01*
X374764D01*
X374687Y11713D01*
X374230Y12815D01*
X373505Y13761D01*
X372559Y14486D01*
X371458Y14942D01*
X370866Y15020D01*
D02*
G37*
G36*
X365354Y26407D02*
X364177Y26291D01*
X363046Y25948D01*
X362003Y25390D01*
X361088Y24640D01*
X360338Y23726D01*
X359781Y22683D01*
X359437Y21551D01*
X359321Y20374D01*
X359437Y19197D01*
X359781Y18065D01*
X360338Y17022D01*
X361088Y16108D01*
X362003Y15358D01*
X363046Y14800D01*
X364177Y14457D01*
X365354Y14341D01*
X366531Y14457D01*
X367526Y14759D01*
X367758Y14307D01*
X367046Y13761D01*
X366321Y12815D01*
X365865Y11713D01*
X365787Y11122D01*
X369685D01*
Y15020D01*
X369094Y14942D01*
X368632Y14751D01*
X368418Y15204D01*
X368706Y15358D01*
X369620Y16108D01*
X370371Y17022D01*
X370928Y18065D01*
X371271Y19197D01*
X371387Y20374D01*
X371271Y21551D01*
X370928Y22683D01*
X370371Y23726D01*
X369620Y24640D01*
X368706Y25390D01*
X367663Y25948D01*
X366531Y26291D01*
X365354Y26407D01*
D02*
G37*
G36*
X457835Y9941D02*
X453937D01*
Y6043D01*
X454528Y6120D01*
X455630Y6577D01*
X456576Y7302D01*
X457301Y8248D01*
X457758Y9350D01*
X457835Y9941D01*
D02*
G37*
G36*
X452756D02*
X448858D01*
X448936Y9350D01*
X449392Y8248D01*
X450117Y7302D01*
X451063Y6577D01*
X452165Y6120D01*
X452756Y6043D01*
Y9941D01*
D02*
G37*
G36*
X440119D02*
X436221D01*
Y6043D01*
X436812Y6120D01*
X437913Y6577D01*
X438859Y7302D01*
X439585Y8248D01*
X440041Y9350D01*
X440119Y9941D01*
D02*
G37*
G36*
X435039D02*
X431141D01*
X431219Y9350D01*
X431675Y8248D01*
X432401Y7302D01*
X433347Y6577D01*
X434448Y6120D01*
X435039Y6043D01*
Y9941D01*
D02*
G37*
G36*
X392481D02*
X388583D01*
Y6043D01*
X389174Y6120D01*
X390275Y6577D01*
X391221Y7302D01*
X391947Y8248D01*
X392403Y9350D01*
X392481Y9941D01*
D02*
G37*
G36*
X387402D02*
X383503D01*
X383581Y9350D01*
X384037Y8248D01*
X384763Y7302D01*
X385709Y6577D01*
X386810Y6120D01*
X387402Y6043D01*
Y9941D01*
D02*
G37*
G36*
X374764D02*
X370866D01*
Y6043D01*
X371458Y6120D01*
X372559Y6577D01*
X373505Y7302D01*
X374230Y8248D01*
X374687Y9350D01*
X374764Y9941D01*
D02*
G37*
G36*
X369685D02*
X365787D01*
X365865Y9350D01*
X366321Y8248D01*
X367046Y7302D01*
X367992Y6577D01*
X369094Y6120D01*
X369685Y6043D01*
Y9941D01*
D02*
G37*
G36*
X90138Y44602D02*
X80925D01*
X80618Y44541D01*
X80532Y44483D01*
X80445Y44541D01*
X80138Y44602D01*
X70925D01*
X70618Y44541D01*
X70531Y44483D01*
X70445Y44541D01*
X70138Y44602D01*
X60925D01*
X60618Y44541D01*
X60357Y44367D01*
X60184Y44106D01*
X60122Y43799D01*
Y23720D01*
X60184Y23413D01*
X60357Y23153D01*
X60618Y22979D01*
X60925Y22918D01*
X70138D01*
X70445Y22979D01*
X70531Y23036D01*
X70618Y22979D01*
X70925Y22918D01*
X80138D01*
X80445Y22979D01*
X80532Y23036D01*
X80618Y22979D01*
X80925Y22918D01*
X90138D01*
X90445Y22979D01*
X90706Y23153D01*
X90879Y23413D01*
X90941Y23720D01*
Y43799D01*
X90879Y44106D01*
X90706Y44367D01*
X90445Y44541D01*
X90138Y44602D01*
D02*
G37*
G36*
X171851Y20857D02*
X170631Y20697D01*
X169493Y20226D01*
X168517Y19476D01*
X167767Y18500D01*
X167296Y17362D01*
X167135Y16142D01*
X167296Y14921D01*
X167767Y13784D01*
X168517Y12808D01*
X169493Y12058D01*
X170631Y11587D01*
X171851Y11426D01*
X173071Y11587D01*
X174209Y12058D01*
X175185Y12808D01*
X175935Y13784D01*
X176406Y14921D01*
X176567Y16142D01*
X176406Y17362D01*
X175935Y18500D01*
X175185Y19476D01*
X174209Y20226D01*
X173071Y20697D01*
X171851Y20857D01*
D02*
G37*
G36*
X140355D02*
X139134Y20697D01*
X137997Y20226D01*
X137021Y19476D01*
X136271Y18500D01*
X135800Y17362D01*
X135639Y16142D01*
X135800Y14921D01*
X136271Y13784D01*
X137021Y12808D01*
X137997Y12058D01*
X139134Y11587D01*
X140355Y11426D01*
X141575Y11587D01*
X142713Y12058D01*
X143689Y12808D01*
X144439Y13784D01*
X144910Y14921D01*
X145070Y16142D01*
X144910Y17362D01*
X144439Y18500D01*
X143689Y19476D01*
X142713Y20226D01*
X141575Y20697D01*
X140355Y20857D01*
D02*
G37*
G36*
X19685Y33902D02*
X17461Y33727D01*
X15292Y33206D01*
X13231Y32353D01*
X11328Y31187D01*
X9632Y29738D01*
X8183Y28042D01*
X7017Y26139D01*
X6164Y24078D01*
X5643Y21909D01*
X5468Y19685D01*
X5643Y17461D01*
X6164Y15292D01*
X7017Y13231D01*
X8183Y11328D01*
X9632Y9632D01*
X11328Y8183D01*
X13231Y7017D01*
X15292Y6164D01*
X17461Y5643D01*
X19685Y5468D01*
X21909Y5643D01*
X24078Y6164D01*
X26139Y7017D01*
X28042Y8183D01*
X29738Y9632D01*
X31187Y11328D01*
X32353Y13231D01*
X33206Y15292D01*
X33727Y17461D01*
X33902Y19685D01*
X33727Y21909D01*
X33206Y24078D01*
X32353Y26139D01*
X31187Y28042D01*
X29738Y29738D01*
X28042Y31187D01*
X26139Y32353D01*
X24078Y33206D01*
X21909Y33727D01*
X19685Y33902D01*
D02*
G37*
%LPD*%
D11*
X202047Y112323D02*
Y124877D01*
X231417Y130197D02*
X238779Y122835D01*
X87904Y179813D02*
X135551Y132165D01*
X87904Y179813D02*
Y190945D01*
X195768Y153150D02*
Y160827D01*
Y149213D02*
Y153150D01*
Y160827D02*
X203740Y168799D01*
X195768Y149213D02*
X198110Y146870D01*
X81517Y181574D02*
X116831Y146260D01*
X81517Y181574D02*
Y208574D01*
X135551Y132165D02*
X192790D01*
X132894Y130197D02*
X192790D01*
X116831Y146260D02*
X132894Y130197D01*
X74156Y183324D02*
X115108Y142372D01*
X74156Y183324D02*
Y210148D01*
X200079Y139454D02*
Y149606D01*
X198110Y139454D02*
Y146870D01*
X129252Y128228D02*
X192790D01*
X115108Y142372D02*
X129252Y128228D01*
X207367Y130197D02*
X231417D01*
X207367Y132165D02*
X233484D01*
X207367Y128228D02*
X229547D01*
X196142Y139454D02*
Y142835D01*
X207367Y134134D02*
X213661D01*
X178465D02*
X192790D01*
X198110Y120354D02*
Y124877D01*
D12*
X208347Y141614D02*
Y149606D01*
X207362Y105787D02*
Y112480D01*
X196142Y123796D02*
Y128032D01*
X184055Y144882D02*
X187795D01*
X184055Y144783D02*
Y144882D01*
Y138189D02*
Y144783D01*
X232185Y122933D02*
Y125591D01*
X193780Y112480D02*
Y116024D01*
X193661Y97933D02*
Y112402D01*
X229547Y128228D02*
X232185Y125591D01*
X191634Y156693D02*
Y160728D01*
Y147343D02*
Y156693D01*
Y147343D02*
X196142Y142835D01*
X191634Y160728D02*
X200000Y169095D01*
X239173Y79035D02*
X239173Y79035D01*
X245866D01*
X209154Y150394D02*
Y166043D01*
X208366Y149606D02*
X209154Y150394D01*
X201673Y156988D02*
X203445Y158760D01*
X201673Y149606D02*
Y156988D01*
X123531Y233695D02*
X123687D01*
X204331Y122933D02*
X214961D01*
X204016Y123248D02*
X204331Y122933D01*
X220866Y123031D02*
X221654D01*
X221555Y122933D02*
X221654Y123031D01*
X204016Y123248D02*
Y124877D01*
X214961Y122933D02*
X221555D01*
X235827Y129823D02*
X238484D01*
X233484Y132165D02*
X235827Y129823D01*
X220866Y123031D02*
X220866Y123031D01*
X200079Y124877D02*
Y131968D01*
X189488Y136102D02*
X192790D01*
X188583Y137008D02*
X189488Y136102D01*
X188583Y137008D02*
Y144095D01*
X187795Y144882D02*
X188583Y144095D01*
X236221Y136811D02*
X243543D01*
X229528D02*
X236221D01*
X222835D02*
X229528D01*
X216142D02*
X222835D01*
X243543D02*
X243701Y136653D01*
X216142Y136614D02*
Y136811D01*
X213661Y134134D02*
X216142Y136614D01*
X177362Y135236D02*
Y138189D01*
Y135236D02*
X178465Y134134D01*
X185039Y137008D02*
Y137895D01*
X193583Y112480D02*
X193661Y112402D01*
X204016Y139454D02*
X206186D01*
X200079Y131968D02*
Y132166D01*
X204016Y136102D01*
Y139454D01*
X196142Y128032D02*
X200079Y131968D01*
X206186Y139454D02*
X208347Y141614D01*
X192992Y120748D02*
X193093D01*
X196142Y123796D01*
X201693Y112323D02*
X201850Y112480D01*
X193780Y116024D02*
X198110Y120354D01*
X198110Y124877D02*
X198110Y124877D01*
X193583Y112480D02*
X193780D01*
D17*
X488681Y88680D02*
X490354Y90354D01*
X473622Y109547D02*
Y118799D01*
X472737Y92617D02*
X478740D01*
X470571Y94784D02*
X472737Y92617D01*
X471062Y90649D02*
X478740D01*
X470768Y90354D02*
X471062Y90649D01*
X365846Y123425D02*
X374213D01*
X362421D02*
X365846D01*
X451870Y70472D02*
X453937Y72539D01*
Y77657D01*
X529970Y8219D02*
X530315D01*
X531841Y6693D01*
X547933D01*
X467323Y5413D02*
X468405Y4331D01*
X556004D01*
X467323Y12598D02*
Y19488D01*
X466437Y20374D02*
X467323Y19488D01*
X458268Y20374D02*
X466437D01*
X556004Y4331D02*
X560000Y8327D01*
X547933Y6693D02*
X550000Y8760D01*
Y11417D01*
X560000Y8327D02*
Y11417D01*
X496850Y51181D02*
X561319D01*
X492224Y55807D02*
X496850Y51181D01*
X492224Y55807D02*
Y76870D01*
X494587Y56496D02*
X497736Y53347D01*
X494587Y56496D02*
Y77362D01*
X497736Y53347D02*
X563386D01*
X495965Y49016D02*
X559547D01*
X489764Y55216D02*
X495965Y49016D01*
X489764Y55216D02*
Y76378D01*
X493757Y42520D02*
X550591D01*
X469685Y66592D02*
X493757Y42520D01*
X469685Y66592D02*
Y77657D01*
X493138Y40354D02*
X548228D01*
X467716Y65776D02*
X493138Y40354D01*
X467716Y65776D02*
Y77657D01*
X492520Y38189D02*
X544390D01*
X465748Y64961D02*
X492520Y38189D01*
X465748Y64961D02*
Y77657D01*
X491535Y36220D02*
X542520D01*
X463779Y63977D02*
X491535Y36220D01*
X463779Y63977D02*
Y77657D01*
X490705Y34055D02*
X538681D01*
X461811Y62950D02*
X490705Y34055D01*
X461811Y62950D02*
Y77657D01*
X489370Y29724D02*
X531693D01*
X457874Y61221D02*
X489370Y29724D01*
X457874Y61221D02*
Y77657D01*
X490087Y31890D02*
X536713D01*
X459842Y62134D02*
X490087Y31890D01*
X459842Y62134D02*
Y77657D01*
X488583Y27559D02*
X528346D01*
X455905Y60236D02*
X488583Y27559D01*
X455905Y60236D02*
Y77657D01*
X528346Y27559D02*
X532972Y22933D01*
Y19390D02*
Y22933D01*
Y19390D02*
X540000Y12362D01*
X531693Y29724D02*
X540000Y21417D01*
X536713Y31890D02*
X544882Y23720D01*
X538681Y34055D02*
X550000Y22736D01*
X544390Y38189D02*
X560000Y22579D01*
X548228Y40354D02*
X564961Y23622D01*
X550591Y42520D02*
X570000Y23110D01*
X553937Y44685D02*
X575000Y23622D01*
X494628Y44685D02*
X553937D01*
X471653Y67659D02*
X494628Y44685D01*
X555709Y46850D02*
X580000Y22559D01*
X495246Y46850D02*
X555709D01*
X473622Y68475D02*
X495246Y46850D01*
X559547Y49016D02*
X585039Y23524D01*
X561319Y51181D02*
X590000Y22500D01*
X563386Y53347D02*
X589665Y27067D01*
X570000Y21417D02*
Y23110D01*
X557185Y308169D02*
Y315354D01*
X471653Y103150D02*
X471654Y103150D01*
X471653Y103150D02*
Y109547D01*
X453937Y84941D02*
X453937Y84941D01*
X453937Y77657D02*
Y84941D01*
X454724Y102460D02*
X454823Y102559D01*
X446850Y102460D02*
X454724D01*
X374213Y123425D02*
X382283Y115354D01*
X357874Y127972D02*
X362421Y123425D01*
X367303Y128543D02*
X373819D01*
X357874Y137972D02*
X367303Y128543D01*
X478740Y96554D02*
X496161D01*
X509547Y94586D02*
X509547Y94586D01*
X478740Y94586D02*
X509547D01*
X496161Y96554D02*
X496161Y96555D01*
X544882Y16535D02*
Y23720D01*
X550000Y21417D02*
Y22736D01*
X560000Y21417D02*
Y22579D01*
X594350Y27067D02*
X600000Y21417D01*
X589665Y27067D02*
X594350D01*
X590000Y21417D02*
Y22500D01*
X580000Y21417D02*
Y22559D01*
X564961Y16457D02*
Y23622D01*
X575000Y16417D02*
Y23622D01*
X585039Y16378D02*
Y23524D01*
X575000Y16417D02*
X580000Y11417D01*
X555118Y16299D02*
Y23622D01*
X542520Y36220D02*
X555118Y23622D01*
X510827Y62500D02*
Y77362D01*
Y114763D02*
Y129626D01*
X564961Y16457D02*
X570000Y11417D01*
X585039Y16378D02*
X590000Y11417D01*
X555118Y16299D02*
X560000Y11417D01*
X544882Y16535D02*
X550000Y11417D01*
X540000D02*
Y12362D01*
X455905Y109547D02*
Y118504D01*
X463976Y124016D02*
X465748Y122244D01*
X463976Y124016D02*
Y130709D01*
X450000Y118365D02*
Y118898D01*
Y118365D02*
X451968Y116397D01*
Y109547D02*
Y116397D01*
X424016Y96554D02*
X446850D01*
X435827Y100394D02*
X435924Y100491D01*
X446850D01*
X385433Y102756D02*
Y116929D01*
X373819Y128543D02*
X385433Y116929D01*
Y102756D02*
X393603Y94586D01*
X390060Y92617D02*
X446850D01*
X382283Y100394D02*
X390060Y92617D01*
X382283Y100394D02*
Y115354D01*
X485237Y86712D02*
X494587Y77362D01*
X478740Y86712D02*
X485237D01*
X484351Y84743D02*
X492224Y76870D01*
X478740Y84743D02*
X484351D01*
X483366Y82775D02*
X489764Y76378D01*
X478740Y82775D02*
X483366D01*
X473622Y68475D02*
Y77657D01*
X471653Y67659D02*
Y77657D01*
X490059Y90059D02*
X491535Y88582D01*
Y86122D02*
Y88582D01*
Y86122D02*
X493110Y84547D01*
X494193D01*
X490354Y90354D02*
X490551D01*
X478740Y88680D02*
X488681D01*
X510827Y77362D02*
Y93307D01*
X509547Y94586D02*
X510827Y93307D01*
Y98031D02*
Y114763D01*
X509350Y96555D02*
X510827Y98031D01*
X496161Y96555D02*
X509350D01*
X393603Y94586D02*
X446850D01*
X465748Y109547D02*
Y122244D01*
X438583Y105807D02*
X439960Y104429D01*
X446850D01*
D23*
X284646Y102953D02*
X291634D01*
X645669Y140650D02*
Y231594D01*
X645669Y231594D01*
X95866Y80216D02*
X138386Y37697D01*
X40059Y80216D02*
X95866Y80216D01*
X28642Y91634D02*
X40059Y80216D01*
X28642Y91634D02*
Y117618D01*
X138386Y37697D02*
X181496D01*
X189272Y45472D01*
Y79921D01*
D116*
X574114Y291240D02*
D03*
Y271555D02*
D03*
X593799Y291240D02*
D03*
X583957Y261712D02*
D03*
Y281398D02*
D03*
D117*
X593799Y271555D02*
D03*
D119*
X151575Y67126D02*
G03*
X151378Y67051I0J-295D01*
G01*
X151378Y67051D02*
G03*
X151279Y66831I197J-220D01*
G01*
X137106Y88287D02*
G03*
X138779Y89961I0J1673D01*
G01*
X137106Y88287D02*
G03*
X134547Y85728I0J-2559D01*
G01*
Y80413D02*
G03*
X137500Y77461I2953J0D01*
G01*
X138779Y98819D02*
G03*
X135827Y101772I-2953J0D01*
G01*
X135138Y112205D02*
G03*
X132776Y109843I0J-2362D01*
G01*
Y104823D02*
G03*
X135827Y101772I3051J0D01*
G01*
X145472Y64173D02*
X160039D01*
X129823Y79823D02*
X145472Y64173D01*
X151279Y67149D02*
X151378Y67051D01*
Y111319D01*
X151279Y66831D02*
Y67149D01*
Y67520D01*
X138779Y89961D02*
Y98819D01*
X134547Y80413D02*
Y85728D01*
X137500Y77461D02*
X142618D01*
X132776Y104823D02*
Y109843D01*
X157874Y73721D02*
Y102756D01*
Y73721D02*
X160925Y70669D01*
D120*
X177362Y144882D02*
X177362Y144882D01*
X177362Y144882D02*
Y150295D01*
X433858Y277461D02*
X434252Y277854D01*
Y306693D01*
X455659Y306742D02*
X455709Y306791D01*
X434301Y306742D02*
X455659D01*
X434252Y306693D02*
X434301Y306742D01*
X177362Y150295D02*
X177362Y150295D01*
X319488Y93110D02*
X342028D01*
X319488D02*
X319488D01*
D121*
Y25000D02*
Y93110D01*
X127075Y251279D02*
X149516Y228839D01*
X154035D02*
X162598Y237402D01*
X149516Y228839D02*
X154035D01*
X392224Y37008D02*
X400394D01*
X377658D02*
X392224D01*
X343659Y37027D02*
X349606Y37008D01*
X356299D02*
X363091D01*
X331519Y24962D02*
X343659Y37027D01*
X319488Y25000D02*
X331519Y24962D01*
X380709Y184153D02*
Y198228D01*
X320079Y4429D02*
X337717D01*
X313583Y10925D02*
X320079Y4429D01*
X313583Y10925D02*
X313583Y129134D01*
X150492Y44685D02*
X169095D01*
X84941Y110236D02*
X150492Y44685D01*
X50394Y110236D02*
X84941D01*
X113673Y234448D02*
Y244400D01*
Y234448D02*
X123027Y225094D01*
X120553Y251279D02*
X127075D01*
X113673Y244400D02*
X120553Y251279D01*
X365354Y168799D02*
X380709Y184153D01*
X346358Y168799D02*
X365354D01*
X178097Y53688D02*
Y84298D01*
X169095Y44685D02*
X178097Y53688D01*
X185236Y91437D02*
X190551D01*
X178097Y84298D02*
X185236Y91437D01*
X319488Y93110D02*
Y126969D01*
Y24902D02*
Y25000D01*
X319390Y25000D02*
X319488Y25000D01*
X363091Y37008D02*
X377658D01*
X322933Y132480D02*
X331102Y124311D01*
X316929Y132480D02*
X322933D01*
X331102Y124311D02*
X338484D01*
X342126Y127953D01*
Y164567D01*
X313583Y129134D02*
X316929Y132480D01*
X342126Y164567D02*
X346358Y168799D01*
D123*
X272684Y140157D02*
Y159593D01*
X355610Y116831D02*
X365846D01*
X348140Y66880D02*
X348351Y67090D01*
X348091Y66831D02*
X348140Y66880D01*
X348091Y66831D02*
Y66831D01*
X473720Y118799D02*
X473819Y118898D01*
X479134D01*
X44172Y161221D02*
X46063Y159329D01*
Y152067D02*
Y159329D01*
X438091Y77362D02*
Y78997D01*
Y85827D01*
X438021Y78928D02*
X438091Y78997D01*
X380118Y85827D02*
X438091D01*
X367323Y98622D02*
X380118Y85827D01*
X437795Y77067D02*
X438091Y77362D01*
X207441Y85433D02*
X207539Y85532D01*
X214173D01*
X186654Y97638D02*
X186713Y97579D01*
Y92520D02*
Y97579D01*
X365748Y116634D02*
X365846Y116732D01*
X365748Y111319D02*
Y116634D01*
Y111319D02*
X367323Y109744D01*
Y98622D02*
Y109744D01*
X42283Y161221D02*
X44172D01*
X16437Y111319D02*
Y168898D01*
X9843Y175492D02*
X16437Y168898D01*
X276378Y55118D02*
X276378Y55118D01*
X290059Y176969D02*
X295965D01*
X272684Y159593D02*
X290059Y176969D01*
X249744Y143661D02*
X253051Y140354D01*
X272244D01*
X186614Y97598D02*
X186654Y97638D01*
X243701Y143661D02*
X249744D01*
X348351Y67090D02*
X348488Y118370D01*
Y122898D01*
X349016Y123425D01*
X355610Y116831D01*
X349016Y123425D02*
Y159153D01*
X349410Y159547D01*
X478937Y105216D02*
Y109842D01*
X479134Y110039D01*
X479134Y110039D02*
Y118898D01*
X479134Y110039D02*
X479134Y110039D01*
X437795Y77067D02*
X445965D01*
X446407Y77313D02*
X451181D01*
X446063Y76968D02*
X446407Y77313D01*
X445965Y77067D02*
X446063Y76968D01*
X223898Y78563D02*
X231614D01*
X223504D02*
X223898D01*
X223917Y78543D01*
X223819Y78642D02*
X223898Y78563D01*
X223917Y71457D02*
X224016Y71358D01*
X223917Y71457D02*
Y78543D01*
X223327Y78543D02*
X223425Y78642D01*
X223504Y78563D01*
X231614D02*
X231693Y78484D01*
D127*
X365846Y123425D02*
D03*
Y116732D02*
D03*
X557185Y322047D02*
D03*
Y315354D02*
D03*
X245374Y122835D02*
D03*
Y116142D02*
D03*
X221161Y116240D02*
D03*
Y122933D02*
D03*
X467323Y12598D02*
D03*
Y5906D02*
D03*
X530315Y14961D02*
D03*
Y8268D02*
D03*
X292913Y22244D02*
D03*
Y15551D02*
D03*
X446063Y76968D02*
D03*
Y70276D02*
D03*
X473327Y118799D02*
D03*
Y125492D02*
D03*
X557185Y301476D02*
D03*
Y308169D02*
D03*
X214567Y116240D02*
D03*
Y122933D02*
D03*
X238779Y116142D02*
D03*
Y122835D02*
D03*
X232185Y116240D02*
D03*
Y122933D02*
D03*
X236221Y136811D02*
D03*
Y143504D02*
D03*
X229527Y136811D02*
D03*
Y143504D02*
D03*
X216142Y136811D02*
D03*
Y143504D02*
D03*
X222835Y136811D02*
D03*
Y143504D02*
D03*
X239173Y85728D02*
D03*
Y79035D02*
D03*
X245866Y79035D02*
D03*
Y85728D02*
D03*
X223819Y78642D02*
D03*
Y85335D02*
D03*
D128*
X52461Y249016D02*
D03*
X59941D02*
D03*
X114862Y285630D02*
D03*
X107382D02*
D03*
X206496Y227953D02*
D03*
X213976D02*
D03*
D130*
X457283Y124016D02*
D03*
X463976D02*
D03*
X457283Y130709D02*
D03*
X463976D02*
D03*
X413779Y293307D02*
D03*
X420472D02*
D03*
X420472Y300000D02*
D03*
X413779D02*
D03*
X434252Y306693D02*
D03*
X427559D02*
D03*
X184055Y138189D02*
D03*
X177362D02*
D03*
X400394Y37008D02*
D03*
X407087D02*
D03*
X230709Y71358D02*
D03*
X224016D02*
D03*
X349606Y37008D02*
D03*
X356299D02*
D03*
X490059Y90059D02*
D03*
X496752D02*
D03*
X504134Y62500D02*
D03*
X510827D02*
D03*
X504134Y129626D02*
D03*
X510827D02*
D03*
X479134Y110039D02*
D03*
X485827D02*
D03*
X438583Y105807D02*
D03*
X431890D02*
D03*
X413779Y306693D02*
D03*
X420472D02*
D03*
X208366Y149606D02*
D03*
X201673D02*
D03*
X245177Y129823D02*
D03*
X238484D02*
D03*
X177362Y144783D02*
D03*
X184055D02*
D03*
X200590Y105905D02*
D03*
X207283D02*
D03*
X200590Y99311D02*
D03*
X207283D02*
D03*
X193504Y105905D02*
D03*
X186811D02*
D03*
X200590Y112598D02*
D03*
X207283D02*
D03*
X193504D02*
D03*
X186811D02*
D03*
X200590Y92913D02*
D03*
X207283D02*
D03*
D133*
X138193Y240162D02*
D03*
X133460Y235429D02*
D03*
X123027Y225094D02*
D03*
X127760Y229827D02*
D03*
D148*
X299567Y102953D02*
D03*
X292559D02*
D03*
X186654Y98425D02*
D03*
X193661D02*
D03*
X206850Y85236D02*
D03*
X199842D02*
D03*
D149*
X243701Y143661D02*
D03*
Y136653D02*
D03*
X231693Y85492D02*
D03*
Y78484D02*
D03*
D161*
X420079Y277461D02*
D03*
X370276Y10531D02*
D03*
X387992D02*
D03*
X435630D02*
D03*
X453346D02*
D03*
X500198D02*
D03*
X517915D02*
D03*
X89685Y290158D02*
D03*
X357874Y127972D02*
D03*
X378189Y66831D02*
D03*
X368189D02*
D03*
X358189D02*
D03*
X388189D02*
D03*
X398189D02*
D03*
X454724Y50098D02*
D03*
X444882D02*
D03*
X435039D02*
D03*
X425197D02*
D03*
X415354D02*
D03*
X540000Y11417D02*
D03*
Y21417D02*
D03*
X550000Y11417D02*
D03*
Y21417D02*
D03*
X560000Y11417D02*
D03*
Y21417D02*
D03*
X570000Y11417D02*
D03*
Y21417D02*
D03*
X580000Y11417D02*
D03*
Y21417D02*
D03*
X590000Y11417D02*
D03*
Y21417D02*
D03*
X600000Y11417D02*
D03*
Y21417D02*
D03*
X610000Y11417D02*
D03*
X516339Y301575D02*
D03*
X665354Y140650D02*
D03*
X665354Y230610D02*
D03*
D182*
X234547Y111767D02*
G03*
X233263Y114867I-4383J0D01*
G01*
X238678Y116139D02*
G03*
X236910Y111864I4280J-4274D01*
G01*
X238681Y116142D02*
G03*
X238678Y116139I4277J-4277D01*
G01*
X200512Y99311D02*
Y112520D01*
Y85512D02*
Y99311D01*
X200433Y85433D02*
X200512Y85512D01*
X231890Y116240D02*
X233263Y114867D01*
X234547Y87797D02*
Y111767D01*
X226673Y116240D02*
X226772D01*
X221654D02*
X226673D01*
X226772D02*
X226772Y116240D01*
X230217D01*
X420472Y293307D02*
X420472D01*
X420079Y277461D02*
X420275Y277657D01*
Y293110D01*
X420472Y293307D01*
X238681Y116142D02*
X245374D01*
X236910Y87992D02*
Y111864D01*
Y87992D02*
X239173Y85729D01*
Y85728D02*
Y85729D01*
X232242Y85492D02*
X234547Y87797D01*
X239173Y85728D02*
X245866D01*
X231693Y85492D02*
X232242D01*
X420472Y293307D02*
Y300000D01*
X200512Y112520D02*
X200591Y112598D01*
X231693Y85847D02*
X232167D01*
X420472Y300000D02*
X420472Y300000D01*
X420472Y306693D02*
X427559D01*
X239173Y85729D02*
X239173Y85728D01*
X239173Y85728D01*
X200709Y112480D02*
X200787Y112402D01*
D183*
X356299Y86319D02*
X369291Y73327D01*
X356299Y86319D02*
Y102559D01*
X444291Y56496D02*
X455709D01*
X437795Y62992D02*
X444291Y56496D01*
X437795Y62992D02*
Y77067D01*
X455709Y56496D02*
X460728Y51476D01*
X530315Y14961D02*
Y18602D01*
X528445Y20472D02*
X530315Y18602D01*
X460728Y38878D02*
Y51476D01*
X458858Y37008D02*
X460728Y38878D01*
X407087Y37008D02*
X458858D01*
X438583Y105905D02*
X444488Y111811D01*
X438583Y105807D02*
Y105905D01*
X392126Y148031D02*
X416142Y124016D01*
X382579Y148031D02*
X392126D01*
X392913Y152362D02*
X417717Y127559D01*
X369783Y152362D02*
X392913D01*
X522934Y20472D02*
X528445D01*
X522836Y20374D02*
X522934Y20472D01*
X153248Y150591D02*
X170669D01*
X137500Y166339D02*
X153248Y150591D01*
X137500Y166339D02*
Y167520D01*
X122933Y175886D02*
X152362Y146457D01*
X166142D01*
X150295Y142520D02*
X161614D01*
X132185Y160630D02*
X150295Y142520D01*
X92116Y181004D02*
X135916Y137205D01*
X176378D01*
X456299Y124016D02*
X457283Y123031D01*
X123687Y233695D02*
X168602Y188779D01*
X126091Y242061D02*
X176096Y192055D01*
X91831Y87402D02*
Y97146D01*
X87992Y100984D02*
X91831Y97146D01*
X82776Y100984D02*
X87992D01*
X78248Y105512D02*
X82776Y100984D01*
X65847Y116634D02*
X76378D01*
X176378Y137205D02*
X177362Y138189D01*
X184153Y188779D02*
X200000Y172933D01*
Y169095D02*
Y172933D01*
X203740Y168799D02*
Y175886D01*
X187571Y192055D02*
X203740Y175886D01*
X176096Y192055D02*
X187571D01*
X168602Y188779D02*
X184153D01*
X309006Y153199D02*
X309055Y153248D01*
X309006Y40994D02*
Y153199D01*
X308957Y40945D02*
X309006Y40994D01*
X446949Y124016D02*
X456299D01*
X443405Y127559D02*
X446949Y124016D01*
X417717Y127559D02*
X443405D01*
X456299Y124016D02*
X457283D01*
X416142Y104724D02*
X424016Y96850D01*
X416142Y104724D02*
Y124016D01*
X363681Y91142D02*
Y107677D01*
X359154Y112205D02*
X363681Y107677D01*
X354134Y112205D02*
X359154D01*
X373130Y81693D02*
X413287D01*
X363681Y91142D02*
X373130Y81693D01*
X370965Y77559D02*
X407579D01*
X360138Y88386D02*
X370965Y77559D01*
X360138Y88386D02*
Y106398D01*
X358563Y107972D02*
X360138Y106398D01*
X357579Y107972D02*
X358563D01*
X369291Y73327D02*
X401968D01*
X413287Y81693D02*
X444882Y50098D01*
X407579Y77559D02*
X435039Y50098D01*
X401968Y73327D02*
X425197Y50098D01*
D184*
X152559Y121358D02*
X162992Y110925D01*
X115847Y121358D02*
X152559D01*
X114075Y123130D02*
X115847Y121358D01*
X162992Y79528D02*
Y110925D01*
X351772Y195768D02*
X364272Y208268D01*
X351772Y191535D02*
Y195768D01*
X349606Y189370D02*
X351772Y191535D01*
D185*
X100098Y238287D02*
X157087Y181299D01*
X100000Y238287D02*
X100098D01*
X157087Y181299D02*
X173228D01*
X123031Y192224D02*
X160925Y154331D01*
X122933Y192224D02*
X123031D01*
X151870Y169980D02*
X159843D01*
X97922Y223928D02*
X151870Y169980D01*
X77059Y223928D02*
X97922D01*
X160925Y154331D02*
X186516D01*
X171457Y158366D02*
X181890D01*
X159843Y169980D02*
X171457Y158366D01*
X178248Y162598D02*
X185827D01*
X164469Y176378D02*
X178248Y162598D01*
X173228Y181299D02*
X188287Y166240D01*
X190650D01*
X193701Y169488D02*
X194980D01*
X177657Y185531D02*
X193701Y169488D01*
X151181Y176378D02*
X164469D01*
X95617Y231942D02*
X151181Y176378D01*
X85721Y231942D02*
X95617D01*
X164571Y185531D02*
X177657D01*
X128347Y221756D02*
X164571Y185531D01*
D186*
X494366Y303862D02*
G03*
X487295Y306791I-7071J-7071D01*
G01*
X463264Y312622D02*
G03*
X456193Y315551I-7071J-7071D01*
G01*
X421408D02*
G03*
X413779Y307923I0J-7628D01*
G01*
X516339Y301575D02*
G03*
X516576Y301476I238J238D01*
G01*
X575346D02*
G03*
X582417Y304405I0J10000D01*
G01*
X276378Y55118D02*
G03*
X273455Y62175I-9980J0D01*
G01*
X267299Y68331D02*
G03*
X260228Y71260I-7071J-7071D01*
G01*
X214173Y85532D02*
X214272Y85433D01*
X396088Y49902D02*
X415354D01*
X344980Y44882D02*
X391068D01*
X334006Y55856D02*
X344980Y44882D01*
X334006Y55856D02*
Y77264D01*
X391068Y44882D02*
X396088Y49902D01*
X335433Y130905D02*
Y174803D01*
X5610Y179724D02*
X9843Y175492D01*
X5610Y179724D02*
Y283366D01*
X469095Y306791D02*
X487295D01*
X463264Y312622D02*
X469095Y306791D01*
X494366Y303862D02*
X496654Y301575D01*
X421408Y315551D02*
X456193D01*
X413779Y306693D02*
Y307923D01*
Y300000D02*
Y306693D01*
X532776Y301476D02*
X575346D01*
X516576D02*
X532776D01*
X582417Y304405D02*
X595039Y317028D01*
X16437Y55709D02*
Y111319D01*
Y55709D02*
X22736Y49409D01*
X40858Y49311D02*
X44772D01*
X40760Y49409D02*
X40858Y49311D01*
X44772D02*
X44870Y49409D01*
X213681Y158760D02*
X250000D01*
X282579Y191339D01*
X324705D01*
X384252Y250886D01*
X426476D01*
X230709Y71358D02*
X260228D01*
X267299Y68331D02*
X273455Y62175D01*
X276378Y44784D02*
Y55118D01*
Y43799D02*
Y44784D01*
X214272Y49803D02*
Y85433D01*
X191240Y26772D02*
X214272Y49803D01*
X127559Y26772D02*
X191240D01*
X104921Y49409D02*
X127559Y26772D01*
X44870Y49409D02*
X104921D01*
X22736D02*
X40760D01*
X292913Y22244D02*
Y37303D01*
D191*
X370768Y215846D02*
X380217Y225295D01*
X370768Y205118D02*
Y215846D01*
X358957Y193307D02*
X370768Y205118D01*
X358957Y187205D02*
Y193307D01*
X346555Y174803D02*
X358957Y187205D01*
X335433Y174803D02*
X346555D01*
X312500D02*
X335433D01*
X287303Y149606D02*
X312500Y174803D01*
X287303Y120177D02*
Y149606D01*
D193*
X323701Y4429D02*
D03*
X313701D02*
D03*
X337717D02*
D03*
X347716D02*
D03*
D194*
X485335Y207874D02*
D03*
X227559Y104232D02*
D03*
X425197Y181201D02*
D03*
X368209Y290945D02*
D03*
D195*
X485335Y217717D02*
D03*
X295177Y120177D02*
D03*
X227559Y94390D02*
D03*
X425197Y173327D02*
D03*
X480512Y248721D02*
D03*
X390059Y225295D02*
D03*
X368209Y298819D02*
D03*
X390551Y197244D02*
D03*
X298031Y281299D02*
D03*
D196*
X433858Y277461D02*
D03*
X99685Y290158D02*
D03*
X348189Y66831D02*
D03*
X610000Y21417D02*
D03*
X496654Y301575D02*
D03*
X645669Y140650D02*
D03*
X645669Y230610D02*
D03*
D197*
X33071Y150689D02*
D03*
Y131004D02*
D03*
D198*
X22441Y154626D02*
D03*
Y127067D02*
D03*
D199*
X539173Y336693D02*
D03*
X385630D02*
D03*
D200*
X475787Y291791D02*
D03*
X469095Y306791D02*
D03*
X462402Y291791D02*
D03*
X455709Y306791D02*
D03*
X449016Y291791D02*
D03*
D201*
X365354Y20374D02*
D03*
X392913D02*
D03*
X430709D02*
D03*
X458268D02*
D03*
X495277D02*
D03*
X522836D02*
D03*
D202*
X557283Y116634D02*
D03*
X407283D02*
D03*
X374213Y112303D02*
D03*
X590354D02*
D03*
D203*
X171851Y16142D02*
D03*
X140355D02*
D03*
D204*
X19685Y19685D02*
D03*
X236221Y255906D02*
D03*
D205*
X673228Y334646D02*
D03*
D206*
X287303Y120177D02*
D03*
X490354Y248721D02*
D03*
X380217Y225295D02*
D03*
X380709Y197244D02*
D03*
X307874Y281299D02*
D03*
D207*
X22087Y327402D02*
D03*
X42087D02*
D03*
Y347402D02*
D03*
X22087D02*
D03*
D208*
X32087Y337402D02*
D03*
D209*
X357874Y137972D02*
D03*
D210*
X288878Y211417D02*
D03*
Y219291D02*
D03*
Y227165D02*
D03*
Y235039D02*
D03*
Y242913D02*
D03*
X298327Y211417D02*
D03*
Y219291D02*
D03*
Y227165D02*
D03*
Y235039D02*
D03*
Y242913D02*
D03*
X307776Y211417D02*
D03*
Y219291D02*
D03*
Y227165D02*
D03*
Y235039D02*
D03*
Y242913D02*
D03*
X317224D02*
D03*
Y235039D02*
D03*
Y227165D02*
D03*
Y219291D02*
D03*
Y211417D02*
D03*
X120965Y108760D02*
D03*
X121260Y90945D02*
D03*
X374311Y185827D02*
D03*
X162992Y79528D02*
D03*
X449114Y62106D02*
D03*
X146358Y90256D02*
D03*
X134350Y91831D02*
D03*
X137500Y167520D02*
D03*
X161614Y142520D02*
D03*
X166142Y146457D02*
D03*
X170669Y150591D02*
D03*
X90847Y215650D02*
D03*
X99410Y145177D02*
D03*
X108465Y176673D02*
D03*
Y202953D02*
D03*
X100000Y238287D02*
D03*
X122933Y175886D02*
D03*
Y192224D02*
D03*
X626083Y344980D02*
D03*
X520472D02*
D03*
X507480D02*
D03*
X494488D02*
D03*
X65945Y273228D02*
D03*
Y286221D02*
D03*
Y299213D02*
D03*
X82874D02*
D03*
X101772D02*
D03*
X556496Y87205D02*
D03*
X530512D02*
D03*
X543504D02*
D03*
X483366Y146949D02*
D03*
X446063D02*
D03*
X623917Y283366D02*
D03*
X683957Y250197D02*
D03*
Y278740D02*
D03*
Y313779D02*
D03*
X645571Y344980D02*
D03*
X610335D02*
D03*
X594783D02*
D03*
X574705D02*
D03*
X556398D02*
D03*
X481496D02*
D03*
X468504D02*
D03*
X455512D02*
D03*
X442520D02*
D03*
X429528D02*
D03*
X416535D02*
D03*
X403543D02*
D03*
X277165Y285728D02*
D03*
X247244Y217913D02*
D03*
X234252D02*
D03*
X220472D02*
D03*
X264173Y285728D02*
D03*
X251181D02*
D03*
X238189D02*
D03*
X676673Y7579D02*
D03*
Y18898D02*
D03*
X6004Y7579D02*
D03*
Y34055D02*
D03*
X527362Y188878D02*
D03*
X524705Y146949D02*
D03*
X562402D02*
D03*
X604724Y116240D02*
D03*
X676673Y110236D02*
D03*
Y120669D02*
D03*
X203248Y7579D02*
D03*
X118110D02*
D03*
Y18898D02*
D03*
X35335Y7579D02*
D03*
X5906Y57677D02*
D03*
Y69488D02*
D03*
Y81299D02*
D03*
Y93110D02*
D03*
Y104921D02*
D03*
X349705Y245965D02*
D03*
X5906Y45866D02*
D03*
X186516Y154331D02*
D03*
X191634Y156693D02*
D03*
X195768Y153150D02*
D03*
X181890Y158366D02*
D03*
X185827Y162598D02*
D03*
X190650Y166240D02*
D03*
X194980Y169488D02*
D03*
X91831Y87402D02*
D03*
X364272Y208268D02*
D03*
X132185Y160630D02*
D03*
X128347Y221756D02*
D03*
X203248Y18898D02*
D03*
X190551Y91437D02*
D03*
X186516Y122343D02*
D03*
X177362Y150295D02*
D03*
X126091Y242061D02*
D03*
X123531Y233695D02*
D03*
X327362Y144882D02*
D03*
X312992Y137894D02*
D03*
X316732Y167815D02*
D03*
X327756D02*
D03*
X359646Y53543D02*
D03*
X422933Y113484D02*
D03*
X464370Y86221D02*
D03*
X500591Y69488D02*
D03*
X166929Y210138D02*
D03*
X30276Y60382D02*
D03*
Y72973D02*
D03*
X325689Y50689D02*
D03*
X334547Y16732D02*
D03*
X342028Y93110D02*
D03*
X226673Y116240D02*
D03*
X479134Y118898D02*
D03*
X444488Y111811D02*
D03*
X494193Y84547D02*
D03*
X349606Y189370D02*
D03*
X77059Y223928D02*
D03*
X85721Y231942D02*
D03*
D211*
X237008Y8760D02*
D03*
Y61713D02*
D03*
D212*
X257480Y52461D02*
D03*
D213*
X292913Y37303D02*
D03*
D214*
X276378Y44784D02*
D03*
D215*
Y7579D02*
D03*
D216*
X653543Y19685D02*
D03*
D217*
X645827Y317028D02*
D03*
X625827D02*
D03*
X595039D02*
D03*
X575039D02*
D03*
D218*
X114075Y123130D02*
D03*
X46063Y152067D02*
D03*
X284646Y102953D02*
D03*
X438091Y85827D02*
D03*
X5610Y283366D02*
D03*
X334006Y77264D02*
D03*
X214272Y85630D02*
D03*
X189272Y79921D02*
D03*
X349016Y123425D02*
D03*
X349410Y159547D02*
D03*
X335433Y130905D02*
D03*
D219*
X470571Y94784D02*
D03*
X70571Y71358D02*
D03*
X82677Y71260D02*
D03*
X638976Y214075D02*
D03*
X151279Y67520D02*
D03*
X129823Y79823D02*
D03*
X160039Y64173D02*
D03*
X356299Y102559D02*
D03*
X142618Y77461D02*
D03*
X151378Y111319D02*
D03*
X157874Y102756D02*
D03*
X160925Y70669D02*
D03*
X382579Y148031D02*
D03*
X369783Y152362D02*
D03*
X92116Y181004D02*
D03*
X87904Y190945D02*
D03*
X670079Y91535D02*
D03*
Y82677D02*
D03*
Y73819D02*
D03*
Y65158D02*
D03*
Y56496D02*
D03*
Y47835D02*
D03*
X662008D02*
D03*
X653937D02*
D03*
X645866D02*
D03*
X637795D02*
D03*
X629724D02*
D03*
X621654D02*
D03*
X613583Y47835D02*
D03*
X605512Y47835D02*
D03*
Y56496D02*
D03*
Y65158D02*
D03*
Y73819D02*
D03*
Y82677D02*
D03*
Y91142D02*
D03*
X674409Y214075D02*
D03*
X659842D02*
D03*
X652067D02*
D03*
X638976Y157579D02*
D03*
X652067Y154035D02*
D03*
X659842D02*
D03*
X674409D02*
D03*
X683071D02*
D03*
Y162106D02*
D03*
Y170768D02*
D03*
Y179429D02*
D03*
Y188091D02*
D03*
Y196752D02*
D03*
Y205413D02*
D03*
Y214075D02*
D03*
X150098Y292395D02*
D03*
X161122Y291977D02*
D03*
X123622Y276673D02*
D03*
X154429Y267075D02*
D03*
X161122Y283366D02*
D03*
X161122Y300886D02*
D03*
X150098D02*
D03*
X139075D02*
D03*
X117027D02*
D03*
X128051Y285138D02*
D03*
Y300886D02*
D03*
X117027Y293012D02*
D03*
X197146Y297638D02*
D03*
Y288189D02*
D03*
Y222047D02*
D03*
X174705Y288189D02*
D03*
Y278740D02*
D03*
Y269291D02*
D03*
X174705Y231496D02*
D03*
X45768Y310236D02*
D03*
X18307Y215748D02*
D03*
X45768Y234646D02*
D03*
Y244094D02*
D03*
X18307Y225197D02*
D03*
Y234646D02*
D03*
X15846Y192224D02*
D03*
X197146Y269291D02*
D03*
Y278740D02*
D03*
Y231496D02*
D03*
Y240945D02*
D03*
Y259842D02*
D03*
Y250394D02*
D03*
X139075Y292649D02*
D03*
X128051Y293012D02*
D03*
X161122Y273524D02*
D03*
X145472Y263287D02*
D03*
X48917Y146752D02*
D03*
X76378Y116634D02*
D03*
X61221Y95177D02*
D03*
X52067Y124016D02*
D03*
X65847Y116634D02*
D03*
X78248Y105512D02*
D03*
X18307Y300787D02*
D03*
Y310236D02*
D03*
X45768Y300787D02*
D03*
Y291339D02*
D03*
Y253543D02*
D03*
X18307Y244094D02*
D03*
Y272441D02*
D03*
X45768Y281890D02*
D03*
Y272441D02*
D03*
Y262992D02*
D03*
X92118Y118810D02*
D03*
X174705Y259842D02*
D03*
Y250394D02*
D03*
Y240945D02*
D03*
X135138Y112205D02*
D03*
X308957Y40748D02*
D03*
X309055Y153248D02*
D03*
X18307Y262992D02*
D03*
Y253543D02*
D03*
X59842Y129331D02*
D03*
X455905Y118504D02*
D03*
X450000Y118898D02*
D03*
X435827Y100394D02*
D03*
X357579Y107972D02*
D03*
X354134Y112205D02*
D03*
X81517Y208574D02*
D03*
X74156Y210148D02*
D03*
D220*
X162598Y237402D02*
D03*
X50394Y110236D02*
D03*
X295965Y176969D02*
D03*
X272244Y140354D02*
D03*
X319390Y25000D02*
D03*
X377658Y37008D02*
D03*
X363091D02*
D03*
X392224D02*
D03*
X426476Y250886D02*
D03*
X319488Y126969D02*
D03*
X113673Y244400D02*
D03*
D221*
X151378Y67051D02*
D03*
D222*
X214468Y158760D02*
D03*
X203445D02*
D03*
D223*
X33110Y161221D02*
D03*
X42283D02*
D03*
D224*
X473622Y109547D02*
D03*
X471653D02*
D03*
X469685D02*
D03*
X467716D02*
D03*
X465748D02*
D03*
X463779D02*
D03*
X461811D02*
D03*
X459842D02*
D03*
X457874D02*
D03*
X455905D02*
D03*
X453937D02*
D03*
X451968D02*
D03*
Y77657D02*
D03*
X453937D02*
D03*
X455905D02*
D03*
X457874D02*
D03*
X459842D02*
D03*
X461811D02*
D03*
X463779D02*
D03*
X465748D02*
D03*
X467716D02*
D03*
X469685D02*
D03*
X471653D02*
D03*
X473622D02*
D03*
D225*
X446850Y104428D02*
D03*
Y102460D02*
D03*
Y100491D02*
D03*
Y98523D02*
D03*
Y96554D02*
D03*
Y94586D02*
D03*
Y92617D02*
D03*
Y90649D02*
D03*
Y88680D02*
D03*
Y86712D02*
D03*
Y84743D02*
D03*
Y82775D02*
D03*
X478740D02*
D03*
Y84743D02*
D03*
Y86712D02*
D03*
Y88680D02*
D03*
Y90649D02*
D03*
Y92617D02*
D03*
Y94586D02*
D03*
Y96554D02*
D03*
Y98523D02*
D03*
Y100491D02*
D03*
Y102460D02*
D03*
Y104428D02*
D03*
D226*
X510827Y114763D02*
D03*
Y77362D02*
D03*
D227*
X200079Y132165D02*
D03*
D228*
X207367Y128228D02*
D03*
Y130197D02*
D03*
Y132165D02*
D03*
Y134134D02*
D03*
Y136102D02*
D03*
X192790D02*
D03*
Y134134D02*
D03*
Y132165D02*
D03*
Y130197D02*
D03*
Y128228D02*
D03*
D229*
X204016Y139454D02*
D03*
X202047D02*
D03*
X200079D02*
D03*
X198110D02*
D03*
X196142D02*
D03*
Y124877D02*
D03*
X198110D02*
D03*
X200079D02*
D03*
X202047D02*
D03*
D230*
X204016D02*
D03*
D231*
X30315Y161221D02*
X33110D01*
X28642Y159547D02*
X30315Y161221D01*
X28642Y117618D02*
Y159547D01*
M02*
