G04*
G04 #@! TF.GenerationSoftware,Altium Limited,Altium Designer,19.1.8 (144)*
G04*
G04 Layer_Color=65535*
%FSLAX25Y25*%
%MOIN*%
G70*
G01*
G75*
%ADD10C,0.00787*%
%ADD11C,0.00945*%
%ADD12C,0.00984*%
%ADD13C,0.00630*%
%ADD14C,0.00300*%
%ADD15C,0.01000*%
%ADD16C,0.00591*%
%ADD17C,0.01181*%
%ADD18C,0.00866*%
%ADD19C,0.00709*%
%ADD20C,0.00800*%
%ADD21C,0.00827*%
G36*
X258073Y198031D02*
Y195667D01*
X251772D01*
Y198031D01*
X258073D01*
D02*
G37*
G36*
X482402Y319291D02*
X442402D01*
Y324291D01*
X482402D01*
Y319291D01*
D02*
G37*
G36*
X22866Y98673D02*
Y97872D01*
X17323Y95605D01*
Y96438D01*
X19005Y97087D01*
Y99410D01*
X17323Y100010D01*
Y100787D01*
X22866Y98673D01*
D02*
G37*
G36*
X21344Y94436D02*
X19109D01*
X19101D01*
X19085D01*
X19061D01*
X19021D01*
X18933D01*
X18821Y94428D01*
X18701D01*
X18580Y94419D01*
X18476Y94411D01*
X18388Y94395D01*
X18380D01*
X18348Y94379D01*
X18300Y94363D01*
X18236Y94339D01*
X18172Y94299D01*
X18100Y94251D01*
X18036Y94195D01*
X17972Y94123D01*
X17964Y94115D01*
X17948Y94083D01*
X17924Y94043D01*
X17900Y93979D01*
X17867Y93907D01*
X17843Y93819D01*
X17828Y93723D01*
X17819Y93611D01*
Y93554D01*
X17828Y93498D01*
X17835Y93426D01*
X17860Y93338D01*
X17884Y93242D01*
X17924Y93138D01*
X17972Y93034D01*
X17980Y93018D01*
X18004Y92986D01*
X18036Y92938D01*
X18084Y92882D01*
X18148Y92817D01*
X18220Y92753D01*
X18300Y92697D01*
X18396Y92649D01*
X18412Y92641D01*
X18444Y92633D01*
X18508Y92617D01*
X18596Y92593D01*
X18709Y92569D01*
X18845Y92553D01*
X19005Y92545D01*
X19189Y92537D01*
X21344D01*
Y91856D01*
X17323D01*
Y92465D01*
X17908D01*
X17900Y92473D01*
X17876Y92489D01*
X17843Y92513D01*
X17803Y92553D01*
X17755Y92601D01*
X17691Y92657D01*
X17635Y92721D01*
X17571Y92801D01*
X17507Y92889D01*
X17451Y92986D01*
X17395Y93090D01*
X17339Y93202D01*
X17299Y93330D01*
X17267Y93458D01*
X17243Y93602D01*
X17235Y93747D01*
Y93803D01*
X17243Y93875D01*
X17251Y93963D01*
X17267Y94067D01*
X17291Y94179D01*
X17323Y94291D01*
X17371Y94411D01*
X17379Y94428D01*
X17395Y94459D01*
X17427Y94516D01*
X17467Y94580D01*
X17515Y94660D01*
X17571Y94732D01*
X17635Y94804D01*
X17707Y94868D01*
X17715Y94876D01*
X17747Y94892D01*
X17787Y94916D01*
X17852Y94948D01*
X17924Y94988D01*
X18012Y95020D01*
X18108Y95052D01*
X18212Y95076D01*
X18220D01*
X18252Y95084D01*
X18300Y95092D01*
X18364D01*
X18460Y95100D01*
X18564Y95108D01*
X18701Y95116D01*
X18853D01*
X21344D01*
Y94436D01*
D02*
G37*
G36*
Y90679D02*
X22337D01*
X22746Y89998D01*
X21344D01*
Y89309D01*
X20815D01*
Y89998D01*
X18452D01*
X18436D01*
X18404D01*
X18356D01*
X18300Y89990D01*
X18172Y89982D01*
X18116Y89974D01*
X18076Y89966D01*
X18060Y89958D01*
X18028Y89934D01*
X17988Y89902D01*
X17948Y89846D01*
X17940Y89830D01*
X17924Y89790D01*
X17908Y89718D01*
X17900Y89613D01*
Y89533D01*
X17908Y89493D01*
Y89437D01*
X17916Y89373D01*
X17924Y89309D01*
X17323Y89221D01*
Y89237D01*
X17315Y89269D01*
X17307Y89325D01*
X17299Y89397D01*
X17283Y89477D01*
X17275Y89565D01*
X17267Y89742D01*
Y89806D01*
X17275Y89870D01*
X17283Y89950D01*
X17291Y90046D01*
X17315Y90142D01*
X17339Y90230D01*
X17379Y90318D01*
X17387Y90326D01*
X17403Y90350D01*
X17427Y90382D01*
X17467Y90430D01*
X17507Y90470D01*
X17563Y90519D01*
X17619Y90567D01*
X17691Y90599D01*
X17699D01*
X17731Y90615D01*
X17787Y90623D01*
X17867Y90639D01*
X17972Y90655D01*
X18036Y90663D01*
X18108D01*
X18196Y90671D01*
X18284Y90679D01*
X18380D01*
X18492D01*
X20815D01*
Y91183D01*
X21344D01*
Y90679D01*
D02*
G37*
G36*
X19437Y88885D02*
X19518D01*
X19606Y88876D01*
X19718Y88860D01*
X19830Y88845D01*
X19958Y88813D01*
X20086Y88780D01*
X20222Y88740D01*
X20367Y88692D01*
X20503Y88628D01*
X20631Y88564D01*
X20759Y88476D01*
X20879Y88388D01*
X20983Y88276D01*
X20991Y88268D01*
X20999Y88252D01*
X21023Y88220D01*
X21056Y88180D01*
X21088Y88132D01*
X21128Y88068D01*
X21168Y88003D01*
X21208Y87923D01*
X21248Y87835D01*
X21288Y87739D01*
X21360Y87523D01*
X21416Y87274D01*
X21424Y87146D01*
X21432Y87010D01*
Y86930D01*
X21424Y86874D01*
X21416Y86802D01*
X21400Y86722D01*
X21384Y86634D01*
X21368Y86530D01*
X21296Y86313D01*
X21256Y86201D01*
X21200Y86089D01*
X21144Y85977D01*
X21064Y85865D01*
X20983Y85761D01*
X20887Y85656D01*
X20879Y85649D01*
X20863Y85632D01*
X20831Y85609D01*
X20791Y85576D01*
X20735Y85536D01*
X20663Y85488D01*
X20583Y85440D01*
X20495Y85392D01*
X20399Y85344D01*
X20279Y85296D01*
X20158Y85248D01*
X20022Y85208D01*
X19878Y85176D01*
X19726Y85152D01*
X19566Y85136D01*
X19389Y85128D01*
X19381D01*
X19357D01*
X19317D01*
X19261D01*
X19197Y85136D01*
X19117Y85144D01*
X19037D01*
X18949Y85160D01*
X18749Y85184D01*
X18548Y85232D01*
X18348Y85288D01*
X18164Y85368D01*
X18156D01*
X18148Y85376D01*
X18124Y85392D01*
X18092Y85408D01*
X18012Y85464D01*
X17916Y85536D01*
X17803Y85632D01*
X17691Y85753D01*
X17579Y85889D01*
X17475Y86049D01*
Y86057D01*
X17467Y86065D01*
X17451Y86089D01*
X17435Y86129D01*
X17419Y86169D01*
X17403Y86217D01*
X17355Y86337D01*
X17315Y86474D01*
X17275Y86642D01*
X17243Y86818D01*
X17235Y87010D01*
Y87090D01*
X17243Y87154D01*
X17251Y87226D01*
X17267Y87307D01*
X17283Y87403D01*
X17299Y87499D01*
X17363Y87715D01*
X17411Y87835D01*
X17459Y87947D01*
X17523Y88060D01*
X17595Y88172D01*
X17675Y88276D01*
X17771Y88380D01*
X17779Y88388D01*
X17795Y88404D01*
X17828Y88428D01*
X17876Y88460D01*
X17932Y88500D01*
X17996Y88540D01*
X18076Y88588D01*
X18172Y88636D01*
X18276Y88684D01*
X18396Y88732D01*
X18524Y88772D01*
X18661Y88813D01*
X18813Y88845D01*
X18973Y88868D01*
X19149Y88885D01*
X19333Y88893D01*
X19349D01*
X19381D01*
X19437Y88885D01*
D02*
G37*
G36*
X22866Y83646D02*
X22089D01*
Y84327D01*
X22866D01*
Y83646D01*
D02*
G37*
G36*
X21344D02*
X17323D01*
Y84327D01*
X21344D01*
Y83646D01*
D02*
G37*
G36*
Y81996D02*
X20767D01*
X20775Y81988D01*
X20799Y81972D01*
X20831Y81948D01*
X20871Y81916D01*
X20919Y81868D01*
X20975Y81812D01*
X21039Y81748D01*
X21104Y81668D01*
X21160Y81587D01*
X21224Y81491D01*
X21280Y81387D01*
X21328Y81275D01*
X21368Y81147D01*
X21400Y81019D01*
X21424Y80875D01*
X21432Y80722D01*
Y80658D01*
X21424Y80594D01*
X21416Y80506D01*
X21400Y80402D01*
X21376Y80290D01*
X21344Y80170D01*
X21296Y80058D01*
X21288Y80041D01*
X21272Y80010D01*
X21248Y79953D01*
X21208Y79889D01*
X21160Y79809D01*
X21096Y79737D01*
X21032Y79665D01*
X20951Y79601D01*
X20943Y79593D01*
X20911Y79577D01*
X20871Y79553D01*
X20815Y79513D01*
X20735Y79481D01*
X20655Y79449D01*
X20559Y79409D01*
X20455Y79385D01*
X20447D01*
X20415Y79377D01*
X20367Y79369D01*
X20303Y79361D01*
X20206D01*
X20094Y79353D01*
X19958Y79345D01*
X19790D01*
X17323D01*
Y80026D01*
X19758D01*
X19766D01*
X19774D01*
X19830D01*
X19902D01*
X19990Y80033D01*
X20094Y80041D01*
X20198Y80058D01*
X20295Y80082D01*
X20383Y80106D01*
X20391D01*
X20415Y80122D01*
X20455Y80146D01*
X20503Y80170D01*
X20551Y80210D01*
X20607Y80258D01*
X20663Y80322D01*
X20711Y80394D01*
X20719Y80402D01*
X20735Y80426D01*
X20751Y80474D01*
X20775Y80530D01*
X20799Y80594D01*
X20823Y80674D01*
X20831Y80770D01*
X20839Y80866D01*
Y80907D01*
X20831Y80939D01*
X20823Y81019D01*
X20807Y81123D01*
X20767Y81235D01*
X20719Y81363D01*
X20655Y81491D01*
X20559Y81612D01*
X20543Y81628D01*
X20503Y81660D01*
X20471Y81684D01*
X20431Y81708D01*
X20383Y81740D01*
X20327Y81764D01*
X20263Y81796D01*
X20182Y81828D01*
X20094Y81852D01*
X19998Y81876D01*
X19894Y81892D01*
X19782Y81908D01*
X19646Y81924D01*
X19510D01*
X17323D01*
Y82605D01*
X21344D01*
Y81996D01*
D02*
G37*
G36*
Y78135D02*
X21768D01*
X21776D01*
X21784D01*
X21833D01*
X21905Y78127D01*
X21993D01*
X22089Y78119D01*
X22193Y78103D01*
X22289Y78087D01*
X22369Y78063D01*
X22377Y78055D01*
X22417Y78047D01*
X22465Y78023D01*
X22521Y77983D01*
X22585Y77935D01*
X22658Y77879D01*
X22730Y77807D01*
X22794Y77719D01*
X22802Y77711D01*
X22818Y77671D01*
X22850Y77614D01*
X22882Y77534D01*
X22906Y77438D01*
X22938Y77318D01*
X22954Y77182D01*
X22962Y77022D01*
Y76910D01*
X22954Y76837D01*
X22946Y76741D01*
X22930Y76629D01*
X22914Y76517D01*
X22890Y76389D01*
X22297Y76493D01*
Y76501D01*
X22305Y76525D01*
X22313Y76565D01*
X22321Y76621D01*
Y76685D01*
X22329Y76749D01*
X22337Y76894D01*
Y76942D01*
X22329Y76998D01*
X22321Y77062D01*
X22305Y77134D01*
X22281Y77206D01*
X22249Y77270D01*
X22201Y77326D01*
X22193Y77334D01*
X22177Y77342D01*
X22145Y77366D01*
X22089Y77390D01*
X22025Y77414D01*
X21945Y77430D01*
X21840Y77446D01*
X21712Y77454D01*
X21344D01*
Y76677D01*
X20815D01*
Y77454D01*
X17323D01*
Y78135D01*
X20815D01*
Y78736D01*
X21344D01*
Y78135D01*
D02*
G37*
G36*
X19437Y76389D02*
X19518D01*
X19606Y76381D01*
X19718Y76365D01*
X19830Y76349D01*
X19958Y76317D01*
X20086Y76285D01*
X20222Y76245D01*
X20367Y76197D01*
X20503Y76133D01*
X20631Y76069D01*
X20759Y75980D01*
X20879Y75892D01*
X20983Y75780D01*
X20991Y75772D01*
X20999Y75756D01*
X21023Y75724D01*
X21056Y75684D01*
X21088Y75636D01*
X21128Y75572D01*
X21168Y75508D01*
X21208Y75428D01*
X21248Y75340D01*
X21288Y75244D01*
X21360Y75027D01*
X21416Y74779D01*
X21424Y74651D01*
X21432Y74515D01*
Y74435D01*
X21424Y74378D01*
X21416Y74306D01*
X21400Y74226D01*
X21384Y74138D01*
X21368Y74034D01*
X21296Y73818D01*
X21256Y73706D01*
X21200Y73593D01*
X21144Y73481D01*
X21064Y73369D01*
X20983Y73265D01*
X20887Y73161D01*
X20879Y73153D01*
X20863Y73137D01*
X20831Y73113D01*
X20791Y73081D01*
X20735Y73041D01*
X20663Y72993D01*
X20583Y72945D01*
X20495Y72897D01*
X20399Y72848D01*
X20279Y72800D01*
X20158Y72752D01*
X20022Y72712D01*
X19878Y72680D01*
X19726Y72656D01*
X19566Y72640D01*
X19389Y72632D01*
X19381D01*
X19357D01*
X19317D01*
X19261D01*
X19197Y72640D01*
X19117Y72648D01*
X19037D01*
X18949Y72664D01*
X18749Y72688D01*
X18548Y72736D01*
X18348Y72793D01*
X18164Y72873D01*
X18156D01*
X18148Y72881D01*
X18124Y72897D01*
X18092Y72913D01*
X18012Y72969D01*
X17916Y73041D01*
X17803Y73137D01*
X17691Y73257D01*
X17579Y73393D01*
X17475Y73553D01*
Y73561D01*
X17467Y73569D01*
X17451Y73593D01*
X17435Y73633D01*
X17419Y73674D01*
X17403Y73722D01*
X17355Y73842D01*
X17315Y73978D01*
X17275Y74146D01*
X17243Y74322D01*
X17235Y74515D01*
Y74595D01*
X17243Y74659D01*
X17251Y74731D01*
X17267Y74811D01*
X17283Y74907D01*
X17299Y75003D01*
X17363Y75220D01*
X17411Y75340D01*
X17459Y75452D01*
X17523Y75564D01*
X17595Y75676D01*
X17675Y75780D01*
X17771Y75884D01*
X17779Y75892D01*
X17795Y75908D01*
X17828Y75932D01*
X17876Y75964D01*
X17932Y76004D01*
X17996Y76044D01*
X18076Y76093D01*
X18172Y76141D01*
X18276Y76189D01*
X18396Y76237D01*
X18524Y76277D01*
X18661Y76317D01*
X18813Y76349D01*
X18973Y76373D01*
X19149Y76389D01*
X19333Y76397D01*
X19349D01*
X19381D01*
X19437Y76389D01*
D02*
G37*
G36*
X21344Y71223D02*
X20735D01*
X20743Y71214D01*
X20799Y71182D01*
X20871Y71142D01*
X20959Y71078D01*
X21047Y71014D01*
X21144Y70942D01*
X21224Y70870D01*
X21288Y70798D01*
X21296Y70790D01*
X21312Y70766D01*
X21336Y70718D01*
X21360Y70670D01*
X21384Y70606D01*
X21408Y70526D01*
X21424Y70446D01*
X21432Y70357D01*
Y70301D01*
X21424Y70229D01*
X21408Y70141D01*
X21376Y70037D01*
X21336Y69925D01*
X21280Y69797D01*
X21208Y69661D01*
X20583Y69909D01*
X20591Y69917D01*
X20607Y69949D01*
X20631Y69997D01*
X20655Y70061D01*
X20679Y70133D01*
X20703Y70221D01*
X20719Y70309D01*
X20727Y70398D01*
Y70438D01*
X20719Y70478D01*
X20711Y70534D01*
X20695Y70590D01*
X20671Y70662D01*
X20639Y70734D01*
X20591Y70798D01*
X20583Y70806D01*
X20567Y70830D01*
X20535Y70854D01*
X20495Y70894D01*
X20439Y70934D01*
X20375Y70974D01*
X20303Y71014D01*
X20214Y71046D01*
X20198Y71054D01*
X20150Y71062D01*
X20078Y71078D01*
X19982Y71102D01*
X19862Y71126D01*
X19726Y71142D01*
X19582Y71150D01*
X19421Y71158D01*
X17323D01*
Y71839D01*
X21344D01*
Y71223D01*
D02*
G37*
G36*
Y68651D02*
X20767D01*
X20783Y68643D01*
X20815Y68619D01*
X20871Y68571D01*
X20935Y68515D01*
X21015Y68443D01*
X21096Y68355D01*
X21176Y68259D01*
X21248Y68147D01*
X21256Y68131D01*
X21280Y68091D01*
X21304Y68027D01*
X21344Y67938D01*
X21376Y67834D01*
X21400Y67714D01*
X21424Y67578D01*
X21432Y67434D01*
Y67362D01*
X21424Y67274D01*
X21408Y67177D01*
X21384Y67057D01*
X21352Y66937D01*
X21304Y66817D01*
X21240Y66705D01*
X21232Y66689D01*
X21208Y66657D01*
X21168Y66609D01*
X21104Y66545D01*
X21032Y66481D01*
X20943Y66408D01*
X20839Y66344D01*
X20719Y66296D01*
X20727Y66288D01*
X20751Y66272D01*
X20783Y66248D01*
X20831Y66208D01*
X20887Y66160D01*
X20943Y66104D01*
X21007Y66040D01*
X21080Y65960D01*
X21144Y65872D01*
X21208Y65784D01*
X21264Y65680D01*
X21320Y65567D01*
X21368Y65447D01*
X21400Y65319D01*
X21424Y65191D01*
X21432Y65047D01*
Y64991D01*
X21424Y64951D01*
Y64895D01*
X21416Y64838D01*
X21392Y64702D01*
X21352Y64558D01*
X21288Y64406D01*
X21208Y64254D01*
X21096Y64126D01*
X21080Y64110D01*
X21032Y64078D01*
X20959Y64021D01*
X20903Y63998D01*
X20847Y63965D01*
X20775Y63933D01*
X20703Y63909D01*
X20623Y63877D01*
X20527Y63853D01*
X20431Y63837D01*
X20319Y63821D01*
X20206Y63805D01*
X20078D01*
X17323D01*
Y64486D01*
X19846D01*
X19854D01*
X19862D01*
X19910D01*
X19982D01*
X20070Y64494D01*
X20166Y64502D01*
X20263Y64510D01*
X20359Y64526D01*
X20431Y64550D01*
X20439D01*
X20463Y64566D01*
X20495Y64582D01*
X20535Y64606D01*
X20583Y64638D01*
X20631Y64678D01*
X20679Y64726D01*
X20727Y64790D01*
X20735Y64798D01*
X20743Y64823D01*
X20759Y64855D01*
X20783Y64911D01*
X20807Y64967D01*
X20823Y65039D01*
X20831Y65111D01*
X20839Y65199D01*
Y65239D01*
X20831Y65271D01*
X20823Y65351D01*
X20807Y65447D01*
X20767Y65559D01*
X20719Y65680D01*
X20647Y65800D01*
X20551Y65912D01*
X20535Y65920D01*
X20495Y65952D01*
X20431Y66000D01*
X20335Y66048D01*
X20206Y66104D01*
X20054Y66144D01*
X19870Y66176D01*
X19654Y66192D01*
X17323D01*
Y66873D01*
X19926D01*
X19934D01*
X19950D01*
X19966D01*
X19998D01*
X20086Y66881D01*
X20182Y66897D01*
X20295Y66913D01*
X20407Y66945D01*
X20511Y66985D01*
X20607Y67041D01*
X20615Y67049D01*
X20647Y67073D01*
X20679Y67113D01*
X20727Y67169D01*
X20767Y67242D01*
X20807Y67338D01*
X20831Y67450D01*
X20839Y67586D01*
Y67634D01*
X20831Y67690D01*
X20823Y67754D01*
X20799Y67834D01*
X20775Y67930D01*
X20735Y68019D01*
X20687Y68115D01*
X20679Y68123D01*
X20655Y68155D01*
X20623Y68195D01*
X20575Y68251D01*
X20511Y68307D01*
X20431Y68363D01*
X20343Y68419D01*
X20238Y68467D01*
X20222Y68475D01*
X20182Y68483D01*
X20118Y68499D01*
X20030Y68523D01*
X19910Y68547D01*
X19766Y68563D01*
X19598Y68571D01*
X19405Y68579D01*
X17323D01*
Y69260D01*
X21344D01*
Y68651D01*
D02*
G37*
G36*
X19462Y63020D02*
X19550Y63012D01*
X19646Y63004D01*
X19758Y62988D01*
X19870Y62964D01*
X20126Y62900D01*
X20255Y62860D01*
X20391Y62812D01*
X20519Y62748D01*
X20639Y62676D01*
X20759Y62596D01*
X20871Y62508D01*
X20879Y62500D01*
X20895Y62484D01*
X20919Y62451D01*
X20959Y62411D01*
X20999Y62363D01*
X21047Y62299D01*
X21104Y62227D01*
X21152Y62139D01*
X21208Y62051D01*
X21256Y61947D01*
X21304Y61835D01*
X21344Y61715D01*
X21384Y61586D01*
X21408Y61450D01*
X21424Y61306D01*
X21432Y61154D01*
Y61074D01*
X21424Y61018D01*
X21416Y60954D01*
X21400Y60874D01*
X21384Y60786D01*
X21360Y60681D01*
X21336Y60585D01*
X21296Y60473D01*
X21256Y60369D01*
X21200Y60257D01*
X21136Y60145D01*
X21064Y60032D01*
X20975Y59928D01*
X20879Y59832D01*
X20871Y59824D01*
X20855Y59808D01*
X20823Y59784D01*
X20775Y59752D01*
X20719Y59712D01*
X20655Y59672D01*
X20575Y59624D01*
X20479Y59576D01*
X20375Y59528D01*
X20263Y59480D01*
X20134Y59440D01*
X19998Y59400D01*
X19846Y59368D01*
X19686Y59344D01*
X19518Y59328D01*
X19333Y59320D01*
X19325D01*
X19293D01*
X19237D01*
X19157Y59328D01*
Y62331D01*
X19149D01*
X19125D01*
X19093Y62323D01*
X19045D01*
X18989Y62315D01*
X18925Y62299D01*
X18781Y62275D01*
X18620Y62227D01*
X18444Y62163D01*
X18284Y62075D01*
X18140Y61963D01*
Y61955D01*
X18124Y61947D01*
X18084Y61899D01*
X18028Y61827D01*
X17972Y61731D01*
X17908Y61602D01*
X17852Y61458D01*
X17811Y61298D01*
X17803Y61210D01*
X17795Y61114D01*
Y61050D01*
X17803Y60978D01*
X17819Y60890D01*
X17843Y60794D01*
X17876Y60681D01*
X17924Y60577D01*
X17988Y60473D01*
X17996Y60465D01*
X18028Y60425D01*
X18076Y60377D01*
X18140Y60321D01*
X18228Y60257D01*
X18340Y60185D01*
X18468Y60113D01*
X18620Y60049D01*
X18532Y59344D01*
X18524D01*
X18508Y59352D01*
X18476Y59360D01*
X18428Y59376D01*
X18380Y59400D01*
X18316Y59424D01*
X18180Y59488D01*
X18028Y59568D01*
X17867Y59680D01*
X17715Y59808D01*
X17571Y59968D01*
Y59977D01*
X17555Y59992D01*
X17539Y60017D01*
X17515Y60049D01*
X17491Y60097D01*
X17467Y60145D01*
X17435Y60209D01*
X17403Y60281D01*
X17371Y60361D01*
X17339Y60441D01*
X17291Y60641D01*
X17251Y60866D01*
X17235Y61114D01*
Y61202D01*
X17243Y61258D01*
X17251Y61330D01*
X17267Y61418D01*
X17283Y61514D01*
X17299Y61619D01*
X17363Y61843D01*
X17411Y61963D01*
X17459Y62075D01*
X17523Y62195D01*
X17595Y62307D01*
X17675Y62411D01*
X17771Y62516D01*
X17779Y62524D01*
X17795Y62540D01*
X17828Y62564D01*
X17876Y62596D01*
X17932Y62636D01*
X17996Y62676D01*
X18076Y62724D01*
X18164Y62772D01*
X18268Y62820D01*
X18380Y62868D01*
X18508Y62908D01*
X18644Y62948D01*
X18789Y62980D01*
X18949Y63004D01*
X19117Y63020D01*
X19293Y63028D01*
X19301D01*
X19341D01*
X19389D01*
X19462Y63020D01*
D02*
G37*
G36*
X21344Y57878D02*
X20735D01*
X20743Y57870D01*
X20799Y57838D01*
X20871Y57798D01*
X20959Y57734D01*
X21047Y57670D01*
X21144Y57598D01*
X21224Y57525D01*
X21288Y57453D01*
X21296Y57445D01*
X21312Y57421D01*
X21336Y57373D01*
X21360Y57325D01*
X21384Y57261D01*
X21408Y57181D01*
X21424Y57101D01*
X21432Y57013D01*
Y56957D01*
X21424Y56885D01*
X21408Y56796D01*
X21376Y56692D01*
X21336Y56580D01*
X21280Y56452D01*
X21208Y56316D01*
X20583Y56564D01*
X20591Y56572D01*
X20607Y56604D01*
X20631Y56652D01*
X20655Y56716D01*
X20679Y56788D01*
X20703Y56877D01*
X20719Y56965D01*
X20727Y57053D01*
Y57093D01*
X20719Y57133D01*
X20711Y57189D01*
X20695Y57245D01*
X20671Y57317D01*
X20639Y57389D01*
X20591Y57453D01*
X20583Y57461D01*
X20567Y57485D01*
X20535Y57509D01*
X20495Y57549D01*
X20439Y57590D01*
X20375Y57630D01*
X20303Y57670D01*
X20214Y57702D01*
X20198Y57710D01*
X20150Y57718D01*
X20078Y57734D01*
X19982Y57758D01*
X19862Y57782D01*
X19726Y57798D01*
X19582Y57806D01*
X19421Y57814D01*
X17323D01*
Y58495D01*
X21344D01*
Y57878D01*
D02*
G37*
G36*
Y53456D02*
X18933Y52591D01*
X18925D01*
X18917Y52583D01*
X18893Y52575D01*
X18869Y52567D01*
X18789Y52543D01*
X18685Y52511D01*
X18564Y52471D01*
X18428Y52423D01*
X18276Y52383D01*
X18124Y52335D01*
X18140Y52327D01*
X18180Y52319D01*
X18244Y52295D01*
X18340Y52271D01*
X18444Y52231D01*
X18580Y52191D01*
X18725Y52135D01*
X18885Y52079D01*
X21344Y51190D01*
Y50485D01*
X17323Y52014D01*
Y52663D01*
X21344Y54177D01*
Y53456D01*
D02*
G37*
G36*
X21496Y49539D02*
X21512Y49523D01*
X21520Y49491D01*
X21544Y49451D01*
X21568Y49403D01*
X21600Y49347D01*
X21680Y49211D01*
X21768Y49051D01*
X21881Y48891D01*
X22009Y48722D01*
X22145Y48554D01*
X22153Y48546D01*
X22161Y48538D01*
X22185Y48514D01*
X22209Y48482D01*
X22289Y48410D01*
X22385Y48314D01*
X22497Y48218D01*
X22625Y48114D01*
X22754Y48026D01*
X22890Y47945D01*
Y47505D01*
X17323D01*
Y48186D01*
X21656D01*
X21648Y48194D01*
X21616Y48234D01*
X21568Y48282D01*
X21512Y48362D01*
X21440Y48450D01*
X21360Y48562D01*
X21272Y48690D01*
X21184Y48835D01*
Y48843D01*
X21176Y48851D01*
X21144Y48899D01*
X21104Y48979D01*
X21056Y49075D01*
X20999Y49187D01*
X20943Y49307D01*
X20887Y49427D01*
X20839Y49547D01*
X21496D01*
Y49539D01*
D02*
G37*
G36*
X18100Y44597D02*
X17323D01*
Y45374D01*
X18100D01*
Y44597D01*
D02*
G37*
G36*
X20303Y43596D02*
X20399D01*
X20503Y43588D01*
X20623Y43580D01*
X20871Y43556D01*
X21136Y43516D01*
X21400Y43468D01*
X21520Y43436D01*
X21640Y43404D01*
X21648D01*
X21664Y43396D01*
X21696Y43380D01*
X21736Y43364D01*
X21792Y43348D01*
X21848Y43316D01*
X21985Y43252D01*
X22129Y43172D01*
X22281Y43067D01*
X22433Y42947D01*
X22561Y42803D01*
Y42795D01*
X22577Y42787D01*
X22593Y42763D01*
X22609Y42731D01*
X22641Y42691D01*
X22666Y42643D01*
X22730Y42523D01*
X22786Y42379D01*
X22842Y42210D01*
X22874Y42010D01*
X22890Y41794D01*
Y41722D01*
X22882Y41634D01*
X22866Y41529D01*
X22842Y41409D01*
X22810Y41281D01*
X22770Y41145D01*
X22706Y41017D01*
Y41009D01*
X22698Y41001D01*
X22673Y40961D01*
X22634Y40897D01*
X22577Y40817D01*
X22497Y40728D01*
X22409Y40632D01*
X22305Y40544D01*
X22185Y40456D01*
X22169Y40448D01*
X22129Y40416D01*
X22057Y40384D01*
X21953Y40328D01*
X21833Y40280D01*
X21696Y40216D01*
X21536Y40160D01*
X21360Y40112D01*
X21352D01*
X21336Y40104D01*
X21312Y40096D01*
X21272Y40088D01*
X21224Y40080D01*
X21168Y40072D01*
X21096Y40056D01*
X21015Y40048D01*
X20927Y40032D01*
X20831Y40024D01*
X20719Y40016D01*
X20607Y39999D01*
X20479Y39992D01*
X20351D01*
X20206Y39983D01*
X20054D01*
X20046D01*
X20014D01*
X19958D01*
X19894D01*
X19806Y39992D01*
X19710D01*
X19606Y39999D01*
X19493Y40007D01*
X19237Y40032D01*
X18973Y40072D01*
X18717Y40120D01*
X18596Y40152D01*
X18476Y40192D01*
X18468D01*
X18452Y40200D01*
X18420Y40216D01*
X18380Y40232D01*
X18324Y40248D01*
X18268Y40280D01*
X18132Y40344D01*
X17988Y40424D01*
X17828Y40528D01*
X17683Y40648D01*
X17547Y40793D01*
Y40800D01*
X17531Y40808D01*
X17515Y40833D01*
X17499Y40865D01*
X17475Y40905D01*
X17443Y40945D01*
X17387Y41065D01*
X17331Y41209D01*
X17275Y41377D01*
X17243Y41578D01*
X17227Y41794D01*
Y41874D01*
X17235Y41930D01*
X17243Y41994D01*
X17259Y42074D01*
X17275Y42162D01*
X17299Y42258D01*
X17331Y42355D01*
X17363Y42459D01*
X17411Y42563D01*
X17467Y42667D01*
X17531Y42771D01*
X17611Y42875D01*
X17699Y42971D01*
X17795Y43059D01*
X17803Y43067D01*
X17828Y43083D01*
X17867Y43107D01*
X17932Y43147D01*
X18004Y43187D01*
X18100Y43228D01*
X18212Y43284D01*
X18340Y43332D01*
X18484Y43380D01*
X18653Y43428D01*
X18837Y43476D01*
X19045Y43516D01*
X19269Y43556D01*
X19510Y43580D01*
X19774Y43596D01*
X20054Y43604D01*
X20062D01*
X20094D01*
X20150D01*
X20214D01*
X20303Y43596D01*
D02*
G37*
%LPC*%
G36*
X19606Y99193D02*
Y97319D01*
X21128Y97896D01*
X21136D01*
X21160Y97904D01*
X21200Y97920D01*
X21248Y97936D01*
X21304Y97960D01*
X21376Y97984D01*
X21456Y98008D01*
X21536Y98040D01*
X21720Y98104D01*
X21913Y98168D01*
X22105Y98232D01*
X22289Y98288D01*
X22281D01*
X22265Y98296D01*
X22233D01*
X22201Y98312D01*
X22145Y98320D01*
X22089Y98336D01*
X21953Y98368D01*
X21792Y98408D01*
X21616Y98465D01*
X21424Y98521D01*
X21224Y98593D01*
X19606Y99193D01*
D02*
G37*
G36*
X19333Y88196D02*
X19325D01*
X19301D01*
X19261D01*
X19205Y88188D01*
X19141D01*
X19069Y88180D01*
X18901Y88156D01*
X18709Y88116D01*
X18516Y88051D01*
X18332Y87971D01*
X18252Y87915D01*
X18172Y87859D01*
Y87851D01*
X18156Y87843D01*
X18116Y87795D01*
X18052Y87723D01*
X17988Y87627D01*
X17916Y87507D01*
X17852Y87363D01*
X17811Y87194D01*
X17803Y87106D01*
X17795Y87010D01*
Y86962D01*
X17803Y86922D01*
X17819Y86834D01*
X17843Y86714D01*
X17892Y86586D01*
X17956Y86441D01*
X18052Y86305D01*
X18116Y86233D01*
X18180Y86169D01*
X18188Y86161D01*
X18196Y86153D01*
X18220Y86137D01*
X18252Y86113D01*
X18292Y86089D01*
X18340Y86057D01*
X18404Y86025D01*
X18468Y85993D01*
X18548Y85961D01*
X18636Y85937D01*
X18733Y85905D01*
X18837Y85881D01*
X18957Y85857D01*
X19077Y85841D01*
X19213Y85825D01*
X19357D01*
X19365D01*
X19389D01*
X19430D01*
X19478Y85833D01*
X19542D01*
X19614Y85841D01*
X19782Y85865D01*
X19958Y85905D01*
X20150Y85969D01*
X20327Y86057D01*
X20415Y86105D01*
X20487Y86169D01*
X20495D01*
X20503Y86185D01*
X20551Y86233D01*
X20607Y86305D01*
X20679Y86401D01*
X20751Y86522D01*
X20815Y86666D01*
X20855Y86826D01*
X20863Y86914D01*
X20871Y87010D01*
Y87058D01*
X20863Y87098D01*
X20855Y87186D01*
X20823Y87307D01*
X20775Y87443D01*
X20711Y87587D01*
X20615Y87723D01*
X20551Y87795D01*
X20487Y87859D01*
X20479D01*
X20471Y87875D01*
X20447Y87891D01*
X20415Y87915D01*
X20375Y87939D01*
X20327Y87963D01*
X20263Y87995D01*
X20198Y88028D01*
X20118Y88060D01*
X20038Y88092D01*
X19942Y88116D01*
X19838Y88140D01*
X19726Y88164D01*
X19606Y88180D01*
X19469Y88188D01*
X19333Y88196D01*
D02*
G37*
G36*
Y75700D02*
X19325D01*
X19301D01*
X19261D01*
X19205Y75692D01*
X19141D01*
X19069Y75684D01*
X18901Y75660D01*
X18709Y75620D01*
X18516Y75556D01*
X18332Y75476D01*
X18252Y75420D01*
X18172Y75364D01*
Y75356D01*
X18156Y75348D01*
X18116Y75300D01*
X18052Y75227D01*
X17988Y75131D01*
X17916Y75011D01*
X17852Y74867D01*
X17811Y74699D01*
X17803Y74611D01*
X17795Y74515D01*
Y74467D01*
X17803Y74427D01*
X17819Y74338D01*
X17843Y74218D01*
X17892Y74090D01*
X17956Y73946D01*
X18052Y73810D01*
X18116Y73738D01*
X18180Y73674D01*
X18188Y73665D01*
X18196Y73658D01*
X18220Y73642D01*
X18252Y73618D01*
X18292Y73593D01*
X18340Y73561D01*
X18404Y73529D01*
X18468Y73497D01*
X18548Y73465D01*
X18636Y73441D01*
X18733Y73409D01*
X18837Y73385D01*
X18957Y73361D01*
X19077Y73345D01*
X19213Y73329D01*
X19357D01*
X19365D01*
X19389D01*
X19430D01*
X19478Y73337D01*
X19542D01*
X19614Y73345D01*
X19782Y73369D01*
X19958Y73409D01*
X20150Y73473D01*
X20327Y73561D01*
X20415Y73610D01*
X20487Y73674D01*
X20495D01*
X20503Y73690D01*
X20551Y73738D01*
X20607Y73810D01*
X20679Y73906D01*
X20751Y74026D01*
X20815Y74170D01*
X20855Y74330D01*
X20863Y74418D01*
X20871Y74515D01*
Y74563D01*
X20863Y74603D01*
X20855Y74691D01*
X20823Y74811D01*
X20775Y74947D01*
X20711Y75091D01*
X20615Y75227D01*
X20551Y75300D01*
X20487Y75364D01*
X20479D01*
X20471Y75380D01*
X20447Y75396D01*
X20415Y75420D01*
X20375Y75444D01*
X20327Y75468D01*
X20263Y75500D01*
X20198Y75532D01*
X20118Y75564D01*
X20038Y75596D01*
X19942Y75620D01*
X19838Y75644D01*
X19726Y75668D01*
X19606Y75684D01*
X19469Y75692D01*
X19333Y75700D01*
D02*
G37*
G36*
X19718Y62291D02*
Y60040D01*
X19726D01*
X19742D01*
X19766Y60049D01*
X19798D01*
X19894Y60065D01*
X19998Y60089D01*
X20126Y60129D01*
X20246Y60169D01*
X20367Y60233D01*
X20471Y60305D01*
X20479D01*
X20487Y60321D01*
X20535Y60361D01*
X20599Y60433D01*
X20671Y60529D01*
X20743Y60649D01*
X20807Y60794D01*
X20855Y60962D01*
X20863Y61050D01*
X20871Y61146D01*
Y61194D01*
X20863Y61226D01*
X20855Y61314D01*
X20831Y61418D01*
X20791Y61546D01*
X20735Y61683D01*
X20655Y61811D01*
X20551Y61939D01*
X20535Y61955D01*
X20495Y61987D01*
X20423Y62043D01*
X20327Y62099D01*
X20214Y62163D01*
X20070Y62219D01*
X19902Y62267D01*
X19718Y62291D01*
D02*
G37*
G36*
X20054Y42907D02*
X20038D01*
X19998D01*
X19926D01*
X19830Y42899D01*
X19726D01*
X19598Y42891D01*
X19462Y42883D01*
X19317Y42867D01*
X19005Y42827D01*
X18853Y42803D01*
X18709Y42771D01*
X18572Y42739D01*
X18444Y42691D01*
X18332Y42643D01*
X18236Y42587D01*
X18228D01*
X18220Y42571D01*
X18164Y42531D01*
X18092Y42459D01*
X18012Y42371D01*
X17932Y42250D01*
X17860Y42114D01*
X17803Y41962D01*
X17795Y41882D01*
X17787Y41794D01*
Y41746D01*
X17795Y41714D01*
X17811Y41634D01*
X17843Y41521D01*
X17900Y41401D01*
X17980Y41265D01*
X18028Y41201D01*
X18092Y41137D01*
X18156Y41073D01*
X18236Y41009D01*
X18244D01*
X18260Y40993D01*
X18284Y40977D01*
X18324Y40961D01*
X18380Y40929D01*
X18452Y40905D01*
X18532Y40873D01*
X18629Y40841D01*
X18749Y40817D01*
X18877Y40784D01*
X19029Y40753D01*
X19189Y40728D01*
X19381Y40712D01*
X19582Y40696D01*
X19806Y40680D01*
X20054D01*
X20062D01*
X20070D01*
X20110D01*
X20182D01*
X20279Y40688D01*
X20383D01*
X20511Y40696D01*
X20647Y40704D01*
X20799Y40720D01*
X21104Y40760D01*
X21256Y40784D01*
X21400Y40817D01*
X21536Y40849D01*
X21664Y40897D01*
X21776Y40945D01*
X21872Y41001D01*
X21881D01*
X21889Y41017D01*
X21913Y41033D01*
X21945Y41057D01*
X22017Y41129D01*
X22105Y41217D01*
X22185Y41337D01*
X22257Y41473D01*
X22289Y41545D01*
X22313Y41625D01*
X22321Y41714D01*
X22329Y41802D01*
Y41850D01*
X22321Y41882D01*
X22305Y41970D01*
X22281Y42074D01*
X22233Y42194D01*
X22161Y42322D01*
X22113Y42386D01*
X22065Y42451D01*
X22001Y42507D01*
X21929Y42563D01*
X21921D01*
X21905Y42579D01*
X21872Y42595D01*
X21833Y42619D01*
X21768Y42643D01*
X21696Y42675D01*
X21608Y42699D01*
X21504Y42731D01*
X21384Y42763D01*
X21248Y42795D01*
X21096Y42827D01*
X20927Y42851D01*
X20735Y42875D01*
X20527Y42891D01*
X20303Y42899D01*
X20054Y42907D01*
D02*
G37*
%LPD*%
D10*
X571574Y57640D02*
G03*
X569174Y57640I-1200J0D01*
G01*
X497736Y212795D02*
G03*
X497736Y212795I-12402J0D01*
G01*
X442716Y277461D02*
G03*
X442716Y277461I-15748J0D01*
G01*
X314410Y154469D02*
G03*
X314410Y154469I-394J0D01*
G01*
X329509Y155332D02*
G03*
X331909Y155332I1200J0D01*
G01*
X314409Y114311D02*
G03*
X314409Y114311I-394J0D01*
G01*
X329509Y115175D02*
G03*
X331909Y115175I1200J0D01*
G01*
X152559Y95079D02*
G03*
X152559Y95079I-394J0D01*
G01*
X144507Y95475D02*
G03*
X142107Y95475I-1200J0D01*
G01*
X35407Y176305D02*
G03*
X35407Y176305I-394J0D01*
G01*
X38386Y145965D02*
G03*
X38386Y145965I-394J0D01*
G01*
X301083Y120177D02*
G03*
X301083Y120177I-9843J0D01*
G01*
X239961Y99311D02*
G03*
X239961Y99311I-12402J0D01*
G01*
X433071Y177264D02*
G03*
X433071Y177264I-7874J0D01*
G01*
X497835Y248721D02*
G03*
X497835Y248721I-12402J0D01*
G01*
X397539Y225295D02*
G03*
X397539Y225295I-12402J0D01*
G01*
X378051Y294882D02*
G03*
X378051Y294882I-9843J0D01*
G01*
X526181Y301575D02*
G03*
X526181Y301575I-19685J0D01*
G01*
X675197Y140650D02*
G03*
X675197Y140650I-19685J0D01*
G01*
X675197Y230610D02*
G03*
X675197Y230610I-19685J0D01*
G01*
X398031Y197244D02*
G03*
X398031Y197244I-12402J0D01*
G01*
X315354Y281299D02*
G03*
X315354Y281299I-12402J0D01*
G01*
X579035Y57087D02*
X584842D01*
X577658Y57421D02*
Y68957D01*
X563091D02*
X577658D01*
X563091Y57421D02*
Y68957D01*
Y57421D02*
X577658D01*
X617618Y16476D02*
X623917D01*
X617618Y17224D02*
X623917D01*
X617618Y14862D02*
Y17224D01*
X623917Y14862D02*
Y17224D01*
X633858Y14862D02*
Y17224D01*
X627559Y14862D02*
Y17224D01*
X633858D01*
X627559Y16476D02*
X633858D01*
X322048Y135728D02*
X339370D01*
X322048Y155413D02*
X339370D01*
X322047Y95571D02*
X339370D01*
X322047Y115256D02*
X339370D01*
X258307Y193898D02*
Y204528D01*
X251535Y193898D02*
Y204528D01*
X137207Y107675D02*
X149407D01*
X137207Y95475D02*
X142107D01*
X144507D01*
X149407D01*
X483169Y20670D02*
Y44292D01*
X469390Y20670D02*
X483169D01*
X469390D02*
Y44292D01*
X483169D01*
X25826Y194400D02*
X39189Y181038D01*
X25826Y194400D02*
X36127Y204701D01*
X99042Y267617D02*
X109343Y277917D01*
X119643Y267617D01*
X182559Y204701D02*
X192859Y194400D01*
X182559Y184100D02*
X192859Y194400D01*
X109343Y110884D02*
X119643Y121184D01*
X99042D02*
X109343Y110884D01*
X27520Y155610D02*
X33661D01*
X27756Y126083D02*
X33661D01*
X13976D02*
X17598D01*
X13976D02*
Y155610D01*
X17559D01*
X269300Y107779D02*
Y132379D01*
X255700Y107779D02*
Y132379D01*
X269300D01*
X255700Y107779D02*
X269300D01*
X345087Y269590D02*
Y294190D01*
X331487Y269590D02*
Y294190D01*
X345087D01*
X331487Y269590D02*
X345087D01*
X474902Y306791D02*
X481902D01*
X461024D02*
X463740D01*
X442902D02*
X449902D01*
X442902D02*
Y319291D01*
X481902Y306791D02*
Y319291D01*
X445768Y265846D02*
Y267618D01*
X443799D02*
X445768D01*
X440354Y262205D02*
X445768Y267618D01*
X436762Y292569D02*
X446063Y283268D01*
X444291D02*
X446063D01*
Y285138D01*
X503051Y219193D02*
X552658D01*
X503051Y269193D02*
X552658D01*
Y258957D02*
Y269193D01*
X503051Y258957D02*
Y269193D01*
X552658Y219193D02*
Y229035D01*
X503051Y219193D02*
Y229035D01*
X503150Y162106D02*
X552756D01*
X503150Y212106D02*
X552756D01*
Y201870D02*
Y212106D01*
X503150Y201870D02*
Y212106D01*
X552756Y162106D02*
Y171949D01*
X503150Y162106D02*
Y171949D01*
X461654Y163386D02*
Y181339D01*
X446260Y164173D02*
Y181102D01*
X615000Y26417D02*
X616339D01*
X364370Y2461D02*
Y13484D01*
Y2461D02*
X393898D01*
Y13484D01*
X369291Y24311D02*
X388976D01*
X429724Y2461D02*
Y13484D01*
Y2461D02*
X459252D01*
Y13484D01*
X434646Y24311D02*
X454331D01*
X494293Y2461D02*
Y13484D01*
Y2461D02*
X523820D01*
Y13484D01*
X499214Y24311D02*
X518899D01*
X548228Y69016D02*
Y69370D01*
X541890Y69055D02*
Y69370D01*
X548228D01*
X541890Y57087D02*
X548268D01*
Y57362D01*
X541890Y57087D02*
Y57480D01*
X546181Y57441D02*
Y69291D01*
X463268Y277756D02*
X469224D01*
X463268Y269449D02*
Y277756D01*
Y269449D02*
X469224D01*
X471327Y277716D02*
X477283D01*
X471327Y269449D02*
X477283D01*
Y277716D01*
X455087Y269291D02*
X461043D01*
Y277598D01*
X455087D02*
X461043D01*
X447028Y269331D02*
X452984D01*
X447028Y277598D02*
X452984D01*
X447028Y269331D02*
Y277598D01*
X250886Y174685D02*
Y180642D01*
Y174685D02*
X259193D01*
Y180642D01*
X250925Y182744D02*
Y188701D01*
X259193Y182744D02*
Y188701D01*
X250925D02*
X259193D01*
X567323Y80610D02*
Y152657D01*
X397244Y134646D02*
Y152657D01*
X414370D02*
X567323D01*
X414370D02*
X567323D01*
X397244Y80610D02*
X567323D01*
X397244D02*
X567323D01*
X397244D02*
Y134252D01*
X397244Y152657D02*
X400591D01*
X397244D02*
X400591D01*
X364291Y144311D02*
X368110D01*
X364291Y80295D02*
Y144311D01*
Y80295D02*
X600276D01*
Y144311D01*
X414291Y144311D02*
X600276Y144311D01*
X379882Y144272D02*
X401417Y144311D01*
X171654Y57481D02*
X181497D01*
X188780Y24016D02*
Y51575D01*
Y394D02*
Y12205D01*
X130906Y394D02*
X188780D01*
X130906D02*
Y12205D01*
Y24016D02*
Y51575D01*
X167106Y348031D02*
X189409D01*
X166831Y327165D02*
X181595D01*
X197933D02*
X303248D01*
X197874Y348031D02*
X303248D01*
X103990Y277305D02*
X106356Y279672D01*
X100927Y280368D02*
X103294Y282734D01*
X84685Y285157D02*
Y295158D01*
X104685D01*
Y285157D02*
Y295158D01*
X84685Y285157D02*
X104685D01*
X91929Y66437D02*
X95768D01*
X50098D02*
X58465D01*
X46043Y491D02*
X107066D01*
X45866Y16339D02*
Y21555D01*
X45965Y37500D02*
Y56201D01*
X106988Y37500D02*
Y56201D01*
Y16339D02*
Y21555D01*
X351516Y24311D02*
Y29232D01*
X339724Y22933D02*
X351220D01*
X339724Y22343D02*
Y22933D01*
Y22343D02*
X351220D01*
Y22933D01*
X335374Y24311D02*
Y29232D01*
X323583Y22933D02*
X335079D01*
X323583Y22343D02*
Y22933D01*
Y22343D02*
X335079D01*
Y22933D01*
X19685Y171555D02*
X23031D01*
X19685Y167224D02*
X23031D01*
X42323Y152264D02*
Y155610D01*
X37992Y152264D02*
Y155610D01*
X43406Y143405D02*
Y146752D01*
X39075Y143405D02*
Y146752D01*
X42421Y137500D02*
Y140847D01*
X46752Y137500D02*
Y140847D01*
X130662Y273212D02*
X135318Y268555D01*
X134761Y277311D02*
X139417Y272655D01*
X148979Y284562D02*
X152181Y281361D01*
X23015Y294275D02*
X32693D01*
X23015Y301197D02*
X32693D01*
X352874Y122972D02*
X362874D01*
X352874D02*
Y142972D01*
X362874D01*
Y122972D02*
Y142972D01*
X363130Y198524D02*
Y203445D01*
X351339Y197146D02*
X362835D01*
X351339Y196555D02*
Y197146D01*
Y196555D02*
X362835D01*
Y197146D01*
X381201Y171516D02*
X386122D01*
X379823Y171811D02*
Y183307D01*
X379232D02*
X379823D01*
X379232Y171811D02*
Y183307D01*
Y171811D02*
X379823D01*
X467126Y161909D02*
X471063D01*
X467126D02*
Y193012D01*
X471063D01*
X486417Y161909D02*
X490354D01*
Y193012D01*
X486417D02*
X490354D01*
X463386Y258661D02*
Y263976D01*
Y249410D02*
X463583D01*
X451968Y258661D02*
Y263976D01*
X451772Y249410D02*
X451968D01*
X463583D02*
Y263976D01*
X451772Y249410D02*
Y263976D01*
X256693Y492D02*
Y43406D01*
X217323Y61122D02*
X228150D01*
X225197Y-13287D02*
Y492D01*
Y-13287D02*
X248819D01*
Y492D01*
X217323D02*
Y61122D01*
Y492D02*
X256693D01*
X245866Y61122D02*
X256693D01*
X284252Y-13287D02*
Y-9498D01*
X268504Y-13287D02*
Y-9498D01*
X280709Y1870D02*
X284252D01*
Y-9498D02*
Y-1919D01*
Y1870D02*
X292126D01*
Y12500D02*
Y30020D01*
X284252Y44390D02*
X292126D01*
X268504Y1870D02*
X272047D01*
X260630D02*
X268504D01*
X260630Y44390D02*
X268504D01*
X260630Y1870D02*
Y44390D01*
X292126Y1870D02*
Y12500D01*
X268504Y-9498D02*
Y-1919D01*
Y-13287D02*
X284252D01*
X287205Y-1673D02*
Y1870D01*
X265551Y-1673D02*
Y1870D01*
Y-1673D02*
X287205D01*
X343189Y61831D02*
Y71831D01*
X403307D01*
X343189Y61831D02*
X403307D01*
Y71831D01*
X465354Y36121D02*
Y58759D01*
X404331Y36121D02*
X465354D01*
X404331D02*
Y58759D01*
X465354D01*
X535000Y6417D02*
X615000D01*
X535000Y26417D02*
X615000D01*
Y6417D02*
Y26417D01*
X535000Y6417D02*
Y26417D01*
X572146Y165846D02*
Y169783D01*
X603248D01*
Y165846D02*
Y169783D01*
X572146Y146555D02*
Y150492D01*
Y146555D02*
X603248D01*
Y150492D01*
X571063Y249606D02*
Y251575D01*
X618307D01*
Y249606D02*
Y251575D01*
X571063Y222244D02*
Y224212D01*
Y222244D02*
X618307D01*
Y224212D01*
X569291Y213582D02*
Y217519D01*
X600394D01*
Y213582D02*
Y217519D01*
X569291Y194291D02*
Y198228D01*
Y194291D02*
X600394D01*
Y198228D01*
X643405Y274016D02*
Y277953D01*
X674508D01*
Y274016D02*
Y277953D01*
X643405Y254724D02*
Y258661D01*
Y254724D02*
X674508D01*
Y258661D01*
X675098Y280709D02*
Y284646D01*
X643996Y280709D02*
X675098D01*
X643996D02*
Y284646D01*
X675098Y300000D02*
Y303937D01*
X643996D02*
X675098D01*
X643996Y300000D02*
Y303937D01*
X610709Y266732D02*
Y301181D01*
X637126Y266732D02*
Y301181D01*
X561319Y306004D02*
X606594D01*
X561319Y256791D02*
Y306004D01*
X589075Y256791D02*
X606594D01*
X561319D02*
X578838D01*
X606594D02*
Y306004D01*
X223721Y187008D02*
X248327Y187008D01*
X223721Y177953D02*
X226279D01*
X245768D02*
X248524D01*
X223721D02*
Y207874D01*
X248524Y177953D02*
Y207874D01*
X245768D02*
X248524D01*
X223721D02*
X226279D01*
X408858Y221083D02*
X414862D01*
X197736Y187008D02*
X222342Y187008D01*
X197736Y177953D02*
X200295D01*
X219783D02*
X222539D01*
X197736D02*
Y207874D01*
X222539Y177953D02*
Y207874D01*
X219783D02*
X222539D01*
X197736D02*
X200295D01*
X407185Y16043D02*
X411908D01*
Y13682D01*
X411121Y12895D01*
X409547D01*
X408759Y13682D01*
Y16043D01*
Y14469D02*
X407185Y12895D01*
Y11320D02*
Y9746D01*
Y10533D01*
X411908D01*
X411121Y11320D01*
X407185Y4236D02*
Y7385D01*
X410334Y4236D01*
X411121D01*
X411908Y5023D01*
Y6598D01*
X411121Y7385D01*
X608433Y30577D02*
X607777Y29921D01*
Y28609D01*
X608433Y27953D01*
X611057D01*
X611713Y28609D01*
Y29921D01*
X611057Y30577D01*
X609745D01*
Y29265D01*
X611713Y31888D02*
X607777D01*
X611713Y34512D01*
X607777D01*
Y35824D02*
X611713D01*
Y37792D01*
X611057Y38448D01*
X608433D01*
X607777Y37792D01*
Y35824D01*
X596819Y30478D02*
X596163Y29822D01*
Y28510D01*
X596819Y27854D01*
X597475D01*
X598131Y28510D01*
Y29822D01*
X598786Y30478D01*
X599442D01*
X600098Y29822D01*
Y28510D01*
X599442Y27854D01*
X596163Y31790D02*
X600098D01*
X598786Y33102D01*
X600098Y34414D01*
X596163D01*
Y37694D02*
Y36382D01*
X596819Y35726D01*
X599442D01*
X600098Y36382D01*
Y37694D01*
X599442Y38350D01*
X596819D01*
X596163Y37694D01*
X600000Y41634D02*
X596064D01*
Y43602D01*
X596720Y44258D01*
X598032D01*
X598688Y43602D01*
Y41634D01*
X600000Y45570D02*
X597376D01*
X596064Y46881D01*
X597376Y48193D01*
X600000D01*
X598032D01*
Y45570D01*
X596720Y49505D02*
X596064Y50161D01*
Y51473D01*
X596720Y52129D01*
X599344D01*
X600000Y51473D01*
Y50161D01*
X599344Y49505D01*
X596720D01*
X587108Y29626D02*
Y32250D01*
Y30938D01*
X591043D01*
X587108Y33562D02*
X591043Y36186D01*
X587108D02*
X591043Y33562D01*
Y42126D02*
X587108D01*
Y44094D01*
X587764Y44750D01*
X589075D01*
X589731Y44094D01*
Y42126D01*
X591043Y46062D02*
X588419D01*
X587108Y47374D01*
X588419Y48686D01*
X591043D01*
X589075D01*
Y46062D01*
X591043Y49997D02*
Y51309D01*
Y50653D01*
X587108D01*
X587764Y49997D01*
X581890Y27953D02*
X577954D01*
Y29921D01*
X578610Y30577D01*
X579922D01*
X580578Y29921D01*
Y27953D01*
X581890Y31888D02*
X579266D01*
X577954Y33200D01*
X579266Y34512D01*
X581890D01*
X579922D01*
Y31888D01*
X581890Y37792D02*
X577954D01*
X579922Y35824D01*
Y38448D01*
X581890Y43307D02*
X577954D01*
Y45275D01*
X578610Y45931D01*
X579922D01*
X580578Y45275D01*
Y43307D01*
Y44619D02*
X581890Y45931D01*
X577954Y47243D02*
X581890Y49867D01*
X577954D02*
X581890Y47243D01*
X568013Y28248D02*
Y29560D01*
Y28904D01*
X571949D01*
Y28248D01*
Y29560D01*
X568669Y34152D02*
X568013Y33496D01*
Y32184D01*
X568669Y31528D01*
X569325D01*
X569981Y32184D01*
Y33496D01*
X570637Y34152D01*
X571293D01*
X571949Y33496D01*
Y32184D01*
X571293Y31528D01*
X568013Y37431D02*
Y36119D01*
X568669Y35464D01*
X571293D01*
X571949Y36119D01*
Y37431D01*
X571293Y38087D01*
X568669D01*
X568013Y37431D01*
X568571Y44159D02*
X567915Y43503D01*
Y42191D01*
X568571Y41535D01*
X569227D01*
X569882Y42191D01*
Y43503D01*
X570539Y44159D01*
X571194D01*
X571850Y43503D01*
Y42191D01*
X571194Y41535D01*
X568571Y48095D02*
X567915Y47439D01*
Y46127D01*
X568571Y45471D01*
X571194D01*
X571850Y46127D01*
Y47439D01*
X571194Y48095D01*
X567915Y49407D02*
X571850D01*
X570539D01*
X567915Y52031D01*
X569882Y50063D01*
X571850Y52031D01*
X561811Y28051D02*
X557875D01*
Y30019D01*
X558531Y30675D01*
X559843D01*
X560499Y30019D01*
Y28051D01*
X557875Y31987D02*
X561811D01*
Y33955D01*
X561155Y34611D01*
X560499D01*
X559843Y33955D01*
Y31987D01*
Y33955D01*
X559187Y34611D01*
X558531D01*
X557875Y33955D01*
Y31987D01*
X558531Y35923D02*
X557875Y36579D01*
Y37890D01*
X558531Y38546D01*
X561155D01*
X561811Y37890D01*
Y36579D01*
X561155Y35923D01*
X558531D01*
X558072Y43995D02*
Y42684D01*
X558728Y42028D01*
X561352D01*
X562008Y42684D01*
Y43995D01*
X561352Y44651D01*
X558728D01*
X558072Y43995D01*
X558728Y48587D02*
X558072Y47931D01*
Y46619D01*
X558728Y45963D01*
X559384D01*
X560040Y46619D01*
Y47931D01*
X560696Y48587D01*
X561352D01*
X562008Y47931D01*
Y46619D01*
X561352Y45963D01*
X558072Y49899D02*
Y51211D01*
Y50555D01*
X562008D01*
Y49899D01*
Y51211D01*
X551968Y27756D02*
X548033D01*
Y29724D01*
X548689Y30380D01*
X550001D01*
X550657Y29724D01*
Y27756D01*
X548033Y31692D02*
X551968D01*
Y33659D01*
X551313Y34315D01*
X550657D01*
X550001Y33659D01*
Y31692D01*
Y33659D01*
X549345Y34315D01*
X548689D01*
X548033Y33659D01*
Y31692D01*
X551968Y38251D02*
Y35627D01*
X549345Y38251D01*
X548689D01*
X548033Y37595D01*
Y36283D01*
X548689Y35627D01*
X552067Y42224D02*
X548131D01*
Y44192D01*
X548787Y44848D01*
X550099D01*
X550755Y44192D01*
Y42224D01*
X548131Y46160D02*
X552067D01*
Y48128D01*
X551411Y48784D01*
X550755D01*
X550099Y48128D01*
Y46160D01*
Y48128D01*
X549443Y48784D01*
X548787D01*
X548131Y48128D01*
Y46160D01*
X552067Y50096D02*
Y51408D01*
Y50752D01*
X548131D01*
X548787Y50096D01*
X538649Y30478D02*
X537993Y29822D01*
Y28510D01*
X538649Y27854D01*
X539305D01*
X539961Y28510D01*
Y29822D01*
X540617Y30478D01*
X541273D01*
X541929Y29822D01*
Y28510D01*
X541273Y27854D01*
X537993Y31790D02*
X541929D01*
Y33758D01*
X541273Y34414D01*
X538649D01*
X537993Y33758D01*
Y31790D01*
X541929Y35726D02*
X539305D01*
X537993Y37038D01*
X539305Y38350D01*
X541929D01*
X539961D01*
Y35726D01*
X538649Y44356D02*
X537993Y43700D01*
Y42388D01*
X538649Y41732D01*
X539305D01*
X539961Y42388D01*
Y43700D01*
X540617Y44356D01*
X541273D01*
X541929Y43700D01*
Y42388D01*
X541273Y41732D01*
X538649Y48292D02*
X537993Y47636D01*
Y46324D01*
X538649Y45668D01*
X541273D01*
X541929Y46324D01*
Y47636D01*
X541273Y48292D01*
X537993Y49604D02*
X541929D01*
Y52228D01*
X536024Y1378D02*
X537467D01*
X536745D01*
Y5707D01*
X536024Y4986D01*
X542518Y5707D02*
X541075Y4986D01*
X539631Y3543D01*
Y2100D01*
X540353Y1378D01*
X541796D01*
X542518Y2100D01*
Y2821D01*
X541796Y3543D01*
X539631D01*
X611548Y1280D02*
X608661D01*
X611548Y4166D01*
Y4887D01*
X610826Y5609D01*
X609383D01*
X608661Y4887D01*
X270550Y67650D02*
Y72373D01*
X272911D01*
X273698Y71585D01*
Y70011D01*
X272911Y69224D01*
X270550D01*
X272124D02*
X273698Y67650D01*
X275272D02*
X276847D01*
X276060D01*
Y72373D01*
X275272Y71585D01*
X279208D02*
X279995Y72373D01*
X281570D01*
X282357Y71585D01*
Y70798D01*
X281570Y70011D01*
X280783D01*
X281570D01*
X282357Y69224D01*
Y68437D01*
X281570Y67650D01*
X279995D01*
X279208Y68437D01*
X287250Y71450D02*
Y76173D01*
X289611D01*
X290398Y75385D01*
Y73811D01*
X289611Y73024D01*
X287250D01*
X288824D02*
X290398Y71450D01*
X291972D02*
X293547D01*
X292760D01*
Y76173D01*
X291972Y75385D01*
X295908Y71450D02*
X297482D01*
X296695D01*
Y76173D01*
X295908Y75385D01*
X303350Y76250D02*
Y80972D01*
X305711D01*
X306498Y80185D01*
Y78611D01*
X305711Y77824D01*
X303350D01*
X304924D02*
X306498Y76250D01*
X308072Y77037D02*
X308860Y76250D01*
X310434D01*
X311221Y77037D01*
Y80185D01*
X310434Y80972D01*
X308860D01*
X308072Y80185D01*
Y79398D01*
X308860Y78611D01*
X311221D01*
X88779Y302065D02*
X91928Y297342D01*
Y302065D02*
X88779Y297342D01*
X96651Y302065D02*
X95077Y301278D01*
X93502Y299704D01*
Y298130D01*
X94290Y297342D01*
X95864D01*
X96651Y298130D01*
Y298917D01*
X95864Y299704D01*
X93502D01*
X111312Y290938D02*
X109086Y288712D01*
Y286485D01*
X111312Y286485D01*
X113538Y288712D01*
X114652Y287598D02*
X111312Y284259D01*
X112982Y282589D01*
X114095D01*
X116321Y284816D01*
X116321Y285929D01*
X114652Y287598D01*
X115208Y281476D02*
Y280363D01*
X116321Y279250D01*
X117435D01*
X119661Y281476D01*
X119661Y282589D01*
X118548Y283702D01*
X117435Y283702D01*
X116878Y283146D01*
Y282032D01*
X118548Y280363D01*
X69291Y264173D02*
Y268896D01*
X71653D01*
X72440Y268109D01*
Y266535D01*
X71653Y265747D01*
X69291D01*
X70866D02*
X72440Y264173D01*
X74014Y268109D02*
X74801Y268896D01*
X76376D01*
X77163Y268109D01*
Y267322D01*
X76376Y266535D01*
X75589D01*
X76376D01*
X77163Y265747D01*
Y264960D01*
X76376Y264173D01*
X74801D01*
X74014Y264960D01*
X81886Y268896D02*
X78737D01*
Y266535D01*
X80311Y267322D01*
X81099D01*
X81886Y266535D01*
Y264960D01*
X81099Y264173D01*
X79524D01*
X78737Y264960D01*
X12697Y199802D02*
Y196653D01*
X14271Y195079D01*
X15845Y196653D01*
Y199802D01*
X17420D02*
Y195079D01*
X19781D01*
X20568Y195866D01*
Y199014D01*
X19781Y199802D01*
X17420D01*
X22143Y199014D02*
X22930Y199802D01*
X24504D01*
X25291Y199014D01*
Y198227D01*
X24504Y197440D01*
X25291Y196653D01*
Y195866D01*
X24504Y195079D01*
X22930D01*
X22143Y195866D01*
Y196653D01*
X22930Y197440D01*
X22143Y198227D01*
Y199014D01*
X22930Y197440D02*
X24504D01*
X15944Y187991D02*
X15157Y188778D01*
X13582D01*
X12795Y187991D01*
Y184842D01*
X13582Y184055D01*
X15157D01*
X15944Y184842D01*
X17518Y187991D02*
X18305Y188778D01*
X19880D01*
X20667Y187991D01*
Y187204D01*
X19880Y186417D01*
X19092D01*
X19880D01*
X20667Y185629D01*
Y184842D01*
X19880Y184055D01*
X18305D01*
X17518Y184842D01*
X25390Y188778D02*
X22241D01*
Y186417D01*
X23815Y187204D01*
X24602D01*
X25390Y186417D01*
Y184842D01*
X24602Y184055D01*
X23028D01*
X22241Y184842D01*
X52459Y141732D02*
X49310D01*
X47736Y140158D01*
X49310Y138584D01*
X52459D01*
Y137009D02*
X47736D01*
Y134648D01*
X48523Y133861D01*
X51672D01*
X52459Y134648D01*
Y137009D01*
X47736Y129925D02*
X52459D01*
X50098Y132287D01*
Y129138D01*
X28543Y162006D02*
Y158858D01*
X30118Y157283D01*
X31692Y158858D01*
Y162006D01*
X33266D02*
Y157283D01*
X35628D01*
X36415Y158071D01*
Y161219D01*
X35628Y162006D01*
X33266D01*
X37989Y161219D02*
X38776Y162006D01*
X40350D01*
X41138Y161219D01*
Y160432D01*
X40350Y159645D01*
X39563D01*
X40350D01*
X41138Y158858D01*
Y158071D01*
X40350Y157283D01*
X38776D01*
X37989Y158071D01*
X200886Y298622D02*
Y301771D01*
X202460Y303345D01*
X204034Y301771D01*
Y298622D01*
Y300984D01*
X200886D01*
X205609Y298622D02*
Y303345D01*
X208757Y298622D01*
Y303345D01*
X210332D02*
X213480D01*
X211906D01*
Y298622D01*
X215054D02*
X216629D01*
X215842D01*
Y303345D01*
X215054Y302558D01*
X201083Y88878D02*
X196360D01*
Y91239D01*
X197147Y92027D01*
X198721D01*
X199508Y91239D01*
Y88878D01*
Y90452D02*
X201083Y92027D01*
Y93601D02*
Y95175D01*
Y94388D01*
X196360D01*
X197147Y93601D01*
X200295Y97537D02*
X201083Y98324D01*
Y99898D01*
X200295Y100685D01*
X197147D01*
X196360Y99898D01*
Y98324D01*
X197147Y97537D01*
X197934D01*
X198721Y98324D01*
Y100685D01*
X358663Y111909D02*
X362598Y114533D01*
X358663D02*
X362598Y111909D01*
Y115845D02*
Y117157D01*
Y116501D01*
X358663D01*
X359319Y115845D01*
Y119125D02*
X358663Y119781D01*
Y121093D01*
X359319Y121749D01*
X359975D01*
X360631Y121093D01*
Y120437D01*
Y121093D01*
X361286Y121749D01*
X361943D01*
X362598Y121093D01*
Y119781D01*
X361943Y119125D01*
X198550Y141873D02*
Y138724D01*
X200124Y137150D01*
X201698Y138724D01*
Y141873D01*
X203273D02*
X206421D01*
X204847D01*
Y137150D01*
X207995D02*
X209570D01*
X208783D01*
Y141873D01*
X207995Y141085D01*
X209154Y88878D02*
X204431D01*
Y91239D01*
X205218Y92027D01*
X206792D01*
X207579Y91239D01*
Y88878D01*
Y90452D02*
X209154Y92027D01*
Y93601D02*
Y95175D01*
Y94388D01*
X204431D01*
X205218Y93601D01*
Y97537D02*
X204431Y98324D01*
Y99898D01*
X205218Y100685D01*
X206005D01*
X206792Y99898D01*
X207579Y100685D01*
X208366D01*
X209154Y99898D01*
Y98324D01*
X208366Y97537D01*
X207579D01*
X206792Y98324D01*
X206005Y97537D01*
X205218D01*
X206792Y98324D02*
Y99898D01*
X297638Y9252D02*
Y13975D01*
X299999D01*
X300786Y13188D01*
Y11613D01*
X299999Y10826D01*
X297638D01*
X299212D02*
X300786Y9252D01*
X304722D02*
Y13975D01*
X302361Y11613D01*
X305509D01*
X307084Y13188D02*
X307871Y13975D01*
X309445D01*
X310232Y13188D01*
Y10039D01*
X309445Y9252D01*
X307871D01*
X307084Y10039D01*
Y13188D01*
X527856Y2264D02*
X532579Y5412D01*
X527856D02*
X532579Y2264D01*
Y6987D02*
Y8561D01*
Y7774D01*
X527856D01*
X528643Y6987D01*
X532579Y14071D02*
Y10922D01*
X529430Y14071D01*
X528643D01*
X527856Y13284D01*
Y11710D01*
X528643Y10922D01*
X330807Y69093D02*
X333956Y64370D01*
Y69093D02*
X330807Y64370D01*
X335530D02*
X337104D01*
X336317D01*
Y69093D01*
X335530Y68306D01*
X339466Y64370D02*
X341040D01*
X340253D01*
Y69093D01*
X339466Y68306D01*
X303937Y147341D02*
Y142618D01*
X306298D01*
X307086Y143405D01*
Y146554D01*
X306298Y147341D01*
X303937D01*
X311021Y142618D02*
Y147341D01*
X308660Y144980D01*
X311808D01*
X13975Y343209D02*
X9252Y340060D01*
X13975D02*
X9252Y343209D01*
Y338486D02*
Y336912D01*
Y337699D01*
X13975D01*
X13188Y338486D01*
Y334550D02*
X13975Y333763D01*
Y332189D01*
X13188Y331401D01*
X10039D01*
X9252Y332189D01*
Y333763D01*
X10039Y334550D01*
X13188D01*
X625689Y27854D02*
X620966D01*
Y30216D01*
X621753Y31003D01*
X623327D01*
X624115Y30216D01*
Y27854D01*
Y29429D02*
X625689Y31003D01*
X620966Y35726D02*
Y32577D01*
X623327D01*
X622540Y34152D01*
Y34939D01*
X623327Y35726D01*
X624902D01*
X625689Y34939D01*
Y33364D01*
X624902Y32577D01*
X621753Y37300D02*
X620966Y38087D01*
Y39661D01*
X621753Y40449D01*
X624902D01*
X625689Y39661D01*
Y38087D01*
X624902Y37300D01*
X621753D01*
X630218Y30904D02*
X629431Y30117D01*
Y28543D01*
X630218Y27756D01*
X633366D01*
X634154Y28543D01*
Y30117D01*
X633366Y30904D01*
X629431Y35627D02*
Y32479D01*
X631792D01*
X631005Y34053D01*
Y34840D01*
X631792Y35627D01*
X633366D01*
X634154Y34840D01*
Y33266D01*
X633366Y32479D01*
X629431Y40350D02*
Y37202D01*
X631792D01*
X631005Y38776D01*
Y39563D01*
X631792Y40350D01*
X633366D01*
X634154Y39563D01*
Y37989D01*
X633366Y37202D01*
X523228Y275392D02*
Y270669D01*
X526377D01*
X527951Y274605D02*
X528738Y275392D01*
X530313D01*
X531100Y274605D01*
Y273818D01*
X530313Y273031D01*
X529526D01*
X530313D01*
X531100Y272244D01*
Y271456D01*
X530313Y270669D01*
X528738D01*
X527951Y271456D01*
X367717Y58561D02*
Y55413D01*
X369291Y53839D01*
X370865Y55413D01*
Y58561D01*
X372439D02*
Y53839D01*
X374801D01*
X375588Y54626D01*
Y57774D01*
X374801Y58561D01*
X372439D01*
X380311D02*
X378737Y57774D01*
X377162Y56200D01*
Y54626D01*
X377949Y53839D01*
X379524D01*
X380311Y54626D01*
Y55413D01*
X379524Y56200D01*
X377162D01*
X383366Y79034D02*
X386515Y74311D01*
Y79034D02*
X383366Y74311D01*
X388089D02*
X389663D01*
X388876D01*
Y79034D01*
X388089Y78247D01*
X394386Y74311D02*
Y79034D01*
X392025Y76673D01*
X395173D01*
X608761Y323425D02*
X613484Y326574D01*
X608761D02*
X613484Y323425D01*
Y328148D02*
Y329722D01*
Y328935D01*
X608761D01*
X609549Y328148D01*
X608761Y335232D02*
Y332084D01*
X611123D01*
X610336Y333658D01*
Y334445D01*
X611123Y335232D01*
X612697D01*
X613484Y334445D01*
Y332871D01*
X612697Y332084D01*
X152946Y290938D02*
X151833Y285372D01*
X155172Y288712D02*
X149606Y287598D01*
X153503Y284816D02*
Y283702D01*
X154616Y282589D01*
X155729D01*
X157955Y284816D01*
X157955Y285929D01*
X156842Y287042D01*
X155729Y287042D01*
X155172Y286485D01*
Y285372D01*
X156842Y283702D01*
X556005Y325492D02*
X560728Y328641D01*
X556005D02*
X560728Y325492D01*
X556793Y330215D02*
X556005Y331002D01*
Y332576D01*
X556793Y333364D01*
X557580D01*
X558367Y332576D01*
X559154Y333364D01*
X559941D01*
X560728Y332576D01*
Y331002D01*
X559941Y330215D01*
X559154D01*
X558367Y331002D01*
X557580Y330215D01*
X556793D01*
X558367Y331002D02*
Y332576D01*
X429724Y66239D02*
X432873Y61516D01*
Y66239D02*
X429724Y61516D01*
X434447Y66239D02*
X437596D01*
Y65452D01*
X434447Y62303D01*
Y61516D01*
X247638Y68207D02*
X250786Y63484D01*
Y68207D02*
X247638Y63484D01*
X255509Y68207D02*
X252361D01*
Y65846D01*
X253935Y66633D01*
X254722D01*
X255509Y65846D01*
Y64271D01*
X254722Y63484D01*
X253148D01*
X252361Y64271D01*
X285335Y51770D02*
X288483Y47047D01*
Y51770D02*
X285335Y47047D01*
X292419D02*
Y51770D01*
X290057Y49409D01*
X293206D01*
X117520Y39369D02*
X120668Y34646D01*
Y39369D02*
X117520Y34646D01*
X125391D02*
X122243D01*
X125391Y37794D01*
Y38581D01*
X124604Y39369D01*
X123030D01*
X122243Y38581D01*
X35531Y51869D02*
X38680Y47146D01*
Y51869D02*
X35531Y47146D01*
X40254D02*
X41829D01*
X41041D01*
Y51869D01*
X40254Y51081D01*
X21947Y122146D02*
X17224Y118997D01*
X21947D02*
X17224Y122146D01*
X21160Y117423D02*
X21947Y116636D01*
Y115061D01*
X21160Y114274D01*
X20373D01*
X19586Y115061D01*
Y115849D01*
Y115061D01*
X18799Y114274D01*
X18012D01*
X17224Y115061D01*
Y116636D01*
X18012Y117423D01*
X359743Y168898D02*
X356594D01*
X355020Y167323D01*
X356594Y165749D01*
X359743D01*
Y164175D02*
Y161026D01*
Y162601D01*
X355020D01*
X359743Y159452D02*
Y156303D01*
X358955D01*
X355807Y159452D01*
X355020D01*
X332087Y179920D02*
Y176771D01*
X333661Y175197D01*
X335235Y176771D01*
Y179920D01*
X336809D02*
X339958D01*
X338384D01*
Y175197D01*
X344681Y179920D02*
X343107Y179133D01*
X341532Y177558D01*
Y175984D01*
X342319Y175197D01*
X343894D01*
X344681Y175984D01*
Y176771D01*
X343894Y177558D01*
X341532D01*
X347933Y210333D02*
Y207185D01*
X349507Y205610D01*
X351082Y207185D01*
Y210333D01*
X352656D02*
X355804D01*
X354230D01*
Y205610D01*
X360527Y210333D02*
X357379D01*
Y207972D01*
X358953Y208759D01*
X359740D01*
X360527Y207972D01*
Y206397D01*
X359740Y205610D01*
X358166D01*
X357379Y206397D01*
X587008Y64762D02*
Y61614D01*
X588582Y60039D01*
X590157Y61614D01*
Y64762D01*
X591731D02*
X594879D01*
X593305D01*
Y60039D01*
X598815D02*
Y64762D01*
X596454Y62401D01*
X599602D01*
X357577Y32283D02*
X354429D01*
X352854Y30709D01*
X354429Y29135D01*
X357577D01*
Y27561D02*
Y24412D01*
Y25986D01*
X352854D01*
Y19689D02*
Y22838D01*
X356003Y19689D01*
X356790D01*
X357577Y20476D01*
Y22051D01*
X356790Y22838D01*
X605512Y218798D02*
Y215649D01*
X607086Y214075D01*
X608660Y215649D01*
Y218798D01*
X610235D02*
Y214075D01*
X612596D01*
X613383Y214862D01*
Y218011D01*
X612596Y218798D01*
X610235D01*
X614958Y214075D02*
X616532D01*
X615745D01*
Y218798D01*
X614958Y218011D01*
X622042Y218798D02*
X620468Y218011D01*
X618893Y216436D01*
Y214862D01*
X619681Y214075D01*
X621255D01*
X622042Y214862D01*
Y215649D01*
X621255Y216436D01*
X618893D01*
X492718Y168209D02*
X495867D01*
X497441Y169783D01*
X495867Y171357D01*
X492718D01*
Y172932D02*
X497441D01*
Y175293D01*
X496654Y176080D01*
X493505D01*
X492718Y175293D01*
Y172932D01*
X497441Y177654D02*
Y179229D01*
Y178442D01*
X492718D01*
X493505Y177654D01*
X492718Y184739D02*
Y181590D01*
X495080D01*
X494292Y183165D01*
Y183952D01*
X495080Y184739D01*
X496654D01*
X497441Y183952D01*
Y182377D01*
X496654Y181590D01*
X682285Y284941D02*
X685434D01*
X687008Y286515D01*
X685434Y288089D01*
X682285D01*
Y289664D02*
X687008D01*
Y292025D01*
X686221Y292812D01*
X683072D01*
X682285Y292025D01*
Y289664D01*
X687008Y294387D02*
Y295961D01*
Y295174D01*
X682285D01*
X683072Y294387D01*
Y298322D02*
X682285Y299110D01*
Y300684D01*
X683072Y301471D01*
X683859D01*
X684646Y300684D01*
Y299897D01*
Y300684D01*
X685434Y301471D01*
X686221D01*
X687008Y300684D01*
Y299110D01*
X686221Y298322D01*
X681596Y257579D02*
X684745D01*
X686319Y259153D01*
X684745Y260727D01*
X681596D01*
Y262302D02*
X686319D01*
Y264663D01*
X685532Y265450D01*
X682383D01*
X681596Y264663D01*
Y262302D01*
X686319Y267024D02*
Y268599D01*
Y267812D01*
X681596D01*
X682383Y267024D01*
X686319Y274109D02*
Y270960D01*
X683170Y274109D01*
X682383D01*
X681596Y273322D01*
Y271747D01*
X682383Y270960D01*
X608957Y152558D02*
Y149409D01*
X610531Y147835D01*
X612105Y149409D01*
Y152558D01*
X613680D02*
Y147835D01*
X616041D01*
X616828Y148622D01*
Y151770D01*
X616041Y152558D01*
X613680D01*
X618402Y147835D02*
X619977D01*
X619190D01*
Y152558D01*
X618402Y151770D01*
X622338Y147835D02*
X623912D01*
X623125D01*
Y152558D01*
X622338Y151770D01*
X127257Y275387D02*
X125031Y273160D01*
Y270934D01*
X127257Y270934D01*
X129483Y273160D01*
X130596Y272047D02*
X127257Y268708D01*
X128927Y267038D01*
X130040D01*
X132266Y269264D01*
X132266Y270377D01*
X130596Y272047D01*
Y265368D02*
X131710Y264255D01*
X131153Y264811D01*
X134493Y268151D01*
X133379Y268151D01*
X136162Y265368D02*
X137276Y265368D01*
X138389Y264255D01*
X138389Y263142D01*
X136162Y260915D01*
X135049D01*
X133936Y262029D01*
Y263142D01*
X136162Y265368D01*
X256987Y224213D02*
X253838D01*
X252264Y222638D01*
X253838Y221064D01*
X256987D01*
Y219490D02*
X252264D01*
Y217128D01*
X253051Y216341D01*
X256200D01*
X256987Y217128D01*
Y219490D01*
Y214767D02*
Y211618D01*
X256200D01*
X253051Y214767D01*
X252264D01*
X112402Y103246D02*
Y100098D01*
X113976Y98524D01*
X115550Y100098D01*
Y103246D01*
X117124D02*
Y98524D01*
X119486D01*
X120273Y99311D01*
Y102459D01*
X119486Y103246D01*
X117124D01*
X124996D02*
X121847D01*
Y100885D01*
X123422Y101672D01*
X124209D01*
X124996Y100885D01*
Y99311D01*
X124209Y98524D01*
X122634D01*
X121847Y99311D01*
X58069Y151279D02*
X54921D01*
X53347Y149705D01*
X54921Y148131D01*
X58069D01*
Y146557D02*
X53347D01*
Y144195D01*
X54134Y143408D01*
X57282D01*
X58069Y144195D01*
Y146557D01*
X53347Y138685D02*
Y141834D01*
X56495Y138685D01*
X57282D01*
X58069Y139472D01*
Y141047D01*
X57282Y141834D01*
X61024Y108857D02*
Y105708D01*
X62598Y104134D01*
X64172Y105708D01*
Y108857D01*
X65746D02*
Y104134D01*
X68108D01*
X68895Y104921D01*
Y108070D01*
X68108Y108857D01*
X65746D01*
X70469Y104134D02*
X72044D01*
X71257D01*
Y108857D01*
X70469Y108070D01*
X325787Y92026D02*
Y87303D01*
X328149D01*
X328936Y88090D01*
Y91239D01*
X328149Y92026D01*
X325787D01*
X330510Y91239D02*
X331297Y92026D01*
X332872D01*
X333659Y91239D01*
Y90452D01*
X332872Y89665D01*
X332085D01*
X332872D01*
X333659Y88877D01*
Y88090D01*
X332872Y87303D01*
X331297D01*
X330510Y88090D01*
X488975Y52855D02*
X489762Y53642D01*
Y55217D01*
X488975Y56004D01*
X488188D01*
X487401Y55217D01*
Y53642D01*
X486614Y52855D01*
X485826D01*
X485039Y53642D01*
Y55217D01*
X485826Y56004D01*
X485039Y48920D02*
X489762D01*
X487401Y51281D01*
Y48133D01*
X377263Y20274D02*
X376476Y21061D01*
X374901D01*
X374114Y20274D01*
Y19487D01*
X374901Y18700D01*
X376476D01*
X377263Y17913D01*
Y17126D01*
X376476Y16339D01*
X374901D01*
X374114Y17126D01*
X378837Y20274D02*
X379624Y21061D01*
X381199D01*
X381986Y20274D01*
Y19487D01*
X381199Y18700D01*
X380411D01*
X381199D01*
X381986Y17913D01*
Y17126D01*
X381199Y16339D01*
X379624D01*
X378837Y17126D01*
X442519Y20373D02*
X441732Y21160D01*
X440157D01*
X439370Y20373D01*
Y19586D01*
X440157Y18798D01*
X441732D01*
X442519Y18011D01*
Y17224D01*
X441732Y16437D01*
X440157D01*
X439370Y17224D01*
X447242Y16437D02*
X444093D01*
X447242Y19586D01*
Y20373D01*
X446454Y21160D01*
X444880D01*
X444093Y20373D01*
X508857Y20274D02*
X508070Y21061D01*
X506496D01*
X505709Y20274D01*
Y19487D01*
X506496Y18700D01*
X508070D01*
X508857Y17913D01*
Y17126D01*
X508070Y16339D01*
X506496D01*
X505709Y17126D01*
X510431Y16339D02*
X512006D01*
X511219D01*
Y21061D01*
X510431Y20274D01*
X380906Y282972D02*
X385628D01*
Y280611D01*
X384841Y279824D01*
X383267D01*
X382480Y280611D01*
Y282972D01*
Y281398D02*
X380906Y279824D01*
X385628Y275101D02*
X384841Y276675D01*
X383267Y278250D01*
X381693D01*
X380906Y277462D01*
Y275888D01*
X381693Y275101D01*
X382480D01*
X383267Y275888D01*
Y278250D01*
X385628Y270378D02*
Y273527D01*
X383267D01*
X384054Y271952D01*
Y271165D01*
X383267Y270378D01*
X381693D01*
X380906Y271165D01*
Y272740D01*
X381693Y273527D01*
X373524Y283071D02*
X378246D01*
Y280709D01*
X377459Y279922D01*
X375885D01*
X375098Y280709D01*
Y283071D01*
Y281497D02*
X373524Y279922D01*
X378246Y275199D02*
X377459Y276774D01*
X375885Y278348D01*
X374311D01*
X373524Y277561D01*
Y275987D01*
X374311Y275199D01*
X375098D01*
X375885Y275987D01*
Y278348D01*
X378246Y273625D02*
Y270477D01*
X377459D01*
X374311Y273625D01*
X373524D01*
X320472Y181201D02*
X315750D01*
Y183562D01*
X316537Y184349D01*
X318111D01*
X318898Y183562D01*
Y181201D01*
Y182775D02*
X320472Y184349D01*
X315750Y189072D02*
X316537Y187498D01*
X318111Y185924D01*
X319685D01*
X320472Y186711D01*
Y188285D01*
X319685Y189072D01*
X318898D01*
X318111Y188285D01*
Y185924D01*
X320472Y193008D02*
X315750D01*
X318111Y190647D01*
Y193795D01*
X381299Y153150D02*
Y157872D01*
X383661D01*
X384448Y157085D01*
Y155511D01*
X383661Y154724D01*
X381299D01*
X382874D02*
X384448Y153150D01*
X389171Y157872D02*
X387596Y157085D01*
X386022Y155511D01*
Y153937D01*
X386809Y153150D01*
X388384D01*
X389171Y153937D01*
Y154724D01*
X388384Y155511D01*
X386022D01*
X393894Y157872D02*
X392319Y157085D01*
X390745Y155511D01*
Y153937D01*
X391532Y153150D01*
X393106D01*
X393894Y153937D01*
Y154724D01*
X393106Y155511D01*
X390745D01*
X365059Y177756D02*
X369782D01*
Y175394D01*
X368995Y174607D01*
X367421D01*
X366633Y175394D01*
Y177756D01*
Y176182D02*
X365059Y174607D01*
X369782Y169884D02*
X368995Y171459D01*
X367421Y173033D01*
X365846D01*
X365059Y172246D01*
Y170672D01*
X365846Y169884D01*
X366633D01*
X367421Y170672D01*
Y173033D01*
X368995Y168310D02*
X369782Y167523D01*
Y165949D01*
X368995Y165162D01*
X368208D01*
X367421Y165949D01*
Y166736D01*
Y165949D01*
X366633Y165162D01*
X365846D01*
X365059Y165949D01*
Y167523D01*
X365846Y168310D01*
X407579Y185236D02*
X412302D01*
Y182875D01*
X411515Y182088D01*
X409940D01*
X409153Y182875D01*
Y185236D01*
Y183662D02*
X407579Y182088D01*
X412302Y177365D02*
X411515Y178939D01*
X409940Y180513D01*
X408366D01*
X407579Y179726D01*
Y178152D01*
X408366Y177365D01*
X409153D01*
X409940Y178152D01*
Y180513D01*
X407579Y172642D02*
Y175791D01*
X410727Y172642D01*
X411515D01*
X412302Y173429D01*
Y175003D01*
X411515Y175791D01*
X375886Y262697D02*
X380609D01*
Y260335D01*
X379822Y259548D01*
X378247D01*
X377460Y260335D01*
Y262697D01*
Y261123D02*
X375886Y259548D01*
X380609Y254825D02*
X379822Y256400D01*
X378247Y257974D01*
X376673D01*
X375886Y257187D01*
Y255612D01*
X376673Y254825D01*
X377460D01*
X378247Y255612D01*
Y257974D01*
X375886Y253251D02*
Y251677D01*
Y252464D01*
X380609D01*
X379822Y253251D01*
X397933Y262894D02*
X402656D01*
Y260532D01*
X401869Y259745D01*
X400294D01*
X399507Y260532D01*
Y262894D01*
Y261319D02*
X397933Y259745D01*
X402656Y255022D02*
X401869Y256596D01*
X400294Y258171D01*
X398720D01*
X397933Y257384D01*
Y255809D01*
X398720Y255022D01*
X399507D01*
X400294Y255809D01*
Y258171D01*
X401869Y253448D02*
X402656Y252661D01*
Y251086D01*
X401869Y250299D01*
X398720D01*
X397933Y251086D01*
Y252661D01*
X398720Y253448D01*
X401869D01*
X382972Y263583D02*
X387695D01*
Y261221D01*
X386908Y260434D01*
X385334D01*
X384547Y261221D01*
Y263583D01*
Y262008D02*
X382972Y260434D01*
X387695Y255711D02*
Y258860D01*
X385334D01*
X386121Y257285D01*
Y256498D01*
X385334Y255711D01*
X383760D01*
X382972Y256498D01*
Y258073D01*
X383760Y258860D01*
Y254137D02*
X382972Y253350D01*
Y251776D01*
X383760Y250988D01*
X386908D01*
X387695Y251776D01*
Y253350D01*
X386908Y254137D01*
X386121D01*
X385334Y253350D01*
Y250988D01*
X583563Y172244D02*
X578840D01*
Y174606D01*
X579627Y175393D01*
X581202D01*
X581989Y174606D01*
Y172244D01*
Y173818D02*
X583563Y175393D01*
X578840Y180116D02*
Y176967D01*
X581202D01*
X580414Y178541D01*
Y179328D01*
X581202Y180116D01*
X582776D01*
X583563Y179328D01*
Y177754D01*
X582776Y176967D01*
X579627Y181690D02*
X578840Y182477D01*
Y184051D01*
X579627Y184838D01*
X580414D01*
X581202Y184051D01*
X581989Y184838D01*
X582776D01*
X583563Y184051D01*
Y182477D01*
X582776Y181690D01*
X581989D01*
X581202Y182477D01*
X580414Y181690D01*
X579627D01*
X581202Y182477D02*
Y184051D01*
X566142Y172244D02*
X561419D01*
Y174606D01*
X562206Y175393D01*
X563780D01*
X564568Y174606D01*
Y172244D01*
Y173818D02*
X566142Y175393D01*
X561419Y180116D02*
Y176967D01*
X563780D01*
X562993Y178541D01*
Y179328D01*
X563780Y180116D01*
X565355D01*
X566142Y179328D01*
Y177754D01*
X565355Y176967D01*
X561419Y181690D02*
Y184838D01*
X562206D01*
X565355Y181690D01*
X566142D01*
X495177Y61024D02*
Y65746D01*
X497539D01*
X498326Y64959D01*
Y63385D01*
X497539Y62598D01*
X495177D01*
X496751D02*
X498326Y61024D01*
X503049Y65746D02*
X499900D01*
Y63385D01*
X501474Y64172D01*
X502261D01*
X503049Y63385D01*
Y61811D01*
X502261Y61024D01*
X500687D01*
X499900Y61811D01*
X507771Y65746D02*
X506197Y64959D01*
X504623Y63385D01*
Y61811D01*
X505410Y61024D01*
X506984D01*
X507771Y61811D01*
Y62598D01*
X506984Y63385D01*
X504623D01*
X507087Y68701D02*
Y73424D01*
X509448D01*
X510235Y72636D01*
Y71062D01*
X509448Y70275D01*
X507087D01*
X508661D02*
X510235Y68701D01*
X514958Y73424D02*
X511809D01*
Y71062D01*
X513384Y71849D01*
X514171D01*
X514958Y71062D01*
Y69488D01*
X514171Y68701D01*
X512597D01*
X511809Y69488D01*
X519681Y73424D02*
X516532D01*
Y71062D01*
X518107Y71849D01*
X518894D01*
X519681Y71062D01*
Y69488D01*
X518894Y68701D01*
X517319D01*
X516532Y69488D01*
X400689Y243898D02*
X405412D01*
Y241536D01*
X404625Y240749D01*
X403050D01*
X402263Y241536D01*
Y243898D01*
Y242323D02*
X400689Y240749D01*
X405412Y236026D02*
Y239175D01*
X403050D01*
X403838Y237600D01*
Y236813D01*
X403050Y236026D01*
X401476D01*
X400689Y236813D01*
Y238388D01*
X401476Y239175D01*
X400689Y232090D02*
X405412D01*
X403050Y234452D01*
Y231303D01*
X564764Y232874D02*
X560041D01*
Y235236D01*
X560828Y236023D01*
X562402D01*
X563190Y235236D01*
Y232874D01*
Y234448D02*
X564764Y236023D01*
X560041Y240745D02*
Y237597D01*
X562402D01*
X561615Y239171D01*
Y239958D01*
X562402Y240745D01*
X563977D01*
X564764Y239958D01*
Y238384D01*
X563977Y237597D01*
X560828Y242320D02*
X560041Y243107D01*
Y244681D01*
X560828Y245468D01*
X561615D01*
X562402Y244681D01*
Y243894D01*
Y244681D01*
X563190Y245468D01*
X563977D01*
X564764Y244681D01*
Y243107D01*
X563977Y242320D01*
X439272Y242323D02*
X443995D01*
Y239961D01*
X443207Y239174D01*
X441633D01*
X440846Y239961D01*
Y242323D01*
Y240749D02*
X439272Y239174D01*
X443995Y234451D02*
Y237600D01*
X441633D01*
X442420Y236026D01*
Y235239D01*
X441633Y234451D01*
X440059D01*
X439272Y235239D01*
Y236813D01*
X440059Y237600D01*
X439272Y229729D02*
Y232877D01*
X442420Y229729D01*
X443207D01*
X443995Y230516D01*
Y232090D01*
X443207Y232877D01*
X457677Y211122D02*
X462400D01*
Y208761D01*
X461613Y207974D01*
X460039D01*
X459251Y208761D01*
Y211122D01*
Y209548D02*
X457677Y207974D01*
X462400Y203251D02*
Y206399D01*
X460039D01*
X460826Y204825D01*
Y204038D01*
X460039Y203251D01*
X458464D01*
X457677Y204038D01*
Y205612D01*
X458464Y206399D01*
X457677Y201676D02*
Y200102D01*
Y200889D01*
X462400D01*
X461613Y201676D01*
X347539Y146457D02*
Y151180D01*
X349901D01*
X350688Y150392D01*
Y148818D01*
X349901Y148031D01*
X347539D01*
X349114D02*
X350688Y146457D01*
X354624D02*
Y151180D01*
X352262Y148818D01*
X355411D01*
X356985Y151180D02*
X360134D01*
Y150392D01*
X356985Y147244D01*
Y146457D01*
X13976Y274803D02*
Y279526D01*
X16338D01*
X17125Y278739D01*
Y277165D01*
X16338Y276377D01*
X13976D01*
X15551D02*
X17125Y274803D01*
X21061D02*
Y279526D01*
X18699Y277165D01*
X21848D01*
X26571Y279526D02*
X23422D01*
Y277165D01*
X24996Y277952D01*
X25784D01*
X26571Y277165D01*
Y275590D01*
X25784Y274803D01*
X24209D01*
X23422Y275590D01*
X183661Y275197D02*
X188384D01*
Y272835D01*
X187597Y272048D01*
X186023D01*
X185236Y272835D01*
Y275197D01*
Y273623D02*
X183661Y272048D01*
Y268112D02*
X188384D01*
X186023Y270474D01*
Y267325D01*
X183661Y263390D02*
X188384D01*
X186023Y265751D01*
Y262602D01*
X346752Y89862D02*
X351475D01*
Y87501D01*
X350688Y86714D01*
X349113D01*
X348326Y87501D01*
Y89862D01*
Y88288D02*
X346752Y86714D01*
X350688Y85139D02*
X351475Y84352D01*
Y82778D01*
X350688Y81991D01*
X349901D01*
X349113Y82778D01*
Y83565D01*
Y82778D01*
X348326Y81991D01*
X347539D01*
X346752Y82778D01*
Y84352D01*
X347539Y85139D01*
Y80416D02*
X346752Y79629D01*
Y78055D01*
X347539Y77268D01*
X350688D01*
X351475Y78055D01*
Y79629D01*
X350688Y80416D01*
X349901D01*
X349113Y79629D01*
Y77268D01*
X339961Y45866D02*
Y50589D01*
X342322D01*
X343109Y49802D01*
Y48228D01*
X342322Y47440D01*
X339961D01*
X341535D02*
X343109Y45866D01*
X347832D02*
X344684D01*
X347832Y49015D01*
Y49802D01*
X347045Y50589D01*
X345471D01*
X344684Y49802D01*
X349406D02*
X350194Y50589D01*
X351768D01*
X352555Y49802D01*
Y49015D01*
X351768Y48228D01*
X352555Y47440D01*
Y46653D01*
X351768Y45866D01*
X350194D01*
X349406Y46653D01*
Y47440D01*
X350194Y48228D01*
X349406Y49015D01*
Y49802D01*
X350194Y48228D02*
X351768D01*
X139764Y256693D02*
X143103Y260033D01*
X144773Y258363D01*
X144773Y257249D01*
X143660Y256136D01*
X142547D01*
X140877Y257806D01*
X141990Y256693D02*
X141990Y254467D01*
X145886Y256136D02*
X147000Y256136D01*
X148113Y255023D01*
X148113Y253910D01*
X147556Y253353D01*
X146443D01*
X145886Y253910D01*
X146443Y253353D01*
Y252240D01*
X145886Y251683D01*
X144773D01*
X143660Y252797D01*
Y253910D01*
X146443Y250014D02*
X147556Y248901D01*
X147000Y249457D01*
X150339Y252797D01*
X149226Y252797D01*
X260728Y211910D02*
Y216632D01*
X263090D01*
X263877Y215845D01*
Y214271D01*
X263090Y213484D01*
X260728D01*
X262303D02*
X263877Y211910D01*
X265451Y215845D02*
X266238Y216632D01*
X267813D01*
X268600Y215845D01*
Y215058D01*
X267813Y214271D01*
X267025D01*
X267813D01*
X268600Y213484D01*
Y212697D01*
X267813Y211910D01*
X266238D01*
X265451Y212697D01*
X272536Y211910D02*
Y216632D01*
X270174Y214271D01*
X273323D01*
X260728Y203937D02*
Y208660D01*
X263090D01*
X263877Y207873D01*
Y206298D01*
X263090Y205511D01*
X260728D01*
X262303D02*
X263877Y203937D01*
X265451Y207873D02*
X266238Y208660D01*
X267813D01*
X268600Y207873D01*
Y207086D01*
X267813Y206298D01*
X267025D01*
X267813D01*
X268600Y205511D01*
Y204724D01*
X267813Y203937D01*
X266238D01*
X265451Y204724D01*
X270174Y207873D02*
X270961Y208660D01*
X272536D01*
X273323Y207873D01*
Y207086D01*
X272536Y206298D01*
X271748D01*
X272536D01*
X273323Y205511D01*
Y204724D01*
X272536Y203937D01*
X270961D01*
X270174Y204724D01*
X41437Y162598D02*
X44777Y165938D01*
X46446Y164268D01*
X46446Y163155D01*
X45333Y162042D01*
X44220D01*
X42550Y163712D01*
X43663Y162598D02*
X43663Y160372D01*
X47560Y162042D02*
X48673Y162042D01*
X49786Y160929D01*
X49786Y159816D01*
X49229Y159259D01*
X48116D01*
X47560Y159816D01*
X48116Y159259D01*
Y158146D01*
X47560Y157589D01*
X46446D01*
X45333Y158702D01*
Y159816D01*
X50343Y153693D02*
X48116Y155919D01*
X52569D01*
X53126Y156476D01*
X53126Y157589D01*
X52012Y158702D01*
X50899Y158702D01*
X339961Y53642D02*
Y58365D01*
X342322D01*
X343109Y57578D01*
Y56003D01*
X342322Y55216D01*
X339961D01*
X341535D02*
X343109Y53642D01*
X347832D02*
X344684D01*
X347832Y56790D01*
Y57578D01*
X347045Y58365D01*
X345471D01*
X344684Y57578D01*
X349406Y58365D02*
X352555D01*
Y57578D01*
X349406Y54429D01*
Y53642D01*
X300492Y90453D02*
Y95176D01*
X302854D01*
X303641Y94389D01*
Y92814D01*
X302854Y92027D01*
X300492D01*
X302066D02*
X303641Y90453D01*
X308364D02*
X305215D01*
X308364Y93601D01*
Y94389D01*
X307576Y95176D01*
X306002D01*
X305215Y94389D01*
X309938Y91240D02*
X310725Y90453D01*
X312299D01*
X313087Y91240D01*
Y94389D01*
X312299Y95176D01*
X310725D01*
X309938Y94389D01*
Y93601D01*
X310725Y92814D01*
X313087D01*
X61516Y87598D02*
Y92321D01*
X63877D01*
X64664Y91534D01*
Y89960D01*
X63877Y89173D01*
X61516D01*
X63090D02*
X64664Y87598D01*
X66239D02*
X67813D01*
X67026D01*
Y92321D01*
X66239Y91534D01*
X73323Y92321D02*
X71749Y91534D01*
X70174Y89960D01*
Y88386D01*
X70961Y87598D01*
X72536D01*
X73323Y88386D01*
Y89173D01*
X72536Y89960D01*
X70174D01*
X46949Y87697D02*
Y92420D01*
X49310D01*
X50097Y91633D01*
Y90058D01*
X49310Y89271D01*
X46949D01*
X48523D02*
X50097Y87697D01*
X51672D02*
X53246D01*
X52459D01*
Y92420D01*
X51672Y91633D01*
X58756Y92420D02*
X55607D01*
Y90058D01*
X57182Y90845D01*
X57969D01*
X58756Y90058D01*
Y88484D01*
X57969Y87697D01*
X56395D01*
X55607Y88484D01*
X75689Y87598D02*
Y92321D01*
X78050D01*
X78838Y91534D01*
Y89960D01*
X78050Y89173D01*
X75689D01*
X77263D02*
X78838Y87598D01*
X80412D02*
X81986D01*
X81199D01*
Y92321D01*
X80412Y91534D01*
X86709Y87598D02*
Y92321D01*
X84348Y89960D01*
X87496D01*
X553643Y282579D02*
X558366D01*
Y285727D01*
X554430Y290450D02*
X553643Y289663D01*
Y288089D01*
X554430Y287302D01*
X557579D01*
X558366Y288089D01*
Y289663D01*
X557579Y290450D01*
X558366Y292024D02*
Y293599D01*
Y292812D01*
X553643D01*
X554430Y292024D01*
X521949Y217420D02*
Y212697D01*
X525097D01*
X529820D02*
X526672D01*
X529820Y215845D01*
Y216633D01*
X529033Y217420D01*
X527459D01*
X526672Y216633D01*
X35433Y300687D02*
Y295965D01*
X38582D01*
X40156D02*
X41730D01*
X40943D01*
Y300687D01*
X40156Y299900D01*
X479232Y275983D02*
X480807D01*
X480019D01*
Y271260D01*
X479232D01*
X480807D01*
X483168D02*
Y275983D01*
X486317Y271260D01*
Y275983D01*
X487891D02*
Y271260D01*
X490252D01*
X491040Y272047D01*
Y275196D01*
X490252Y275983D01*
X487891D01*
X492614Y275196D02*
X493401Y275983D01*
X494975D01*
X495762Y275196D01*
Y274408D01*
X494975Y273621D01*
X495762Y272834D01*
Y272047D01*
X494975Y271260D01*
X493401D01*
X492614Y272047D01*
Y272834D01*
X493401Y273621D01*
X492614Y274408D01*
Y275196D01*
X493401Y273621D02*
X494975D01*
X422933Y260825D02*
X424507D01*
X423720D01*
Y256102D01*
X422933D01*
X424507D01*
X426869D02*
Y260825D01*
X430017Y256102D01*
Y260825D01*
X431592D02*
Y256102D01*
X433953D01*
X434740Y256890D01*
Y260038D01*
X433953Y260825D01*
X431592D01*
X436315D02*
X439463D01*
Y260038D01*
X436315Y256890D01*
Y256102D01*
X252659Y155315D02*
Y156889D01*
Y156102D01*
X257382D01*
Y155315D01*
Y156889D01*
Y159251D02*
X252659D01*
X257382Y162399D01*
X252659D01*
Y163974D02*
X257382D01*
Y166335D01*
X256595Y167122D01*
X253446D01*
X252659Y166335D01*
Y163974D01*
Y171845D02*
X253446Y170271D01*
X255020Y168696D01*
X256595D01*
X257382Y169484D01*
Y171058D01*
X256595Y171845D01*
X255808D01*
X255020Y171058D01*
Y168696D01*
X452951Y241732D02*
X448228D01*
X450590D01*
Y238584D01*
X452951D01*
X448228D01*
X452951Y237009D02*
X448228D01*
Y233861D01*
Y229925D02*
X452951D01*
X450590Y232287D01*
Y229138D01*
X470176Y213090D02*
X465453D01*
X467814D01*
Y209942D01*
X470176D01*
X465453D01*
X470176Y208368D02*
X465453D01*
Y205219D01*
X469388Y203645D02*
X470176Y202858D01*
Y201283D01*
X469388Y200496D01*
X468601D01*
X467814Y201283D01*
Y202070D01*
Y201283D01*
X467027Y200496D01*
X466240D01*
X465453Y201283D01*
Y202858D01*
X466240Y203645D01*
X452263Y192124D02*
X449114D01*
Y189763D01*
X450689D01*
X449114D01*
Y187402D01*
X456986D02*
X453837D01*
X456986Y190550D01*
Y191337D01*
X456199Y192124D01*
X454624D01*
X453837Y191337D01*
X623720Y258266D02*
X620571D01*
Y255905D01*
X622145D01*
X620571D01*
Y253543D01*
X625294D02*
X626868D01*
X626081D01*
Y258266D01*
X625294Y257479D01*
X260138Y102754D02*
Y98032D01*
X262499D01*
X263286Y98819D01*
Y101967D01*
X262499Y102754D01*
X260138D01*
X264861Y98032D02*
Y101180D01*
X266435Y102754D01*
X268009Y101180D01*
Y98032D01*
Y100393D01*
X264861D01*
X269584Y102754D02*
X272732D01*
Y101967D01*
X269584Y98819D01*
Y98032D01*
X335236Y302361D02*
Y297638D01*
X337598D01*
X338385Y298425D01*
Y301573D01*
X337598Y302361D01*
X335236D01*
X339959Y297638D02*
Y300786D01*
X341533Y302361D01*
X343108Y300786D01*
Y297638D01*
Y299999D01*
X339959D01*
X347831Y302361D02*
X346256Y301573D01*
X344682Y299999D01*
Y298425D01*
X345469Y297638D01*
X347043D01*
X347831Y298425D01*
Y299212D01*
X347043Y299999D01*
X344682D01*
X278542Y251673D02*
X273819D01*
Y249312D01*
X274606Y248525D01*
X277755D01*
X278542Y249312D01*
Y251673D01*
X273819Y246950D02*
X276968D01*
X278542Y245376D01*
X276968Y243802D01*
X273819D01*
X276180D01*
Y246950D01*
X278542Y239079D02*
Y242228D01*
X276180D01*
X276968Y240653D01*
Y239866D01*
X276180Y239079D01*
X274606D01*
X273819Y239866D01*
Y241440D01*
X274606Y242228D01*
X615748Y162203D02*
Y157480D01*
X618110D01*
X618897Y158267D01*
Y161416D01*
X618110Y162203D01*
X615748D01*
X620471Y157480D02*
Y160629D01*
X622045Y162203D01*
X623620Y160629D01*
Y157480D01*
Y159842D01*
X620471D01*
X627555Y157480D02*
Y162203D01*
X625194Y159842D01*
X628342D01*
X413878Y230412D02*
Y225689D01*
X416239D01*
X417027Y226476D01*
Y229625D01*
X416239Y230412D01*
X413878D01*
X418601Y225689D02*
Y228838D01*
X420175Y230412D01*
X421749Y228838D01*
Y225689D01*
Y228050D01*
X418601D01*
X423324Y229625D02*
X424111Y230412D01*
X425685D01*
X426472Y229625D01*
Y228838D01*
X425685Y228050D01*
X424898D01*
X425685D01*
X426472Y227263D01*
Y226476D01*
X425685Y225689D01*
X424111D01*
X423324Y226476D01*
X659844Y101083D02*
X664567D01*
Y103444D01*
X663780Y104231D01*
X660631D01*
X659844Y103444D01*
Y101083D01*
X664567Y105806D02*
X661418D01*
X659844Y107380D01*
X661418Y108954D01*
X664567D01*
X662206D01*
Y105806D01*
X664567Y113677D02*
Y110528D01*
X661418Y113677D01*
X660631D01*
X659844Y112890D01*
Y111316D01*
X660631Y110528D01*
X426279Y316731D02*
Y312008D01*
X428641D01*
X429428Y312795D01*
Y315944D01*
X428641Y316731D01*
X426279D01*
X431002Y312008D02*
Y315157D01*
X432577Y316731D01*
X434151Y315157D01*
Y312008D01*
Y314369D01*
X431002D01*
X435725Y312008D02*
X437300D01*
X436512D01*
Y316731D01*
X435725Y315944D01*
X403050Y182382D02*
X398327D01*
Y180020D01*
X399114Y179233D01*
X402262D01*
X403050Y180020D01*
Y182382D01*
Y174510D02*
X402262Y176085D01*
X400688Y177659D01*
X399114D01*
X398327Y176872D01*
Y175298D01*
X399114Y174510D01*
X399901D01*
X400688Y175298D01*
Y177659D01*
X60335Y254034D02*
Y249311D01*
X62696D01*
X63483Y250098D01*
Y253247D01*
X62696Y254034D01*
X60335D01*
X65057Y249311D02*
X66632D01*
X65845D01*
Y254034D01*
X65057Y253247D01*
X240454Y139468D02*
X239667Y138680D01*
Y137106D01*
X240454Y136319D01*
X243603D01*
X244390Y137106D01*
Y138680D01*
X243603Y139468D01*
X239667Y141042D02*
Y144190D01*
X240454D01*
X243603Y141042D01*
X244390D01*
X239667Y145765D02*
Y148913D01*
X240454D01*
X243603Y145765D01*
X244390D01*
X310629Y264270D02*
X309842Y265057D01*
X308267D01*
X307480Y264270D01*
Y261122D01*
X308267Y260335D01*
X309842D01*
X310629Y261122D01*
X312203Y265057D02*
X315352D01*
Y264270D01*
X312203Y261122D01*
Y260335D01*
X320075Y265057D02*
X318500Y264270D01*
X316926Y262696D01*
Y261122D01*
X317713Y260335D01*
X319287D01*
X320075Y261122D01*
Y261909D01*
X319287Y262696D01*
X316926D01*
X241141Y89566D02*
X240354Y90353D01*
X238779D01*
X237992Y89566D01*
Y86417D01*
X238779Y85630D01*
X240354D01*
X241141Y86417D01*
X242715Y90353D02*
X245864D01*
Y89566D01*
X242715Y86417D01*
Y85630D01*
X249799D02*
Y90353D01*
X247438Y87991D01*
X250587D01*
X296160Y299900D02*
X295373Y300687D01*
X293799D01*
X293012Y299900D01*
Y296752D01*
X293799Y295965D01*
X295373D01*
X296160Y296752D01*
X297735Y300687D02*
X300883D01*
Y299900D01*
X297735Y296752D01*
Y295965D01*
X305606Y300687D02*
X302458D01*
Y298326D01*
X304032Y299113D01*
X304819D01*
X305606Y298326D01*
Y296752D01*
X304819Y295965D01*
X303245D01*
X302458Y296752D01*
X288188Y135333D02*
X287401Y136120D01*
X285826D01*
X285039Y135333D01*
Y132185D01*
X285826Y131398D01*
X287401D01*
X288188Y132185D01*
X289762Y136120D02*
X292911D01*
Y135333D01*
X289762Y132185D01*
Y131398D01*
X294485Y135333D02*
X295272Y136120D01*
X296847D01*
X297634Y135333D01*
Y134546D01*
X296847Y133759D01*
X296059D01*
X296847D01*
X297634Y132972D01*
Y132185D01*
X296847Y131398D01*
X295272D01*
X294485Y132185D01*
X383267Y299999D02*
X382480Y300786D01*
X380905D01*
X380118Y299999D01*
Y296850D01*
X380905Y296063D01*
X382480D01*
X383267Y296850D01*
X384841Y300786D02*
X387990D01*
Y299999D01*
X384841Y296850D01*
Y296063D01*
X392712D02*
X389564D01*
X392712Y299212D01*
Y299999D01*
X391925Y300786D01*
X390351D01*
X389564Y299999D01*
X334352Y199507D02*
X333564Y198720D01*
Y197145D01*
X334352Y196358D01*
X337500D01*
X338287Y197145D01*
Y198720D01*
X337500Y199507D01*
X333564Y201081D02*
Y204230D01*
X334352D01*
X337500Y201081D01*
X338287D01*
Y205804D02*
Y207378D01*
Y206591D01*
X333564D01*
X334352Y205804D01*
X481003Y266436D02*
X480216Y267223D01*
X478642D01*
X477854Y266436D01*
Y263287D01*
X478642Y262500D01*
X480216D01*
X481003Y263287D01*
X482577Y267223D02*
X485726D01*
Y266436D01*
X482577Y263287D01*
Y262500D01*
X487300Y266436D02*
X488087Y267223D01*
X489662D01*
X490449Y266436D01*
Y263287D01*
X489662Y262500D01*
X488087D01*
X487300Y263287D01*
Y266436D01*
X400393Y190845D02*
X399605Y191632D01*
X398031D01*
X397244Y190845D01*
Y187697D01*
X398031Y186909D01*
X399605D01*
X400393Y187697D01*
X405116Y191632D02*
X403541Y190845D01*
X401967Y189271D01*
Y187697D01*
X402754Y186909D01*
X404328D01*
X405116Y187697D01*
Y188484D01*
X404328Y189271D01*
X401967D01*
X406690Y187697D02*
X407477Y186909D01*
X409051D01*
X409838Y187697D01*
Y190845D01*
X409051Y191632D01*
X407477D01*
X406690Y190845D01*
Y190058D01*
X407477Y189271D01*
X409838D01*
X465157Y233857D02*
X464369Y234644D01*
X462795D01*
X462008Y233857D01*
Y230708D01*
X462795Y229921D01*
X464369D01*
X465157Y230708D01*
X469879Y234644D02*
X468305Y233857D01*
X466731Y232283D01*
Y230708D01*
X467518Y229921D01*
X469092D01*
X469879Y230708D01*
Y231496D01*
X469092Y232283D01*
X466731D01*
X471454Y233857D02*
X472241Y234644D01*
X473815D01*
X474602Y233857D01*
Y233070D01*
X473815Y232283D01*
X474602Y231496D01*
Y230708D01*
X473815Y229921D01*
X472241D01*
X471454Y230708D01*
Y231496D01*
X472241Y232283D01*
X471454Y233070D01*
Y233857D01*
X472241Y232283D02*
X473815D01*
X394192Y260040D02*
X394979Y260827D01*
Y262402D01*
X394192Y263189D01*
X391043D01*
X390256Y262402D01*
Y260827D01*
X391043Y260040D01*
X394979Y255317D02*
X394192Y256892D01*
X392617Y258466D01*
X391043D01*
X390256Y257679D01*
Y256105D01*
X391043Y255317D01*
X391830D01*
X392617Y256105D01*
Y258466D01*
X394979Y253743D02*
Y250595D01*
X394192D01*
X391043Y253743D01*
X390256D01*
X570671Y175294D02*
X569883Y174507D01*
Y172933D01*
X570671Y172146D01*
X573819D01*
X574606Y172933D01*
Y174507D01*
X573819Y175294D01*
X569883Y180017D02*
X570671Y178443D01*
X572245Y176869D01*
X573819D01*
X574606Y177656D01*
Y179230D01*
X573819Y180017D01*
X573032D01*
X572245Y179230D01*
Y176869D01*
X569883Y184740D02*
X570671Y183166D01*
X572245Y181591D01*
X573819D01*
X574606Y182379D01*
Y183953D01*
X573819Y184740D01*
X573032D01*
X572245Y183953D01*
Y181591D01*
X417027Y165156D02*
X416239Y165943D01*
X414665D01*
X413878Y165156D01*
Y162008D01*
X414665Y161221D01*
X416239D01*
X417027Y162008D01*
X421749Y165943D02*
X420175Y165156D01*
X418601Y163582D01*
Y162008D01*
X419388Y161221D01*
X420962D01*
X421749Y162008D01*
Y162795D01*
X420962Y163582D01*
X418601D01*
X426472Y165943D02*
X423324D01*
Y163582D01*
X424898Y164369D01*
X425685D01*
X426472Y163582D01*
Y162008D01*
X425685Y161221D01*
X424111D01*
X423324Y162008D01*
X360333Y226773D02*
X361121Y227560D01*
Y229134D01*
X360333Y229921D01*
X357185D01*
X356398Y229134D01*
Y227560D01*
X357185Y226773D01*
X361121Y222050D02*
X360333Y223624D01*
X358759Y225198D01*
X357185D01*
X356398Y224411D01*
Y222837D01*
X357185Y222050D01*
X357972D01*
X358759Y222837D01*
Y225198D01*
X360333Y220476D02*
X361121Y219688D01*
Y218114D01*
X360333Y217327D01*
X359546D01*
X358759Y218114D01*
Y218901D01*
Y218114D01*
X357972Y217327D01*
X357185D01*
X356398Y218114D01*
Y219688D01*
X357185Y220476D01*
X371948Y242322D02*
X371161Y243109D01*
X369586D01*
X368799Y242322D01*
Y239173D01*
X369586Y238386D01*
X371161D01*
X371948Y239173D01*
X376671Y243109D02*
X375096Y242322D01*
X373522Y240747D01*
Y239173D01*
X374309Y238386D01*
X375884D01*
X376671Y239173D01*
Y239960D01*
X375884Y240747D01*
X373522D01*
X381394Y238386D02*
X378245D01*
X381394Y241534D01*
Y242322D01*
X380606Y243109D01*
X379032D01*
X378245Y242322D01*
X498326Y57873D02*
X497539Y58660D01*
X495964D01*
X495177Y57873D01*
Y54724D01*
X495964Y53937D01*
X497539D01*
X498326Y54724D01*
X503049Y58660D02*
X501474Y57873D01*
X499900Y56299D01*
Y54724D01*
X500687Y53937D01*
X502261D01*
X503049Y54724D01*
Y55511D01*
X502261Y56299D01*
X499900D01*
X504623Y53937D02*
X506197D01*
X505410D01*
Y58660D01*
X504623Y57873D01*
X681300Y230609D02*
X680513Y229822D01*
Y228248D01*
X681300Y227461D01*
X684449D01*
X685236Y228248D01*
Y229822D01*
X684449Y230609D01*
X680513Y235332D02*
X681300Y233758D01*
X682875Y232184D01*
X684449D01*
X685236Y232971D01*
Y234545D01*
X684449Y235332D01*
X683662D01*
X682875Y234545D01*
Y232184D01*
X681300Y236906D02*
X680513Y237694D01*
Y239268D01*
X681300Y240055D01*
X684449D01*
X685236Y239268D01*
Y237694D01*
X684449Y236906D01*
X681300D01*
X611810Y209644D02*
X611023Y210432D01*
X609449D01*
X608661Y209644D01*
Y206496D01*
X609449Y205709D01*
X611023D01*
X611810Y206496D01*
X616533Y210432D02*
X613384D01*
Y208070D01*
X614959Y208857D01*
X615746D01*
X616533Y208070D01*
Y206496D01*
X615746Y205709D01*
X614172D01*
X613384Y206496D01*
X618107D02*
X618894Y205709D01*
X620469D01*
X621256Y206496D01*
Y209644D01*
X620469Y210432D01*
X618894D01*
X618107Y209644D01*
Y208857D01*
X618894Y208070D01*
X621256D01*
X460334Y223325D02*
X459547Y224113D01*
X457972D01*
X457185Y223325D01*
Y220177D01*
X457972Y219390D01*
X459547D01*
X460334Y220177D01*
X465057Y224113D02*
X461908D01*
Y221751D01*
X463482Y222538D01*
X464269D01*
X465057Y221751D01*
Y220177D01*
X464269Y219390D01*
X462695D01*
X461908Y220177D01*
X466631Y223325D02*
X467418Y224113D01*
X468992D01*
X469779Y223325D01*
Y222538D01*
X468992Y221751D01*
X469779Y220964D01*
Y220177D01*
X468992Y219390D01*
X467418D01*
X466631Y220177D01*
Y220964D01*
X467418Y221751D01*
X466631Y222538D01*
Y223325D01*
X467418Y221751D02*
X468992D01*
X411810Y198227D02*
X411023Y199014D01*
X409449D01*
X408661Y198227D01*
Y195079D01*
X409449Y194291D01*
X411023D01*
X411810Y195079D01*
X416533Y199014D02*
X413384D01*
Y196653D01*
X414959Y197440D01*
X415746D01*
X416533Y196653D01*
Y195079D01*
X415746Y194291D01*
X414172D01*
X413384Y195079D01*
X418107Y199014D02*
X421256D01*
Y198227D01*
X418107Y195079D01*
Y194291D01*
X680710Y129330D02*
X679923Y128543D01*
Y126968D01*
X680710Y126181D01*
X683858D01*
X684646Y126968D01*
Y128543D01*
X683858Y129330D01*
X679923Y134053D02*
Y130904D01*
X682284D01*
X681497Y132478D01*
Y133265D01*
X682284Y134053D01*
X683858D01*
X684646Y133265D01*
Y131691D01*
X683858Y130904D01*
X679923Y138776D02*
X680710Y137201D01*
X682284Y135627D01*
X683858D01*
X684646Y136414D01*
Y137988D01*
X683858Y138776D01*
X683071D01*
X682284Y137988D01*
Y135627D01*
X473298Y69985D02*
X472511Y70772D01*
X470937D01*
X470150Y69985D01*
Y66837D01*
X470937Y66050D01*
X472511D01*
X473298Y66837D01*
X478021Y70772D02*
X474872D01*
Y68411D01*
X476447Y69198D01*
X477234D01*
X478021Y68411D01*
Y66837D01*
X477234Y66050D01*
X475660D01*
X474872Y66837D01*
X481957Y66050D02*
Y70772D01*
X479595Y68411D01*
X482744D01*
X334349Y168109D02*
X333562Y168896D01*
X331988D01*
X331201Y168109D01*
Y164960D01*
X331988Y164173D01*
X333562D01*
X334349Y164960D01*
X338285Y164173D02*
Y168896D01*
X335924Y166535D01*
X339072D01*
X343795Y168896D02*
X342221Y168109D01*
X340647Y166535D01*
Y164960D01*
X341434Y164173D01*
X343008D01*
X343795Y164960D01*
Y165747D01*
X343008Y166535D01*
X340647D01*
X296160Y160924D02*
X295373Y161711D01*
X293799D01*
X293012Y160924D01*
Y157775D01*
X293799Y156988D01*
X295373D01*
X296160Y157775D01*
X300096Y156988D02*
Y161711D01*
X297735Y159350D01*
X300883D01*
X305606Y161711D02*
X302458D01*
Y159350D01*
X304032Y160137D01*
X304819D01*
X305606Y159350D01*
Y157775D01*
X304819Y156988D01*
X303245D01*
X302458Y157775D01*
X32479Y292026D02*
X31692Y292813D01*
X30118D01*
X29331Y292026D01*
Y288878D01*
X30118Y288090D01*
X31692D01*
X32479Y288878D01*
X36415Y288090D02*
Y292813D01*
X34054Y290452D01*
X37202D01*
X41138Y288090D02*
Y292813D01*
X38776Y290452D01*
X41925D01*
X166305Y305051D02*
X165649Y305707D01*
X164337D01*
X163681Y305051D01*
Y302428D01*
X164337Y301772D01*
X165649D01*
X166305Y302428D01*
X169585Y301772D02*
Y305707D01*
X167617Y303740D01*
X170241D01*
X174176Y301772D02*
X171553D01*
X174176Y304396D01*
Y305051D01*
X173521Y305707D01*
X172208D01*
X171553Y305051D01*
X30415Y261023D02*
X29627Y260236D01*
Y258661D01*
X30415Y257874D01*
X33563D01*
X34350Y258661D01*
Y260236D01*
X33563Y261023D01*
X34350Y264958D02*
X29627D01*
X31989Y262597D01*
Y265745D01*
X34350Y267320D02*
Y268894D01*
Y268107D01*
X29627D01*
X30415Y267320D01*
X166108Y297965D02*
X165452Y298621D01*
X164140D01*
X163484Y297965D01*
Y295341D01*
X164140Y294685D01*
X165452D01*
X166108Y295341D01*
X169388Y294685D02*
Y298621D01*
X167420Y296653D01*
X170044D01*
X171356Y297965D02*
X172012Y298621D01*
X173324D01*
X173979Y297965D01*
Y297309D01*
X173324Y296653D01*
X172668D01*
X173324D01*
X173979Y295997D01*
Y295341D01*
X173324Y294685D01*
X172012D01*
X171356Y295341D01*
X348884Y118929D02*
X348228Y119585D01*
X346916D01*
X346260Y118929D01*
Y116306D01*
X346916Y115650D01*
X348228D01*
X348884Y116306D01*
X350196Y118929D02*
X350851Y119585D01*
X352164D01*
X352819Y118929D01*
Y118273D01*
X352164Y117617D01*
X351507D01*
X352164D01*
X352819Y116962D01*
Y116306D01*
X352164Y115650D01*
X350851D01*
X350196Y116306D01*
X354131Y118929D02*
X354787Y119585D01*
X356099D01*
X356755Y118929D01*
Y118273D01*
X356099Y117617D01*
X356755Y116962D01*
Y116306D01*
X356099Y115650D01*
X354787D01*
X354131Y116306D01*
Y116962D01*
X354787Y117617D01*
X354131Y118273D01*
Y118929D01*
X354787Y117617D02*
X356099D01*
X531399Y297046D02*
X530612Y296259D01*
Y294685D01*
X531399Y293898D01*
X534548D01*
X535335Y294685D01*
Y296259D01*
X534548Y297046D01*
X531399Y298621D02*
X530612Y299408D01*
Y300982D01*
X531399Y301769D01*
X532186D01*
X532973Y300982D01*
Y300195D01*
Y300982D01*
X533760Y301769D01*
X534548D01*
X535335Y300982D01*
Y299408D01*
X534548Y298621D01*
Y303343D02*
X535335Y304131D01*
Y305705D01*
X534548Y306492D01*
X531399D01*
X530612Y305705D01*
Y304131D01*
X531399Y303343D01*
X532186D01*
X532973Y304131D01*
Y306492D01*
X305609Y121849D02*
X304822Y122636D01*
X303248D01*
X302461Y121849D01*
Y118701D01*
X303248Y117913D01*
X304822D01*
X305609Y118701D01*
X307184Y121849D02*
X307971Y122636D01*
X309545D01*
X310332Y121849D01*
Y121062D01*
X309545Y120275D01*
X308758D01*
X309545D01*
X310332Y119488D01*
Y118701D01*
X309545Y117913D01*
X307971D01*
X307184Y118701D01*
X311906Y121849D02*
X312694Y122636D01*
X314268D01*
X315055Y121849D01*
Y121062D01*
X314268Y120275D01*
X313481D01*
X314268D01*
X315055Y119488D01*
Y118701D01*
X314268Y117913D01*
X312694D01*
X311906Y118701D01*
X413975Y296554D02*
X413188Y297341D01*
X411614D01*
X410827Y296554D01*
Y293405D01*
X411614Y292618D01*
X413188D01*
X413975Y293405D01*
X415550Y296554D02*
X416337Y297341D01*
X417911D01*
X418698Y296554D01*
Y295767D01*
X417911Y294980D01*
X417124D01*
X417911D01*
X418698Y294192D01*
Y293405D01*
X417911Y292618D01*
X416337D01*
X415550Y293405D01*
X420272Y297341D02*
X423421D01*
Y296554D01*
X420272Y293405D01*
Y292618D01*
X482479Y283266D02*
X481692Y284054D01*
X480118D01*
X479331Y283266D01*
Y280118D01*
X480118Y279331D01*
X481692D01*
X482479Y280118D01*
X484054Y283266D02*
X484841Y284054D01*
X486415D01*
X487202Y283266D01*
Y282479D01*
X486415Y281692D01*
X485628D01*
X486415D01*
X487202Y280905D01*
Y280118D01*
X486415Y279331D01*
X484841D01*
X484054Y280118D01*
X491138Y279331D02*
Y284054D01*
X488776Y281692D01*
X491925D01*
X431594Y298719D02*
X430806Y299506D01*
X429232D01*
X428445Y298719D01*
Y295571D01*
X429232Y294783D01*
X430806D01*
X431594Y295571D01*
X433168Y298719D02*
X433955Y299506D01*
X435529D01*
X436316Y298719D01*
Y297932D01*
X435529Y297145D01*
X434742D01*
X435529D01*
X436316Y296358D01*
Y295571D01*
X435529Y294783D01*
X433955D01*
X433168Y295571D01*
X441039Y294783D02*
X437891D01*
X441039Y297932D01*
Y298719D01*
X440252Y299506D01*
X438678D01*
X437891Y298719D01*
X444391Y252657D02*
X443604Y251869D01*
Y250295D01*
X444391Y249508D01*
X447540D01*
X448327Y250295D01*
Y251869D01*
X447540Y252657D01*
X444391Y254231D02*
X443604Y255018D01*
Y256592D01*
X444391Y257379D01*
X445178D01*
X445965Y256592D01*
Y255805D01*
Y256592D01*
X446753Y257379D01*
X447540D01*
X448327Y256592D01*
Y255018D01*
X447540Y254231D01*
X448327Y258954D02*
Y260528D01*
Y259741D01*
X443604D01*
X444391Y258954D01*
X233365Y169585D02*
X232578Y170372D01*
X231004D01*
X230217Y169585D01*
Y166437D01*
X231004Y165650D01*
X232578D01*
X233365Y166437D01*
X238088Y165650D02*
X234939D01*
X238088Y168798D01*
Y169585D01*
X237301Y170372D01*
X235727D01*
X234939Y169585D01*
X239662Y170372D02*
X242811D01*
Y169585D01*
X239662Y166437D01*
Y165650D01*
X208070Y170176D02*
X207283Y170963D01*
X205708D01*
X204921Y170176D01*
Y167027D01*
X205708Y166240D01*
X207283D01*
X208070Y167027D01*
X212793Y166240D02*
X209644D01*
X212793Y169389D01*
Y170176D01*
X212006Y170963D01*
X210431D01*
X209644Y170176D01*
X217516Y170963D02*
X215941Y170176D01*
X214367Y168602D01*
Y167027D01*
X215154Y166240D01*
X216728D01*
X217516Y167027D01*
Y167815D01*
X216728Y168602D01*
X214367D01*
X185762Y173907D02*
X184649Y173907D01*
X183536Y172794D01*
X183536Y171681D01*
X185762Y169454D01*
X186875D01*
X187989Y170567D01*
Y171681D01*
X191885Y174464D02*
X189658Y172237D01*
Y176690D01*
X189102Y177247D01*
X187989Y177247D01*
X186875Y176133D01*
X186875Y175020D01*
X191885Y181143D02*
X189658Y178916D01*
X191328Y177247D01*
X191885Y178916D01*
X192441Y179473D01*
X193555D01*
X194668Y178360D01*
Y177247D01*
X193555Y176133D01*
X192441D01*
X63648Y72473D02*
X62991Y73129D01*
X61680D01*
X61024Y72473D01*
Y69849D01*
X61680Y69193D01*
X62991D01*
X63648Y69849D01*
X64959D02*
X65615Y69193D01*
X66927D01*
X67583Y69849D01*
Y72473D01*
X66927Y73129D01*
X65615D01*
X64959Y72473D01*
Y71817D01*
X65615Y71161D01*
X67583D01*
X52361Y72046D02*
X51574Y72833D01*
X50000D01*
X49213Y72046D01*
Y68897D01*
X50000Y68110D01*
X51574D01*
X52361Y68897D01*
X53935Y72833D02*
X57084D01*
Y72046D01*
X53935Y68897D01*
Y68110D01*
X76147Y72374D02*
X75491Y73030D01*
X74180D01*
X73524Y72374D01*
Y69750D01*
X74180Y69095D01*
X75491D01*
X76147Y69750D01*
X80083Y73030D02*
X77459D01*
Y71062D01*
X78771Y71718D01*
X79427D01*
X80083Y71062D01*
Y69750D01*
X79427Y69095D01*
X78115D01*
X77459Y69750D01*
X94586Y72046D02*
X93799Y72833D01*
X92224D01*
X91437Y72046D01*
Y68897D01*
X92224Y68110D01*
X93799D01*
X94586Y68897D01*
X96160Y72046D02*
X96947Y72833D01*
X98521D01*
X99309Y72046D01*
Y71259D01*
X98521Y70472D01*
X97734D01*
X98521D01*
X99309Y69684D01*
Y68897D01*
X98521Y68110D01*
X96947D01*
X96160Y68897D01*
D11*
X255394Y209252D02*
G03*
X255394Y209252I-472J0D01*
G01*
D12*
X168505Y63189D02*
G03*
X168898Y63189I197J0D01*
G01*
D02*
G03*
X168505Y63189I-197J0D01*
G01*
X318504Y337598D02*
G03*
X318504Y337598I-492J0D01*
G01*
X107405Y283291D02*
G03*
X107405Y283291I-492J0D01*
G01*
X17224Y169390D02*
G03*
X17224Y169390I-492J0D01*
G01*
X40650Y158563D02*
G03*
X40650Y158563I-492J0D01*
G01*
X41732Y149705D02*
G03*
X41732Y149705I-492J0D01*
G01*
X45079Y134547D02*
G03*
X45079Y134547I-492J0D01*
G01*
X479232Y197539D02*
G03*
X479232Y197539I-492J0D01*
G01*
X464075Y267323D02*
G03*
X464075Y267323I-492J0D01*
G01*
X608268Y158169D02*
G03*
X608268Y158169I-492J0D01*
G01*
X605413Y205905D02*
G03*
X605413Y205905I-492J0D01*
G01*
X638189Y266338D02*
G03*
X638189Y266338I-492J0D01*
G01*
X639961Y292323D02*
G03*
X639961Y292323I-492J0D01*
G01*
X594291Y265256D02*
G03*
X594291Y265256I-492J0D01*
G01*
X226772Y173229D02*
G03*
X226772Y173229I-492J0D01*
G01*
X200787D02*
G03*
X200787Y173229I-492J0D01*
G01*
X377756Y324882D02*
X547047D01*
X377756D02*
Y403622D01*
X547047Y324882D02*
Y403622D01*
X377756D02*
X547047D01*
X616339Y26417D02*
Y53543D01*
X602559Y26575D02*
Y53445D01*
X593504Y26673D02*
Y53445D01*
X584449Y26673D02*
Y53347D01*
X575000Y26673D02*
Y53347D01*
X565059Y26772D02*
Y53347D01*
X554823Y26673D02*
Y53445D01*
X544783Y26673D02*
Y53445D01*
X535236Y39961D02*
X616339D01*
X535000Y53543D02*
X616339D01*
X535000Y26417D02*
Y53543D01*
X45866Y333465D02*
Y341339D01*
X28150Y323622D02*
X36024D01*
X18307Y333465D02*
Y341339D01*
X615827Y310728D02*
X655827D01*
Y358366D01*
X615827D02*
X655827D01*
X615827Y310728D02*
Y358366D01*
X565039Y310728D02*
X605039D01*
Y358366D01*
X565039D02*
X605039D01*
X565039Y310728D02*
Y358366D01*
X356594Y89664D02*
X361842D01*
X359218Y92288D02*
Y87040D01*
X389764Y116731D02*
X395011D01*
X392388Y119355D02*
Y114107D01*
X603228Y112420D02*
X608476D01*
X574370Y116908D02*
X579618D01*
D13*
X452264Y212008D02*
Y215453D01*
X446358Y212008D02*
Y215453D01*
Y212008D02*
X452264D01*
X446358Y223228D02*
X447146Y224016D01*
X446358Y220374D02*
Y223228D01*
X447146Y224016D02*
X451476D01*
X452264Y223228D01*
Y220374D02*
Y223228D01*
X446358Y198622D02*
Y201476D01*
Y198622D02*
X447146Y197835D01*
X451476D01*
X452264Y198622D02*
Y201476D01*
X451476Y197835D02*
X452264Y198622D01*
X446358Y209842D02*
X452264D01*
Y206398D02*
Y209842D01*
X446358Y206398D02*
Y209842D01*
X321161Y7382D02*
X324606D01*
X321161Y1476D02*
X324606D01*
X313386D02*
X316240D01*
X313386Y7382D02*
X316240D01*
X336811Y1476D02*
X340256D01*
X336811Y7382D02*
X340256D01*
X345177D02*
X348031D01*
X345177Y1476D02*
X348031D01*
X364469Y270571D02*
Y274213D01*
X358563Y270571D02*
X364469D01*
X358563D02*
Y274213D01*
X364469Y280118D02*
Y283760D01*
X358563D02*
X364469D01*
X358563Y280118D02*
Y283760D01*
X392421Y160236D02*
X396358D01*
X392421Y168110D02*
X396358D01*
Y160236D02*
Y168110D01*
X381594Y160236D02*
Y168110D01*
Y160236D02*
X385531D01*
X381594Y168110D02*
X385531D01*
X365256Y280118D02*
Y283760D01*
X371161D01*
Y280118D02*
Y283760D01*
X365256Y270571D02*
Y274213D01*
Y270571D02*
X371161D01*
Y274213D01*
X328937Y182480D02*
Y186122D01*
X323031Y182480D02*
X328937D01*
X323031D02*
Y186122D01*
X328937Y192028D02*
Y195669D01*
X323031D02*
X328937D01*
X323031Y192028D02*
Y195669D01*
X370866Y179528D02*
Y183169D01*
X364961Y179528D02*
X370866D01*
X364961D02*
Y183169D01*
X370866Y189075D02*
Y192717D01*
X364961D02*
X370866D01*
X364961Y189075D02*
Y192717D01*
X395079Y170965D02*
Y174606D01*
X389173Y170965D02*
X395079D01*
X389173D02*
Y174606D01*
X395079Y180512D02*
Y184154D01*
X389173D02*
X395079D01*
X389173Y180512D02*
Y184154D01*
X353740Y260335D02*
Y264272D01*
X345866Y260335D02*
Y264272D01*
X353740D01*
X345866Y249508D02*
X353740D01*
Y253445D01*
X345866Y249508D02*
Y253445D01*
X367913Y260236D02*
Y263878D01*
X373819D01*
Y260236D02*
Y263878D01*
X367913Y250689D02*
Y254331D01*
Y250689D02*
X373819D01*
Y254331D01*
X360433Y250689D02*
Y254331D01*
X354527Y250689D02*
X360433D01*
X354527D02*
Y254331D01*
X360433Y260236D02*
Y263878D01*
X354527D02*
X360433D01*
X354527Y260236D02*
Y263878D01*
X600000Y183464D02*
Y187106D01*
X605905D01*
Y183464D02*
Y187106D01*
X600000Y173917D02*
Y177559D01*
Y173917D02*
X605905D01*
Y177559D01*
X592224Y173917D02*
Y177559D01*
X586319Y173917D02*
X592224D01*
X586319D02*
Y177559D01*
X592224Y183464D02*
Y187106D01*
X586319D02*
X592224D01*
X586319Y183464D02*
Y187106D01*
X522342Y60630D02*
X525984D01*
X522342D02*
Y66535D01*
X525984D01*
X531890Y60630D02*
X535532D01*
Y66535D01*
X531890D02*
X535532D01*
X531890Y73622D02*
X535532D01*
Y67716D02*
Y73622D01*
X531890Y67716D02*
X535532D01*
X522342Y73622D02*
X525984D01*
X522342Y67716D02*
Y73622D01*
Y67716D02*
X525984D01*
X400689Y221260D02*
Y224902D01*
X406595D01*
Y221260D02*
Y224902D01*
X400689Y211713D02*
Y215354D01*
Y211713D02*
X406595D01*
Y215354D01*
X445571Y211319D02*
Y214961D01*
X439665Y211319D02*
X445571D01*
X439665D02*
Y214961D01*
X445571Y220866D02*
Y224508D01*
X439665D02*
X445571D01*
X439665Y220866D02*
Y224508D01*
Y206890D02*
Y210531D01*
X445571D01*
Y206890D02*
Y210531D01*
X439665Y197343D02*
Y200984D01*
Y197343D02*
X445571D01*
Y200984D01*
X625394Y20472D02*
Y25689D01*
X616142D02*
X625394D01*
X616142Y20472D02*
Y25689D01*
X625394Y6398D02*
Y11614D01*
X616142Y6398D02*
X625394D01*
X616142D02*
Y11614D01*
X352067Y131496D02*
Y135138D01*
X346161Y131496D02*
X352067D01*
X346161D02*
Y135138D01*
X352067Y141043D02*
Y144685D01*
X346161D02*
X352067D01*
X346161Y141043D02*
Y144685D01*
X24409Y286319D02*
X28051D01*
Y280413D02*
Y286319D01*
X24409Y280413D02*
X28051D01*
X14862Y286319D02*
X18504D01*
X14862Y280413D02*
Y286319D01*
Y280413D02*
X18504D01*
X189862Y288484D02*
Y292421D01*
X181988Y288484D02*
Y292421D01*
X189862D01*
X181988Y277658D02*
X189862D01*
Y281594D01*
X181988Y277658D02*
Y281594D01*
X321752Y13976D02*
X325394D01*
Y8071D02*
Y13976D01*
X321752Y8071D02*
X325394D01*
X312205Y13976D02*
X315846D01*
X312205Y8071D02*
Y13976D01*
Y8071D02*
X315846D01*
X346949Y100886D02*
Y104528D01*
X352855D01*
Y100886D02*
Y104528D01*
X346949Y91339D02*
Y94980D01*
Y91339D02*
X352855D01*
Y94980D01*
X322539Y31004D02*
X326181D01*
X322539D02*
Y36909D01*
X326181D01*
X332087Y31004D02*
X335728D01*
Y36909D01*
X332087D02*
X335728D01*
X322441Y37697D02*
X326083D01*
X322441D02*
Y43602D01*
X326083D01*
X331988Y37697D02*
X335630D01*
Y43602D01*
X331988D02*
X335630D01*
X92520Y270374D02*
Y274016D01*
X86614Y270374D02*
X92520D01*
X86614D02*
Y274016D01*
X92520Y279921D02*
Y283563D01*
X86614D02*
X92520D01*
X86614Y279921D02*
Y283563D01*
X270276Y201575D02*
X273917D01*
Y195669D02*
Y201575D01*
X270276Y195669D02*
X273917D01*
X260728Y201575D02*
X264370D01*
X260728Y195669D02*
Y201575D01*
Y195669D02*
X264370D01*
X260827Y188779D02*
X264469D01*
X260827D02*
Y194685D01*
X264469D01*
X270374Y188779D02*
X274016D01*
Y194685D01*
X270374D02*
X274016D01*
X40593Y169587D02*
X43168Y167011D01*
X38992Y162836D02*
X43168Y167011D01*
X36417Y165411D02*
X38992Y162836D01*
X33842Y176338D02*
X36417Y173762D01*
X29666Y172162D02*
X33842Y176338D01*
X29666Y172162D02*
X32241Y169587D01*
X148367Y247555D02*
X150942Y244980D01*
X148367Y247555D02*
X152543Y251731D01*
X155118Y249156D01*
Y240805D02*
X157693Y238229D01*
X161869Y242405D01*
X159294Y244980D02*
X161869Y242405D01*
X336122Y8071D02*
X339764D01*
X336122D02*
Y13976D01*
X339764D01*
X345669Y8071D02*
X349311D01*
Y13976D01*
X345669D02*
X349311D01*
X310236Y104429D02*
X313878D01*
Y98524D02*
Y104429D01*
X310236Y98524D02*
X313878D01*
X300689Y104429D02*
X304331D01*
X300689Y98524D02*
Y104429D01*
Y98524D02*
X304331D01*
X338878Y31004D02*
X342520D01*
X338878D02*
Y36909D01*
X342520D01*
X348425Y31004D02*
X352067D01*
Y36909D01*
X348425D02*
X352067D01*
X338878Y37697D02*
X342520D01*
X338878D02*
Y43602D01*
X342520D01*
X348425Y37697D02*
X352067D01*
Y43602D01*
X348425D02*
X352067D01*
X194193Y114469D02*
Y118110D01*
X200098D01*
Y114469D02*
Y118110D01*
X194193Y104921D02*
Y108563D01*
Y104921D02*
X200098D01*
Y108563D01*
X206791Y104921D02*
Y108563D01*
X200886Y104921D02*
X206791D01*
X200886D02*
Y108563D01*
X206791Y114469D02*
Y118110D01*
X200886D02*
X206791D01*
X200886Y114469D02*
Y118110D01*
X70177Y86319D02*
X73819D01*
Y80413D02*
Y86319D01*
X70177Y80413D02*
X73819D01*
X60630Y86319D02*
X64272D01*
X60630Y80413D02*
Y86319D01*
Y80413D02*
X64272D01*
X46654D02*
X50295D01*
X46654D02*
Y86319D01*
X50295D01*
X56201Y80413D02*
X59842D01*
Y86319D01*
X56201D02*
X59842D01*
X84153D02*
X87795D01*
Y80413D02*
Y86319D01*
X84153Y80413D02*
X87795D01*
X74606Y86319D02*
X78248D01*
X74606Y80413D02*
Y86319D01*
Y80413D02*
X78248D01*
X270079Y58661D02*
X273721D01*
X270079D02*
Y64567D01*
X273721D01*
X279626Y58661D02*
X283268D01*
Y64567D01*
X279626D02*
X283268D01*
X405118Y3347D02*
Y6988D01*
X399213Y3347D02*
X405118D01*
X399213D02*
Y6988D01*
X405118Y12894D02*
Y16535D01*
X399213D02*
X405118D01*
X399213Y12894D02*
Y16535D01*
X286713Y62500D02*
X290354D01*
X286713D02*
Y68405D01*
X290354D01*
X296260Y62500D02*
X299902D01*
Y68405D01*
X296260D02*
X299902D01*
X302854Y67224D02*
X306496D01*
X302854D02*
Y73130D01*
X306496D01*
X312402Y67224D02*
X316043D01*
Y73130D01*
X312402D02*
X316043D01*
X384055Y33760D02*
X387697D01*
Y27854D02*
Y33760D01*
X384055Y27854D02*
X387697D01*
X374508Y33760D02*
X378150D01*
X374508Y27854D02*
Y33760D01*
Y27854D02*
X378150D01*
X398622Y33760D02*
X402264D01*
Y27854D02*
Y33760D01*
X398622Y27854D02*
X402264D01*
X389075Y33760D02*
X392717D01*
X389075Y27854D02*
Y33760D01*
Y27854D02*
X392717D01*
X369488Y33760D02*
X373130D01*
Y27854D02*
Y33760D01*
X369488Y27854D02*
X373130D01*
X359941Y33760D02*
X363583D01*
X359941Y27854D02*
Y33760D01*
Y27854D02*
X363583D01*
X247047Y131890D02*
X247736Y131201D01*
X247047Y131890D02*
Y134843D01*
X247736Y131201D02*
X252264D01*
X252953Y131890D01*
Y134843D01*
X247047Y140748D02*
Y143701D01*
X247736Y144390D01*
X252264D01*
X252953Y143701D01*
Y140748D02*
Y143701D01*
X325689Y265551D02*
X326378Y266240D01*
X329331D01*
X325689Y261024D02*
Y265551D01*
Y261024D02*
X326378Y260335D01*
X329331D01*
X335236Y266240D02*
X338189D01*
X338878Y265551D01*
Y261024D02*
Y265551D01*
X338189Y260335D02*
X338878Y261024D01*
X335236Y260335D02*
X338189D01*
X345276Y210827D02*
X345965Y210138D01*
Y207185D02*
Y210138D01*
X340748Y210827D02*
X345276D01*
X340059Y210138D02*
X340748Y210827D01*
X340059Y207185D02*
Y210138D01*
X345965Y198327D02*
Y201279D01*
X345276Y197638D02*
X345965Y198327D01*
X340748Y197638D02*
X345276D01*
X340059Y198327D02*
X340748Y197638D01*
X340059Y198327D02*
Y201279D01*
X492913Y229232D02*
X493602Y229921D01*
X489961Y229232D02*
X492913D01*
X493602Y229921D02*
Y234449D01*
X492913Y235138D02*
X493602Y234449D01*
X489961Y235138D02*
X492913D01*
X481102Y229232D02*
X484055D01*
X480413Y229921D02*
X481102Y229232D01*
X480413Y229921D02*
Y234449D01*
X481102Y235138D01*
X484055D01*
X366437Y263878D02*
X367126Y263189D01*
Y260236D02*
Y263189D01*
X361909Y263878D02*
X366437D01*
X361220Y263189D02*
X361909Y263878D01*
X361220Y260236D02*
Y263189D01*
X367126Y251378D02*
Y254331D01*
X366437Y250689D02*
X367126Y251378D01*
X361909Y250689D02*
X366437D01*
X361220Y251378D02*
X361909Y250689D01*
X361220Y251378D02*
Y254331D01*
X598425Y187106D02*
X599114Y186417D01*
Y183464D02*
Y186417D01*
X593897Y187106D02*
X598425D01*
X593209Y186417D02*
X593897Y187106D01*
X593209Y183464D02*
Y186417D01*
X599114Y174606D02*
Y177559D01*
X598425Y173917D02*
X599114Y174606D01*
X593897Y173917D02*
X598425D01*
X593209Y174606D02*
X593897Y173917D01*
X593209Y174606D02*
Y177559D01*
X442028Y184252D02*
X442717Y183563D01*
Y180610D02*
Y183563D01*
X437500Y184252D02*
X442028D01*
X436811Y183563D02*
X437500Y184252D01*
X436811Y180610D02*
Y183563D01*
X442717Y171752D02*
Y174705D01*
X442028Y171063D02*
X442717Y171752D01*
X437500Y171063D02*
X442028D01*
X436811Y171752D02*
X437500Y171063D01*
X436811Y171752D02*
Y174705D01*
X348622Y217717D02*
X349311Y217028D01*
X348622Y217717D02*
Y220669D01*
X349311Y217028D02*
X353839D01*
X354527Y217717D01*
Y220669D01*
X348622Y226575D02*
Y229528D01*
X349311Y230217D01*
X353839D01*
X354527Y229528D01*
Y226575D02*
Y229528D01*
X534842Y53937D02*
X535532Y54626D01*
X531890Y53937D02*
X534842D01*
X535532Y54626D02*
Y59153D01*
X534842Y59842D02*
X535532Y59153D01*
X531890Y59842D02*
X534842D01*
X523032Y53937D02*
X525984D01*
X522342Y54626D02*
X523032Y53937D01*
X522342Y54626D02*
Y59153D01*
X523032Y59842D01*
X525984D01*
X626673Y211023D02*
X627362Y211712D01*
X630315D01*
X626673Y206496D02*
Y211023D01*
Y206496D02*
X627362Y205807D01*
X630315D01*
X636220Y211712D02*
X639173D01*
X639862Y211023D01*
Y206496D02*
Y211023D01*
X639173Y205807D02*
X639862Y206496D01*
X636220Y205807D02*
X639173D01*
X405905Y210925D02*
X406595Y210236D01*
Y207283D02*
Y210236D01*
X401378Y210925D02*
X405905D01*
X400689Y210236D02*
X401378Y210925D01*
X400689Y207283D02*
Y210236D01*
X406595Y198425D02*
Y201378D01*
X405905Y197736D02*
X406595Y198425D01*
X401378Y197736D02*
X405905D01*
X400689Y198425D02*
X401378Y197736D01*
X400689Y198425D02*
Y201378D01*
X626772Y6398D02*
X634744D01*
X626083Y7087D02*
X626772Y6398D01*
X626083Y7087D02*
Y11614D01*
X634744Y6398D02*
X635335Y6988D01*
Y11614D01*
X626772Y25689D02*
X634646D01*
X626083Y25000D02*
X626772Y25689D01*
X626083Y20472D02*
Y25000D01*
X634646Y25689D02*
X635335Y25000D01*
Y20472D02*
Y25000D01*
X469685Y62303D02*
X470374Y62992D01*
X473327D01*
X469685Y57776D02*
Y62303D01*
Y57776D02*
X470374Y57087D01*
X473327D01*
X479232Y62992D02*
X482185D01*
X482874Y62303D01*
Y57776D02*
Y62303D01*
X482185Y57087D02*
X482874Y57776D01*
X479232Y57087D02*
X482185D01*
X331890Y161811D02*
X332579Y162500D01*
X335531D01*
X331890Y157283D02*
Y161811D01*
Y157283D02*
X332579Y156595D01*
X335531D01*
X341437Y162500D02*
X344390D01*
X345079Y161811D01*
Y157283D02*
Y161811D01*
X344390Y156595D02*
X345079Y157283D01*
X341437Y156595D02*
X344390D01*
X323917Y156595D02*
X324606Y157283D01*
X320965Y156595D02*
X323917D01*
X324606Y157283D02*
Y161811D01*
X323917Y162500D02*
X324606Y161811D01*
X320965Y162500D02*
X323917D01*
X312106Y156595D02*
X315059D01*
X311417Y157283D02*
X312106Y156595D01*
X311417Y157283D02*
Y161811D01*
X312106Y162500D01*
X315059D01*
X14665Y292618D02*
X15354Y293307D01*
X18307D01*
X14665Y288090D02*
Y292618D01*
Y288090D02*
X15354Y287402D01*
X18307D01*
X24213Y293307D02*
X27165D01*
X27854Y292618D01*
Y288090D02*
Y292618D01*
X27165Y287402D02*
X27854Y288090D01*
X24213Y287402D02*
X27165D01*
X175197Y298721D02*
X175886Y299410D01*
X178839D01*
X175197Y294193D02*
Y298721D01*
Y294193D02*
X175886Y293504D01*
X178839D01*
X184744Y299410D02*
X187697D01*
X188386Y298721D01*
Y294193D02*
Y298721D01*
X187697Y293504D02*
X188386Y294193D01*
X184744Y293504D02*
X187697D01*
X175197Y305610D02*
X175886Y306299D01*
X178839D01*
X175197Y301083D02*
Y305610D01*
Y301083D02*
X175886Y300394D01*
X178839D01*
X184744Y306299D02*
X187697D01*
X188386Y305610D01*
Y301083D02*
Y305610D01*
X187697Y300394D02*
X188386Y301083D01*
X184744Y300394D02*
X187697D01*
X35335Y285236D02*
X36024Y284547D01*
Y281299D02*
Y284547D01*
X28838Y285236D02*
X35335D01*
X28150Y284547D02*
X28838Y285236D01*
X28150Y281299D02*
Y284547D01*
Y271161D02*
X28839Y270472D01*
X28150Y271161D02*
Y274409D01*
X28839Y270472D02*
X35335D01*
X36024Y271162D01*
Y274409D01*
X332087Y122441D02*
X332776Y123130D01*
X335728D01*
X332087Y117913D02*
Y122441D01*
Y117913D02*
X332776Y117224D01*
X335728D01*
X341634Y123130D02*
X344587D01*
X345276Y122441D01*
Y117913D02*
Y122441D01*
X344587Y117224D02*
X345276Y117913D01*
X341634Y117224D02*
X344587D01*
X26969Y159547D02*
X27657Y160236D01*
X24016Y159547D02*
X26969D01*
X27657Y160236D02*
Y164764D01*
X26969Y165453D02*
X27657Y164764D01*
X24016Y165453D02*
X26969D01*
X15157Y159547D02*
X18110D01*
X14469Y160236D02*
X15157Y159547D01*
X14469Y160236D02*
Y164764D01*
X15157Y165453D01*
X18110D01*
X476378Y278740D02*
X477067Y279429D01*
X473425Y278740D02*
X476378D01*
X477067Y279429D02*
Y283957D01*
X476378Y284646D02*
X477067Y283957D01*
X473425Y284646D02*
X476378D01*
X464567Y278740D02*
X467520D01*
X463878Y279429D02*
X464567Y278740D01*
X463878Y279429D02*
Y283957D01*
X464567Y284646D01*
X467520D01*
X316240Y122441D02*
X316929Y123130D01*
X319882D01*
X316240Y117913D02*
Y122441D01*
Y117913D02*
X316929Y117224D01*
X319882D01*
X325787Y123130D02*
X328740D01*
X329429Y122441D01*
Y117913D02*
Y122441D01*
X328740Y117224D02*
X329429Y117913D01*
X325787Y117224D02*
X328740D01*
X447441Y283957D02*
X448130Y284646D01*
X451083D01*
X447441Y279429D02*
Y283957D01*
Y279429D02*
X448130Y278740D01*
X451083D01*
X456988Y284646D02*
X459941D01*
X460630Y283957D01*
Y279429D02*
Y283957D01*
X459941Y278740D02*
X460630Y279429D01*
X456988Y278740D02*
X459941D01*
X183331Y168820D02*
Y169795D01*
X181243Y166732D02*
X183331Y168820D01*
X180129Y172996D02*
X183331Y169795D01*
X179155Y172996D02*
X180129D01*
X177067Y170908D02*
X179155Y172996D01*
X174979Y160469D02*
X177067Y162557D01*
X174005Y160469D02*
X174979D01*
X170803Y163670D02*
X174005Y160469D01*
X170803Y163670D02*
Y164644D01*
X172891Y166732D01*
X192717Y118110D02*
X193405Y117421D01*
Y114469D02*
Y117421D01*
X188189Y118110D02*
X192717D01*
X187500Y117421D02*
X188189Y118110D01*
X187500Y114469D02*
Y117421D01*
X193405Y105610D02*
Y108563D01*
X192717Y104921D02*
X193405Y105610D01*
X188189Y104921D02*
X192717D01*
X187500Y105610D02*
X188189Y104921D01*
X187500Y105610D02*
Y108563D01*
X60630Y79035D02*
X61319Y79724D01*
X64272D01*
X60630Y74508D02*
Y79035D01*
Y74508D02*
X61319Y73819D01*
X64272D01*
X70177Y79724D02*
X73130D01*
X73819Y79035D01*
Y74508D02*
Y79035D01*
X73130Y73819D02*
X73819Y74508D01*
X70177Y73819D02*
X73130D01*
X59153D02*
X59842Y74508D01*
X56201Y73819D02*
X59153D01*
X59842Y74508D02*
Y79035D01*
X59153Y79724D02*
X59842Y79035D01*
X56201Y79724D02*
X59153D01*
X47343Y73819D02*
X50295D01*
X46654Y74508D02*
X47343Y73819D01*
X46654Y74508D02*
Y79035D01*
X47343Y79724D01*
X50295D01*
X74606Y79035D02*
X75295Y79724D01*
X78248D01*
X74606Y74508D02*
Y79035D01*
Y74508D02*
X75295Y73819D01*
X78248D01*
X84153Y79724D02*
X87106D01*
X87795Y79035D01*
Y74508D02*
Y79035D01*
X87106Y73819D02*
X87795Y74508D01*
X84153Y73819D02*
X87106D01*
X88583Y79035D02*
X89272Y79724D01*
X92224D01*
X88583Y74508D02*
Y79035D01*
Y74508D02*
X89272Y73819D01*
X92224D01*
X98130Y79724D02*
X101083D01*
X101772Y79035D01*
Y74508D02*
Y79035D01*
X101083Y73819D02*
X101772Y74508D01*
X98130Y73819D02*
X101083D01*
X145276Y81792D02*
X145965Y82481D01*
X148917D01*
X145276Y77264D02*
Y81792D01*
Y77264D02*
X145965Y76575D01*
X148917D01*
X154823Y82481D02*
X157776D01*
X158465Y81792D01*
Y77264D02*
Y81792D01*
X157776Y76575D02*
X158465Y77264D01*
X154823Y76575D02*
X157776D01*
X145276Y75099D02*
X145965Y75788D01*
X148917D01*
X145276Y70571D02*
Y75099D01*
Y70571D02*
X145965Y69882D01*
X148917D01*
X154823Y75788D02*
X157776D01*
X158465Y75099D01*
Y70571D02*
Y75099D01*
X157776Y69882D02*
X158465Y70571D01*
X154823Y69882D02*
X157776D01*
D14*
X259842Y248009D02*
X263142D01*
X259842Y248309D02*
X263142D01*
X260142Y248609D02*
X263442D01*
X260142Y248909D02*
X263442D01*
X260742Y249509D02*
X263742D01*
X260742Y249809D02*
X263742D01*
X261042Y250109D02*
X264042D01*
X261342Y250409D02*
X264042D01*
X261342Y250709D02*
X264342D01*
X261342Y251009D02*
X264342D01*
X261642Y251309D02*
X264342D01*
X261642Y251609D02*
X264642D01*
X261942Y251909D02*
X264642D01*
X261942Y252209D02*
X264942D01*
X262242Y252509D02*
X264942D01*
X262242Y252809D02*
X264942D01*
X262542Y253109D02*
X265242D01*
X262542Y253409D02*
X265242D01*
X262842Y253709D02*
X265242D01*
X262842Y254009D02*
X265242D01*
X263142Y254309D02*
X265542D01*
X263142Y254609D02*
X265542D01*
X263442Y254909D02*
X265542D01*
X263442Y255209D02*
X265842D01*
X263442Y255509D02*
X265842D01*
X263742Y255809D02*
X265842D01*
X263742Y256109D02*
X266142D01*
X263742Y256409D02*
X266142D01*
X264042Y256709D02*
X266142D01*
X264042Y257009D02*
X266142D01*
X264342Y257609D02*
X266442D01*
X264342Y257909D02*
X266442D01*
X264342Y258209D02*
X266442D01*
X264642Y258509D02*
X266442D01*
X264642Y258809D02*
X266742D01*
X264642Y259109D02*
X266742D01*
X264642Y259409D02*
X266742D01*
X264942Y259709D02*
X266742D01*
X264942Y260009D02*
X266742D01*
X264942Y260309D02*
X267042D01*
X265242Y260609D02*
X267042D01*
X265242Y260909D02*
X267042D01*
X265242Y261209D02*
X267042D01*
X265542Y261509D02*
X267042D01*
X265542Y261809D02*
X267042D01*
X265542Y262109D02*
X267042D01*
X265542Y262409D02*
X267042D01*
X266742Y272909D02*
X267042D01*
X266742Y273509D02*
X267042D01*
X266442Y273809D02*
X267042D01*
X266442Y274109D02*
X267042D01*
X266442Y274409D02*
X267042D01*
X266442Y274709D02*
X267042D01*
X266442Y275009D02*
X266742D01*
X266442Y275309D02*
X266742D01*
X252042Y239009D02*
X257742D01*
X252342Y239309D02*
X258042D01*
X252642Y239609D02*
X258342D01*
X252942Y239909D02*
X258342D01*
X253242Y240209D02*
X258642D01*
X253842Y240509D02*
X258942D01*
X254142Y240809D02*
X258942D01*
X243642Y246809D02*
X247542D01*
X243942Y247109D02*
X247542D01*
X244242Y247409D02*
X247842D01*
X244542Y247709D02*
X247842D01*
X244842Y248009D02*
X248142D01*
X245142Y248309D02*
X248142D01*
X245442Y248609D02*
X248442D01*
X245442Y248909D02*
X248442D01*
X246042Y249509D02*
X248742D01*
X246342Y249809D02*
X249042D01*
X246642Y250109D02*
X249042D01*
X246642Y250409D02*
X249342D01*
X246942Y250709D02*
X249342D01*
X246942Y251009D02*
X249342D01*
X247242Y251309D02*
X249642D01*
X247542Y251609D02*
X249642D01*
X247542Y251909D02*
X249942D01*
X247842Y252209D02*
X249942D01*
X247842Y252509D02*
X249942D01*
X248142Y252809D02*
X250242D01*
X248442Y253109D02*
X250242D01*
X248442Y253409D02*
X250242D01*
X248742Y253709D02*
X250242D01*
X248742Y254009D02*
X250542D01*
X248742Y254309D02*
X250542D01*
X249042Y254609D02*
X250542D01*
X249042Y254909D02*
X250542D01*
X249042Y255209D02*
X250842D01*
X249342Y255509D02*
X250842D01*
X249342Y255809D02*
X250842D01*
X249642Y256109D02*
X250842D01*
X249642Y256409D02*
X250842D01*
X249642Y256709D02*
X250842D01*
X249942Y257009D02*
X250842D01*
X249942Y257609D02*
X250842D01*
X249942Y257909D02*
X251142D01*
X250242Y258209D02*
X251142D01*
X250242Y258509D02*
X251142D01*
X250242Y258809D02*
X251142D01*
X250242Y259109D02*
X251142D01*
X250542Y259409D02*
X251142D01*
X250542Y259709D02*
X251142D01*
X250542Y260009D02*
X251142D01*
X250542Y260309D02*
X251142D01*
X250542Y260609D02*
X251142D01*
X250542Y260909D02*
X250842D01*
X228942Y236909D02*
X233442D01*
X227742Y237209D02*
X234642D01*
X227742Y268409D02*
X230742D01*
X228042Y268709D02*
X231042D01*
X228642Y269009D02*
X231342D01*
X228942Y269309D02*
X231642D01*
X229242Y269609D02*
X231942D01*
X229542Y269909D02*
X232242D01*
X230142Y270209D02*
X232842D01*
X230742Y270509D02*
X233142D01*
X231042Y270809D02*
X233442D01*
X231642Y271109D02*
X234042D01*
X232242Y271409D02*
X234342D01*
X232842Y271709D02*
X234942D01*
X233442Y272009D02*
X235242D01*
X228042Y289709D02*
X233442D01*
X228642Y290009D02*
X234042D01*
X228942Y290309D02*
X234642D01*
X229542Y290609D02*
X235242D01*
X220242Y245009D02*
X227142D01*
X220242Y245309D02*
X227142D01*
X220242Y245609D02*
X226842D01*
X219942Y245909D02*
X226542D01*
X219942Y246209D02*
X226242D01*
X219942Y246509D02*
X226242D01*
X219942Y246809D02*
X225942D01*
X219642Y247109D02*
X225642D01*
X219642Y247409D02*
X225642D01*
X219642Y247709D02*
X225342D01*
X219642Y248009D02*
X225342D01*
X219642Y248309D02*
X225342D01*
X219642Y248609D02*
X225042D01*
X219642Y248909D02*
X225042D01*
X219642Y252509D02*
X224142D01*
X219642Y252809D02*
X224142D01*
X219642Y253109D02*
X224142D01*
X219642Y253409D02*
X224142D01*
X219642Y253709D02*
X224142D01*
X219642Y254009D02*
X224142D01*
X219642Y254309D02*
X224142D01*
X219942Y254609D02*
X224142D01*
X219942Y254909D02*
X224142D01*
X219942Y255209D02*
X224142D01*
X219942Y255509D02*
X224142D01*
X220242Y255809D02*
X224142D01*
X220242Y256109D02*
X224142D01*
X220242Y256409D02*
X224142D01*
X220242Y256709D02*
X224442D01*
X220542Y257009D02*
X224442D01*
X220542Y257609D02*
X224442D01*
X220542Y257909D02*
X224442D01*
X220842Y258209D02*
X224742D01*
X220842Y258509D02*
X224742D01*
X221142Y258809D02*
X224742D01*
X221142Y259109D02*
X224742D01*
X221442Y259409D02*
X225042D01*
X221442Y259709D02*
X225042D01*
X221442Y260009D02*
X225042D01*
X221742Y260309D02*
X225342D01*
X221742Y260609D02*
X225342D01*
X222042Y260909D02*
X225342D01*
X222042Y261209D02*
X225642D01*
X222342Y261509D02*
X225642D01*
X222342Y261809D02*
X225942D01*
X222642Y262109D02*
X225942D01*
X222942Y262409D02*
X226242D01*
X222942Y262709D02*
X226242D01*
X223242Y263009D02*
X226542D01*
X223242Y263309D02*
X226542D01*
X223542Y263609D02*
X226842D01*
X223842Y263909D02*
X227142D01*
X223842Y264209D02*
X227142D01*
X219642Y283109D02*
X225042D01*
X219942Y283409D02*
X225342D01*
X220242Y283709D02*
X225642D01*
X220542Y284009D02*
X225942D01*
X220842Y284309D02*
X226242D01*
X221142Y284609D02*
X226542D01*
X221442Y284909D02*
X226842D01*
X222042Y285209D02*
X227142D01*
X211842Y272609D02*
X217242D01*
X211842Y272909D02*
X217542D01*
X212142Y273509D02*
X217842D01*
X212442Y273809D02*
X218142D01*
X212742Y274109D02*
X218142D01*
X212742Y274409D02*
X218442D01*
X213042Y274709D02*
X218742D01*
X213342Y275009D02*
X218742D01*
X213342Y275309D02*
X219042D01*
X213642Y275609D02*
X219042D01*
X260442Y249209D02*
X263742D01*
X264042Y257309D02*
X266442D01*
X266742Y273209D02*
X267042D01*
X254142Y241109D02*
X259242D01*
X245742Y249209D02*
X248742D01*
X249942Y257309D02*
X250842D01*
X220542D02*
X224442D01*
X212142Y273209D02*
X217842D01*
X240042Y232109D02*
X251442D01*
X240642Y232409D02*
X251742D01*
X241542Y232709D02*
X252042D01*
X242142Y233009D02*
X252342D01*
X243642Y233609D02*
X252942D01*
X244242Y233909D02*
X253242D01*
X245142Y234209D02*
X253542D01*
X245742Y234509D02*
X253842D01*
X246042Y234809D02*
X254142D01*
X246642Y235109D02*
X254442D01*
X246942Y235409D02*
X254742D01*
X247542Y235709D02*
X255042D01*
X248142Y236009D02*
X255342D01*
X248442Y236309D02*
X255642D01*
X249042Y236609D02*
X255942D01*
X249342Y236909D02*
X255942D01*
X249642Y237209D02*
X256242D01*
X250242Y237509D02*
X256542D01*
X250542Y237809D02*
X256842D01*
X250842Y238109D02*
X257142D01*
X251142Y238409D02*
X257142D01*
X251442Y238709D02*
X257442D01*
X254442Y241409D02*
X259542D01*
X254742Y241709D02*
X259542D01*
X255042Y242009D02*
X259842D01*
X255342Y242309D02*
X259842D01*
X255642Y242609D02*
X260142D01*
X255942Y242909D02*
X260442D01*
X256242Y243209D02*
X260442D01*
X256542Y243509D02*
X260742D01*
X256542Y243809D02*
X261042D01*
X256842Y244109D02*
X261042D01*
X240042D02*
X245442D01*
X257142Y244409D02*
X261342D01*
X240642D02*
X245742D01*
X257442Y244709D02*
X261342D01*
X241242D02*
X246042D01*
X257742Y245009D02*
X261642D01*
X241542D02*
X246342D01*
X258042Y245309D02*
X261642D01*
X241842D02*
X246342D01*
X258042Y245609D02*
X261942D01*
X242142D02*
X246642D01*
X258342Y245909D02*
X261942D01*
X242742D02*
X246942D01*
X258642Y246209D02*
X262242D01*
X243042D02*
X246942D01*
X258642Y246509D02*
X262242D01*
X243342D02*
X247242D01*
X258942Y246809D02*
X262542D01*
X259242Y247109D02*
X262542D01*
X259242Y247409D02*
X262842D01*
X259542Y247709D02*
X263142D01*
X265542Y262709D02*
X267342D01*
X265842Y263009D02*
X267342D01*
X265842Y263309D02*
X267342D01*
X265842Y263609D02*
X267342D01*
X265842Y263909D02*
X267342D01*
X265842Y264209D02*
X267342D01*
X265842Y264509D02*
X267342D01*
X265842Y264809D02*
X267342D01*
X266142Y265409D02*
X267342D01*
X266142Y265709D02*
X267342D01*
X266142Y266009D02*
X267342D01*
X266142Y266309D02*
X267342D01*
X266142Y266609D02*
X267342D01*
X266142Y266909D02*
X267342D01*
X266442Y267209D02*
X267342D01*
X266442Y267509D02*
X267342D01*
X266442Y267809D02*
X267342D01*
X266442Y268109D02*
X267342D01*
X266442Y268409D02*
X267342D01*
X266442Y268709D02*
X267342D01*
X266442Y269009D02*
X267342D01*
X266442Y269309D02*
X267342D01*
X266442Y269609D02*
X267342D01*
X266442Y269909D02*
X267342D01*
X266442Y270209D02*
X267342D01*
X266442Y270509D02*
X267342D01*
X266442Y270809D02*
X267342D01*
X266442Y271109D02*
X267342D01*
X266442Y271409D02*
X267342D01*
X266442Y271709D02*
X267342D01*
X266442Y272009D02*
X267342D01*
X266442Y272309D02*
X267342D01*
X266742Y272609D02*
X267342D01*
X240342Y294209D02*
X248442D01*
X225642Y222809D02*
X232542D01*
X224142Y223109D02*
X234342D01*
X222942Y223409D02*
X235542D01*
X222042Y223709D02*
X236742D01*
X221142Y224009D02*
X237942D01*
X220542Y224309D02*
X238542D01*
X210942Y231209D02*
X229542D01*
X210642Y231509D02*
X228042D01*
X210642Y231809D02*
X226842D01*
X210342Y232109D02*
X225942D01*
X210042Y232409D02*
X225042D01*
X210042Y232709D02*
X224442D01*
X209742Y233009D02*
X223842D01*
X209442Y233609D02*
X222642D01*
X209142Y233909D02*
X222042D01*
X209142Y234209D02*
X221742D01*
X208842Y234509D02*
X221442D01*
X208842Y234809D02*
X220842D01*
X208542Y235109D02*
X220542D01*
X208542Y235409D02*
X220242D01*
X208242Y235709D02*
X219942D01*
X208242Y236009D02*
X219642D01*
X207942Y236309D02*
X219342D01*
X207942Y236609D02*
X218742D01*
X207642Y236909D02*
X218442D01*
X207642Y237209D02*
X218442D01*
X227142Y237509D02*
X235842D01*
X207642D02*
X218142D01*
X226542Y237809D02*
X236742D01*
X225642Y238109D02*
X237642D01*
X225342Y238409D02*
X238242D01*
X224742Y238709D02*
X238842D01*
X221442Y242609D02*
X232242D01*
X221142Y242909D02*
X230742D01*
X221142Y243209D02*
X229842D01*
X220842Y243509D02*
X229242D01*
X220842Y243809D02*
X228642D01*
X220842Y244109D02*
X228342D01*
X220542Y244409D02*
X228042D01*
X220542Y244709D02*
X227442D01*
X219342Y249509D02*
X224742D01*
X219342Y249809D02*
X224742D01*
X219342Y250109D02*
X224442D01*
X219342Y250409D02*
X224442D01*
X219342Y250709D02*
X224442D01*
X219342Y251009D02*
X224442D01*
X219342Y251309D02*
X224442D01*
X219342Y251609D02*
X224142D01*
X219342Y251909D02*
X224142D01*
X219342Y252209D02*
X224142D01*
X207642Y263309D02*
X213642D01*
X207642Y263609D02*
X213942D01*
X207642Y263909D02*
X213942D01*
X207942Y264209D02*
X213942D01*
X224142Y264509D02*
X227442D01*
X207942D02*
X214242D01*
X224442Y264809D02*
X227442D01*
X207942D02*
X214242D01*
X224742Y265409D02*
X228042D01*
X208242D02*
X214242D01*
X225042Y265709D02*
X228342D01*
X208542D02*
X214542D01*
X225342Y266009D02*
X228342D01*
X208542D02*
X214542D01*
X225642Y266309D02*
X228642D01*
X208542D02*
X214542D01*
X225942Y266609D02*
X228942D01*
X208842D02*
X214842D01*
X226242Y266909D02*
X229242D01*
X208842D02*
X214842D01*
X226542Y267209D02*
X229542D01*
X209142D02*
X214842D01*
X226842Y267509D02*
X229542D01*
X209142D02*
X215142D01*
X227142Y267809D02*
X230142D01*
X209142D02*
X215142D01*
X227442Y268109D02*
X230442D01*
X209442D02*
X215442D01*
X209442Y268409D02*
X215442D01*
X209742Y268709D02*
X215742D01*
X209742Y269009D02*
X215742D01*
X210042Y269309D02*
X215742D01*
X210042Y269609D02*
X216042D01*
X210342Y269909D02*
X216042D01*
X210342Y270209D02*
X216342D01*
X210642Y270509D02*
X216342D01*
X210642Y270809D02*
X216642D01*
X210942Y271109D02*
X216642D01*
X210942Y271409D02*
X216642D01*
X211242Y271709D02*
X216942D01*
X211242Y272009D02*
X216942D01*
X234342Y272309D02*
X235842D01*
X211542D02*
X217242D01*
X235542Y272609D02*
X235842D01*
X213942Y275909D02*
X219342D01*
X213942Y276209D02*
X219642D01*
X214242Y276509D02*
X219642D01*
X214242Y276809D02*
X219942D01*
X214542Y277109D02*
X219942D01*
X214842Y277409D02*
X220242D01*
X215142Y277709D02*
X220542D01*
X215142Y278009D02*
X220842D01*
X215442Y278309D02*
X221142D01*
X215742Y278609D02*
X221142D01*
X216042Y278909D02*
X221442D01*
X216342Y279209D02*
X221742D01*
X216342Y279509D02*
X222042D01*
X216642Y279809D02*
X222042D01*
X216942Y280109D02*
X222342D01*
X217242Y280409D02*
X222642D01*
X217542Y280709D02*
X222942D01*
X217842Y281009D02*
X222942D01*
X218142Y281609D02*
X223542D01*
X218442Y281909D02*
X223842D01*
X218742Y282209D02*
X224142D01*
X219042Y282509D02*
X224442D01*
X219342Y282809D02*
X224742D01*
X222342Y285509D02*
X227442D01*
X222642Y285809D02*
X227742D01*
X222942Y286109D02*
X228342D01*
X223242Y286409D02*
X228642D01*
X223842Y286709D02*
X228942D01*
X224142Y287009D02*
X229542D01*
X224442Y287309D02*
X229842D01*
X224742Y287609D02*
X230142D01*
X225342Y287909D02*
X230742D01*
X225642Y288209D02*
X231042D01*
X226242Y288509D02*
X231342D01*
X226542Y288809D02*
X231942D01*
X227442Y289409D02*
X233142D01*
X230142Y290909D02*
X235842D01*
X230742Y291209D02*
X236442D01*
X231342Y291509D02*
X237042D01*
X232242Y291809D02*
X237942D01*
X232842Y292109D02*
X238842D01*
X243042Y233309D02*
X252642D01*
X266142Y265109D02*
X267342D01*
X209442Y233309D02*
X223242D01*
X219342Y249209D02*
X224742D01*
Y265109D02*
X227742D01*
X208242D02*
X214242D01*
X217842Y281309D02*
X223242D01*
X227142Y289109D02*
X232542D01*
X236442Y231209D02*
X250242D01*
X237642Y231509D02*
X250842D01*
X238842Y231809D02*
X251142D01*
X224442Y239009D02*
X239442D01*
X224142Y239309D02*
X240042D01*
X223842Y239609D02*
X240342D01*
X235242Y242609D02*
X244242D01*
X237342Y242909D02*
X244542D01*
X238242Y243209D02*
X244842D01*
X238842Y243509D02*
X245142D01*
X239442Y243809D02*
X245142D01*
X233442Y292409D02*
X239742D01*
X234342Y292709D02*
X240642D01*
X235242Y293009D02*
X242142D01*
X236142Y293309D02*
X244542D01*
X237042Y293609D02*
X251442D01*
X238542Y293909D02*
X250242D01*
X207342Y237809D02*
X217842D01*
X207342Y238109D02*
X217542D01*
X207342Y238409D02*
X217242D01*
X207042Y238709D02*
X217242D01*
X207042Y239009D02*
X216942D01*
X207042Y239309D02*
X216642D01*
X206742Y239609D02*
X216642D01*
X206742Y239909D02*
X216342D01*
X206442Y240209D02*
X216042D01*
X206442Y240509D02*
X216042D01*
X206442Y240809D02*
X215742D01*
X206142Y241409D02*
X215442D01*
X206142Y241709D02*
X215442D01*
X206142Y242009D02*
X215142D01*
X206142Y242309D02*
X215142D01*
X205842Y242609D02*
X214842D01*
X205842Y242909D02*
X214842D01*
X205842Y243209D02*
X214542D01*
X205842Y243509D02*
X214542D01*
X205542Y243809D02*
X214242D01*
X205542Y244109D02*
X214242D01*
X205542Y244409D02*
X214242D01*
X205542Y244709D02*
X214242D01*
X205542Y245009D02*
X213942D01*
X205542Y245309D02*
X213942D01*
X205542Y245609D02*
X213942D01*
X205542Y245909D02*
X213642D01*
X205542Y246209D02*
X213642D01*
X205242Y246509D02*
X213642D01*
X205242Y246809D02*
X213342D01*
X205242Y247109D02*
X213342D01*
X205242Y247409D02*
X213342D01*
X205242Y247709D02*
X213342D01*
X205242Y248009D02*
X213342D01*
X205242Y248309D02*
X213042D01*
X205242Y248609D02*
X213042D01*
X205242Y248909D02*
X213042D01*
X205242Y249509D02*
X213042D01*
X205242Y249809D02*
X213042D01*
X205242Y250109D02*
X213042D01*
X205242Y250409D02*
X212742D01*
X205242Y250709D02*
X212742D01*
X205242Y251009D02*
X212742D01*
X205242Y251309D02*
X212742D01*
X205242Y251609D02*
X212742D01*
X205242Y251909D02*
X212742D01*
X205542Y252209D02*
X212742D01*
X205542Y252509D02*
X212742D01*
X205542Y252809D02*
X212742D01*
X205542Y253109D02*
X212742D01*
X205542Y253409D02*
X212742D01*
X205542Y253709D02*
X212742D01*
X205542Y254009D02*
X212742D01*
X205542Y254309D02*
X212742D01*
X205542Y254609D02*
X212742D01*
X205542Y254909D02*
X212742D01*
X205542Y255209D02*
X212742D01*
X205842Y255509D02*
X212742D01*
X205842Y255809D02*
X212742D01*
X205842Y256109D02*
X212742D01*
X205842Y256409D02*
X212742D01*
X205842Y256709D02*
X212742D01*
X205842Y257009D02*
X212742D01*
X206142Y257609D02*
X212742D01*
X206142Y257909D02*
X212742D01*
X206142Y258209D02*
X212742D01*
X206142Y258509D02*
X212742D01*
X206442Y258809D02*
X213042D01*
X206442Y259109D02*
X213042D01*
X206442Y259409D02*
X213042D01*
X206442Y259709D02*
X213042D01*
X206442Y260009D02*
X213042D01*
X206742Y260309D02*
X213042D01*
X206742Y260609D02*
X213042D01*
X206742Y260909D02*
X213342D01*
X207042Y261209D02*
X213342D01*
X207042Y261509D02*
X213342D01*
X207042Y261809D02*
X213342D01*
X207342Y262109D02*
X213342D01*
X207342Y262409D02*
X213642D01*
X207342Y262709D02*
X213642D01*
X207342Y263009D02*
X213642D01*
X206442Y241109D02*
X215742D01*
X205242Y249209D02*
X213042D01*
X206142Y257309D02*
X212742D01*
X219642Y224609D02*
X239442D01*
X219042Y224909D02*
X240042D01*
X217842Y225509D02*
X241542D01*
X217242Y225809D02*
X242142D01*
X216942Y226109D02*
X242742D01*
X216342Y226409D02*
X243342D01*
X215742Y226709D02*
X243942D01*
X215442Y227009D02*
X244542D01*
X214842Y227309D02*
X244842D01*
X214542Y227609D02*
X245442D01*
X214242Y227909D02*
X246042D01*
X213942Y228209D02*
X246342D01*
X213342Y228509D02*
X246942D01*
X213042Y228809D02*
X247242D01*
X212742Y229109D02*
X247542D01*
X212442Y229409D02*
X248142D01*
X212142Y229709D02*
X248442D01*
X211842Y230009D02*
X249042D01*
X211542Y230309D02*
X249342D01*
X211542Y230609D02*
X249642D01*
X211242Y230909D02*
X249942D01*
X223542Y239909D02*
X240942D01*
X223242Y240209D02*
X241242D01*
X222942Y240509D02*
X241842D01*
X222642Y240809D02*
X242142D01*
X222042Y241409D02*
X243042D01*
X222042Y241709D02*
X243342D01*
X221742Y242009D02*
X243642D01*
X221742Y242309D02*
X243942D01*
X218442Y225209D02*
X240942D01*
X222342Y241109D02*
X242742D01*
D15*
X64547Y102106D02*
X64902D01*
X58661Y276969D02*
X60661D01*
X59661D01*
Y282967D01*
X58661Y281967D01*
X63660Y282967D02*
Y278968D01*
X65659Y276969D01*
X67659Y278968D01*
Y282967D01*
X69658Y281967D02*
X70657Y282967D01*
X72657D01*
X73657Y281967D01*
Y280967D01*
X72657Y279967D01*
X73657Y278968D01*
Y277968D01*
X72657Y276969D01*
X70657D01*
X69658Y277968D01*
Y278968D01*
X70657Y279967D01*
X69658Y280967D01*
Y281967D01*
X70657Y279967D02*
X72657D01*
X293602Y254802D02*
X294602Y255801D01*
X296601D01*
X297601Y254802D01*
Y253802D01*
X296601Y252802D01*
X295602D01*
X296601D01*
X297601Y251802D01*
Y250803D01*
X296601Y249803D01*
X294602D01*
X293602Y250803D01*
X299600Y255801D02*
Y251802D01*
X301600Y249803D01*
X303599Y251802D01*
Y255801D01*
X305598Y254802D02*
X306598Y255801D01*
X308597D01*
X309597Y254802D01*
Y253802D01*
X308597Y252802D01*
X309597Y251802D01*
Y250803D01*
X308597Y249803D01*
X306598D01*
X305598Y250803D01*
Y251802D01*
X306598Y252802D01*
X305598Y253802D01*
Y254802D01*
X306598Y252802D02*
X308597D01*
X311596Y248803D02*
X315595D01*
X321593Y255801D02*
X317595D01*
Y249803D01*
X321593D01*
X317595Y252802D02*
X319594D01*
X323593Y255801D02*
X327591Y249803D01*
Y255801D02*
X323593Y249803D01*
X329591Y255801D02*
X333589D01*
X331590D01*
Y249803D01*
X284055Y198911D02*
Y192913D01*
X287054D01*
X288054Y193913D01*
Y194913D01*
X287054Y195912D01*
X284055D01*
X287054D01*
X288054Y196912D01*
Y197912D01*
X287054Y198911D01*
X284055D01*
X290053Y192913D02*
Y196912D01*
X292053Y198911D01*
X294052Y196912D01*
Y192913D01*
Y195912D01*
X290053D01*
X296051Y198911D02*
Y192913D01*
Y194913D01*
X300050Y198911D01*
X297051Y195912D01*
X300050Y192913D01*
X274508Y179408D02*
X275508Y180408D01*
X277507D01*
X278507Y179408D01*
Y178408D01*
X277507Y177409D01*
X276507D01*
X277507D01*
X278507Y176409D01*
Y175409D01*
X277507Y174409D01*
X275508D01*
X274508Y175409D01*
X280506Y180408D02*
Y176409D01*
X282505Y174409D01*
X284505Y176409D01*
Y180408D01*
X286504Y179408D02*
X287504Y180408D01*
X289503D01*
X290503Y179408D01*
Y178408D01*
X289503Y177409D01*
X290503Y176409D01*
Y175409D01*
X289503Y174409D01*
X287504D01*
X286504Y175409D01*
Y176409D01*
X287504Y177409D01*
X286504Y178408D01*
Y179408D01*
X287504Y177409D02*
X289503D01*
X164961Y127067D02*
Y131066D01*
X166960Y133065D01*
X168959Y131066D01*
Y127067D01*
Y130066D01*
X164961D01*
X170959Y133065D02*
Y127067D01*
X173958D01*
X174957Y128067D01*
Y132065D01*
X173958Y133065D01*
X170959D01*
X180956Y132065D02*
X179956Y133065D01*
X177956D01*
X176957Y132065D01*
Y128067D01*
X177956Y127067D01*
X179956D01*
X180956Y128067D01*
X182955Y127067D02*
X184954D01*
X183955D01*
Y133065D01*
X182955Y132065D01*
X61024Y295565D02*
Y289567D01*
X64023D01*
X65022Y290567D01*
Y291566D01*
X64023Y292566D01*
X61024D01*
X64023D01*
X65022Y293566D01*
Y294565D01*
X64023Y295565D01*
X61024D01*
X70021D02*
X68021D01*
X67022Y294565D01*
Y290567D01*
X68021Y289567D01*
X70021D01*
X71020Y290567D01*
Y294565D01*
X70021Y295565D01*
X76019D02*
X74019D01*
X73020Y294565D01*
Y290567D01*
X74019Y289567D01*
X76019D01*
X77018Y290567D01*
Y294565D01*
X76019Y295565D01*
X79018D02*
X83017D01*
X81017D01*
Y289567D01*
X518510Y38878D02*
Y40877D01*
Y39878D01*
X524508D01*
Y38878D01*
Y40877D01*
Y43876D02*
X518510D01*
X524508Y47875D01*
X518510D01*
Y49874D02*
Y53873D01*
Y51874D01*
X524508D01*
X510947Y38780D02*
X509947Y39779D01*
Y41779D01*
X510947Y42778D01*
X511946D01*
X512946Y41779D01*
Y40779D01*
Y41779D01*
X513945Y42778D01*
X514945D01*
X515945Y41779D01*
Y39779D01*
X514945Y38780D01*
X509947Y44778D02*
X513945D01*
X515945Y46777D01*
X513945Y48776D01*
X509947D01*
X510947Y50776D02*
X509947Y51775D01*
Y53775D01*
X510947Y54774D01*
X511946D01*
X512946Y53775D01*
X513945Y54774D01*
X514945D01*
X515945Y53775D01*
Y51775D01*
X514945Y50776D01*
X513945D01*
X512946Y51775D01*
X511946Y50776D01*
X510947D01*
X512946Y51775D02*
Y53775D01*
X471260Y241732D02*
Y243732D01*
Y242732D01*
X465262D01*
X466261Y241732D01*
X471260Y250729D02*
Y246731D01*
X467261Y250729D01*
X466261D01*
X465262Y249730D01*
Y247730D01*
X466261Y246731D01*
X465262Y252729D02*
X469261D01*
X471260Y254728D01*
X469261Y256727D01*
X465262D01*
X411319Y240453D02*
Y246451D01*
X413318Y244451D01*
X415318Y246451D01*
Y240453D01*
X420316Y246451D02*
X418317D01*
X417317Y245451D01*
Y241452D01*
X418317Y240453D01*
X420316D01*
X421316Y241452D01*
Y245451D01*
X420316Y246451D01*
X423315D02*
Y241452D01*
X424315Y240453D01*
X426314D01*
X427314Y241452D01*
Y246451D01*
X429313D02*
X433312D01*
X431312D01*
Y240453D01*
X293058Y190939D02*
X291059D01*
X290059Y189939D01*
Y185941D01*
X291059Y184941D01*
X293058D01*
X294058Y185941D01*
Y189939D01*
X293058Y190939D01*
X296057Y184941D02*
Y190939D01*
X300056Y184941D01*
Y190939D01*
X398782Y291333D02*
X394783D01*
Y288334D01*
X396783Y289333D01*
X397782D01*
X398782Y288334D01*
Y286334D01*
X397782Y285335D01*
X395783D01*
X394783Y286334D01*
X400781Y291333D02*
Y287334D01*
X402781Y285335D01*
X404780Y287334D01*
Y291333D01*
X274508Y171943D02*
Y165945D01*
X277507D01*
X278507Y166945D01*
Y167944D01*
X277507Y168944D01*
X274508D01*
X277507D01*
X278507Y169944D01*
Y170943D01*
X277507Y171943D01*
X274508D01*
X280506Y165945D02*
Y169944D01*
X282505Y171943D01*
X284505Y169944D01*
Y165945D01*
Y168944D01*
X280506D01*
X286504Y171943D02*
Y165945D01*
Y167944D01*
X290503Y171943D01*
X287504Y168944D01*
X290503Y165945D01*
X227362Y131573D02*
X228362Y132573D01*
X230361D01*
X231361Y131573D01*
Y130573D01*
X230361Y129574D01*
X229362D01*
X230361D01*
X231361Y128574D01*
Y127575D01*
X230361Y126575D01*
X228362D01*
X227362Y127575D01*
X233360Y132573D02*
Y128574D01*
X235360Y126575D01*
X237359Y128574D01*
Y132573D01*
X239358Y131573D02*
X240358Y132573D01*
X242357D01*
X243357Y131573D01*
Y130573D01*
X242357Y129574D01*
X241358D01*
X242357D01*
X243357Y128574D01*
Y127575D01*
X242357Y126575D01*
X240358D01*
X239358Y127575D01*
X162205Y88955D02*
X163204Y89955D01*
X165204D01*
X166203Y88955D01*
Y87955D01*
X165204Y86956D01*
X164204D01*
X165204D01*
X166203Y85956D01*
Y84956D01*
X165204Y83957D01*
X163204D01*
X162205Y84956D01*
X168203Y89955D02*
Y85956D01*
X170202Y83957D01*
X172202Y85956D01*
Y89955D01*
X2657Y200984D02*
X8655D01*
Y197985D01*
X7656Y196985D01*
X5657D01*
X4657Y197985D01*
Y200984D01*
Y198985D02*
X2657Y196985D01*
X7656Y190988D02*
X8655Y191987D01*
Y193986D01*
X7656Y194986D01*
X6656D01*
X5657Y193986D01*
Y191987D01*
X4657Y190988D01*
X3657D01*
X2657Y191987D01*
Y193986D01*
X3657Y194986D01*
X8655Y188988D02*
Y184989D01*
Y186989D01*
X2657D01*
D16*
X454824Y212992D02*
Y216141D01*
X453249Y214566D02*
X456398D01*
X454625Y209842D02*
Y206694D01*
X456200Y208268D02*
X453051D01*
X330354Y4430D02*
X327206D01*
X328780Y2856D02*
Y6004D01*
X331063Y4428D02*
X334212D01*
X332637Y6003D02*
Y2854D01*
X485727Y199606D02*
Y195671D01*
X487695Y197638D02*
X483759D01*
X444291Y277656D02*
X448227D01*
X446259Y279624D02*
Y275689D01*
X284449Y109942D02*
X280513D01*
X282481Y107974D02*
Y111910D01*
X220572Y111221D02*
Y115156D01*
X218604Y113188D02*
X222540D01*
X425198Y186516D02*
Y190452D01*
X423230Y188484D02*
X427166D01*
X493730Y259743D02*
X497665D01*
X495697Y261711D02*
Y257775D01*
X371949Y224903D02*
X368013D01*
X369981Y222935D02*
Y226870D01*
X379527Y290846D02*
Y286911D01*
X381494Y288879D02*
X377559D01*
X484842Y301379D02*
X480907D01*
X482875Y299411D02*
Y303347D01*
X633858Y140454D02*
X629922D01*
X631890Y138486D02*
Y142422D01*
X634842Y236517D02*
X630907D01*
X632875Y234549D02*
Y238485D01*
X372441Y196851D02*
X368505D01*
X370473Y194883D02*
Y198819D01*
X316142Y281692D02*
X320077D01*
X318110Y283660D02*
Y279724D01*
D17*
X553445Y55512D02*
X552527D01*
Y56430D01*
X553445D01*
Y55512D01*
D18*
X169782Y256692D02*
X168995Y257479D01*
X167421D01*
X166634Y256692D01*
Y255905D01*
X167421Y255117D01*
X168995D01*
X169782Y254330D01*
Y253543D01*
X168995Y252756D01*
X167421D01*
X166634Y253543D01*
X174505Y256692D02*
X173718Y257479D01*
X172144D01*
X171357Y256692D01*
Y253543D01*
X172144Y252756D01*
X173718D01*
X174505Y253543D01*
X176080Y257479D02*
Y252756D01*
X179228D01*
X169094Y266239D02*
X168306Y267026D01*
X166732D01*
X165945Y266239D01*
Y265452D01*
X166732Y264665D01*
X168306D01*
X169094Y263877D01*
Y263090D01*
X168306Y262303D01*
X166732D01*
X165945Y263090D01*
X170668Y267026D02*
Y262303D01*
X173029D01*
X173816Y263090D01*
Y266239D01*
X173029Y267026D01*
X170668D01*
X175391Y262303D02*
Y265452D01*
X176965Y267026D01*
X178539Y265452D01*
Y262303D01*
Y264665D01*
X175391D01*
X181694Y108759D02*
X180907Y107972D01*
Y106397D01*
X181694Y105610D01*
X184843D01*
X185630Y106397D01*
Y107972D01*
X184843Y108759D01*
X185630Y110333D02*
Y111907D01*
Y111120D01*
X180907D01*
X181694Y110333D01*
Y114269D02*
X180907Y115056D01*
Y116630D01*
X181694Y117418D01*
X184843D01*
X185630Y116630D01*
Y115056D01*
X184843Y114269D01*
X181694D01*
X309252Y21160D02*
Y18011D01*
X310826Y16437D01*
X312401Y18011D01*
Y21160D01*
X313975D02*
X317123D01*
X315549D01*
Y16437D01*
X318698Y20373D02*
X319485Y21160D01*
X321059D01*
X321846Y20373D01*
Y19586D01*
X321059Y18798D01*
X320272D01*
X321059D01*
X321846Y18011D01*
Y17224D01*
X321059Y16437D01*
X319485D01*
X318698Y17224D01*
X307972Y31496D02*
Y36219D01*
X310334D01*
X311121Y35432D01*
Y33858D01*
X310334Y33070D01*
X307972D01*
X309547D02*
X311121Y31496D01*
X312695Y35432D02*
X313482Y36219D01*
X315057D01*
X315844Y35432D01*
Y34645D01*
X315057Y33858D01*
X314270D01*
X315057D01*
X315844Y33070D01*
Y32283D01*
X315057Y31496D01*
X313482D01*
X312695Y32283D01*
X317418Y35432D02*
X318205Y36219D01*
X319780D01*
X320567Y35432D01*
Y34645D01*
X319780Y33858D01*
X320567Y33070D01*
Y32283D01*
X319780Y31496D01*
X318205D01*
X317418Y32283D01*
Y33070D01*
X318205Y33858D01*
X317418Y34645D01*
Y35432D01*
X318205Y33858D02*
X319780D01*
X308563Y44291D02*
Y49014D01*
X310924D01*
X311712Y48227D01*
Y46653D01*
X310924Y45866D01*
X308563D01*
X310137D02*
X311712Y44291D01*
X313286Y48227D02*
X314073Y49014D01*
X315647D01*
X316435Y48227D01*
Y47440D01*
X315647Y46653D01*
X314860D01*
X315647D01*
X316435Y45866D01*
Y45079D01*
X315647Y44291D01*
X314073D01*
X313286Y45079D01*
X321157Y49014D02*
X319583Y48227D01*
X318009Y46653D01*
Y45079D01*
X318796Y44291D01*
X320370D01*
X321157Y45079D01*
Y45866D01*
X320370Y46653D01*
X318009D01*
X296850Y6888D02*
Y2165D01*
Y4527D01*
X299999D01*
Y6888D01*
Y2165D01*
X301573Y6888D02*
Y2165D01*
X304722D01*
X309445D02*
X306296D01*
X309445Y5314D01*
Y6101D01*
X308658Y6888D01*
X307083D01*
X306296Y6101D01*
X350886Y8957D02*
Y13680D01*
X353247D01*
X354034Y12892D01*
Y11318D01*
X353247Y10531D01*
X350886D01*
X352460D02*
X354034Y8957D01*
X355609Y12892D02*
X356396Y13680D01*
X357970D01*
X358757Y12892D01*
Y12105D01*
X357970Y11318D01*
X357183D01*
X357970D01*
X358757Y10531D01*
Y9744D01*
X357970Y8957D01*
X356396D01*
X355609Y9744D01*
X360332Y12892D02*
X361119Y13680D01*
X362693D01*
X363480Y12892D01*
Y9744D01*
X362693Y8957D01*
X361119D01*
X360332Y9744D01*
Y12892D01*
X352165Y6888D02*
Y2165D01*
Y4527D01*
X355314D01*
Y6888D01*
Y2165D01*
X356888Y6888D02*
Y2165D01*
X360037D01*
X361611D02*
X363185D01*
X362398D01*
Y6888D01*
X361611Y6101D01*
X541142Y76672D02*
Y71949D01*
X543503D01*
X544290Y72736D01*
Y75885D01*
X543503Y76672D01*
X541142D01*
X549013D02*
X545865D01*
Y74310D01*
X547439Y75097D01*
X548226D01*
X549013Y74310D01*
Y72736D01*
X548226Y71949D01*
X546652D01*
X545865Y72736D01*
X438289Y159645D02*
X437501Y158858D01*
Y157283D01*
X438289Y156496D01*
X441437D01*
X442224Y157283D01*
Y158858D01*
X441437Y159645D01*
X437501Y164367D02*
X438289Y162793D01*
X439863Y161219D01*
X441437D01*
X442224Y162006D01*
Y163580D01*
X441437Y164367D01*
X440650D01*
X439863Y163580D01*
Y161219D01*
X442224Y168303D02*
X437501D01*
X439863Y165942D01*
Y169090D01*
X137597Y84546D02*
X136810Y85333D01*
X135236D01*
X134449Y84546D01*
Y81397D01*
X135236Y80610D01*
X136810D01*
X137597Y81397D01*
X142320Y80610D02*
X139172D01*
X142320Y83759D01*
Y84546D01*
X141533Y85333D01*
X139959D01*
X139172Y84546D01*
X137991Y73227D02*
X137204Y74014D01*
X135630D01*
X134843Y73227D01*
Y70078D01*
X135630Y69291D01*
X137204D01*
X137991Y70078D01*
X139565Y69291D02*
X141140D01*
X140353D01*
Y74014D01*
X139565Y73227D01*
D19*
X608597Y42323D02*
X608072Y42848D01*
Y43897D01*
X608597Y44422D01*
X609121D01*
X609646Y43897D01*
Y43372D01*
Y43897D01*
X610171Y44422D01*
X610696D01*
X611221Y43897D01*
Y42848D01*
X610696Y42323D01*
X608072Y45471D02*
X610171D01*
X611221Y46521D01*
X610171Y47570D01*
X608072D01*
X608597Y48620D02*
X608072Y49145D01*
Y50194D01*
X608597Y50719D01*
X609121D01*
X609646Y50194D01*
Y49670D01*
Y50194D01*
X610171Y50719D01*
X610696D01*
X611221Y50194D01*
Y49145D01*
X610696Y48620D01*
D20*
X523917Y27165D02*
X525583D01*
X524750D01*
Y32164D01*
X523917Y31331D01*
X531415Y32164D02*
X528083D01*
Y29664D01*
X529749Y30498D01*
X530582D01*
X531415Y29664D01*
Y27998D01*
X530582Y27165D01*
X528916D01*
X528083Y27998D01*
D21*
X381102Y34547D02*
Y39270D01*
X383464D01*
X384251Y38483D01*
Y36909D01*
X383464Y36121D01*
X381102D01*
X382677D02*
X384251Y34547D01*
X388974Y39270D02*
X387400Y38483D01*
X385825Y36909D01*
Y35334D01*
X386612Y34547D01*
X388187D01*
X388974Y35334D01*
Y36121D01*
X388187Y36909D01*
X385825D01*
X395768Y34646D02*
Y39369D01*
X398129D01*
X398916Y38581D01*
Y37007D01*
X398129Y36220D01*
X395768D01*
X397342D02*
X398916Y34646D01*
X403639Y39369D02*
X400491D01*
Y37007D01*
X402065Y37794D01*
X402852D01*
X403639Y37007D01*
Y35433D01*
X402852Y34646D01*
X401278D01*
X400491Y35433D01*
X366437Y34547D02*
Y39270D01*
X368798D01*
X369586Y38483D01*
Y36909D01*
X368798Y36121D01*
X366437D01*
X368011D02*
X369586Y34547D01*
X373521D02*
Y39270D01*
X371160Y36909D01*
X374308D01*
M02*
