G04*
G04 #@! TF.GenerationSoftware,Altium Limited,Altium Designer,19.1.8 (144)*
G04*
G04 Layer_Color=8388736*
%FSLAX25Y25*%
%MOIN*%
G70*
G01*
G75*
%ADD22C,0.11811*%
%ADD23C,0.05906*%
%ADD24R,0.06240X0.01929*%
%ADD25R,0.04540X0.04343*%
%ADD26R,0.04343X0.04540*%
%ADD27R,0.04737X0.05131*%
%ADD28R,0.05918X0.06706*%
%ADD29R,0.06706X0.05918*%
%ADD30R,0.05131X0.04737*%
%ADD31R,0.07887X0.07099*%
G04:AMPARAMS|DCode=32|XSize=47.37mil|YSize=51.31mil|CornerRadius=0mil|HoleSize=0mil|Usage=FLASHONLY|Rotation=225.000|XOffset=0mil|YOffset=0mil|HoleType=Round|Shape=Rectangle|*
%AMROTATEDRECTD32*
4,1,4,-0.00139,0.03489,0.03489,-0.00139,0.00139,-0.03489,-0.03489,0.00139,-0.00139,0.03489,0.0*
%
%ADD32ROTATEDRECTD32*%

G04:AMPARAMS|DCode=33|XSize=47.37mil|YSize=51.31mil|CornerRadius=0mil|HoleSize=0mil|Usage=FLASHONLY|Rotation=315.000|XOffset=0mil|YOffset=0mil|HoleType=Round|Shape=Rectangle|*
%AMROTATEDRECTD33*
4,1,4,-0.03489,-0.00139,0.00139,0.03489,0.03489,0.00139,-0.00139,-0.03489,-0.03489,-0.00139,0.0*
%
%ADD33ROTATEDRECTD33*%

G04:AMPARAMS|DCode=34|XSize=67.32mil|YSize=18.11mil|CornerRadius=4.33mil|HoleSize=0mil|Usage=FLASHONLY|Rotation=0.000|XOffset=0mil|YOffset=0mil|HoleType=Round|Shape=RoundedRectangle|*
%AMROUNDEDRECTD34*
21,1,0.06732,0.00945,0,0,0.0*
21,1,0.05866,0.01811,0,0,0.0*
1,1,0.00866,0.02933,-0.00472*
1,1,0.00866,-0.02933,-0.00472*
1,1,0.00866,-0.02933,0.00472*
1,1,0.00866,0.02933,0.00472*
%
%ADD34ROUNDEDRECTD34*%
%ADD35R,0.05603X0.04383*%
%ADD36R,0.05372X0.01872*%
%ADD37R,0.07099X0.09383*%
G04:AMPARAMS|DCode=38|XSize=78.87mil|YSize=31.62mil|CornerRadius=0mil|HoleSize=0mil|Usage=FLASHONLY|Rotation=45.000|XOffset=0mil|YOffset=0mil|HoleType=Round|Shape=Round|*
%AMOVALD38*
21,1,0.04724,0.03162,0.00000,0.00000,45.0*
1,1,0.03162,-0.01670,-0.01670*
1,1,0.03162,0.01670,0.01670*
%
%ADD38OVALD38*%

G04:AMPARAMS|DCode=39|XSize=78.87mil|YSize=31.62mil|CornerRadius=0mil|HoleSize=0mil|Usage=FLASHONLY|Rotation=135.000|XOffset=0mil|YOffset=0mil|HoleType=Round|Shape=Round|*
%AMOVALD39*
21,1,0.04724,0.03162,0.00000,0.00000,135.0*
1,1,0.03162,0.01670,-0.01670*
1,1,0.03162,-0.01670,0.01670*
%
%ADD39OVALD39*%

%ADD40R,0.05748X0.01811*%
%ADD41R,0.08280X0.06706*%
%ADD42R,0.08280X0.05524*%
%ADD43R,0.08700X0.15800*%
%ADD44R,0.08700X0.06700*%
%ADD45R,0.16548X0.28359*%
G04:AMPARAMS|DCode=46|XSize=60.76mil|YSize=137.53mil|CornerRadius=10.59mil|HoleSize=0mil|Usage=FLASHONLY|Rotation=90.000|XOffset=0mil|YOffset=0mil|HoleType=Round|Shape=RoundedRectangle|*
%AMROUNDEDRECTD46*
21,1,0.06076,0.11634,0,0,90.0*
21,1,0.03957,0.13753,0,0,90.0*
1,1,0.02119,0.05817,0.01978*
1,1,0.02119,0.05817,-0.01978*
1,1,0.02119,-0.05817,-0.01978*
1,1,0.02119,-0.05817,0.01978*
%
%ADD46ROUNDEDRECTD46*%
%ADD47R,0.05524X0.02965*%
%ADD48R,0.05288X0.06587*%
%ADD49R,0.06587X0.05288*%
%ADD50R,0.07099X0.06312*%
%ADD51R,0.05524X0.09461*%
%ADD52R,0.04737X0.06312*%
%ADD53R,0.03556X0.07099*%
%ADD54R,0.05512X0.14646*%
%ADD55R,0.05512X0.22047*%
%ADD56R,0.10236X0.22047*%
G04:AMPARAMS|DCode=57|XSize=14.17mil|YSize=9.84mil|CornerRadius=0mil|HoleSize=0mil|Usage=FLASHONLY|Rotation=225.000|XOffset=0mil|YOffset=0mil|HoleType=Round|Shape=Rectangle|*
%AMROTATEDRECTD57*
4,1,4,0.00153,0.00849,0.00849,0.00153,-0.00153,-0.00849,-0.00849,-0.00153,0.00153,0.00849,0.0*
%
%ADD57ROTATEDRECTD57*%

%ADD58R,0.04737X0.10249*%
%ADD59R,0.04737X0.14186*%
%ADD60R,0.03950X0.06706*%
%ADD61R,0.02965X0.04737*%
%ADD62C,0.08674*%
%ADD63R,0.03359X0.05721*%
%ADD64R,0.04737X0.06312*%
%ADD65C,0.06706*%
%ADD66C,0.07887*%
%ADD67R,0.01417X0.00984*%
%ADD68R,0.00984X0.01417*%
%ADD69R,0.03559X0.01787*%
G04:AMPARAMS|DCode=70|XSize=26.2mil|YSize=26.48mil|CornerRadius=0mil|HoleSize=0mil|Usage=FLASHONLY|Rotation=315.000|XOffset=0mil|YOffset=0mil|HoleType=Round|Shape=Rectangle|*
%AMROTATEDRECTD70*
4,1,4,-0.01862,-0.00010,0.00010,0.01862,0.01862,0.00010,-0.00010,-0.01862,-0.01862,-0.00010,0.0*
%
%ADD70ROTATEDRECTD70*%

G04:AMPARAMS|DCode=71|XSize=41.34mil|YSize=86.61mil|CornerRadius=0mil|HoleSize=0mil|Usage=FLASHONLY|Rotation=135.000|XOffset=0mil|YOffset=0mil|HoleType=Round|Shape=Rectangle|*
%AMROTATEDRECTD71*
4,1,4,0.04524,0.01601,-0.01601,-0.04524,-0.04524,-0.01601,0.01601,0.04524,0.04524,0.01601,0.0*
%
%ADD71ROTATEDRECTD71*%

G04:AMPARAMS|DCode=72|XSize=39.37mil|YSize=41.34mil|CornerRadius=0mil|HoleSize=0mil|Usage=FLASHONLY|Rotation=135.000|XOffset=0mil|YOffset=0mil|HoleType=Round|Shape=Rectangle|*
%AMROTATEDRECTD72*
4,1,4,0.02854,0.00070,-0.00070,-0.02854,-0.02854,-0.00070,0.00070,0.02854,0.02854,0.00070,0.0*
%
%ADD72ROTATEDRECTD72*%

%ADD73R,0.03961X0.03773*%
%ADD74R,0.06312X0.04737*%
%ADD75R,0.05721X0.03359*%
%ADD76R,0.13202X0.09461*%
%ADD77R,0.09461X0.08674*%
%ADD78R,0.40564X0.40800*%
%ADD79R,0.13398X0.04800*%
%ADD80R,0.05918X0.04698*%
%ADD81R,0.05918X0.03123*%
%ADD82R,0.04800X0.13398*%
%ADD83R,0.40800X0.40564*%
%ADD84R,0.09461X0.13202*%
%ADD85R,0.16548X0.24028*%
%ADD86R,0.09461X0.13792*%
%ADD87R,0.18910X0.09855*%
%ADD88R,0.17335X0.11036*%
%ADD89R,0.10694X0.14194*%
%ADD90R,0.06804X0.03556*%
%ADD91C,0.05131*%
%ADD92R,0.05918X0.05918*%
%ADD93C,0.05918*%
%ADD94R,0.06706X0.06706*%
%ADD95O,0.04488X0.06260*%
%ADD96O,0.08280X0.04540*%
%ADD97C,0.13398*%
%ADD98C,0.09300*%
%ADD99C,0.09658*%
%ADD100C,0.10209*%
%ADD101C,0.07828*%
%ADD102C,0.07001*%
%ADD103C,0.21272*%
%ADD104C,0.25210*%
%ADD105R,0.05918X0.05918*%
%ADD106C,0.11036*%
%ADD107C,0.10737*%
%ADD108R,0.06706X0.06706*%
%ADD109C,0.04737*%
%ADD110O,0.14973X0.09068*%
%ADD111O,0.09068X0.14973*%
%ADD112O,0.08674X0.12611*%
%ADD113O,0.13792X0.09855*%
%ADD114O,0.12611X0.08674*%
%ADD115C,0.26391*%
%ADD116C,0.07284*%
%ADD117R,0.07284X0.07284*%
%ADD118C,0.10249*%
G36*
X65052Y93701D02*
Y95470D01*
X68602D01*
Y93701D01*
X65052D01*
D02*
G37*
G36*
X65056Y96260D02*
Y98032D01*
X68602D01*
Y96260D01*
X65056D01*
D02*
G37*
G36*
X65056Y98819D02*
Y100592D01*
X68602D01*
Y98819D01*
X65056D01*
D02*
G37*
G36*
X72541Y93701D02*
Y95471D01*
X76083D01*
Y93701D01*
X72541D01*
D02*
G37*
G36*
X72542Y96260D02*
Y98032D01*
X76083D01*
Y96260D01*
X72542D01*
D02*
G37*
G36*
X72540Y98819D02*
Y100591D01*
X76083D01*
Y98819D01*
X72540D01*
D02*
G37*
D22*
X7579Y0D02*
Y113287D01*
D23*
X688287Y3248D02*
Y64370D01*
D24*
X558807Y59350D02*
D03*
Y61910D02*
D03*
Y64468D02*
D03*
Y67028D02*
D03*
X581941D02*
D03*
Y64468D02*
D03*
Y61910D02*
D03*
Y59350D02*
D03*
D25*
X449311Y221260D02*
D03*
Y214567D02*
D03*
Y207283D02*
D03*
Y200590D02*
D03*
D26*
X315354Y4429D02*
D03*
X322047D02*
D03*
X346063D02*
D03*
X339370D02*
D03*
D27*
X361516Y280512D02*
D03*
Y273819D02*
D03*
X368209Y273819D02*
D03*
Y280512D02*
D03*
X325984Y192421D02*
D03*
Y185728D02*
D03*
X367913Y189469D02*
D03*
Y182776D02*
D03*
X392126Y180905D02*
D03*
Y174213D02*
D03*
X370866Y253937D02*
D03*
Y260630D02*
D03*
X357480Y260630D02*
D03*
Y253937D02*
D03*
X602953Y177165D02*
D03*
Y183858D02*
D03*
X589272Y183858D02*
D03*
Y177165D02*
D03*
X403642Y214961D02*
D03*
Y221654D02*
D03*
X442618Y221260D02*
D03*
Y214567D02*
D03*
Y200590D02*
D03*
Y207283D02*
D03*
X349114Y141437D02*
D03*
Y134744D02*
D03*
X349902Y94587D02*
D03*
Y101279D02*
D03*
X89567Y280315D02*
D03*
Y273622D02*
D03*
X197146Y108169D02*
D03*
Y114862D02*
D03*
X203839Y114862D02*
D03*
Y108169D02*
D03*
X402165Y13287D02*
D03*
Y6595D02*
D03*
X250000Y134449D02*
D03*
Y141142D02*
D03*
X343012Y207579D02*
D03*
Y200886D02*
D03*
X364173Y260630D02*
D03*
Y253937D02*
D03*
X596161Y183858D02*
D03*
Y177165D02*
D03*
X439764Y181004D02*
D03*
Y174311D02*
D03*
X351575Y220276D02*
D03*
Y226969D02*
D03*
X403642Y207677D02*
D03*
Y200984D02*
D03*
X190453Y114862D02*
D03*
Y108169D02*
D03*
D28*
X392717Y164173D02*
D03*
X385236D02*
D03*
D29*
X349803Y260630D02*
D03*
Y253150D02*
D03*
X185925Y288780D02*
D03*
Y281299D02*
D03*
X32087Y281594D02*
D03*
Y274114D02*
D03*
D30*
X532283Y63583D02*
D03*
X525591D02*
D03*
X525591Y70669D02*
D03*
X532283D02*
D03*
X18110Y283366D02*
D03*
X24803D02*
D03*
X315453Y11024D02*
D03*
X322146D02*
D03*
X332480Y33957D02*
D03*
X325787D02*
D03*
X332382Y40650D02*
D03*
X325689D02*
D03*
X263976Y198622D02*
D03*
X270669D02*
D03*
X270768Y191732D02*
D03*
X264075D02*
D03*
X346063Y11024D02*
D03*
X339370D02*
D03*
X303937Y101476D02*
D03*
X310630D02*
D03*
X348819Y33957D02*
D03*
X342126D02*
D03*
X348819Y40650D02*
D03*
X342126D02*
D03*
X63878Y83366D02*
D03*
X70571D02*
D03*
X56595D02*
D03*
X49902D02*
D03*
X77854D02*
D03*
X84547D02*
D03*
X280020Y61614D02*
D03*
X273327D02*
D03*
X296654Y65453D02*
D03*
X289961D02*
D03*
X312795Y70177D02*
D03*
X306102D02*
D03*
X377756Y30807D02*
D03*
X384449D02*
D03*
X392323D02*
D03*
X399016D02*
D03*
X363189D02*
D03*
X369882D02*
D03*
X328937Y263287D02*
D03*
X335630D02*
D03*
X490354Y232185D02*
D03*
X483661D02*
D03*
X532283Y56890D02*
D03*
X525591D02*
D03*
X629921Y208760D02*
D03*
X636614D02*
D03*
X472933Y60039D02*
D03*
X479626D02*
D03*
X335138Y159547D02*
D03*
X341831D02*
D03*
X321358Y159547D02*
D03*
X314665D02*
D03*
X17913Y290354D02*
D03*
X24606D02*
D03*
X178445Y296457D02*
D03*
X185138D02*
D03*
X178445Y303346D02*
D03*
X185138D02*
D03*
X335335Y120177D02*
D03*
X342028D02*
D03*
X24409Y162500D02*
D03*
X17717D02*
D03*
X473819Y281693D02*
D03*
X467126D02*
D03*
X319488Y120177D02*
D03*
X326181D02*
D03*
X450689Y281693D02*
D03*
X457382D02*
D03*
X63878Y76772D02*
D03*
X70571D02*
D03*
X56595D02*
D03*
X49902D02*
D03*
X77854Y76772D02*
D03*
X84547D02*
D03*
X91831Y76772D02*
D03*
X98524D02*
D03*
X148524Y79528D02*
D03*
X155217D02*
D03*
X148524Y72835D02*
D03*
X155217D02*
D03*
D31*
X620768Y10531D02*
D03*
Y21555D02*
D03*
X630709Y21555D02*
D03*
Y10531D02*
D03*
D32*
X34051Y171953D02*
D03*
X38784Y167220D02*
D03*
X157484Y242614D02*
D03*
X152752Y247347D02*
D03*
D33*
X179433Y169099D02*
D03*
X174701Y164366D02*
D03*
D34*
X342008Y153248D02*
D03*
Y150689D02*
D03*
Y148130D02*
D03*
Y145571D02*
D03*
Y143012D02*
D03*
Y140453D02*
D03*
Y137894D02*
D03*
X319410D02*
D03*
Y140453D02*
D03*
Y143012D02*
D03*
Y145571D02*
D03*
Y148130D02*
D03*
Y150689D02*
D03*
Y153248D02*
D03*
X342008Y113091D02*
D03*
Y110531D02*
D03*
Y107972D02*
D03*
Y105413D02*
D03*
Y102854D02*
D03*
Y100295D02*
D03*
Y97736D02*
D03*
X319409D02*
D03*
Y100295D02*
D03*
Y102854D02*
D03*
Y105413D02*
D03*
Y107972D02*
D03*
Y110531D02*
D03*
Y113091D02*
D03*
D35*
X254921Y205650D02*
D03*
Y192776D02*
D03*
D36*
X152007Y97775D02*
D03*
Y100275D02*
D03*
Y102875D02*
D03*
Y105375D02*
D03*
X134607D02*
D03*
Y102875D02*
D03*
Y100275D02*
D03*
Y97775D02*
D03*
D37*
X476279Y14370D02*
D03*
Y50591D02*
D03*
D38*
X40859Y178811D02*
D03*
X43643Y176027D02*
D03*
X46427Y173243D02*
D03*
X49211Y170459D02*
D03*
X51995Y167675D02*
D03*
X54779Y164891D02*
D03*
X57563Y162107D02*
D03*
X60346Y159323D02*
D03*
X63130Y156539D02*
D03*
X65914Y153756D02*
D03*
X68698Y150972D02*
D03*
X71482Y148188D02*
D03*
X74266Y145404D02*
D03*
X77050Y142620D02*
D03*
X79834Y139836D02*
D03*
X82617Y137052D02*
D03*
X85401Y134268D02*
D03*
X88185Y131485D02*
D03*
X90969Y128701D02*
D03*
X93753Y125917D02*
D03*
X177826Y209990D02*
D03*
X175042Y212774D02*
D03*
X172259Y215558D02*
D03*
X169475Y218342D02*
D03*
X166691Y221126D02*
D03*
X163907Y223909D02*
D03*
X161123Y226693D02*
D03*
X158339Y229477D02*
D03*
X155555Y232261D02*
D03*
X152771Y235045D02*
D03*
X149987Y237829D02*
D03*
X147204Y240613D02*
D03*
X144420Y243397D02*
D03*
X141636Y246181D02*
D03*
X138852Y248965D02*
D03*
X136068Y251748D02*
D03*
X133284Y254532D02*
D03*
X130500Y257316D02*
D03*
X127716Y260100D02*
D03*
X124933Y262884D02*
D03*
X96537Y123133D02*
D03*
X180610Y207206D02*
D03*
X122149Y265668D02*
D03*
D39*
X124933Y125917D02*
D03*
X127716Y128701D02*
D03*
X130500Y131485D02*
D03*
X133284Y134268D02*
D03*
X136068Y137052D02*
D03*
X138852Y139836D02*
D03*
X141636Y142620D02*
D03*
X144420Y145404D02*
D03*
X147204Y148188D02*
D03*
X149987Y150972D02*
D03*
X152771Y153756D02*
D03*
X155555Y156539D02*
D03*
X158339Y159323D02*
D03*
X161123Y162107D02*
D03*
X163907Y164891D02*
D03*
X166691Y167675D02*
D03*
X169475Y170459D02*
D03*
X172259Y173243D02*
D03*
X175042Y176027D02*
D03*
X177826Y178811D02*
D03*
X93753Y262884D02*
D03*
X90969Y260100D02*
D03*
X88185Y257316D02*
D03*
X85401Y254532D02*
D03*
X82617Y251748D02*
D03*
X79834Y248965D02*
D03*
X77050Y246181D02*
D03*
X74266Y243397D02*
D03*
X71482Y240613D02*
D03*
X68698Y237829D02*
D03*
X65914Y235045D02*
D03*
X63130Y232261D02*
D03*
X60346Y229477D02*
D03*
X57563Y226693D02*
D03*
X54779Y223909D02*
D03*
X51995Y221126D02*
D03*
X49211Y218342D02*
D03*
X46427Y215558D02*
D03*
X43643Y212774D02*
D03*
X40859Y209990D02*
D03*
X180610Y181595D02*
D03*
X122149Y123133D02*
D03*
X38075Y207206D02*
D03*
X96537Y265668D02*
D03*
D40*
X33071Y145965D02*
D03*
Y143406D02*
D03*
Y140847D02*
D03*
Y138287D02*
D03*
Y135728D02*
D03*
D41*
X22441Y144783D02*
D03*
Y136909D02*
D03*
D42*
Y152264D02*
D03*
Y129429D02*
D03*
D43*
X250100Y120079D02*
D03*
X325887Y281890D02*
D03*
D44*
X274900Y129179D02*
D03*
Y120179D02*
D03*
Y111179D02*
D03*
X350687Y290990D02*
D03*
Y281990D02*
D03*
Y272990D02*
D03*
D45*
X547146Y243996D02*
D03*
X507776D02*
D03*
X547244Y186909D02*
D03*
X507874D02*
D03*
D46*
X453937Y181102D02*
D03*
Y164173D02*
D03*
D47*
X550197Y59449D02*
D03*
Y63189D02*
D03*
Y66929D02*
D03*
X539961D02*
D03*
Y59449D02*
D03*
Y63189D02*
D03*
D48*
X466772Y273622D02*
D03*
X473780D02*
D03*
X457539Y273425D02*
D03*
X450531D02*
D03*
D49*
X255020Y178189D02*
D03*
Y185197D02*
D03*
D50*
X186812Y55512D02*
D03*
D51*
X190355Y17717D02*
D03*
X129331Y17481D02*
D03*
D52*
X129134Y55512D02*
D03*
D53*
X134056Y57481D02*
D03*
X138386D02*
D03*
X142717D02*
D03*
X147048D02*
D03*
X151379D02*
D03*
X155709D02*
D03*
X160040D02*
D03*
X164371D02*
D03*
X168701D02*
D03*
D54*
X185827Y333897D02*
D03*
D55*
X193701Y337598D02*
D03*
D56*
X160236D02*
D03*
X309842D02*
D03*
D57*
X104811Y281189D02*
D03*
X102472Y278851D02*
D03*
D58*
X106201Y62303D02*
D03*
X46752D02*
D03*
D59*
X106201Y29429D02*
D03*
Y8563D02*
D03*
X46752D02*
D03*
Y29429D02*
D03*
D60*
X98721Y62815D02*
D03*
D61*
X89410Y66043D02*
D03*
X85472D02*
D03*
X81535D02*
D03*
X77598D02*
D03*
X70571D02*
D03*
X65039D02*
D03*
X61102D02*
D03*
D62*
X79429Y276083D02*
D03*
X235236Y119783D02*
D03*
X22933Y178347D02*
D03*
X7972D02*
D03*
X282480Y185630D02*
D03*
X471260Y262795D02*
D03*
X399902Y278543D02*
D03*
X337894Y251279D02*
D03*
X436417Y250886D02*
D03*
X517126Y63583D02*
D03*
D63*
X345472Y18504D02*
D03*
X341693Y26772D02*
D03*
X349252D02*
D03*
X329331Y18504D02*
D03*
X325551Y26772D02*
D03*
X333110D02*
D03*
X357087Y192717D02*
D03*
X353307Y200984D02*
D03*
X360866D02*
D03*
D64*
X203839Y122539D02*
D03*
X200098Y131201D02*
D03*
X207579D02*
D03*
X357087Y174016D02*
D03*
X353346Y182677D02*
D03*
X360827D02*
D03*
D65*
X176083Y122835D02*
D03*
X163189Y259941D02*
D03*
X162992Y251378D02*
D03*
X305709Y191831D02*
D03*
X420079Y277461D02*
D03*
X370276Y10531D02*
D03*
X387992D02*
D03*
X435630D02*
D03*
X453346D02*
D03*
X500198D02*
D03*
X517915D02*
D03*
X89685Y290158D02*
D03*
X357874Y127972D02*
D03*
X378189Y66831D02*
D03*
X368189D02*
D03*
X358189D02*
D03*
X388189D02*
D03*
X398189D02*
D03*
X454724Y50098D02*
D03*
X444882D02*
D03*
X435039D02*
D03*
X425197D02*
D03*
X415354D02*
D03*
X540000Y11417D02*
D03*
Y21417D02*
D03*
X550000Y11417D02*
D03*
Y21417D02*
D03*
X560000Y11417D02*
D03*
Y21417D02*
D03*
X570000Y11417D02*
D03*
Y21417D02*
D03*
X580000Y11417D02*
D03*
Y21417D02*
D03*
X590000Y11417D02*
D03*
Y21417D02*
D03*
X600000Y11417D02*
D03*
Y21417D02*
D03*
X610000Y11417D02*
D03*
X516339Y301575D02*
D03*
X665354Y140650D02*
D03*
X665354Y230610D02*
D03*
D66*
X155905Y87795D02*
D03*
D67*
X19705Y169390D02*
D03*
X23012D02*
D03*
D68*
X40157Y155591D02*
D03*
Y152284D02*
D03*
X41240Y146732D02*
D03*
Y143425D02*
D03*
X44587Y137520D02*
D03*
Y140827D02*
D03*
D69*
X66831Y99705D02*
D03*
Y97146D02*
D03*
Y94587D02*
D03*
X74311D02*
D03*
Y97146D02*
D03*
Y99705D02*
D03*
D70*
X133637Y274335D02*
D03*
X136441Y271531D02*
D03*
D71*
X150858Y275028D02*
D03*
X142646Y283240D02*
D03*
D72*
X142507Y274888D02*
D03*
D73*
X24996Y297736D02*
D03*
X30713D02*
D03*
D74*
X343307Y189272D02*
D03*
X334646Y185532D02*
D03*
Y193012D02*
D03*
D75*
X375394Y177559D02*
D03*
X383661Y181339D02*
D03*
Y173779D02*
D03*
D76*
X478740Y163681D02*
D03*
Y191240D02*
D03*
D77*
X457677Y262598D02*
D03*
Y250787D02*
D03*
D78*
X302821Y226862D02*
D03*
X654507Y183844D02*
D03*
D79*
X340990Y240262D02*
D03*
Y233562D02*
D03*
Y226862D02*
D03*
Y220162D02*
D03*
Y213462D02*
D03*
X615945Y197244D02*
D03*
Y190544D02*
D03*
Y183844D02*
D03*
Y177144D02*
D03*
Y170444D02*
D03*
D80*
X371161Y49350D02*
D03*
D81*
Y42579D02*
D03*
X379232D02*
D03*
Y50138D02*
D03*
D82*
X651188Y112106D02*
D03*
X644488D02*
D03*
X637788D02*
D03*
X631088D02*
D03*
X624388D02*
D03*
D83*
X637788Y73544D02*
D03*
D84*
X573917Y158169D02*
D03*
X601476D02*
D03*
X571063Y205905D02*
D03*
X598622D02*
D03*
X673327Y292323D02*
D03*
X645768D02*
D03*
D85*
X612795Y236811D02*
D03*
X576575D02*
D03*
D86*
X644390Y266338D02*
D03*
X673524D02*
D03*
D87*
X623917Y267224D02*
D03*
Y300689D02*
D03*
D88*
X236122Y180315D02*
D03*
Y205512D02*
D03*
X210138Y180315D02*
D03*
Y205512D02*
D03*
D89*
X422539Y210827D02*
D03*
D90*
X433216Y218327D02*
D03*
Y213327D02*
D03*
Y208327D02*
D03*
Y203327D02*
D03*
X411862D02*
D03*
Y208327D02*
D03*
Y213327D02*
D03*
Y218327D02*
D03*
D91*
X323701Y4429D02*
D03*
X313701D02*
D03*
X337717D02*
D03*
X347716D02*
D03*
D92*
X485335Y207874D02*
D03*
X227559Y104232D02*
D03*
X425197Y181201D02*
D03*
X368209Y290945D02*
D03*
D93*
X485335Y217717D02*
D03*
X295177Y120177D02*
D03*
X227559Y94390D02*
D03*
X425197Y173327D02*
D03*
X480512Y248721D02*
D03*
X390059Y225295D02*
D03*
X368209Y298819D02*
D03*
X390551Y197244D02*
D03*
X298031Y281299D02*
D03*
D94*
X433858Y277461D02*
D03*
X99685Y290158D02*
D03*
X348189Y66831D02*
D03*
X610000Y21417D02*
D03*
X496654Y301575D02*
D03*
X645669Y140650D02*
D03*
X645669Y230610D02*
D03*
D95*
X33071Y150689D02*
D03*
Y131004D02*
D03*
D96*
X22441Y154626D02*
D03*
Y127067D02*
D03*
D97*
X539173Y336693D02*
D03*
X385630D02*
D03*
X529724Y116634D02*
D03*
X434842D02*
D03*
D98*
X475787Y291791D02*
D03*
X469095Y306791D02*
D03*
X462402Y291791D02*
D03*
X455709Y306791D02*
D03*
X449016Y291791D02*
D03*
D99*
X365354Y20374D02*
D03*
X392913D02*
D03*
X430709D02*
D03*
X458268D02*
D03*
X495277D02*
D03*
X522836D02*
D03*
D100*
X407283Y148524D02*
D03*
X374213Y140256D02*
D03*
D101*
X557283Y116634D02*
D03*
X407283D02*
D03*
X374213Y112303D02*
D03*
X590354D02*
D03*
D102*
X171851Y16142D02*
D03*
X140355D02*
D03*
D103*
X19685Y19685D02*
D03*
X236221Y255906D02*
D03*
D104*
X673228Y334646D02*
D03*
D105*
X287303Y120177D02*
D03*
X490354Y248721D02*
D03*
X380217Y225295D02*
D03*
X380709Y197244D02*
D03*
X307874Y281299D02*
D03*
D106*
X22087Y327402D02*
D03*
X42087D02*
D03*
Y347402D02*
D03*
X22087D02*
D03*
D107*
X32087Y337402D02*
D03*
D108*
X357874Y137972D02*
D03*
D109*
X288878Y211417D02*
D03*
Y219291D02*
D03*
Y227165D02*
D03*
Y235039D02*
D03*
Y242913D02*
D03*
X298327Y211417D02*
D03*
Y219291D02*
D03*
Y227165D02*
D03*
Y235039D02*
D03*
Y242913D02*
D03*
X307776Y211417D02*
D03*
Y219291D02*
D03*
Y227165D02*
D03*
Y235039D02*
D03*
Y242913D02*
D03*
X317224D02*
D03*
Y235039D02*
D03*
Y227165D02*
D03*
Y219291D02*
D03*
Y211417D02*
D03*
D110*
X237008Y8760D02*
D03*
Y61713D02*
D03*
D111*
X257480Y52461D02*
D03*
D112*
X292913Y37303D02*
D03*
D113*
X276378Y44784D02*
D03*
D114*
Y7579D02*
D03*
D115*
X653543Y19685D02*
D03*
D116*
X574114Y291240D02*
D03*
Y271555D02*
D03*
X593799Y291240D02*
D03*
X583957Y261712D02*
D03*
Y281398D02*
D03*
D117*
X593799Y271555D02*
D03*
D118*
X645827Y317028D02*
D03*
X625827D02*
D03*
X595039D02*
D03*
X575039D02*
D03*
M02*
