M48
;Layer_Color=9474304
;FILE_FORMAT=2:5
INCH,LZ
;TYPE=PLATED
T1F00S00C0.01575
T2F00S00C0.01968
T3F00S00C0.02362
T5F00S00C0.02756
T6F00S00C0.03150
T7F00S00C0.03543
T9F00S00C0.03937
T10F00S00C0.04134
T11F00S00C0.04528
T12F00S00C0.04685
T13F00S00C0.04724
T14F00S00C0.05906
T15F00S00C0.06693
T16F00S00C0.07480
T17F00S00C0.08661
T18F00S00C0.12598
;TYPE=NON_PLATED
T19F00S00C0.09409
T20F00S00C0.12598
%
T01
X0605512Y0047835
X0613583Y0047835
X0621654Y0047835
X0629724
X0637795
X0645866
X0653937
X0662008
X0670079
Y0056496
Y0065158
Y0073819
Y0082677
Y0091535
X0605512Y0091142
Y0082677
Y0073819
Y0065158
Y0056496
X0470571Y0094784
X0435827Y0100394
X0356299Y0102559
X0357579Y0107972
X0354134Y0112205
X0308957Y0040748
X0160039Y0064173
X0160925Y0070669
X0151279Y006752
X0142618Y0077461
X0129823Y0079823
X0135138Y0112205
X0151378Y0111319
X0157874Y0102756
X0078248Y0105512
X0061221Y0095177
X0070571Y0071358
X0082677Y007126
X0076378Y0116634
X0065847
X0059842Y0129331
X0052067Y0124016
X0048917Y0146752
X0092118Y011881
X0092116Y0181004
X0087904Y0190945
X0081517Y0208574
X0074156Y0210148
X0045768Y0234646
Y0244094
X0045768Y0253543
Y0262992
X0018307
Y0253543
Y0244094
Y0234646
Y0225197
Y0215748
X0015846Y0192224
X0174705Y0231496
Y0240945
Y0250394
Y0259842
X0174705Y0269291
X0197146
Y0259842
Y0250394
Y0240945
Y0231496
Y0222047
X0154429Y0267075
X0145472Y0263287
X0288878Y0242913
Y0235039
Y0227165
Y0219291
Y0211417
X0298327
Y0219291
Y0227165
Y0235039
Y0242913
X0307776
Y0235039
Y0227165
Y0219291
Y0211417
X0317224
Y0219291
Y0227165
Y0235039
Y0242913
X0309055Y0153248
X0369783Y0152362
X0382579Y0148031
X045Y0118898
X0455905Y0118504
X0638976Y0157579
X0652067Y0154035
X0659842
X0674409
X0683071
Y0162106
Y0170768
Y0179429
Y0188091
Y0196752
Y0205413
Y0214075
X0674409
X0659842
X0652067
X0638976
X0197146Y027874
Y0288189
Y0297638
X0174705Y0288189
Y027874
X0161122Y0283366
Y0291977
X0161122Y0300886
X0150098
Y0292395
X0139075Y0292649
Y0300886
X0128051
Y0293012
Y0285138
X0123622Y0276673
X0117027Y0293012
Y0300886
X0161122Y0273524
X0045768Y0272441
Y028189
Y0291339
Y0300787
X0045768Y0310236
X0018307
Y0300787
Y0272441
T02
X0676673Y0007579
Y0018898
Y0110236
X0556496Y0087205
X0543504
X0530512
X0494193Y0084547
X0500591Y0069488
X046437Y0086221
X0449114Y0062106
X0444488Y0111811
X0422933Y0113484
X0342028Y009311
X0359646Y0053543
X0325689Y0050689
X0334547Y0016732
X0203248Y0018898
Y0007579
X011811
Y0018898
X012126Y0090945
X013435Y0091831
X0146358Y0090256
X0162992Y0079528
X0190551Y0091437
X0120965Y010876
X0091831Y0087402
X0030276Y0072973
Y0060382
X0005906Y0057677
Y0069488
Y0081299
Y009311
Y0104921
Y0045866
X0006004Y0034055
Y0007579
X0035335
X009941Y0145177
X0108465Y0176673
Y0202953
X0090847Y021565
X0085721Y0231942
X0077059Y0223928
X01Y0238287
X0123531Y0233695
X0126091Y0242061
X0128347Y0221756
X0122933Y0192224
Y0175886
X01375Y016752
X0132185Y016063
X0161614Y014252
X0166142Y0146457
X0170669Y0150591
X0177362Y0150295
X018189Y0158366
X0185827Y0162598
X019065Y016624
X019498Y0169488
X0191634Y0156693
X0186516Y0154331
X0195768Y015315
X0186516Y0122343
X0226673Y011624
X0220472Y0217913
X0234252
X0247244
X0166929Y0210138
X0316732Y0167815
X0327756
X0327362Y0144882
X0312992Y0137894
X0349606Y018937
X0374311Y0185827
X0364272Y0208268
X0349705Y0245965
X0446063Y0146949
X0483366
X0479134Y0118898
X0524705Y0146949
X0562402
X0527362Y0188878
X0604724Y011624
X0676673Y0120669
X0683957Y0250197
Y027874
Y0313779
X0645571Y034498
X0626083
X0610335
X0594783
X0623917Y0283366
X0574705Y034498
X0556398
X0520472
X050748
X0494488
X0481496
X0468504
X0455512
X044252
X0429528
X0416535
X0403543
X0277165Y0285728
X0264173
X0251181
X0238189
X0101772Y0299213
X0082874
X0065945
Y0286221
Y0273228
T03
X031939Y0025
X0363091Y0037008
X0377658
X0392224
X0050394Y0110236
X0113673Y02444
X0162598Y0237402
X0295965Y0176969
X0272244Y0140354
X0319488Y0126969
X0426476Y0250886
T05
X0438091Y0085827
X0334006Y0077264
X0284646Y0102953
X0313701Y0004429
X0323701
X0337717
X0347716
X0214272Y008563
X0189272Y0079921
X0114075Y012313
X0046063Y0152067
X0335433Y0130905
X0349016Y0123425
X034941Y0159547
X000561Y0283366
T06
X0227559Y009439
Y0104232
X0287303Y0120177
X0295177
X0380709Y0197244
X0390551
X0390059Y0225295
X0380217
X0425197Y0181201
Y0173327
X0485335Y0207874
Y0217717
X0480512Y0248721
X0490354
X0368209Y0290945
Y0298819
X0307874Y0281299
X0298031
T07
X059Y0011417
Y0021417
X06
Y0011417
X061
Y0021417
X058
X057
X056
X055
X054
Y0011417
X055
X056
X057
X058
X0398189Y0066831
X0388189
X0378189
X0368189
X0358189
X0348189
X0357874Y0127972
Y0137972
X0099685Y0290158
X0089685
T09
X043563Y0010531
X0453346
X0454724Y0050098
X0444882
X0435039
X0500198Y0010531
X0517915
X0387992
X0370276
X0415354Y0050098
X0425197
X0645669Y014065
X0665354
X0665354Y023061
X0645669
X0516339Y0301575
X0496654
X0433858Y0277461
X0420079
T10
X0140355Y0016142
X0171851
T11
X0449016Y0291791
X0462402
X0475787
X0469095Y0306791
X0455709
T12
X0590354Y0112303
X0374213
X0407283Y0116634
X0557283
T13
X0574114Y0271555
X0583957Y0261712
X0593799Y0271555
Y029124
X0574114
X0583957Y0281398
T14
X0430709Y0020374
X0458268
X0495277
X0522836
X0392913
X0365354
X0032087Y0337402
T15
X0595039Y0317028
X0625827
X0645827
X0575039
T16
X0022087Y0327402
X0042087
Y0347402
X0022087
T17
X0539173Y0336693
X038563
T18
X0653543Y0019685
X0019685
X0236221Y0255906
X0673228Y0334646
T19
X0374213Y0140256
X0407283Y0148524
T20
X0434842Y0116634
X0529724
M30
