G04 CAM350 V9.0.1 (Build 158) Date:  Tue Mar 29 16:15:38 2011 *
G04 Database: Y:\out\OSTEC.cam *
G04 Layer 70: Ramka *
%FSLAX33Y33*%
%MOMM*%
%SFA1.000B1.000*%

%MIA0B0*%
%IPPOS*%
%ADD168C,0.01000*%
%ADD169R,1.80000X19.50000*%
%ADD170R,19.50000X1.80000*%
%ADD171R,1.80000X17.40000*%
%ADD172R,17.40000X1.80000*%
%ADD173R,1.80000X14.44500*%
%ADD174R,14.44500X1.80000*%
%ADD175R,1.80000X11.60000*%
%ADD176R,11.60000X1.80000*%
%ADD177R,1.80000X8.65800*%
%ADD178R,8.65800X1.80000*%
%ADD179R,1.80000X5.82000*%
%ADD180R,5.82000X1.80000*%
%ADD181R,1.80000X2.92000*%
%ADD182R,2.92000X1.80000*%
%ADD183R,7.00000X4.80000*%
%ADD184R,4.80000X7.00000*%
%ADD185R,3.50000X4.80000*%
%ADD186R,4.80000X3.50000*%
%ADD187O,4.50000X6.00000*%
%ADD188O,6.00000X4.50000*%
%LNRamka*%
%LPD*%
G54D169*
X229500Y-544350D03*
X226500D03*
X223500D03*
X220500D03*
X217500D03*
X214500D03*
X211500D03*
X208500D03*
X205500D03*
X202500D03*
X199500D03*
X196500D03*
X193500D03*
X190500D03*
X187500D03*
X184500D03*
X181500D03*
X178500D03*
X175500D03*
X172500D03*
X169500D03*
X166500D03*
X163500D03*
X160500D03*
X157500D03*
X154500D03*
X151500D03*
X148500D03*
X145500D03*
X142500D03*
X139500D03*
X136500D03*
X133500D03*
X130500D03*
X127500D03*
X124500D03*
X121500D03*
X118500D03*
X115500D03*
X112500D03*
X109500D03*
X106500D03*
X103500D03*
X100500D03*
X97500D03*
X94500D03*
X91500D03*
X88500D03*
X85500D03*
X82500D03*
X79500D03*
X76500D03*
X73500D03*
X70500D03*
X67500D03*
X64500D03*
X61500D03*
X58500D03*
X55500D03*
X52500D03*
X49500D03*
X46500D03*
X43500D03*
X40500D03*
X37500D03*
X34500D03*
X31500D03*
X28500D03*
X25500D03*
X22500D03*
X19500D03*
X16500D03*
X13500D03*
X10500D03*
X4500D03*
X7500D03*
X-4500D03*
X-7500D03*
X-10500D03*
X-13500D03*
X-16500D03*
X-19500D03*
X-22500D03*
X-25500D03*
X-28500D03*
X-31500D03*
X-34500D03*
X-37500D03*
X-40500D03*
X-43500D03*
X-46500D03*
X-49500D03*
X-52500D03*
X-55500D03*
X-58500D03*
X-61500D03*
X-64500D03*
X-67500D03*
X-70500D03*
X-73500D03*
X-76500D03*
X-79500D03*
X-82500D03*
X-85500D03*
X-88500D03*
X-91500D03*
X-94500D03*
X-97500D03*
X-100500D03*
X-103500D03*
X-106500D03*
X-109500D03*
X-112500D03*
X-115500D03*
X-118500D03*
X-121500D03*
X-124500D03*
X-127500D03*
X-130500D03*
X-133500D03*
X-136500D03*
X-139500D03*
X-142500D03*
X-145500D03*
X-148500D03*
X-151500D03*
X-154500D03*
X-157500D03*
X-160500D03*
X-163500D03*
X-166500D03*
X-169500D03*
X-172500D03*
X-175500D03*
X-178500D03*
X-181500D03*
X-184500D03*
X-187500D03*
X-190500D03*
X-193500D03*
X-196500D03*
X-199500D03*
X-202500D03*
X-205500D03*
X-208500D03*
X-211500D03*
X-214500D03*
X-217500D03*
X-220500D03*
X-223500D03*
X-226500D03*
X-229499D03*
G54D170*
X264350Y-479500D03*
Y-482500D03*
Y-485500D03*
Y-488500D03*
Y-491500D03*
Y-494500D03*
Y-497500D03*
Y-500500D03*
Y-503500D03*
Y-506500D03*
Y-509499D03*
X-264350D03*
Y-506500D03*
Y-503500D03*
Y-500500D03*
Y-497500D03*
Y-494500D03*
Y-491500D03*
Y-488500D03*
Y-485500D03*
Y-482500D03*
Y-479500D03*
X264350Y-440500D03*
Y-443500D03*
Y-446500D03*
Y-449500D03*
Y-452500D03*
Y-455500D03*
Y-458500D03*
Y-461500D03*
Y-464500D03*
Y-467500D03*
Y-470500D03*
Y-473500D03*
Y-476500D03*
X-264350D03*
Y-473500D03*
Y-470500D03*
Y-467500D03*
Y-464500D03*
Y-461500D03*
Y-458500D03*
Y-455500D03*
Y-452500D03*
Y-449500D03*
Y-446500D03*
Y-443500D03*
Y-440500D03*
X264350Y-401500D03*
Y-404500D03*
Y-407500D03*
Y-410500D03*
Y-413500D03*
Y-416500D03*
Y-419500D03*
Y-422500D03*
Y-425500D03*
Y-428500D03*
Y-431500D03*
Y-434500D03*
Y-437500D03*
X-264350D03*
Y-434500D03*
Y-431500D03*
Y-428500D03*
Y-425500D03*
Y-422500D03*
Y-419500D03*
Y-416500D03*
Y-413500D03*
Y-410500D03*
Y-407500D03*
Y-404500D03*
Y-401500D03*
X264350Y-362500D03*
Y-365500D03*
Y-368500D03*
Y-371500D03*
Y-374500D03*
Y-377500D03*
Y-380500D03*
Y-383500D03*
Y-386500D03*
Y-389500D03*
Y-392500D03*
Y-395500D03*
Y-398500D03*
X-264350D03*
Y-395500D03*
Y-392500D03*
Y-389500D03*
Y-386500D03*
Y-383500D03*
Y-380500D03*
Y-377500D03*
Y-374500D03*
Y-371500D03*
Y-368500D03*
Y-365500D03*
Y-362500D03*
X264350Y-323500D03*
Y-326500D03*
Y-329500D03*
Y-332500D03*
Y-335500D03*
Y-338500D03*
Y-341500D03*
Y-344500D03*
Y-347500D03*
Y-350500D03*
Y-353500D03*
Y-356500D03*
Y-359500D03*
X-264350D03*
Y-356500D03*
Y-353500D03*
Y-350500D03*
Y-347500D03*
Y-344500D03*
Y-341500D03*
Y-338500D03*
Y-335500D03*
Y-332500D03*
Y-329500D03*
Y-326500D03*
Y-323500D03*
X264350Y-284500D03*
Y-287500D03*
Y-290500D03*
Y-293500D03*
Y-296500D03*
Y-299500D03*
Y-302500D03*
Y-305500D03*
Y-308500D03*
Y-311500D03*
Y-314500D03*
Y-317500D03*
Y-320500D03*
X-264350D03*
Y-317500D03*
Y-314500D03*
Y-311500D03*
Y-308500D03*
Y-305500D03*
Y-302500D03*
Y-299500D03*
Y-296500D03*
Y-293500D03*
Y-290500D03*
Y-284500D03*
Y-287500D03*
X264350Y-245500D03*
Y-248500D03*
Y-251500D03*
Y-254500D03*
Y-257500D03*
Y-260500D03*
Y-263500D03*
Y-266500D03*
Y-269500D03*
Y-275500D03*
Y-272500D03*
X-264350Y-275500D03*
Y-272500D03*
Y-269500D03*
Y-266500D03*
Y-263500D03*
Y-260500D03*
Y-257500D03*
Y-254500D03*
Y-251500D03*
Y-248500D03*
Y-245500D03*
X264350Y-206500D03*
Y-209500D03*
Y-212500D03*
Y-215500D03*
Y-218500D03*
Y-221500D03*
Y-224500D03*
Y-227500D03*
Y-230500D03*
Y-233500D03*
Y-236500D03*
Y-239500D03*
Y-242500D03*
X-264350D03*
Y-239500D03*
Y-236500D03*
Y-233500D03*
Y-230500D03*
Y-227500D03*
Y-224500D03*
Y-221500D03*
Y-218500D03*
Y-215500D03*
Y-212500D03*
Y-209500D03*
Y-206500D03*
X264350Y-167500D03*
Y-170500D03*
Y-173500D03*
Y-176500D03*
Y-179500D03*
Y-182500D03*
Y-185500D03*
Y-188500D03*
Y-191500D03*
Y-194500D03*
Y-197500D03*
Y-200500D03*
Y-203500D03*
X-264350D03*
Y-200500D03*
Y-197500D03*
Y-194500D03*
Y-191500D03*
Y-188500D03*
Y-185500D03*
Y-182500D03*
Y-179500D03*
Y-176500D03*
Y-173500D03*
Y-170500D03*
Y-167500D03*
X264350Y-128500D03*
Y-131500D03*
Y-134500D03*
Y-137500D03*
Y-140500D03*
Y-143500D03*
Y-146500D03*
Y-149500D03*
Y-152500D03*
Y-155500D03*
Y-158500D03*
Y-161500D03*
Y-164500D03*
X-264350D03*
Y-161500D03*
Y-158500D03*
Y-155500D03*
Y-152500D03*
Y-149500D03*
Y-146500D03*
Y-143500D03*
Y-140500D03*
Y-137500D03*
Y-134500D03*
Y-131500D03*
Y-128500D03*
X264350Y-89500D03*
Y-92500D03*
Y-95500D03*
Y-98500D03*
Y-101500D03*
Y-104500D03*
Y-107500D03*
Y-110500D03*
Y-113500D03*
Y-116500D03*
Y-119500D03*
Y-122500D03*
Y-125500D03*
X-264350D03*
Y-122500D03*
Y-119500D03*
Y-116500D03*
Y-113500D03*
Y-110500D03*
Y-107500D03*
Y-104500D03*
Y-101500D03*
Y-98500D03*
Y-95500D03*
Y-92500D03*
Y-89500D03*
X264350Y-50500D03*
Y-53500D03*
Y-56500D03*
Y-59500D03*
Y-62500D03*
Y-65500D03*
Y-68500D03*
Y-71500D03*
Y-74500D03*
Y-77500D03*
Y-80500D03*
Y-83500D03*
Y-86500D03*
X-264350D03*
Y-83500D03*
Y-80500D03*
Y-77500D03*
Y-74500D03*
Y-71500D03*
Y-68500D03*
Y-65500D03*
Y-62500D03*
Y-59500D03*
Y-56500D03*
Y-53500D03*
Y-50500D03*
G54D169*
X199500Y-15650D03*
X202500D03*
X205500D03*
X208500D03*
X211500D03*
X214500D03*
X217500D03*
X220500D03*
X223500D03*
X226500D03*
X229500D03*
X160500D03*
X163500D03*
X166500D03*
X169500D03*
X172500D03*
X175500D03*
X178500D03*
X181500D03*
X184500D03*
X187500D03*
X190500D03*
X193500D03*
X196500D03*
X121500D03*
X124500D03*
X127500D03*
X130500D03*
X133500D03*
X136500D03*
X139500D03*
X142500D03*
X145500D03*
X148500D03*
X151500D03*
X154500D03*
X157500D03*
X82500D03*
X85500D03*
X88500D03*
X91500D03*
X94500D03*
X97500D03*
X100500D03*
X103500D03*
X106500D03*
X109500D03*
X112500D03*
X115500D03*
X118500D03*
X43500D03*
X46500D03*
X49500D03*
X52500D03*
X55500D03*
X58500D03*
X61500D03*
X64500D03*
X67500D03*
X70500D03*
X73500D03*
X76500D03*
X79500D03*
X4500D03*
X7500D03*
X10500D03*
X13500D03*
X16500D03*
X19500D03*
X22500D03*
X25500D03*
X28500D03*
X31500D03*
X34500D03*
X37500D03*
X40500D03*
X-34500D03*
X-31500D03*
X-28500D03*
X-25500D03*
X-22500D03*
X-19500D03*
X-16500D03*
X-13500D03*
X-10500D03*
X-4500D03*
X-7500D03*
X-73500D03*
X-70500D03*
X-67500D03*
X-64500D03*
X-61500D03*
X-58500D03*
X-55500D03*
X-52500D03*
X-49500D03*
X-46500D03*
X-43500D03*
X-40500D03*
X-37500D03*
X-112500D03*
X-109500D03*
X-106500D03*
X-103500D03*
X-100500D03*
X-97500D03*
X-94500D03*
X-91500D03*
X-88500D03*
X-85500D03*
X-82500D03*
X-79500D03*
X-76500D03*
X-151500D03*
X-148500D03*
X-145500D03*
X-142500D03*
X-139500D03*
X-136500D03*
X-133500D03*
X-130500D03*
X-127500D03*
X-124500D03*
X-121500D03*
X-118500D03*
X-115500D03*
X-190500D03*
X-187500D03*
X-184500D03*
X-181500D03*
X-178500D03*
X-175500D03*
X-172500D03*
X-169500D03*
X-166500D03*
X-163500D03*
X-160500D03*
X-157500D03*
X-154500D03*
X-229499D03*
X-226500D03*
X-223500D03*
X-220500D03*
X-217500D03*
X-214500D03*
X-211500D03*
X-208500D03*
X-205500D03*
X-202500D03*
X-199500D03*
X-196500D03*
X-193500D03*
G54D171*
X232500Y-543297D03*
X-232499D03*
G54D172*
X263297Y-512499D03*
X-263297D03*
X263297Y-47500D03*
X-263297D03*
G54D171*
X232500Y-16703D03*
X-232499D03*
G54D173*
X235500Y-541822D03*
X-235499D03*
G54D174*
X261823Y-515499D03*
X-261822D03*
X261823Y-44500D03*
X-261822D03*
G54D173*
X235500Y-18177D03*
X-235499D03*
G54D175*
X238500Y-540403D03*
X-238499D03*
G54D176*
X260403Y-518499D03*
X-260403D03*
X260403Y-41500D03*
X-260403D03*
G54D175*
X238500Y-19597D03*
X-238499D03*
G54D177*
X241500Y-538929D03*
X-241499D03*
G54D178*
X258929Y-521499D03*
X-258929D03*
X258929Y-38500D03*
X-258929D03*
G54D177*
X241500Y-21071D03*
X-241499D03*
G54D179*
X244500Y-537509D03*
X-244499D03*
G54D180*
X257510Y-524499D03*
X-257509D03*
X257510Y-35500D03*
X-257509D03*
G54D179*
X244500Y-22490D03*
X-244499D03*
G54D182*
X256061Y-527499D03*
G54D181*
X247500Y-536061D03*
X-247499D03*
G54D182*
X-256061Y-527499D03*
G54D181*
X247500Y-23939D03*
G54D182*
X256061Y-32500D03*
G54D181*
X-247499Y-23939D03*
G54D182*
X-256061Y-32500D03*
G54D184*
X0Y-550600D03*
G54D183*
X270600Y-280000D03*
X-270600D03*
G54D184*
X0Y-9400D03*
G54D186*
Y-536350D03*
G54D185*
X256350Y-280000D03*
X-256350D03*
G54D186*
X0Y-23650D03*
G54D187*
Y-542591D03*
G54D188*
X262591Y-280000D03*
X-262591D03*
G54D187*
X0Y-17409D03*
G54D168*
X-280000Y-48000D02*
G01X-232000Y0D01*
X232000*
X280000Y-48000*
Y-512000*
X232000Y-560000*
X-232000*
X-280000Y-512000*
Y-48000*
M02*
