G04*
G04 #@! TF.GenerationSoftware,Altium Limited,Altium Designer,19.1.8 (144)*
G04*
G04 Layer_Color=8388736*
%FSLAX24Y24*%
%MOIN*%
G70*
G01*
G75*
%ADD23C,0.1181*%
%ADD24C,0.0787*%
%ADD25R,0.0513X0.0474*%
%ADD26R,0.0336X0.0572*%
%ADD27R,0.0434X0.0454*%
%ADD28R,0.0454X0.0434*%
%ADD29R,0.0474X0.0631*%
%ADD30R,0.0661X0.0257*%
%ADD31R,0.0474X0.0513*%
%ADD32C,0.0867*%
%ADD33C,0.0671*%
%ADD34R,0.0537X0.0187*%
G04:AMPARAMS|DCode=35|XSize=47.4mil|YSize=51.3mil|CornerRadius=0mil|HoleSize=0mil|Usage=FLASHONLY|Rotation=225.000|XOffset=0mil|YOffset=0mil|HoleType=Round|Shape=Rectangle|*
%AMROTATEDRECTD35*
4,1,4,-0.0014,0.0349,0.0349,-0.0014,0.0014,-0.0349,-0.0349,0.0014,-0.0014,0.0349,0.0*
%
%ADD35ROTATEDRECTD35*%

%ADD36R,0.0142X0.0098*%
%ADD37R,0.0571X0.0197*%
%ADD38R,0.0828X0.0671*%
%ADD39R,0.0828X0.0552*%
%ADD40R,0.0098X0.0142*%
%ADD41R,0.0315X0.0138*%
%ADD42R,0.0356X0.0710*%
%ADD43R,0.0552X0.0631*%
%ADD44R,0.0552X0.0946*%
%ADD45R,0.0710X0.0631*%
%ADD46R,0.0474X0.1025*%
%ADD47R,0.0474X0.1419*%
%ADD48R,0.0395X0.0671*%
%ADD49R,0.0297X0.0474*%
G04:AMPARAMS|DCode=50|XSize=26.2mil|YSize=26.5mil|CornerRadius=0mil|HoleSize=0mil|Usage=FLASHONLY|Rotation=315.000|XOffset=0mil|YOffset=0mil|HoleType=Round|Shape=Rectangle|*
%AMROTATEDRECTD50*
4,1,4,-0.0186,-0.0001,0.0001,0.0186,0.0186,0.0001,-0.0001,-0.0186,-0.0186,-0.0001,0.0*
%
%ADD50ROTATEDRECTD50*%

G04:AMPARAMS|DCode=51|XSize=41.3mil|YSize=86.6mil|CornerRadius=0mil|HoleSize=0mil|Usage=FLASHONLY|Rotation=135.000|XOffset=0mil|YOffset=0mil|HoleType=Round|Shape=Rectangle|*
%AMROTATEDRECTD51*
4,1,4,0.0452,0.0160,-0.0160,-0.0452,-0.0452,-0.0160,0.0160,0.0452,0.0452,0.0160,0.0*
%
%ADD51ROTATEDRECTD51*%

G04:AMPARAMS|DCode=52|XSize=39.4mil|YSize=41.3mil|CornerRadius=0mil|HoleSize=0mil|Usage=FLASHONLY|Rotation=135.000|XOffset=0mil|YOffset=0mil|HoleType=Round|Shape=Rectangle|*
%AMROTATEDRECTD52*
4,1,4,0.0285,0.0007,-0.0007,-0.0285,-0.0285,-0.0007,0.0007,0.0285,0.0285,0.0007,0.0*
%
%ADD52ROTATEDRECTD52*%

%ADD53R,0.0671X0.0592*%
%ADD54R,0.1024X0.2205*%
%ADD55R,0.0551X0.2205*%
%ADD56R,0.0551X0.1465*%
G04:AMPARAMS|DCode=57|XSize=78.9mil|YSize=31.6mil|CornerRadius=0mil|HoleSize=0mil|Usage=FLASHONLY|Rotation=45.000|XOffset=0mil|YOffset=0mil|HoleType=Round|Shape=Round|*
%AMOVALD57*
21,1,0.0472,0.0316,0.0000,0.0000,45.0*
1,1,0.0316,-0.0167,-0.0167*
1,1,0.0316,0.0167,0.0167*
%
%ADD57OVALD57*%

G04:AMPARAMS|DCode=58|XSize=78.9mil|YSize=31.6mil|CornerRadius=0mil|HoleSize=0mil|Usage=FLASHONLY|Rotation=135.000|XOffset=0mil|YOffset=0mil|HoleType=Round|Shape=Round|*
%AMOVALD58*
21,1,0.0472,0.0316,0.0000,0.0000,135.0*
1,1,0.0316,0.0167,-0.0167*
1,1,0.0316,-0.0167,0.0167*
%
%ADD58OVALD58*%

%ADD59R,0.0396X0.0377*%
G04:AMPARAMS|DCode=60|XSize=67.3mil|YSize=18.1mil|CornerRadius=4.3mil|HoleSize=0mil|Usage=FLASHONLY|Rotation=0.000|XOffset=0mil|YOffset=0mil|HoleType=Round|Shape=RoundedRectangle|*
%AMROUNDEDRECTD60*
21,1,0.0673,0.0094,0,0,0.0*
21,1,0.0587,0.0181,0,0,0.0*
1,1,0.0087,0.0293,-0.0047*
1,1,0.0087,-0.0293,-0.0047*
1,1,0.0087,-0.0293,0.0047*
1,1,0.0087,0.0293,0.0047*
%
%ADD60ROUNDEDRECTD60*%
%ADD61R,0.0631X0.0474*%
%ADD62R,0.0659X0.0529*%
%ADD63R,0.0572X0.0336*%
%ADD64R,0.0592X0.0671*%
G04:AMPARAMS|DCode=65|XSize=60.8mil|YSize=137.5mil|CornerRadius=10.6mil|HoleSize=0mil|Usage=FLASHONLY|Rotation=90.000|XOffset=0mil|YOffset=0mil|HoleType=Round|Shape=RoundedRectangle|*
%AMROUNDEDRECTD65*
21,1,0.0608,0.1163,0,0,90.0*
21,1,0.0396,0.1375,0,0,90.0*
1,1,0.0212,0.0582,0.0198*
1,1,0.0212,0.0582,-0.0198*
1,1,0.0212,-0.0582,-0.0198*
1,1,0.0212,-0.0582,0.0198*
%
%ADD65ROUNDEDRECTD65*%
%ADD66R,0.1320X0.0946*%
%ADD67R,0.0529X0.0659*%
%ADD68R,0.0946X0.0867*%
%ADD69R,0.4056X0.4080*%
%ADD70R,0.1340X0.0480*%
%ADD71R,0.0592X0.0470*%
%ADD72R,0.0592X0.0312*%
%ADD73R,0.0789X0.0710*%
%ADD74R,0.0480X0.1340*%
%ADD75R,0.4080X0.4056*%
%ADD76R,0.0946X0.1320*%
%ADD77R,0.1655X0.2836*%
%ADD78R,0.1655X0.2403*%
%ADD79R,0.0946X0.1379*%
%ADD80R,0.1891X0.0986*%
%ADD81R,0.1734X0.1104*%
%ADD82R,0.0552X0.0297*%
%ADD83R,0.1069X0.1419*%
%ADD84R,0.0680X0.0356*%
%ADD85R,0.0870X0.0670*%
%ADD86R,0.0870X0.1580*%
%ADD87R,0.0710X0.0938*%
%ADD88R,0.0560X0.0438*%
G04:AMPARAMS|DCode=89|XSize=47.4mil|YSize=51.3mil|CornerRadius=0mil|HoleSize=0mil|Usage=FLASHONLY|Rotation=315.000|XOffset=0mil|YOffset=0mil|HoleType=Round|Shape=Rectangle|*
%AMROTATEDRECTD89*
4,1,4,-0.0349,-0.0014,0.0014,0.0349,0.0349,0.0014,-0.0014,-0.0349,-0.0349,-0.0014,0.0*
%
%ADD89ROTATEDRECTD89*%

%ADD90C,0.0513*%
%ADD91C,0.2127*%
%ADD92C,0.2521*%
%ADD93R,0.0592X0.0592*%
%ADD94C,0.0592*%
%ADD95R,0.0592X0.0592*%
%ADD96O,0.0449X0.0626*%
%ADD97O,0.0828X0.0454*%
%ADD98C,0.0700*%
%ADD99C,0.1104*%
%ADD100C,0.1074*%
%ADD101R,0.0671X0.0671*%
%ADD102C,0.0237*%
%ADD103R,0.0671X0.0671*%
%ADD104C,0.1340*%
%ADD105C,0.0930*%
%ADD106O,0.1497X0.0907*%
%ADD107O,0.0907X0.1497*%
%ADD108O,0.0867X0.1261*%
%ADD109O,0.1379X0.0986*%
%ADD110O,0.1261X0.0867*%
%ADD111C,0.0966*%
%ADD112C,0.2639*%
%ADD113C,0.0728*%
%ADD114R,0.0728X0.0728*%
%ADD115C,0.1025*%
%ADD116C,0.0737*%
%ADD117C,0.0946*%
%ADD118C,0.0157*%
%ADD119C,0.0197*%
%ADD120C,0.0276*%
%ADD121C,0.0236*%
G36*
X26190Y29055D02*
Y29232D01*
X26545D01*
Y29055D01*
X26190D01*
D02*
G37*
G36*
X26191Y29311D02*
Y29488D01*
X26545D01*
Y29311D01*
X26191D01*
D02*
G37*
G36*
X26191Y29567D02*
Y29744D01*
X26545D01*
Y29567D01*
X26191D01*
D02*
G37*
G36*
X26939Y29055D02*
Y29232D01*
X27293D01*
Y29055D01*
X26939D01*
D02*
G37*
G36*
X26939Y29311D02*
Y29488D01*
X27293D01*
Y29311D01*
X26939D01*
D02*
G37*
G36*
X26939Y29567D02*
Y29744D01*
X27293D01*
Y29567D01*
X26939D01*
D02*
G37*
D23*
X20276Y19685D02*
Y31014D01*
D24*
X88583Y19685D02*
Y33848D01*
D25*
X53898Y23750D02*
D03*
X54567D02*
D03*
X53898Y23081D02*
D03*
X54567D02*
D03*
X52264D02*
D03*
X52933D02*
D03*
X52254Y23750D02*
D03*
X52923D02*
D03*
X53622Y20787D02*
D03*
X54291D02*
D03*
X51900D02*
D03*
X51230D02*
D03*
X72913Y26752D02*
D03*
X72244D02*
D03*
X72244Y26043D02*
D03*
X72913D02*
D03*
X72244Y25374D02*
D03*
X72913D02*
D03*
X35138Y27323D02*
D03*
X34469D02*
D03*
X35138Y26693D02*
D03*
X34469D02*
D03*
X21437Y35935D02*
D03*
X22106D02*
D03*
X26742Y28022D02*
D03*
X26073D02*
D03*
X26742Y27362D02*
D03*
X26073D02*
D03*
X28140Y27362D02*
D03*
X27470D02*
D03*
X28140Y28022D02*
D03*
X27470D02*
D03*
X24675Y27362D02*
D03*
X25344D02*
D03*
X24675Y28022D02*
D03*
X25344D02*
D03*
X29537Y27362D02*
D03*
X28868D02*
D03*
X38199Y49331D02*
D03*
X37530D02*
D03*
X38199Y50020D02*
D03*
X37530D02*
D03*
X22146Y48720D02*
D03*
X21476D02*
D03*
X22165Y48022D02*
D03*
X21496D02*
D03*
X53868Y35640D02*
D03*
X53199D02*
D03*
X50748Y29833D02*
D03*
X50079D02*
D03*
X52303Y31703D02*
D03*
X51634D02*
D03*
X53888D02*
D03*
X53218D02*
D03*
X46762Y38858D02*
D03*
X46093D02*
D03*
X46752Y39547D02*
D03*
X46083D02*
D03*
X68051Y42904D02*
D03*
X68720D02*
D03*
X66398Y47854D02*
D03*
X67067D02*
D03*
X65423Y47854D02*
D03*
X64754D02*
D03*
X58130Y22835D02*
D03*
X57461D02*
D03*
X59587D02*
D03*
X58917D02*
D03*
X83346Y40561D02*
D03*
X82677D02*
D03*
X51821Y35640D02*
D03*
X51152D02*
D03*
X66978Y25689D02*
D03*
X67648D02*
D03*
X52579Y46014D02*
D03*
X53248D02*
D03*
X56004Y22835D02*
D03*
X56673D02*
D03*
D26*
X54232Y21535D02*
D03*
X53854Y22362D02*
D03*
X54610D02*
D03*
X52618Y21535D02*
D03*
X52240Y22362D02*
D03*
X52996D02*
D03*
X55394Y38957D02*
D03*
X55016Y39783D02*
D03*
X55772D02*
D03*
D27*
X54291Y20128D02*
D03*
X53622D02*
D03*
X51220D02*
D03*
X51890D02*
D03*
D28*
X64616Y39744D02*
D03*
Y40413D02*
D03*
Y41142D02*
D03*
Y41811D02*
D03*
D29*
X40069Y31939D02*
D03*
X39695Y32805D02*
D03*
X40443D02*
D03*
X55394Y37087D02*
D03*
X55020Y37953D02*
D03*
X55768D02*
D03*
D30*
X75566Y25620D02*
D03*
Y25876D02*
D03*
Y26132D02*
D03*
Y26388D02*
D03*
X77879D02*
D03*
Y26132D02*
D03*
Y25876D02*
D03*
Y25620D02*
D03*
D31*
X44685Y33799D02*
D03*
Y33130D02*
D03*
X40069Y30502D02*
D03*
Y31171D02*
D03*
X39400Y31171D02*
D03*
Y30502D02*
D03*
X38730D02*
D03*
Y31171D02*
D03*
X54675Y29813D02*
D03*
Y29144D02*
D03*
X52283Y38258D02*
D03*
Y38927D02*
D03*
X60049Y41850D02*
D03*
Y41181D02*
D03*
Y39783D02*
D03*
Y40453D02*
D03*
X58898Y37106D02*
D03*
Y37776D02*
D03*
X63661Y37116D02*
D03*
Y37785D02*
D03*
X54843Y42382D02*
D03*
Y41713D02*
D03*
X79980Y38071D02*
D03*
Y37402D02*
D03*
X79321D02*
D03*
Y38071D02*
D03*
X78612Y37402D02*
D03*
Y38071D02*
D03*
X56102Y45079D02*
D03*
Y45748D02*
D03*
X53986Y39774D02*
D03*
Y40443D02*
D03*
X54596Y33829D02*
D03*
Y33159D02*
D03*
X63947Y40413D02*
D03*
Y39744D02*
D03*
Y41142D02*
D03*
Y41811D02*
D03*
X55433Y45079D02*
D03*
Y45748D02*
D03*
X56772Y45748D02*
D03*
Y45079D02*
D03*
X56476Y37963D02*
D03*
Y38632D02*
D03*
X55837Y47736D02*
D03*
Y47067D02*
D03*
X56506Y47067D02*
D03*
Y47736D02*
D03*
D32*
X43209Y31663D02*
D03*
X35384Y28701D02*
D03*
X21978Y37520D02*
D03*
X20482D02*
D03*
X28927Y47904D02*
D03*
X47933Y38248D02*
D03*
X66811Y45965D02*
D03*
X59675Y47539D02*
D03*
X53474Y44813D02*
D03*
X63327Y44774D02*
D03*
X71398Y26043D02*
D03*
X57205Y30335D02*
D03*
X78622D02*
D03*
D33*
X37293Y31969D02*
D03*
X36004Y45679D02*
D03*
X35984Y44823D02*
D03*
X50256Y38868D02*
D03*
X55472Y32482D02*
D03*
X61693Y47431D02*
D03*
X57504Y26368D02*
D03*
X56504D02*
D03*
X55504D02*
D03*
X58504D02*
D03*
X59504D02*
D03*
X65157Y24695D02*
D03*
X64173D02*
D03*
X63189D02*
D03*
X62205D02*
D03*
X61220D02*
D03*
X58484Y20738D02*
D03*
X56713D02*
D03*
X65020D02*
D03*
X63248D02*
D03*
X71476D02*
D03*
X69705D02*
D03*
X73685Y20827D02*
D03*
Y21827D02*
D03*
X74685Y20827D02*
D03*
Y21827D02*
D03*
X75685Y20827D02*
D03*
Y21827D02*
D03*
X76685Y20827D02*
D03*
Y21827D02*
D03*
X77685Y20827D02*
D03*
Y21827D02*
D03*
X78685Y20827D02*
D03*
Y21827D02*
D03*
X79685Y20827D02*
D03*
Y21827D02*
D03*
X80685Y20827D02*
D03*
X71319Y49843D02*
D03*
X86220Y33750D02*
D03*
X86201Y42844D02*
D03*
D34*
X34886Y29463D02*
D03*
Y29713D02*
D03*
Y29973D02*
D03*
Y30223D02*
D03*
X33146D02*
D03*
Y29973D02*
D03*
Y29713D02*
D03*
Y29463D02*
D03*
D35*
X23563Y36407D02*
D03*
X23090Y36880D02*
D03*
X35433Y43937D02*
D03*
X34960Y44410D02*
D03*
D36*
X21636Y36624D02*
D03*
X21967D02*
D03*
D37*
X22992Y34281D02*
D03*
Y34026D02*
D03*
Y33770D02*
D03*
Y33514D02*
D03*
Y33258D02*
D03*
D38*
X21929Y34163D02*
D03*
Y33376D02*
D03*
D39*
Y34911D02*
D03*
Y32628D02*
D03*
D40*
X23701Y35244D02*
D03*
Y34913D02*
D03*
X23809Y34358D02*
D03*
Y34028D02*
D03*
X24144Y33437D02*
D03*
Y33768D02*
D03*
D41*
X26368Y29656D02*
D03*
Y29400D02*
D03*
Y29144D02*
D03*
X27116D02*
D03*
Y29400D02*
D03*
Y29656D02*
D03*
D42*
X36555Y25433D02*
D03*
X36122D02*
D03*
X35689D02*
D03*
X35256D02*
D03*
X34823D02*
D03*
X34390D02*
D03*
X33957D02*
D03*
X33524D02*
D03*
X33091D02*
D03*
D43*
X32618Y25236D02*
D03*
D44*
Y21433D02*
D03*
X38721Y21457D02*
D03*
D45*
X38366Y25236D02*
D03*
D46*
X30305Y25915D02*
D03*
X24360D02*
D03*
D47*
X30305Y22628D02*
D03*
Y20541D02*
D03*
X24360D02*
D03*
Y22628D02*
D03*
D48*
X29557Y25967D02*
D03*
D49*
X28626Y26289D02*
D03*
X28232D02*
D03*
X27839D02*
D03*
X27445D02*
D03*
X26742D02*
D03*
X26189D02*
D03*
X25795D02*
D03*
D50*
X33049Y47119D02*
D03*
X33329Y46838D02*
D03*
D51*
X34771Y47188D02*
D03*
X33950Y48009D02*
D03*
D52*
X33936Y47174D02*
D03*
D53*
X38278Y47815D02*
D03*
Y48563D02*
D03*
X22894Y47096D02*
D03*
Y47844D02*
D03*
X54665Y45000D02*
D03*
Y45748D02*
D03*
D54*
X50669Y53445D02*
D03*
X35709D02*
D03*
D55*
X39055D02*
D03*
D56*
X38268Y53075D02*
D03*
D57*
X23771Y37566D02*
D03*
X24049Y37288D02*
D03*
X24328Y37009D02*
D03*
X24606Y36731D02*
D03*
X24885Y36453D02*
D03*
X25163Y36174D02*
D03*
X25441Y35896D02*
D03*
X25720Y35617D02*
D03*
X25998Y35339D02*
D03*
X26276Y35061D02*
D03*
X26555Y34782D02*
D03*
X26833Y34504D02*
D03*
X27112Y34225D02*
D03*
X27390Y33947D02*
D03*
X27668Y33669D02*
D03*
X27947Y33390D02*
D03*
X28225Y33112D02*
D03*
X28504Y32833D02*
D03*
X28782Y32555D02*
D03*
X29060Y32277D02*
D03*
X37468Y40684D02*
D03*
X37189Y40962D02*
D03*
X36911Y41241D02*
D03*
X36633Y41519D02*
D03*
X36354Y41798D02*
D03*
X36076Y42076D02*
D03*
X35797Y42354D02*
D03*
X35519Y42633D02*
D03*
X35241Y42911D02*
D03*
X34962Y43190D02*
D03*
X34684Y43468D02*
D03*
X34405Y43746D02*
D03*
X34127Y44025D02*
D03*
X33849Y44303D02*
D03*
X33570Y44581D02*
D03*
X33292Y44860D02*
D03*
X33013Y45138D02*
D03*
X32735Y45417D02*
D03*
X32457Y45695D02*
D03*
X32178Y45973D02*
D03*
X29339Y31998D02*
D03*
X37746Y40406D02*
D03*
X31900Y46252D02*
D03*
D58*
X32178Y32277D02*
D03*
X32457Y32555D02*
D03*
X32735Y32833D02*
D03*
X33013Y33112D02*
D03*
X33292Y33390D02*
D03*
X33570Y33669D02*
D03*
X33849Y33947D02*
D03*
X34127Y34225D02*
D03*
X34405Y34504D02*
D03*
X34684Y34782D02*
D03*
X34962Y35061D02*
D03*
X35241Y35339D02*
D03*
X35519Y35617D02*
D03*
X35797Y35896D02*
D03*
X36076Y36174D02*
D03*
X36354Y36453D02*
D03*
X36633Y36731D02*
D03*
X36911Y37009D02*
D03*
X37189Y37288D02*
D03*
X37468Y37566D02*
D03*
X29060Y45973D02*
D03*
X28782Y45695D02*
D03*
X28504Y45417D02*
D03*
X28225Y45138D02*
D03*
X27947Y44860D02*
D03*
X27668Y44581D02*
D03*
X27390Y44303D02*
D03*
X27112Y44025D02*
D03*
X26833Y43746D02*
D03*
X26555Y43468D02*
D03*
X26276Y43190D02*
D03*
X25998Y42911D02*
D03*
X25720Y42633D02*
D03*
X25441Y42354D02*
D03*
X25163Y42076D02*
D03*
X24885Y41798D02*
D03*
X24606Y41519D02*
D03*
X24328Y41241D02*
D03*
X24049Y40962D02*
D03*
X23771Y40684D02*
D03*
X37746Y37844D02*
D03*
X31900Y31998D02*
D03*
X23493Y40406D02*
D03*
X29339Y46252D02*
D03*
D59*
X22185Y49459D02*
D03*
X22756D02*
D03*
D60*
X53886Y35010D02*
D03*
Y34754D02*
D03*
Y34498D02*
D03*
Y34242D02*
D03*
Y33986D02*
D03*
Y33730D02*
D03*
Y33474D02*
D03*
X51626D02*
D03*
Y33730D02*
D03*
Y33986D02*
D03*
Y34242D02*
D03*
Y34498D02*
D03*
Y34754D02*
D03*
Y35010D02*
D03*
X53886Y30994D02*
D03*
Y30738D02*
D03*
Y30482D02*
D03*
Y30226D02*
D03*
Y29970D02*
D03*
Y29715D02*
D03*
Y29459D02*
D03*
X51626D02*
D03*
Y29715D02*
D03*
Y29970D02*
D03*
Y30226D02*
D03*
Y30482D02*
D03*
Y30738D02*
D03*
Y30994D02*
D03*
D61*
X54016Y38612D02*
D03*
X53150Y38238D02*
D03*
Y38986D02*
D03*
D62*
X45187Y37504D02*
D03*
Y38205D02*
D03*
D63*
X57224Y37441D02*
D03*
X58051Y37819D02*
D03*
Y37063D02*
D03*
D64*
X58209Y36102D02*
D03*
X58957D02*
D03*
D65*
X65079Y36102D02*
D03*
Y37795D02*
D03*
D66*
X67559Y36053D02*
D03*
Y38809D02*
D03*
D67*
X65439Y47028D02*
D03*
X64738D02*
D03*
X66362Y47047D02*
D03*
X67063D02*
D03*
D68*
X65453Y45945D02*
D03*
Y44764D02*
D03*
D69*
X49967Y42371D02*
D03*
X85136Y38069D02*
D03*
D70*
X53784Y43711D02*
D03*
Y43041D02*
D03*
Y42371D02*
D03*
Y41701D02*
D03*
Y41031D02*
D03*
X81280Y39409D02*
D03*
Y38739D02*
D03*
Y38069D02*
D03*
Y37399D02*
D03*
Y36729D02*
D03*
D71*
X56801Y24551D02*
D03*
D72*
Y23874D02*
D03*
X57608D02*
D03*
Y24630D02*
D03*
D73*
X81831Y21841D02*
D03*
Y20738D02*
D03*
X82835Y20738D02*
D03*
Y21841D02*
D03*
D74*
X84804Y30896D02*
D03*
X84134D02*
D03*
X83464D02*
D03*
X82794D02*
D03*
X82124D02*
D03*
D75*
X83464Y27039D02*
D03*
D76*
X77165Y35217D02*
D03*
X79921D02*
D03*
X76791Y40276D02*
D03*
X79547D02*
D03*
X87018Y48917D02*
D03*
X84262D02*
D03*
D77*
X74409Y38376D02*
D03*
X70472D02*
D03*
X70463Y44085D02*
D03*
X74400D02*
D03*
D78*
X80965Y43366D02*
D03*
X77343D02*
D03*
D79*
X84124Y46319D02*
D03*
X87037D02*
D03*
D80*
X82077Y46407D02*
D03*
Y49754D02*
D03*
D81*
X43297Y37717D02*
D03*
Y40236D02*
D03*
X40699Y37717D02*
D03*
Y40236D02*
D03*
D82*
X74705Y25630D02*
D03*
Y26004D02*
D03*
Y26378D02*
D03*
X73681D02*
D03*
Y25630D02*
D03*
Y26004D02*
D03*
D83*
X61939Y40768D02*
D03*
D84*
X63007Y41518D02*
D03*
Y41018D02*
D03*
Y40518D02*
D03*
Y40018D02*
D03*
X60871D02*
D03*
Y40518D02*
D03*
Y41018D02*
D03*
Y41518D02*
D03*
D85*
X47175Y30803D02*
D03*
Y31703D02*
D03*
Y32603D02*
D03*
X54754Y48784D02*
D03*
Y47884D02*
D03*
Y46984D02*
D03*
D86*
X44695Y31693D02*
D03*
X52274Y47874D02*
D03*
D87*
X67313Y20787D02*
D03*
Y24409D02*
D03*
D88*
X45177Y40250D02*
D03*
Y38963D02*
D03*
D89*
X37628Y36595D02*
D03*
X37155Y36122D02*
D03*
D90*
X53457Y20128D02*
D03*
X54457D02*
D03*
X52055D02*
D03*
X51055D02*
D03*
D91*
X21654Y21654D02*
D03*
X43307Y45276D02*
D03*
D92*
X87008Y53150D02*
D03*
D93*
X48415Y31703D02*
D03*
X68720Y44557D02*
D03*
X57707Y42215D02*
D03*
X57756Y39409D02*
D03*
X50472Y47815D02*
D03*
D94*
X49203Y31703D02*
D03*
X42441Y29124D02*
D03*
X62205Y37018D02*
D03*
X68218Y41457D02*
D03*
X67736Y44557D02*
D03*
X58691Y42215D02*
D03*
X56506Y49567D02*
D03*
X58740Y39409D02*
D03*
X49488Y47815D02*
D03*
D95*
X42441Y30108D02*
D03*
X62205Y37805D02*
D03*
X68218Y40472D02*
D03*
X56506Y48780D02*
D03*
D96*
X22992Y34754D02*
D03*
Y32785D02*
D03*
D97*
X21929Y35148D02*
D03*
Y32392D02*
D03*
D98*
X33721Y21299D02*
D03*
X36870D02*
D03*
D99*
X21894Y52425D02*
D03*
X23894D02*
D03*
Y54425D02*
D03*
X21894D02*
D03*
D100*
X22894Y53425D02*
D03*
D101*
X55472Y33482D02*
D03*
D102*
X48573Y40827D02*
D03*
Y41614D02*
D03*
Y42402D02*
D03*
Y43189D02*
D03*
Y43976D02*
D03*
X49518Y40827D02*
D03*
Y41614D02*
D03*
Y42402D02*
D03*
Y43189D02*
D03*
Y43976D02*
D03*
X50463Y40827D02*
D03*
Y41614D02*
D03*
Y42402D02*
D03*
Y43189D02*
D03*
Y43976D02*
D03*
X51407D02*
D03*
Y43189D02*
D03*
Y42402D02*
D03*
Y41614D02*
D03*
Y40827D02*
D03*
D103*
X63071Y47431D02*
D03*
X54504Y26368D02*
D03*
X80685Y21827D02*
D03*
X69350Y49843D02*
D03*
X84252Y33750D02*
D03*
X84232Y42844D02*
D03*
D104*
X73602Y53354D02*
D03*
X58248D02*
D03*
X72663Y31496D02*
D03*
X63163D02*
D03*
X59872Y30335D02*
D03*
X75955D02*
D03*
D105*
X67264Y48864D02*
D03*
X66594Y50364D02*
D03*
X65925Y48864D02*
D03*
X65256Y50364D02*
D03*
X64587Y48864D02*
D03*
D106*
X43386Y20561D02*
D03*
Y25856D02*
D03*
D107*
X45433Y24931D02*
D03*
D108*
X48976Y23415D02*
D03*
D109*
X47323Y24163D02*
D03*
D110*
Y20443D02*
D03*
D111*
X58976Y21722D02*
D03*
X56220D02*
D03*
X65512D02*
D03*
X62756D02*
D03*
X71969D02*
D03*
X69213D02*
D03*
D112*
X85039Y21654D02*
D03*
D113*
X77096Y48809D02*
D03*
Y46841D02*
D03*
X79065Y48809D02*
D03*
X78081Y45856D02*
D03*
Y47825D02*
D03*
D114*
X79065Y46841D02*
D03*
D115*
X84268Y51388D02*
D03*
X82268D02*
D03*
X79189D02*
D03*
X77189D02*
D03*
D116*
X60327Y34697D02*
D03*
X57205Y33130D02*
D03*
D117*
X75500Y31496D02*
D03*
X60327D02*
D03*
D118*
X86693Y28839D02*
D03*
Y27953D02*
D03*
Y27067D02*
D03*
Y26201D02*
D03*
Y25335D02*
D03*
Y24469D02*
D03*
X85886D02*
D03*
X85079D02*
D03*
X84272D02*
D03*
X83465D02*
D03*
X82657D02*
D03*
X81850D02*
D03*
X81043Y24469D02*
D03*
X80236Y24469D02*
D03*
Y25335D02*
D03*
Y26201D02*
D03*
Y27067D02*
D03*
Y27953D02*
D03*
Y28799D02*
D03*
X87126Y41093D02*
D03*
X86260D02*
D03*
X85394D02*
D03*
X83543D02*
D03*
Y35049D02*
D03*
X85394Y35059D02*
D03*
X86260Y35069D02*
D03*
X87126Y35089D02*
D03*
X87992D02*
D03*
Y35837D02*
D03*
Y36585D02*
D03*
Y37333D02*
D03*
Y38081D02*
D03*
Y38829D02*
D03*
Y39577D02*
D03*
Y40325D02*
D03*
Y41093D02*
D03*
X34695Y48924D02*
D03*
X35797Y48883D02*
D03*
X32047Y47352D02*
D03*
X35128Y46393D02*
D03*
X35797Y48022D02*
D03*
X35797Y49774D02*
D03*
X34695D02*
D03*
X33593D02*
D03*
X31388D02*
D03*
X32490Y48199D02*
D03*
Y49774D02*
D03*
X31388Y48986D02*
D03*
X39400Y49449D02*
D03*
Y48504D02*
D03*
Y41890D02*
D03*
X37156Y48504D02*
D03*
Y47559D02*
D03*
Y46614D02*
D03*
X37156Y42835D02*
D03*
X24262Y50709D02*
D03*
X21516Y41260D02*
D03*
X24262Y43150D02*
D03*
Y44094D02*
D03*
X21516Y42205D02*
D03*
Y43150D02*
D03*
X21270Y38907D02*
D03*
X39400Y46614D02*
D03*
Y47559D02*
D03*
Y42835D02*
D03*
Y43780D02*
D03*
Y45669D02*
D03*
Y44724D02*
D03*
X33593Y48950D02*
D03*
X32490Y48986D02*
D03*
X35797Y47037D02*
D03*
X34232Y46014D02*
D03*
X24577Y34360D02*
D03*
X27323Y31348D02*
D03*
X25807Y29203D02*
D03*
X29132Y37550D02*
D03*
X28611Y38633D02*
D03*
X24892Y32087D02*
D03*
X27884Y26850D02*
D03*
X26742Y26860D02*
D03*
X26270Y31348D02*
D03*
X27510Y30236D02*
D03*
X34833Y30925D02*
D03*
X34823Y26112D02*
D03*
X36122Y28642D02*
D03*
X33957Y28917D02*
D03*
X21516Y49764D02*
D03*
Y50709D02*
D03*
X24262Y49764D02*
D03*
Y48819D02*
D03*
Y45039D02*
D03*
X21516Y44094D02*
D03*
Y46929D02*
D03*
X24262Y47874D02*
D03*
Y46929D02*
D03*
Y45984D02*
D03*
X28897Y31566D02*
D03*
X66772Y29331D02*
D03*
X37156Y45669D02*
D03*
Y44724D02*
D03*
Y43780D02*
D03*
X56663Y34744D02*
D03*
X56900Y34163D02*
D03*
X33199Y30906D02*
D03*
X36102Y29970D02*
D03*
X50581Y23760D02*
D03*
X50591Y35010D02*
D03*
X21516Y45984D02*
D03*
Y45039D02*
D03*
X25669Y32618D02*
D03*
X65276Y31535D02*
D03*
X64685Y31575D02*
D03*
X63268Y29724D02*
D03*
X55315Y30020D02*
D03*
X55443Y30482D02*
D03*
X55098Y30906D02*
D03*
X27837Y40542D02*
D03*
X27101Y40700D02*
D03*
X35689Y24823D02*
D03*
X32480Y27913D02*
D03*
D119*
X82293Y54183D02*
D03*
X71732D02*
D03*
X70433D02*
D03*
X69134D02*
D03*
X26280Y47008D02*
D03*
Y48307D02*
D03*
Y49606D02*
D03*
X27972D02*
D03*
X29862D02*
D03*
X75335Y28406D02*
D03*
X72736D02*
D03*
X74035D02*
D03*
X68022Y34380D02*
D03*
X64291D02*
D03*
X82077Y48022D02*
D03*
X88081Y44705D02*
D03*
Y47559D02*
D03*
Y51063D02*
D03*
X84242Y54183D02*
D03*
X80719D02*
D03*
X79163D02*
D03*
X77156D02*
D03*
X75325D02*
D03*
X67835D02*
D03*
X66535D02*
D03*
X65236D02*
D03*
X63937D02*
D03*
X62638D02*
D03*
X61339D02*
D03*
X60039D02*
D03*
X47402Y48258D02*
D03*
X44409Y41476D02*
D03*
X43110D02*
D03*
X41732D02*
D03*
X46102Y48258D02*
D03*
X44803D02*
D03*
X43504D02*
D03*
X87352Y20443D02*
D03*
Y21575D02*
D03*
X20285Y20443D02*
D03*
Y23091D02*
D03*
X72421Y38573D02*
D03*
X72156Y34380D02*
D03*
X75925D02*
D03*
X80157Y31309D02*
D03*
X87352Y30709D02*
D03*
Y31752D02*
D03*
X60915Y20679D02*
D03*
X40010Y20443D02*
D03*
X31496D02*
D03*
Y21575D02*
D03*
X23219Y20443D02*
D03*
X20276Y25453D02*
D03*
Y26634D02*
D03*
Y27815D02*
D03*
Y28996D02*
D03*
Y30177D02*
D03*
X54656Y44282D02*
D03*
X20276Y24272D02*
D03*
X57136Y38632D02*
D03*
X38337Y35118D02*
D03*
X38848Y35354D02*
D03*
X39262Y35000D02*
D03*
X37874Y35522D02*
D03*
X38268Y35945D02*
D03*
X38750Y36309D02*
D03*
X39183Y36634D02*
D03*
X35384Y28022D02*
D03*
X28868Y28425D02*
D03*
X56112Y40512D02*
D03*
X30059Y43130D02*
D03*
X32510Y37254D02*
D03*
X35699Y33917D02*
D03*
X36142Y34331D02*
D03*
X36673Y34764D02*
D03*
X33435Y36437D02*
D03*
X32904Y35748D02*
D03*
X31329Y37844D02*
D03*
X32520Y41861D02*
D03*
X40010Y21575D02*
D03*
X38740Y28829D02*
D03*
X38337Y31919D02*
D03*
X37421Y34715D02*
D03*
X32294Y43891D02*
D03*
X32038Y43054D02*
D03*
X52421Y34173D02*
D03*
X50984Y33474D02*
D03*
X51358Y36467D02*
D03*
X52461D02*
D03*
X55650Y25039D02*
D03*
X61978Y31033D02*
D03*
X66122Y28307D02*
D03*
X69754Y26949D02*
D03*
X33061Y28878D02*
D03*
X34390Y28278D02*
D03*
X36378Y40699D02*
D03*
X22713Y25723D02*
D03*
Y26982D02*
D03*
X52254Y24754D02*
D03*
X53140Y21358D02*
D03*
X53888Y28996D02*
D03*
X42362Y31309D02*
D03*
X67598Y31575D02*
D03*
X64134Y30866D02*
D03*
X69104Y28140D02*
D03*
X54646Y38622D02*
D03*
X27391Y42078D02*
D03*
X28257Y42879D02*
D03*
D120*
X31191Y31821D02*
D03*
X20246Y48022D02*
D03*
X24237Y34892D02*
D03*
X53086Y27411D02*
D03*
X41112Y28248D02*
D03*
X38612Y27677D02*
D03*
X54587Y32028D02*
D03*
X54626Y35640D02*
D03*
X53228Y32776D02*
D03*
X63465Y27992D02*
D03*
X48150Y29980D02*
D03*
D121*
X35851Y43519D02*
D03*
X24724Y30709D02*
D03*
X49282Y37382D02*
D03*
X46909Y33720D02*
D03*
X51624Y22185D02*
D03*
X57451Y23386D02*
D03*
X55994D02*
D03*
X58907D02*
D03*
X62333Y44774D02*
D03*
X51634Y32382D02*
D03*
X31052Y44125D02*
D03*
M02*
