M48
;Layer_Color=9474304
;FILE_FORMAT=2:5
INCH,LZ
;TYPE=PLATED
T1F00S00C0.01575
T2F00S00C0.01968
T3F00S00C0.02362
T5F00S00C0.02756
T6F00S00C0.03150
T7F00S00C0.03543
T9F00S00C0.03937
T10F00S00C0.04134
T11F00S00C0.04528
T12F00S00C0.04724
T13F00S00C0.05118
T14F00S00C0.05906
T15F00S00C0.06693
T16F00S00C0.07480
T17F00S00C0.08661
T18F00S00C0.12598
;TYPE=NON_PLATED
T19F00S00C0.06575
T20F00S00C0.12598
%
T01
X0802362Y0244685
X0810433Y0244685
X0818504Y0244685
X0826575
X0834646
X0842717
X0850787
X0858858
X0866929
Y0253346
Y0262008
Y0270669
Y0279528
Y0288386
X0802362Y0287992
Y0279528
Y0270669
Y0262008
Y0253346
X0667717Y0293307
X0632677Y0297244
X055315Y0300197
X0554429Y0304823
X0550984Y0309055
X0505807Y0237598
X035689Y0248228
X0348228Y0261122
X0339567Y0289173
X0361221Y0286417
X0361024Y0299705
X0348327Y0309252
X0331988Y0309055
X0324803Y0279134
X0278839Y0268504
X0267421Y0268602
X0258071Y0292028
X0275098Y0302362
X0273228Y0313484
X0262697
X0256693Y0326181
X0248917Y0320866
X0245768Y0343602
X0288969Y031566
X0291318Y0375503
X0286114Y038633
X0278367Y0405424
X0271007Y0406999
X0242618Y0431496
Y0440945
X0242618Y0450394
Y0459842
X0215158
Y0450394
Y0440945
Y0431496
Y0422047
Y0412598
X0212697Y0389075
X0371555Y0428346
Y0437795
Y0447244
Y0456693
X0371555Y0466142
X0393996
Y0456693
Y0447244
Y0437795
Y0428346
Y0418898
X0351279Y0463926
X0342323Y0460138
X0485728Y0439764
Y043189
Y0424016
Y0416142
Y0408268
X0495177
Y0416142
Y0424016
Y043189
Y0439764
X0504626
Y043189
Y0424016
Y0416142
Y0408268
X0514075
Y0416142
Y0424016
Y043189
Y0439764
X0505905Y0350098
X0566634Y0347441
X0568996Y0341634
X064685Y0315748
X0652756Y0315354
X0835433Y0350492
X0853937Y035059
X0862598Y0350689
X087126Y0350886
X0879921
Y0358366
Y0365846
Y0373327
Y0380807
Y0388287
Y0395768
Y0403248
Y0410925
X087126
X0862598
X0853937
X0835433
X0393996Y0475591
Y0485039
Y0494488
X0371555Y0485039
Y0475591
X0357972Y0480217
Y0488827
X0357972Y0497736
X0346949
Y0489245
X0335925Y0489499
Y0497736
X0324902
Y0489862
Y0481988
X0320472Y0473524
X0313878Y0489862
Y0497736
X0357972Y0470374
X0242618Y0469291
Y047874
Y0488189
Y0497638
X0242618Y0507087
X0215158
Y0497638
Y0469291
T02
X0873524Y0204429
Y0215748
Y0307087
X0753346Y0284055
X0740354
X0727362
X0691043Y0281397
X0697539Y0269488
X0661221Y0283071
X0641339Y0308661
X0619783Y0310335
X0538878Y0289961
X0556496Y0250394
X0522539Y0247539
X0531398Y0213583
X0609154Y0206791
X0400098Y0204429
Y0215748
X0314961
Y0204429
X033061Y0288779
X0343898Y0282776
X0353839Y0280217
X0387402Y0288287
X0288681Y0284252
X0227126Y0269823
Y0257232
X0202756Y0254528
Y0266339
Y027815
Y0289961
Y0301772
Y0242717
X0202854Y0230906
Y0204429
X0232185
X027391Y0420778
X0282571Y0428792
X030059Y0431299
X0320382Y0430545
X0322941Y0438911
X0325197Y0418606
X0325098Y0372539
X033435Y036437
X0329035Y035748
X0313287Y0378445
X0363779Y0406988
X0417323Y0414764
X0431102
X0444095
X0391831Y0366339
X03875Y036309
X0382677Y0359449
X037874Y0355217
X0383366Y0351181
X0388484Y0353543
X0392618Y035
X0374213Y0347146
X0366732Y0347638
X0361417Y0343307
X0356988Y0339173
X0383366Y0319193
X0423622Y031309
X0509842Y0334744
X0524213Y0341732
X0524606Y0364665
X0513583
X0546457Y0386221
X0571358Y0386319
X0561122Y0405118
X0546555Y0442815
X0642913Y0343799
X0680217
X0675984Y0315748
X0721555Y0343799
X0759252
X0724213Y0385728
X0801575Y031309
X0873524Y031752
X0880807Y0447047
Y0475591
Y051063
X0842421Y0541831
X0822933
X0807185
X0791634
X0820768Y0480217
X0771555Y0541831
X0753248
X0717323
X0704331
X0691339
X0678346
X0665354
X0652362
X063937
X0626378
X0613386
X0600394
X0474016Y0482579
X0461024
X0448032
X0435039
X0298622Y0496063
X0279724
X0262795
Y0483071
Y0470079
T03
X051624Y022185
X0559941Y0233858
X0574508
X0589075
X0247244Y0307087
X0310524Y0441251
X035851Y0435191
X0492815Y0373819
X0469095Y0337205
X0516339Y0323819
X0623327Y0447736
T05
X0634646Y0279921
X0530856Y0274114
X0481496Y0299803
X0510551Y0201279
X0520551
X0534567
X0544567
X0411122Y028248
X0386122Y0276772
X031191Y0318209
X0242372Y0348917
X0532283Y0327756
X0545866Y0320276
X054626Y0356398
X0202461Y0480217
T06
X0424409Y029124
Y0301083
X0484154Y0317028
X0492028
X0577559Y0394094
X0587402
X0586909Y0422146
X0577067
X0622047Y0378051
Y0370177
X0682185Y0404724
Y0414567
X0677362Y0445571
X0687205
X0565059Y0487795
Y0495669
X0504724Y047815
X0494882
T07
X078685Y0208268
Y0218268
X079685
Y0208268
X080685
Y0218268
X077685
X076685
X075685
X074685
X073685
Y0208268
X074685
X075685
X076685
X077685
X0595039Y0263681
X0585039
X0575039
X0565039
X0555039
X0545039
X0554724Y0324823
Y0334823
T09
X063248Y0207382
X0650197
X0651575Y0246949
X0641732
X063189
X0697049Y0207382
X0714765
X0584842
X0567126
X0612205Y0246949
X0622047
X084252Y03375
X0862205
X0862008Y0428445
X0842323
X0713189Y0498425
X0693504
X0630709Y0474311
X0616929
T10
X0337205Y0212992
X0368701
T11
X0645866Y0488642
X0659252
X0672638
X0665945Y0503642
X0652559
T12
X0770964Y0468405
X0780807Y0458563
X079065Y0468405
Y048809
X0770964
X0780807Y0478248
T13
X0786221Y0303346
X0572047
X0603268Y0314961
X0755
T14
X0627559Y0217224
X0655118
X0692127
X0719686
X0589764
X0562205
X0228937Y0534252
T15
X079189Y0513878
X0822677
X0842677
X077189
T16
X0218937Y0524252
X0238937
Y0544252
X0218937
T17
X0736024Y0533543
X058248
T18
X0850394Y0216535
X0216535
X0433071Y0452756
X0870079Y0531496
T19
X0572047Y0331299
X0603268Y0346969
T20
X0759547Y0303346
X0598721
X0631634Y0314961
X0726634
M30
