G04*
G04 #@! TF.GenerationSoftware,Altium Limited,Altium Designer,19.1.8 (144)*
G04*
G04 Layer_Color=65535*
%FSLAX24Y24*%
%MOIN*%
G70*
G01*
G75*
%ADD10C,0.0100*%
%ADD11C,0.0079*%
%ADD12C,0.0060*%
%ADD13C,0.0098*%
%ADD14C,0.0050*%
%ADD15C,0.0094*%
%ADD16C,0.0059*%
%ADD17C,0.0138*%
%ADD18C,0.0030*%
%ADD19C,0.0039*%
%ADD20C,0.0118*%
%ADD21C,0.0080*%
%ADD22C,0.0087*%
G36*
X67925Y51614D02*
X63925D01*
Y52114D01*
X67925D01*
Y51614D01*
D02*
G37*
G36*
X64744Y49370D02*
X64444D01*
Y50370D01*
X64744D01*
Y49370D01*
D02*
G37*
G36*
X67398Y49364D02*
X67098D01*
Y50364D01*
X67398D01*
Y49364D01*
D02*
G37*
G36*
X66075D02*
X65775D01*
Y50364D01*
X66075D01*
Y49364D01*
D02*
G37*
G36*
X45492Y39252D02*
X44862D01*
Y39488D01*
X45492D01*
Y39252D01*
D02*
G37*
D10*
X54744Y20128D02*
G03*
X54744Y20128I-787J0D01*
G01*
X52343D02*
G03*
X52343Y20128I-787J0D01*
G01*
X26140Y29896D02*
X26175D01*
X20728Y39744D02*
Y39344D01*
X20928Y39144D01*
X21128Y39344D01*
Y39744D01*
X21328D02*
Y39144D01*
X21628D01*
X21728Y39244D01*
Y39644D01*
X21628Y39744D01*
X21328D01*
X21928Y39644D02*
X22028Y39744D01*
X22228D01*
X22328Y39644D01*
Y39544D01*
X22228Y39444D01*
X22328Y39344D01*
Y39244D01*
X22228Y39144D01*
X22028D01*
X21928Y39244D01*
Y39344D01*
X22028Y39444D01*
X21928Y39544D01*
Y39644D01*
X22028Y39444D02*
X22228D01*
X21158Y38640D02*
X21058Y38740D01*
X20858D01*
X20758Y38640D01*
Y38240D01*
X20858Y38140D01*
X21058D01*
X21158Y38240D01*
X21358Y38640D02*
X21458Y38740D01*
X21658D01*
X21758Y38640D01*
Y38540D01*
X21658Y38440D01*
X21558D01*
X21658D01*
X21758Y38340D01*
Y38240D01*
X21658Y38140D01*
X21458D01*
X21358Y38240D01*
X22357Y38740D02*
X21957D01*
Y38440D01*
X22157Y38540D01*
X22257D01*
X22357Y38440D01*
Y38240D01*
X22257Y38140D01*
X22057D01*
X21957Y38240D01*
X24587Y33740D02*
Y33340D01*
X24787Y33140D01*
X24986Y33340D01*
Y33740D01*
X25186D02*
Y33140D01*
X25486D01*
X25586Y33240D01*
Y33640D01*
X25486Y33740D01*
X25186D01*
X26086Y33140D02*
Y33740D01*
X25786Y33440D01*
X26186D01*
X23986Y32854D02*
X23586D01*
X23386Y32654D01*
X23586Y32454D01*
X23986D01*
Y32255D02*
X23386D01*
Y31955D01*
X23486Y31855D01*
X23886D01*
X23986Y31955D01*
Y32255D01*
X23886Y31655D02*
X23986Y31555D01*
Y31355D01*
X23886Y31255D01*
X23786D01*
X23686Y31355D01*
Y31455D01*
Y31355D01*
X23586Y31255D01*
X23486D01*
X23386Y31355D01*
Y31555D01*
X23486Y31655D01*
X42215Y49537D02*
Y49937D01*
X42414Y50137D01*
X42614Y49937D01*
Y49537D01*
Y49837D01*
X42215D01*
X42814Y49537D02*
Y50137D01*
X43214Y49537D01*
Y50137D01*
X43414D02*
X43814D01*
X43614D01*
Y49537D01*
X44014D02*
X44214D01*
X44114D01*
Y50137D01*
X44014Y50037D01*
X39793Y28573D02*
X39193D01*
Y28873D01*
X39293Y28973D01*
X39493D01*
X39593Y28873D01*
Y28573D01*
Y28773D02*
X39793Y28973D01*
Y29173D02*
Y29373D01*
Y29273D01*
X39193D01*
X39293Y29173D01*
X39793Y29672D02*
Y29872D01*
Y29772D01*
X39193D01*
X39293Y29672D01*
X54400Y31830D02*
X54799Y31230D01*
Y31830D02*
X54400Y31230D01*
X54999D02*
X55199D01*
X55099D01*
Y31830D01*
X54999Y31730D01*
X55899Y31230D02*
X55499D01*
X55899Y31630D01*
Y31730D01*
X55799Y31830D01*
X55599D01*
X55499Y31730D01*
X36703Y33119D02*
X37103D01*
X36903D01*
Y32520D01*
X37303D02*
Y33119D01*
X37602D01*
X37702Y33020D01*
Y32820D01*
X37602Y32720D01*
X37303D01*
X37902Y32520D02*
X38102D01*
X38002D01*
Y33119D01*
X37902Y33020D01*
X39560Y34016D02*
Y33617D01*
X39760Y33417D01*
X39960Y33617D01*
Y34016D01*
X40160D02*
X40560D01*
X40360D01*
Y33417D01*
X40760D02*
X40960D01*
X40860D01*
Y34016D01*
X40760Y33916D01*
X40600Y28573D02*
X40001D01*
Y28873D01*
X40101Y28973D01*
X40300D01*
X40400Y28873D01*
Y28573D01*
Y28773D02*
X40600Y28973D01*
Y29173D02*
Y29373D01*
Y29273D01*
X40001D01*
X40101Y29173D01*
Y29672D02*
X40001Y29772D01*
Y29972D01*
X40101Y30072D01*
X40500D01*
X40600Y29972D01*
Y29772D01*
X40500Y29672D01*
X40101D01*
X38496Y28943D02*
X38396Y28843D01*
Y28643D01*
X38496Y28543D01*
X38896D01*
X38996Y28643D01*
Y28843D01*
X38896Y28943D01*
X38996Y29143D02*
Y29343D01*
Y29243D01*
X38396D01*
X38496Y29143D01*
Y29643D02*
X38396Y29743D01*
Y29943D01*
X38496Y30043D01*
X38896D01*
X38996Y29943D01*
Y29743D01*
X38896Y29643D01*
X38496D01*
X51387Y22904D02*
X50987D01*
X50787Y22704D01*
X50987Y22504D01*
X51387D01*
Y22304D02*
Y21904D01*
Y22104D01*
X50787D01*
X51287Y21704D02*
X51387Y21604D01*
Y21404D01*
X51287Y21304D01*
X51187D01*
X51087Y21404D01*
Y21504D01*
Y21404D01*
X50987Y21304D01*
X50887D01*
X50787Y21404D01*
Y21604D01*
X50887Y21704D01*
X51732Y24281D02*
Y24881D01*
X52032D01*
X52132Y24781D01*
Y24581D01*
X52032Y24481D01*
X51732D01*
X51932D02*
X52132Y24281D01*
X52732D02*
X52332D01*
X52732Y24681D01*
Y24781D01*
X52632Y24881D01*
X52432D01*
X52332Y24781D01*
X52932Y24381D02*
X53032Y24281D01*
X53232D01*
X53332Y24381D01*
Y24781D01*
X53232Y24881D01*
X53032D01*
X52932Y24781D01*
Y24681D01*
X53032Y24581D01*
X53332D01*
X51732Y25049D02*
Y25649D01*
X52032D01*
X52132Y25549D01*
Y25349D01*
X52032Y25249D01*
X51732D01*
X51932D02*
X52132Y25049D01*
X52732D02*
X52332D01*
X52732Y25449D01*
Y25549D01*
X52632Y25649D01*
X52432D01*
X52332Y25549D01*
X52932Y25649D02*
X53332D01*
Y25549D01*
X52932Y25149D01*
Y25049D01*
X36289Y45373D02*
X36689D01*
X36489D01*
Y44774D01*
X36889D02*
Y45373D01*
X37189D01*
X37289Y45273D01*
Y45074D01*
X37189Y44974D01*
X36889D01*
X37889Y45373D02*
X37489D01*
Y45074D01*
X37689Y45173D01*
X37789D01*
X37889Y45074D01*
Y44874D01*
X37789Y44774D01*
X37589D01*
X37489Y44874D01*
X36289Y44458D02*
X36689D01*
X36489D01*
Y43858D01*
X36889D02*
Y44458D01*
X37189D01*
X37289Y44358D01*
Y44158D01*
X37189Y44058D01*
X36889D01*
X37789Y43858D02*
Y44458D01*
X37489Y44158D01*
X37889D01*
X72343Y19911D02*
X72943Y20311D01*
X72343D02*
X72943Y19911D01*
Y20511D02*
Y20711D01*
Y20611D01*
X72343D01*
X72443Y20511D01*
X72943Y21011D02*
Y21211D01*
Y21111D01*
X72343D01*
X72443Y21011D01*
X52116Y26682D02*
X52516Y26083D01*
Y26682D02*
X52116Y26083D01*
X52716D02*
X52916D01*
X52816D01*
Y26682D01*
X52716Y26583D01*
X53216D02*
X53316Y26682D01*
X53516D01*
X53616Y26583D01*
Y26183D01*
X53516Y26083D01*
X53316D01*
X53216Y26183D01*
Y26583D01*
X50079Y34547D02*
Y33947D01*
X50379D01*
X50479Y34047D01*
Y34447D01*
X50379Y34547D01*
X50079D01*
X50978Y33947D02*
Y34547D01*
X50679Y34247D01*
X51078D01*
X21279Y53917D02*
X20679Y53517D01*
X21279D02*
X20679Y53917D01*
X20779Y53318D02*
X20679Y53218D01*
Y53018D01*
X20779Y52918D01*
X21179D01*
X21279Y53018D01*
Y53218D01*
X21179Y53318D01*
X21079D01*
X20979Y53218D01*
Y52918D01*
X82175Y22470D02*
X81575D01*
Y22770D01*
X81675Y22870D01*
X81875D01*
X81975Y22770D01*
Y22470D01*
Y22670D02*
X82175Y22870D01*
Y23370D02*
X81575D01*
X81875Y23070D01*
Y23470D01*
X82175Y23670D02*
Y23870D01*
Y23770D01*
X81575D01*
X81675Y23670D01*
X82650Y22870D02*
X82550Y22770D01*
Y22570D01*
X82650Y22470D01*
X83050D01*
X83150Y22570D01*
Y22770D01*
X83050Y22870D01*
X82550Y23470D02*
Y23070D01*
X82850D01*
X82750Y23270D01*
Y23370D01*
X82850Y23470D01*
X83050D01*
X83150Y23370D01*
Y23170D01*
X83050Y23070D01*
X82550Y24070D02*
Y23670D01*
X82850D01*
X82750Y23870D01*
Y23970D01*
X82850Y24070D01*
X83050D01*
X83150Y23970D01*
Y23770D01*
X83050Y23670D01*
X70571Y23740D02*
Y24140D01*
Y23940D01*
X71171D01*
Y24340D02*
X70571D01*
Y24640D01*
X70671Y24740D01*
X70871D01*
X70971Y24640D01*
Y24340D01*
X71071Y24940D02*
X71171Y25040D01*
Y25240D01*
X71071Y25340D01*
X70671D01*
X70571Y25240D01*
Y25040D01*
X70671Y24940D01*
X70771D01*
X70871Y25040D01*
Y25340D01*
X72008Y47352D02*
Y46752D01*
X72408D01*
X72608Y47252D02*
X72708Y47352D01*
X72908D01*
X73008Y47252D01*
Y47152D01*
X72908Y47052D01*
X72808D01*
X72908D01*
X73008Y46952D01*
Y46852D01*
X72908Y46752D01*
X72708D01*
X72608Y46852D01*
X56457Y25600D02*
Y25200D01*
X56657Y25000D01*
X56857Y25200D01*
Y25600D01*
X57056D02*
Y25000D01*
X57356D01*
X57456Y25100D01*
Y25500D01*
X57356Y25600D01*
X57056D01*
X58056D02*
X57856Y25500D01*
X57656Y25300D01*
Y25100D01*
X57756Y25000D01*
X57956D01*
X58056Y25100D01*
Y25200D01*
X57956Y25300D01*
X57656D01*
X61152Y45777D02*
X61551D01*
X61352D01*
Y45177D01*
X61751D02*
Y45777D01*
X62051D01*
X62151Y45677D01*
Y45477D01*
X62051Y45377D01*
X61751D01*
X62351Y45677D02*
X62451Y45777D01*
X62651D01*
X62751Y45677D01*
Y45577D01*
X62651Y45477D01*
X62551D01*
X62651D01*
X62751Y45377D01*
Y45277D01*
X62651Y45177D01*
X62451D01*
X62351Y45277D01*
X57569Y34468D02*
X57969Y33868D01*
Y34468D02*
X57569Y33868D01*
X58169D02*
X58369D01*
X58269D01*
Y34468D01*
X58169Y34368D01*
X58669D02*
X58769Y34468D01*
X58968D01*
X59068Y34368D01*
Y34268D01*
X58968Y34168D01*
X58868D01*
X58968D01*
X59068Y34068D01*
Y33968D01*
X58968Y33868D01*
X58769D01*
X58669Y33968D01*
X41742Y33041D02*
X42142D01*
X41942D01*
Y32441D01*
X42342D02*
Y33041D01*
X42642D01*
X42742Y32941D01*
Y32741D01*
X42642Y32641D01*
X42342D01*
X42942Y32441D02*
X43142D01*
X43042D01*
Y33041D01*
X42942Y32941D01*
X43741Y32441D02*
Y33041D01*
X43442Y32741D01*
X43841D01*
X35659Y29616D02*
X36059D01*
X35859D01*
Y29016D01*
X36259D02*
Y29616D01*
X36559D01*
X36659Y29516D01*
Y29316D01*
X36559Y29216D01*
X36259D01*
X36859Y29016D02*
X37059D01*
X36959D01*
Y29616D01*
X36859Y29516D01*
X37359D02*
X37459Y29616D01*
X37659D01*
X37759Y29516D01*
Y29416D01*
X37659Y29316D01*
X37559D01*
X37659D01*
X37759Y29216D01*
Y29116D01*
X37659Y29016D01*
X37459D01*
X37359Y29116D01*
X47657Y39557D02*
X48057D01*
X47857D01*
Y38957D01*
X48257D02*
Y39557D01*
X48557D01*
X48657Y39457D01*
Y39257D01*
X48557Y39157D01*
X48257D01*
X48857Y38957D02*
X49057D01*
X48957D01*
Y39557D01*
X48857Y39457D01*
X49757Y38957D02*
X49357D01*
X49757Y39357D01*
Y39457D01*
X49657Y39557D01*
X49457D01*
X49357Y39457D01*
X50846Y45157D02*
X51246D01*
X51046D01*
Y44557D01*
X51446D02*
Y45157D01*
X51746D01*
X51846Y45057D01*
Y44857D01*
X51746Y44757D01*
X51446D01*
X52046Y44557D02*
X52246D01*
X52146D01*
Y45157D01*
X52046Y45057D01*
X52546Y44557D02*
X52746D01*
X52646D01*
Y45157D01*
X52546Y45057D01*
X58858Y48602D02*
X59258D01*
X59058D01*
Y48002D01*
X59458D02*
Y48602D01*
X59758D01*
X59858Y48502D01*
Y48302D01*
X59758Y48202D01*
X59458D01*
X60058Y48502D02*
X60158Y48602D01*
X60358D01*
X60458Y48502D01*
Y48402D01*
X60358Y48302D01*
X60458Y48202D01*
Y48102D01*
X60358Y48002D01*
X60158D01*
X60058Y48102D01*
Y48202D01*
X60158Y48302D01*
X60058Y48402D01*
Y48502D01*
X60158Y48302D02*
X60358D01*
X80424Y52657D02*
X81024Y53057D01*
X80424D02*
X81024Y52657D01*
Y53257D02*
Y53457D01*
Y53357D01*
X80424D01*
X80524Y53257D01*
X81024Y54057D02*
X80424D01*
X80724Y53757D01*
Y54157D01*
X34971Y48908D02*
X34830Y48201D01*
X35254Y48626D02*
X34547Y48484D01*
X35325Y48414D02*
X35466D01*
X35608Y48272D01*
Y48131D01*
X35537Y48060D01*
X35396D01*
Y47919D01*
X35325Y47848D01*
X35183D01*
X35042Y47989D01*
Y48131D01*
X35113Y48201D01*
X35254D01*
Y48343D01*
X35325Y48414D01*
X35254Y48201D02*
X35396Y48060D01*
X75266Y52746D02*
X75866Y53146D01*
X75266D02*
X75866Y52746D01*
X75266Y53346D02*
Y53746D01*
X75366D01*
X75766Y53346D01*
X75866D01*
X62657Y26436D02*
X63057Y25837D01*
Y26436D02*
X62657Y25837D01*
X63657Y26436D02*
X63457Y26336D01*
X63257Y26137D01*
Y25937D01*
X63357Y25837D01*
X63557D01*
X63657Y25937D01*
Y26037D01*
X63557Y26137D01*
X63257D01*
X44449Y26633D02*
X44849Y26033D01*
Y26633D02*
X44449Y26033D01*
X45448Y26633D02*
X45049D01*
Y26333D01*
X45249Y26433D01*
X45349D01*
X45448Y26333D01*
Y26133D01*
X45349Y26033D01*
X45149D01*
X45049Y26133D01*
X48218Y24990D02*
X48618Y24390D01*
Y24990D02*
X48218Y24390D01*
X49118D02*
Y24990D01*
X48818Y24690D01*
X49218D01*
X31437Y23749D02*
X31837Y23150D01*
Y23749D02*
X31437Y23150D01*
X32437D02*
X32037D01*
X32437Y23549D01*
Y23649D01*
X32337Y23749D01*
X32137D01*
X32037Y23649D01*
X23238Y24999D02*
X23638Y24400D01*
Y24999D02*
X23238Y24400D01*
X23838D02*
X24038D01*
X23938D01*
Y24999D01*
X23838Y24899D01*
X22007Y31900D02*
X21407Y31500D01*
X22007D02*
X21407Y31900D01*
X21907Y31300D02*
X22007Y31200D01*
Y31000D01*
X21907Y30900D01*
X21807D01*
X21707Y31000D01*
Y31100D01*
Y31000D01*
X21607Y30900D01*
X21507D01*
X21407Y31000D01*
Y31200D01*
X21507Y31300D01*
X55659Y36654D02*
X55259D01*
X55059Y36454D01*
X55259Y36254D01*
X55659D01*
Y36054D02*
Y35654D01*
Y35854D01*
X55059D01*
X55659Y35454D02*
Y35054D01*
X55559D01*
X55159Y35454D01*
X55059D01*
X52894Y37805D02*
Y37405D01*
X53094Y37205D01*
X53294Y37405D01*
Y37805D01*
X53494D02*
X53893D01*
X53693D01*
Y37205D01*
X54493Y37805D02*
X54293Y37705D01*
X54093Y37505D01*
Y37305D01*
X54193Y37205D01*
X54393D01*
X54493Y37305D01*
Y37405D01*
X54393Y37505D01*
X54093D01*
X54705Y40905D02*
Y40505D01*
X54905Y40305D01*
X55105Y40505D01*
Y40905D01*
X55305D02*
X55704D01*
X55504D01*
Y40305D01*
X56304Y40905D02*
X55904D01*
Y40605D01*
X56104Y40705D01*
X56204D01*
X56304Y40605D01*
Y40405D01*
X56204Y40305D01*
X56004D01*
X55904Y40405D01*
X78494Y26289D02*
Y25889D01*
X78694Y25689D01*
X78894Y25889D01*
Y26289D01*
X79094D02*
X79494D01*
X79294D01*
Y25689D01*
X79994D02*
Y26289D01*
X79694Y25989D01*
X80094D01*
X55570Y22913D02*
X55170D01*
X54970Y22713D01*
X55170Y22514D01*
X55570D01*
Y22314D02*
Y21914D01*
Y22114D01*
X54970D01*
Y21314D02*
Y21714D01*
X55370Y21314D01*
X55470D01*
X55570Y21414D01*
Y21614D01*
X55470Y21714D01*
X80236Y41692D02*
Y41292D01*
X80436Y41093D01*
X80636Y41292D01*
Y41692D01*
X80836D02*
Y41093D01*
X81136D01*
X81236Y41192D01*
Y41592D01*
X81136Y41692D01*
X80836D01*
X81436Y41093D02*
X81636D01*
X81536D01*
Y41692D01*
X81436Y41592D01*
X82336Y41692D02*
X81936D01*
Y41392D01*
X82136Y41492D01*
X82236D01*
X82336Y41392D01*
Y41192D01*
X82236Y41093D01*
X82036D01*
X81936Y41192D01*
X68800Y36506D02*
X69200D01*
X69400Y36706D01*
X69200Y36906D01*
X68800D01*
Y37106D02*
X69400D01*
Y37406D01*
X69300Y37506D01*
X68900D01*
X68800Y37406D01*
Y37106D01*
X69400Y37706D02*
Y37905D01*
Y37805D01*
X68800D01*
X68900Y37706D01*
X69400Y38505D02*
X68800D01*
X69100Y38205D01*
Y38605D01*
X87855Y47913D02*
X88255D01*
X88455Y48113D01*
X88255Y48313D01*
X87855D01*
Y48513D02*
X88455D01*
Y48813D01*
X88355Y48913D01*
X87955D01*
X87855Y48813D01*
Y48513D01*
X88455Y49113D02*
Y49313D01*
Y49213D01*
X87855D01*
X87955Y49113D01*
X88455Y50013D02*
Y49613D01*
X88055Y50013D01*
X87955D01*
X87855Y49913D01*
Y49713D01*
X87955Y49613D01*
X87855Y45374D02*
X88255D01*
X88455Y45574D01*
X88255Y45774D01*
X87855D01*
Y45974D02*
X88455D01*
Y46274D01*
X88355Y46374D01*
X87955D01*
X87855Y46274D01*
Y45974D01*
X88455Y46574D02*
Y46774D01*
Y46674D01*
X87855D01*
X87955Y46574D01*
X88455Y47073D02*
Y47273D01*
Y47173D01*
X87855D01*
X87955Y47073D01*
X80669Y34783D02*
Y34383D01*
X80869Y34183D01*
X81069Y34383D01*
Y34783D01*
X81269D02*
Y34183D01*
X81569D01*
X81669Y34283D01*
Y34683D01*
X81569Y34783D01*
X81269D01*
X81869Y34183D02*
X82069D01*
X81969D01*
Y34783D01*
X81869Y34683D01*
X82369D02*
X82469Y34783D01*
X82669D01*
X82769Y34683D01*
Y34283D01*
X82669Y34183D01*
X82469D01*
X82369Y34283D01*
Y34683D01*
X31792Y48652D02*
X31509Y48370D01*
Y48087D01*
X31792Y48087D01*
X32075Y48370D01*
X32216Y48228D02*
X31792Y47804D01*
X32004Y47592D01*
X32146D01*
X32428Y47875D01*
Y48016D01*
X32216Y48228D01*
X32287Y47451D02*
Y47309D01*
X32428Y47168D01*
X32570D01*
X32853Y47451D01*
Y47592D01*
X32711Y47734D01*
X32570D01*
X32499Y47663D01*
Y47521D01*
X32711Y47309D01*
X45482Y42421D02*
X45082D01*
X44882Y42221D01*
X45082Y42021D01*
X45482D01*
Y41821D02*
X44882D01*
Y41522D01*
X44982Y41422D01*
X45382D01*
X45482Y41522D01*
Y41821D01*
Y41222D02*
Y40822D01*
X45382D01*
X44982Y41222D01*
X44882D01*
X30925Y30137D02*
Y29737D01*
X31125Y29537D01*
X31325Y29737D01*
Y30137D01*
X31525D02*
Y29537D01*
X31825D01*
X31925Y29637D01*
Y30037D01*
X31825Y30137D01*
X31525D01*
X32525D02*
X32125D01*
Y29837D01*
X32325Y29937D01*
X32425D01*
X32525Y29837D01*
Y29637D01*
X32425Y29537D01*
X32225D01*
X32125Y29637D01*
X24370Y34537D02*
Y34137D01*
X24570Y33937D01*
X24770Y34137D01*
Y34537D01*
X24970D02*
Y33937D01*
X25270D01*
X25370Y34037D01*
Y34437D01*
X25270Y34537D01*
X24970D01*
X25970Y33937D02*
X25570D01*
X25970Y34337D01*
Y34437D01*
X25870Y34537D01*
X25670D01*
X25570Y34437D01*
X25787Y30698D02*
Y30298D01*
X25987Y30098D01*
X26187Y30298D01*
Y30698D01*
X26387D02*
Y30098D01*
X26687D01*
X26787Y30198D01*
Y30598D01*
X26687Y30698D01*
X26387D01*
X26987Y30098D02*
X27187D01*
X27087D01*
Y30698D01*
X26987Y30598D01*
X52264Y29015D02*
Y28415D01*
X52564D01*
X52664Y28515D01*
Y28915D01*
X52564Y29015D01*
X52264D01*
X52864Y28915D02*
X52964Y29015D01*
X53163D01*
X53263Y28915D01*
Y28815D01*
X53163Y28715D01*
X53064D01*
X53163D01*
X53263Y28615D01*
Y28515D01*
X53163Y28415D01*
X52964D01*
X52864Y28515D01*
X46752Y37568D02*
X47152D01*
X46952D01*
Y36969D01*
X47352D02*
Y37568D01*
X47652D01*
X47752Y37468D01*
Y37268D01*
X47652Y37168D01*
X47352D01*
X47952Y36969D02*
X48152D01*
X48052D01*
Y37568D01*
X47952Y37468D01*
X48851Y37568D02*
X48451D01*
Y37268D01*
X48651Y37368D01*
X48751D01*
X48851Y37268D01*
Y37068D01*
X48751Y36969D01*
X48551D01*
X48451Y37068D01*
X66231Y43356D02*
Y43756D01*
Y43556D01*
X66831D01*
Y43956D02*
X66231D01*
Y44256D01*
X66331Y44356D01*
X66531D01*
X66631Y44256D01*
Y43956D01*
X66831Y44556D02*
Y44756D01*
Y44656D01*
X66231D01*
X66331Y44556D01*
Y45056D02*
X66231Y45156D01*
Y45356D01*
X66331Y45456D01*
X66731D01*
X66831Y45356D01*
Y45156D01*
X66731Y45056D01*
X66331D01*
X28110Y49202D02*
X28510D01*
X28310D01*
Y48602D01*
X28710D02*
Y49202D01*
X29010D01*
X29110Y49102D01*
Y48902D01*
X29010Y48802D01*
X28710D01*
X29710Y48602D02*
X29310D01*
X29710Y49002D01*
Y49102D01*
X29610Y49202D01*
X29410D01*
X29310Y49102D01*
X68689Y24551D02*
X68789Y24651D01*
Y24851D01*
X68689Y24951D01*
X68589D01*
X68489Y24851D01*
Y24651D01*
X68389Y24551D01*
X68289D01*
X68189Y24651D01*
Y24851D01*
X68289Y24951D01*
X68189Y24051D02*
X68789D01*
X68489Y24351D01*
Y23951D01*
X57496Y21848D02*
X57396Y21948D01*
X57196D01*
X57096Y21848D01*
Y21748D01*
X57196Y21648D01*
X57396D01*
X57496Y21548D01*
Y21448D01*
X57396Y21348D01*
X57196D01*
X57096Y21448D01*
X57696Y21848D02*
X57796Y21948D01*
X57996D01*
X58096Y21848D01*
Y21748D01*
X57996Y21648D01*
X57896D01*
X57996D01*
X58096Y21548D01*
Y21448D01*
X57996Y21348D01*
X57796D01*
X57696Y21448D01*
X64042Y21888D02*
X63942Y21988D01*
X63742D01*
X63642Y21888D01*
Y21788D01*
X63742Y21688D01*
X63942D01*
X64042Y21588D01*
Y21488D01*
X63942Y21388D01*
X63742D01*
X63642Y21488D01*
X64641Y21388D02*
X64242D01*
X64641Y21788D01*
Y21888D01*
X64541Y21988D01*
X64342D01*
X64242Y21888D01*
X70646Y21868D02*
X70546Y21968D01*
X70346D01*
X70246Y21868D01*
Y21768D01*
X70346Y21668D01*
X70546D01*
X70646Y21568D01*
Y21468D01*
X70546Y21368D01*
X70346D01*
X70246Y21468D01*
X70846Y21368D02*
X71046D01*
X70946D01*
Y21968D01*
X70846Y21868D01*
X57913Y48130D02*
X58513D01*
Y47830D01*
X58413Y47730D01*
X58213D01*
X58113Y47830D01*
Y48130D01*
Y47930D02*
X57913Y47730D01*
X58513Y47130D02*
Y47530D01*
X58213D01*
X58313Y47330D01*
Y47230D01*
X58213Y47130D01*
X58013D01*
X57913Y47230D01*
Y47430D01*
X58013Y47530D01*
X58413Y46930D02*
X58513Y46830D01*
Y46630D01*
X58413Y46530D01*
X58313D01*
X58213Y46630D01*
X58113Y46530D01*
X58013D01*
X57913Y46630D01*
Y46830D01*
X58013Y46930D01*
X58113D01*
X58213Y46830D01*
X58313Y46930D01*
X58413D01*
X58213Y46830D02*
Y46630D01*
X57057Y48140D02*
X57657D01*
Y47840D01*
X57557Y47740D01*
X57357D01*
X57257Y47840D01*
Y48140D01*
Y47940D02*
X57057Y47740D01*
X57657Y47140D02*
Y47540D01*
X57357D01*
X57457Y47340D01*
Y47240D01*
X57357Y47140D01*
X57157D01*
X57057Y47240D01*
Y47440D01*
X57157Y47540D01*
X57657Y46940D02*
Y46540D01*
X57557D01*
X57157Y46940D01*
X57057D01*
X51732Y37805D02*
X51132D01*
Y38105D01*
X51232Y38205D01*
X51432D01*
X51532Y38105D01*
Y37805D01*
Y38005D02*
X51732Y38205D01*
X51132Y38805D02*
Y38405D01*
X51432D01*
X51332Y38605D01*
Y38705D01*
X51432Y38805D01*
X51632D01*
X51732Y38705D01*
Y38505D01*
X51632Y38405D01*
X51132Y39405D02*
Y39005D01*
X51432D01*
X51332Y39205D01*
Y39305D01*
X51432Y39405D01*
X51632D01*
X51732Y39305D01*
Y39105D01*
X51632Y39005D01*
X57815Y35000D02*
Y35600D01*
X58115D01*
X58215Y35500D01*
Y35300D01*
X58115Y35200D01*
X57815D01*
X58015D02*
X58215Y35000D01*
X58815Y35600D02*
X58415D01*
Y35300D01*
X58615Y35400D01*
X58715D01*
X58815Y35300D01*
Y35100D01*
X58715Y35000D01*
X58515D01*
X58415Y35100D01*
X59414Y35600D02*
X59215Y35500D01*
X59015Y35300D01*
Y35100D01*
X59115Y35000D01*
X59314D01*
X59414Y35100D01*
Y35200D01*
X59314Y35300D01*
X59015D01*
X56191Y37461D02*
X56791D01*
Y37161D01*
X56691Y37061D01*
X56491D01*
X56391Y37161D01*
Y37461D01*
Y37261D02*
X56191Y37061D01*
X56791Y36461D02*
Y36861D01*
X56491D01*
X56591Y36661D01*
Y36561D01*
X56491Y36461D01*
X56291D01*
X56191Y36561D01*
Y36761D01*
X56291Y36861D01*
X56191Y35961D02*
X56791D01*
X56491Y36261D01*
Y35861D01*
X60443Y38209D02*
X61043D01*
Y37909D01*
X60943Y37809D01*
X60743D01*
X60643Y37909D01*
Y38209D01*
Y38009D02*
X60443Y37809D01*
X61043Y37209D02*
Y37609D01*
X60743D01*
X60843Y37409D01*
Y37309D01*
X60743Y37209D01*
X60543D01*
X60443Y37309D01*
Y37509D01*
X60543Y37609D01*
X60943Y37009D02*
X61043Y36909D01*
Y36709D01*
X60943Y36609D01*
X60843D01*
X60743Y36709D01*
Y36809D01*
Y36709D01*
X60643Y36609D01*
X60543D01*
X60443Y36709D01*
Y36909D01*
X60543Y37009D01*
X57264Y46201D02*
X57864D01*
Y45901D01*
X57764Y45801D01*
X57564D01*
X57464Y45901D01*
Y46201D01*
Y46001D02*
X57264Y45801D01*
X57864Y45201D02*
Y45601D01*
X57564D01*
X57664Y45401D01*
Y45301D01*
X57564Y45201D01*
X57364D01*
X57264Y45301D01*
Y45501D01*
X57364Y45601D01*
X57264Y44601D02*
Y45001D01*
X57664Y44601D01*
X57764D01*
X57864Y44701D01*
Y44901D01*
X57764Y45001D01*
X59813Y46171D02*
X60413D01*
Y45871D01*
X60313Y45771D01*
X60113D01*
X60013Y45871D01*
Y46171D01*
Y45971D02*
X59813Y45771D01*
X60413Y45172D02*
Y45571D01*
X60113D01*
X60213Y45372D01*
Y45272D01*
X60113Y45172D01*
X59913D01*
X59813Y45272D01*
Y45471D01*
X59913Y45571D01*
X59813Y44972D02*
Y44772D01*
Y44872D01*
X60413D01*
X60313Y44972D01*
X58100Y46181D02*
X58700D01*
Y45881D01*
X58600Y45781D01*
X58400D01*
X58300Y45881D01*
Y46181D01*
Y45981D02*
X58100Y45781D01*
X58700Y45181D02*
Y45581D01*
X58400D01*
X58500Y45381D01*
Y45281D01*
X58400Y45181D01*
X58200D01*
X58100Y45281D01*
Y45481D01*
X58200Y45581D01*
X58600Y44981D02*
X58700Y44882D01*
Y44682D01*
X58600Y44582D01*
X58200D01*
X58100Y44682D01*
Y44882D01*
X58200Y44981D01*
X58600D01*
X78041Y36909D02*
X77442D01*
Y37209D01*
X77541Y37309D01*
X77741D01*
X77841Y37209D01*
Y36909D01*
Y37109D02*
X78041Y37309D01*
Y37809D02*
X77442D01*
X77741Y37509D01*
Y37909D01*
X77941Y38109D02*
X78041Y38209D01*
Y38409D01*
X77941Y38509D01*
X77541D01*
X77442Y38409D01*
Y38209D01*
X77541Y38109D01*
X77641D01*
X77741Y38209D01*
Y38509D01*
X76299Y36909D02*
X75699D01*
Y37209D01*
X75799Y37309D01*
X75999D01*
X76099Y37209D01*
Y36909D01*
Y37109D02*
X76299Y37309D01*
Y37809D02*
X75699D01*
X75999Y37509D01*
Y37909D01*
X75799Y38109D02*
X75699Y38209D01*
Y38409D01*
X75799Y38509D01*
X75899D01*
X75999Y38409D01*
X76099Y38509D01*
X76199D01*
X76299Y38409D01*
Y38209D01*
X76199Y38109D01*
X76099D01*
X75999Y38209D01*
X75899Y38109D01*
X75799D01*
X75999Y38209D02*
Y38409D01*
X69183Y25640D02*
Y26240D01*
X69483D01*
X69583Y26140D01*
Y25940D01*
X69483Y25840D01*
X69183D01*
X69383D02*
X69583Y25640D01*
X70083D02*
Y26240D01*
X69783Y25940D01*
X70183D01*
X70383Y26240D02*
X70783D01*
Y26140D01*
X70383Y25740D01*
Y25640D01*
X69173Y26427D02*
Y27027D01*
X69473D01*
X69573Y26927D01*
Y26727D01*
X69473Y26627D01*
X69173D01*
X69373D02*
X69573Y26427D01*
X70073D02*
Y27027D01*
X69773Y26727D01*
X70173D01*
X70773Y27027D02*
X70573Y26927D01*
X70373Y26727D01*
Y26527D01*
X70473Y26427D01*
X70673D01*
X70773Y26527D01*
Y26627D01*
X70673Y26727D01*
X70373D01*
X59754Y44075D02*
X60354D01*
Y43775D01*
X60254Y43675D01*
X60054D01*
X59954Y43775D01*
Y44075D01*
Y43875D02*
X59754Y43675D01*
Y43175D02*
X60354D01*
X60054Y43475D01*
Y43075D01*
X60354Y42475D02*
Y42875D01*
X60054D01*
X60154Y42675D01*
Y42575D01*
X60054Y42475D01*
X59854D01*
X59754Y42575D01*
Y42775D01*
X59854Y42875D01*
X76161Y42972D02*
X75562D01*
Y43272D01*
X75662Y43372D01*
X75862D01*
X75961Y43272D01*
Y42972D01*
Y43172D02*
X76161Y43372D01*
Y43872D02*
X75562D01*
X75862Y43572D01*
Y43972D01*
X76161Y44472D02*
X75562D01*
X75862Y44172D01*
Y44572D01*
X63612Y43917D02*
X64212D01*
Y43617D01*
X64112Y43517D01*
X63912D01*
X63812Y43617D01*
Y43917D01*
Y43717D02*
X63612Y43517D01*
Y43018D02*
X64212D01*
X63912Y43318D01*
Y42918D01*
X64112Y42718D02*
X64212Y42618D01*
Y42418D01*
X64112Y42318D01*
X64012D01*
X63912Y42418D01*
Y42518D01*
Y42418D01*
X63812Y42318D01*
X63712D01*
X63612Y42418D01*
Y42618D01*
X63712Y42718D01*
X65207Y40778D02*
X65806D01*
Y40478D01*
X65707Y40378D01*
X65507D01*
X65407Y40478D01*
Y40778D01*
Y40578D02*
X65207Y40378D01*
Y39878D02*
X65806D01*
X65507Y40178D01*
Y39778D01*
X65207Y39178D02*
Y39578D01*
X65607Y39178D01*
X65707D01*
X65806Y39278D01*
Y39478D01*
X65707Y39578D01*
X54449Y34281D02*
Y34881D01*
X54749D01*
X54849Y34781D01*
Y34581D01*
X54749Y34481D01*
X54449D01*
X54649D02*
X54849Y34281D01*
X55049Y34781D02*
X55149Y34881D01*
X55349D01*
X55448Y34781D01*
Y34681D01*
X55349Y34581D01*
X55249D01*
X55349D01*
X55448Y34481D01*
Y34381D01*
X55349Y34281D01*
X55149D01*
X55049Y34381D01*
X55648Y34781D02*
X55748Y34881D01*
X55948D01*
X56048Y34781D01*
Y34681D01*
X55948Y34581D01*
X56048Y34481D01*
Y34381D01*
X55948Y34281D01*
X55748D01*
X55648Y34381D01*
Y34481D01*
X55748Y34581D01*
X55648Y34681D01*
Y34781D01*
X55748Y34581D02*
X55948D01*
X20768Y47047D02*
Y47647D01*
X21068D01*
X21168Y47547D01*
Y47347D01*
X21068Y47247D01*
X20768D01*
X20968D02*
X21168Y47047D01*
X21368Y47547D02*
X21467Y47647D01*
X21667D01*
X21767Y47547D01*
Y47447D01*
X21667Y47347D01*
X21567D01*
X21667D01*
X21767Y47247D01*
Y47147D01*
X21667Y47047D01*
X21467D01*
X21368Y47147D01*
X22367Y47647D02*
X22167Y47547D01*
X21967Y47347D01*
Y47147D01*
X22067Y47047D01*
X22267D01*
X22367Y47147D01*
Y47247D01*
X22267Y47347D01*
X21967D01*
X37982Y47165D02*
X38582D01*
Y46865D01*
X38482Y46765D01*
X38282D01*
X38182Y46865D01*
Y47165D01*
Y46965D02*
X37982Y46765D01*
X38482Y46566D02*
X38582Y46466D01*
Y46266D01*
X38482Y46166D01*
X38382D01*
X38282Y46266D01*
Y46366D01*
Y46266D01*
X38182Y46166D01*
X38082D01*
X37982Y46266D01*
Y46466D01*
X38082Y46566D01*
X38582Y45566D02*
Y45966D01*
X38282D01*
X38382Y45766D01*
Y45666D01*
X38282Y45566D01*
X38082D01*
X37982Y45666D01*
Y45866D01*
X38082Y45966D01*
X54360Y28671D02*
X54960D01*
Y28371D01*
X54860Y28271D01*
X54660D01*
X54560Y28371D01*
Y28671D01*
Y28471D02*
X54360Y28271D01*
X54860Y28071D02*
X54960Y27971D01*
Y27772D01*
X54860Y27672D01*
X54760D01*
X54660Y27772D01*
Y27872D01*
Y27772D01*
X54560Y27672D01*
X54460D01*
X54360Y27772D01*
Y27971D01*
X54460Y28071D01*
X54860Y27472D02*
X54960Y27372D01*
Y27172D01*
X54860Y27072D01*
X54460D01*
X54360Y27172D01*
Y27372D01*
X54460Y27472D01*
X54860D01*
X53661Y24272D02*
Y24871D01*
X53961D01*
X54061Y24771D01*
Y24572D01*
X53961Y24472D01*
X53661D01*
X53861D02*
X54061Y24272D01*
X54661D02*
X54261D01*
X54661Y24672D01*
Y24771D01*
X54561Y24871D01*
X54361D01*
X54261Y24771D01*
X54861D02*
X54961Y24871D01*
X55161D01*
X55261Y24771D01*
Y24372D01*
X55161Y24272D01*
X54961D01*
X54861Y24372D01*
Y24771D01*
X33317Y45699D02*
X33741Y46123D01*
X33953Y45911D01*
Y45770D01*
X33812Y45628D01*
X33670D01*
X33458Y45840D01*
X33600Y45699D02*
Y45416D01*
X34024Y44992D02*
X33741Y45275D01*
X34307D01*
X34377Y45345D01*
Y45487D01*
X34236Y45628D01*
X34095D01*
X34872Y44992D02*
X34660Y45063D01*
X34377D01*
X34236Y44921D01*
Y44780D01*
X34377Y44639D01*
X34519D01*
X34589Y44709D01*
Y44851D01*
X34377Y45063D01*
X45758Y40876D02*
Y41476D01*
X46058D01*
X46158Y41376D01*
Y41176D01*
X46058Y41076D01*
X45758D01*
X45958D02*
X46158Y40876D01*
X46758D02*
X46358D01*
X46758Y41276D01*
Y41376D01*
X46658Y41476D01*
X46458D01*
X46358Y41376D01*
X47357Y41476D02*
X46957D01*
Y41176D01*
X47157Y41276D01*
X47257D01*
X47357Y41176D01*
Y40976D01*
X47257Y40876D01*
X47057D01*
X46957Y40976D01*
X45807Y40010D02*
Y40610D01*
X46107D01*
X46207Y40510D01*
Y40310D01*
X46107Y40210D01*
X45807D01*
X46007D02*
X46207Y40010D01*
X46807D02*
X46407D01*
X46807Y40410D01*
Y40510D01*
X46707Y40610D01*
X46507D01*
X46407Y40510D01*
X47307Y40010D02*
Y40610D01*
X47007Y40310D01*
X47407D01*
X23720Y35846D02*
X24145Y36271D01*
X24357Y36059D01*
Y35917D01*
X24215Y35776D01*
X24074D01*
X23862Y35988D01*
X24003Y35846D02*
Y35564D01*
X24427Y35140D02*
X24145Y35422D01*
X24710D01*
X24781Y35493D01*
Y35634D01*
X24639Y35776D01*
X24498D01*
X24922Y35352D02*
X25064D01*
X25205Y35210D01*
Y35069D01*
X25134Y34998D01*
X24993D01*
X24922Y35069D01*
X24993Y34998D01*
Y34857D01*
X24922Y34786D01*
X24781D01*
X24639Y34928D01*
Y35069D01*
X53652Y25069D02*
Y25669D01*
X53951D01*
X54051Y25569D01*
Y25369D01*
X53951Y25269D01*
X53652D01*
X53852D02*
X54051Y25069D01*
X54251D02*
X54451D01*
X54351D01*
Y25669D01*
X54251Y25569D01*
X54751Y25169D02*
X54851Y25069D01*
X55051D01*
X55151Y25169D01*
Y25569D01*
X55051Y25669D01*
X54851D01*
X54751Y25569D01*
Y25469D01*
X54851Y25369D01*
X55151D01*
X49734Y28730D02*
Y29330D01*
X50034D01*
X50134Y29230D01*
Y29030D01*
X50034Y28930D01*
X49734D01*
X49934D02*
X50134Y28730D01*
X50734D02*
X50334D01*
X50734Y29130D01*
Y29230D01*
X50634Y29330D01*
X50434D01*
X50334Y29230D01*
X50934Y28730D02*
X51134D01*
X51034D01*
Y29330D01*
X50934Y29230D01*
X58051Y23819D02*
Y24419D01*
X58351D01*
X58451Y24319D01*
Y24119D01*
X58351Y24019D01*
X58051D01*
X58251D02*
X58451Y23819D01*
X59051Y24419D02*
X58651D01*
Y24119D01*
X58851Y24219D01*
X58951D01*
X59051Y24119D01*
Y23919D01*
X58951Y23819D01*
X58751D01*
X58651Y23919D01*
X60138Y22520D02*
Y23119D01*
X60438D01*
X60538Y23020D01*
Y22820D01*
X60438Y22720D01*
X60138D01*
X60338D02*
X60538Y22520D01*
X61038D02*
Y23119D01*
X60738Y22820D01*
X61137D01*
X55750Y23460D02*
Y24060D01*
X56050D01*
X56150Y23960D01*
Y23760D01*
X56050Y23660D01*
X55750D01*
X55950D02*
X56150Y23460D01*
X56350Y23960D02*
X56450Y24060D01*
X56650D01*
X56750Y23960D01*
Y23860D01*
X56650Y23760D01*
X56550D01*
X56650D01*
X56750Y23660D01*
Y23560D01*
X56650Y23460D01*
X56450D01*
X56350Y23560D01*
X74922Y47943D02*
X75522D01*
Y48343D01*
X75022Y48943D02*
X74922Y48843D01*
Y48643D01*
X75022Y48543D01*
X75422D01*
X75522Y48643D01*
Y48843D01*
X75422Y48943D01*
X75522Y49143D02*
Y49342D01*
Y49242D01*
X74922D01*
X75022Y49143D01*
X71880Y41555D02*
Y40955D01*
X72280D01*
X72880D02*
X72480D01*
X72880Y41355D01*
Y41455D01*
X72780Y41555D01*
X72580D01*
X72480Y41455D01*
X23169Y49763D02*
Y49163D01*
X23569D01*
X23769D02*
X23969D01*
X23869D01*
Y49763D01*
X23769Y49663D01*
X67530Y47352D02*
X67729D01*
X67629D01*
Y46752D01*
X67530D01*
X67729D01*
X68029D02*
Y47352D01*
X68429Y46752D01*
Y47352D01*
X68629D02*
Y46752D01*
X68929D01*
X69029Y46852D01*
Y47252D01*
X68929Y47352D01*
X68629D01*
X69229Y47252D02*
X69329Y47352D01*
X69529D01*
X69629Y47252D01*
Y47152D01*
X69529Y47052D01*
X69629Y46952D01*
Y46852D01*
X69529Y46752D01*
X69329D01*
X69229Y46852D01*
Y46952D01*
X69329Y47052D01*
X69229Y47152D01*
Y47252D01*
X69329Y47052D02*
X69529D01*
X62047Y46810D02*
X62247D01*
X62147D01*
Y46211D01*
X62047D01*
X62247D01*
X62547D02*
Y46810D01*
X62947Y46211D01*
Y46810D01*
X63147D02*
Y46211D01*
X63447D01*
X63547Y46311D01*
Y46710D01*
X63447Y46810D01*
X63147D01*
X63747D02*
X64147D01*
Y46710D01*
X63747Y46311D01*
Y46211D01*
X44912Y34803D02*
Y35003D01*
Y34903D01*
X45512D01*
Y34803D01*
Y35003D01*
Y35303D02*
X44912D01*
X45512Y35703D01*
X44912D01*
Y35903D02*
X45512D01*
Y36203D01*
X45412Y36303D01*
X45012D01*
X44912Y36203D01*
Y35903D01*
Y36902D02*
X45012Y36703D01*
X45212Y36503D01*
X45412D01*
X45512Y36603D01*
Y36802D01*
X45412Y36902D01*
X45312D01*
X45212Y36802D01*
Y36503D01*
X65108Y43858D02*
X64508D01*
X64808D01*
Y43458D01*
X65108D01*
X64508D01*
X65108Y43258D02*
X64508D01*
Y42859D01*
Y42359D02*
X65108D01*
X64808Y42659D01*
Y42259D01*
X66643Y40778D02*
X66043D01*
X66343D01*
Y40378D01*
X66643D01*
X66043D01*
X66643Y40178D02*
X66043D01*
Y39778D01*
X66543Y39578D02*
X66643Y39478D01*
Y39278D01*
X66543Y39178D01*
X66443D01*
X66343Y39278D01*
Y39378D01*
Y39278D01*
X66243Y39178D01*
X66143D01*
X66043Y39278D01*
Y39478D01*
X66143Y39578D01*
X65301Y39005D02*
X64902D01*
Y38705D01*
X65102D01*
X64902D01*
Y38406D01*
X65901D02*
X65501D01*
X65901Y38805D01*
Y38905D01*
X65801Y39005D01*
X65601D01*
X65501Y38905D01*
X82142Y45639D02*
X81742D01*
Y45339D01*
X81942D01*
X81742D01*
Y45039D01*
X82342D02*
X82542D01*
X82442D01*
Y45639D01*
X82342Y45539D01*
X45699Y30088D02*
Y29488D01*
X45999D01*
X46099Y29588D01*
Y29988D01*
X45999Y30088D01*
X45699D01*
X46299Y29488D02*
Y29888D01*
X46499Y30088D01*
X46698Y29888D01*
Y29488D01*
Y29788D01*
X46299D01*
X46898Y30088D02*
X47298D01*
Y29988D01*
X46898Y29588D01*
Y29488D01*
X53209Y50049D02*
Y49449D01*
X53509D01*
X53609Y49549D01*
Y49949D01*
X53509Y50049D01*
X53209D01*
X53808Y49449D02*
Y49849D01*
X54008Y50049D01*
X54208Y49849D01*
Y49449D01*
Y49749D01*
X53808D01*
X54808Y50049D02*
X54608Y49949D01*
X54408Y49749D01*
Y49549D01*
X54508Y49449D01*
X54708D01*
X54808Y49549D01*
Y49649D01*
X54708Y49749D01*
X54408D01*
X47667Y44852D02*
X47067D01*
Y44552D01*
X47167Y44452D01*
X47567D01*
X47667Y44552D01*
Y44852D01*
X47067Y44253D02*
X47467D01*
X47667Y44053D01*
X47467Y43853D01*
X47067D01*
X47367D01*
Y44253D01*
X47667Y43253D02*
Y43653D01*
X47367D01*
X47467Y43453D01*
Y43353D01*
X47367Y43253D01*
X47167D01*
X47067Y43353D01*
Y43553D01*
X47167Y43653D01*
X81260Y36033D02*
Y35433D01*
X81560D01*
X81660Y35533D01*
Y35933D01*
X81560Y36033D01*
X81260D01*
X81860Y35433D02*
Y35833D01*
X82060Y36033D01*
X82260Y35833D01*
Y35433D01*
Y35733D01*
X81860D01*
X82759Y35433D02*
Y36033D01*
X82459Y35733D01*
X82859D01*
X61073Y42854D02*
Y42254D01*
X61373D01*
X61473Y42354D01*
Y42754D01*
X61373Y42854D01*
X61073D01*
X61673Y42254D02*
Y42654D01*
X61873Y42854D01*
X62073Y42654D01*
Y42254D01*
Y42554D01*
X61673D01*
X62272Y42754D02*
X62372Y42854D01*
X62572D01*
X62672Y42754D01*
Y42654D01*
X62572Y42554D01*
X62472D01*
X62572D01*
X62672Y42454D01*
Y42354D01*
X62572Y42254D01*
X62372D01*
X62272Y42354D01*
X85542Y29793D02*
X86142D01*
Y30093D01*
X86042Y30193D01*
X85642D01*
X85542Y30093D01*
Y29793D01*
X86142Y30393D02*
X85742D01*
X85542Y30593D01*
X85742Y30793D01*
X86142D01*
X85842D01*
Y30393D01*
X86142Y31393D02*
Y30993D01*
X85742Y31393D01*
X85642D01*
X85542Y31293D01*
Y31093D01*
X85642Y30993D01*
X62313Y51486D02*
Y50886D01*
X62613D01*
X62713Y50986D01*
Y51386D01*
X62613Y51486D01*
X62313D01*
X62913Y50886D02*
Y51286D01*
X63113Y51486D01*
X63313Y51286D01*
Y50886D01*
Y51186D01*
X62913D01*
X63513Y50886D02*
X63713D01*
X63613D01*
Y51486D01*
X63513Y51386D01*
X60118Y37923D02*
X59518D01*
Y37623D01*
X59618Y37523D01*
X60018D01*
X60118Y37623D01*
Y37923D01*
Y36924D02*
X60018Y37123D01*
X59818Y37323D01*
X59618D01*
X59518Y37223D01*
Y37024D01*
X59618Y36924D01*
X59718D01*
X59818Y37024D01*
Y37323D01*
X26211Y45777D02*
Y45177D01*
X26511D01*
X26611Y45277D01*
Y45677D01*
X26511Y45777D01*
X26211D01*
X26810Y45177D02*
X27010D01*
X26910D01*
Y45777D01*
X26810Y45677D01*
X43624Y33717D02*
X43524Y33617D01*
Y33417D01*
X43624Y33317D01*
X44024D01*
X44124Y33417D01*
Y33617D01*
X44024Y33717D01*
X43524Y33917D02*
Y34317D01*
X43624D01*
X44024Y33917D01*
X44124D01*
X43524Y34517D02*
Y34916D01*
X43624D01*
X44024Y34517D01*
X44124D01*
X50833Y46218D02*
X50733Y46318D01*
X50533D01*
X50433Y46218D01*
Y45818D01*
X50533Y45718D01*
X50733D01*
X50833Y45818D01*
X51033Y46318D02*
X51433D01*
Y46218D01*
X51033Y45818D01*
Y45718D01*
X52033Y46318D02*
X51833Y46218D01*
X51633Y46018D01*
Y45818D01*
X51733Y45718D01*
X51933D01*
X52033Y45818D01*
Y45918D01*
X51933Y46018D01*
X51633D01*
X43884Y28748D02*
X43784Y28848D01*
X43584D01*
X43484Y28748D01*
Y28348D01*
X43584Y28248D01*
X43784D01*
X43884Y28348D01*
X44084Y28848D02*
X44484D01*
Y28748D01*
X44084Y28348D01*
Y28248D01*
X45084Y28848D02*
X44684D01*
Y28548D01*
X44884Y28648D01*
X44984D01*
X45084Y28548D01*
Y28348D01*
X44984Y28248D01*
X44784D01*
X44684Y28348D01*
X49386Y49781D02*
X49286Y49881D01*
X49086D01*
X48986Y49781D01*
Y49381D01*
X49086Y49282D01*
X49286D01*
X49386Y49381D01*
X49586Y49881D02*
X49986D01*
Y49781D01*
X49586Y49381D01*
Y49282D01*
X50486D02*
Y49881D01*
X50186Y49581D01*
X50586D01*
X48392Y33315D02*
X48292Y33415D01*
X48092D01*
X47992Y33315D01*
Y32915D01*
X48092Y32815D01*
X48292D01*
X48392Y32915D01*
X48592Y33415D02*
X48992D01*
Y33315D01*
X48592Y32915D01*
Y32815D01*
X49192Y33315D02*
X49292Y33415D01*
X49492D01*
X49592Y33315D01*
Y33215D01*
X49492Y33115D01*
X49392D01*
X49492D01*
X49592Y33015D01*
Y32915D01*
X49492Y32815D01*
X49292D01*
X49192Y32915D01*
X58097Y49791D02*
X57997Y49891D01*
X57797D01*
X57697Y49791D01*
Y49391D01*
X57797Y49291D01*
X57997D01*
X58097Y49391D01*
X58297Y49891D02*
X58697D01*
Y49791D01*
X58297Y49391D01*
Y49291D01*
X59296D02*
X58896D01*
X59296Y49691D01*
Y49791D01*
X59196Y49891D01*
X58996D01*
X58896Y49791D01*
X53014Y39721D02*
X52914Y39621D01*
Y39421D01*
X53014Y39321D01*
X53414D01*
X53514Y39421D01*
Y39621D01*
X53414Y39721D01*
X52914Y39921D02*
Y40321D01*
X53014D01*
X53414Y39921D01*
X53514D01*
Y40520D02*
Y40720D01*
Y40620D01*
X52914D01*
X53014Y40520D01*
X67870Y46435D02*
X67770Y46535D01*
X67570D01*
X67470Y46435D01*
Y46035D01*
X67570Y45935D01*
X67770D01*
X67870Y46035D01*
X68070Y46535D02*
X68470D01*
Y46435D01*
X68070Y46035D01*
Y45935D01*
X68670Y46435D02*
X68770Y46535D01*
X68970D01*
X69070Y46435D01*
Y46035D01*
X68970Y45935D01*
X68770D01*
X68670Y46035D01*
Y46435D01*
X59731Y38994D02*
X59631Y39094D01*
X59431D01*
X59331Y38994D01*
Y38594D01*
X59431Y38494D01*
X59631D01*
X59731Y38594D01*
X60330Y39094D02*
X60130Y38994D01*
X59931Y38794D01*
Y38594D01*
X60030Y38494D01*
X60230D01*
X60330Y38594D01*
Y38694D01*
X60230Y38794D01*
X59931D01*
X60530Y38594D02*
X60630Y38494D01*
X60830D01*
X60930Y38594D01*
Y38994D01*
X60830Y39094D01*
X60630D01*
X60530Y38994D01*
Y38894D01*
X60630Y38794D01*
X60930D01*
X66286Y43177D02*
X66186Y43277D01*
X65986D01*
X65886Y43177D01*
Y42777D01*
X65986Y42677D01*
X66186D01*
X66286Y42777D01*
X66885Y43277D02*
X66686Y43177D01*
X66486Y42977D01*
Y42777D01*
X66586Y42677D01*
X66786D01*
X66885Y42777D01*
Y42877D01*
X66786Y42977D01*
X66486D01*
X67085Y43177D02*
X67185Y43277D01*
X67385D01*
X67485Y43177D01*
Y43077D01*
X67385Y42977D01*
X67485Y42877D01*
Y42777D01*
X67385Y42677D01*
X67185D01*
X67085Y42777D01*
Y42877D01*
X67185Y42977D01*
X67085Y43077D01*
Y43177D01*
X67185Y42977D02*
X67385D01*
X59437Y45801D02*
X59537Y45901D01*
Y46101D01*
X59437Y46201D01*
X59037D01*
X58937Y46101D01*
Y45901D01*
X59037Y45801D01*
X59537Y45201D02*
X59437Y45401D01*
X59237Y45601D01*
X59037D01*
X58937Y45501D01*
Y45301D01*
X59037Y45201D01*
X59137D01*
X59237Y45301D01*
Y45601D01*
X59537Y45001D02*
Y44601D01*
X59437D01*
X59037Y45001D01*
X58937D01*
X76666Y37299D02*
X76566Y37200D01*
Y37000D01*
X76666Y36900D01*
X77065D01*
X77165Y37000D01*
Y37200D01*
X77065Y37299D01*
X76566Y37899D02*
X76666Y37699D01*
X76865Y37499D01*
X77065D01*
X77165Y37599D01*
Y37799D01*
X77065Y37899D01*
X76965D01*
X76865Y37799D01*
Y37499D01*
X76566Y38499D02*
X76666Y38299D01*
X76865Y38099D01*
X77065D01*
X77165Y38199D01*
Y38399D01*
X77065Y38499D01*
X76965D01*
X76865Y38399D01*
Y38099D01*
X61473Y36307D02*
X61373Y36407D01*
X61173D01*
X61073Y36307D01*
Y35907D01*
X61173Y35807D01*
X61373D01*
X61473Y35907D01*
X62073Y36407D02*
X61873Y36307D01*
X61673Y36107D01*
Y35907D01*
X61773Y35807D01*
X61973D01*
X62073Y35907D01*
Y36007D01*
X61973Y36107D01*
X61673D01*
X62672Y36407D02*
X62272D01*
Y36107D01*
X62472Y36207D01*
X62572D01*
X62672Y36107D01*
Y35907D01*
X62572Y35807D01*
X62372D01*
X62272Y35907D01*
X63166Y38925D02*
X63066Y39025D01*
X62866D01*
X62766Y38925D01*
Y38525D01*
X62866Y38425D01*
X63066D01*
X63166Y38525D01*
X63765Y39025D02*
X63565Y38925D01*
X63366Y38725D01*
Y38525D01*
X63466Y38425D01*
X63665D01*
X63765Y38525D01*
Y38625D01*
X63665Y38725D01*
X63366D01*
X64265Y38425D02*
Y39025D01*
X63965Y38725D01*
X64365D01*
X55805Y42445D02*
X55905Y42545D01*
Y42745D01*
X55805Y42844D01*
X55405D01*
X55305Y42745D01*
Y42545D01*
X55405Y42445D01*
X55905Y41845D02*
X55805Y42045D01*
X55605Y42245D01*
X55405D01*
X55305Y42145D01*
Y41945D01*
X55405Y41845D01*
X55505D01*
X55605Y41945D01*
Y42245D01*
X55805Y41645D02*
X55905Y41545D01*
Y41345D01*
X55805Y41245D01*
X55705D01*
X55605Y41345D01*
Y41445D01*
Y41345D01*
X55505Y41245D01*
X55405D01*
X55305Y41345D01*
Y41545D01*
X55405Y41645D01*
X56965Y44023D02*
X56865Y44123D01*
X56665D01*
X56565Y44023D01*
Y43624D01*
X56665Y43524D01*
X56865D01*
X56965Y43624D01*
X57565Y44123D02*
X57365Y44023D01*
X57165Y43824D01*
Y43624D01*
X57265Y43524D01*
X57465D01*
X57565Y43624D01*
Y43724D01*
X57465Y43824D01*
X57165D01*
X58164Y43524D02*
X57765D01*
X58164Y43923D01*
Y44023D01*
X58064Y44123D01*
X57865D01*
X57765Y44023D01*
X71847Y24791D02*
X71747Y24891D01*
X71547D01*
X71447Y24791D01*
Y24391D01*
X71547Y24291D01*
X71747D01*
X71847Y24391D01*
X72447Y24891D02*
X72247Y24791D01*
X72047Y24591D01*
Y24391D01*
X72147Y24291D01*
X72347D01*
X72447Y24391D01*
Y24491D01*
X72347Y24591D01*
X72047D01*
X72646Y24291D02*
X72846D01*
X72746D01*
Y24891D01*
X72646Y24791D01*
X87689Y42929D02*
X87589Y42829D01*
Y42629D01*
X87689Y42530D01*
X88089D01*
X88189Y42629D01*
Y42829D01*
X88089Y42929D01*
X87589Y43529D02*
X87689Y43329D01*
X87889Y43129D01*
X88089D01*
X88189Y43229D01*
Y43429D01*
X88089Y43529D01*
X87989D01*
X87889Y43429D01*
Y43129D01*
X87689Y43729D02*
X87589Y43829D01*
Y44029D01*
X87689Y44129D01*
X88089D01*
X88189Y44029D01*
Y43829D01*
X88089Y43729D01*
X87689D01*
X84317Y40726D02*
X84217Y40826D01*
X84017D01*
X83917Y40726D01*
Y40326D01*
X84017Y40226D01*
X84217D01*
X84317Y40326D01*
X84917Y40826D02*
X84517D01*
Y40526D01*
X84717Y40626D01*
X84817D01*
X84917Y40526D01*
Y40326D01*
X84817Y40226D01*
X84617D01*
X84517Y40326D01*
X85117D02*
X85217Y40226D01*
X85417D01*
X85517Y40326D01*
Y40726D01*
X85417Y40826D01*
X85217D01*
X85117Y40726D01*
Y40626D01*
X85217Y40526D01*
X85517D01*
X65922Y42124D02*
X65822Y42224D01*
X65622D01*
X65522Y42124D01*
Y41724D01*
X65622Y41624D01*
X65822D01*
X65922Y41724D01*
X66521Y42224D02*
X66121D01*
Y41924D01*
X66321Y42024D01*
X66421D01*
X66521Y41924D01*
Y41724D01*
X66421Y41624D01*
X66221D01*
X66121Y41724D01*
X66721Y42124D02*
X66821Y42224D01*
X67021D01*
X67121Y42124D01*
Y42024D01*
X67021Y41924D01*
X67121Y41824D01*
Y41724D01*
X67021Y41624D01*
X66821D01*
X66721Y41724D01*
Y41824D01*
X66821Y41924D01*
X66721Y42024D01*
Y42124D01*
X66821Y41924D02*
X67021D01*
X60951Y39614D02*
X60851Y39714D01*
X60651D01*
X60551Y39614D01*
Y39214D01*
X60651Y39114D01*
X60851D01*
X60951Y39214D01*
X61551Y39714D02*
X61151D01*
Y39414D01*
X61351Y39514D01*
X61451D01*
X61551Y39414D01*
Y39214D01*
X61451Y39114D01*
X61251D01*
X61151Y39214D01*
X61751Y39714D02*
X62151D01*
Y39614D01*
X61751Y39214D01*
Y39114D01*
X87650Y32703D02*
X87550Y32603D01*
Y32403D01*
X87650Y32303D01*
X88050D01*
X88150Y32403D01*
Y32603D01*
X88050Y32703D01*
X87550Y33303D02*
Y32903D01*
X87850D01*
X87750Y33103D01*
Y33203D01*
X87850Y33303D01*
X88050D01*
X88150Y33203D01*
Y33003D01*
X88050Y32903D01*
X87550Y33903D02*
X87650Y33703D01*
X87850Y33503D01*
X88050D01*
X88150Y33603D01*
Y33803D01*
X88050Y33903D01*
X87950D01*
X87850Y33803D01*
Y33503D01*
X67120Y26810D02*
X67020Y26910D01*
X66820D01*
X66720Y26810D01*
Y26410D01*
X66820Y26310D01*
X67020D01*
X67120Y26410D01*
X67720Y26910D02*
X67320D01*
Y26610D01*
X67520Y26710D01*
X67620D01*
X67720Y26610D01*
Y26410D01*
X67620Y26310D01*
X67420D01*
X67320Y26410D01*
X68220Y26310D02*
Y26910D01*
X67920Y26610D01*
X68319D01*
X53205Y36602D02*
X53105Y36702D01*
X52905D01*
X52805Y36602D01*
Y36202D01*
X52905Y36102D01*
X53105D01*
X53205Y36202D01*
X53705Y36102D02*
Y36702D01*
X53405Y36402D01*
X53805D01*
X54405Y36702D02*
X54205Y36602D01*
X54005Y36402D01*
Y36202D01*
X54105Y36102D01*
X54305D01*
X54405Y36202D01*
Y36302D01*
X54305Y36402D01*
X54005D01*
X49386Y35884D02*
X49286Y35984D01*
X49086D01*
X48986Y35884D01*
Y35484D01*
X49086Y35384D01*
X49286D01*
X49386Y35484D01*
X49886Y35384D02*
Y35984D01*
X49586Y35684D01*
X49986D01*
X50586Y35984D02*
X50186D01*
Y35684D01*
X50386Y35784D01*
X50486D01*
X50586Y35684D01*
Y35484D01*
X50486Y35384D01*
X50286D01*
X50186Y35484D01*
X22979Y48915D02*
X22879Y49015D01*
X22679D01*
X22579Y48915D01*
Y48515D01*
X22679Y48415D01*
X22879D01*
X22979Y48515D01*
X23478Y48415D02*
Y49015D01*
X23179Y48715D01*
X23578D01*
X24078Y48415D02*
Y49015D01*
X23778Y48715D01*
X24178D01*
X35685Y50244D02*
X35585Y50344D01*
X35385D01*
X35285Y50244D01*
Y49844D01*
X35385Y49744D01*
X35585D01*
X35685Y49844D01*
X36185Y49744D02*
Y50344D01*
X35885Y50044D01*
X36285D01*
X36885Y49744D02*
X36485D01*
X36885Y50144D01*
Y50244D01*
X36785Y50344D01*
X36585D01*
X36485Y50244D01*
X22689Y45607D02*
X22589Y45507D01*
Y45307D01*
X22689Y45207D01*
X23089D01*
X23189Y45307D01*
Y45507D01*
X23089Y45607D01*
X23189Y46106D02*
X22589D01*
X22889Y45806D01*
Y46206D01*
X23189Y46406D02*
Y46606D01*
Y46506D01*
X22589D01*
X22689Y46406D01*
X35685Y49496D02*
X35585Y49596D01*
X35385D01*
X35285Y49496D01*
Y49096D01*
X35385Y48996D01*
X35585D01*
X35685Y49096D01*
X36185Y48996D02*
Y49596D01*
X35885Y49296D01*
X36285D01*
X36485Y49496D02*
X36585Y49596D01*
X36785D01*
X36885Y49496D01*
Y49396D01*
X36785Y49296D01*
X36685D01*
X36785D01*
X36885Y49196D01*
Y49096D01*
X36785Y48996D01*
X36585D01*
X36485Y49096D01*
X53254Y32586D02*
X53154Y32686D01*
X52954D01*
X52854Y32586D01*
Y32187D01*
X52954Y32087D01*
X53154D01*
X53254Y32187D01*
X53454Y32586D02*
X53554Y32686D01*
X53754D01*
X53854Y32586D01*
Y32486D01*
X53754Y32387D01*
X53654D01*
X53754D01*
X53854Y32287D01*
Y32187D01*
X53754Y32087D01*
X53554D01*
X53454Y32187D01*
X54054Y32586D02*
X54154Y32686D01*
X54354D01*
X54454Y32586D01*
Y32486D01*
X54354Y32387D01*
X54454Y32287D01*
Y32187D01*
X54354Y32087D01*
X54154D01*
X54054Y32187D01*
Y32287D01*
X54154Y32387D01*
X54054Y32486D01*
Y32586D01*
X54154Y32387D02*
X54354D01*
X72719Y49475D02*
X72619Y49375D01*
Y49175D01*
X72719Y49075D01*
X73119D01*
X73218Y49175D01*
Y49375D01*
X73119Y49475D01*
X72719Y49675D02*
X72619Y49775D01*
Y49975D01*
X72719Y50074D01*
X72819D01*
X72919Y49975D01*
Y49875D01*
Y49975D01*
X73019Y50074D01*
X73119D01*
X73218Y49975D01*
Y49775D01*
X73119Y49675D01*
Y50274D02*
X73218Y50374D01*
Y50574D01*
X73119Y50674D01*
X72719D01*
X72619Y50574D01*
Y50374D01*
X72719Y50274D01*
X72819D01*
X72919Y50374D01*
Y50674D01*
X51551Y32596D02*
X51451Y32696D01*
X51252D01*
X51152Y32596D01*
Y32196D01*
X51252Y32096D01*
X51451D01*
X51551Y32196D01*
X51751Y32596D02*
X51851Y32696D01*
X52051D01*
X52151Y32596D01*
Y32496D01*
X52051Y32396D01*
X51951D01*
X52051D01*
X52151Y32296D01*
Y32196D01*
X52051Y32096D01*
X51851D01*
X51751Y32196D01*
X52351Y32596D02*
X52451Y32696D01*
X52651D01*
X52751Y32596D01*
Y32496D01*
X52651Y32396D01*
X52551D01*
X52651D01*
X52751Y32296D01*
Y32196D01*
X52651Y32096D01*
X52451D01*
X52351Y32196D01*
X62152Y49712D02*
X62052Y49812D01*
X61852D01*
X61752Y49712D01*
Y49313D01*
X61852Y49213D01*
X62052D01*
X62152Y49313D01*
X62352Y49712D02*
X62452Y49812D01*
X62652D01*
X62752Y49712D01*
Y49612D01*
X62652Y49513D01*
X62552D01*
X62652D01*
X62752Y49413D01*
Y49313D01*
X62652Y49213D01*
X62452D01*
X62352Y49313D01*
X62952Y49812D02*
X63351D01*
Y49712D01*
X62952Y49313D01*
Y49213D01*
X67959Y48049D02*
X67859Y48149D01*
X67659D01*
X67559Y48049D01*
Y47649D01*
X67659Y47549D01*
X67859D01*
X67959Y47649D01*
X68159Y48049D02*
X68259Y48149D01*
X68459D01*
X68559Y48049D01*
Y47949D01*
X68459Y47849D01*
X68359D01*
X68459D01*
X68559Y47749D01*
Y47649D01*
X68459Y47549D01*
X68259D01*
X68159Y47649D01*
X69059Y47549D02*
Y48149D01*
X68759Y47849D01*
X69159D01*
X62782Y48512D02*
X62682Y48612D01*
X62482D01*
X62382Y48512D01*
Y48112D01*
X62482Y48012D01*
X62682D01*
X62782Y48112D01*
X62982Y48512D02*
X63082Y48612D01*
X63282D01*
X63382Y48512D01*
Y48412D01*
X63282Y48312D01*
X63182D01*
X63282D01*
X63382Y48212D01*
Y48112D01*
X63282Y48012D01*
X63082D01*
X62982Y48112D01*
X63981Y48012D02*
X63582D01*
X63981Y48412D01*
Y48512D01*
X63881Y48612D01*
X63681D01*
X63582Y48512D01*
X64018Y45036D02*
X63918Y44936D01*
Y44736D01*
X64018Y44636D01*
X64418D01*
X64518Y44736D01*
Y44936D01*
X64418Y45036D01*
X64018Y45236D02*
X63918Y45336D01*
Y45536D01*
X64018Y45635D01*
X64118D01*
X64218Y45536D01*
Y45436D01*
Y45536D01*
X64318Y45635D01*
X64418D01*
X64518Y45536D01*
Y45336D01*
X64418Y45236D01*
X64518Y45835D02*
Y46035D01*
Y45935D01*
X63918D01*
X64018Y45835D01*
X42929Y36701D02*
X42829Y36801D01*
X42629D01*
X42530Y36701D01*
Y36301D01*
X42629Y36201D01*
X42829D01*
X42929Y36301D01*
X43529Y36201D02*
X43129D01*
X43529Y36601D01*
Y36701D01*
X43429Y36801D01*
X43229D01*
X43129Y36701D01*
X43729D02*
X43829Y36801D01*
X44029D01*
X44129Y36701D01*
Y36601D01*
X44029Y36501D01*
X44129Y36401D01*
Y36301D01*
X44029Y36201D01*
X43829D01*
X43729Y36301D01*
Y36401D01*
X43829Y36501D01*
X43729Y36601D01*
Y36701D01*
X43829Y36501D02*
X44029D01*
X40331Y36691D02*
X40231Y36791D01*
X40031D01*
X39931Y36691D01*
Y36291D01*
X40031Y36191D01*
X40231D01*
X40331Y36291D01*
X40931Y36191D02*
X40531D01*
X40931Y36591D01*
Y36691D01*
X40831Y36791D01*
X40631D01*
X40531Y36691D01*
X41531Y36791D02*
X41331Y36691D01*
X41131Y36491D01*
Y36291D01*
X41231Y36191D01*
X41431D01*
X41531Y36291D01*
Y36391D01*
X41431Y36491D01*
X41131D01*
X38246Y37211D02*
X38105D01*
X37963Y37070D01*
Y36928D01*
X38246Y36645D01*
X38388D01*
X38529Y36787D01*
Y36928D01*
X39024Y37282D02*
X38741Y36999D01*
Y37564D01*
X38670Y37635D01*
X38529D01*
X38388Y37494D01*
Y37352D01*
X39024Y38130D02*
X38741Y37847D01*
X38953Y37635D01*
X39024Y37847D01*
X39095Y37918D01*
X39236D01*
X39377Y37777D01*
Y37635D01*
X39236Y37494D01*
X39095D01*
X33343Y27586D02*
X33243Y27686D01*
X33043D01*
X32943Y27586D01*
Y27187D01*
X33043Y27087D01*
X33243D01*
X33343Y27187D01*
X33943Y27087D02*
X33543D01*
X33943Y27486D01*
Y27586D01*
X33843Y27686D01*
X33643D01*
X33543Y27586D01*
X33510Y26819D02*
X33410Y26919D01*
X33210D01*
X33110Y26819D01*
Y26419D01*
X33210Y26319D01*
X33410D01*
X33510Y26419D01*
X33710Y26319D02*
X33910D01*
X33810D01*
Y26919D01*
X33710Y26819D01*
D11*
X49793Y31703D02*
G03*
X49793Y31703I-984J0D01*
G01*
X43681Y29616D02*
G03*
X43681Y29616I-1240J0D01*
G01*
X34941Y29193D02*
G03*
X34941Y29193I-39J0D01*
G01*
X23524Y34281D02*
G03*
X23524Y34281I-39J0D01*
G01*
X23226Y37316D02*
G03*
X23226Y37316I-39J0D01*
G01*
X51126Y35132D02*
G03*
X51126Y35132I-39J0D01*
G01*
X51126Y31116D02*
G03*
X51126Y31116I-39J0D01*
G01*
X62992Y37411D02*
G03*
X62992Y37411I-787J0D01*
G01*
X69459Y40965D02*
G03*
X69459Y40965I-1240J0D01*
G01*
X69468Y44557D02*
G03*
X69468Y44557I-1240J0D01*
G01*
X59439Y42215D02*
G03*
X59439Y42215I-1240J0D01*
G01*
X57490Y49173D02*
G03*
X57490Y49173I-984J0D01*
G01*
X63957Y47431D02*
G03*
X63957Y47431I-1575J0D01*
G01*
X72303Y49843D02*
G03*
X72303Y49843I-1969J0D01*
G01*
X87205Y33750D02*
G03*
X87205Y33750I-1969J0D01*
G01*
X87185Y42844D02*
G03*
X87185Y42844I-1969J0D01*
G01*
X59488Y39409D02*
G03*
X59488Y39409I-1240J0D01*
G01*
X51220Y47815D02*
G03*
X51220Y47815I-1240J0D01*
G01*
X54837Y22116D02*
Y22608D01*
X53657Y21978D02*
X54807D01*
X53657Y21919D02*
Y21978D01*
Y21919D02*
X54807D01*
Y21978D01*
X53222Y22116D02*
Y22608D01*
X52043Y21978D02*
X53193D01*
X52043Y21919D02*
Y21978D01*
Y21919D02*
X53193D01*
Y21978D01*
X52866Y20000D02*
Y20276D01*
X52728Y20138D02*
X53004D01*
X52646Y19980D02*
Y20256D01*
X52508Y20118D02*
X52783D01*
X77589Y25394D02*
X78169D01*
X77451Y25427D02*
Y26581D01*
X75994D02*
X77451D01*
X75994Y25427D02*
Y26581D01*
Y25427D02*
X77451D01*
X21634Y36841D02*
X21969D01*
X21634Y36407D02*
X21969D01*
X23917Y34911D02*
Y35246D01*
X23484Y34911D02*
Y35246D01*
X24026Y34026D02*
Y34360D01*
X23593Y34026D02*
Y34360D01*
X23927Y33435D02*
Y33770D01*
X24360Y33435D02*
Y33770D01*
X28878Y26329D02*
X29262D01*
X24695D02*
X25531D01*
X24289Y19734D02*
X30392D01*
X24272Y21319D02*
Y21841D01*
X24281Y23435D02*
Y25305D01*
X30384Y23435D02*
Y25305D01*
Y21319D02*
Y21841D01*
X32751Y47006D02*
X33217Y46541D01*
X33161Y47416D02*
X33627Y46951D01*
X34583Y48141D02*
X34903Y47821D01*
X36368Y54488D02*
X50010D01*
X39478Y52402D02*
X50010D01*
X36368D02*
X37844D01*
X21987Y49113D02*
X22954D01*
X21987Y49805D02*
X22954D01*
X54972Y31982D02*
X55972D01*
X54972D02*
Y33982D01*
X55972D01*
Y31982D02*
Y33982D01*
X55998Y39537D02*
Y40030D01*
X54819Y39400D02*
X55969D01*
X54819Y39341D02*
Y39400D01*
Y39341D02*
X55969D01*
Y39400D01*
X57805Y36837D02*
X58297D01*
X57667Y36866D02*
Y38016D01*
X57608D02*
X57667D01*
X57608Y36866D02*
Y38016D01*
Y36866D02*
X57667D01*
X66398Y35876D02*
X66791D01*
X66398D02*
Y38986D01*
X66791D01*
X68327Y35876D02*
X68720D01*
Y38986D01*
X68327D02*
X68720D01*
X66024Y45551D02*
Y46083D01*
Y44626D02*
X66043D01*
X64882Y45551D02*
Y46083D01*
X64862Y44626D02*
X64882D01*
X66043D02*
Y46083D01*
X64862Y44626D02*
Y46083D01*
X45354Y19734D02*
Y24026D01*
X41417Y25797D02*
X42500D01*
X42205Y18356D02*
Y19734D01*
Y18356D02*
X44567D01*
Y19734D01*
X41417D02*
Y25797D01*
Y19734D02*
X45354D01*
X44272Y25797D02*
X45354D01*
X48110Y18356D02*
Y18735D01*
X46535Y18356D02*
Y18735D01*
X47756Y19872D02*
X48110D01*
Y18735D02*
Y19493D01*
Y19872D02*
X48898D01*
Y20935D02*
Y22687D01*
X48110Y24124D02*
X48898D01*
X46535Y19872D02*
X46890D01*
X45748D02*
X46535D01*
X45748Y24124D02*
X46535D01*
X45748Y19872D02*
Y24124D01*
X48898Y19872D02*
Y20935D01*
X46535Y18735D02*
Y19493D01*
Y18356D02*
X48110D01*
X48406Y19518D02*
Y19872D01*
X46240Y19518D02*
Y19872D01*
Y19518D02*
X48406D01*
X54004Y25868D02*
Y26868D01*
X60016D01*
X54004Y25868D02*
X60016D01*
Y26868D01*
X66220Y23297D02*
Y25561D01*
X60118Y23297D02*
X66220D01*
X60118D02*
Y25561D01*
X66220D01*
X73185Y20327D02*
X81185D01*
X73185Y22327D02*
X81185D01*
Y20327D02*
Y22327D01*
X73185Y20327D02*
Y22327D01*
X82146Y21171D02*
Y21407D01*
X81516Y21171D02*
Y21407D01*
X82146D01*
X81516Y21333D02*
X82146D01*
X82520Y21333D02*
X83150D01*
X82520Y21407D02*
X83150D01*
X82520Y21171D02*
Y21407D01*
X83150Y21171D02*
Y21407D01*
X76988Y35984D02*
Y36378D01*
X80098D01*
Y35984D02*
Y36378D01*
X76988Y34055D02*
Y34449D01*
Y34055D02*
X80098D01*
Y34449D01*
X76791Y44646D02*
Y44843D01*
X81516D01*
Y44646D02*
Y44843D01*
X76791Y41909D02*
Y42106D01*
Y41909D02*
X81516D01*
Y42106D01*
X76614Y41043D02*
Y41437D01*
X79724D01*
Y41043D02*
Y41437D01*
X76614Y39114D02*
Y39508D01*
Y39114D02*
X79724D01*
Y39508D01*
X84026Y47087D02*
Y47480D01*
X87136D01*
Y47087D02*
Y47480D01*
X84026Y45157D02*
Y45551D01*
Y45157D02*
X87136D01*
Y45551D01*
X87195Y47756D02*
Y48150D01*
X84085Y47756D02*
X87195D01*
X84085D02*
Y48150D01*
X87195Y49685D02*
Y50079D01*
X84085D02*
X87195D01*
X84085Y49685D02*
Y50079D01*
X80756Y46358D02*
Y49803D01*
X83398Y46358D02*
Y49803D01*
X75817Y50285D02*
X80344D01*
X75817Y45364D02*
Y50285D01*
X78593Y45364D02*
X80344D01*
X75817D02*
X77569D01*
X80344D02*
Y50285D01*
X42057Y38386D02*
X44518Y38386D01*
X42057Y37480D02*
X42313D01*
X44262D02*
X44537D01*
X42057D02*
Y40472D01*
X44537Y37480D02*
Y40472D01*
X44262D02*
X44537D01*
X42057D02*
X42313D01*
X60571Y41793D02*
X61171D01*
X39459Y38386D02*
X41919Y38386D01*
X39459Y37480D02*
X39715D01*
X41663D02*
X41939D01*
X39459D02*
Y40472D01*
X41939Y37480D02*
Y40472D01*
X41663D02*
X41939D01*
X39459D02*
X39715D01*
X80528Y22743D02*
X80463Y22677D01*
Y22546D01*
X80528Y22480D01*
X80791D01*
X80856Y22546D01*
Y22677D01*
X80791Y22743D01*
X80660D01*
Y22612D01*
X80856Y22874D02*
X80463D01*
X80856Y23136D01*
X80463D01*
Y23267D02*
X80856D01*
Y23464D01*
X80791Y23530D01*
X80528D01*
X80463Y23464D01*
Y23267D01*
X80518Y23848D02*
X80453Y23914D01*
Y24045D01*
X80518Y24111D01*
X80584D01*
X80650Y24045D01*
Y23980D01*
Y24045D01*
X80715Y24111D01*
X80781D01*
X80846Y24045D01*
Y23914D01*
X80781Y23848D01*
X80453Y24242D02*
X80715D01*
X80846Y24373D01*
X80715Y24504D01*
X80453D01*
X80518Y24636D02*
X80453Y24701D01*
Y24832D01*
X80518Y24898D01*
X80584D01*
X80650Y24832D01*
Y24767D01*
Y24832D01*
X80715Y24898D01*
X80781D01*
X80846Y24832D01*
Y24701D01*
X80781Y24636D01*
X79534Y22743D02*
X79469Y22677D01*
Y22546D01*
X79534Y22480D01*
X79600D01*
X79665Y22546D01*
Y22677D01*
X79731Y22743D01*
X79797D01*
X79862Y22677D01*
Y22546D01*
X79797Y22480D01*
X79469Y22874D02*
X79862D01*
X79731Y23005D01*
X79862Y23136D01*
X79469D01*
Y23464D02*
Y23333D01*
X79534Y23267D01*
X79797D01*
X79862Y23333D01*
Y23464D01*
X79797Y23530D01*
X79534D01*
X79469Y23464D01*
X79843Y23858D02*
X79449D01*
Y24055D01*
X79515Y24121D01*
X79646D01*
X79711Y24055D01*
Y23858D01*
X79843Y24252D02*
X79580D01*
X79449Y24383D01*
X79580Y24514D01*
X79843D01*
X79646D01*
Y24252D01*
X79515Y24645D02*
X79449Y24711D01*
Y24842D01*
X79515Y24908D01*
X79777D01*
X79843Y24842D01*
Y24711D01*
X79777Y24645D01*
X79515D01*
X78543Y22638D02*
Y22900D01*
Y22769D01*
X78937D01*
X78543Y23031D02*
X78937Y23294D01*
X78543D02*
X78937Y23031D01*
X78927Y23858D02*
X78534D01*
Y24055D01*
X78599Y24121D01*
X78730D01*
X78796Y24055D01*
Y23858D01*
X78927Y24252D02*
X78665D01*
X78534Y24383D01*
X78665Y24514D01*
X78927D01*
X78730D01*
Y24252D01*
X78927Y24645D02*
Y24777D01*
Y24711D01*
X78534D01*
X78599Y24645D01*
X77913Y22490D02*
X77520D01*
Y22687D01*
X77585Y22753D01*
X77717D01*
X77782Y22687D01*
Y22490D01*
X77913Y22884D02*
X77651D01*
X77520Y23015D01*
X77651Y23146D01*
X77913D01*
X77717D01*
Y22884D01*
X77913Y23474D02*
X77520D01*
X77717Y23277D01*
Y23540D01*
X77884Y24026D02*
X77490D01*
Y24222D01*
X77556Y24288D01*
X77687D01*
X77753Y24222D01*
Y24026D01*
Y24157D02*
X77884Y24288D01*
X77490Y24419D02*
X77884Y24682D01*
X77490D02*
X77884Y24419D01*
X76486Y22510D02*
Y22641D01*
Y22575D01*
X76880D01*
Y22510D01*
Y22641D01*
X76552Y23100D02*
X76486Y23035D01*
Y22903D01*
X76552Y22838D01*
X76618D01*
X76683Y22903D01*
Y23035D01*
X76749Y23100D01*
X76814D01*
X76880Y23035D01*
Y22903D01*
X76814Y22838D01*
X76486Y23428D02*
Y23297D01*
X76552Y23231D01*
X76814D01*
X76880Y23297D01*
Y23428D01*
X76814Y23494D01*
X76552D01*
X76486Y23428D01*
X76542Y24101D02*
X76476Y24035D01*
Y23904D01*
X76542Y23839D01*
X76608D01*
X76673Y23904D01*
Y24035D01*
X76739Y24101D01*
X76804D01*
X76870Y24035D01*
Y23904D01*
X76804Y23839D01*
X76542Y24495D02*
X76476Y24429D01*
Y24298D01*
X76542Y24232D01*
X76804D01*
X76870Y24298D01*
Y24429D01*
X76804Y24495D01*
X76476Y24626D02*
X76870D01*
X76739D01*
X76476Y24888D01*
X76673Y24691D01*
X76870Y24888D01*
X75866Y22490D02*
X75473D01*
Y22687D01*
X75538Y22753D01*
X75669D01*
X75735Y22687D01*
Y22490D01*
X75473Y22884D02*
X75866D01*
Y23081D01*
X75801Y23146D01*
X75735D01*
X75669Y23081D01*
Y22884D01*
Y23081D01*
X75604Y23146D01*
X75538D01*
X75473Y23081D01*
Y22884D01*
X75538Y23277D02*
X75473Y23343D01*
Y23474D01*
X75538Y23540D01*
X75801D01*
X75866Y23474D01*
Y23343D01*
X75801Y23277D01*
X75538D01*
X75492Y24085D02*
Y23953D01*
X75558Y23888D01*
X75820D01*
X75886Y23953D01*
Y24085D01*
X75820Y24150D01*
X75558D01*
X75492Y24085D01*
X75558Y24544D02*
X75492Y24478D01*
Y24347D01*
X75558Y24281D01*
X75623D01*
X75689Y24347D01*
Y24478D01*
X75755Y24544D01*
X75820D01*
X75886Y24478D01*
Y24347D01*
X75820Y24281D01*
X75492Y24675D02*
Y24806D01*
Y24741D01*
X75886D01*
Y24675D01*
Y24806D01*
X74882Y22461D02*
X74488D01*
Y22657D01*
X74554Y22723D01*
X74685D01*
X74751Y22657D01*
Y22461D01*
X74488Y22854D02*
X74882D01*
Y23051D01*
X74816Y23117D01*
X74751D01*
X74685Y23051D01*
Y22854D01*
Y23051D01*
X74620Y23117D01*
X74554D01*
X74488Y23051D01*
Y22854D01*
X74882Y23510D02*
Y23248D01*
X74620Y23510D01*
X74554D01*
X74488Y23445D01*
Y23313D01*
X74554Y23248D01*
X74892Y23907D02*
X74498D01*
Y24104D01*
X74564Y24170D01*
X74695D01*
X74761Y24104D01*
Y23907D01*
X74498Y24301D02*
X74892D01*
Y24498D01*
X74826Y24563D01*
X74761D01*
X74695Y24498D01*
Y24301D01*
Y24498D01*
X74629Y24563D01*
X74564D01*
X74498Y24498D01*
Y24301D01*
X74892Y24695D02*
Y24826D01*
Y24760D01*
X74498D01*
X74564Y24695D01*
X73550Y22733D02*
X73484Y22667D01*
Y22536D01*
X73550Y22470D01*
X73616D01*
X73681Y22536D01*
Y22667D01*
X73747Y22733D01*
X73812D01*
X73878Y22667D01*
Y22536D01*
X73812Y22470D01*
X73484Y22864D02*
X73878D01*
Y23061D01*
X73812Y23126D01*
X73550D01*
X73484Y23061D01*
Y22864D01*
X73878Y23258D02*
X73616D01*
X73484Y23389D01*
X73616Y23520D01*
X73878D01*
X73681D01*
Y23258D01*
X73550Y24121D02*
X73484Y24055D01*
Y23924D01*
X73550Y23858D01*
X73616D01*
X73681Y23924D01*
Y24055D01*
X73747Y24121D01*
X73812D01*
X73878Y24055D01*
Y23924D01*
X73812Y23858D01*
X73550Y24514D02*
X73484Y24449D01*
Y24317D01*
X73550Y24252D01*
X73812D01*
X73878Y24317D01*
Y24449D01*
X73812Y24514D01*
X73484Y24645D02*
X73878D01*
Y24908D01*
X49449Y20610D02*
Y21083D01*
X49685D01*
X49764Y21004D01*
Y20846D01*
X49685Y20768D01*
X49449D01*
X49606D02*
X49764Y20610D01*
X49921Y21004D02*
X50000Y21083D01*
X50157D01*
X50236Y21004D01*
Y20925D01*
X50157Y20846D01*
X50079D01*
X50157D01*
X50236Y20768D01*
Y20689D01*
X50157Y20610D01*
X50000D01*
X49921Y20689D01*
X50393Y20610D02*
X50551D01*
X50472D01*
Y21083D01*
X50393Y21004D01*
X26053Y28445D02*
Y28917D01*
X26289D01*
X26368Y28838D01*
Y28681D01*
X26289Y28602D01*
X26053D01*
X26211D02*
X26368Y28445D01*
X26525Y28838D02*
X26604Y28917D01*
X26762D01*
X26840Y28838D01*
Y28760D01*
X26762Y28681D01*
X26840Y28602D01*
Y28524D01*
X26762Y28445D01*
X26604D01*
X26525Y28524D01*
Y28602D01*
X26604Y28681D01*
X26525Y28760D01*
Y28838D01*
X26604Y28681D02*
X26762D01*
X24734Y28445D02*
Y28917D01*
X24970D01*
X25049Y28838D01*
Y28681D01*
X24970Y28602D01*
X24734D01*
X24892D02*
X25049Y28445D01*
X25207Y28917D02*
X25521D01*
Y28838D01*
X25207Y28524D01*
Y28445D01*
X27441D02*
Y28917D01*
X27677D01*
X27756Y28838D01*
Y28681D01*
X27677Y28602D01*
X27441D01*
X27598D02*
X27756Y28445D01*
X28228Y28917D02*
X28071Y28838D01*
X27913Y28681D01*
Y28524D01*
X27992Y28445D01*
X28149D01*
X28228Y28524D01*
Y28602D01*
X28149Y28681D01*
X27913D01*
X26050Y26932D02*
X25984Y26998D01*
X25853D01*
X25787Y26932D01*
Y26670D01*
X25853Y26604D01*
X25984D01*
X26050Y26670D01*
X26181D02*
X26247Y26604D01*
X26378D01*
X26443Y26670D01*
Y26932D01*
X26378Y26998D01*
X26247D01*
X26181Y26932D01*
Y26867D01*
X26247Y26801D01*
X26443D01*
X24921Y26890D02*
X24842Y26968D01*
X24685D01*
X24606Y26890D01*
Y26575D01*
X24685Y26496D01*
X24842D01*
X24921Y26575D01*
X25079Y26968D02*
X25393D01*
Y26890D01*
X25079Y26575D01*
Y26496D01*
X27329Y26932D02*
X27264Y26998D01*
X27133D01*
X27067Y26932D01*
Y26670D01*
X27133Y26604D01*
X27264D01*
X27329Y26670D01*
X27723Y26998D02*
X27460D01*
Y26801D01*
X27592Y26867D01*
X27657D01*
X27723Y26801D01*
Y26670D01*
X27657Y26604D01*
X27526D01*
X27460Y26670D01*
X29144Y26890D02*
X29065Y26968D01*
X28907D01*
X28829Y26890D01*
Y26575D01*
X28907Y26496D01*
X29065D01*
X29144Y26575D01*
X29301Y26890D02*
X29380Y26968D01*
X29537D01*
X29616Y26890D01*
Y26811D01*
X29537Y26732D01*
X29458D01*
X29537D01*
X29616Y26653D01*
Y26575D01*
X29537Y26496D01*
X29380D01*
X29301Y26575D01*
D12*
X34136Y29233D02*
G03*
X33896Y29233I-120J0D01*
G01*
X33406Y30453D02*
X34626D01*
X33406Y29233D02*
X33896D01*
X34136D01*
X34626D01*
X73874Y26564D02*
X74512D01*
X73874Y25444D02*
X74512D01*
Y25798D02*
Y25835D01*
Y26172D02*
Y26209D01*
Y25444D02*
Y25481D01*
Y26527D02*
Y26564D01*
X73874Y26527D02*
Y26564D01*
Y25444D02*
Y25481D01*
D13*
X21388Y36624D02*
G03*
X21388Y36624I-49J0D01*
G01*
X23750Y35541D02*
G03*
X23750Y35541I-49J0D01*
G01*
X23858Y34656D02*
G03*
X23858Y34656I-49J0D01*
G01*
X24193Y33140D02*
G03*
X24193Y33140I-49J0D01*
G01*
X36575Y26004D02*
G03*
X36535Y26004I-20J0D01*
G01*
D02*
G03*
X36575Y26004I20J0D01*
G01*
X51535Y53445D02*
G03*
X51535Y53445I-49J0D01*
G01*
X67608Y39439D02*
G03*
X67608Y39439I-49J0D01*
G01*
X66093Y46417D02*
G03*
X66093Y46417I-49J0D01*
G01*
X80600Y35217D02*
G03*
X80600Y35217I-49J0D01*
G01*
X80226Y40276D02*
G03*
X80226Y40276I-49J0D01*
G01*
X83504Y46319D02*
G03*
X83504Y46319I-49J0D01*
G01*
X83681Y48917D02*
G03*
X83681Y48917I-49J0D01*
G01*
X79114Y46211D02*
G03*
X79114Y46211I-49J0D01*
G01*
X42362Y37008D02*
G03*
X42362Y37008I-49J0D01*
G01*
X39764D02*
G03*
X39764Y37008I-49J0D01*
G01*
X80118Y22343D02*
Y25030D01*
X79193Y22343D02*
Y25020D01*
X78189Y22352D02*
Y25020D01*
X77185Y22352D02*
Y25020D01*
X76191Y22362D02*
Y25020D01*
X75167Y22352D02*
Y25030D01*
X74163Y22352D02*
Y25030D01*
X73209Y23681D02*
X81171D01*
X81185Y22327D02*
Y25039D01*
X73185D02*
X81185D01*
X73185Y22327D02*
Y25039D01*
X24272Y53032D02*
Y53819D01*
X22500Y52047D02*
X23287D01*
X21516Y53032D02*
Y53819D01*
X57461Y52173D02*
X74390D01*
X57461D02*
Y60047D01*
X74390Y52173D02*
Y60047D01*
X57461D02*
X74390D01*
X81268Y50758D02*
X85268D01*
Y55522D01*
X81268D02*
X85268D01*
X81268Y50758D02*
Y55522D01*
X76189Y50758D02*
X80189D01*
Y55522D01*
X76189D02*
X80189D01*
X76189Y50758D02*
Y55522D01*
D14*
X75118Y25610D02*
G03*
X75118Y25610I-20J0D01*
G01*
X74350Y25650D02*
G03*
X74350Y25650I-39J0D01*
G01*
X22323Y35246D02*
X23051D01*
X22323Y32293D02*
X23051D01*
X21083D02*
X21496D01*
X21083D02*
Y35246D01*
X21496D01*
X22268Y39125D02*
X23604Y37789D01*
X22268Y39125D02*
X23298Y40155D01*
X29589Y46447D02*
X30619Y47477D01*
X31649Y46447D01*
X37941Y40155D02*
X38971Y39125D01*
X37941Y38095D02*
X38971Y39125D01*
X30619Y30773D02*
X31649Y31803D01*
X29589D02*
X30619Y30773D01*
X51890Y33258D02*
X53622D01*
X51890Y35226D02*
X53622D01*
X51890Y29242D02*
X53622D01*
X51890Y31211D02*
X53622D01*
X64360Y36102D02*
Y37795D01*
X65797Y36051D02*
Y37846D01*
X67175Y50364D02*
X67875D01*
X65675D02*
X66175D01*
X63975D02*
X64675D01*
X63975D02*
Y51614D01*
X67875Y50364D02*
Y51614D01*
X45255Y30463D02*
X46615D01*
X45255Y32923D02*
X46615D01*
X45255Y30463D02*
Y32923D01*
X46615Y30463D02*
Y32923D01*
X68002Y21417D02*
Y23780D01*
X66624Y21417D02*
X68002D01*
X66624D02*
Y23780D01*
X68002D01*
X45492Y39075D02*
Y40138D01*
X44862Y39075D02*
Y40138D01*
X59409Y27874D02*
Y35118D01*
Y27874D02*
X76417D01*
Y35118D01*
X59409D02*
X76417D01*
X56102Y33583D02*
X79724D01*
Y27087D02*
Y33583D01*
X56102Y27087D02*
X79724D01*
X56102D02*
Y33583D01*
X54194Y46644D02*
Y49104D01*
X52834Y46644D02*
Y49104D01*
X54194D01*
X52834Y46644D02*
X54194D01*
D15*
X45224Y40610D02*
G03*
X45224Y40610I-47J0D01*
G01*
D16*
X54528Y24045D02*
X54892D01*
Y23455D02*
Y24045D01*
X54528Y23455D02*
X54892D01*
X53573Y24045D02*
X53937D01*
X53573Y23455D02*
Y24045D01*
Y23455D02*
X53937D01*
X54528Y23376D02*
X54892D01*
Y22785D02*
Y23376D01*
X54528Y22785D02*
X54892D01*
X53573Y23376D02*
X53937D01*
X53573Y22785D02*
Y23376D01*
Y22785D02*
X53937D01*
X52894Y23376D02*
X53258D01*
Y22785D02*
Y23376D01*
X52894Y22785D02*
X53258D01*
X51939Y23376D02*
X52303D01*
X51939Y22785D02*
Y23376D01*
Y22785D02*
X52303D01*
X52884Y24045D02*
X53248D01*
Y23455D02*
Y24045D01*
X52884Y23455D02*
X53248D01*
X51929Y24045D02*
X52293D01*
X51929Y23455D02*
Y24045D01*
Y23455D02*
X52293D01*
X54252Y21083D02*
X54616D01*
Y20492D02*
Y21083D01*
X54252Y20492D02*
X54616D01*
X53297Y21083D02*
X53661D01*
X53297Y20492D02*
Y21083D01*
Y20492D02*
X53661D01*
X50906D02*
X51270D01*
X50906D02*
Y21083D01*
X51270D01*
X51860Y20492D02*
X52224D01*
Y21083D01*
X51860D02*
X52224D01*
X53366Y19833D02*
X53711D01*
X53366Y20423D02*
X53711D01*
X54203D02*
X54488D01*
X54203Y19833D02*
X54488D01*
X51801Y20423D02*
X52146D01*
X51801Y19833D02*
X52146D01*
X51024D02*
X51309D01*
X51024Y20423D02*
X51309D01*
X64321Y40325D02*
Y40669D01*
X64911Y40325D02*
Y40669D01*
X64321D02*
X64911D01*
X64833Y39469D02*
X64911Y39547D01*
Y39833D01*
X64400Y39469D02*
X64833D01*
X64321Y39547D02*
X64400Y39469D01*
X64321Y39547D02*
Y39833D01*
X71919Y26457D02*
X72283D01*
X71919D02*
Y27047D01*
X72283D01*
X72874Y26457D02*
X73238D01*
Y27047D01*
X72874D02*
X73238D01*
X72874Y26339D02*
X73238D01*
Y25748D02*
Y26339D01*
X72874Y25748D02*
X73238D01*
X71919Y26339D02*
X72283D01*
X71919Y25748D02*
Y26339D01*
Y25748D02*
X72283D01*
X71988Y25669D02*
X72283D01*
X71919Y25600D02*
X71988Y25669D01*
X71919Y25148D02*
Y25600D01*
Y25148D02*
X71988Y25079D01*
X72283D01*
X72874Y25669D02*
X73169D01*
X73238Y25600D01*
Y25148D02*
Y25600D01*
X72874Y25079D02*
X73169D01*
X73238Y25148D01*
X44980Y33760D02*
Y34055D01*
X44911Y34124D02*
X44980Y34055D01*
X44459Y34124D02*
X44911D01*
X44390Y34055D02*
X44459Y34124D01*
X44390Y33760D02*
Y34055D01*
X44980Y32874D02*
Y33169D01*
X44911Y32805D02*
X44980Y32874D01*
X44459Y32805D02*
X44911D01*
X44390Y32874D02*
Y33169D01*
Y32874D02*
X44459Y32805D01*
X39774Y31132D02*
Y31496D01*
X40364D01*
Y31132D02*
Y31496D01*
X39774Y30177D02*
Y30541D01*
Y30177D02*
X40364D01*
Y30541D01*
X39695Y30177D02*
Y30541D01*
X39104Y30177D02*
X39695D01*
X39104D02*
Y30541D01*
X39695Y31132D02*
Y31496D01*
X39104D02*
X39695D01*
X39104Y31132D02*
Y31496D01*
X38435Y30246D02*
Y30541D01*
Y30246D02*
X38504Y30177D01*
X38957D01*
X39026Y30246D01*
Y30541D01*
X38435Y31132D02*
Y31427D01*
X38504Y31496D01*
X38957D01*
X39026Y31132D02*
Y31427D01*
X38957Y31496D02*
X39026Y31427D01*
X35098Y27028D02*
X35394D01*
X35463Y27096D01*
Y27549D01*
X35394Y27618D02*
X35463Y27549D01*
X35098Y27618D02*
X35394D01*
X34213Y27028D02*
X34508D01*
X34144Y27096D02*
X34213Y27028D01*
X34144Y27096D02*
Y27549D01*
X34213Y27618D02*
X34508D01*
X34144Y27549D02*
X34213Y27618D01*
X35098Y26398D02*
X35394D01*
X35463Y26467D01*
Y26919D01*
X35394Y26988D02*
X35463Y26919D01*
X35098Y26988D02*
X35394D01*
X34213Y26398D02*
X34508D01*
X34144Y26467D02*
X34213Y26398D01*
X34144Y26467D02*
Y26919D01*
X34213Y26988D02*
X34508D01*
X34144Y26919D02*
X34213Y26988D01*
X22652Y36901D02*
X22909Y36644D01*
X22652Y36901D02*
X23069Y37319D01*
X23327Y37061D01*
Y36226D02*
X23584Y35969D01*
X24002Y36386D01*
X23744Y36644D02*
X24002Y36386D01*
X21181Y36230D02*
X21476D01*
X21112Y36161D02*
X21181Y36230D01*
X21112Y35709D02*
Y36161D01*
Y35709D02*
X21181Y35640D01*
X21476D01*
X22067Y36230D02*
X22362D01*
X22431Y36161D01*
Y35709D02*
Y36161D01*
X22067Y35640D02*
X22362D01*
X22431Y35709D01*
X25748Y27726D02*
X26112D01*
X25748D02*
Y28317D01*
X26112D01*
X26703Y27726D02*
X27067D01*
Y28317D01*
X26703D02*
X27067D01*
X26703Y27067D02*
X26998D01*
X27067Y27136D01*
Y27589D01*
X26998Y27657D02*
X27067Y27589D01*
X26703Y27657D02*
X26998D01*
X25817Y27067D02*
X26112D01*
X25748Y27136D02*
X25817Y27067D01*
X25748Y27136D02*
Y27589D01*
X25817Y27657D02*
X26112D01*
X25748Y27589D02*
X25817Y27657D01*
X28100Y27067D02*
X28396D01*
X28465Y27136D01*
Y27589D01*
X28396Y27657D02*
X28465Y27589D01*
X28100Y27657D02*
X28396D01*
X27215Y27067D02*
X27510D01*
X27146Y27136D02*
X27215Y27067D01*
X27146Y27136D02*
Y27589D01*
X27215Y27657D02*
X27510D01*
X27146Y27589D02*
X27215Y27657D01*
X27146Y27726D02*
X27510D01*
X27146D02*
Y28317D01*
X27510D01*
X28100Y27726D02*
X28465D01*
Y28317D01*
X28100D02*
X28465D01*
X24419Y27657D02*
X24715D01*
X24350Y27589D02*
X24419Y27657D01*
X24350Y27136D02*
Y27589D01*
Y27136D02*
X24419Y27067D01*
X24715D01*
X25305Y27657D02*
X25600D01*
X25669Y27589D01*
Y27136D02*
Y27589D01*
X25305Y27067D02*
X25600D01*
X25669Y27136D01*
X25305Y28317D02*
X25669D01*
Y27726D02*
Y28317D01*
X25305Y27726D02*
X25669D01*
X24350Y28317D02*
X24715D01*
X24350Y27726D02*
Y28317D01*
Y27726D02*
X24715D01*
X29498Y27067D02*
X29793D01*
X29862Y27136D01*
Y27589D01*
X29793Y27657D02*
X29862Y27589D01*
X29498Y27657D02*
X29793D01*
X28612Y27067D02*
X28907D01*
X28543Y27136D02*
X28612Y27067D01*
X28543Y27136D02*
Y27589D01*
X28612Y27657D02*
X28907D01*
X28543Y27589D02*
X28612Y27657D01*
X34522Y44431D02*
X34779Y44173D01*
X34522Y44431D02*
X34939Y44848D01*
X35197Y44591D01*
Y43756D02*
X35454Y43498D01*
X35872Y43916D01*
X35614Y44173D02*
X35872Y43916D01*
X37884Y47451D02*
Y47844D01*
X38671Y47451D02*
Y47844D01*
X37884Y47451D02*
X38671D01*
X37884Y48927D02*
X38671D01*
X37884Y48533D02*
Y48927D01*
X38671Y48533D02*
Y48927D01*
X38159Y49035D02*
X38455D01*
X38524Y49104D01*
Y49557D01*
X38455Y49626D02*
X38524Y49557D01*
X38159Y49626D02*
X38455D01*
X37274Y49035D02*
X37569D01*
X37205Y49104D02*
X37274Y49035D01*
X37205Y49104D02*
Y49557D01*
X37274Y49626D02*
X37569D01*
X37205Y49557D02*
X37274Y49626D01*
X38159Y49724D02*
X38455D01*
X38524Y49793D01*
Y50246D01*
X38455Y50315D02*
X38524Y50246D01*
X38159Y50315D02*
X38455D01*
X37274Y49724D02*
X37569D01*
X37205Y49793D02*
X37274Y49724D01*
X37205Y49793D02*
Y50246D01*
X37274Y50315D02*
X37569D01*
X37205Y50246D02*
X37274Y50315D01*
X22106Y48425D02*
X22402D01*
X22470Y48494D01*
Y48947D01*
X22402Y49016D02*
X22470Y48947D01*
X22106Y49016D02*
X22402D01*
X21220Y48425D02*
X21516D01*
X21152Y48494D02*
X21220Y48425D01*
X21152Y48494D02*
Y48947D01*
X21220Y49016D02*
X21516D01*
X21152Y48947D02*
X21220Y49016D01*
X21171Y47726D02*
X21535D01*
X21171D02*
Y48317D01*
X21535D01*
X22126Y47726D02*
X22490D01*
Y48317D01*
X22126D02*
X22490D01*
X23287Y46801D02*
Y47126D01*
X23218Y46732D02*
X23287Y46801D01*
X22569Y46732D02*
X23218D01*
X22500Y46801D02*
Y47126D01*
Y46801D02*
X22569Y46732D01*
X22500Y47815D02*
Y48140D01*
X22569Y48209D01*
X23219D01*
X23287Y47815D02*
Y48140D01*
X23219Y48209D02*
X23287Y48140D01*
X53829Y35344D02*
X54124D01*
X54193Y35413D01*
Y35866D01*
X54124Y35935D02*
X54193Y35866D01*
X53829Y35935D02*
X54124D01*
X52943Y35344D02*
X53238D01*
X52874Y35413D02*
X52943Y35344D01*
X52874Y35413D02*
Y35866D01*
X52943Y35935D02*
X53238D01*
X52874Y35866D02*
X52943Y35935D01*
X49754Y29537D02*
X50118D01*
X49754D02*
Y30128D01*
X50118D01*
X50709Y29537D02*
X51073D01*
Y30128D01*
X50709D02*
X51073D01*
X52264Y31407D02*
X52559D01*
X52628Y31476D01*
Y31929D01*
X52559Y31998D02*
X52628Y31929D01*
X52264Y31998D02*
X52559D01*
X51378Y31407D02*
X51673D01*
X51309Y31476D02*
X51378Y31407D01*
X51309Y31476D02*
Y31929D01*
X51378Y31998D02*
X51673D01*
X51309Y31929D02*
X51378Y31998D01*
X53848Y31407D02*
X54144D01*
X54213Y31476D01*
Y31929D01*
X54144Y31998D02*
X54213Y31929D01*
X53848Y31998D02*
X54144D01*
X52963Y31407D02*
X53258D01*
X52894Y31476D02*
X52963Y31407D01*
X52894Y31476D02*
Y31929D01*
X52963Y31998D02*
X53258D01*
X52894Y31929D02*
X52963Y31998D01*
X54971Y28819D02*
Y29183D01*
X54380Y28819D02*
X54971D01*
X54380D02*
Y29183D01*
X54971Y29774D02*
Y30138D01*
X54380D02*
X54971D01*
X54380Y29774D02*
Y30138D01*
X51988Y38888D02*
Y39252D01*
X52579D01*
Y38888D02*
Y39252D01*
X51988Y37933D02*
Y38297D01*
Y37933D02*
X52579D01*
Y38297D01*
X45768Y38563D02*
X46132D01*
X45768D02*
Y39154D01*
X46132D01*
X46722Y38563D02*
X47087D01*
Y39154D01*
X46722D02*
X47087D01*
X45758Y39252D02*
X46122D01*
X45758D02*
Y39843D01*
X46122D01*
X46713Y39252D02*
X47077D01*
Y39843D01*
X46713D02*
X47077D01*
X60344Y40856D02*
Y41220D01*
X59754Y40856D02*
X60344D01*
X59754D02*
Y41220D01*
X60344Y41811D02*
Y42175D01*
X59754D02*
X60344D01*
X59754Y41811D02*
Y42175D01*
X57844Y36496D02*
X58238D01*
X57844Y35709D02*
X58238D01*
X57844D02*
Y36496D01*
X59321Y35709D02*
Y36496D01*
X58927D02*
X59321D01*
X58927Y35709D02*
X59321D01*
X59754Y39528D02*
Y39823D01*
Y39528D02*
X59823Y39459D01*
X60276D01*
X60344Y39528D01*
Y39823D01*
X59754Y40413D02*
Y40709D01*
X59823Y40778D01*
X60276D01*
X60344Y40413D02*
Y40709D01*
X60276Y40778D02*
X60344Y40709D01*
X58602Y37736D02*
Y38100D01*
X59193D01*
Y37736D02*
Y38100D01*
X58602Y36781D02*
Y37146D01*
Y36781D02*
X59193D01*
Y37146D01*
X63366Y36860D02*
Y37156D01*
Y36860D02*
X63435Y36791D01*
X63888D01*
X63957Y36860D01*
Y37156D01*
X63366Y37746D02*
Y38041D01*
X63435Y38110D01*
X63888D01*
X63957Y37746D02*
Y38041D01*
X63888Y38110D02*
X63957Y38041D01*
X67795Y43199D02*
X68091D01*
X67726Y43130D02*
X67795Y43199D01*
X67726Y42677D02*
Y43130D01*
Y42677D02*
X67795Y42608D01*
X68091D01*
X68681Y43199D02*
X68976D01*
X69045Y43130D01*
Y42677D02*
Y43130D01*
X68681Y42608D02*
X68976D01*
X69045Y42677D01*
X66142Y48150D02*
X66437D01*
X66073Y48081D02*
X66142Y48150D01*
X66073Y47628D02*
Y48081D01*
Y47628D02*
X66142Y47559D01*
X66437D01*
X67028Y48150D02*
X67323D01*
X67392Y48081D01*
Y47628D02*
Y48081D01*
X67028Y47559D02*
X67323D01*
X67392Y47628D01*
X65384Y47559D02*
X65679D01*
X65748Y47628D01*
Y48081D01*
X65679Y48150D02*
X65748Y48081D01*
X65384Y48150D02*
X65679D01*
X64498Y47559D02*
X64793D01*
X64429Y47628D02*
X64498Y47559D01*
X64429Y47628D02*
Y48081D01*
X64498Y48150D02*
X64793D01*
X64429Y48081D02*
X64498Y48150D01*
X55138Y42343D02*
Y42638D01*
X55069Y42707D02*
X55138Y42638D01*
X54616Y42707D02*
X55069D01*
X54547Y42638D02*
X54616Y42707D01*
X54547Y42343D02*
Y42638D01*
X55138Y41457D02*
Y41752D01*
X55069Y41388D02*
X55138Y41457D01*
X54616Y41388D02*
X55069D01*
X54547Y41457D02*
Y41752D01*
Y41457D02*
X54616Y41388D01*
X57136Y22539D02*
X57500D01*
X57136D02*
Y23130D01*
X57500D01*
X58091Y22539D02*
X58455D01*
Y23130D01*
X58091D02*
X58455D01*
X58593Y22539D02*
X58957D01*
X58593D02*
Y23130D01*
X58957D01*
X59547Y22539D02*
X59911D01*
Y23130D01*
X59547D02*
X59911D01*
X81368Y20325D02*
Y20846D01*
Y20325D02*
X82293D01*
Y20846D01*
X81368Y21732D02*
Y22254D01*
X82293D01*
Y21732D02*
Y22254D01*
X83297Y21732D02*
Y22185D01*
X83228Y22254D02*
X83297Y22185D01*
X82372Y21732D02*
Y22185D01*
X82441Y22254D01*
X83228D01*
X83297Y20384D02*
Y20846D01*
X83238Y20325D02*
X83297Y20384D01*
X82372Y20394D02*
Y20846D01*
Y20394D02*
X82441Y20325D01*
X83238D01*
X80276Y37077D02*
Y37441D01*
X79685Y37077D02*
X80276D01*
X79685D02*
Y37441D01*
X80276Y38031D02*
Y38396D01*
X79685D02*
X80276D01*
X79685Y38031D02*
Y38396D01*
X79026Y37146D02*
Y37441D01*
Y37146D02*
X79094Y37077D01*
X79547D01*
X79616Y37146D01*
Y37441D01*
X79026Y38031D02*
Y38327D01*
X79094Y38396D01*
X79547D01*
X79616Y38031D02*
Y38327D01*
X79547Y38396D02*
X79616Y38327D01*
X78317Y38031D02*
Y38396D01*
X78907D01*
Y38031D02*
Y38396D01*
X78317Y37077D02*
Y37441D01*
Y37077D02*
X78907D01*
Y37441D01*
X83307Y40266D02*
X83602D01*
X83671Y40335D01*
Y40787D01*
X83602Y40856D02*
X83671Y40787D01*
X83307Y40856D02*
X83602D01*
X82421Y40266D02*
X82717D01*
X82352Y40335D02*
X82421Y40266D01*
X82352Y40335D02*
Y40787D01*
X82421Y40856D02*
X82717D01*
X82352Y40787D02*
X82421Y40856D01*
X38018Y36567D02*
Y36665D01*
X37809Y36358D02*
X38018Y36567D01*
X37698Y36985D02*
X38018Y36665D01*
X37601Y36985D02*
X37698D01*
X37392Y36776D02*
X37601Y36985D01*
X37183Y35732D02*
X37392Y35941D01*
X37085Y35732D02*
X37183D01*
X36765Y36052D02*
X37085Y35732D01*
X36765Y36052D02*
Y36149D01*
X36974Y36358D01*
X52077Y35344D02*
X52146Y35413D01*
X51782Y35344D02*
X52077D01*
X52146Y35413D02*
Y35866D01*
X52077Y35935D02*
X52146Y35866D01*
X51782Y35935D02*
X52077D01*
X50896Y35344D02*
X51191D01*
X50827Y35413D02*
X50896Y35344D01*
X50827Y35413D02*
Y35866D01*
X50896Y35935D01*
X51191D01*
X66654Y25915D02*
X66722Y25984D01*
X67018D01*
X66654Y25463D02*
Y25915D01*
Y25463D02*
X66722Y25394D01*
X67018D01*
X67608Y25984D02*
X67904D01*
X67972Y25915D01*
Y25463D02*
Y25915D01*
X67904Y25394D02*
X67972Y25463D01*
X67608Y25394D02*
X67904D01*
X55807Y44823D02*
Y45118D01*
Y44823D02*
X55876Y44754D01*
X56329D01*
X56398Y44823D01*
Y45118D01*
X55807Y45709D02*
Y46004D01*
X55876Y46073D01*
X56329D01*
X56398Y45709D02*
Y46004D01*
X56329Y46073D02*
X56398Y46004D01*
X53691Y39518D02*
Y39813D01*
Y39518D02*
X53760Y39449D01*
X54213D01*
X54282Y39518D01*
Y39813D01*
X53691Y40404D02*
Y40699D01*
X53760Y40768D01*
X54213D01*
X54282Y40404D02*
Y40699D01*
X54213Y40768D02*
X54282Y40699D01*
X52254Y46240D02*
X52323Y46309D01*
X52618D01*
X52254Y45787D02*
Y46240D01*
Y45787D02*
X52323Y45718D01*
X52618D01*
X53209Y46309D02*
X53504D01*
X53573Y46240D01*
Y45787D02*
Y46240D01*
X53504Y45718D02*
X53573Y45787D01*
X53209Y45718D02*
X53504D01*
X64911Y41722D02*
Y42008D01*
X64833Y42087D02*
X64911Y42008D01*
X64400Y42087D02*
X64833D01*
X64321Y41722D02*
Y42008D01*
X64400Y42087D01*
X64321Y40886D02*
X64911D01*
X64321D02*
Y41230D01*
X64911Y40886D02*
Y41230D01*
X56634Y23130D02*
X56998D01*
Y22539D02*
Y23130D01*
X56634Y22539D02*
X56998D01*
X55679Y23130D02*
X56043D01*
X55679Y22539D02*
Y23130D01*
Y22539D02*
X56043D01*
X54892Y32835D02*
Y33199D01*
X54301Y32835D02*
X54892D01*
X54301D02*
Y33199D01*
X54892Y33789D02*
Y34154D01*
X54301D02*
X54892D01*
X54301Y33789D02*
Y34154D01*
X64242Y39419D02*
Y39783D01*
X63652Y39419D02*
X64242D01*
X63652D02*
Y39783D01*
X64242Y40374D02*
Y40738D01*
X63652D02*
X64242D01*
X63652Y40374D02*
Y40738D01*
Y41772D02*
Y42136D01*
X64242D01*
Y41772D02*
Y42136D01*
X63652Y40817D02*
Y41181D01*
Y40817D02*
X64242D01*
Y41181D01*
X55138Y45709D02*
Y46073D01*
X55728D01*
Y45709D02*
Y46073D01*
X55138Y44754D02*
Y45118D01*
Y44754D02*
X55728D01*
Y45118D01*
X57067Y44754D02*
Y45118D01*
X56476Y44754D02*
X57067D01*
X56476D02*
Y45118D01*
X57067Y45709D02*
Y46073D01*
X56476D02*
X57067D01*
X56476Y45709D02*
Y46073D01*
X54272Y44636D02*
Y45030D01*
X55059Y44636D02*
Y45030D01*
X54272Y44636D02*
X55059D01*
X54272Y46112D02*
X55059D01*
X54272Y45718D02*
Y46112D01*
X55059Y45718D02*
Y46112D01*
X56181Y38593D02*
Y38957D01*
X56772D01*
Y38593D02*
Y38957D01*
X56181Y37638D02*
Y38002D01*
Y37638D02*
X56772D01*
Y38002D01*
X56132Y46742D02*
Y47106D01*
X55541Y46742D02*
X56132D01*
X55541D02*
Y47106D01*
X56132Y47697D02*
Y48061D01*
X55541D02*
X56132D01*
X55541Y47697D02*
Y48061D01*
X56211Y47697D02*
Y48061D01*
X56801D01*
Y47697D02*
Y48061D01*
X56211Y46742D02*
Y47106D01*
Y46742D02*
X56801D01*
Y47106D01*
X48130Y30679D02*
X47736D01*
X47933Y30482D02*
Y30876D01*
X41742Y30807D02*
Y31201D01*
X41545Y31004D02*
X41939D01*
X62205Y38337D02*
Y38730D01*
X62008Y38533D02*
X62402D01*
X68258Y39646D02*
Y39252D01*
X68455Y39449D02*
X68061D01*
X69547Y44596D02*
X69941D01*
X69744Y44793D02*
Y44400D01*
X56880Y42175D02*
X56486D01*
X56683Y41979D02*
Y42372D01*
X56526Y48091D02*
Y47697D01*
X56722Y47894D02*
X56329D01*
X63976Y47490D02*
X64370D01*
X64173Y47687D02*
Y47293D01*
X68169Y49823D02*
X67776D01*
X67973Y49626D02*
Y50020D01*
X83071Y33730D02*
X82677D01*
X82874Y33534D02*
Y33927D01*
X83150Y43435D02*
X82756D01*
X82953Y43238D02*
Y43632D01*
X56929Y39370D02*
X56536D01*
X56732Y39173D02*
Y39567D01*
X51299Y47854D02*
X51693D01*
X51496Y48051D02*
Y47657D01*
D17*
X64616Y40807D02*
Y40827D01*
Y40728D02*
Y40748D01*
D18*
X45669Y44486D02*
X45999D01*
X45669Y44516D02*
X45999D01*
X45699Y44546D02*
X46029D01*
X45699Y44576D02*
X46029D01*
X45759Y44636D02*
X46059D01*
X45759Y44666D02*
X46059D01*
X45789Y44696D02*
X46089D01*
X45819Y44726D02*
X46089D01*
X45819Y44756D02*
X46119D01*
X45819Y44786D02*
X46119D01*
X45849Y44816D02*
X46119D01*
X45849Y44846D02*
X46149D01*
X45879Y44876D02*
X46149D01*
X45879Y44906D02*
X46179D01*
X45909Y44936D02*
X46179D01*
X45909Y44966D02*
X46179D01*
X45939Y44996D02*
X46209D01*
X45939Y45026D02*
X46209D01*
X45969Y45056D02*
X46209D01*
X45969Y45086D02*
X46209D01*
X45999Y45116D02*
X46239D01*
X45999Y45146D02*
X46239D01*
X46029Y45176D02*
X46239D01*
X46029Y45206D02*
X46269D01*
X46029Y45236D02*
X46269D01*
X46059Y45266D02*
X46269D01*
X46059Y45296D02*
X46299D01*
X46059Y45326D02*
X46299D01*
X46089Y45356D02*
X46299D01*
X46089Y45386D02*
X46299D01*
X46119Y45446D02*
X46329D01*
X46119Y45476D02*
X46329D01*
X46119Y45506D02*
X46329D01*
X46149Y45536D02*
X46329D01*
X46149Y45566D02*
X46359D01*
X46149Y45596D02*
X46359D01*
X46149Y45626D02*
X46359D01*
X46179Y45656D02*
X46359D01*
X46179Y45686D02*
X46359D01*
X46179Y45716D02*
X46389D01*
X46209Y45746D02*
X46389D01*
X46209Y45776D02*
X46389D01*
X46209Y45806D02*
X46389D01*
X46239Y45836D02*
X46389D01*
X46239Y45866D02*
X46389D01*
X46239Y45896D02*
X46389D01*
X46239Y45926D02*
X46389D01*
X46359Y46976D02*
X46389D01*
X46359Y47036D02*
X46389D01*
X46329Y47066D02*
X46389D01*
X46329Y47096D02*
X46389D01*
X46329Y47126D02*
X46389D01*
X46329Y47156D02*
X46389D01*
X46329Y47186D02*
X46359D01*
X46329Y47216D02*
X46359D01*
X44889Y43586D02*
X45459D01*
X44919Y43616D02*
X45489D01*
X44949Y43646D02*
X45519D01*
X44979Y43676D02*
X45519D01*
X45009Y43706D02*
X45549D01*
X45069Y43736D02*
X45579D01*
X45099Y43766D02*
X45579D01*
X44049Y44366D02*
X44439D01*
X44079Y44396D02*
X44439D01*
X44109Y44426D02*
X44469D01*
X44139Y44456D02*
X44469D01*
X44169Y44486D02*
X44499D01*
X44199Y44516D02*
X44499D01*
X44229Y44546D02*
X44529D01*
X44229Y44576D02*
X44529D01*
X44289Y44636D02*
X44559D01*
X44319Y44666D02*
X44589D01*
X44349Y44696D02*
X44589D01*
X44349Y44726D02*
X44619D01*
X44379Y44756D02*
X44619D01*
X44379Y44786D02*
X44619D01*
X44409Y44816D02*
X44649D01*
X44439Y44846D02*
X44649D01*
X44439Y44876D02*
X44679D01*
X44469Y44906D02*
X44679D01*
X44469Y44936D02*
X44679D01*
X44499Y44966D02*
X44709D01*
X44529Y44996D02*
X44709D01*
X44529Y45026D02*
X44709D01*
X44559Y45056D02*
X44709D01*
X44559Y45086D02*
X44739D01*
X44559Y45116D02*
X44739D01*
X44589Y45146D02*
X44739D01*
X44589Y45176D02*
X44739D01*
X44589Y45206D02*
X44769D01*
X44619Y45236D02*
X44769D01*
X44619Y45266D02*
X44769D01*
X44649Y45296D02*
X44769D01*
X44649Y45326D02*
X44769D01*
X44649Y45356D02*
X44769D01*
X44679Y45386D02*
X44769D01*
X44679Y45446D02*
X44769D01*
X44679Y45476D02*
X44799D01*
X44709Y45506D02*
X44799D01*
X44709Y45536D02*
X44799D01*
X44709Y45566D02*
X44799D01*
X44709Y45596D02*
X44799D01*
X44739Y45626D02*
X44799D01*
X44739Y45656D02*
X44799D01*
X44739Y45686D02*
X44799D01*
X44739Y45716D02*
X44799D01*
X44739Y45746D02*
X44799D01*
X44739Y45776D02*
X44769D01*
X42579Y43376D02*
X43029D01*
X42459Y43406D02*
X43149D01*
X42459Y46526D02*
X42759D01*
X42489Y46556D02*
X42789D01*
X42549Y46586D02*
X42819D01*
X42579Y46616D02*
X42849D01*
X42609Y46646D02*
X42879D01*
X42639Y46676D02*
X42909D01*
X42699Y46706D02*
X42969D01*
X42759Y46736D02*
X42999D01*
X42789Y46766D02*
X43029D01*
X42849Y46796D02*
X43089D01*
X42909Y46826D02*
X43119D01*
X42969Y46856D02*
X43179D01*
X43029Y46886D02*
X43209D01*
X42489Y48656D02*
X43029D01*
X42549Y48686D02*
X43089D01*
X42579Y48716D02*
X43149D01*
X42639Y48746D02*
X43209D01*
X41709Y44186D02*
X42399D01*
X41709Y44216D02*
X42399D01*
X41709Y44246D02*
X42369D01*
X41679Y44276D02*
X42339D01*
X41679Y44306D02*
X42309D01*
X41679Y44336D02*
X42309D01*
X41679Y44366D02*
X42279D01*
X41649Y44396D02*
X42249D01*
X41649Y44426D02*
X42249D01*
X41649Y44456D02*
X42219D01*
X41649Y44486D02*
X42219D01*
X41649Y44516D02*
X42219D01*
X41649Y44546D02*
X42189D01*
X41649Y44576D02*
X42189D01*
X41649Y44936D02*
X42099D01*
X41649Y44966D02*
X42099D01*
X41649Y44996D02*
X42099D01*
X41649Y45026D02*
X42099D01*
X41649Y45056D02*
X42099D01*
X41649Y45086D02*
X42099D01*
X41649Y45116D02*
X42099D01*
X41679Y45146D02*
X42099D01*
X41679Y45176D02*
X42099D01*
X41679Y45206D02*
X42099D01*
X41679Y45236D02*
X42099D01*
X41709Y45266D02*
X42099D01*
X41709Y45296D02*
X42099D01*
X41709Y45326D02*
X42099D01*
X41709Y45356D02*
X42129D01*
X41739Y45386D02*
X42129D01*
X41739Y45446D02*
X42129D01*
X41739Y45476D02*
X42129D01*
X41769Y45506D02*
X42159D01*
X41769Y45536D02*
X42159D01*
X41799Y45566D02*
X42159D01*
X41799Y45596D02*
X42159D01*
X41829Y45626D02*
X42189D01*
X41829Y45656D02*
X42189D01*
X41829Y45686D02*
X42189D01*
X41859Y45716D02*
X42219D01*
X41859Y45746D02*
X42219D01*
X41889Y45776D02*
X42219D01*
X41889Y45806D02*
X42249D01*
X41919Y45836D02*
X42249D01*
X41919Y45866D02*
X42279D01*
X41949Y45896D02*
X42279D01*
X41979Y45926D02*
X42309D01*
X41979Y45956D02*
X42309D01*
X42009Y45986D02*
X42339D01*
X42009Y46016D02*
X42339D01*
X42039Y46046D02*
X42369D01*
X42069Y46076D02*
X42399D01*
X42069Y46106D02*
X42399D01*
X41649Y47996D02*
X42189D01*
X41679Y48026D02*
X42219D01*
X41709Y48056D02*
X42249D01*
X41739Y48086D02*
X42279D01*
X41769Y48116D02*
X42309D01*
X41799Y48146D02*
X42339D01*
X41829Y48176D02*
X42369D01*
X41889Y48206D02*
X42399D01*
X40869Y46946D02*
X41409D01*
X40869Y46976D02*
X41439D01*
X40899Y47036D02*
X41469D01*
X40929Y47066D02*
X41499D01*
X40959Y47096D02*
X41499D01*
X40959Y47126D02*
X41529D01*
X40989Y47156D02*
X41559D01*
X41019Y47186D02*
X41559D01*
X41019Y47216D02*
X41589D01*
X41049Y47246D02*
X41589D01*
X45729Y44606D02*
X46059D01*
X46089Y45416D02*
X46329D01*
X46359Y47006D02*
X46389D01*
X45099Y43796D02*
X45609D01*
X44259Y44606D02*
X44559D01*
X44679Y45416D02*
X44769D01*
X41739D02*
X42129D01*
X40899Y47006D02*
X41469D01*
X43689Y42896D02*
X44829D01*
X43749Y42926D02*
X44859D01*
X43839Y42956D02*
X44889D01*
X43899Y42986D02*
X44919D01*
X44049Y43046D02*
X44979D01*
X44109Y43076D02*
X45009D01*
X44199Y43106D02*
X45039D01*
X44259Y43136D02*
X45069D01*
X44289Y43166D02*
X45099D01*
X44349Y43196D02*
X45129D01*
X44379Y43226D02*
X45159D01*
X44439Y43256D02*
X45189D01*
X44499Y43286D02*
X45219D01*
X44529Y43316D02*
X45249D01*
X44589Y43346D02*
X45279D01*
X44619Y43376D02*
X45279D01*
X44649Y43406D02*
X45309D01*
X44709Y43436D02*
X45339D01*
X44739Y43466D02*
X45369D01*
X44769Y43496D02*
X45399D01*
X44799Y43526D02*
X45399D01*
X44829Y43556D02*
X45429D01*
X45129Y43826D02*
X45639D01*
X45159Y43856D02*
X45639D01*
X45189Y43886D02*
X45669D01*
X45219Y43916D02*
X45669D01*
X45249Y43946D02*
X45699D01*
X45279Y43976D02*
X45729D01*
X45309Y44006D02*
X45729D01*
X45339Y44036D02*
X45759D01*
X45339Y44066D02*
X45789D01*
X45369Y44096D02*
X45789D01*
X43689D02*
X44229D01*
X45399Y44126D02*
X45819D01*
X43749D02*
X44259D01*
X45429Y44156D02*
X45819D01*
X43809D02*
X44289D01*
X45459Y44186D02*
X45849D01*
X43839D02*
X44319D01*
X45489Y44216D02*
X45849D01*
X43869D02*
X44319D01*
X45489Y44246D02*
X45879D01*
X43899D02*
X44349D01*
X45519Y44276D02*
X45879D01*
X43959D02*
X44379D01*
X45549Y44306D02*
X45909D01*
X43989D02*
X44379D01*
X45549Y44336D02*
X45909D01*
X44019D02*
X44409D01*
X45579Y44366D02*
X45939D01*
X45609Y44396D02*
X45939D01*
X45609Y44426D02*
X45969D01*
X45639Y44456D02*
X45999D01*
X46239Y45956D02*
X46419D01*
X46269Y45986D02*
X46419D01*
X46269Y46016D02*
X46419D01*
X46269Y46046D02*
X46419D01*
X46269Y46076D02*
X46419D01*
X46269Y46106D02*
X46419D01*
X46269Y46136D02*
X46419D01*
X46269Y46166D02*
X46419D01*
X46299Y46226D02*
X46419D01*
X46299Y46256D02*
X46419D01*
X46299Y46286D02*
X46419D01*
X46299Y46316D02*
X46419D01*
X46299Y46346D02*
X46419D01*
X46299Y46376D02*
X46419D01*
X46329Y46406D02*
X46419D01*
X46329Y46436D02*
X46419D01*
X46329Y46466D02*
X46419D01*
X46329Y46496D02*
X46419D01*
X46329Y46526D02*
X46419D01*
X46329Y46556D02*
X46419D01*
X46329Y46586D02*
X46419D01*
X46329Y46616D02*
X46419D01*
X46329Y46646D02*
X46419D01*
X46329Y46676D02*
X46419D01*
X46329Y46706D02*
X46419D01*
X46329Y46736D02*
X46419D01*
X46329Y46766D02*
X46419D01*
X46329Y46796D02*
X46419D01*
X46329Y46826D02*
X46419D01*
X46329Y46856D02*
X46419D01*
X46329Y46886D02*
X46419D01*
X46329Y46916D02*
X46419D01*
X46359Y46946D02*
X46419D01*
X43719Y49106D02*
X44529D01*
X42249Y41966D02*
X42939D01*
X42099Y41996D02*
X43119D01*
X41979Y42026D02*
X43239D01*
X41889Y42056D02*
X43359D01*
X41799Y42086D02*
X43479D01*
X41739Y42116D02*
X43539D01*
X40779Y42806D02*
X42639D01*
X40749Y42836D02*
X42489D01*
X40749Y42866D02*
X42369D01*
X40719Y42896D02*
X42279D01*
X40689Y42926D02*
X42189D01*
X40689Y42956D02*
X42129D01*
X40659Y42986D02*
X42069D01*
X40629Y43046D02*
X41949D01*
X40599Y43076D02*
X41889D01*
X40599Y43106D02*
X41859D01*
X40569Y43136D02*
X41829D01*
X40569Y43166D02*
X41769D01*
X40539Y43196D02*
X41739D01*
X40539Y43226D02*
X41709D01*
X40509Y43256D02*
X41679D01*
X40509Y43286D02*
X41649D01*
X40479Y43316D02*
X41619D01*
X40479Y43346D02*
X41559D01*
X40449Y43376D02*
X41529D01*
X40449Y43406D02*
X41529D01*
X42399Y43436D02*
X43269D01*
X40449D02*
X41499D01*
X42339Y43466D02*
X43359D01*
X42249Y43496D02*
X43449D01*
X42219Y43526D02*
X43509D01*
X42159Y43556D02*
X43569D01*
X41829Y43946D02*
X42909D01*
X41799Y43976D02*
X42759D01*
X41799Y44006D02*
X42669D01*
X41769Y44036D02*
X42609D01*
X41769Y44066D02*
X42549D01*
X41769Y44096D02*
X42519D01*
X41739Y44126D02*
X42489D01*
X41739Y44156D02*
X42429D01*
X41619Y44636D02*
X42159D01*
X41619Y44666D02*
X42159D01*
X41619Y44696D02*
X42129D01*
X41619Y44726D02*
X42129D01*
X41619Y44756D02*
X42129D01*
X41619Y44786D02*
X42129D01*
X41619Y44816D02*
X42129D01*
X41619Y44846D02*
X42099D01*
X41619Y44876D02*
X42099D01*
X41619Y44906D02*
X42099D01*
X40449Y46016D02*
X41049D01*
X40449Y46046D02*
X41079D01*
X40449Y46076D02*
X41079D01*
X40479Y46106D02*
X41079D01*
X42099Y46136D02*
X42429D01*
X40479D02*
X41109D01*
X42129Y46166D02*
X42429D01*
X40479D02*
X41109D01*
X42159Y46226D02*
X42489D01*
X40509D02*
X41109D01*
X42189Y46256D02*
X42519D01*
X40539D02*
X41139D01*
X42219Y46286D02*
X42519D01*
X40539D02*
X41139D01*
X42249Y46316D02*
X42549D01*
X40539D02*
X41139D01*
X42279Y46346D02*
X42579D01*
X40569D02*
X41169D01*
X42309Y46376D02*
X42609D01*
X40569D02*
X41169D01*
X42339Y46406D02*
X42639D01*
X40599D02*
X41169D01*
X42369Y46436D02*
X42639D01*
X40599D02*
X41199D01*
X42399Y46466D02*
X42699D01*
X40599D02*
X41199D01*
X42429Y46496D02*
X42729D01*
X40629D02*
X41229D01*
X40629Y46526D02*
X41229D01*
X40659Y46556D02*
X41259D01*
X40659Y46586D02*
X41259D01*
X40689Y46616D02*
X41259D01*
X40689Y46646D02*
X41289D01*
X40719Y46676D02*
X41289D01*
X40719Y46706D02*
X41319D01*
X40749Y46736D02*
X41319D01*
X40749Y46766D02*
X41349D01*
X40779Y46796D02*
X41349D01*
X40779Y46826D02*
X41349D01*
X40809Y46856D02*
X41379D01*
X40809Y46886D02*
X41379D01*
X43119Y46916D02*
X43269D01*
X40839D02*
X41409D01*
X43239Y46946D02*
X43269D01*
X41079Y47276D02*
X41619D01*
X41079Y47306D02*
X41649D01*
X41109Y47336D02*
X41649D01*
X41109Y47366D02*
X41679D01*
X41139Y47396D02*
X41679D01*
X41169Y47426D02*
X41709D01*
X41199Y47456D02*
X41739D01*
X41199Y47486D02*
X41769D01*
X41229Y47516D02*
X41799D01*
X41259Y47546D02*
X41799D01*
X41289Y47576D02*
X41829D01*
X41319Y47606D02*
X41859D01*
X41319Y47636D02*
X41889D01*
X41349Y47666D02*
X41889D01*
X41379Y47696D02*
X41919D01*
X41409Y47726D02*
X41949D01*
X41439Y47756D02*
X41979D01*
X41469Y47786D02*
X41979D01*
X41499Y47846D02*
X42039D01*
X41529Y47876D02*
X42069D01*
X41559Y47906D02*
X42099D01*
X41589Y47936D02*
X42129D01*
X41619Y47966D02*
X42159D01*
X41919Y48236D02*
X42429D01*
X41949Y48266D02*
X42459D01*
X41979Y48296D02*
X42519D01*
X42009Y48326D02*
X42549D01*
X42069Y48356D02*
X42579D01*
X42099Y48386D02*
X42639D01*
X42129Y48416D02*
X42669D01*
X42159Y48446D02*
X42699D01*
X42219Y48476D02*
X42759D01*
X42249Y48506D02*
X42789D01*
X42309Y48536D02*
X42819D01*
X42339Y48566D02*
X42879D01*
X42429Y48626D02*
X42999D01*
X42699Y48776D02*
X43269D01*
X42759Y48806D02*
X43329D01*
X42819Y48836D02*
X43389D01*
X42909Y48866D02*
X43479D01*
X42969Y48896D02*
X43569D01*
X43989Y43016D02*
X44949D01*
X46299Y46196D02*
X46419D01*
X40629Y43016D02*
X42009D01*
X41619Y44606D02*
X42159D01*
Y46196D02*
X42459D01*
X40509D02*
X41109D01*
X41469Y47816D02*
X42009D01*
X42399Y48596D02*
X42939D01*
X43329Y42806D02*
X44709D01*
X43449Y42836D02*
X44769D01*
X43569Y42866D02*
X44799D01*
X42129Y43586D02*
X43629D01*
X42099Y43616D02*
X43689D01*
X42069Y43646D02*
X43719D01*
X43209Y43946D02*
X44109D01*
X43419Y43976D02*
X44139D01*
X43509Y44006D02*
X44169D01*
X43569Y44036D02*
X44199D01*
X43629Y44066D02*
X44199D01*
X43029Y48926D02*
X43659D01*
X43119Y48956D02*
X43749D01*
X43209Y48986D02*
X43899D01*
X43299Y49016D02*
X44139D01*
X43389Y49046D02*
X44829D01*
X43539Y49076D02*
X44709D01*
X40419Y43466D02*
X41469D01*
X40419Y43496D02*
X41439D01*
X40419Y43526D02*
X41409D01*
X40389Y43556D02*
X41409D01*
X40389Y43586D02*
X41379D01*
X40389Y43616D02*
X41349D01*
X40359Y43646D02*
X41349D01*
X40359Y43676D02*
X41319D01*
X40329Y43706D02*
X41289D01*
X40329Y43736D02*
X41289D01*
X40329Y43766D02*
X41259D01*
X40299Y43826D02*
X41229D01*
X40299Y43856D02*
X41229D01*
X40299Y43886D02*
X41199D01*
X40299Y43916D02*
X41199D01*
X40269Y43946D02*
X41169D01*
X40269Y43976D02*
X41169D01*
X40269Y44006D02*
X41139D01*
X40269Y44036D02*
X41139D01*
X40239Y44066D02*
X41109D01*
X40239Y44096D02*
X41109D01*
X40239Y44126D02*
X41109D01*
X40239Y44156D02*
X41109D01*
X40239Y44186D02*
X41079D01*
X40239Y44216D02*
X41079D01*
X40239Y44246D02*
X41079D01*
X40239Y44276D02*
X41049D01*
X40239Y44306D02*
X41049D01*
X40209Y44336D02*
X41049D01*
X40209Y44366D02*
X41019D01*
X40209Y44396D02*
X41019D01*
X40209Y44426D02*
X41019D01*
X40209Y44456D02*
X41019D01*
X40209Y44486D02*
X41019D01*
X40209Y44516D02*
X40989D01*
X40209Y44546D02*
X40989D01*
X40209Y44576D02*
X40989D01*
X40209Y44636D02*
X40989D01*
X40209Y44666D02*
X40989D01*
X40209Y44696D02*
X40989D01*
X40209Y44726D02*
X40959D01*
X40209Y44756D02*
X40959D01*
X40209Y44786D02*
X40959D01*
X40209Y44816D02*
X40959D01*
X40209Y44846D02*
X40959D01*
X40209Y44876D02*
X40959D01*
X40239Y44906D02*
X40959D01*
X40239Y44936D02*
X40959D01*
X40239Y44966D02*
X40959D01*
X40239Y44996D02*
X40959D01*
X40239Y45026D02*
X40959D01*
X40239Y45056D02*
X40959D01*
X40239Y45086D02*
X40959D01*
X40239Y45116D02*
X40959D01*
X40239Y45146D02*
X40959D01*
X40239Y45176D02*
X40959D01*
X40239Y45206D02*
X40959D01*
X40269Y45236D02*
X40959D01*
X40269Y45266D02*
X40959D01*
X40269Y45296D02*
X40959D01*
X40269Y45326D02*
X40959D01*
X40269Y45356D02*
X40959D01*
X40269Y45386D02*
X40959D01*
X40299Y45446D02*
X40959D01*
X40299Y45476D02*
X40959D01*
X40299Y45506D02*
X40959D01*
X40299Y45536D02*
X40959D01*
X40329Y45566D02*
X40989D01*
X40329Y45596D02*
X40989D01*
X40329Y45626D02*
X40989D01*
X40329Y45656D02*
X40989D01*
X40329Y45686D02*
X40989D01*
X40359Y45716D02*
X40989D01*
X40359Y45746D02*
X40989D01*
X40359Y45776D02*
X41019D01*
X40389Y45806D02*
X41019D01*
X40389Y45836D02*
X41019D01*
X40389Y45866D02*
X41019D01*
X40419Y45896D02*
X41019D01*
X40419Y45926D02*
X41049D01*
X40419Y45956D02*
X41049D01*
X40419Y45986D02*
X41049D01*
X40329Y43796D02*
X41259D01*
X40209Y44606D02*
X40989D01*
X40299Y45416D02*
X40959D01*
X41649Y42146D02*
X43629D01*
X41589Y42176D02*
X43689D01*
X41469Y42236D02*
X43839D01*
X41409Y42266D02*
X43899D01*
X41379Y42296D02*
X43959D01*
X41319Y42326D02*
X44019D01*
X41259Y42356D02*
X44079D01*
X41229Y42386D02*
X44139D01*
X41169Y42416D02*
X44169D01*
X41139Y42446D02*
X44229D01*
X41109Y42476D02*
X44289D01*
X41079Y42506D02*
X44319D01*
X41019Y42536D02*
X44379D01*
X40989Y42566D02*
X44409D01*
X40959Y42596D02*
X44439D01*
X40929Y42626D02*
X44499D01*
X40899Y42656D02*
X44529D01*
X40869Y42686D02*
X44589D01*
X40839Y42716D02*
X44619D01*
X40839Y42746D02*
X44649D01*
X40809Y42776D02*
X44679D01*
X42039Y43676D02*
X43779D01*
X42009Y43706D02*
X43809D01*
X41979Y43736D02*
X43869D01*
X41949Y43766D02*
X43899D01*
X41889Y43826D02*
X43989D01*
X41889Y43856D02*
X44019D01*
X41859Y43886D02*
X44049D01*
X41859Y43916D02*
X44079D01*
X41529Y42206D02*
X43779D01*
X41919Y43796D02*
X43959D01*
D19*
X32776Y22087D02*
Y24843D01*
Y19724D02*
Y20906D01*
Y19724D02*
X38563D01*
Y20906D01*
Y22087D02*
Y24843D01*
X36850Y25433D02*
X37835D01*
X44800Y37182D02*
Y37749D01*
Y37182D02*
X45574D01*
Y37749D01*
X44800Y37959D02*
Y38527D01*
X45574Y37959D02*
Y38527D01*
X44800D02*
X45574D01*
X65194Y46641D02*
X65761D01*
Y47415D01*
X65194D02*
X65761D01*
X64416Y46641D02*
X64983D01*
X64416Y47415D02*
X64983D01*
X64416Y46641D02*
Y47415D01*
X66040Y47434D02*
X66607D01*
X66040Y46660D02*
Y47434D01*
Y46660D02*
X66607D01*
X66818Y47434D02*
X67385D01*
X66818Y46660D02*
X67385D01*
Y47434D01*
X56614Y22116D02*
X58583D01*
X59075Y19931D02*
Y21033D01*
X56122Y19931D02*
X59075D01*
X56122D02*
Y21033D01*
X63150Y22116D02*
X65118D01*
X65610Y19931D02*
Y21033D01*
X62657Y19931D02*
X65610D01*
X62657D02*
Y21033D01*
X69606Y22116D02*
X71575D01*
X72067Y19931D02*
Y21033D01*
X69114Y19931D02*
X72067D01*
X69114D02*
Y21033D01*
X70000Y35896D02*
X74961D01*
X70000Y40896D02*
X74961D01*
Y39872D02*
Y40896D01*
X70000Y39872D02*
Y40896D01*
X74961Y35896D02*
Y36880D01*
X70000Y35896D02*
Y36880D01*
X69990Y41604D02*
Y42589D01*
X74951Y41604D02*
Y42589D01*
X69990Y45581D02*
Y46604D01*
X74951Y45581D02*
Y46604D01*
X69990D02*
X74951D01*
X69990Y41604D02*
X74951D01*
D20*
X76791Y31496D02*
X77382D01*
X58642Y31201D02*
Y31791D01*
X58346Y31496D02*
X58937D01*
X55315Y30335D02*
X55906D01*
X55610Y30039D02*
Y30630D01*
X79902Y30335D02*
X80492D01*
D21*
X73248Y19774D02*
X73415D01*
X73331D01*
Y20273D01*
X73248Y20190D01*
X73998Y20273D02*
X73831Y20190D01*
X73665Y20024D01*
Y19857D01*
X73748Y19774D01*
X73914D01*
X73998Y19857D01*
Y19940D01*
X73914Y20024D01*
X73665D01*
X72205Y22411D02*
X72371D01*
X72288D01*
Y22911D01*
X72205Y22828D01*
X72954Y22911D02*
X72621D01*
Y22661D01*
X72788Y22745D01*
X72871D01*
X72954Y22661D01*
Y22495D01*
X72871Y22411D01*
X72705D01*
X72621Y22495D01*
X81299Y22441D02*
X81466D01*
X81383D01*
Y22941D01*
X81299Y22857D01*
X80884Y19774D02*
X80551D01*
X80884Y20107D01*
Y20190D01*
X80801Y20273D01*
X80634D01*
X80551Y20190D01*
D22*
X49370Y20374D02*
Y19902D01*
Y20138D01*
X49685D01*
Y20374D01*
Y19902D01*
X49842Y20374D02*
Y19902D01*
X50157D01*
X50630D02*
X50315D01*
X50630Y20216D01*
Y20295D01*
X50551Y20374D01*
X50393D01*
X50315Y20295D01*
X54774Y20581D02*
Y21053D01*
X55010D01*
X55088Y20974D01*
Y20817D01*
X55010Y20738D01*
X54774D01*
X54931D02*
X55088Y20581D01*
X55561D02*
X55246D01*
X55561Y20896D01*
Y20974D01*
X55482Y21053D01*
X55325D01*
X55246Y20974D01*
X56033Y20581D02*
X55718D01*
X56033Y20896D01*
Y20974D01*
X55954Y21053D01*
X55797D01*
X55718Y20974D01*
X54902Y20374D02*
Y19902D01*
Y20138D01*
X55216D01*
Y20374D01*
Y19902D01*
X55374Y20374D02*
Y19902D01*
X55689D01*
X55846D02*
X56004D01*
X55925D01*
Y20374D01*
X55846Y20295D01*
X73789Y27155D02*
Y26683D01*
X74026D01*
X74104Y26762D01*
Y27077D01*
X74026Y27155D01*
X73789D01*
X74577D02*
X74262D01*
Y26919D01*
X74419Y26998D01*
X74498D01*
X74577Y26919D01*
Y26762D01*
X74498Y26683D01*
X74340D01*
X74262Y26762D01*
M02*
